<svg width="102" height="31" viewBox="0 0 102 31" fill="none" xmlns="http://www.w3.org/2000/svg">
<path d="M14.4318 0.397615V29.4885H6.5341V7.67034H6.36365L1.12057e-05 11.4772V4.77262L7.1591 0.397615H14.4318ZM33.0753 30.284C30.4333 30.2745 28.1511 29.6637 26.2287 28.4516C24.3064 27.2395 22.8243 25.4923 21.7827 23.2101C20.741 20.9279 20.2249 18.1912 20.2344 14.9999C20.2439 11.7991 20.7647 9.08133 21.7969 6.84648C22.8386 4.61163 24.3158 2.91182 26.2287 1.74705C28.1511 0.582275 30.4333 -0.000112057 33.0753 -0.000112057C35.7173 -0.000112057 37.9995 0.58701 39.9219 1.76125C41.8442 2.92602 43.3262 4.62583 44.3679 6.86068C45.4096 9.09553 45.9257 11.8086 45.9162 14.9999C45.9162 18.2101 45.3954 20.9563 44.3537 23.2385C43.312 25.5207 41.83 27.2679 39.9077 28.48C37.9948 29.6827 35.7173 30.284 33.0753 30.284ZM33.0753 23.8635C34.4389 23.8635 35.5564 23.1533 36.4276 21.7328C37.3083 20.3029 37.7439 18.0586 37.7344 14.9999C37.7344 13.0018 37.5355 11.3683 37.1378 10.0993C36.7401 8.83038 36.1908 7.89288 35.4901 7.28682C34.7893 6.67129 33.9844 6.36353 33.0753 6.36353C31.7117 6.36353 30.599 7.05481 29.7372 8.43739C28.8755 9.81996 28.4351 12.0075 28.4162 14.9999C28.4067 17.0359 28.6009 18.712 28.9986 20.0283C29.3963 21.3351 29.9456 22.301 30.6463 22.926C31.3565 23.551 32.1662 23.8635 33.0753 23.8635ZM62.294 30.284C59.652 30.2745 57.3698 29.6637 55.4475 28.4516C53.5251 27.2395 52.0431 25.4923 51.0014 23.2101C49.9598 20.9279 49.4437 18.1912 49.4531 14.9999C49.4626 11.7991 49.9834 9.08133 51.0156 6.84648C52.0573 4.61163 53.5346 2.91182 55.4475 1.74705C57.3698 0.582275 59.652 -0.000112057 62.294 -0.000112057C64.9361 -0.000112057 67.2183 0.58701 69.1406 1.76125C71.063 2.92602 72.545 4.62583 73.5867 6.86068C74.6283 9.09553 75.1444 11.8086 75.135 14.9999C75.135 18.2101 74.6141 20.9563 73.5725 23.2385C72.5308 25.5207 71.0488 27.2679 69.1264 28.48C67.2136 29.6827 64.9361 30.284 62.294 30.284ZM62.294 23.8635C63.6577 23.8635 64.7751 23.1533 65.6463 21.7328C66.527 20.3029 66.9626 18.0586 66.9531 14.9999C66.9531 13.0018 66.7543 11.3683 66.3565 10.0993C65.9588 8.83038 65.4096 7.89288 64.7088 7.28682C64.0081 6.67129 63.2031 6.36353 62.294 6.36353C60.9304 6.36353 59.8177 7.05481 58.956 8.43739C58.0942 9.81996 57.6539 12.0075 57.635 14.9999C57.6255 17.0359 57.8196 18.712 58.2173 20.0283C58.6151 21.3351 59.1643 22.301 59.8651 22.926C60.5753 23.551 61.385 23.8635 62.294 23.8635ZM87.5923 25.5113V4.48853H93.956V25.5113H87.5923ZM80.2628 18.1817V11.8181H101.286V18.1817H80.2628Z" fill="white"/>
</svg>
