<svg width="70" height="30" viewBox="0 0 70 30" fill="none" xmlns="http://www.w3.org/2000/svg">
<path d="M14.4318 -8.96454e-05V29.0908H6.53409V7.27264H6.36363L-4.05312e-06 11.0795V4.37491L7.15909 -8.96454e-05H14.4318ZM32.0526 29.4885C29.8177 29.4885 27.8338 29.0956 26.1008 28.3096C24.3774 27.5141 23.0185 26.4204 22.0241 25.0283C21.0393 23.6363 20.5374 22.0359 20.5185 20.2272H28.1889C28.2173 21.231 28.6056 22.0312 29.3537 22.6278C30.1113 23.2243 31.0109 23.5226 32.0526 23.5226C32.8575 23.5226 33.5677 23.3522 34.1832 23.0113C34.7988 22.6609 35.2817 22.1685 35.6321 21.534C35.9825 20.8995 36.1529 20.1609 36.1435 19.3181C36.1529 18.4658 35.9825 17.7272 35.6321 17.1022C35.2817 16.4677 34.7988 15.98 34.1832 15.6391C33.5677 15.2887 32.8575 15.1135 32.0526 15.1135C31.2192 15.1135 30.4474 15.3171 29.7372 15.7243C29.0365 16.1221 28.5204 16.676 28.1889 17.3863L21.2571 16.0226L22.3935 -8.96454e-05H41.9389V6.30673H28.8707L28.3026 12.7272H28.473C28.9276 11.8465 29.7135 11.1173 30.831 10.5397C31.9484 9.95256 33.2457 9.659 34.723 9.659C36.456 9.659 37.9995 10.0615 39.3537 10.8664C40.7173 11.6713 41.7921 12.784 42.5781 14.2045C43.3736 15.6154 43.7666 17.2442 43.7571 19.0908C43.7666 21.1173 43.2836 22.9166 42.3082 24.4885C41.3423 26.051 39.9834 27.2774 38.2315 28.1675C36.4796 29.0482 34.42 29.4885 32.0526 29.4885ZM55.9126 25.1135V4.09082H62.2763V25.1135H55.9126ZM48.5831 17.784V11.4204H69.6058V17.784H48.5831Z" fill="white"/>
</svg>
