<svg width="85" height="32" viewBox="0 0 85 32" fill="none" xmlns="http://www.w3.org/2000/svg">
<path d="M11.6619 1.02284C13.357 1.02284 14.9621 1.29272 16.4773 1.8325C17.9924 2.3628 19.3324 3.20087 20.4971 4.3467C21.6714 5.49254 22.5899 6.98875 23.2528 8.83534C23.9252 10.6725 24.2661 12.8978 24.2755 15.5115C24.285 17.8978 23.9867 20.0427 23.3807 21.9461C22.7841 23.8401 21.9271 25.4547 20.8096 26.7899C19.7017 28.1251 18.3665 29.1478 16.804 29.8581C15.2509 30.5588 13.518 30.9092 11.6051 30.9092C9.45547 30.9092 7.56627 30.4973 5.93748 29.6734C4.30869 28.8495 3.01134 27.7416 2.04543 26.3495C1.07952 24.9575 0.516076 23.4092 0.355091 21.7047H8.13918C8.32858 22.5853 8.74524 23.2245 9.38918 23.6223C10.0331 24.0105 10.7718 24.2047 11.6051 24.2047C13.2718 24.2047 14.4886 23.485 15.2557 22.0456C16.0322 20.5967 16.4252 18.6649 16.4346 16.2501H16.2642C15.8949 17.1403 15.3362 17.9026 14.588 18.537C13.8399 19.1715 12.9687 19.6592 11.9744 20.0001C10.9801 20.341 9.92896 20.5115 8.821 20.5115C7.06911 20.5115 5.53502 20.1185 4.21873 19.3325C2.90244 18.537 1.87498 17.4528 1.13634 16.0797C0.397705 14.6971 0.0236521 13.1251 0.0141824 11.3637C0.00471273 9.29935 0.492402 7.49064 1.47725 5.93761C2.4621 4.38458 3.83047 3.17719 5.58236 2.31545C7.33426 1.45371 9.36077 1.02284 11.6619 1.02284ZM11.7187 6.98875C10.9327 6.98875 10.232 7.16867 9.61646 7.52852C9.0104 7.88837 8.53218 8.37606 8.1818 8.99159C7.84089 9.60712 7.67517 10.3031 7.68464 11.0797C7.69411 11.8562 7.8693 12.5522 8.21021 13.1677C8.56058 13.7833 9.03407 14.2709 9.63066 14.6308C10.2367 14.9906 10.9327 15.1706 11.7187 15.1706C12.2964 15.1706 12.8314 15.0711 13.3238 14.8723C13.8163 14.6639 14.2424 14.3751 14.6023 14.0058C14.9716 13.627 15.2557 13.1914 15.4545 12.699C15.6629 12.1971 15.7623 11.6573 15.7528 11.0797C15.7433 10.3031 15.5634 9.60712 15.213 8.99159C14.8627 8.37606 14.3844 7.88837 13.7784 7.52852C13.1723 7.16867 12.4858 6.98875 11.7187 6.98875ZM39.3288 30.9092C37.094 30.9092 35.1101 30.5162 33.3771 29.7302C31.6536 28.9348 30.2947 27.841 29.3004 26.449C28.3156 25.0569 27.8137 23.4566 27.7947 21.6478H35.4652C35.4936 22.6516 35.8818 23.4518 36.63 24.0484C37.3875 24.645 38.2871 24.9433 39.3288 24.9433C40.1337 24.9433 40.844 24.7728 41.4595 24.4319C42.075 24.0816 42.558 23.5891 42.9084 22.9547C43.2587 22.3202 43.4292 21.5816 43.4197 20.7387C43.4292 19.8865 43.2587 19.1478 42.9084 18.5228C42.558 17.8884 42.075 17.4007 41.4595 17.0598C40.844 16.7094 40.1337 16.5342 39.3288 16.5342C38.4955 16.5342 37.7237 16.7378 37.0135 17.145C36.3127 17.5427 35.7966 18.0967 35.4652 18.8069L28.5334 17.4433L29.6697 1.42056H49.2152V7.72738H36.147L35.5788 14.1478H35.7493C36.2038 13.2672 36.9898 12.538 38.1072 11.9603C39.2246 11.3732 40.522 11.0797 41.9993 11.0797C43.7322 11.0797 45.2758 11.4821 46.63 12.287C47.9936 13.092 49.0684 14.2047 49.8544 15.6251C50.6498 17.0361 51.0428 18.6649 51.0334 20.5115C51.0428 22.538 50.5599 24.3372 49.5845 25.9092C48.6186 27.4717 47.2597 28.698 45.5078 29.5882C43.7559 30.4689 41.6962 30.9092 39.3288 30.9092ZM71.0866 25.0569V23.5228C71.0866 22.2918 71.3518 21.1554 71.8821 20.1137C72.4219 19.0721 73.2031 18.234 74.2258 17.5995C75.2486 16.9651 76.4938 16.6478 77.9616 16.6478C79.4673 16.6478 80.7315 16.9603 81.7542 17.5853C82.7864 18.2103 83.5677 19.0437 84.098 20.0853C84.6283 21.127 84.8934 22.2728 84.8934 23.5228V25.0569C84.8934 26.288 84.6236 27.4244 84.0838 28.466C83.5535 29.5077 82.7722 30.3458 81.74 30.9802C80.7078 31.6147 79.4484 31.9319 77.9616 31.9319C76.4749 31.9319 75.2201 31.6147 74.1974 30.9802C73.1747 30.3458 72.3982 29.5077 71.8679 28.466C71.347 27.4244 71.0866 26.288 71.0866 25.0569ZM76.0298 23.5228V25.0569C76.0298 25.5967 76.1624 26.1317 76.4275 26.662C76.7022 27.1829 77.2135 27.4433 77.9616 27.4433C78.7476 27.4433 79.2637 27.1876 79.5099 26.6762C79.7656 26.1649 79.8934 25.6251 79.8934 25.0569V23.5228C79.8934 22.9547 79.7751 22.4054 79.5383 21.8751C79.3016 21.3448 78.776 21.0797 77.9616 21.0797C77.2135 21.0797 76.7022 21.3448 76.4275 21.8751C76.1624 22.4054 76.0298 22.9547 76.0298 23.5228ZM55.8594 8.4092V6.87511C55.8594 5.62511 56.1292 4.47928 56.669 3.43761C57.2183 2.39594 58.0042 1.56261 59.027 0.93761C60.0497 0.31261 61.2855 0.000109673 62.7344 0.000109673C64.24 0.000109673 65.5042 0.31261 66.527 0.93761C67.5592 1.56261 68.3404 2.39594 68.8707 3.43761C69.401 4.47928 69.6662 5.62511 69.6662 6.87511V8.4092C69.6662 9.6592 69.3963 10.8003 68.8565 11.8325C68.3262 12.8647 67.545 13.6886 66.5128 14.3041C65.4806 14.9196 64.2211 15.2274 62.7344 15.2274C61.2476 15.2274 59.9929 14.9149 58.9701 14.2899C57.9474 13.6649 57.1709 12.8363 56.6406 11.8041C56.1198 10.7719 55.8594 9.64026 55.8594 8.4092ZM60.8594 6.87511V8.4092C60.8594 8.97738 60.9919 9.51716 61.2571 10.0285C61.5222 10.5399 62.0147 10.7956 62.7344 10.7956C63.5203 10.7956 64.0364 10.5399 64.2826 10.0285C64.5383 9.51716 64.6662 8.97738 64.6662 8.4092V6.87511C64.6662 6.30693 64.5478 5.75769 64.3111 5.22738C64.0743 4.69708 63.5487 4.43193 62.7344 4.43193C61.9862 4.43193 61.4844 4.70655 61.2287 5.25579C60.9825 5.79557 60.8594 6.33534 60.8594 6.87511ZM58.2741 30.5115L78.2741 1.42056H82.3082L62.3082 30.5115H58.2741Z" fill="white"/>
</svg>
