<svg width="29" height="12" viewBox="0 0 29 12" fill="none" xmlns="http://www.w3.org/2000/svg">
<path d="M1.47728 11.6365H2.80142e-06L4.27273 0.000110626H5.72728L10 11.6365H8.52273L5.04546 1.84102H4.95455L1.47728 11.6365ZM2.02273 7.09102H7.97728V8.34102H2.02273V7.09102ZM12.9716 0.000110626V11.6365H11.6307V0.000110626H12.9716ZM19.223 2.9092V4.04557H14.7003V2.9092H19.223ZM16.0185 0.818293H17.3594V9.13647C17.3594 9.51526 17.4143 9.79935 17.5242 9.98875C17.6378 10.1744 17.7817 10.2994 17.956 10.3637C18.134 10.4244 18.3215 10.4547 18.5185 10.4547C18.6662 10.4547 18.7874 10.4471 18.8821 10.4319C18.9768 10.413 19.0526 10.3978 19.1094 10.3865L19.3821 11.591C19.2912 11.6251 19.1643 11.6592 19.0014 11.6933C18.8385 11.7312 18.6321 11.7501 18.3821 11.7501C18.0033 11.7501 17.6321 11.6687 17.2685 11.5058C16.9086 11.3429 16.6094 11.0948 16.3707 10.7615C16.1359 10.4281 16.0185 10.0077 16.0185 9.50011V0.818293ZM24.6918 11.8183C23.9039 11.8183 23.2126 11.6308 22.6179 11.2558C22.027 10.8808 21.5649 10.3562 21.2315 9.68193C20.902 9.00769 20.7372 8.21981 20.7372 7.31829C20.7372 6.4092 20.902 5.61564 21.2315 4.93761C21.5649 4.25958 22.027 3.73307 22.6179 3.35807C23.2126 2.98307 23.9039 2.79557 24.6918 2.79557C25.4796 2.79557 26.169 2.98307 26.7599 3.35807C27.3546 3.73307 27.8168 4.25958 28.1463 4.93761C28.4796 5.61564 28.6463 6.4092 28.6463 7.31829C28.6463 8.21981 28.4796 9.00769 28.1463 9.68193C27.8168 10.3562 27.3546 10.8808 26.7599 11.2558C26.169 11.6308 25.4796 11.8183 24.6918 11.8183ZM24.6918 10.6137C25.2902 10.6137 25.7827 10.4603 26.169 10.1535C26.5554 9.8467 26.8414 9.44329 27.027 8.94329C27.2126 8.44329 27.3054 7.90163 27.3054 7.31829C27.3054 6.73496 27.2126 6.1914 27.027 5.68761C26.8414 5.18382 26.5554 4.77663 26.169 4.46602C25.7827 4.15541 25.2902 4.00011 24.6918 4.00011C24.0933 4.00011 23.6009 4.15541 23.2145 4.46602C22.8281 4.77663 22.5421 5.18382 22.3565 5.68761C22.1709 6.1914 22.0781 6.73496 22.0781 7.31829C22.0781 7.90163 22.1709 8.44329 22.3565 8.94329C22.5421 9.44329 22.8281 9.8467 23.2145 10.1535C23.6009 10.4603 24.0933 10.6137 24.6918 10.6137Z" fill="black"/>
</svg>
