<svg width="226" height="18" viewBox="0 0 226 18" fill="none" xmlns="http://www.w3.org/2000/svg">
<path d="M2.96589 13.8389H-1.66185e-05L4.51916 0.747958H8.08592L12.5987 13.8389H9.6328L6.35368 3.73944H6.2514L2.96589 13.8389ZM2.78052 8.69327H9.78621V10.8538H2.78052V8.69327ZM22.0461 4.02069L18.6136 13.8389H15.5454L12.1129 4.02069H14.9893L17.0284 11.0455H17.1307L19.1633 4.02069H22.0461ZM25.9757 14.0242C25.3492 14.0242 24.791 13.9156 24.3009 13.6982C23.8109 13.4767 23.4231 13.1507 23.1376 12.7203C22.8563 12.2856 22.7157 11.7444 22.7157 11.0967C22.7157 10.5512 22.8159 10.0931 23.0161 9.72239C23.2164 9.35165 23.4892 9.05336 23.8343 8.8275C24.1795 8.60165 24.5715 8.4312 25.0105 8.31614C25.4536 8.20108 25.9181 8.12012 26.4039 8.07324C26.9749 8.01358 27.4352 7.95819 27.7846 7.90705C28.134 7.85165 28.3876 7.77069 28.5453 7.66415C28.7029 7.55762 28.7818 7.39995 28.7818 7.19114V7.15279C28.7818 6.74796 28.6539 6.43475 28.3982 6.21316C28.1468 5.99157 27.7889 5.88077 27.3244 5.88077C26.8343 5.88077 26.4444 5.98944 26.1546 6.20676C25.8649 6.41983 25.6731 6.6883 25.5794 7.01216L23.0609 6.80762C23.1887 6.21103 23.4401 5.6954 23.8151 5.26074C24.1901 4.82182 24.6738 4.48517 25.2661 4.2508C25.8627 4.01216 26.5531 3.89284 27.3372 3.89284C27.8826 3.89284 28.4046 3.95676 28.9032 4.08461C29.4061 4.21245 29.8514 4.4106 30.2392 4.67907C30.6312 4.94753 30.9401 5.2927 31.166 5.71458C31.3919 6.13219 31.5048 6.6329 31.5048 7.21671V13.8389H28.9224V12.4774H28.8457C28.688 12.7842 28.4771 13.0548 28.2129 13.2892C27.9487 13.5193 27.6312 13.7004 27.2605 13.8325C26.8897 13.9603 26.4615 14.0242 25.9757 14.0242ZM26.7555 12.145C27.1561 12.145 27.5097 12.0661 27.8166 11.9085C28.1234 11.7465 28.3642 11.5292 28.5389 11.2565C28.7136 10.9838 28.8009 10.6748 28.8009 10.3296V9.28773C28.7157 9.34313 28.5985 9.39426 28.4494 9.44114C28.3045 9.48375 28.1404 9.52424 27.9572 9.56259C27.774 9.59668 27.5907 9.62864 27.4075 9.65847C27.2242 9.68404 27.058 9.70748 26.9089 9.72878C26.5893 9.77566 26.3102 9.85023 26.0715 9.9525C25.8329 10.0548 25.6475 10.1933 25.5154 10.368C25.3833 10.5384 25.3173 10.7515 25.3173 11.0072C25.3173 11.3779 25.4515 11.6613 25.72 11.8573C25.9927 12.0491 26.3379 12.145 26.7555 12.145ZM36.3404 0.747958V13.8389H33.6173V0.747958H36.3404ZM38.5216 13.8389V4.02069H41.2447V13.8389H38.5216ZM39.8895 2.75506C39.4847 2.75506 39.1374 2.62083 38.8476 2.35236C38.5621 2.07963 38.4194 1.75364 38.4194 1.37438C38.4194 0.999378 38.5621 0.677645 38.8476 0.40918C39.1374 0.136452 39.4847 8.80957e-05 39.8895 8.80957e-05C40.2944 8.80957e-05 40.6395 0.136452 40.9251 0.40918C41.2148 0.677645 41.3597 0.999378 41.3597 1.37438C41.3597 1.75364 41.2148 2.07963 40.9251 2.35236C40.6395 2.62083 40.2944 2.75506 39.8895 2.75506ZM46.2257 14.0242C45.5992 14.0242 45.041 13.9156 44.5509 13.6982C44.0609 13.4767 43.6731 13.1507 43.3876 12.7203C43.1063 12.2856 42.9657 11.7444 42.9657 11.0967C42.9657 10.5512 43.0659 10.0931 43.2661 9.72239C43.4664 9.35165 43.7392 9.05336 44.0843 8.8275C44.4295 8.60165 44.8215 8.4312 45.2605 8.31614C45.7036 8.20108 46.1681 8.12012 46.6539 8.07324C47.2249 8.01358 47.6852 7.95819 48.0346 7.90705C48.384 7.85165 48.6376 7.77069 48.7953 7.66415C48.9529 7.55762 49.0318 7.39995 49.0318 7.19114V7.15279C49.0318 6.74796 48.9039 6.43475 48.6482 6.21316C48.3968 5.99157 48.0389 5.88077 47.5744 5.88077C47.0843 5.88077 46.6944 5.98944 46.4046 6.20676C46.1149 6.41983 45.9231 6.6883 45.8294 7.01216L43.3109 6.80762C43.4387 6.21103 43.6901 5.6954 44.0651 5.26074C44.4401 4.82182 44.9238 4.48517 45.5161 4.2508C46.1127 4.01216 46.8031 3.89284 47.5872 3.89284C48.1326 3.89284 48.6546 3.95676 49.1532 4.08461C49.6561 4.21245 50.1014 4.4106 50.4892 4.67907C50.8812 4.94753 51.1901 5.2927 51.416 5.71458C51.6419 6.13219 51.7548 6.6329 51.7548 7.21671V13.8389H49.1724V12.4774H49.0957C48.938 12.7842 48.7271 13.0548 48.4629 13.2892C48.1987 13.5193 47.8812 13.7004 47.5105 13.8325C47.1397 13.9603 46.7115 14.0242 46.2257 14.0242ZM47.0055 12.145C47.4061 12.145 47.7597 12.0661 48.0666 11.9085C48.3734 11.7465 48.6142 11.5292 48.7889 11.2565C48.9636 10.9838 49.0509 10.6748 49.0509 10.3296V9.28773C48.9657 9.34313 48.8485 9.39426 48.6994 9.44114C48.5545 9.48375 48.3904 9.52424 48.2072 9.56259C48.024 9.59668 47.8407 9.62864 47.6575 9.65847C47.4742 9.68404 47.308 9.70748 47.1589 9.72878C46.8393 9.77566 46.5602 9.85023 46.3215 9.9525C46.0829 10.0548 45.8975 10.1933 45.7654 10.368C45.6333 10.5384 45.5673 10.7515 45.5673 11.0072C45.5673 11.3779 45.7015 11.6613 45.97 11.8573C46.2427 12.0491 46.5879 12.145 47.0055 12.145ZM58.3034 14.0306C57.2977 14.0306 56.4327 13.8176 55.7083 13.3914C54.9881 12.961 54.4341 12.3644 54.0463 11.6017C53.6628 10.8389 53.471 9.96103 53.471 8.96813C53.471 7.96245 53.6649 7.08034 54.0527 6.32182C54.4448 5.55904 55.0009 4.96458 55.721 4.53844C56.4412 4.10804 57.2977 3.89284 58.2906 3.89284C59.1472 3.89284 59.8972 4.04838 60.5406 4.35946C61.1841 4.67054 61.6933 5.10733 62.0683 5.66983C62.4433 6.23233 62.65 6.89284 62.6884 7.65137H60.1188C60.0463 7.16131 59.8546 6.76713 59.5435 6.46884C59.2367 6.16628 58.834 6.015 58.3354 6.015C57.9135 6.015 57.5449 6.13006 57.2296 6.36017C56.9185 6.58603 56.6756 6.91628 56.5009 7.35094C56.3262 7.7856 56.2388 8.31188 56.2388 8.92978C56.2388 9.5562 56.324 10.0889 56.4945 10.5278C56.6692 10.9667 56.9142 11.3012 57.2296 11.5313C57.5449 11.7615 57.9135 11.8765 58.3354 11.8765C58.6465 11.8765 58.9256 11.8126 59.1727 11.6847C59.4242 11.5569 59.6308 11.3715 59.7928 11.1286C59.959 10.8815 60.0676 10.5853 60.1188 10.2401H62.6884C62.6458 10.9901 62.4412 11.6507 62.0747 12.2217C61.7125 12.7884 61.2118 13.2316 60.5726 13.5512C59.9334 13.8708 59.177 14.0306 58.3034 14.0306ZM57.6642 13.7877H58.9171L58.8148 14.3438C59.2537 14.412 59.6117 14.5761 59.8887 14.836C60.1699 15.096 60.3127 15.4497 60.3169 15.8971C60.3212 16.532 60.0271 17.037 59.4348 17.412C58.8425 17.7913 58.0115 17.9809 56.9419 17.9809L56.9164 16.7664C57.4533 16.7664 57.873 16.7004 58.1756 16.5683C58.4824 16.4404 58.6422 16.2401 58.655 15.9674C58.6635 15.7075 58.5634 15.5093 58.3546 15.373C58.1458 15.2366 57.8198 15.1407 57.3766 15.0853L57.6642 13.7877ZM68.8679 14.0306C67.875 14.0306 67.0163 13.8197 66.2919 13.3978C65.5717 12.9717 65.0156 12.3794 64.6236 11.6208C64.2315 10.858 64.0355 9.97381 64.0355 8.96813C64.0355 7.95392 64.2315 7.06756 64.6236 6.30904C65.0156 5.54625 65.5717 4.95392 66.2919 4.53205C67.0163 4.10591 67.875 3.89284 68.8679 3.89284C69.8608 3.89284 70.7173 4.10591 71.4375 4.53205C72.1619 4.95392 72.7202 5.54625 73.1122 6.30904C73.5042 7.06756 73.7003 7.95392 73.7003 8.96813C73.7003 9.97381 73.5042 10.858 73.1122 11.6208C72.7202 12.3794 72.1619 12.9717 71.4375 13.3978C70.7173 13.8197 69.8608 14.0306 68.8679 14.0306ZM68.8807 11.9213C69.3324 11.9213 69.7095 11.7934 70.0121 11.5377C70.3146 11.2778 70.5426 10.9241 70.696 10.4767C70.8537 10.0292 70.9325 9.51997 70.9325 8.94895C70.9325 8.37793 70.8537 7.8687 70.696 7.42125C70.5426 6.97381 70.3146 6.62012 70.0121 6.36017C69.7095 6.10023 69.3324 5.97026 68.8807 5.97026C68.4247 5.97026 68.0412 6.10023 67.7301 6.36017C67.4233 6.62012 67.191 6.97381 67.0334 7.42125C66.88 7.8687 66.8033 8.37793 66.8033 8.94895C66.8033 9.51997 66.88 10.0292 67.0334 10.4767C67.191 10.9241 67.4233 11.2778 67.7301 11.5377C68.0412 11.7934 68.4247 11.9213 68.8807 11.9213ZM67.0398 2.81259L65.5248 2.79341C65.5248 1.97949 65.7251 1.3552 66.1257 0.920543C66.5305 0.485884 67.0227 0.266424 67.6023 0.262162C67.9006 0.262162 68.1562 0.311168 68.3693 0.40918C68.5866 0.50293 68.7805 0.613725 68.951 0.741565C69.1257 0.869407 69.2919 0.982333 69.4496 1.08034C69.6072 1.17409 69.7777 1.22097 69.9609 1.22097C70.2081 1.21671 70.3956 1.12509 70.5234 0.946111C70.6555 0.762872 70.7216 0.524236 70.7216 0.230202L72.2109 0.274946C72.2024 1.08034 71.9979 1.7025 71.5973 2.14142C71.1967 2.57608 70.7088 2.79554 70.1335 2.7998C69.8139 2.7998 69.5454 2.75293 69.3281 2.65918C69.115 2.56117 68.9275 2.45037 68.7656 2.32679C68.6037 2.19895 68.446 2.08603 68.2926 1.98801C68.1392 1.89 67.9666 1.841 67.7748 1.841C67.5533 1.841 67.3743 1.92836 67.2379 2.10307C67.1058 2.27779 67.0398 2.51429 67.0398 2.81259ZM79.9453 14.0306C78.9354 14.0306 78.066 13.8261 77.3373 13.417C76.6129 13.0036 76.0547 12.4198 75.6626 11.6656C75.2706 10.907 75.0746 10.01 75.0746 8.97452C75.0746 7.96458 75.2706 7.07821 75.6626 6.31543C76.0547 5.55265 76.6065 4.95819 77.3182 4.53205C78.0341 4.10591 78.8736 3.89284 79.8366 3.89284C80.4844 3.89284 81.0873 3.99725 81.6456 4.20605C82.2081 4.4106 82.6981 4.71955 83.1158 5.1329C83.5376 5.54625 83.8658 6.06614 84.1001 6.69256C84.3345 7.31472 84.4517 8.04341 84.4517 8.87864V9.62651H76.1612V7.93901H81.8885C81.8885 7.54696 81.8033 7.19966 81.6328 6.89711C81.4623 6.59455 81.2258 6.35804 80.9233 6.18759C80.625 6.01287 80.2777 5.92551 79.8814 5.92551C79.468 5.92551 79.1015 6.0214 78.7819 6.21316C78.4666 6.40066 78.2194 6.65421 78.0405 6.97381C77.8615 7.28915 77.7699 7.64071 77.7656 8.0285V9.6329C77.7656 10.1187 77.8551 10.5384 78.0341 10.8921C78.2173 11.2458 78.4751 11.5186 78.8075 11.7103C79.1399 11.9021 79.5341 11.998 79.99 11.998C80.2926 11.998 80.5696 11.9553 80.821 11.8701C81.0724 11.7849 81.2876 11.657 81.4666 11.4866C81.6456 11.3161 81.7819 11.1073 81.8757 10.8602L84.3942 11.0264C84.2663 11.6315 84.0042 12.1599 83.6079 12.6116C83.2159 13.059 82.7088 13.4085 82.0866 13.6599C81.4687 13.907 80.755 14.0306 79.9453 14.0306ZM94.3977 6.8204L91.9048 6.97381C91.8622 6.76074 91.7706 6.56898 91.63 6.39853C91.4893 6.22381 91.304 6.08532 91.0738 5.98304C90.848 5.87651 90.5774 5.82324 90.2621 5.82324C89.8402 5.82324 89.4844 5.91273 89.1946 6.09171C88.9048 6.26642 88.7599 6.5008 88.7599 6.79483C88.7599 7.02921 88.8537 7.22736 89.0412 7.38929C89.2287 7.55123 89.5504 7.6812 90.0064 7.77921L91.7834 8.13716C92.7379 8.33319 93.4496 8.64853 93.9183 9.08319C94.3871 9.51784 94.6214 10.0889 94.6214 10.7963C94.6214 11.4397 94.4318 12.0044 94.0525 12.4901C93.6775 12.9759 93.1619 13.3552 92.5057 13.6279C91.8537 13.8964 91.1015 14.0306 90.2493 14.0306C88.9496 14.0306 87.914 13.76 87.1427 13.2188C86.3757 12.6734 85.9261 11.9319 85.794 10.9944L88.4723 10.8538C88.5533 11.2501 88.7493 11.5526 89.0604 11.7615C89.3714 11.966 89.7699 12.0683 90.2557 12.0683C90.7329 12.0683 91.1165 11.9767 91.4062 11.7934C91.7003 11.6059 91.8494 11.3651 91.8537 11.0711C91.8494 10.824 91.745 10.6215 91.5405 10.4639C91.3359 10.3019 91.0206 10.1784 90.5944 10.0931L88.8942 9.75435C87.9354 9.56259 87.2216 9.2302 86.7528 8.75719C86.2883 8.28418 86.0561 7.6812 86.0561 6.94824C86.0561 6.31756 86.2265 5.77424 86.5675 5.31827C86.9126 4.8623 87.3963 4.51074 88.0184 4.26358C88.6449 4.01642 89.3778 3.89284 90.2173 3.89284C91.4574 3.89284 92.4332 4.15492 93.1449 4.67907C93.8608 5.20321 94.2784 5.91699 94.3977 6.8204ZM104.12 13.9987C103.374 13.9987 102.699 13.8069 102.094 13.4234C101.493 13.0356 101.016 12.4667 100.662 11.7167C100.312 10.9624 100.138 10.0377 100.138 8.94256C100.138 7.81756 100.319 6.88219 100.681 6.13645C101.043 5.38645 101.525 4.82608 102.126 4.45534C102.731 4.08034 103.393 3.89284 104.114 3.89284C104.663 3.89284 105.121 3.98659 105.488 4.17409C105.859 4.35733 106.157 4.58745 106.383 4.86444C106.613 5.13716 106.788 5.40563 106.907 5.66983H106.99V0.747958H109.707V13.8389H107.022V12.2664H106.907C106.779 12.5392 106.598 12.8097 106.364 13.0782C106.134 13.3424 105.833 13.5619 105.462 13.7366C105.096 13.9113 104.648 13.9987 104.12 13.9987ZM104.983 11.8318C105.422 11.8318 105.793 11.7124 106.095 11.4738C106.402 11.2309 106.636 10.8921 106.798 10.4575C106.964 10.0228 107.048 9.51358 107.048 8.92978C107.048 8.34597 106.967 7.83887 106.805 7.40847C106.643 6.97807 106.408 6.64569 106.102 6.41131C105.795 6.17694 105.422 6.05975 104.983 6.05975C104.535 6.05975 104.158 6.1812 103.852 6.42409C103.545 6.66699 103.312 7.00364 103.155 7.43404C102.997 7.86444 102.918 8.36301 102.918 8.92978C102.918 9.5008 102.997 10.0058 103.155 10.4447C103.317 10.8794 103.549 11.2203 103.852 11.4674C104.158 11.7103 104.535 11.8318 104.983 11.8318ZM116.42 14.0306C115.41 14.0306 114.541 13.8261 113.812 13.417C113.088 13.0036 112.529 12.4198 112.137 11.6656C111.745 10.907 111.549 10.01 111.549 8.97452C111.549 7.96458 111.745 7.07821 112.137 6.31543C112.529 5.55265 113.081 4.95819 113.793 4.53205C114.509 4.10591 115.348 3.89284 116.311 3.89284C116.959 3.89284 117.562 3.99725 118.12 4.20605C118.683 4.4106 119.173 4.71955 119.59 5.1329C120.012 5.54625 120.34 6.06614 120.575 6.69256C120.809 7.31472 120.926 8.04341 120.926 8.87864V9.62651H112.636V7.93901H118.363C118.363 7.54696 118.278 7.19966 118.107 6.89711C117.937 6.59455 117.7 6.35804 117.398 6.18759C117.1 6.01287 116.752 5.92551 116.356 5.92551C115.943 5.92551 115.576 6.0214 115.257 6.21316C114.941 6.40066 114.694 6.65421 114.515 6.97381C114.336 7.28915 114.244 7.64071 114.24 8.0285V9.6329C114.24 10.1187 114.33 10.5384 114.509 10.8921C114.692 11.2458 114.95 11.5186 115.282 11.7103C115.615 11.9021 116.009 11.998 116.465 11.998C116.767 11.998 117.044 11.9553 117.296 11.8701C117.547 11.7849 117.762 11.657 117.941 11.4866C118.12 11.3161 118.257 11.1073 118.35 10.8602L120.869 11.0264C120.741 11.6315 120.479 12.1599 120.083 12.6116C119.691 13.059 119.183 13.4085 118.561 13.6599C117.943 13.907 117.23 14.0306 116.42 14.0306ZM131.344 14.0306C130.334 14.0306 129.464 13.8261 128.736 13.417C128.011 13.0036 127.453 12.4198 127.061 11.6656C126.669 10.907 126.473 10.01 126.473 8.97452C126.473 7.96458 126.669 7.07821 127.061 6.31543C127.453 5.55265 128.005 4.95819 128.717 4.53205C129.433 4.10591 130.272 3.89284 131.235 3.89284C131.883 3.89284 132.486 3.99725 133.044 4.20605C133.607 4.4106 134.097 4.71955 134.514 5.1329C134.936 5.54625 135.264 6.06614 135.499 6.69256C135.733 7.31472 135.85 8.04341 135.85 8.87864V9.62651H127.56V7.93901H133.287C133.287 7.54696 133.202 7.19966 133.031 6.89711C132.861 6.59455 132.624 6.35804 132.322 6.18759C132.023 6.01287 131.676 5.92551 131.28 5.92551C130.866 5.92551 130.5 6.0214 130.18 6.21316C129.865 6.40066 129.618 6.65421 129.439 6.97381C129.26 7.28915 129.168 7.64071 129.164 8.0285V9.6329C129.164 10.1187 129.254 10.5384 129.433 10.8921C129.616 11.2458 129.874 11.5186 130.206 11.7103C130.538 11.9021 130.933 11.998 131.388 11.998C131.691 11.998 131.968 11.9553 132.219 11.8701C132.471 11.7849 132.686 11.657 132.865 11.4866C133.044 11.3161 133.18 11.1073 133.274 10.8602L135.793 11.0264C135.665 11.6315 135.403 12.1599 135.006 12.6116C134.614 13.059 134.107 13.4085 133.485 13.6599C132.867 13.907 132.153 14.0306 131.344 14.0306ZM145.796 6.8204L143.303 6.97381C143.261 6.76074 143.169 6.56898 143.028 6.39853C142.888 6.22381 142.702 6.08532 142.472 5.98304C142.246 5.87651 141.976 5.82324 141.66 5.82324C141.239 5.82324 140.883 5.91273 140.593 6.09171C140.303 6.26642 140.158 6.5008 140.158 6.79483C140.158 7.02921 140.252 7.22736 140.44 7.38929C140.627 7.55123 140.949 7.6812 141.405 7.77921L143.182 8.13716C144.136 8.33319 144.848 8.64853 145.317 9.08319C145.785 9.51784 146.02 10.0889 146.02 10.7963C146.02 11.4397 145.83 12.0044 145.451 12.4901C145.076 12.9759 144.56 13.3552 143.904 13.6279C143.252 13.8964 142.5 14.0306 141.648 14.0306C140.348 14.0306 139.312 13.76 138.541 13.2188C137.774 12.6734 137.325 11.9319 137.192 10.9944L139.871 10.8538C139.952 11.2501 140.148 11.5526 140.459 11.7615C140.77 11.966 141.168 12.0683 141.654 12.0683C142.131 12.0683 142.515 11.9767 142.805 11.7934C143.099 11.6059 143.248 11.3651 143.252 11.0711C143.248 10.824 143.143 10.6215 142.939 10.4639C142.734 10.3019 142.419 10.1784 141.993 10.0931L140.293 9.75435C139.334 9.56259 138.62 9.2302 138.151 8.75719C137.687 8.28418 137.455 7.6812 137.455 6.94824C137.455 6.31756 137.625 5.77424 137.966 5.31827C138.311 4.8623 138.795 4.51074 139.417 4.26358C140.043 4.01642 140.776 3.89284 141.616 3.89284C142.856 3.89284 143.832 4.15492 144.543 4.67907C145.259 5.20321 145.677 5.91699 145.796 6.8204ZM152.957 4.02069V6.06614H147.044V4.02069H152.957ZM148.387 1.66841H151.11V10.8218C151.11 11.0732 151.148 11.2693 151.225 11.4099C151.301 11.5463 151.408 11.6421 151.544 11.6975C151.685 11.7529 151.847 11.7806 152.03 11.7806C152.158 11.7806 152.286 11.77 152.414 11.7487C152.541 11.7231 152.639 11.7039 152.708 11.6911L153.136 13.7174C152.999 13.76 152.808 13.809 152.561 13.8644C152.313 13.9241 152.013 13.9603 151.659 13.9731C151.003 13.9987 150.428 13.9113 149.933 13.711C149.443 13.5107 149.062 13.1997 148.789 12.7778C148.516 12.3559 148.382 11.8232 148.387 11.1798V1.66841ZM161.027 9.65847V4.02069H163.75V13.8389H161.135V12.0555H161.033C160.812 12.6308 160.443 13.0931 159.927 13.4426C159.416 13.792 158.792 13.9667 158.054 13.9667C157.398 13.9667 156.821 13.8176 156.322 13.5193C155.824 13.221 155.434 12.797 155.153 12.2472C154.876 11.6975 154.735 11.0392 154.731 10.2721V4.02069H157.454V9.78631C157.458 10.3659 157.613 10.824 157.92 11.1606C158.227 11.4972 158.638 11.6656 159.154 11.6656C159.482 11.6656 159.789 11.591 160.074 11.4418C160.36 11.2884 160.59 11.0626 160.765 10.7643C160.944 10.466 161.031 10.0974 161.027 9.65847ZM169.546 13.9987C168.8 13.9987 168.125 13.8069 167.52 13.4234C166.919 13.0356 166.441 12.4667 166.088 11.7167C165.738 10.9624 165.564 10.0377 165.564 8.94256C165.564 7.81756 165.745 6.88219 166.107 6.13645C166.469 5.38645 166.951 4.82608 167.551 4.45534C168.157 4.08034 168.819 3.89284 169.539 3.89284C170.089 3.89284 170.547 3.98659 170.914 4.17409C171.284 4.35733 171.583 4.58745 171.809 4.86444C172.039 5.13716 172.213 5.40563 172.333 5.66983H172.416V0.747958H175.132V13.8389H172.448V12.2664H172.333C172.205 12.5392 172.024 12.8097 171.789 13.0782C171.559 13.3424 171.259 13.5619 170.888 13.7366C170.522 13.9113 170.074 13.9987 169.546 13.9987ZM170.409 11.8318C170.848 11.8318 171.218 11.7124 171.521 11.4738C171.828 11.2309 172.062 10.8921 172.224 10.4575C172.39 10.0228 172.473 9.51358 172.473 8.92978C172.473 8.34597 172.392 7.83887 172.23 7.40847C172.069 6.97807 171.834 6.64569 171.527 6.41131C171.221 6.17694 170.848 6.05975 170.409 6.05975C169.961 6.05975 169.584 6.1812 169.277 6.42409C168.971 6.66699 168.738 7.00364 168.581 7.43404C168.423 7.86444 168.344 8.36301 168.344 8.92978C168.344 9.5008 168.423 10.0058 168.581 10.4447C168.743 10.8794 168.975 11.2203 169.277 11.4674C169.584 11.7103 169.961 11.8318 170.409 11.8318ZM180.171 14.0242C179.545 14.0242 178.986 13.9156 178.496 13.6982C178.006 13.4767 177.618 13.1507 177.333 12.7203C177.052 12.2856 176.911 11.7444 176.911 11.0967C176.911 10.5512 177.011 10.0931 177.211 9.72239C177.412 9.35165 177.684 9.05336 178.03 8.8275C178.375 8.60165 178.767 8.4312 179.206 8.31614C179.649 8.20108 180.113 8.12012 180.599 8.07324C181.17 8.01358 181.63 7.95819 181.98 7.90705C182.329 7.85165 182.583 7.77069 182.741 7.66415C182.898 7.55762 182.977 7.39995 182.977 7.19114V7.15279C182.977 6.74796 182.849 6.43475 182.594 6.21316C182.342 5.99157 181.984 5.88077 181.52 5.88077C181.03 5.88077 180.64 5.98944 180.35 6.20676C180.06 6.41983 179.868 6.6883 179.775 7.01216L177.256 6.80762C177.384 6.21103 177.635 5.6954 178.01 5.26074C178.385 4.82182 178.869 4.48517 179.461 4.2508C180.058 4.01216 180.748 3.89284 181.532 3.89284C182.078 3.89284 182.6 3.95676 183.099 4.08461C183.601 4.21245 184.047 4.4106 184.434 4.67907C184.827 4.94753 185.135 5.2927 185.361 5.71458C185.587 6.13219 185.7 6.6329 185.7 7.21671V13.8389H183.118V12.4774H183.041C182.883 12.7842 182.672 13.0548 182.408 13.2892C182.144 13.5193 181.827 13.7004 181.456 13.8325C181.085 13.9603 180.657 14.0242 180.171 14.0242ZM180.951 12.145C181.351 12.145 181.705 12.0661 182.012 11.9085C182.319 11.7465 182.559 11.5292 182.734 11.2565C182.909 10.9838 182.996 10.6748 182.996 10.3296V9.28773C182.911 9.34313 182.794 9.39426 182.645 9.44114C182.5 9.48375 182.336 9.52424 182.153 9.56259C181.969 9.59668 181.786 9.62864 181.603 9.65847C181.42 9.68404 181.253 9.70748 181.104 9.72878C180.785 9.77566 180.505 9.85023 180.267 9.9525C180.028 10.0548 179.843 10.1933 179.711 10.368C179.579 10.5384 179.513 10.7515 179.513 11.0072C179.513 11.3779 179.647 11.6613 179.915 11.8573C180.188 12.0491 180.533 12.145 180.951 12.145ZM190.536 8.16273V13.8389H187.813V4.02069H190.408V5.75293H190.523C190.74 5.18191 191.105 4.7302 191.616 4.39782C192.127 4.06117 192.747 3.89284 193.476 3.89284C194.158 3.89284 194.752 4.04199 195.259 4.34029C195.766 4.63858 196.161 5.06472 196.442 5.6187C196.723 6.16841 196.864 6.82466 196.864 7.58745V13.8389H194.141V8.07324C194.145 7.47239 193.992 7.00364 193.681 6.66699C193.369 6.32608 192.941 6.15563 192.396 6.15563C192.029 6.15563 191.705 6.23446 191.424 6.39213C191.147 6.5498 190.93 6.77992 190.772 7.08247C190.619 7.38077 190.54 7.74086 190.536 8.16273ZM204.232 4.02069V6.06614H198.32V4.02069H204.232ZM199.662 1.66841H202.385V10.8218C202.385 11.0732 202.423 11.2693 202.5 11.4099C202.577 11.5463 202.683 11.6421 202.82 11.6975C202.96 11.7529 203.122 11.7806 203.305 11.7806C203.433 11.7806 203.561 11.77 203.689 11.7487C203.817 11.7231 203.915 11.7039 203.983 11.6911L204.411 13.7174C204.275 13.76 204.083 13.809 203.836 13.8644C203.589 13.9241 203.288 13.9603 202.935 13.9731C202.278 13.9987 201.703 13.9113 201.209 13.711C200.719 13.5107 200.337 13.1997 200.065 12.7778C199.792 12.3559 199.658 11.8232 199.662 11.1798V1.66841ZM210.375 14.0306C209.365 14.0306 208.496 13.8261 207.767 13.417C207.043 13.0036 206.484 12.4198 206.092 11.6656C205.7 10.907 205.504 10.01 205.504 8.97452C205.504 7.96458 205.7 7.07821 206.092 6.31543C206.484 5.55265 207.036 4.95819 207.748 4.53205C208.464 4.10591 209.303 3.89284 210.266 3.89284C210.914 3.89284 211.517 3.99725 212.075 4.20605C212.638 4.4106 213.128 4.71955 213.545 5.1329C213.967 5.54625 214.295 6.06614 214.53 6.69256C214.764 7.31472 214.881 8.04341 214.881 8.87864V9.62651H206.591V7.93901H212.318C212.318 7.54696 212.233 7.19966 212.062 6.89711C211.892 6.59455 211.656 6.35804 211.353 6.18759C211.055 6.01287 210.707 5.92551 210.311 5.92551C209.898 5.92551 209.531 6.0214 209.212 6.21316C208.896 6.40066 208.649 6.65421 208.47 6.97381C208.291 7.28915 208.2 7.64071 208.195 8.0285V9.6329C208.195 10.1187 208.285 10.5384 208.464 10.8921C208.647 11.2458 208.905 11.5186 209.237 11.7103C209.57 11.9021 209.964 11.998 210.42 11.998C210.722 11.998 210.999 11.9553 211.251 11.8701C211.502 11.7849 211.717 11.657 211.896 11.4866C212.075 11.3161 212.212 11.1073 212.305 10.8602L214.824 11.0264C214.696 11.6315 214.434 12.1599 214.038 12.6116C213.646 13.059 213.138 13.4085 212.516 13.6599C211.898 13.907 211.185 14.0306 210.375 14.0306ZM224.827 6.8204L222.335 6.97381C222.292 6.76074 222.2 6.56898 222.06 6.39853C221.919 6.22381 221.734 6.08532 221.504 5.98304C221.278 5.87651 221.007 5.82324 220.692 5.82324C220.27 5.82324 219.914 5.91273 219.624 6.09171C219.335 6.26642 219.19 6.5008 219.19 6.79483C219.19 7.02921 219.283 7.22736 219.471 7.38929C219.658 7.55123 219.98 7.6812 220.436 7.77921L222.213 8.13716C223.168 8.33319 223.879 8.64853 224.348 9.08319C224.817 9.51784 225.051 10.0889 225.051 10.7963C225.051 11.4397 224.861 12.0044 224.482 12.4901C224.107 12.9759 223.592 13.3552 222.935 13.6279C222.283 13.8964 221.531 14.0306 220.679 14.0306C219.379 14.0306 218.344 13.76 217.572 13.2188C216.805 12.6734 216.356 11.9319 216.224 10.9944L218.902 10.8538C218.983 11.2501 219.179 11.5526 219.49 11.7615C219.801 11.966 220.2 12.0683 220.685 12.0683C221.163 12.0683 221.546 11.9767 221.836 11.7934C222.13 11.6059 222.279 11.3651 222.283 11.0711C222.279 10.824 222.175 10.6215 221.97 10.4639C221.766 10.3019 221.45 10.1784 221.024 10.0931L219.324 9.75435C218.365 9.56259 217.651 9.2302 217.183 8.75719C216.718 8.28418 216.486 7.6812 216.486 6.94824C216.486 6.31756 216.656 5.77424 216.997 5.31827C217.342 4.8623 217.826 4.51074 218.448 4.26358C219.075 4.01642 219.808 3.89284 220.647 3.89284C221.887 3.89284 222.863 4.15492 223.575 4.67907C224.29 5.20321 224.708 5.91699 224.827 6.8204Z" fill="white"/>
</svg>
