<svg width="82" height="13" viewBox="0 0 82 13" fill="none" xmlns="http://www.w3.org/2000/svg">
<path d="M1.47731 12H3.3319e-05L4.27276 0.363636H5.72731L10 12H8.52276L5.04549 2.20455H4.95458L1.47731 12ZM2.02276 7.45455H7.97731V8.70455H2.02276V7.45455ZM17.6733 3.27273L14.4461 12H13.0824L9.85515 3.27273H11.3097L13.7188 10.2273H13.8097L16.2188 3.27273H17.6733ZM21.7458 12.2045C21.1927 12.2045 20.6908 12.1004 20.2401 11.892C19.7893 11.6799 19.4314 11.375 19.1662 10.9773C18.9011 10.5758 18.7685 10.0909 18.7685 9.52273C18.7685 9.02273 18.867 8.61742 19.064 8.30682C19.2609 7.99242 19.5242 7.74621 19.8537 7.56818C20.1833 7.39015 20.5469 7.25758 20.9446 7.17045C21.3462 7.07955 21.7496 7.00758 22.1549 6.95455C22.6852 6.88636 23.1151 6.83523 23.4446 6.80114C23.778 6.76326 24.0204 6.70076 24.1719 6.61364C24.3272 6.52652 24.4049 6.375 24.4049 6.15909V6.11364C24.4049 5.55303 24.2515 5.11742 23.9446 4.80682C23.6416 4.49621 23.1814 4.34091 22.564 4.34091C21.9238 4.34091 21.4219 4.48106 21.0583 4.76136C20.6946 5.04167 20.439 5.34091 20.2912 5.65909L19.0185 5.20455C19.2458 4.67424 19.5488 4.26136 19.9276 3.96591C20.3102 3.66667 20.7268 3.45833 21.1776 3.34091C21.6321 3.2197 22.0791 3.15909 22.5185 3.15909C22.7988 3.15909 23.1208 3.19318 23.4844 3.26136C23.8518 3.32576 24.206 3.46023 24.5469 3.66477C24.8916 3.86932 25.1776 4.17803 25.4049 4.59091C25.6321 5.00379 25.7458 5.55682 25.7458 6.25V12H24.4049V10.8182H24.3367C24.2458 11.0076 24.0943 11.2102 23.8821 11.4261C23.67 11.642 23.3878 11.8258 23.0355 11.9773C22.6833 12.1288 22.2533 12.2045 21.7458 12.2045ZM21.9503 11C22.4806 11 22.9276 10.8958 23.2912 10.6875C23.6587 10.4792 23.9352 10.2102 24.1208 9.88068C24.3102 9.55114 24.4049 9.20455 24.4049 8.84091V7.61364C24.348 7.68182 24.223 7.74432 24.0299 7.80114C23.8405 7.85417 23.6208 7.90151 23.3708 7.94318C23.1246 7.98106 22.884 8.01515 22.6492 8.04545C22.4181 8.07197 22.2306 8.0947 22.0867 8.11364C21.7382 8.15909 21.4124 8.23295 21.1094 8.33523C20.8102 8.43371 20.5677 8.58333 20.3821 8.78409C20.2003 8.98106 20.1094 9.25 20.1094 9.59091C20.1094 10.0568 20.2818 10.4091 20.6265 10.6477C20.9749 10.8826 21.4162 11 21.9503 11ZM29.5341 0.363636V12H28.1932V0.363636H29.5341ZM31.9901 12V3.27273H33.331V12H31.9901ZM32.6719 1.81818C32.4105 1.81818 32.1852 1.72917 31.9958 1.55114C31.8102 1.37311 31.7174 1.15909 31.7174 0.909091C31.7174 0.659091 31.8102 0.445076 31.9958 0.267045C32.1852 0.089015 32.4105 0 32.6719 0C32.9333 0 33.1568 0.089015 33.3424 0.267045C33.5318 0.445076 33.6265 0.659091 33.6265 0.909091C33.6265 1.15909 33.5318 1.37311 33.3424 1.55114C33.1568 1.72917 32.9333 1.81818 32.6719 1.81818ZM39.4461 12.1818C38.6051 12.1818 37.8798 11.9962 37.2699 11.625C36.6639 11.25 36.1961 10.7273 35.8665 10.0568C35.5408 9.38258 35.3779 8.59848 35.3779 7.70455C35.3779 6.81061 35.5408 6.02273 35.8665 5.34091C36.1961 4.6553 36.6544 4.12121 37.2415 3.73864C37.8324 3.35227 38.5218 3.15909 39.3097 3.15909C39.7642 3.15909 40.2131 3.23485 40.6563 3.38636C41.0995 3.53788 41.5029 3.78409 41.8665 4.125C42.2301 4.46212 42.5199 4.90909 42.7358 5.46591C42.9517 6.02273 43.0597 6.70833 43.0597 7.52273V8.09091H36.3324V6.93182H41.6961C41.6961 6.43939 41.5976 6 41.4006 5.61364C41.2074 5.22727 40.9309 4.92235 40.5711 4.69886C40.215 4.47538 39.7945 4.36364 39.3097 4.36364C38.7756 4.36364 38.3135 4.49621 37.9233 4.76136C37.537 5.02273 37.2396 5.36364 37.0313 5.78409C36.823 6.20455 36.7188 6.6553 36.7188 7.13636V7.90909C36.7188 8.56818 36.8324 9.12689 37.0597 9.58523C37.2908 10.0398 37.6108 10.3864 38.0199 10.625C38.429 10.8598 38.9044 10.9773 39.4461 10.9773C39.7983 10.9773 40.1165 10.928 40.4006 10.8295C40.6885 10.7273 40.9366 10.5758 41.1449 10.375C41.3533 10.1705 41.5142 9.91667 41.6279 9.61364L42.9233 9.97727C42.787 10.4167 42.5578 10.803 42.2358 11.1364C41.9139 11.4659 41.5161 11.7235 41.0426 11.9091C40.5692 12.0909 40.037 12.1818 39.4461 12.1818ZM50.0995 6.38636V7.63636H45.0086V6.38636H50.0995ZM53.7997 6.75V12H52.4588V3.27273H53.7543V4.63636H53.8679C54.0725 4.19318 54.3831 3.83712 54.7997 3.56818C55.2164 3.29545 55.7543 3.15909 56.4134 3.15909C57.0043 3.15909 57.5213 3.2803 57.9645 3.52273C58.4077 3.76136 58.7524 4.125 58.9986 4.61364C59.2448 5.09848 59.3679 5.71212 59.3679 6.45455V12H58.027V6.54545C58.027 5.85985 57.849 5.32576 57.4929 4.94318C57.1369 4.55682 56.6482 4.36364 56.027 4.36364C55.599 4.36364 55.2164 4.45644 54.8793 4.64205C54.546 4.82765 54.2827 5.09848 54.0895 5.45455C53.8963 5.81061 53.7997 6.24242 53.7997 6.75ZM65.3637 12.1818C64.5758 12.1818 63.8845 11.9943 63.2898 11.6193C62.6989 11.2443 62.2368 10.7197 61.9034 10.0455C61.5739 9.37121 61.4091 8.58333 61.4091 7.68182C61.4091 6.77273 61.5739 5.97917 61.9034 5.30114C62.2368 4.62311 62.6989 4.09659 63.2898 3.72159C63.8845 3.34659 64.5758 3.15909 65.3637 3.15909C66.1515 3.15909 66.8409 3.34659 67.4319 3.72159C68.0265 4.09659 68.4887 4.62311 68.8182 5.30114C69.1515 5.97917 69.3182 6.77273 69.3182 7.68182C69.3182 8.58333 69.1515 9.37121 68.8182 10.0455C68.4887 10.7197 68.0265 11.2443 67.4319 11.6193C66.8409 11.9943 66.1515 12.1818 65.3637 12.1818ZM65.3637 10.9773C65.9622 10.9773 66.4546 10.8239 66.8409 10.517C67.2273 10.2102 67.5133 9.80682 67.6989 9.30682C67.8845 8.80682 67.9773 8.26515 67.9773 7.68182C67.9773 7.09848 67.8845 6.55492 67.6989 6.05114C67.5133 5.54735 67.2273 5.14015 66.8409 4.82955C66.4546 4.51894 65.9622 4.36364 65.3637 4.36364C64.7652 4.36364 64.2728 4.51894 63.8864 4.82955C63.5 5.14015 63.214 5.54735 63.0284 6.05114C62.8428 6.55492 62.75 7.09848 62.75 7.68182C62.75 8.26515 62.8428 8.80682 63.0284 9.30682C63.214 9.80682 63.5 10.2102 63.8864 10.517C64.2728 10.8239 64.7652 10.9773 65.3637 10.9773ZM77.5469 5.22727L76.3424 5.56818C76.2666 5.36742 76.1549 5.17235 76.0071 4.98295C75.8632 4.78977 75.6662 4.63068 75.4162 4.50568C75.1662 4.38068 74.8462 4.31818 74.456 4.31818C73.9219 4.31818 73.4768 4.44129 73.1208 4.6875C72.7685 4.92992 72.5924 5.23864 72.5924 5.61364C72.5924 5.94697 72.7136 6.21023 72.956 6.40341C73.1984 6.59659 73.5772 6.75758 74.0924 6.88636L75.3878 7.20455C76.1681 7.39394 76.7496 7.68371 77.1321 8.07386C77.5147 8.46023 77.706 8.95833 77.706 9.56818C77.706 10.0682 77.5621 10.5152 77.2742 10.9091C76.9901 11.303 76.5924 11.6136 76.081 11.8409C75.5696 12.0682 74.9749 12.1818 74.2969 12.1818C73.4068 12.1818 72.67 11.9886 72.0867 11.6023C71.5033 11.2159 71.134 10.6515 70.9787 9.90909L72.2515 9.59091C72.3727 10.0606 72.6018 10.4129 72.939 10.6477C73.2799 10.8826 73.7249 11 74.2742 11C74.8992 11 75.3954 10.8674 75.7628 10.6023C76.134 10.3333 76.3196 10.0114 76.3196 9.63636C76.3196 9.33333 76.2136 9.07955 76.0015 8.875C75.7893 8.66667 75.4636 8.51136 75.0242 8.40909L73.5696 8.06818C72.7704 7.87879 72.1833 7.58523 71.8083 7.1875C71.4371 6.78598 71.2515 6.28409 71.2515 5.68182C71.2515 5.18939 71.3897 4.75379 71.6662 4.375C71.9465 3.99621 72.3272 3.69886 72.8083 3.48295C73.2931 3.26705 73.8424 3.15909 74.456 3.15909C75.3196 3.15909 75.9977 3.34848 76.4901 3.72727C76.9863 4.10606 77.3386 4.60606 77.5469 5.22727ZM81.4972 0.363636L81.3836 8.72727H80.0654L79.9517 0.363636H81.4972ZM80.7245 12.0909C80.4442 12.0909 80.2036 11.9905 80.0029 11.7898C79.8021 11.589 79.7017 11.3485 79.7017 11.0682C79.7017 10.7879 79.8021 10.5473 80.0029 10.3466C80.2036 10.1458 80.4442 10.0455 80.7245 10.0455C81.0048 10.0455 81.2453 10.1458 81.4461 10.3466C81.6468 10.5473 81.7472 10.7879 81.7472 11.0682C81.7472 11.2538 81.6998 11.4242 81.6051 11.5795C81.5142 11.7348 81.3911 11.8598 81.2358 11.9545C81.0843 12.0455 80.9139 12.0909 80.7245 12.0909Z" fill="black"/>
</svg>
