<svg width="244" height="16" viewBox="0 0 244 16" fill="none" xmlns="http://www.w3.org/2000/svg">
<path d="M1.47725 12.1819H-2.77162e-05L4.2727 0.545521H5.72725L9.99997 12.1819H8.5227L5.04543 2.38643H4.95452L1.47725 12.1819ZM2.0227 7.63643H7.97725V8.88643H2.0227V7.63643ZM17.6733 3.45461L14.446 12.1819H13.0824L9.85509 3.45461H11.3096L13.7187 10.4092H13.8096L16.2187 3.45461H17.6733ZM21.7457 12.3864C21.1927 12.3864 20.6908 12.2823 20.24 12.0739C19.7893 11.8618 19.4313 11.5569 19.1662 11.1592C18.901 10.7576 18.7684 10.2728 18.7684 9.70461C18.7684 9.20461 18.8669 8.79931 19.0639 8.4887C19.2609 8.17431 19.5241 7.9281 19.8537 7.75007C20.1832 7.57204 20.5468 7.43946 20.9446 7.35234C21.3461 7.26143 21.7495 7.18946 22.1548 7.13643C22.6851 7.06825 23.115 7.01711 23.4446 6.98302C23.7779 6.94514 24.0203 6.88264 24.1718 6.79552C24.3272 6.7084 24.4048 6.55688 24.4048 6.34098V6.29552C24.4048 5.73491 24.2514 5.29931 23.9446 4.9887C23.6415 4.6781 23.1813 4.52279 22.5639 4.52279C21.9237 4.52279 21.4218 4.66295 21.0582 4.94325C20.6946 5.22355 20.4389 5.52279 20.2912 5.84098L19.0184 5.38643C19.2457 4.85613 19.5487 4.44325 19.9275 4.14779C20.3101 3.84855 20.7268 3.64022 21.1775 3.52279C21.6321 3.40158 22.079 3.34098 22.5184 3.34098C22.7987 3.34098 23.1207 3.37507 23.4843 3.44325C23.8518 3.50764 24.2059 3.64211 24.5468 3.84666C24.8915 4.0512 25.1775 4.35992 25.4048 4.77279C25.6321 5.18567 25.7457 5.7387 25.7457 6.43188V12.1819H24.4048V11.0001H24.3366C24.2457 11.1895 24.0942 11.3921 23.8821 11.608C23.67 11.8239 23.3878 12.0076 23.0355 12.1592C22.6832 12.3107 22.2533 12.3864 21.7457 12.3864ZM21.9503 11.1819C22.4806 11.1819 22.9275 11.0777 23.2912 10.8694C23.6586 10.6611 23.9351 10.3921 24.1207 10.0626C24.3101 9.73302 24.4048 9.38643 24.4048 9.02279V7.79552C24.348 7.8637 24.223 7.9262 24.0298 7.98302C23.8404 8.03605 23.6207 8.0834 23.3707 8.12507C23.1245 8.16295 22.884 8.19704 22.6491 8.22734C22.4181 8.25385 22.2306 8.27658 22.0866 8.29552C21.7381 8.34098 21.4124 8.41484 21.1093 8.51711C20.8101 8.6156 20.5677 8.76522 20.3821 8.96598C20.2003 9.16295 20.1093 9.43188 20.1093 9.77279C20.1093 10.2387 20.2817 10.591 20.6264 10.8296C20.9749 11.0645 21.4162 11.1819 21.9503 11.1819ZM29.5341 0.545521V12.1819H28.1932V0.545521H29.5341ZM31.99 12.1819V3.45461H33.3309V12.1819H31.99ZM32.6718 2.00007C32.4105 2.00007 32.1851 1.91105 31.9957 1.73302C31.8101 1.55499 31.7173 1.34098 31.7173 1.09098C31.7173 0.840976 31.8101 0.62696 31.9957 0.44893C32.1851 0.2709 32.4105 0.181885 32.6718 0.181885C32.9332 0.181885 33.1567 0.2709 33.3423 0.44893C33.5317 0.62696 33.6264 0.840976 33.6264 1.09098C33.6264 1.34098 33.5317 1.55499 33.3423 1.73302C33.1567 1.91105 32.9332 2.00007 32.6718 2.00007ZM38.3551 12.3864C37.8021 12.3864 37.3002 12.2823 36.8494 12.0739C36.3986 11.8618 36.0407 11.5569 35.7755 11.1592C35.5104 10.7576 35.3778 10.2728 35.3778 9.70461C35.3778 9.20461 35.4763 8.79931 35.6733 8.4887C35.8702 8.17431 36.1335 7.9281 36.463 7.75007C36.7926 7.57204 37.1562 7.43946 37.5539 7.35234C37.9555 7.26143 38.3589 7.18946 38.7642 7.13643C39.2945 7.06825 39.7244 7.01711 40.0539 6.98302C40.3873 6.94514 40.6297 6.88264 40.7812 6.79552C40.9365 6.7084 41.0142 6.55688 41.0142 6.34098V6.29552C41.0142 5.73491 40.8608 5.29931 40.5539 4.9887C40.2509 4.6781 39.7907 4.52279 39.1733 4.52279C38.5331 4.52279 38.0312 4.66295 37.6676 4.94325C37.3039 5.22355 37.0483 5.52279 36.9005 5.84098L35.6278 5.38643C35.8551 4.85613 36.1581 4.44325 36.5369 4.14779C36.9195 3.84855 37.3361 3.64022 37.7869 3.52279C38.2414 3.40158 38.6884 3.34098 39.1278 3.34098C39.4081 3.34098 39.7301 3.37507 40.0937 3.44325C40.4611 3.50764 40.8153 3.64211 41.1562 3.84666C41.5009 4.0512 41.7869 4.35992 42.0142 4.77279C42.2414 5.18567 42.3551 5.7387 42.3551 6.43188V12.1819H41.0142V11.0001H40.946C40.8551 11.1895 40.7036 11.3921 40.4914 11.608C40.2793 11.8239 39.9971 12.0076 39.6449 12.1592C39.2926 12.3107 38.8627 12.3864 38.3551 12.3864ZM38.5596 11.1819C39.0899 11.1819 39.5369 11.0777 39.9005 10.8694C40.268 10.6611 40.5445 10.3921 40.7301 10.0626C40.9195 9.73302 41.0142 9.38643 41.0142 9.02279V7.79552C40.9574 7.8637 40.8324 7.9262 40.6392 7.98302C40.4498 8.03605 40.2301 8.0834 39.9801 8.12507C39.7339 8.16295 39.4933 8.19704 39.2585 8.22734C39.0274 8.25385 38.8399 8.27658 38.696 8.29552C38.3475 8.34098 38.0218 8.41484 37.7187 8.51711C37.4195 8.6156 37.1771 8.76522 36.9914 8.96598C36.8096 9.16295 36.7187 9.43188 36.7187 9.77279C36.7187 10.2387 36.8911 10.591 37.2358 10.8296C37.5843 11.0645 38.0255 11.1819 38.5596 11.1819ZM48.348 12.3637C47.5298 12.3637 46.8253 12.1705 46.2343 11.7842C45.6434 11.3978 45.1889 10.8656 44.8707 10.1876C44.5525 9.50954 44.3934 8.73491 44.3934 7.8637C44.3934 6.97734 44.5563 6.19514 44.8821 5.51711C45.2116 4.83529 45.67 4.3031 46.2571 3.92052C46.848 3.53416 47.5374 3.34098 48.3253 3.34098C48.9389 3.34098 49.4919 3.45461 49.9843 3.68188C50.4768 3.90916 50.8802 4.22734 51.1946 4.63643C51.509 5.04552 51.704 5.52279 51.7798 6.06825H50.4389C50.3366 5.67052 50.1093 5.31825 49.7571 5.01143C49.4086 4.70082 48.9389 4.54552 48.348 4.54552C47.8253 4.54552 47.3669 4.68188 46.973 4.95461C46.5828 5.22355 46.2779 5.60423 46.0582 6.09666C45.8423 6.58529 45.7343 7.15916 45.7343 7.81825C45.7343 8.49249 45.8404 9.07961 46.0525 9.57961C46.2684 10.0796 46.5715 10.4679 46.9616 10.7444C47.3556 11.0209 47.8177 11.1592 48.348 11.1592C48.6965 11.1592 49.0128 11.0986 49.2968 10.9773C49.5809 10.8561 49.8215 10.6819 50.0184 10.4546C50.2154 10.2273 50.3556 9.95461 50.4389 9.63643H51.7798C51.704 10.1516 51.5165 10.6156 51.2173 11.0285C50.9218 11.4376 50.5298 11.7633 50.0412 12.0057C49.5563 12.2444 48.9919 12.3637 48.348 12.3637ZM47.7116 12.1364H48.8253L48.7343 12.591C49.0298 12.6364 49.3006 12.7595 49.5468 12.9603C49.7931 13.1648 49.9162 13.4887 49.9162 13.9319C49.9162 14.4205 49.7135 14.8182 49.3082 15.1251C48.9067 15.4357 48.3139 15.591 47.5298 15.591L47.4843 14.7046C47.8366 14.7046 48.1283 14.6478 48.3593 14.5342C48.5942 14.4243 48.7116 14.2387 48.7116 13.9773C48.7116 13.716 48.615 13.5379 48.4218 13.4432C48.2287 13.3486 47.9162 13.2842 47.4843 13.2501L47.7116 12.1364ZM57.2855 12.3637C56.4976 12.3637 55.8063 12.1762 55.2116 11.8012C54.6207 11.4262 54.1586 10.9016 53.8253 10.2273C53.4957 9.5531 53.3309 8.76522 53.3309 7.8637C53.3309 6.95461 53.4957 6.16105 53.8253 5.48302C54.1586 4.80499 54.6207 4.27848 55.2116 3.90348C55.8063 3.52848 56.4976 3.34098 57.2855 3.34098C58.0734 3.34098 58.7628 3.52848 59.3537 3.90348C59.9484 4.27848 60.4105 4.80499 60.74 5.48302C61.0734 6.16105 61.24 6.95461 61.24 7.8637C61.24 8.76522 61.0734 9.5531 60.74 10.2273C60.4105 10.9016 59.9484 11.4262 59.3537 11.8012C58.7628 12.1762 58.0734 12.3637 57.2855 12.3637ZM57.2855 11.1592C57.884 11.1592 58.3764 11.0057 58.7628 10.6989C59.1491 10.3921 59.4351 9.9887 59.6207 9.4887C59.8063 8.9887 59.8991 8.44704 59.8991 7.8637C59.8991 7.28037 59.8063 6.73681 59.6207 6.23302C59.4351 5.72923 59.1491 5.32204 58.7628 5.01143C58.3764 4.70082 57.884 4.54552 57.2855 4.54552C56.687 4.54552 56.1946 4.70082 55.8082 5.01143C55.4218 5.32204 55.1359 5.72923 54.9503 6.23302C54.7647 6.73681 54.6718 7.28037 54.6718 7.8637C54.6718 8.44704 54.7647 8.9887 54.9503 9.4887C55.1359 9.9887 55.4218 10.3921 55.8082 10.6989C56.1946 11.0057 56.687 11.1592 57.2855 11.1592ZM55.5355 2.40916L54.49 2.3637C54.49 1.78416 54.6548 1.31067 54.9843 0.943248C55.3177 0.572036 55.7287 0.38643 56.2173 0.38643C56.4332 0.38643 56.6245 0.424308 56.7912 0.500066C56.9578 0.572036 57.1169 0.655369 57.2684 0.750066C57.42 0.844763 57.5753 0.92999 57.7343 1.00575C57.8972 1.07772 58.0809 1.1137 58.2855 1.1137C58.5014 1.1137 58.6832 1.03037 58.8309 0.863703C58.9825 0.693248 59.0582 0.488702 59.0582 0.250066L60.0809 0.340976C60.0809 0.931884 59.9143 1.40158 59.5809 1.75007C59.2514 2.09855 58.8423 2.27279 58.3537 2.27279C58.0923 2.27279 57.8764 2.23681 57.7059 2.16484C57.5355 2.08908 57.384 2.00385 57.2514 1.90916C57.1188 1.81446 56.9787 1.73113 56.8309 1.65916C56.6832 1.5834 56.5014 1.54552 56.2855 1.54552C56.0696 1.54552 55.8897 1.63075 55.7457 1.8012C55.6056 1.96787 55.5355 2.17052 55.5355 2.40916ZM66.946 12.3637C66.1051 12.3637 65.3797 12.1781 64.7699 11.8069C64.1638 11.4319 63.696 10.9092 63.3664 10.2387C63.0407 9.56446 62.8778 8.78037 62.8778 7.88643C62.8778 6.99249 63.0407 6.20461 63.3664 5.52279C63.696 4.83719 64.1543 4.3031 64.7414 3.92052C65.3324 3.53416 66.0218 3.34098 66.8096 3.34098C67.2642 3.34098 67.713 3.41673 68.1562 3.56825C68.5994 3.71976 69.0028 3.96598 69.3664 4.30688C69.7301 4.64401 70.0199 5.09098 70.2358 5.64779C70.4517 6.20461 70.5596 6.89022 70.5596 7.70461V8.27279H63.8324V7.1137H69.196C69.196 6.62128 69.0975 6.18188 68.9005 5.79552C68.7074 5.40916 68.4308 5.10423 68.071 4.88075C67.7149 4.65726 67.2945 4.54552 66.8096 4.54552C66.2755 4.54552 65.8134 4.6781 65.4233 4.94325C65.0369 5.20461 64.7396 5.54552 64.5312 5.96598C64.3229 6.38643 64.2187 6.83719 64.2187 7.31825V8.09098C64.2187 8.75007 64.3324 9.30878 64.5596 9.76711C64.7907 10.2217 65.1108 10.5682 65.5199 10.8069C65.9289 11.0417 66.4043 11.1592 66.946 11.1592C67.2983 11.1592 67.6164 11.1099 67.9005 11.0114C68.1884 10.9092 68.4365 10.7576 68.6449 10.5569C68.8532 10.3523 69.0142 10.0986 69.1278 9.79552L70.4233 10.1592C70.2869 10.5986 70.0577 10.9849 69.7358 11.3182C69.4138 11.6478 69.0161 11.9054 68.5426 12.091C68.0691 12.2728 67.5369 12.3637 66.946 12.3637ZM78.7812 5.40916L77.5767 5.75007C77.5009 5.54931 77.3892 5.35423 77.2414 5.16484C77.0975 4.97166 76.9005 4.81257 76.6505 4.68757C76.4005 4.56257 76.0805 4.50007 75.6903 4.50007C75.1562 4.50007 74.7111 4.62317 74.3551 4.86938C74.0028 5.11181 73.8267 5.42052 73.8267 5.79552C73.8267 6.12885 73.9479 6.39211 74.1903 6.58529C74.4327 6.77848 74.8115 6.93946 75.3267 7.06825L76.6221 7.38643C77.4024 7.57582 77.9839 7.8656 78.3664 8.25575C78.749 8.64211 78.9403 9.14022 78.9403 9.75007C78.9403 10.2501 78.7964 10.697 78.5085 11.091C78.2244 11.4849 77.8267 11.7955 77.3153 12.0228C76.8039 12.2501 76.2093 12.3637 75.5312 12.3637C74.6411 12.3637 73.9043 12.1705 73.321 11.7842C72.7377 11.3978 72.3683 10.8334 72.213 10.091L73.4858 9.77279C73.607 10.2425 73.8361 10.5948 74.1733 10.8296C74.5142 11.0645 74.9593 11.1819 75.5085 11.1819C76.1335 11.1819 76.6297 11.0493 76.9971 10.7842C77.3683 10.5152 77.5539 10.1932 77.5539 9.81825C77.5539 9.51522 77.4479 9.26143 77.2358 9.05688C77.0236 8.84855 76.6979 8.69325 76.2585 8.59098L74.8039 8.25007C74.0047 8.06067 73.4176 7.76711 73.0426 7.36938C72.6714 6.96787 72.4858 6.46598 72.4858 5.8637C72.4858 5.37128 72.624 4.93567 72.9005 4.55688C73.1808 4.1781 73.5615 3.88075 74.0426 3.66484C74.5274 3.44893 75.0767 3.34098 75.6903 3.34098C76.5539 3.34098 77.232 3.53037 77.7244 3.90916C78.2206 4.28795 78.5729 4.78795 78.7812 5.40916ZM89.3451 3.45461V4.59098H84.6406V3.45461H89.3451ZM86.0497 12.1819V2.25007C86.0497 1.75007 86.1671 1.3334 86.402 1.00007C86.6368 0.666732 86.9417 0.416732 87.3167 0.250066C87.6917 0.0833991 88.0876 6.58035e-05 88.5042 6.58035e-05C88.8338 6.58035e-05 89.1027 0.0265811 89.3111 0.0796118C89.5194 0.132642 89.6747 0.181884 89.777 0.227339L89.3906 1.38643C89.3224 1.3637 89.2277 1.33529 89.1065 1.3012C88.9891 1.26711 88.8338 1.25007 88.6406 1.25007C88.1974 1.25007 87.8773 1.36181 87.6804 1.58529C87.4872 1.80878 87.3906 2.13643 87.3906 2.56825V12.1819H86.0497ZM94.5241 12.3637C93.6832 12.3637 92.9578 12.1781 92.348 11.8069C91.7419 11.4319 91.2741 10.9092 90.9446 10.2387C90.6188 9.56446 90.4559 8.78037 90.4559 7.88643C90.4559 6.99249 90.6188 6.20461 90.9446 5.52279C91.2741 4.83719 91.7325 4.3031 92.3196 3.92052C92.9105 3.53416 93.5999 3.34098 94.3878 3.34098C94.8423 3.34098 95.2912 3.41673 95.7343 3.56825C96.1775 3.71976 96.5809 3.96598 96.9446 4.30688C97.3082 4.64401 97.598 5.09098 97.8139 5.64779C98.0298 6.20461 98.1378 6.89022 98.1378 7.70461V8.27279H91.4105V7.1137H96.7741C96.7741 6.62128 96.6756 6.18188 96.4787 5.79552C96.2855 5.40916 96.009 5.10423 95.6491 4.88075C95.2931 4.65726 94.8726 4.54552 94.3878 4.54552C93.8537 4.54552 93.3915 4.6781 93.0014 4.94325C92.615 5.20461 92.3177 5.54552 92.1093 5.96598C91.901 6.38643 91.7968 6.83719 91.7968 7.31825V8.09098C91.7968 8.75007 91.9105 9.30878 92.1378 9.76711C92.3688 10.2217 92.6889 10.5682 93.098 10.8069C93.5071 11.0417 93.9825 11.1592 94.5241 11.1592C94.8764 11.1592 95.1946 11.1099 95.4787 11.0114C95.7665 10.9092 96.0147 10.7576 96.223 10.5569C96.4313 10.3523 96.5923 10.0986 96.7059 9.79552L98.0014 10.1592C97.865 10.5986 97.6359 10.9849 97.3139 11.3182C96.9919 11.6478 96.5942 11.9054 96.1207 12.091C95.6472 12.2728 95.115 12.3637 94.5241 12.3637ZM100.178 12.1819V3.45461H101.518V12.1819H100.178ZM100.859 2.00007C100.598 2.00007 100.373 1.91105 100.183 1.73302C99.9976 1.55499 99.9048 1.34098 99.9048 1.09098C99.9048 0.840976 99.9976 0.62696 100.183 0.44893C100.373 0.2709 100.598 0.181885 100.859 0.181885C101.121 0.181885 101.344 0.2709 101.53 0.44893C101.719 0.62696 101.814 0.840976 101.814 1.09098C101.814 1.34098 101.719 1.55499 101.53 1.73302C101.344 1.91105 101.121 2.00007 100.859 2.00007ZM107.77 3.45461V4.59098H103.247V3.45461H107.77ZM104.565 1.3637H105.906V9.68188C105.906 10.0607 105.961 10.3448 106.071 10.5342C106.185 10.7198 106.329 10.8448 106.503 10.9092C106.681 10.9698 106.868 11.0001 107.065 11.0001C107.213 11.0001 107.334 10.9925 107.429 10.9773C107.524 10.9584 107.599 10.9432 107.656 10.9319L107.929 12.1364C107.838 12.1705 107.711 12.2046 107.548 12.2387C107.385 12.2766 107.179 12.2955 106.929 12.2955C106.55 12.2955 106.179 12.2141 105.815 12.0512C105.455 11.8883 105.156 11.6402 104.918 11.3069C104.683 10.9736 104.565 10.5531 104.565 10.0455V1.3637ZM112.355 12.3864C111.802 12.3864 111.3 12.2823 110.849 12.0739C110.399 11.8618 110.041 11.5569 109.776 11.1592C109.51 10.7576 109.378 10.2728 109.378 9.70461C109.378 9.20461 109.476 8.79931 109.673 8.4887C109.87 8.17431 110.133 7.9281 110.463 7.75007C110.793 7.57204 111.156 7.43946 111.554 7.35234C111.955 7.26143 112.359 7.18946 112.764 7.13643C113.294 7.06825 113.724 7.01711 114.054 6.98302C114.387 6.94514 114.63 6.88264 114.781 6.79552C114.937 6.7084 115.014 6.55688 115.014 6.34098V6.29552C115.014 5.73491 114.861 5.29931 114.554 4.9887C114.251 4.6781 113.791 4.52279 113.173 4.52279C112.533 4.52279 112.031 4.66295 111.668 4.94325C111.304 5.22355 111.048 5.52279 110.901 5.84098L109.628 5.38643C109.855 4.85613 110.158 4.44325 110.537 4.14779C110.919 3.84855 111.336 3.64022 111.787 3.52279C112.241 3.40158 112.688 3.34098 113.128 3.34098C113.408 3.34098 113.73 3.37507 114.094 3.44325C114.461 3.50764 114.815 3.64211 115.156 3.84666C115.501 4.0512 115.787 4.35992 116.014 4.77279C116.241 5.18567 116.355 5.7387 116.355 6.43188V12.1819H115.014V11.0001H114.946C114.855 11.1895 114.704 11.3921 114.491 11.608C114.279 11.8239 113.997 12.0076 113.645 12.1592C113.293 12.3107 112.863 12.3864 112.355 12.3864ZM112.56 11.1819C113.09 11.1819 113.537 11.0777 113.901 10.8694C114.268 10.6611 114.544 10.3921 114.73 10.0626C114.919 9.73302 115.014 9.38643 115.014 9.02279V7.79552C114.957 7.8637 114.832 7.9262 114.639 7.98302C114.45 8.03605 114.23 8.0834 113.98 8.12507C113.734 8.16295 113.493 8.19704 113.258 8.22734C113.027 8.25385 112.84 8.27658 112.696 8.29552C112.348 8.34098 112.022 8.41484 111.719 8.51711C111.419 8.6156 111.177 8.76522 110.991 8.96598C110.81 9.16295 110.719 9.43188 110.719 9.77279C110.719 10.2387 110.891 10.591 111.236 10.8296C111.584 11.0645 112.026 11.1819 112.56 11.1819ZM124.984 5.40916L123.78 5.75007C123.704 5.54931 123.592 5.35423 123.445 5.16484C123.301 4.97166 123.104 4.81257 122.854 4.68757C122.604 4.56257 122.284 4.50007 121.893 4.50007C121.359 4.50007 120.914 4.62317 120.558 4.86938C120.206 5.11181 120.03 5.42052 120.03 5.79552C120.03 6.12885 120.151 6.39211 120.393 6.58529C120.636 6.77848 121.015 6.93946 121.53 7.06825L122.825 7.38643C123.606 7.57582 124.187 7.8656 124.57 8.25575C124.952 8.64211 125.143 9.14022 125.143 9.75007C125.143 10.2501 124.999 10.697 124.712 11.091C124.428 11.4849 124.03 11.7955 123.518 12.0228C123.007 12.2501 122.412 12.3637 121.734 12.3637C120.844 12.3637 120.107 12.1705 119.524 11.7842C118.941 11.3978 118.571 10.8334 118.416 10.091L119.689 9.77279C119.81 10.2425 120.039 10.5948 120.376 10.8296C120.717 11.0645 121.162 11.1819 121.712 11.1819C122.337 11.1819 122.833 11.0493 123.2 10.7842C123.571 10.5152 123.757 10.1932 123.757 9.81825C123.757 9.51522 123.651 9.26143 123.439 9.05688C123.227 8.84855 122.901 8.69325 122.462 8.59098L121.007 8.25007C120.208 8.06067 119.621 7.76711 119.246 7.36938C118.874 6.96787 118.689 6.46598 118.689 5.8637C118.689 5.37128 118.827 4.93567 119.104 4.55688C119.384 4.1781 119.765 3.88075 120.246 3.66484C120.731 3.44893 121.28 3.34098 121.893 3.34098C122.757 3.34098 123.435 3.53037 123.928 3.90916C124.424 4.28795 124.776 4.78795 124.984 5.40916ZM131.662 15.4546V3.45461H132.957V4.84098H133.116C133.215 4.68946 133.351 4.49628 133.526 4.26143C133.704 4.02279 133.957 3.81067 134.287 3.62507C134.62 3.43567 135.071 3.34098 135.639 3.34098C136.374 3.34098 137.022 3.52469 137.582 3.89211C138.143 4.25954 138.58 4.78037 138.895 5.45461C139.209 6.12885 139.366 6.92431 139.366 7.84098C139.366 8.76522 139.209 9.56635 138.895 10.2444C138.58 10.9186 138.145 11.4414 137.588 11.8126C137.031 12.18 136.389 12.3637 135.662 12.3637C135.101 12.3637 134.652 12.2709 134.315 12.0853C133.978 11.8959 133.719 11.6819 133.537 11.4432C133.355 11.2008 133.215 11.0001 133.116 10.841H133.003V15.4546H131.662ZM132.98 7.81825C132.98 8.47734 133.077 9.05878 133.27 9.56257C133.463 10.0626 133.745 10.4546 134.116 10.7387C134.488 11.019 134.942 11.1592 135.48 11.1592C136.041 11.1592 136.508 11.0114 136.883 10.716C137.262 10.4167 137.546 10.0152 137.736 9.51143C137.929 9.00385 138.026 8.43946 138.026 7.81825C138.026 7.20461 137.931 6.65158 137.741 6.15916C137.556 5.66295 137.274 5.2709 136.895 4.98302C136.52 4.69135 136.048 4.54552 135.48 4.54552C134.935 4.54552 134.476 4.68378 134.105 4.96029C133.734 5.23302 133.454 5.6156 133.264 6.10802C133.075 6.59666 132.98 7.16673 132.98 7.81825ZM144.957 12.3637C144.169 12.3637 143.478 12.1762 142.883 11.8012C142.293 11.4262 141.83 10.9016 141.497 10.2273C141.168 9.5531 141.003 8.76522 141.003 7.8637C141.003 6.95461 141.168 6.16105 141.497 5.48302C141.83 4.80499 142.293 4.27848 142.883 3.90348C143.478 3.52848 144.169 3.34098 144.957 3.34098C145.745 3.34098 146.435 3.52848 147.026 3.90348C147.62 4.27848 148.082 4.80499 148.412 5.48302C148.745 6.16105 148.912 6.95461 148.912 7.8637C148.912 8.76522 148.745 9.5531 148.412 10.2273C148.082 10.9016 147.62 11.4262 147.026 11.8012C146.435 12.1762 145.745 12.3637 144.957 12.3637ZM144.957 11.1592C145.556 11.1592 146.048 11.0057 146.435 10.6989C146.821 10.3921 147.107 9.9887 147.293 9.4887C147.478 8.9887 147.571 8.44704 147.571 7.8637C147.571 7.28037 147.478 6.73681 147.293 6.23302C147.107 5.72923 146.821 5.32204 146.435 5.01143C146.048 4.70082 145.556 4.54552 144.957 4.54552C144.359 4.54552 143.866 4.70082 143.48 5.01143C143.094 5.32204 142.808 5.72923 142.622 6.23302C142.437 6.73681 142.344 7.28037 142.344 7.8637C142.344 8.44704 142.437 8.9887 142.622 9.4887C142.808 9.9887 143.094 10.3921 143.48 10.6989C143.866 11.0057 144.359 11.1592 144.957 11.1592ZM150.959 12.1819V3.45461H152.254V4.77279H152.345C152.504 4.34098 152.792 3.9906 153.209 3.72166C153.625 3.45272 154.095 3.31825 154.618 3.31825C154.716 3.31825 154.839 3.32014 154.987 3.32393C155.135 3.32772 155.247 3.3334 155.322 3.34098V4.70461C155.277 4.69325 155.173 4.6762 155.01 4.65348C154.851 4.62696 154.682 4.6137 154.504 4.6137C154.08 4.6137 153.701 4.70272 153.368 4.88075C153.038 5.05499 152.777 5.29741 152.584 5.60802C152.394 5.91484 152.3 6.26522 152.3 6.65916V12.1819H150.959ZM165.071 12.3637C164.23 12.3637 163.505 12.1781 162.895 11.8069C162.289 11.4319 161.821 10.9092 161.491 10.2387C161.166 9.56446 161.003 8.78037 161.003 7.88643C161.003 6.99249 161.166 6.20461 161.491 5.52279C161.821 4.83719 162.279 4.3031 162.866 3.92052C163.457 3.53416 164.147 3.34098 164.935 3.34098C165.389 3.34098 165.838 3.41673 166.281 3.56825C166.724 3.71976 167.128 3.96598 167.491 4.30688C167.855 4.64401 168.145 5.09098 168.361 5.64779C168.577 6.20461 168.685 6.89022 168.685 7.70461V8.27279H161.957V7.1137H167.321C167.321 6.62128 167.223 6.18188 167.026 5.79552C166.832 5.40916 166.556 5.10423 166.196 4.88075C165.84 4.65726 165.419 4.54552 164.935 4.54552C164.401 4.54552 163.938 4.6781 163.548 4.94325C163.162 5.20461 162.865 5.54552 162.656 5.96598C162.448 6.38643 162.344 6.83719 162.344 7.31825V8.09098C162.344 8.75007 162.457 9.30878 162.685 9.76711C162.916 10.2217 163.236 10.5682 163.645 10.8069C164.054 11.0417 164.529 11.1592 165.071 11.1592C165.423 11.1592 165.741 11.1099 166.026 11.0114C166.313 10.9092 166.562 10.7576 166.77 10.5569C166.978 10.3523 167.139 10.0986 167.253 9.79552L168.548 10.1592C168.412 10.5986 168.183 10.9849 167.861 11.3182C167.539 11.6478 167.141 11.9054 166.668 12.091C166.194 12.2728 165.662 12.3637 165.071 12.3637ZM176.906 5.40916L175.702 5.75007C175.626 5.54931 175.514 5.35423 175.366 5.16484C175.223 4.97166 175.026 4.81257 174.776 4.68757C174.526 4.56257 174.205 4.50007 173.815 4.50007C173.281 4.50007 172.836 4.62317 172.48 4.86938C172.128 5.11181 171.952 5.42052 171.952 5.79552C171.952 6.12885 172.073 6.39211 172.315 6.58529C172.558 6.77848 172.937 6.93946 173.452 7.06825L174.747 7.38643C175.527 7.57582 176.109 7.8656 176.491 8.25575C176.874 8.64211 177.065 9.14022 177.065 9.75007C177.065 10.2501 176.921 10.697 176.633 11.091C176.349 11.4849 175.952 11.7955 175.44 12.0228C174.929 12.2501 174.334 12.3637 173.656 12.3637C172.766 12.3637 172.029 12.1705 171.446 11.7842C170.863 11.3978 170.493 10.8334 170.338 10.091L171.611 9.77279C171.732 10.2425 171.961 10.5948 172.298 10.8296C172.639 11.0645 173.084 11.1819 173.633 11.1819C174.258 11.1819 174.755 11.0493 175.122 10.7842C175.493 10.5152 175.679 10.1932 175.679 9.81825C175.679 9.51522 175.573 9.26143 175.361 9.05688C175.149 8.84855 174.823 8.69325 174.383 8.59098L172.929 8.25007C172.13 8.06067 171.543 7.76711 171.168 7.36938C170.796 6.96787 170.611 6.46598 170.611 5.8637C170.611 5.37128 170.749 4.93567 171.026 4.55688C171.306 4.1781 171.687 3.88075 172.168 3.66484C172.652 3.44893 173.202 3.34098 173.815 3.34098C174.679 3.34098 175.357 3.53037 175.849 3.90916C176.346 4.28795 176.698 4.78795 176.906 5.40916ZM182.879 3.45461V4.59098H178.357V3.45461H182.879ZM179.675 1.3637H181.016V9.68188C181.016 10.0607 181.071 10.3448 181.18 10.5342C181.294 10.7198 181.438 10.8448 181.612 10.9092C181.79 10.9698 181.978 11.0001 182.175 11.0001C182.322 11.0001 182.444 10.9925 182.538 10.9773C182.633 10.9584 182.709 10.9432 182.766 10.9319L183.038 12.1364C182.947 12.1705 182.821 12.2046 182.658 12.2387C182.495 12.2766 182.288 12.2955 182.038 12.2955C181.66 12.2955 181.288 12.2141 180.925 12.0512C180.565 11.8883 180.266 11.6402 180.027 11.3069C179.792 10.9736 179.675 10.5531 179.675 10.0455V1.3637ZM190.396 8.6137V3.45461H191.737V12.1819H190.396V10.7046H190.305C190.101 11.1478 189.783 11.5247 189.351 11.8353C188.919 12.1421 188.374 12.2955 187.714 12.2955C187.169 12.2955 186.684 12.1762 186.26 11.9376C185.836 11.6951 185.502 11.3315 185.26 10.8467C185.017 10.358 184.896 9.74249 184.896 9.00007V3.45461H186.237V8.90916C186.237 9.54552 186.415 10.0531 186.771 10.4319C187.131 10.8107 187.589 11.0001 188.146 11.0001C188.48 11.0001 188.819 10.9148 189.163 10.7444C189.512 10.5739 189.803 10.3126 190.038 9.96029C190.277 9.60802 190.396 9.15916 190.396 8.6137ZM197.489 12.3637C196.761 12.3637 196.119 12.18 195.562 11.8126C195.006 11.4414 194.57 10.9186 194.256 10.2444C193.941 9.56635 193.784 8.76522 193.784 7.84098C193.784 6.92431 193.941 6.12885 194.256 5.45461C194.57 4.78037 195.008 4.25954 195.568 3.89211C196.129 3.52469 196.776 3.34098 197.511 3.34098C198.08 3.34098 198.528 3.43567 198.858 3.62507C199.191 3.81067 199.445 4.02279 199.619 4.26143C199.797 4.49628 199.936 4.68946 200.034 4.84098H200.148V0.545521H201.489V12.1819H200.193V10.841H200.034C199.936 11.0001 199.795 11.2008 199.614 11.4432C199.432 11.6819 199.172 11.8959 198.835 12.0853C198.498 12.2709 198.049 12.3637 197.489 12.3637ZM197.67 11.1592C198.208 11.1592 198.663 11.019 199.034 10.7387C199.405 10.4546 199.687 10.0626 199.881 9.56257C200.074 9.05878 200.17 8.47734 200.17 7.81825C200.17 7.16673 200.076 6.59666 199.886 6.10802C199.697 5.6156 199.417 5.23302 199.045 4.96029C198.674 4.68378 198.216 4.54552 197.67 4.54552C197.102 4.54552 196.629 4.69135 196.25 4.98302C195.875 5.2709 195.593 5.66295 195.403 6.15916C195.218 6.65158 195.125 7.20461 195.125 7.81825C195.125 8.43946 195.22 9.00385 195.409 9.51143C195.602 10.0152 195.886 10.4167 196.261 10.716C196.64 11.0114 197.11 11.1592 197.67 11.1592ZM206.699 12.3864C206.146 12.3864 205.644 12.2823 205.193 12.0739C204.742 11.8618 204.384 11.5569 204.119 11.1592C203.854 10.7576 203.722 10.2728 203.722 9.70461C203.722 9.20461 203.82 8.79931 204.017 8.4887C204.214 8.17431 204.477 7.9281 204.807 7.75007C205.136 7.57204 205.5 7.43946 205.898 7.35234C206.299 7.26143 206.703 7.18946 207.108 7.13643C207.638 7.06825 208.068 7.01711 208.398 6.98302C208.731 6.94514 208.973 6.88264 209.125 6.79552C209.28 6.7084 209.358 6.55688 209.358 6.34098V6.29552C209.358 5.73491 209.205 5.29931 208.898 4.9887C208.595 4.6781 208.134 4.52279 207.517 4.52279C206.877 4.52279 206.375 4.66295 206.011 4.94325C205.648 5.22355 205.392 5.52279 205.244 5.84098L203.972 5.38643C204.199 4.85613 204.502 4.44325 204.881 4.14779C205.263 3.84855 205.68 3.64022 206.131 3.52279C206.585 3.40158 207.032 3.34098 207.472 3.34098C207.752 3.34098 208.074 3.37507 208.437 3.44325C208.805 3.50764 209.159 3.64211 209.5 3.84666C209.845 4.0512 210.131 4.35992 210.358 4.77279C210.585 5.18567 210.699 5.7387 210.699 6.43188V12.1819H209.358V11.0001H209.29C209.199 11.1895 209.047 11.3921 208.835 11.608C208.623 11.8239 208.341 12.0076 207.989 12.1592C207.636 12.3107 207.206 12.3864 206.699 12.3864ZM206.903 11.1819C207.434 11.1819 207.881 11.0777 208.244 10.8694C208.612 10.6611 208.888 10.3921 209.074 10.0626C209.263 9.73302 209.358 9.38643 209.358 9.02279V7.79552C209.301 7.8637 209.176 7.9262 208.983 7.98302C208.794 8.03605 208.574 8.0834 208.324 8.12507C208.078 8.16295 207.837 8.19704 207.602 8.22734C207.371 8.25385 207.184 8.27658 207.04 8.29552C206.691 8.34098 206.366 8.41484 206.062 8.51711C205.763 8.6156 205.521 8.76522 205.335 8.96598C205.153 9.16295 205.062 9.43188 205.062 9.77279C205.062 10.2387 205.235 10.591 205.58 10.8296C205.928 11.0645 206.369 11.1819 206.903 11.1819ZM214.487 6.93188V12.1819H213.146V3.45461H214.442V4.81825H214.555C214.76 4.37507 215.071 4.01901 215.487 3.75007C215.904 3.47734 216.442 3.34098 217.101 3.34098C217.692 3.34098 218.209 3.46219 218.652 3.70461C219.095 3.94325 219.44 4.30688 219.686 4.79552C219.932 5.28037 220.055 5.89401 220.055 6.63643V12.1819H218.714V6.72734C218.714 6.04173 218.536 5.50764 218.18 5.12507C217.824 4.7387 217.336 4.54552 216.714 4.54552C216.286 4.54552 215.904 4.63832 215.567 4.82393C215.233 5.00954 214.97 5.28037 214.777 5.63643C214.584 5.99249 214.487 6.42431 214.487 6.93188ZM226.301 3.45461V4.59098H221.778V3.45461H226.301ZM223.097 1.3637H224.437V9.68188C224.437 10.0607 224.492 10.3448 224.602 10.5342C224.716 10.7198 224.86 10.8448 225.034 10.9092C225.212 10.9698 225.4 11.0001 225.597 11.0001C225.744 11.0001 225.866 10.9925 225.96 10.9773C226.055 10.9584 226.131 10.9432 226.187 10.9319L226.46 12.1364C226.369 12.1705 226.242 12.2046 226.08 12.2387C225.917 12.2766 225.71 12.2955 225.46 12.2955C225.081 12.2955 224.71 12.2141 224.347 12.0512C223.987 11.8883 223.687 11.6402 223.449 11.3069C223.214 10.9736 223.097 10.5531 223.097 10.0455V1.3637ZM231.883 12.3637C231.043 12.3637 230.317 12.1781 229.707 11.8069C229.101 11.4319 228.633 10.9092 228.304 10.2387C227.978 9.56446 227.815 8.78037 227.815 7.88643C227.815 6.99249 227.978 6.20461 228.304 5.52279C228.633 4.83719 229.092 4.3031 229.679 3.92052C230.27 3.53416 230.959 3.34098 231.747 3.34098C232.202 3.34098 232.651 3.41673 233.094 3.56825C233.537 3.71976 233.94 3.96598 234.304 4.30688C234.668 4.64401 234.957 5.09098 235.173 5.64779C235.389 6.20461 235.497 6.89022 235.497 7.70461V8.27279H228.77V7.1137H234.133C234.133 6.62128 234.035 6.18188 233.838 5.79552C233.645 5.40916 233.368 5.10423 233.008 4.88075C232.652 4.65726 232.232 4.54552 231.747 4.54552C231.213 4.54552 230.751 4.6781 230.361 4.94325C229.974 5.20461 229.677 5.54552 229.469 5.96598C229.26 6.38643 229.156 6.83719 229.156 7.31825V8.09098C229.156 8.75007 229.27 9.30878 229.497 9.76711C229.728 10.2217 230.048 10.5682 230.457 10.8069C230.866 11.0417 231.342 11.1592 231.883 11.1592C232.236 11.1592 232.554 11.1099 232.838 11.0114C233.126 10.9092 233.374 10.7576 233.582 10.5569C233.791 10.3523 233.952 10.0986 234.065 9.79552L235.361 10.1592C235.224 10.5986 234.995 10.9849 234.673 11.3182C234.351 11.6478 233.954 11.9054 233.48 12.091C233.007 12.2728 232.474 12.3637 231.883 12.3637ZM243.719 5.40916L242.514 5.75007C242.438 5.54931 242.327 5.35423 242.179 5.16484C242.035 4.97166 241.838 4.81257 241.588 4.68757C241.338 4.56257 241.018 4.50007 240.628 4.50007C240.094 4.50007 239.649 4.62317 239.293 4.86938C238.94 5.11181 238.764 5.42052 238.764 5.79552C238.764 6.12885 238.885 6.39211 239.128 6.58529C239.37 6.77848 239.749 6.93946 240.264 7.06825L241.56 7.38643C242.34 7.57582 242.921 7.8656 243.304 8.25575C243.687 8.64211 243.878 9.14022 243.878 9.75007C243.878 10.2501 243.734 10.697 243.446 11.091C243.162 11.4849 242.764 11.7955 242.253 12.0228C241.741 12.2501 241.147 12.3637 240.469 12.3637C239.579 12.3637 238.842 12.1705 238.258 11.7842C237.675 11.3978 237.306 10.8334 237.151 10.091L238.423 9.77279C238.544 10.2425 238.774 10.5948 239.111 10.8296C239.452 11.0645 239.897 11.1819 240.446 11.1819C241.071 11.1819 241.567 11.0493 241.935 10.7842C242.306 10.5152 242.491 10.1932 242.491 9.81825C242.491 9.51522 242.385 9.26143 242.173 9.05688C241.961 8.84855 241.635 8.69325 241.196 8.59098L239.741 8.25007C238.942 8.06067 238.355 7.76711 237.98 7.36938C237.609 6.96787 237.423 6.46598 237.423 5.8637C237.423 5.37128 237.562 4.93567 237.838 4.55688C238.118 4.1781 238.499 3.88075 238.98 3.66484C239.465 3.44893 240.014 3.34098 240.628 3.34098C241.491 3.34098 242.169 3.53037 242.662 3.90916C243.158 4.28795 243.51 4.78795 243.719 5.40916Z" fill="black"/>
</svg>
