<svg width="92" height="20" viewBox="0 0 92 20" fill="none" xmlns="http://www.w3.org/2000/svg">
<path d="M0 15.625V1.07955H6.30682C7.41477 1.07955 8.34517 1.22869 9.09801 1.52699C9.85559 1.82528 10.4261 2.24669 10.8097 2.79119C11.1979 3.3357 11.392 3.97727 11.392 4.71591C11.392 5.25095 11.2737 5.73864 11.0369 6.17898C10.8049 6.61932 10.4782 6.98864 10.0568 7.28693C9.63542 7.58049 9.14299 7.78409 8.57955 7.89773V8.03977C9.20455 8.06345 9.77273 8.22206 10.2841 8.51562C10.7955 8.80445 11.2027 9.20455 11.5057 9.71591C11.8087 10.2225 11.9602 10.8191 11.9602 11.5057C11.9602 12.3011 11.7519 13.009 11.3352 13.6293C10.9233 14.2495 10.3362 14.7372 9.57386 15.0923C8.81155 15.4474 7.90246 15.625 6.84659 15.625H0ZM3.94886 12.4716H5.79545C6.45833 12.4716 6.95549 12.3485 7.28693 12.1023C7.61837 11.8513 7.78409 11.482 7.78409 10.9943C7.78409 10.6534 7.70597 10.3646 7.54972 10.1278C7.39347 9.8911 7.17093 9.71117 6.8821 9.58807C6.59801 9.46496 6.25474 9.40341 5.85227 9.40341H3.94886V12.4716ZM3.94886 6.96023H5.56818C5.91383 6.96023 6.21922 6.90578 6.48438 6.79688C6.74953 6.68797 6.95549 6.53172 7.10227 6.32812C7.25379 6.11979 7.32955 5.86648 7.32955 5.56818C7.32955 5.11837 7.16856 4.77509 6.84659 4.53835C6.52462 4.29688 6.11742 4.17614 5.625 4.17614H3.94886V6.96023ZM16.456 15.7955C15.7599 15.7955 15.1444 15.6818 14.6094 15.4545C14.0791 15.2225 13.6624 14.8722 13.3594 14.4034C13.0563 13.9347 12.9048 13.3381 12.9048 12.6136C12.9048 12.017 13.0066 11.508 13.2102 11.0866C13.4138 10.6605 13.6979 10.3125 14.0625 10.0426C14.4271 9.77273 14.8509 9.56676 15.3338 9.42472C15.8215 9.28267 16.3471 9.19034 16.9105 9.14773C17.5213 9.10038 18.0114 9.04356 18.3807 8.97727C18.7547 8.90625 19.0246 8.80919 19.1903 8.68608C19.3561 8.55824 19.4389 8.39015 19.4389 8.18182V8.15341C19.4389 7.86932 19.33 7.65152 19.1122 7.5C18.8944 7.34848 18.6151 7.27273 18.2741 7.27273C17.9001 7.27273 17.5947 7.35559 17.358 7.52131C17.1259 7.68229 16.9863 7.93087 16.9389 8.26705H13.331C13.3783 7.60417 13.589 6.99337 13.9631 6.43466C14.3419 5.87121 14.8935 5.4214 15.6179 5.08523C16.3423 4.74432 17.2467 4.57386 18.331 4.57386C19.1122 4.57386 19.813 4.66619 20.4332 4.85085C21.0535 5.03078 21.5814 5.28409 22.017 5.6108C22.4527 5.93277 22.7841 6.31155 23.0114 6.74716C23.2434 7.17803 23.3594 7.64678 23.3594 8.15341V15.625H19.6946V14.0909H19.6094C19.3916 14.4981 19.1264 14.8272 18.8139 15.0781C18.5062 15.3291 18.1534 15.5114 17.7557 15.625C17.3627 15.7386 16.9295 15.7955 16.456 15.7955ZM17.7344 13.3239C18.0327 13.3239 18.312 13.2623 18.5724 13.1392C18.8376 13.0161 19.053 12.8385 19.2188 12.6065C19.3845 12.3745 19.4673 12.0928 19.4673 11.7614V10.8523C19.3632 10.8949 19.2519 10.9351 19.1335 10.973C19.0199 11.0109 18.8968 11.0464 18.7642 11.0795C18.6364 11.1127 18.4991 11.1435 18.3523 11.1719C18.2102 11.2003 18.0611 11.2263 17.9048 11.25C17.6018 11.2973 17.3532 11.3755 17.1591 11.4844C16.9697 11.5885 16.8277 11.7188 16.733 11.875C16.643 12.0265 16.598 12.197 16.598 12.3864C16.598 12.6894 16.7045 12.9214 16.9176 13.0824C17.1307 13.2434 17.4029 13.3239 17.7344 13.3239ZM29.1531 9.48864V15.625H25.2326V4.71591H28.9542V6.78977H29.0678C29.3046 6.09848 29.7212 5.55634 30.3178 5.16335C30.9192 4.77036 31.6199 4.57386 32.4201 4.57386C33.1919 4.57386 33.8619 4.75142 34.43 5.10653C35.003 5.45691 35.4457 5.93987 35.7582 6.5554C36.0754 7.17093 36.2317 7.87405 36.2269 8.66477V15.625H32.3065V9.48864C32.3112 8.94886 32.1739 8.52509 31.8945 8.21733C31.6199 7.90956 31.2364 7.75568 30.744 7.75568C30.422 7.75568 30.1403 7.8267 29.8988 7.96875C29.6621 8.10606 29.4798 8.30492 29.3519 8.56534C29.2241 8.82102 29.1578 9.12879 29.1531 9.48864ZM42.1112 15.767C41.3346 15.767 40.6197 15.5634 39.9663 15.1562C39.3176 14.7491 38.7968 14.1312 38.4038 13.3026C38.0155 12.474 37.8214 11.4299 37.8214 10.1705C37.8214 8.85417 38.025 7.78409 38.4322 6.96023C38.8441 6.13636 39.3744 5.53267 40.0231 5.14915C40.6765 4.76562 41.363 4.57386 42.0827 4.57386C42.6225 4.57386 43.096 4.66856 43.5032 4.85795C43.9104 5.04261 44.2513 5.29119 44.5259 5.60369C44.8005 5.91146 45.0089 6.25 45.1509 6.61932H45.2077V1.07955H49.1282V15.625H45.2362V13.8352H45.1509C44.9994 14.2045 44.7816 14.536 44.4975 14.8295C44.2182 15.1184 43.8772 15.348 43.4748 15.5185C43.0771 15.6842 42.6225 15.767 42.1112 15.767ZM43.56 12.7557C43.9199 12.7557 44.2276 12.6515 44.4833 12.4432C44.7437 12.2301 44.9426 11.9318 45.0799 11.5483C45.2219 11.16 45.293 10.7008 45.293 10.1705C45.293 9.63068 45.2219 9.16903 45.0799 8.78551C44.9426 8.39725 44.7437 8.10133 44.4833 7.89773C44.2276 7.68939 43.9199 7.58523 43.56 7.58523C43.2002 7.58523 42.8924 7.68939 42.6367 7.89773C42.3858 8.10133 42.1916 8.39725 42.0543 8.78551C41.9218 9.16903 41.8555 9.63068 41.8555 10.1705C41.8555 10.7102 41.9218 11.1742 42.0543 11.5625C42.1916 11.946 42.3858 12.242 42.6367 12.4503C42.8924 12.6539 43.2002 12.7557 43.56 12.7557ZM56.2802 15.8239C55.1154 15.8239 54.1116 15.6013 53.2688 15.1562C52.4308 14.7064 51.7844 14.0625 51.3299 13.2244C50.8801 12.3816 50.6552 11.3731 50.6552 10.1989C50.6552 9.07197 50.8825 8.08712 51.337 7.24432C51.7915 6.40151 52.4331 5.74574 53.2617 5.27699C54.0903 4.80824 55.0681 4.57386 56.195 4.57386C57.0188 4.57386 57.7646 4.7017 58.4322 4.95739C59.0998 5.21307 59.6703 5.58475 60.1438 6.07244C60.6173 6.5554 60.9819 7.14252 61.2376 7.83381C61.4933 8.52509 61.6211 9.30398 61.6211 10.1705V11.0795H51.8768V8.92045H58.0131C58.0084 8.60795 57.9279 8.33333 57.7717 8.09659C57.6201 7.85511 57.4142 7.66809 57.1538 7.53551C56.8981 7.3982 56.6069 7.32955 56.2802 7.32955C55.9629 7.32955 55.6718 7.3982 55.4066 7.53551C55.1415 7.66809 54.9284 7.85275 54.7674 8.08949C54.6112 8.32623 54.5283 8.60322 54.5188 8.92045V11.25C54.5188 11.6004 54.5922 11.9129 54.739 12.1875C54.8858 12.4621 55.0965 12.6776 55.3711 12.8338C55.6457 12.9901 55.9772 13.0682 56.3654 13.0682C56.6353 13.0682 56.8815 13.0303 57.104 12.9545C57.3313 12.8788 57.5254 12.7699 57.6864 12.6278C57.8474 12.4811 57.9658 12.3059 58.0415 12.1023H61.6211C61.498 12.8598 61.2068 13.518 60.7475 14.0767C60.2882 14.6307 59.6798 15.0616 58.9222 15.3693C58.1694 15.6723 57.2887 15.8239 56.2802 15.8239ZM63.2209 4.71591H67.1413V15.9943C67.1413 16.9508 66.9401 17.6989 66.5376 18.2386C66.1399 18.7784 65.5812 19.1596 64.8615 19.3821C64.1418 19.6046 63.3014 19.7159 62.3402 19.7159C62.1982 19.7159 62.0679 19.7135 61.9496 19.7088C61.8265 19.7041 61.6915 19.697 61.5447 19.6875V16.7898C61.6394 16.7992 61.7223 16.8063 61.7933 16.8111C61.8596 16.8158 61.9283 16.8182 61.9993 16.8182C62.468 16.8182 62.7876 16.7448 62.9581 16.598C63.1333 16.456 63.2209 16.2263 63.2209 15.9091V4.71591ZM65.1811 3.57955C64.6508 3.57955 64.1963 3.40436 63.8175 3.05398C63.4387 2.7036 63.2493 2.2822 63.2493 1.78977C63.2493 1.29735 63.4387 0.875947 63.8175 0.525568C64.1963 0.175189 64.6508 0 65.1811 0C65.7161 0 66.1707 0.175189 66.5447 0.525568C66.9235 0.875947 67.1129 1.29735 67.1129 1.78977C67.1129 2.2822 66.9235 2.7036 66.5447 3.05398C66.1707 3.40436 65.7161 3.57955 65.1811 3.57955ZM72.1786 15.7955C71.4826 15.7955 70.8671 15.6818 70.332 15.4545C69.8017 15.2225 69.3851 14.8722 69.082 14.4034C68.779 13.9347 68.6275 13.3381 68.6275 12.6136C68.6275 12.017 68.7293 11.508 68.9329 11.0866C69.1365 10.6605 69.4206 10.3125 69.7852 10.0426C70.1497 9.77273 70.5735 9.56676 71.0565 9.42472C71.5442 9.28267 72.0697 9.19034 72.6332 9.14773C73.244 9.10038 73.734 9.04356 74.1033 8.97727C74.4774 8.90625 74.7473 8.80919 74.913 8.68608C75.0787 8.55824 75.1616 8.39015 75.1616 8.18182V8.15341C75.1616 7.86932 75.0527 7.65152 74.8349 7.5C74.6171 7.34848 74.3377 7.27273 73.9968 7.27273C73.6228 7.27273 73.3174 7.35559 73.0806 7.52131C72.8486 7.68229 72.7089 7.93087 72.6616 8.26705H69.0536C69.101 7.60417 69.3117 6.99337 69.6857 6.43466C70.0645 5.87121 70.6161 5.4214 71.3406 5.08523C72.065 4.74432 72.9693 4.57386 74.0536 4.57386C74.8349 4.57386 75.5356 4.66619 76.1559 4.85085C76.7762 5.03078 77.3041 5.28409 77.7397 5.6108C78.1753 5.93277 78.5067 6.31155 78.734 6.74716C78.966 7.17803 79.082 7.64678 79.082 8.15341V15.625H75.4173V14.0909H75.332C75.1142 14.4981 74.8491 14.8272 74.5366 15.0781C74.2288 15.3291 73.8761 15.5114 73.4783 15.625C73.0853 15.7386 72.6521 15.7955 72.1786 15.7955ZM73.457 13.3239C73.7553 13.3239 74.0347 13.2623 74.2951 13.1392C74.5603 13.0161 74.7757 12.8385 74.9414 12.6065C75.1071 12.3745 75.19 12.0928 75.19 11.7614V10.8523C75.0858 10.8949 74.9746 10.9351 74.8562 10.973C74.7425 11.0109 74.6194 11.0464 74.4869 11.0795C74.359 11.1127 74.2217 11.1435 74.0749 11.1719C73.9329 11.2003 73.7837 11.2263 73.6275 11.25C73.3245 11.2973 73.0759 11.3755 72.8817 11.4844C72.6924 11.5885 72.5503 11.7188 72.4556 11.875C72.3656 12.0265 72.3207 12.197 72.3207 12.3864C72.3207 12.6894 72.4272 12.9214 72.6403 13.0824C72.8533 13.2434 73.1256 13.3239 73.457 13.3239ZM72.2354 3.35227H70.3036C70.3036 2.32955 70.538 1.5696 71.0067 1.07244C71.4755 0.570548 72.046 0.317234 72.7184 0.3125C73.0877 0.3125 73.4002 0.371685 73.6559 0.490056C73.9163 0.603693 74.1436 0.738636 74.3377 0.894886C74.5318 1.05114 74.707 1.18845 74.8633 1.30682C75.0243 1.42045 75.19 1.47727 75.3604 1.47727C75.6351 1.47254 75.8292 1.37311 75.9428 1.17898C76.0612 0.984848 76.1228 0.714962 76.1275 0.369318H78.0309C78.0167 1.37311 77.7752 2.13305 77.3065 2.64915C76.8424 3.16525 76.279 3.42803 75.6161 3.4375C75.2468 3.44223 74.9319 3.38542 74.6715 3.26705C74.4158 3.14867 74.1933 3.01373 74.0039 2.86222C73.8192 2.70597 73.6464 2.56865 73.4854 2.45028C73.3245 2.33191 73.154 2.27273 72.9741 2.27273C72.7468 2.27273 72.5669 2.36506 72.4343 2.54972C72.3017 2.72964 72.2354 2.99716 72.2354 3.35227ZM86.2109 15.8239C85.0272 15.8239 84.014 15.5895 83.1712 15.1207C82.3284 14.6473 81.6821 13.9891 81.2322 13.1463C80.7824 12.2988 80.5575 11.3163 80.5575 10.1989C80.5575 9.08144 80.7824 8.10133 81.2322 7.25852C81.6821 6.41098 82.3284 5.75284 83.1712 5.28409C84.014 4.81061 85.0272 4.57386 86.2109 4.57386C87.3946 4.57386 88.4079 4.81061 89.2507 5.28409C90.0935 5.75284 90.7398 6.41098 91.1896 7.25852C91.6394 8.10133 91.8643 9.08144 91.8643 10.1989C91.8643 11.3163 91.6394 12.2988 91.1896 13.1463C90.7398 13.9891 90.0935 14.6473 89.2507 15.1207C88.4079 15.5895 87.3946 15.8239 86.2109 15.8239ZM86.2393 12.9261C86.5708 12.9261 86.8572 12.8149 87.0987 12.5923C87.3402 12.3698 87.5272 12.0526 87.6598 11.6406C87.7924 11.2287 87.8587 10.7386 87.8587 10.1705C87.8587 9.59754 87.7924 9.10748 87.6598 8.70028C87.5272 8.28835 87.3402 7.97112 87.0987 7.74858C86.8572 7.52604 86.5708 7.41477 86.2393 7.41477C85.889 7.41477 85.5883 7.52604 85.3374 7.74858C85.0864 7.97112 84.8946 8.28835 84.7621 8.70028C84.6295 9.10748 84.5632 9.59754 84.5632 10.1705C84.5632 10.7386 84.6295 11.2287 84.7621 11.6406C84.8946 12.0526 85.0864 12.3698 85.3374 12.5923C85.5883 12.8149 85.889 12.9261 86.2393 12.9261Z" fill="black"/>
</svg>
