<svg width="248" height="38" viewBox="0 0 248 38" fill="none" xmlns="http://www.w3.org/2000/svg">
<path d="M34.0909 14.1336H24.0767C24.0057 13.305 23.8163 12.5533 23.5085 11.8786C23.2126 11.2039 22.7983 10.6239 22.2656 10.1385C21.7448 9.64138 21.1115 9.26259 20.3658 9.00217C19.62 8.72992 18.7737 8.59379 17.8267 8.59379C16.1695 8.59379 14.7668 8.99626 13.6186 9.80118C12.4822 10.6061 11.6181 11.7602 11.0263 13.2635C10.4462 14.7669 10.1562 16.572 10.1562 18.679C10.1562 20.9044 10.4522 22.7687 11.044 24.2721C11.6477 25.7635 12.5177 26.8881 13.6541 27.6456C14.7905 28.3914 16.1577 28.7642 17.7557 28.7642C18.6671 28.7642 19.4839 28.6518 20.206 28.4269C20.928 28.1901 21.5554 27.8528 22.0881 27.4148C22.6207 26.9768 23.0528 26.4501 23.3842 25.8346C23.7275 25.2072 23.9583 24.5029 24.0767 23.7216L34.0909 23.7927C33.9725 25.3315 33.5405 26.8999 32.7947 28.4979C32.049 30.0841 30.9896 31.5519 29.6165 32.9013C28.2552 34.2389 26.5684 35.3161 24.5561 36.1329C22.5438 36.9496 20.2059 37.358 17.5426 37.358C14.2045 37.358 11.2097 36.6419 8.55822 35.2096C5.91854 33.7773 3.82929 31.6703 2.29047 28.8885C0.763478 26.1068 -1.65105e-05 22.7036 -1.65105e-05 18.679C-1.65105e-05 14.6307 0.781233 11.2216 2.34373 8.45175C3.90623 5.67002 6.01324 3.56893 8.66476 2.14848C11.3163 0.716189 14.2756 4.30346e-05 17.5426 4.30346e-05C19.839 4.30346e-05 21.9519 0.313726 23.8814 0.941093C25.8108 1.56846 27.5035 2.48584 28.9595 3.69322C30.4155 4.88877 31.5873 6.3625 32.4751 8.11439C33.3629 9.86628 33.9015 11.8727 34.0909 14.1336ZM38.5698 36.8608V0.497202H48.4419V14.7017H61.5101V0.497202H71.3823V36.8608H61.5101V22.6563H48.4419V36.8608H38.5698ZM85.5158 36.8608H74.8624L86.8652 0.497202H100.36L112.362 36.8608H101.709L93.7544 10.5114H93.4703L85.5158 36.8608ZM83.5271 22.5142H103.556V29.9006H83.5271V22.5142ZM110.281 8.45175V0.497202H141.886V8.45175H130.948V36.8608H121.218V8.45175H110.281ZM145.601 36.8608V0.497202H161.368C164.138 0.497202 166.464 0.870072 168.346 1.61581C170.24 2.36155 171.666 3.41505 172.625 4.77632C173.596 6.13759 174.081 7.74152 174.081 9.58811C174.081 10.9257 173.785 12.1449 173.193 13.2458C172.613 14.3466 171.797 15.2699 170.743 16.0157C169.69 16.7496 168.458 17.2586 167.05 17.5427V17.8978C168.612 17.957 170.033 18.3535 171.311 19.0874C172.59 19.8095 173.608 20.8097 174.365 22.0881C175.123 23.3547 175.502 24.8462 175.502 26.5625C175.502 28.5512 174.981 30.3208 173.939 31.8715C172.909 33.4222 171.441 34.6414 169.536 35.5292C167.63 36.4169 165.357 36.8608 162.717 36.8608H145.601ZM155.473 28.9773H160.09C161.747 28.9773 162.99 28.6696 163.818 28.054C164.647 27.4267 165.061 26.5034 165.061 25.2841C165.061 24.4319 164.866 23.7098 164.475 23.1179C164.085 22.5261 163.528 22.0763 162.806 21.7685C162.096 21.4607 161.238 21.3069 160.232 21.3069H155.473V28.9773ZM155.473 15.1989H159.521C160.386 15.1989 161.149 15.0628 161.812 14.7905C162.475 14.5183 162.99 14.1276 163.357 13.6187C163.735 13.0978 163.925 12.4645 163.925 11.7188C163.925 10.5943 163.522 9.73608 162.717 9.14422C161.913 8.54053 160.895 8.23868 159.664 8.23868H155.473V15.1989ZM214.227 18.679C214.227 22.7273 213.44 26.1423 211.865 28.9241C210.291 31.6939 208.166 33.795 205.491 35.2273C202.816 36.6478 199.833 37.358 196.542 37.358C193.228 37.358 190.233 36.6419 187.558 35.2096C184.894 33.7654 182.775 31.6584 181.201 28.8885C179.639 26.1068 178.857 22.7036 178.857 18.679C178.857 14.6307 179.639 11.2216 181.201 8.45175C182.775 5.67002 184.894 3.56893 187.558 2.14848C190.233 0.716189 193.228 4.30346e-05 196.542 4.30346e-05C199.833 4.30346e-05 202.816 0.716189 205.491 2.14848C208.166 3.56893 210.291 5.67002 211.865 8.45175C213.44 11.2216 214.227 14.6307 214.227 18.679ZM204.07 18.679C204.07 16.501 203.78 14.6662 203.2 13.1748C202.632 11.6714 201.786 10.5351 200.661 9.76567C199.549 8.98442 198.176 8.59379 196.542 8.59379C194.909 8.59379 193.53 8.98442 192.405 9.76567C191.292 10.5351 190.446 11.6714 189.866 13.1748C189.298 14.6662 189.014 16.501 189.014 18.679C189.014 20.8571 189.298 22.6977 189.866 24.201C190.446 25.6925 191.292 26.8289 192.405 27.6101C193.53 28.3795 194.909 28.7642 196.542 28.7642C198.176 28.7642 199.549 28.3795 200.661 27.6101C201.786 26.8289 202.632 25.6925 203.2 24.201C203.78 22.6977 204.07 20.8571 204.07 18.679ZM216.091 8.45175V0.497202H247.696V8.45175H236.759V36.8608H227.029V8.45175H216.091Z" fill="white"/>
</svg>
