<svg width="277" height="18" viewBox="0 0 277 18" fill="none" xmlns="http://www.w3.org/2000/svg">
<path d="M11.7805 5.33099H8.98083C8.92969 4.96878 8.82529 4.64704 8.66762 4.36579C8.50995 4.08028 8.30753 3.83739 8.06037 3.6371C7.81321 3.43682 7.5277 3.28341 7.20384 3.17687C6.88423 3.07034 6.53693 3.01707 6.16193 3.01707C5.48438 3.01707 4.89418 3.1854 4.39134 3.52204C3.8885 3.85443 3.49858 4.34023 3.22159 4.97943C2.9446 5.61437 2.80611 6.38568 2.80611 7.29335C2.80611 8.22659 2.9446 9.01068 3.22159 9.64562C3.50284 10.2806 3.89489 10.76 4.39773 11.0838C4.90057 11.4077 5.48225 11.5696 6.14276 11.5696C6.5135 11.5696 6.85654 11.5206 7.17188 11.4226C7.49148 11.3246 7.77486 11.1818 8.02202 10.9943C8.26918 10.8026 8.47372 10.5703 8.63566 10.2976C8.80185 10.0249 8.91691 9.71381 8.98083 9.36437L11.7805 9.37716C11.7081 9.97801 11.527 10.5576 11.2372 11.1158C10.9517 11.6698 10.5661 12.1662 10.0803 12.6051C9.59872 13.0398 9.02344 13.385 8.35441 13.6407C7.68963 13.8921 6.9375 14.0178 6.09801 14.0178C4.9304 14.0178 3.88637 13.7536 2.96591 13.2252C2.04972 12.6968 1.32529 11.9318 0.792615 10.9304C0.264206 9.929 1.39326e-06 8.71665 1.39326e-06 7.29335C1.39326e-06 5.86579 0.268467 4.65131 0.805399 3.64989C1.34233 2.64846 2.07102 1.88568 2.99148 1.36153C3.91193 0.833124 4.94744 0.568919 6.09801 0.568919C6.85654 0.568919 7.55966 0.675453 8.20739 0.888522C8.85938 1.10159 9.43679 1.41267 9.93963 1.82176C10.4425 2.22659 10.8516 2.72304 11.1669 3.31111C11.4865 3.89918 11.6911 4.57247 11.7805 5.33099ZM16.4371 8.16267V13.8388H13.7141V0.747897H16.3604V5.75287H16.4755C16.6971 5.17332 17.055 4.71949 17.5494 4.39136C18.0437 4.05898 18.6637 3.89278 19.4094 3.89278C20.0913 3.89278 20.6857 4.04193 21.1928 4.34023C21.7042 4.63426 22.1005 5.05827 22.3817 5.61224C22.6673 6.16196 22.8079 6.82034 22.8036 7.58739V13.8388H20.0806V8.07318C20.0849 7.46807 19.9315 6.99719 19.6204 6.66054C19.3136 6.32389 18.8832 6.15557 18.3292 6.15557C17.9585 6.15557 17.6303 6.2344 17.3448 6.39207C17.0636 6.54974 16.842 6.77986 16.68 7.08241C16.5224 7.38071 16.4414 7.74079 16.4371 8.16267ZM27.7463 14.0242C27.1199 14.0242 26.5616 13.9155 26.0716 13.6982C25.5815 13.4766 25.1937 13.1506 24.9082 12.7202C24.627 12.2855 24.4863 11.7443 24.4863 11.0966C24.4863 10.5512 24.5865 10.0931 24.7868 9.72233C24.987 9.35159 25.2598 9.05329 25.6049 8.82744C25.9501 8.60159 26.3422 8.43114 26.7811 8.31608C27.2243 8.20102 27.6887 8.12006 28.1745 8.07318C28.7456 8.01352 29.2058 7.95812 29.5552 7.90699C29.9047 7.85159 30.1582 7.77062 30.3159 7.66409C30.4735 7.55756 30.5524 7.39989 30.5524 7.19108V7.15273C30.5524 6.7479 30.4245 6.43469 30.1689 6.2131C29.9174 5.9915 29.5595 5.88071 29.095 5.88071C28.6049 5.88071 28.215 5.98937 27.9253 6.2067C27.6355 6.41977 27.4437 6.68824 27.35 7.0121L24.8315 6.80756C24.9593 6.21096 25.2108 5.69534 25.5858 5.26068C25.9608 4.82176 26.4444 4.48511 27.0368 4.25074C27.6333 4.0121 28.3237 3.89278 29.1078 3.89278C29.6532 3.89278 30.1753 3.9567 30.6738 4.08454C31.1767 4.21239 31.622 4.41054 32.0098 4.679C32.4018 4.94747 32.7108 5.29264 32.9366 5.71452C33.1625 6.13213 33.2754 6.63284 33.2754 7.21665V13.8388H30.693V12.4773H30.6163C30.4586 12.7841 30.2477 13.0547 29.9835 13.2891C29.7193 13.5192 29.4018 13.7003 29.0311 13.8324C28.6603 13.9603 28.2321 14.0242 27.7463 14.0242ZM28.5261 12.1449C28.9267 12.1449 29.2804 12.0661 29.5872 11.9084C29.894 11.7465 30.1348 11.5291 30.3095 11.2564C30.4842 10.9837 30.5716 10.6747 30.5716 10.3296V9.28767C30.4863 9.34307 30.3691 9.3942 30.22 9.44108C30.0751 9.48369 29.911 9.52418 29.7278 9.56253C29.5446 9.59662 29.3613 9.62858 29.1781 9.65841C28.9949 9.68398 28.8287 9.70741 28.6795 9.72872C28.3599 9.7756 28.0808 9.85017 27.8422 9.95244C27.6035 10.0547 27.4181 10.1932 27.286 10.3679C27.1539 10.5384 27.0879 10.7514 27.0879 11.0071C27.0879 11.3779 27.2221 11.6612 27.4906 11.8573C27.7633 12.049 28.1085 12.1449 28.5261 12.1449ZM40.6103 4.02062V6.06608H34.6976V4.02062H40.6103ZM36.04 1.66835H38.763V10.8218C38.763 11.0732 38.8013 11.2692 38.878 11.4098C38.9547 11.5462 39.0613 11.6421 39.1976 11.6975C39.3382 11.7529 39.5002 11.7806 39.6834 11.7806C39.8113 11.7806 39.9391 11.7699 40.0669 11.7486C40.1948 11.723 40.2928 11.7039 40.361 11.6911L40.7892 13.7174C40.6529 13.76 40.4611 13.809 40.214 13.8644C39.9668 13.924 39.6664 13.9603 39.3127 13.973C38.6564 13.9986 38.0811 13.9112 37.5868 13.711C37.0968 13.5107 36.7154 13.1996 36.4427 12.7777C36.1699 12.3559 36.0357 11.8232 36.04 11.1797V1.66835ZM42.6461 13.8388V0.747897H45.3691V5.66977H45.4522C45.5716 5.40557 45.7441 5.1371 45.97 4.86437C46.2001 4.58739 46.4984 4.35727 46.8649 4.17403C47.2356 3.98653 47.6958 3.89278 48.2456 3.89278C48.9615 3.89278 49.622 4.08028 50.2271 4.45528C50.8322 4.82602 51.3159 5.38639 51.6781 6.13639C52.0403 6.88213 52.2214 7.8175 52.2214 8.9425C52.2214 10.0377 52.0446 10.9624 51.6909 11.7166C51.3414 12.4666 50.8642 13.0355 50.2591 13.4233C49.6582 13.8068 48.9849 13.9986 48.2392 13.9986C47.7108 13.9986 47.2612 13.9112 46.8904 13.7365C46.524 13.5618 46.2235 13.3424 45.9892 13.0782C45.7548 12.8097 45.5758 12.5391 45.4522 12.2664H45.3308V13.8388H42.6461ZM45.3116 8.92972C45.3116 9.51352 45.3926 10.0228 45.5545 10.4574C45.7164 10.8921 45.9508 11.2309 46.2576 11.4737C46.5645 11.7124 46.9373 11.8317 47.3762 11.8317C47.8194 11.8317 48.1944 11.7103 48.5012 11.4674C48.8081 11.2202 49.0403 10.8793 49.198 10.4446C49.3599 10.0057 49.4409 9.50074 49.4409 8.92972C49.4409 8.36295 49.362 7.86437 49.2044 7.43398C49.0467 7.00358 48.8145 6.66693 48.5076 6.42403C48.2008 6.18114 47.8237 6.05969 47.3762 6.05969C46.9331 6.05969 46.5581 6.17687 46.2512 6.41125C45.9487 6.64562 45.7164 6.97801 45.5545 7.40841C45.3926 7.83881 45.3116 8.34591 45.3116 8.92972ZM58.4744 14.0306C57.4815 14.0306 56.6229 13.8196 55.8984 13.3978C55.1783 12.9716 54.6222 12.3793 54.2301 11.6208C53.8381 10.858 53.642 9.97375 53.642 8.96807C53.642 7.95386 53.8381 7.0675 54.2301 6.30898C54.6222 5.54619 55.1783 4.95386 55.8984 4.53199C56.6229 4.10585 57.4815 3.89278 58.4744 3.89278C59.4673 3.89278 60.3239 4.10585 61.044 4.53199C61.7685 4.95386 62.3267 5.54619 62.7188 6.30898C63.1108 7.0675 63.3068 7.95386 63.3068 8.96807C63.3068 9.97375 63.1108 10.858 62.7188 11.6208C62.3267 12.3793 61.7685 12.9716 61.044 13.3978C60.3239 13.8196 59.4673 14.0306 58.4744 14.0306ZM58.4872 11.9212C58.9389 11.9212 59.3161 11.7934 59.6186 11.5377C59.9212 11.2777 60.1491 10.924 60.3026 10.4766C60.4602 10.0291 60.5391 9.51991 60.5391 8.94889C60.5391 8.37787 60.4602 7.86864 60.3026 7.42119C60.1491 6.97375 59.9212 6.62006 59.6186 6.36011C59.3161 6.10017 58.9389 5.9702 58.4872 5.9702C58.0313 5.9702 57.6477 6.10017 57.3366 6.36011C57.0298 6.62006 56.7976 6.97375 56.6399 7.42119C56.4865 7.86864 56.4098 8.37787 56.4098 8.94889C56.4098 9.51991 56.4865 10.0291 56.6399 10.4766C56.7976 10.924 57.0298 11.2777 57.3366 11.5377C57.6477 11.7934 58.0313 11.9212 58.4872 11.9212ZM70.2997 4.02062V6.06608H64.3871V4.02062H70.2997ZM65.7294 1.66835H68.4524V10.8218C68.4524 11.0732 68.4908 11.2692 68.5675 11.4098C68.6442 11.5462 68.7507 11.6421 68.8871 11.6975C69.0277 11.7529 69.1896 11.7806 69.3729 11.7806C69.5007 11.7806 69.6286 11.7699 69.7564 11.7486C69.8842 11.723 69.9822 11.7039 70.0504 11.6911L70.4787 13.7174C70.3423 13.76 70.1506 13.809 69.9034 13.8644C69.6563 13.924 69.3558 13.9603 69.0021 13.973C68.3459 13.9986 67.7706 13.9112 67.2763 13.711C66.7862 13.5107 66.4048 13.1996 66.1321 12.7777C65.8594 12.3559 65.7251 11.8232 65.7294 11.1797V1.66835ZM76.2395 17.5206V4.02062H78.9242V5.66977H79.0456C79.165 5.40557 79.3375 5.1371 79.5634 4.86437C79.7935 4.58739 80.0918 4.35727 80.4583 4.17403C80.829 3.98653 81.2892 3.89278 81.839 3.89278C82.5549 3.89278 83.2154 4.08028 83.8205 4.45528C84.4256 4.82602 84.9093 5.38639 85.2715 6.13639C85.6337 6.88213 85.8148 7.8175 85.8148 8.9425C85.8148 10.0377 85.638 10.9624 85.2843 11.7166C84.9348 12.4666 84.4576 13.0355 83.8525 13.4233C83.2516 13.8068 82.5783 13.9986 81.8326 13.9986C81.3042 13.9986 80.8546 13.9112 80.4838 13.7365C80.1174 13.5618 79.8169 13.3424 79.5826 13.0782C79.3482 12.8097 79.1692 12.5391 79.0456 12.2664H78.9625V17.5206H76.2395ZM78.905 8.92972C78.905 9.51352 78.986 10.0228 79.1479 10.4574C79.3098 10.8921 79.5442 11.2309 79.851 11.4737C80.1578 11.7124 80.5307 11.8317 80.9696 11.8317C81.4128 11.8317 81.7878 11.7103 82.0946 11.4674C82.4015 11.2202 82.6337 10.8793 82.7914 10.4446C82.9533 10.0057 83.0343 9.50074 83.0343 8.92972C83.0343 8.36295 82.9554 7.86437 82.7978 7.43398C82.6401 7.00358 82.4078 6.66693 82.101 6.42403C81.7942 6.18114 81.4171 6.05969 80.9696 6.05969C80.5265 6.05969 80.1515 6.17687 79.8446 6.41125C79.5421 6.64562 79.3098 6.97801 79.1479 7.40841C78.986 7.83881 78.905 8.34591 78.905 8.92972ZM90.4299 14.0242C89.8034 14.0242 89.2452 13.9155 88.7552 13.6982C88.2651 13.4766 87.8773 13.1506 87.5918 12.7202C87.3105 12.2855 87.1699 11.7443 87.1699 11.0966C87.1699 10.5512 87.2701 10.0931 87.4703 9.72233C87.6706 9.35159 87.9434 9.05329 88.2885 8.82744C88.6337 8.60159 89.0257 8.43114 89.4647 8.31608C89.9078 8.20102 90.3723 8.12006 90.8581 8.07318C91.4292 8.01352 91.8894 7.95812 92.2388 7.90699C92.5882 7.85159 92.8418 7.77062 92.9995 7.66409C93.1571 7.55756 93.236 7.39989 93.236 7.19108V7.15273C93.236 6.7479 93.1081 6.43469 92.8525 6.2131C92.601 5.9915 92.2431 5.88071 91.7786 5.88071C91.2885 5.88071 90.8986 5.98937 90.6088 6.2067C90.3191 6.41977 90.1273 6.68824 90.0336 7.0121L87.5151 6.80756C87.6429 6.21096 87.8944 5.69534 88.2694 5.26068C88.6444 4.82176 89.128 4.48511 89.7203 4.25074C90.3169 4.0121 91.0073 3.89278 91.7914 3.89278C92.3368 3.89278 92.8588 3.9567 93.3574 4.08454C93.8603 4.21239 94.3056 4.41054 94.6934 4.679C95.0854 4.94747 95.3944 5.29264 95.6202 5.71452C95.8461 6.13213 95.959 6.63284 95.959 7.21665V13.8388H93.3766V12.4773H93.2999C93.1422 12.7841 92.9313 13.0547 92.6671 13.2891C92.4029 13.5192 92.0854 13.7003 91.7147 13.8324C91.3439 13.9603 90.9157 14.0242 90.4299 14.0242ZM91.2097 12.1449C91.6103 12.1449 91.964 12.0661 92.2708 11.9084C92.5776 11.7465 92.8184 11.5291 92.9931 11.2564C93.1678 10.9837 93.2552 10.6747 93.2552 10.3296V9.28767C93.1699 9.34307 93.0527 9.3942 92.9036 9.44108C92.7587 9.48369 92.5946 9.52418 92.4114 9.56253C92.2282 9.59662 92.0449 9.62858 91.8617 9.65841C91.6784 9.68398 91.5123 9.70741 91.3631 9.72872C91.0435 9.7756 90.7644 9.85017 90.5257 9.95244C90.2871 10.0547 90.1017 10.1932 89.9696 10.3679C89.8375 10.5384 89.7715 10.7514 89.7715 11.0071C89.7715 11.3779 89.9057 11.6612 90.1742 11.8573C90.4469 12.049 90.7921 12.1449 91.2097 12.1449ZM98.0716 13.8388V4.02062H100.711V5.73369H100.814C100.993 5.12432 101.293 4.66409 101.715 4.35301C102.137 4.03767 102.623 3.88 103.172 3.88C103.309 3.88 103.456 3.88852 103.613 3.90557C103.771 3.92261 103.91 3.94605 104.029 3.97588V6.39207C103.901 6.35372 103.724 6.31963 103.498 6.2898C103.273 6.25997 103.066 6.24506 102.878 6.24506C102.478 6.24506 102.12 6.33241 101.805 6.50713C101.493 6.67758 101.246 6.91622 101.063 7.22304C100.884 7.52986 100.795 7.88355 100.795 8.28412V13.8388H98.0716ZM107.955 14.0242C107.329 14.0242 106.771 13.9155 106.281 13.6982C105.79 13.4766 105.403 13.1506 105.117 12.7202C104.836 12.2855 104.695 11.7443 104.695 11.0966C104.695 10.5512 104.795 10.0931 104.996 9.72233C105.196 9.35159 105.469 9.05329 105.814 8.82744C106.159 8.60159 106.551 8.43114 106.99 8.31608C107.433 8.20102 107.898 8.12006 108.384 8.07318C108.955 8.01352 109.415 7.95812 109.764 7.90699C110.114 7.85159 110.367 7.77062 110.525 7.66409C110.683 7.55756 110.761 7.39989 110.761 7.19108V7.15273C110.761 6.7479 110.634 6.43469 110.378 6.2131C110.126 5.9915 109.768 5.88071 109.304 5.88071C108.814 5.88071 108.424 5.98937 108.134 6.2067C107.844 6.41977 107.653 6.68824 107.559 7.0121L105.04 6.80756C105.168 6.21096 105.42 5.69534 105.795 5.26068C106.17 4.82176 106.653 4.48511 107.246 4.25074C107.842 4.0121 108.533 3.89278 109.317 3.89278C109.862 3.89278 110.384 3.9567 110.883 4.08454C111.386 4.21239 111.831 4.41054 112.219 4.679C112.611 4.94747 112.92 5.29264 113.146 5.71452C113.371 6.13213 113.484 6.63284 113.484 7.21665V13.8388H110.902V12.4773H110.825C110.668 12.7841 110.457 13.0547 110.192 13.2891C109.928 13.5192 109.611 13.7003 109.24 13.8324C108.869 13.9603 108.441 14.0242 107.955 14.0242ZM108.735 12.1449C109.136 12.1449 109.489 12.0661 109.796 11.9084C110.103 11.7465 110.344 11.5291 110.518 11.2564C110.693 10.9837 110.781 10.6747 110.781 10.3296V9.28767C110.695 9.34307 110.578 9.3942 110.429 9.44108C110.284 9.48369 110.12 9.52418 109.937 9.56253C109.754 9.59662 109.57 9.62858 109.387 9.65841C109.204 9.68398 109.038 9.70741 108.888 9.72872C108.569 9.7756 108.29 9.85017 108.051 9.95244C107.813 10.0547 107.627 10.1932 107.495 10.3679C107.363 10.5384 107.297 10.7514 107.297 11.0071C107.297 11.3779 107.431 11.6612 107.7 11.8573C107.972 12.049 108.317 12.1449 108.735 12.1449ZM122.563 14.0242C121.936 14.0242 121.378 13.9155 120.888 13.6982C120.398 13.4766 120.01 13.1506 119.725 12.7202C119.443 12.2855 119.303 11.7443 119.303 11.0966C119.303 10.5512 119.403 10.0931 119.603 9.72233C119.803 9.35159 120.076 9.05329 120.421 8.82744C120.767 8.60159 121.159 8.43114 121.597 8.31608C122.041 8.20102 122.505 8.12006 122.991 8.07318C123.562 8.01352 124.022 7.95812 124.372 7.90699C124.721 7.85159 124.975 7.77062 125.132 7.66409C125.29 7.55756 125.369 7.39989 125.369 7.19108V7.15273C125.369 6.7479 125.241 6.43469 124.985 6.2131C124.734 5.9915 124.376 5.88071 123.911 5.88071C123.421 5.88071 123.031 5.98937 122.742 6.2067C122.452 6.41977 122.26 6.68824 122.166 7.0121L119.648 6.80756C119.776 6.21096 120.027 5.69534 120.402 5.26068C120.777 4.82176 121.261 4.48511 121.853 4.25074C122.45 4.0121 123.14 3.89278 123.924 3.89278C124.47 3.89278 124.992 3.9567 125.49 4.08454C125.993 4.21239 126.438 4.41054 126.826 4.679C127.218 4.94747 127.527 5.29264 127.753 5.71452C127.979 6.13213 128.092 6.63284 128.092 7.21665V13.8388H125.509V12.4773H125.433C125.275 12.7841 125.064 13.0547 124.8 13.2891C124.536 13.5192 124.218 13.7003 123.847 13.8324C123.477 13.9603 123.048 14.0242 122.563 14.0242ZM123.343 12.1449C123.743 12.1449 124.097 12.0661 124.404 11.9084C124.71 11.7465 124.951 11.5291 125.126 11.2564C125.301 10.9837 125.388 10.6747 125.388 10.3296V9.28767C125.303 9.34307 125.186 9.3942 125.036 9.44108C124.892 9.48369 124.727 9.52418 124.544 9.56253C124.361 9.59662 124.178 9.62858 123.994 9.65841C123.811 9.68398 123.645 9.70741 123.496 9.72872C123.176 9.7756 122.897 9.85017 122.659 9.95244C122.42 10.0547 122.235 10.1932 122.102 10.3679C121.97 10.5384 121.904 10.7514 121.904 11.0071C121.904 11.3779 122.039 11.6612 122.307 11.8573C122.58 12.049 122.925 12.1449 123.343 12.1449ZM134.628 17.7252C133.746 17.7252 132.989 17.6037 132.358 17.3608C131.732 17.1222 131.233 16.7962 130.863 16.3828C130.492 15.9695 130.251 15.505 130.14 14.9894L132.659 14.6506C132.736 14.8466 132.857 15.0299 133.023 15.2003C133.189 15.3708 133.409 15.5071 133.682 15.6094C133.959 15.7159 134.295 15.7692 134.692 15.7692C135.284 15.7692 135.772 15.6243 136.155 15.3345C136.543 15.049 136.737 14.5696 136.737 13.8963V12.1002H136.622C136.503 12.3729 136.324 12.6307 136.085 12.8736C135.846 13.1165 135.54 13.3147 135.165 13.4681C134.79 13.6215 134.342 13.6982 133.822 13.6982C133.085 13.6982 132.414 13.5277 131.809 13.1868C131.208 12.8416 130.729 12.3154 130.371 11.608C130.017 10.8963 129.84 9.99719 129.84 8.91054C129.84 7.79832 130.021 6.86935 130.383 6.12361C130.746 5.37787 131.227 4.81963 131.828 4.44889C132.433 4.07815 133.096 3.89278 133.816 3.89278C134.366 3.89278 134.826 3.98653 135.197 4.17403C135.567 4.35727 135.866 4.58739 136.091 4.86437C136.322 5.1371 136.498 5.40557 136.622 5.66977H136.724V4.02062H139.428V13.9347C139.428 14.7699 139.224 15.4688 138.814 16.0313C138.405 16.5938 137.839 17.0157 137.114 17.2969C136.394 17.5824 135.565 17.7252 134.628 17.7252ZM134.685 11.6527C135.124 11.6527 135.495 11.5441 135.797 11.3267C136.104 11.1051 136.339 10.7898 136.501 10.3807C136.667 9.96736 136.75 9.47304 136.75 8.89775C136.75 8.32247 136.669 7.82389 136.507 7.40202C136.345 6.97588 136.111 6.64562 135.804 6.41125C135.497 6.17687 135.124 6.05969 134.685 6.05969C134.238 6.05969 133.861 6.18114 133.554 6.42403C133.247 6.66267 133.015 6.99506 132.857 7.42119C132.699 7.84733 132.621 8.33952 132.621 8.89775C132.621 9.46452 132.699 9.95457 132.857 10.3679C133.019 10.777 133.251 11.0945 133.554 11.3203C133.861 11.5419 134.238 11.6527 134.685 11.6527ZM141.595 13.8388V4.02062H144.318V13.8388H141.595ZM142.963 2.755C142.558 2.755 142.211 2.62077 141.921 2.3523C141.635 2.07957 141.493 1.75358 141.493 1.37432C141.493 0.999317 141.635 0.677584 141.921 0.409119C142.211 0.136391 142.558 2.70605e-05 142.963 2.70605e-05C143.368 2.70605e-05 143.713 0.136391 143.998 0.409119C144.288 0.677584 144.433 0.999317 144.433 1.37432C144.433 1.75358 144.288 2.07957 143.998 2.3523C143.713 2.62077 143.368 2.755 142.963 2.755ZM149.222 0.747897V13.8388H146.499V0.747897H149.222ZM151.404 13.8388V4.02062H154.127V13.8388H151.404ZM152.771 2.755C152.367 2.755 152.019 2.62077 151.73 2.3523C151.444 2.07957 151.301 1.75358 151.301 1.37432C151.301 0.999317 151.444 0.677584 151.73 0.409119C152.019 0.136391 152.367 2.70605e-05 152.771 2.70605e-05C153.176 2.70605e-05 153.521 0.136391 153.807 0.409119C154.097 0.677584 154.242 0.999317 154.242 1.37432C154.242 1.75358 154.097 2.07957 153.807 2.3523C153.521 2.62077 153.176 2.755 152.771 2.755ZM156.257 13.8388V12.2152L161.064 6.26423V6.19392H156.423V4.02062H164.343V5.79122L159.83 11.5952V11.6655H164.509V13.8388H156.257ZM169.391 14.0242C168.764 14.0242 168.206 13.9155 167.716 13.6982C167.226 13.4766 166.838 13.1506 166.553 12.7202C166.271 12.2855 166.131 11.7443 166.131 11.0966C166.131 10.5512 166.231 10.0931 166.431 9.72233C166.632 9.35159 166.904 9.05329 167.249 8.82744C167.595 8.60159 167.987 8.43114 168.426 8.31608C168.869 8.20102 169.333 8.12006 169.819 8.07318C170.39 8.01352 170.85 7.95812 171.2 7.90699C171.549 7.85159 171.803 7.77062 171.96 7.66409C172.118 7.55756 172.197 7.39989 172.197 7.19108V7.15273C172.197 6.7479 172.069 6.43469 171.813 6.2131C171.562 5.9915 171.204 5.88071 170.74 5.88071C170.249 5.88071 169.86 5.98937 169.57 6.2067C169.28 6.41977 169.088 6.68824 168.994 7.0121L166.476 6.80756C166.604 6.21096 166.855 5.69534 167.23 5.26068C167.605 4.82176 168.089 4.48511 168.681 4.25074C169.278 4.0121 169.968 3.89278 170.752 3.89278C171.298 3.89278 171.82 3.9567 172.318 4.08454C172.821 4.21239 173.267 4.41054 173.654 4.679C174.046 4.94747 174.355 5.29264 174.581 5.71452C174.807 6.13213 174.92 6.63284 174.92 7.21665V13.8388H172.338V12.4773H172.261C172.103 12.7841 171.892 13.0547 171.628 13.2891C171.364 13.5192 171.046 13.7003 170.676 13.8324C170.305 13.9603 169.877 14.0242 169.391 14.0242ZM170.171 12.1449C170.571 12.1449 170.925 12.0661 171.232 11.9084C171.539 11.7465 171.779 11.5291 171.954 11.2564C172.129 10.9837 172.216 10.6747 172.216 10.3296V9.28767C172.131 9.34307 172.014 9.3942 171.865 9.44108C171.72 9.48369 171.556 9.52418 171.372 9.56253C171.189 9.59662 171.006 9.62858 170.823 9.65841C170.639 9.68398 170.473 9.70741 170.324 9.72872C170.004 9.7756 169.725 9.85017 169.487 9.95244C169.248 10.0547 169.063 10.1932 168.931 10.3679C168.798 10.5384 168.732 10.7514 168.732 11.0071C168.732 11.3779 168.867 11.6612 169.135 11.8573C169.408 12.049 169.753 12.1449 170.171 12.1449ZM177.032 13.8388V4.02062H179.672V5.73369H179.775C179.954 5.12432 180.254 4.66409 180.676 4.35301C181.098 4.03767 181.584 3.88 182.133 3.88C182.27 3.88 182.417 3.88852 182.574 3.90557C182.732 3.92261 182.871 3.94605 182.99 3.97588V6.39207C182.862 6.35372 182.685 6.31963 182.459 6.2898C182.233 6.25997 182.027 6.24506 181.839 6.24506C181.439 6.24506 181.081 6.33241 180.765 6.50713C180.454 6.67758 180.207 6.91622 180.024 7.22304C179.845 7.52986 179.756 7.88355 179.756 8.28412V13.8388H177.032ZM196.733 6.82034L194.24 6.97375C194.197 6.76068 194.106 6.56892 193.965 6.39847C193.824 6.22375 193.639 6.08525 193.409 5.98298C193.183 5.87645 192.912 5.82318 192.597 5.82318C192.175 5.82318 191.819 5.91267 191.53 6.09165C191.24 6.26636 191.095 6.50074 191.095 6.79477C191.095 7.02915 191.189 7.2273 191.376 7.38923C191.564 7.55116 191.885 7.68114 192.341 7.77915L194.118 8.1371C195.073 8.33312 195.785 8.64846 196.253 9.08312C196.722 9.51778 196.957 10.0888 196.957 10.7962C196.957 11.4397 196.767 12.0043 196.388 12.4901C196.013 12.9759 195.497 13.3551 194.841 13.6279C194.189 13.8963 193.437 14.0306 192.584 14.0306C191.285 14.0306 190.249 13.76 189.478 13.2188C188.711 12.6733 188.261 11.9318 188.129 10.9943L190.807 10.8537C190.888 11.25 191.084 11.5526 191.395 11.7614C191.707 11.9659 192.105 12.0682 192.591 12.0682C193.068 12.0682 193.452 11.9766 193.741 11.7934C194.035 11.6059 194.184 11.3651 194.189 11.0711C194.184 10.8239 194.08 10.6215 193.876 10.4638C193.671 10.3019 193.356 10.1783 192.93 10.0931L191.229 9.75429C190.27 9.56253 189.557 9.23014 189.088 8.75713C188.623 8.28412 188.391 7.68114 188.391 6.94818C188.391 6.3175 188.562 5.77418 188.903 5.31821C189.248 4.86224 189.731 4.51068 190.354 4.26352C190.98 4.01636 191.713 3.89278 192.552 3.89278C193.792 3.89278 194.768 4.15486 195.48 4.679C196.196 5.20315 196.613 5.91693 196.733 6.82034ZM204.967 9.65841V4.02062H207.69V13.8388H205.076V12.0554H204.974C204.752 12.6307 204.384 13.0931 203.868 13.4425C203.357 13.7919 202.732 13.9666 201.995 13.9666C201.339 13.9666 200.761 13.8175 200.263 13.5192C199.764 13.2209 199.374 12.7969 199.093 12.2472C198.816 11.6975 198.675 11.0391 198.671 10.272V4.02062H201.394V9.78625C201.398 10.3658 201.554 10.8239 201.861 11.1605C202.168 11.4972 202.579 11.6655 203.094 11.6655C203.423 11.6655 203.729 11.5909 204.015 11.4418C204.3 11.2884 204.531 11.0625 204.705 10.7642C204.884 10.4659 204.972 10.0973 204.967 9.65841ZM212.668 14.0242C212.042 14.0242 211.483 13.9155 210.993 13.6982C210.503 13.4766 210.116 13.1506 209.83 12.7202C209.549 12.2855 209.408 11.7443 209.408 11.0966C209.408 10.5512 209.508 10.0931 209.709 9.72233C209.909 9.35159 210.182 9.05329 210.527 8.82744C210.872 8.60159 211.264 8.43114 211.703 8.31608C212.146 8.20102 212.611 8.12006 213.096 8.07318C213.667 8.01352 214.128 7.95812 214.477 7.90699C214.827 7.85159 215.08 7.77062 215.238 7.66409C215.395 7.55756 215.474 7.39989 215.474 7.19108V7.15273C215.474 6.7479 215.346 6.43469 215.091 6.2131C214.839 5.9915 214.481 5.88071 214.017 5.88071C213.527 5.88071 213.137 5.98937 212.847 6.2067C212.557 6.41977 212.366 6.68824 212.272 7.0121L209.753 6.80756C209.881 6.21096 210.133 5.69534 210.508 5.26068C210.883 4.82176 211.366 4.48511 211.959 4.25074C212.555 4.0121 213.246 3.89278 214.03 3.89278C214.575 3.89278 215.097 3.9567 215.596 4.08454C216.099 4.21239 216.544 4.41054 216.932 4.679C217.324 4.94747 217.633 5.29264 217.858 5.71452C218.084 6.13213 218.197 6.63284 218.197 7.21665V13.8388H215.615V12.4773H215.538C215.381 12.7841 215.17 13.0547 214.905 13.2891C214.641 13.5192 214.324 13.7003 213.953 13.8324C213.582 13.9603 213.154 14.0242 212.668 14.0242ZM213.448 12.1449C213.849 12.1449 214.202 12.0661 214.509 11.9084C214.816 11.7465 215.057 11.5291 215.231 11.2564C215.406 10.9837 215.493 10.6747 215.493 10.3296V9.28767C215.408 9.34307 215.291 9.3942 215.142 9.44108C214.997 9.48369 214.833 9.52418 214.65 9.56253C214.466 9.59662 214.283 9.62858 214.1 9.65841C213.917 9.68398 213.751 9.70741 213.601 9.72872C213.282 9.7756 213.003 9.85017 212.764 9.95244C212.525 10.0547 212.34 10.1932 212.208 10.3679C212.076 10.5384 212.01 10.7514 212.01 11.0071C212.01 11.3779 212.144 11.6612 212.412 11.8573C212.685 12.049 213.03 12.1449 213.448 12.1449ZM224.527 13.8388V0.747897H227.25V5.66977H227.333C227.452 5.40557 227.625 5.1371 227.851 4.86437C228.081 4.58739 228.379 4.35727 228.746 4.17403C229.116 3.98653 229.577 3.89278 230.126 3.89278C230.842 3.89278 231.503 4.08028 232.108 4.45528C232.713 4.82602 233.197 5.38639 233.559 6.13639C233.921 6.88213 234.102 7.8175 234.102 8.9425C234.102 10.0377 233.925 10.9624 233.572 11.7166C233.222 12.4666 232.745 13.0355 232.14 13.4233C231.539 13.8068 230.866 13.9986 230.12 13.9986C229.592 13.9986 229.142 13.9112 228.771 13.7365C228.405 13.5618 228.104 13.3424 227.87 13.0782C227.636 12.8097 227.457 12.5391 227.333 12.2664H227.212V13.8388H224.527ZM227.192 8.92972C227.192 9.51352 227.273 10.0228 227.435 10.4574C227.597 10.8921 227.832 11.2309 228.138 11.4737C228.445 11.7124 228.818 11.8317 229.257 11.8317C229.7 11.8317 230.075 11.7103 230.382 11.4674C230.689 11.2202 230.921 10.8793 231.079 10.4446C231.241 10.0057 231.322 9.50074 231.322 8.92972C231.322 8.36295 231.243 7.86437 231.085 7.43398C230.928 7.00358 230.695 6.66693 230.388 6.42403C230.082 6.18114 229.705 6.05969 229.257 6.05969C228.814 6.05969 228.439 6.17687 228.132 6.41125C227.83 6.64562 227.597 6.97801 227.435 7.40841C227.273 7.83881 227.192 8.34591 227.192 8.92972ZM242.215 9.65841V4.02062H244.938V13.8388H242.324V12.0554H242.222C242 12.6307 241.632 13.0931 241.116 13.4425C240.605 13.7919 239.98 13.9666 239.243 13.9666C238.587 13.9666 238.009 13.8175 237.511 13.5192C237.012 13.2209 236.622 12.7969 236.341 12.2472C236.064 11.6975 235.923 11.0391 235.919 10.272V4.02062H238.642V9.78625C238.646 10.3658 238.802 10.8239 239.109 11.1605C239.416 11.4972 239.827 11.6655 240.343 11.6655C240.671 11.6655 240.977 11.5909 241.263 11.4418C241.548 11.2884 241.779 11.0625 241.953 10.7642C242.132 10.4659 242.22 10.0973 242.215 9.65841ZM255.286 6.82034L252.793 6.97375C252.75 6.76068 252.658 6.56892 252.518 6.39847C252.377 6.22375 252.192 6.08525 251.962 5.98298C251.736 5.87645 251.465 5.82318 251.15 5.82318C250.728 5.82318 250.372 5.91267 250.082 6.09165C249.793 6.26636 249.648 6.50074 249.648 6.79477C249.648 7.02915 249.741 7.2273 249.929 7.38923C250.116 7.55116 250.438 7.68114 250.894 7.77915L252.671 8.1371C253.626 8.33312 254.337 8.64846 254.806 9.08312C255.275 9.51778 255.509 10.0888 255.509 10.7962C255.509 11.4397 255.32 12.0043 254.94 12.4901C254.565 12.9759 254.05 13.3551 253.393 13.6279C252.741 13.8963 251.989 14.0306 251.137 14.0306C249.837 14.0306 248.802 13.76 248.031 13.2188C247.263 12.6733 246.814 11.9318 246.682 10.9943L249.36 10.8537C249.441 11.25 249.637 11.5526 249.948 11.7614C250.259 11.9659 250.658 12.0682 251.143 12.0682C251.621 12.0682 252.004 11.9766 252.294 11.7934C252.588 11.6059 252.737 11.3651 252.741 11.0711C252.737 10.8239 252.633 10.6215 252.428 10.4638C252.224 10.3019 251.908 10.1783 251.482 10.0931L249.782 9.75429C248.823 9.56253 248.109 9.23014 247.641 8.75713C247.176 8.28412 246.944 7.68114 246.944 6.94818C246.944 6.3175 247.114 5.77418 247.455 5.31821C247.8 4.86224 248.284 4.51068 248.906 4.26352C249.533 4.01636 250.266 3.89278 251.105 3.89278C252.345 3.89278 253.321 4.15486 254.033 4.679C254.749 5.20315 255.166 5.91693 255.286 6.82034ZM261.66 14.0306C260.654 14.0306 259.789 13.8175 259.065 13.3914C258.345 12.961 257.791 12.3644 257.403 11.6016C257.019 10.8388 256.828 9.96097 256.828 8.96807C256.828 7.96239 257.021 7.08028 257.409 6.32176C257.801 5.55898 258.357 4.96452 259.078 4.53838C259.798 4.10798 260.654 3.89278 261.647 3.89278C262.504 3.89278 263.254 4.04832 263.897 4.3594C264.541 4.67048 265.05 5.10727 265.425 5.66977C265.8 6.23227 266.007 6.89278 266.045 7.65131H263.475C263.403 7.16125 263.211 6.76707 262.9 6.46878C262.593 6.16622 262.191 6.01494 261.692 6.01494C261.27 6.01494 260.901 6.13 260.586 6.36011C260.275 6.58597 260.032 6.91622 259.857 7.35088C259.683 7.78554 259.595 8.31182 259.595 8.92972C259.595 9.55614 259.681 10.0888 259.851 10.5277C260.026 10.9666 260.271 11.3012 260.586 11.5313C260.901 11.7614 261.27 11.8764 261.692 11.8764C262.003 11.8764 262.282 11.8125 262.529 11.6847C262.781 11.5568 262.987 11.3715 263.149 11.1286C263.316 10.8814 263.424 10.5853 263.475 10.2401H266.045C266.002 10.9901 265.798 11.6506 265.431 12.2216C265.069 12.7884 264.568 13.2316 263.929 13.5512C263.29 13.8708 262.534 14.0306 261.66 14.0306ZM270.588 14.0242C269.962 14.0242 269.403 13.9155 268.913 13.6982C268.423 13.4766 268.036 13.1506 267.75 12.7202C267.469 12.2855 267.328 11.7443 267.328 11.0966C267.328 10.5512 267.428 10.0931 267.629 9.72233C267.829 9.35159 268.102 9.05329 268.447 8.82744C268.792 8.60159 269.184 8.43114 269.623 8.31608C270.066 8.20102 270.531 8.12006 271.016 8.07318C271.587 8.01352 272.048 7.95812 272.397 7.90699C272.746 7.85159 273 7.77062 273.158 7.66409C273.315 7.55756 273.394 7.39989 273.394 7.19108V7.15273C273.394 6.7479 273.266 6.43469 273.011 6.2131C272.759 5.9915 272.401 5.88071 271.937 5.88071C271.447 5.88071 271.057 5.98937 270.767 6.2067C270.477 6.41977 270.286 6.68824 270.192 7.0121L267.673 6.80756C267.801 6.21096 268.053 5.69534 268.428 5.26068C268.803 4.82176 269.286 4.48511 269.879 4.25074C270.475 4.0121 271.165 3.89278 271.95 3.89278C272.495 3.89278 273.017 3.9567 273.516 4.08454C274.018 4.21239 274.464 4.41054 274.852 4.679C275.244 4.94747 275.553 5.29264 275.778 5.71452C276.004 6.13213 276.117 6.63284 276.117 7.21665V13.8388H273.535V12.4773H273.458C273.3 12.7841 273.089 13.0547 272.825 13.2891C272.561 13.5192 272.244 13.7003 271.873 13.8324C271.502 13.9603 271.074 14.0242 270.588 14.0242ZM271.368 12.1449C271.768 12.1449 272.122 12.0661 272.429 11.9084C272.736 11.7465 272.977 11.5291 273.151 11.2564C273.326 10.9837 273.413 10.6747 273.413 10.3296V9.28767C273.328 9.34307 273.211 9.3942 273.062 9.44108C272.917 9.48369 272.753 9.52418 272.57 9.56253C272.386 9.59662 272.203 9.62858 272.02 9.65841C271.837 9.68398 271.67 9.70741 271.521 9.72872C271.202 9.7756 270.923 9.85017 270.684 9.95244C270.445 10.0547 270.26 10.1932 270.128 10.3679C269.996 10.5384 269.93 10.7514 269.93 11.0071C269.93 11.3779 270.064 11.6612 270.332 11.8573C270.605 12.049 270.95 12.1449 271.368 12.1449Z" fill="black"/>
</svg>
