<svg width="287" height="34" viewBox="0 0 287 34" fill="none" xmlns="http://www.w3.org/2000/svg">
<path d="M12.76 33.44C10.4933 33.44 8.38667 32.9067 6.44 31.84C4.49333 30.7733 2.93333 29.16 1.76 27C0.586667 24.8133 1.49012e-08 22.08 1.49012e-08 18.8C1.49012e-08 15.6533 0.52 13.0267 1.56 10.92C2.62667 8.81334 4.09333 7.22667 5.96 6.16C7.85333 5.06667 10.04 4.52 12.52 4.52C13.1067 4.52 13.7733 4.6 14.52 4.76C15.2667 4.92 15.92 5.13334 16.48 5.4C16.7467 5.26667 17.1067 5.14667 17.56 5.04C18.0133 4.90667 18.4667 4.78667 18.92 4.68C19.4 4.57334 19.7733 4.52 20.04 4.52C20.3867 5.37334 20.64 6.38667 20.8 7.56C20.96 8.70667 21.0667 9.85334 21.12 11C21.1733 12.12 21.2 13.08 21.2 13.88H16.68C16.4667 12.1467 15.9867 10.7333 15.24 9.64C14.52 8.54667 13.5733 8 12.4 8C10.8533 8 9.57333 8.73334 8.56 10.2C7.57333 11.6667 7.08 14.0667 7.08 17.4C7.08 20.1467 7.45333 22.3467 8.2 24C8.94667 25.6267 9.93333 26.8 11.16 27.52C12.3867 28.2133 13.7067 28.56 15.12 28.56C16.3467 28.56 17.3867 28.3333 18.24 27.88C19.0933 27.4 19.6933 26.9067 20.04 26.4C20.3867 26.64 20.6533 27.0133 20.84 27.52C21.0533 28 21.16 28.4267 21.16 28.8C21.16 29.4133 20.8267 30.0933 20.16 30.84C19.52 31.56 18.5733 32.1733 17.32 32.68C16.0933 33.1867 14.5733 33.44 12.76 33.44ZM32.0275 33.4C30.1342 33.4 28.4542 33 26.9875 32.2C25.5208 31.3733 24.3742 30.1733 23.5475 28.6C22.7475 27 22.3475 25.0267 22.3475 22.68C22.3475 20.1733 22.7742 18.0667 23.6275 16.36C24.4808 14.6533 25.6675 13.36 27.1875 12.48C28.7075 11.6 30.4542 11.16 32.4275 11.16C34.3475 11.16 36.0275 11.5733 37.4675 12.4C38.9342 13.2267 40.0675 14.4533 40.8675 16.08C41.6942 17.68 42.1075 19.6667 42.1075 22.04C42.1075 24.52 41.6808 26.6133 40.8275 28.32C39.9742 30 38.7875 31.2667 37.2675 32.12C35.7475 32.9733 34.0008 33.4 32.0275 33.4ZM32.3475 30.52C32.9075 30.52 33.3875 30.32 33.7875 29.92C34.2142 29.52 34.5342 28.7867 34.7475 27.72C34.9875 26.6267 35.1075 25.0533 35.1075 23C35.1075 20.4933 34.9875 18.6 34.7475 17.32C34.5075 16.0133 34.1608 15.1333 33.7075 14.68C33.2542 14.2267 32.7208 14 32.1075 14C31.5475 14 31.0542 14.2 30.6275 14.6C30.2008 15 29.8675 15.7467 29.6275 16.84C29.4142 17.9333 29.3075 19.52 29.3075 21.6C29.3075 24.08 29.4275 25.96 29.6675 27.24C29.9342 28.52 30.2942 29.3867 30.7475 29.84C31.2008 30.2933 31.7342 30.52 32.3475 30.52ZM73.6616 33.12C72.6749 33.12 71.8216 32.9867 71.1016 32.72C70.4082 32.4267 70.0616 31.8667 70.0616 31.04V17.72C70.0616 16.8667 69.8216 16.2133 69.3416 15.76C68.8882 15.28 68.2749 15.04 67.5016 15.04C67.0749 15.04 66.6349 15.12 66.1816 15.28C65.7549 15.44 65.3682 15.68 65.0216 16C65.0482 16.1067 65.0616 16.2133 65.0616 16.32C65.0616 16.4 65.0616 16.4933 65.0616 16.6V28.56C65.0616 29.3333 65.2216 29.8933 65.5416 30.24C65.8616 30.56 66.3682 30.72 67.0616 30.72C67.0616 31.1467 66.9682 31.5467 66.7816 31.92C66.6216 32.2667 66.3949 32.5867 66.1016 32.88H57.5816C57.3149 32.5867 57.0882 32.2667 56.9016 31.92C56.7416 31.5467 56.6616 31.1467 56.6616 30.72C57.3549 30.72 57.8349 30.56 58.1016 30.24C58.3949 29.8933 58.5416 29.3333 58.5416 28.56V17.72C58.5416 16.8667 58.2882 16.2133 57.7816 15.76C57.3016 15.28 56.7149 15.04 56.0216 15.04C55.5149 15.04 54.9949 15.16 54.4616 15.4C53.9282 15.64 53.4749 15.9867 53.1016 16.44V28.56C53.1016 29.3333 53.2349 29.8933 53.5016 30.24C53.7949 30.56 54.2749 30.72 54.9416 30.72C54.9416 31.5467 54.6216 32.2667 53.9816 32.88H45.3016C45.0082 32.5867 44.7682 32.2667 44.5816 31.92C44.4216 31.5467 44.3416 31.1467 44.3416 30.72C45.1416 30.72 45.7149 30.56 46.0616 30.24C46.4082 29.8933 46.5816 29.3333 46.5816 28.56V16.84C46.5816 16.1467 46.3816 15.64 45.9816 15.32C45.6082 15 44.9149 14.84 43.9016 14.84V13.08C44.5149 12.7067 45.2882 12.3733 46.2216 12.08C47.1816 11.7867 48.1016 11.56 48.9816 11.4C49.8882 11.2133 50.5816 11.12 51.0616 11.12C51.5949 11.12 52.0349 11.2933 52.3816 11.64C52.7549 11.96 52.9949 12.64 53.1016 13.68C53.7949 12.9067 54.6616 12.2933 55.7016 11.84C56.7682 11.36 57.9682 11.12 59.3016 11.12C61.9682 11.12 63.7016 12.0133 64.5016 13.8C65.1949 12.9467 66.0882 12.2933 67.1816 11.84C68.3016 11.36 69.5416 11.12 70.9016 11.12C72.8216 11.12 74.2482 11.5867 75.1816 12.52C76.1416 13.4533 76.6216 14.8133 76.6216 16.6V28.56C76.6216 29.1733 76.7949 29.64 77.1416 29.96C77.4882 30.28 77.9682 30.5067 78.5816 30.64V31.8C78.1016 32.2267 77.4749 32.56 76.7016 32.8C75.9282 33.0133 74.9149 33.12 73.6616 33.12ZM90.1916 33.4C88.2982 33.4 86.6182 33 85.1516 32.2C83.6849 31.3733 82.5382 30.1733 81.7116 28.6C80.9116 27 80.5116 25.0267 80.5116 22.68C80.5116 20.1733 80.9382 18.0667 81.7916 16.36C82.6449 14.6533 83.8316 13.36 85.3516 12.48C86.8716 11.6 88.6182 11.16 90.5916 11.16C92.5116 11.16 94.1916 11.5733 95.6316 12.4C97.0982 13.2267 98.2316 14.4533 99.0316 16.08C99.8582 17.68 100.272 19.6667 100.272 22.04C100.272 24.52 99.8449 26.6133 98.9916 28.32C98.1382 30 96.9516 31.2667 95.4316 32.12C93.9116 32.9733 92.1649 33.4 90.1916 33.4ZM90.5116 30.52C91.0716 30.52 91.5516 30.32 91.9516 29.92C92.3782 29.52 92.6982 28.7867 92.9116 27.72C93.1516 26.6267 93.2716 25.0533 93.2716 23C93.2716 20.4933 93.1516 18.6 92.9116 17.32C92.6716 16.0133 92.3249 15.1333 91.8716 14.68C91.4182 14.2267 90.8849 14 90.2716 14C89.7116 14 89.2182 14.2 88.7916 14.6C88.3649 15 88.0316 15.7467 87.7916 16.84C87.5782 17.9333 87.4716 19.52 87.4716 21.6C87.4716 24.08 87.5916 25.96 87.8316 27.24C88.0982 28.52 88.4582 29.3867 88.9116 29.84C89.3649 30.2933 89.8982 30.52 90.5116 30.52ZM111.239 32.88C110.626 32.2667 110.319 31.5467 110.319 30.72C111.119 30.72 111.679 30.5467 111.999 30.2C112.346 29.8533 112.519 29.2933 112.519 28.52V15.28H110.079V12.8C110.666 12.6667 111.132 12.5067 111.479 12.32C111.826 12.1333 112.146 11.9333 112.439 11.72C112.332 11.1067 112.252 10.5467 112.199 10.04C112.146 9.53334 112.119 8.94667 112.119 8.28C112.119 5.50667 112.852 3.44 114.319 2.08C115.786 0.693337 117.772 3.8147e-06 120.279 3.8147e-06C121.559 3.8147e-06 122.612 0.26667 123.439 0.800003C124.266 1.30667 124.879 1.93334 125.279 2.68C125.679 3.42667 125.879 4.13334 125.879 4.8C125.879 5.78667 125.612 6.61334 125.079 7.28C124.572 7.94667 123.879 8.28 122.999 8.28C122.199 8.28 121.492 8 120.879 7.44C120.266 6.85334 119.959 6.18667 119.959 5.44C119.959 5.12 120.026 4.76 120.159 4.36C120.292 3.93334 120.626 3.52 121.159 3.12C121.079 2.98667 120.932 2.88 120.719 2.8C120.532 2.69334 120.359 2.64 120.199 2.64C119.772 2.64 119.372 2.85334 118.999 3.28C118.626 3.68 118.319 4.21334 118.079 4.88C117.866 5.54667 117.759 6.25334 117.759 7C117.759 7.8 117.826 8.56 117.959 9.28C118.119 10 118.306 10.5867 118.519 11.04C118.732 11.4667 118.919 11.68 119.079 11.68H122.919C122.919 12.2667 122.879 12.9067 122.799 13.6C122.719 14.2667 122.532 14.8267 122.239 15.28H118.839V28.16C118.839 28.7467 118.932 29.24 119.119 29.64C119.306 30.0133 119.679 30.2933 120.239 30.48C120.799 30.64 121.626 30.72 122.719 30.72C122.719 31.5467 122.412 32.2667 121.799 32.88H111.239ZM132.093 33.16C130.226 33.16 128.773 32.5867 127.733 31.44C126.693 30.2933 126.173 28.7467 126.173 26.8V15.8C126.173 15.3467 126 15.0267 125.653 14.84C125.306 14.6533 124.826 14.56 124.213 14.56V12.8C124.56 12.5067 125.28 12.2 126.373 11.88C127.493 11.5333 128.746 11.36 130.133 11.36C131.173 11.36 131.853 11.48 132.173 11.72C132.52 11.96 132.693 12.5467 132.693 13.48V26.92C132.693 27.72 132.826 28.3333 133.093 28.76C133.36 29.1867 133.826 29.4 134.493 29.4C135.053 29.4 135.586 29.2267 136.093 28.88C136.626 28.5333 137.066 28.1333 137.413 27.68V15.8C137.413 15.3467 137.213 15.0267 136.813 14.84C136.413 14.6533 135.866 14.56 135.173 14.56V12.8C135.546 12.5067 136.28 12.2 137.373 11.88C138.466 11.5333 139.76 11.36 141.253 11.36C142.293 11.36 143 11.48 143.373 11.72C143.746 11.96 143.933 12.5467 143.933 13.48V28.2C143.933 28.84 144.093 29.3733 144.413 29.8C144.76 30.2267 145.24 30.4667 145.853 30.52V31.64C145.426 32.1467 144.746 32.5333 143.813 32.8C142.906 33.04 142.026 33.16 141.173 33.16C140.293 33.16 139.52 32.9333 138.853 32.48C138.213 32 137.786 31.32 137.573 30.44C136.266 32.2533 134.44 33.16 132.093 33.16ZM148.544 32.88C148.25 32.5867 148.01 32.2667 147.824 31.92C147.664 31.5733 147.584 31.1867 147.584 30.76C148.384 30.76 148.957 30.5867 149.304 30.24C149.65 29.8933 149.824 29.3333 149.824 28.56V16.88C149.824 16.1867 149.624 15.68 149.224 15.36C148.85 15.04 148.157 14.88 147.144 14.88V13.08C147.757 12.7333 148.53 12.4133 149.464 12.12C150.424 11.8267 151.344 11.6 152.224 11.44C153.13 11.2533 153.824 11.16 154.304 11.16C154.864 11.16 155.317 11.3333 155.664 11.68C156.037 12.0267 156.25 12.7733 156.304 13.92C156.97 13.0933 157.81 12.4267 158.824 11.92C159.864 11.4133 161.064 11.16 162.424 11.16C164.29 11.16 165.69 11.64 166.624 12.6C167.584 13.5333 168.064 15.1333 168.064 17.4V28.32C168.064 29.6267 168.704 30.4 169.984 30.64L170.024 31.8C169.757 32.0667 169.33 32.3067 168.744 32.52C168.157 32.7067 167.517 32.8533 166.824 32.96C166.157 33.0667 165.53 33.12 164.944 33.12C163.797 33.12 162.944 32.9067 162.384 32.48C161.85 32.0533 161.584 31.3733 161.584 30.44V17.96C161.584 16.8667 161.344 16.1067 160.864 15.68C160.384 15.2533 159.797 15.04 159.104 15.04C158.01 15.04 157.09 15.48 156.344 16.36V28.56C156.344 29.3333 156.504 29.8933 156.824 30.24C157.17 30.5867 157.744 30.76 158.544 30.76C158.544 31.56 158.237 32.2667 157.624 32.88H148.544ZM181.681 33.48C179.734 33.48 178.014 33.04 176.521 32.16C175.054 31.28 173.894 30.0267 173.041 28.4C172.214 26.7467 171.801 24.7733 171.801 22.48C171.801 20.1067 172.254 18.08 173.161 16.4C174.067 14.6933 175.307 13.4 176.881 12.52C178.454 11.6133 180.227 11.16 182.201 11.16C184.254 11.16 185.814 11.6533 186.881 12.64C187.947 13.6 188.481 14.7867 188.481 16.2C188.481 17.48 188.161 18.4667 187.521 19.16C186.881 19.8533 186.054 20.2 185.041 20.2C184.214 20.2 183.521 19.8933 182.961 19.28C182.401 18.6667 182.121 17.92 182.121 17.04C182.121 16.4 182.227 15.88 182.441 15.48C182.681 15.08 182.974 14.7467 183.321 14.48C183.054 14.32 182.827 14.2267 182.641 14.2C182.481 14.1467 182.321 14.12 182.161 14.12C181.654 14.12 181.134 14.32 180.601 14.72C180.067 15.12 179.614 15.8267 179.241 16.84C178.894 17.8533 178.721 19.2667 178.721 21.08C178.721 24.0133 179.147 26.08 180.001 27.28C180.854 28.4533 182.054 29.04 183.601 29.04C184.321 29.04 185.041 28.9333 185.761 28.72C186.507 28.5067 187.134 28.2 187.641 27.8C187.854 28.0667 188.027 28.4 188.161 28.8C188.321 29.1733 188.401 29.5067 188.401 29.8C188.401 30.36 188.094 30.9333 187.481 31.52C186.894 32.08 186.094 32.5467 185.081 32.92C184.067 33.2933 182.934 33.48 181.681 33.48ZM195.594 8.36C194.448 8.36 193.528 8.02667 192.834 7.36C192.168 6.66667 191.834 5.74667 191.834 4.6C191.834 3.48 192.181 2.57334 192.874 1.88C193.594 1.18667 194.528 0.840003 195.674 0.840003C196.848 0.840003 197.768 1.18667 198.434 1.88C199.128 2.57334 199.474 3.48 199.474 4.6C199.474 5.74667 199.114 6.66667 198.394 7.36C197.701 8.02667 196.768 8.36 195.594 8.36ZM191.114 32.88C190.821 32.5867 190.594 32.2667 190.434 31.92C190.274 31.5733 190.194 31.1733 190.194 30.72C190.968 30.72 191.541 30.56 191.914 30.24C192.288 29.8933 192.474 29.32 192.474 28.52V16.92C192.474 16.2267 192.301 15.7067 191.954 15.36C191.634 15.0133 190.928 14.84 189.834 14.84V13.08C190.234 12.84 190.848 12.5733 191.674 12.28C192.501 11.96 193.394 11.6933 194.354 11.48C195.341 11.2667 196.221 11.16 196.994 11.16C197.608 11.16 198.048 11.3067 198.314 11.6C198.581 11.8667 198.714 12.3333 198.714 13V28.56C198.714 29.36 198.914 29.92 199.314 30.24C199.714 30.56 200.301 30.72 201.074 30.72C201.074 31.1733 200.994 31.5733 200.834 31.92C200.674 32.2667 200.448 32.5867 200.154 32.88H191.114ZM212.418 33.4C210.525 33.4 208.845 33 207.378 32.2C205.911 31.3733 204.765 30.1733 203.938 28.6C203.138 27 202.738 25.0267 202.738 22.68C202.738 20.1733 203.165 18.0667 204.018 16.36C204.871 14.6533 206.058 13.36 207.578 12.48C209.098 11.6 210.845 11.16 212.818 11.16C214.738 11.16 216.418 11.5733 217.858 12.4C219.325 13.2267 220.458 14.4533 221.258 16.08C222.085 17.68 222.498 19.6667 222.498 22.04C222.498 24.52 222.071 26.6133 221.218 28.32C220.365 30 219.178 31.2667 217.658 32.12C216.138 32.9733 214.391 33.4 212.418 33.4ZM212.738 30.52C213.298 30.52 213.778 30.32 214.178 29.92C214.605 29.52 214.925 28.7867 215.138 27.72C215.378 26.6267 215.498 25.0533 215.498 23C215.498 20.4933 215.378 18.6 215.138 17.32C214.898 16.0133 214.551 15.1333 214.098 14.68C213.645 14.2267 213.111 14 212.498 14C211.938 14 211.445 14.2 211.018 14.6C210.591 15 210.258 15.7467 210.018 16.84C209.805 17.9333 209.698 19.52 209.698 21.6C209.698 24.08 209.818 25.96 210.058 27.24C210.325 28.52 210.685 29.3867 211.138 29.84C211.591 30.2933 212.125 30.52 212.738 30.52ZM225.692 32.88C225.399 32.5867 225.159 32.2667 224.972 31.92C224.812 31.5733 224.732 31.1867 224.732 30.76C225.532 30.76 226.106 30.5867 226.452 30.24C226.799 29.8933 226.972 29.3333 226.972 28.56V16.88C226.972 16.1867 226.772 15.68 226.372 15.36C225.999 15.04 225.306 14.88 224.292 14.88V13.08C224.906 12.7333 225.679 12.4133 226.612 12.12C227.572 11.8267 228.492 11.6 229.372 11.44C230.279 11.2533 230.972 11.16 231.452 11.16C232.012 11.16 232.466 11.3333 232.812 11.68C233.186 12.0267 233.399 12.7733 233.452 13.92C234.119 13.0933 234.959 12.4267 235.972 11.92C237.012 11.4133 238.212 11.16 239.572 11.16C241.439 11.16 242.839 11.64 243.772 12.6C244.732 13.5333 245.212 15.1333 245.212 17.4V28.32C245.212 29.6267 245.852 30.4 247.132 30.64L247.172 31.8C246.906 32.0667 246.479 32.3067 245.892 32.52C245.306 32.7067 244.666 32.8533 243.972 32.96C243.306 33.0667 242.679 33.12 242.092 33.12C240.946 33.12 240.092 32.9067 239.532 32.48C238.999 32.0533 238.732 31.3733 238.732 30.44V17.96C238.732 16.8667 238.492 16.1067 238.012 15.68C237.532 15.2533 236.946 15.04 236.252 15.04C235.159 15.04 234.239 15.48 233.492 16.36V28.56C233.492 29.3333 233.652 29.8933 233.972 30.24C234.319 30.5867 234.892 30.76 235.692 30.76C235.692 31.56 235.386 32.2667 234.772 32.88H225.692ZM255.467 33.16C253.467 33.16 251.841 32.6133 250.587 31.52C249.361 30.4 248.747 28.9733 248.747 27.24C248.747 25.5067 249.307 24.1067 250.427 23.04C251.574 21.9733 253.334 21.44 255.707 21.44C256.481 21.44 257.294 21.52 258.147 21.68C259.001 21.8133 259.694 22.0267 260.227 22.32V17C260.227 15.88 259.934 15.1067 259.347 14.68C258.787 14.2267 258.094 14 257.267 14C256.387 14 255.667 14.2133 255.107 14.64C255.641 14.8267 256.027 15.12 256.267 15.52C256.507 15.8933 256.627 16.3067 256.627 16.76C256.627 17.64 256.307 18.3467 255.667 18.88C255.054 19.3867 254.294 19.64 253.387 19.64C252.374 19.64 251.561 19.3467 250.947 18.76C250.334 18.1467 250.027 17.3867 250.027 16.48C250.027 15.5733 250.334 14.72 250.947 13.92C251.561 13.0933 252.507 12.4133 253.787 11.88C255.094 11.3467 256.774 11.08 258.827 11.08C264.187 11.08 266.867 13.2 266.867 17.44V28.04C266.867 29.32 267.481 30.0933 268.707 30.36V31.64C268.361 32.1467 267.774 32.5333 266.947 32.8C266.121 33.04 265.321 33.16 264.547 33.16C262.734 33.16 261.454 32.5333 260.707 31.28C260.174 31.76 259.467 32.2 258.587 32.6C257.707 32.9733 256.667 33.16 255.467 33.16ZM258.067 29.92C258.441 29.92 258.827 29.8667 259.227 29.76C259.627 29.6267 259.961 29.4667 260.227 29.28V25.4C259.961 25.2133 259.614 25.0533 259.187 24.92C258.787 24.7867 258.387 24.72 257.987 24.72C257.294 24.72 256.694 24.9467 256.187 25.4C255.681 25.8267 255.427 26.5067 255.427 27.44C255.427 28.16 255.667 28.76 256.147 29.24C256.627 29.6933 257.267 29.92 258.067 29.92ZM274.982 22.2L273.902 17.12C275.555 16.1067 276.942 14.92 278.062 13.56C279.209 12.1733 279.782 10.56 279.782 8.72C279.782 7.25334 279.422 6.2 278.702 5.56C278.009 4.92 277.155 4.6 276.142 4.6C275.315 4.6 274.555 4.78667 273.862 5.16C273.169 5.50667 272.622 6.01334 272.222 6.68C272.889 6.89334 273.502 7.28 274.062 7.84C274.622 8.4 274.902 9.10667 274.902 9.96C274.902 10.9467 274.542 11.76 273.822 12.4C273.102 13.0133 272.275 13.32 271.342 13.32C270.702 13.32 270.062 13.16 269.422 12.84C268.809 12.4933 268.289 12 267.862 11.36C267.435 10.6933 267.222 9.88 267.222 8.92C267.222 7.61334 267.635 6.4 268.462 5.28C269.289 4.16 270.462 3.25334 271.982 2.56C273.502 1.86667 275.302 1.52 277.382 1.52C279.302 1.52 280.969 1.82667 282.382 2.44C283.822 3.05334 284.929 3.90667 285.702 5C286.502 6.09334 286.902 7.34667 286.902 8.76C286.902 10.2267 286.502 11.5467 285.702 12.72C284.929 13.8933 283.875 14.92 282.542 15.8C281.209 16.68 279.715 17.4267 278.062 18.04L278.822 22.2H274.982ZM277.102 33.4C275.875 33.4 274.902 33.04 274.182 32.32C273.462 31.5733 273.102 30.6133 273.102 29.44C273.102 28.24 273.462 27.28 274.182 26.56C274.902 25.84 275.875 25.48 277.102 25.48C278.355 25.48 279.342 25.84 280.062 26.56C280.782 27.28 281.142 28.24 281.142 29.44C281.142 30.6133 280.782 31.5733 280.062 32.32C279.342 33.04 278.355 33.4 277.102 33.4Z" fill="black"/>
</svg>
