<svg width="288" height="16" viewBox="0 0 288 16" fill="none" xmlns="http://www.w3.org/2000/svg">
<path d="M9.8182 4.18188H8.40911C8.32577 3.77658 8.17994 3.42052 7.97161 3.1137C7.76706 2.80688 7.51706 2.54931 7.22161 2.34098C6.92994 2.12885 6.60608 1.96976 6.25002 1.8637C5.89396 1.75764 5.52274 1.70461 5.13638 1.70461C4.43184 1.70461 3.79358 1.88264 3.22161 2.2387C2.65343 2.59476 2.20077 3.11938 1.86365 3.81257C1.53032 4.50575 1.36365 5.35613 1.36365 6.3637C1.36365 7.37128 1.53032 8.22166 1.86365 8.91484C2.20077 9.60802 2.65343 10.1326 3.22161 10.4887C3.79358 10.8448 4.43184 11.0228 5.13638 11.0228C5.52274 11.0228 5.89396 10.9698 6.25002 10.8637C6.60608 10.7576 6.92994 10.6004 7.22161 10.3921C7.51706 10.18 7.76706 9.92052 7.97161 9.6137C8.17994 9.3031 8.32577 8.94704 8.40911 8.54552H9.8182C9.71214 9.14022 9.51896 9.67242 9.23865 10.1421C8.95835 10.6118 8.60987 11.0114 8.1932 11.341C7.77653 11.6667 7.30873 11.9148 6.78979 12.0853C6.27464 12.2557 5.7235 12.341 5.13638 12.341C4.14396 12.341 3.26138 12.0986 2.48865 11.6137C1.71593 11.1289 1.10797 10.4395 0.664789 9.54552C0.221608 8.65158 1.66893e-05 7.59098 1.66893e-05 6.3637C1.66893e-05 5.13643 0.221608 4.07582 0.664789 3.18188C1.10797 2.28795 1.71593 1.59855 2.48865 1.1137C3.26138 0.628854 4.14396 0.38643 5.13638 0.38643C5.7235 0.38643 6.27464 0.471657 6.78979 0.642112C7.30873 0.812566 7.77653 1.06257 8.1932 1.39211C8.60987 1.71787 8.95835 2.1156 9.23865 2.58529C9.51896 3.0512 9.71214 3.5834 9.8182 4.18188ZM15.4588 12.3637C14.6709 12.3637 13.9797 12.1762 13.385 11.8012C12.7941 11.4262 12.3319 10.9016 11.9986 10.2273C11.6691 9.5531 11.5043 8.76522 11.5043 7.8637C11.5043 6.95461 11.6691 6.16105 11.9986 5.48302C12.3319 4.80499 12.7941 4.27848 13.385 3.90348C13.9797 3.52848 14.6709 3.34098 15.4588 3.34098C16.2467 3.34098 16.9361 3.52848 17.527 3.90348C18.1217 4.27848 18.5838 4.80499 18.9134 5.48302C19.2467 6.16105 19.4134 6.95461 19.4134 7.8637C19.4134 8.76522 19.2467 9.5531 18.9134 10.2273C18.5838 10.9016 18.1217 11.4262 17.527 11.8012C16.9361 12.1762 16.2467 12.3637 15.4588 12.3637ZM15.4588 11.1592C16.0573 11.1592 16.5497 11.0057 16.9361 10.6989C17.3225 10.3921 17.6084 9.9887 17.7941 9.4887C17.9797 8.9887 18.0725 8.44704 18.0725 7.8637C18.0725 7.28037 17.9797 6.73681 17.7941 6.23302C17.6084 5.72923 17.3225 5.32204 16.9361 5.01143C16.5497 4.70082 16.0573 4.54552 15.4588 4.54552C14.8603 4.54552 14.3679 4.70082 13.9816 5.01143C13.5952 5.32204 13.3092 5.72923 13.1236 6.23302C12.938 6.73681 12.8452 7.28037 12.8452 7.8637C12.8452 8.44704 12.938 8.9887 13.1236 9.4887C13.3092 9.9887 13.5952 10.3921 13.9816 10.6989C14.3679 11.0057 14.8603 11.1592 15.4588 11.1592ZM21.4602 12.1819V3.45461H22.7557V4.81825H22.8693C23.0512 4.35234 23.3447 3.9906 23.75 3.73302C24.1553 3.47166 24.6421 3.34098 25.2102 3.34098C25.786 3.34098 26.2652 3.47166 26.6477 3.73302C27.0341 3.9906 27.3352 4.35234 27.5512 4.81825H27.6421C27.8655 4.36749 28.2008 4.00954 28.6477 3.74438C29.0947 3.47545 29.6307 3.34098 30.2557 3.34098C31.036 3.34098 31.6743 3.58529 32.1705 4.07393C32.6667 4.55878 32.9148 5.31446 32.9148 6.34098V12.1819H31.5739V6.34098C31.5739 5.69704 31.3977 5.23681 31.0455 4.96029C30.6932 4.68378 30.2784 4.54552 29.8012 4.54552C29.1875 4.54552 28.7121 4.73113 28.375 5.10234C28.0379 5.46976 27.8693 5.93567 27.8693 6.50007V12.1819H26.5057V6.20461C26.5057 5.7084 26.3447 5.30878 26.0227 5.00575C25.7008 4.69893 25.286 4.54552 24.7784 4.54552C24.4299 4.54552 24.1042 4.63832 23.8012 4.82393C23.5019 5.00954 23.2595 5.26711 23.0739 5.59666C22.8921 5.92241 22.8012 6.29931 22.8012 6.72734V12.1819H21.4602ZM35.3665 15.4546V3.45461H36.6619V4.84098H36.821C36.9195 4.68946 37.0559 4.49628 37.2301 4.26143C37.4082 4.02279 37.6619 3.81067 37.9915 3.62507C38.3248 3.43567 38.7756 3.34098 39.3438 3.34098C40.0786 3.34098 40.7263 3.52469 41.2869 3.89211C41.8476 4.25954 42.2851 4.78037 42.5994 5.45461C42.9138 6.12885 43.071 6.92431 43.071 7.84098C43.071 8.76522 42.9138 9.56635 42.5994 10.2444C42.2851 10.9186 41.8494 11.4414 41.2926 11.8126C40.7358 12.18 40.0938 12.3637 39.3665 12.3637C38.8059 12.3637 38.357 12.2709 38.0199 12.0853C37.6828 11.8959 37.4233 11.6819 37.2415 11.4432C37.0597 11.2008 36.9195 11.0001 36.821 10.841H36.7074V15.4546H35.3665ZM36.6847 7.81825C36.6847 8.47734 36.7813 9.05878 36.9744 9.56257C37.1676 10.0626 37.4498 10.4546 37.821 10.7387C38.1923 11.019 38.6468 11.1592 39.1847 11.1592C39.7453 11.1592 40.2131 11.0114 40.5881 10.716C40.9669 10.4167 41.251 10.0152 41.4404 9.51143C41.6335 9.00385 41.7301 8.43946 41.7301 7.81825C41.7301 7.20461 41.6354 6.65158 41.446 6.15916C41.2604 5.66295 40.9782 5.2709 40.5994 4.98302C40.2244 4.69135 39.7529 4.54552 39.1847 4.54552C38.6392 4.54552 38.1809 4.68378 37.8097 4.96029C37.4385 5.23302 37.1582 5.6156 36.9688 6.10802C36.7794 6.59666 36.6847 7.16673 36.6847 7.81825ZM47.6847 12.3864C47.1316 12.3864 46.6298 12.2823 46.179 12.0739C45.7282 11.8618 45.3703 11.5569 45.1051 11.1592C44.84 10.7576 44.7074 10.2728 44.7074 9.70461C44.7074 9.20461 44.8059 8.79931 45.0029 8.4887C45.1998 8.17431 45.4631 7.9281 45.7926 7.75007C46.1222 7.57204 46.4858 7.43946 46.8835 7.35234C47.2851 7.26143 47.6885 7.18946 48.0938 7.13643C48.6241 7.06825 49.054 7.01711 49.3835 6.98302C49.7169 6.94514 49.9593 6.88264 50.1108 6.79552C50.2661 6.7084 50.3438 6.55688 50.3438 6.34098V6.29552C50.3438 5.73491 50.1904 5.29931 49.8835 4.9887C49.5805 4.6781 49.1203 4.52279 48.5029 4.52279C47.8627 4.52279 47.3608 4.66295 46.9972 4.94325C46.6335 5.22355 46.3779 5.52279 46.2301 5.84098L44.9574 5.38643C45.1847 4.85613 45.4877 4.44325 45.8665 4.14779C46.2491 3.84855 46.6657 3.64022 47.1165 3.52279C47.571 3.40158 48.018 3.34098 48.4574 3.34098C48.7377 3.34098 49.0597 3.37507 49.4233 3.44325C49.7907 3.50764 50.1449 3.64211 50.4858 3.84666C50.8305 4.0512 51.1165 4.35992 51.3438 4.77279C51.571 5.18567 51.6847 5.7387 51.6847 6.43188V12.1819H50.3438V11.0001H50.2756C50.1847 11.1895 50.0332 11.3921 49.821 11.608C49.6089 11.8239 49.3267 12.0076 48.9744 12.1592C48.6222 12.3107 48.1923 12.3864 47.6847 12.3864ZM47.8892 11.1819C48.4195 11.1819 48.8665 11.0777 49.2301 10.8694C49.5976 10.6611 49.8741 10.3921 50.0597 10.0626C50.2491 9.73302 50.3438 9.38643 50.3438 9.02279V7.79552C50.2869 7.8637 50.1619 7.9262 49.9688 7.98302C49.7794 8.03605 49.5597 8.0834 49.3097 8.12507C49.0635 8.16295 48.8229 8.19704 48.5881 8.22734C48.357 8.25385 48.1695 8.27658 48.0256 8.29552C47.6771 8.34098 47.3513 8.41484 47.0483 8.51711C46.7491 8.6156 46.5066 8.76522 46.321 8.96598C46.1392 9.16295 46.0483 9.43188 46.0483 9.77279C46.0483 10.2387 46.2207 10.591 46.5654 10.8296C46.9138 11.0645 47.3551 11.1819 47.8892 11.1819ZM54.1321 12.1819V3.45461H55.4276V4.77279H55.5185C55.6776 4.34098 55.9655 3.9906 56.3821 3.72166C56.7988 3.45272 57.2685 3.31825 57.7912 3.31825C57.8897 3.31825 58.0128 3.32014 58.1605 3.32393C58.3083 3.32772 58.42 3.3334 58.4958 3.34098V4.70461C58.4503 4.69325 58.3461 4.6762 58.1833 4.65348C58.0242 4.62696 57.8556 4.6137 57.6776 4.6137C57.2533 4.6137 56.8745 4.70272 56.5412 4.88075C56.2117 5.05499 55.9503 5.29741 55.7571 5.60802C55.5677 5.91484 55.473 6.26522 55.473 6.65916V12.1819H54.1321ZM63.4787 12.3637C62.6378 12.3637 61.9124 12.1781 61.3026 11.8069C60.6965 11.4319 60.2287 10.9092 59.8992 10.2387C59.5734 9.56446 59.4105 8.78037 59.4105 7.88643C59.4105 6.99249 59.5734 6.20461 59.8992 5.52279C60.2287 4.83719 60.687 4.3031 61.2742 3.92052C61.8651 3.53416 62.5545 3.34098 63.3423 3.34098C63.7969 3.34098 64.2458 3.41673 64.6889 3.56825C65.1321 3.71976 65.5355 3.96598 65.8992 4.30688C66.2628 4.64401 66.5526 5.09098 66.7685 5.64779C66.9844 6.20461 67.0923 6.89022 67.0923 7.70461V8.27279H60.3651V7.1137H65.7287C65.7287 6.62128 65.6302 6.18188 65.4333 5.79552C65.2401 5.40916 64.9636 5.10423 64.6037 4.88075C64.2476 4.65726 63.8272 4.54552 63.3423 4.54552C62.8083 4.54552 62.3461 4.6781 61.956 4.94325C61.5696 5.20461 61.2723 5.54552 61.0639 5.96598C60.8556 6.38643 60.7514 6.83719 60.7514 7.31825V8.09098C60.7514 8.75007 60.8651 9.30878 61.0923 9.76711C61.3234 10.2217 61.6435 10.5682 62.0526 10.8069C62.4617 11.0417 62.937 11.1592 63.4787 11.1592C63.831 11.1592 64.1492 11.1099 64.4333 11.0114C64.7211 10.9092 64.9692 10.7576 65.1776 10.5569C65.3859 10.3523 65.5469 10.0986 65.6605 9.79552L66.956 10.1592C66.8196 10.5986 66.5905 10.9849 66.2685 11.3182C65.9465 11.6478 65.5488 11.9054 65.0753 12.091C64.6018 12.2728 64.0696 12.3637 63.4787 12.3637ZM73.6321 15.4546V3.45461H74.9276V4.84098H75.0867C75.1851 4.68946 75.3215 4.49628 75.4958 4.26143C75.6738 4.02279 75.9276 3.81067 76.2571 3.62507C76.5905 3.43567 77.0412 3.34098 77.6094 3.34098C78.3442 3.34098 78.992 3.52469 79.5526 3.89211C80.1132 4.25954 80.5507 4.78037 80.8651 5.45461C81.1795 6.12885 81.3367 6.92431 81.3367 7.84098C81.3367 8.76522 81.1795 9.56635 80.8651 10.2444C80.5507 10.9186 80.1151 11.4414 79.5583 11.8126C79.0014 12.18 78.3594 12.3637 77.6321 12.3637C77.0715 12.3637 76.6226 12.2709 76.2855 12.0853C75.9484 11.8959 75.6889 11.6819 75.5071 11.4432C75.3253 11.2008 75.1851 11.0001 75.0867 10.841H74.973V15.4546H73.6321ZM74.9503 7.81825C74.9503 8.47734 75.0469 9.05878 75.2401 9.56257C75.4333 10.0626 75.7155 10.4546 76.0867 10.7387C76.4579 11.019 76.9124 11.1592 77.4503 11.1592C78.0109 11.1592 78.4787 11.0114 78.8537 10.716C79.2325 10.4167 79.5166 10.0152 79.706 9.51143C79.8992 9.00385 79.9958 8.43946 79.9958 7.81825C79.9958 7.20461 79.9011 6.65158 79.7117 6.15916C79.5261 5.66295 79.2439 5.2709 78.8651 4.98302C78.4901 4.69135 78.0185 4.54552 77.4503 4.54552C76.9048 4.54552 76.4465 4.68378 76.0753 4.96029C75.7041 5.23302 75.4238 5.6156 75.2344 6.10802C75.045 6.59666 74.9503 7.16673 74.9503 7.81825ZM83.3821 12.1819V3.45461H84.6776V4.77279H84.7685C84.9276 4.34098 85.2155 3.9906 85.6321 3.72166C86.0488 3.45272 86.5185 3.31825 87.0412 3.31825C87.1397 3.31825 87.2628 3.32014 87.4105 3.32393C87.5583 3.32772 87.67 3.3334 87.7458 3.34098V4.70461C87.7003 4.69325 87.5961 4.6762 87.4333 4.65348C87.2742 4.62696 87.1056 4.6137 86.9276 4.6137C86.5033 4.6137 86.1245 4.70272 85.7912 4.88075C85.4617 5.05499 85.2003 5.29741 85.0071 5.60802C84.8177 5.91484 84.723 6.26522 84.723 6.65916V12.1819H83.3821ZM92.7287 12.3637C91.8878 12.3637 91.1624 12.1781 90.5526 11.8069C89.9465 11.4319 89.4787 10.9092 89.1492 10.2387C88.8234 9.56446 88.6605 8.78037 88.6605 7.88643C88.6605 6.99249 88.8234 6.20461 89.1492 5.52279C89.4787 4.83719 89.937 4.3031 90.5242 3.92052C91.1151 3.53416 91.8045 3.34098 92.5923 3.34098C93.0469 3.34098 93.4958 3.41673 93.9389 3.56825C94.3821 3.71976 94.7855 3.96598 95.1492 4.30688C95.5128 4.64401 95.8026 5.09098 96.0185 5.64779C96.2344 6.20461 96.3423 6.89022 96.3423 7.70461V8.27279H89.6151V7.1137H94.9787C94.9787 6.62128 94.8802 6.18188 94.6833 5.79552C94.4901 5.40916 94.2136 5.10423 93.8537 4.88075C93.4976 4.65726 93.0772 4.54552 92.5923 4.54552C92.0583 4.54552 91.5961 4.6781 91.206 4.94325C90.8196 5.20461 90.5223 5.54552 90.3139 5.96598C90.1056 6.38643 90.0014 6.83719 90.0014 7.31825V8.09098C90.0014 8.75007 90.1151 9.30878 90.3423 9.76711C90.5734 10.2217 90.8935 10.5682 91.3026 10.8069C91.7117 11.0417 92.187 11.1592 92.7287 11.1592C93.081 11.1592 93.3992 11.1099 93.6833 11.0114C93.9711 10.9092 94.2192 10.7576 94.4276 10.5569C94.6359 10.3523 94.7969 10.0986 94.9105 9.79552L96.206 10.1592C96.0696 10.5986 95.8405 10.9849 95.5185 11.3182C95.1965 11.6478 94.7988 11.9054 94.3253 12.091C93.8518 12.2728 93.3196 12.3637 92.7287 12.3637ZM101.928 12.3637C101.109 12.3637 100.405 12.1705 99.8139 11.7842C99.223 11.3978 98.7685 10.8656 98.4503 10.1876C98.1321 9.50954 97.973 8.73491 97.973 7.8637C97.973 6.97734 98.1359 6.19514 98.4617 5.51711C98.7912 4.83529 99.2495 4.3031 99.8367 3.92052C100.428 3.53416 101.117 3.34098 101.905 3.34098C102.518 3.34098 103.072 3.45461 103.564 3.68188C104.056 3.90916 104.46 4.22734 104.774 4.63643C105.089 5.04552 105.284 5.52279 105.359 6.06825H104.018C103.916 5.67052 103.689 5.31825 103.337 5.01143C102.988 4.70082 102.518 4.54552 101.928 4.54552C101.405 4.54552 100.947 4.68188 100.553 4.95461C100.162 5.22355 99.8575 5.60423 99.6378 6.09666C99.4219 6.58529 99.3139 7.15916 99.3139 7.81825C99.3139 8.49249 99.42 9.07961 99.6321 9.57961C99.848 10.0796 100.151 10.4679 100.541 10.7444C100.935 11.0209 101.397 11.1592 101.928 11.1592C102.276 11.1592 102.592 11.0986 102.876 10.9773C103.161 10.8561 103.401 10.6819 103.598 10.4546C103.795 10.2273 103.935 9.95461 104.018 9.63643H105.359C105.284 10.1516 105.096 10.6156 104.797 11.0285C104.501 11.4376 104.109 11.7633 103.621 12.0057C103.136 12.2444 102.572 12.3637 101.928 12.3637ZM101.291 12.1364H102.405L102.314 12.591C102.609 12.6364 102.88 12.7595 103.126 12.9603C103.373 13.1648 103.496 13.4887 103.496 13.9319C103.496 14.4205 103.293 14.8182 102.888 15.1251C102.486 15.4357 101.893 15.591 101.109 15.591L101.064 14.7046C101.416 14.7046 101.708 14.6478 101.939 14.5342C102.174 14.4243 102.291 14.2387 102.291 13.9773C102.291 13.716 102.195 13.5379 102.001 13.4432C101.808 13.3486 101.496 13.2842 101.064 13.2501L101.291 12.1364ZM110.865 12.3637C110.077 12.3637 109.386 12.1762 108.791 11.8012C108.2 11.4262 107.738 10.9016 107.405 10.2273C107.075 9.5531 106.911 8.76522 106.911 7.8637C106.911 6.95461 107.075 6.16105 107.405 5.48302C107.738 4.80499 108.2 4.27848 108.791 3.90348C109.386 3.52848 110.077 3.34098 110.865 3.34098C111.653 3.34098 112.342 3.52848 112.933 3.90348C113.528 4.27848 113.99 4.80499 114.32 5.48302C114.653 6.16105 114.82 6.95461 114.82 7.8637C114.82 8.76522 114.653 9.5531 114.32 10.2273C113.99 10.9016 113.528 11.4262 112.933 11.8012C112.342 12.1762 111.653 12.3637 110.865 12.3637ZM110.865 11.1592C111.464 11.1592 111.956 11.0057 112.342 10.6989C112.729 10.3921 113.015 9.9887 113.2 9.4887C113.386 8.9887 113.479 8.44704 113.479 7.8637C113.479 7.28037 113.386 6.73681 113.2 6.23302C113.015 5.72923 112.729 5.32204 112.342 5.01143C111.956 4.70082 111.464 4.54552 110.865 4.54552C110.267 4.54552 109.774 4.70082 109.388 5.01143C109.001 5.32204 108.715 5.72923 108.53 6.23302C108.344 6.73681 108.251 7.28037 108.251 7.8637C108.251 8.44704 108.344 8.9887 108.53 9.4887C108.715 9.9887 109.001 10.3921 109.388 10.6989C109.774 11.0057 110.267 11.1592 110.865 11.1592ZM123.048 5.40916L121.844 5.75007C121.768 5.54931 121.656 5.35423 121.509 5.16484C121.365 4.97166 121.168 4.81257 120.918 4.68757C120.668 4.56257 120.348 4.50007 119.957 4.50007C119.423 4.50007 118.978 4.62317 118.622 4.86938C118.27 5.11181 118.094 5.42052 118.094 5.79552C118.094 6.12885 118.215 6.39211 118.457 6.58529C118.7 6.77848 119.079 6.93946 119.594 7.06825L120.889 7.38643C121.67 7.57582 122.251 7.8656 122.634 8.25575C123.016 8.64211 123.207 9.14022 123.207 9.75007C123.207 10.2501 123.063 10.697 122.776 11.091C122.491 11.4849 122.094 11.7955 121.582 12.0228C121.071 12.2501 120.476 12.3637 119.798 12.3637C118.908 12.3637 118.171 12.1705 117.588 11.7842C117.005 11.3978 116.635 10.8334 116.48 10.091L117.753 9.77279C117.874 10.2425 118.103 10.5948 118.44 10.8296C118.781 11.0645 119.226 11.1819 119.776 11.1819C120.401 11.1819 120.897 11.0493 121.264 10.7842C121.635 10.5152 121.821 10.1932 121.821 9.81825C121.821 9.51522 121.715 9.26143 121.503 9.05688C121.291 8.84855 120.965 8.69325 120.526 8.59098L119.071 8.25007C118.272 8.06067 117.685 7.76711 117.31 7.36938C116.938 6.96787 116.753 6.46598 116.753 5.8637C116.753 5.37128 116.891 4.93567 117.168 4.55688C117.448 4.1781 117.829 3.88075 118.31 3.66484C118.795 3.44893 119.344 3.34098 119.957 3.34098C120.821 3.34098 121.499 3.53037 121.991 3.90916C122.488 4.28795 122.84 4.78795 123.048 5.40916ZM133.021 12.3637C132.294 12.3637 131.652 12.18 131.095 11.8126C130.538 11.4414 130.103 10.9186 129.788 10.2444C129.474 9.56635 129.317 8.76522 129.317 7.84098C129.317 6.92431 129.474 6.12885 129.788 5.45461C130.103 4.78037 130.54 4.25954 131.101 3.89211C131.661 3.52469 132.309 3.34098 133.044 3.34098C133.612 3.34098 134.061 3.43567 134.391 3.62507C134.724 3.81067 134.978 4.02279 135.152 4.26143C135.33 4.49628 135.468 4.68946 135.567 4.84098H135.68V0.545521H137.021V12.1819H135.726V10.841H135.567C135.468 11.0001 135.328 11.2008 135.146 11.4432C134.965 11.6819 134.705 11.8959 134.368 12.0853C134.031 12.2709 133.582 12.3637 133.021 12.3637ZM133.203 11.1592C133.741 11.1592 134.196 11.019 134.567 10.7387C134.938 10.4546 135.22 10.0626 135.413 9.56257C135.607 9.05878 135.703 8.47734 135.703 7.81825C135.703 7.16673 135.608 6.59666 135.419 6.10802C135.23 5.6156 134.949 5.23302 134.578 4.96029C134.207 4.68378 133.749 4.54552 133.203 4.54552C132.635 4.54552 132.161 4.69135 131.783 4.98302C131.408 5.2709 131.125 5.66295 130.936 6.15916C130.75 6.65158 130.658 7.20461 130.658 7.81825C130.658 8.43946 130.752 9.00385 130.942 9.51143C131.135 10.0152 131.419 10.4167 131.794 10.716C132.173 11.0114 132.643 11.1592 133.203 11.1592ZM143.322 12.3637C142.482 12.3637 141.756 12.1781 141.146 11.8069C140.54 11.4319 140.072 10.9092 139.743 10.2387C139.417 9.56446 139.254 8.78037 139.254 7.88643C139.254 6.99249 139.417 6.20461 139.743 5.52279C140.072 4.83719 140.531 4.3031 141.118 3.92052C141.709 3.53416 142.398 3.34098 143.186 3.34098C143.641 3.34098 144.09 3.41673 144.533 3.56825C144.976 3.71976 145.379 3.96598 145.743 4.30688C146.107 4.64401 146.396 5.09098 146.612 5.64779C146.828 6.20461 146.936 6.89022 146.936 7.70461V8.27279H140.209V7.1137H145.572C145.572 6.62128 145.474 6.18188 145.277 5.79552C145.084 5.40916 144.807 5.10423 144.447 4.88075C144.091 4.65726 143.671 4.54552 143.186 4.54552C142.652 4.54552 142.19 4.6781 141.8 4.94325C141.413 5.20461 141.116 5.54552 140.908 5.96598C140.699 6.38643 140.595 6.83719 140.595 7.31825V8.09098C140.595 8.75007 140.709 9.30878 140.936 9.76711C141.167 10.2217 141.487 10.5682 141.896 10.8069C142.305 11.0417 142.781 11.1592 143.322 11.1592C143.675 11.1592 143.993 11.1099 144.277 11.0114C144.565 10.9092 144.813 10.7576 145.021 10.5569C145.23 10.3523 145.391 10.0986 145.504 9.79552L146.8 10.1592C146.663 10.5986 146.434 10.9849 146.112 11.3182C145.79 11.6478 145.393 11.9054 144.919 12.091C144.446 12.2728 143.913 12.3637 143.322 12.3637ZM156.771 12.3637C156.044 12.3637 155.402 12.18 154.845 11.8126C154.288 11.4414 153.853 10.9186 153.538 10.2444C153.224 9.56635 153.067 8.76522 153.067 7.84098C153.067 6.92431 153.224 6.12885 153.538 5.45461C153.853 4.78037 154.29 4.25954 154.851 3.89211C155.411 3.52469 156.059 3.34098 156.794 3.34098C157.362 3.34098 157.811 3.43567 158.141 3.62507C158.474 3.81067 158.728 4.02279 158.902 4.26143C159.08 4.49628 159.218 4.68946 159.317 4.84098H159.43V0.545521H160.771V12.1819H159.476V10.841H159.317C159.218 11.0001 159.078 11.2008 158.896 11.4432C158.715 11.6819 158.455 11.8959 158.118 12.0853C157.781 12.2709 157.332 12.3637 156.771 12.3637ZM156.953 11.1592C157.491 11.1592 157.946 11.019 158.317 10.7387C158.688 10.4546 158.97 10.0626 159.163 9.56257C159.357 9.05878 159.453 8.47734 159.453 7.81825C159.453 7.16673 159.358 6.59666 159.169 6.10802C158.98 5.6156 158.699 5.23302 158.328 4.96029C157.957 4.68378 157.499 4.54552 156.953 4.54552C156.385 4.54552 155.911 4.69135 155.533 4.98302C155.158 5.2709 154.875 5.66295 154.686 6.15916C154.5 6.65158 154.408 7.20461 154.408 7.81825C154.408 8.43946 154.502 9.00385 154.692 9.51143C154.885 10.0152 155.169 10.4167 155.544 10.716C155.923 11.0114 156.393 11.1592 156.953 11.1592ZM163.413 12.1819V3.45461H164.754V12.1819H163.413ZM164.095 2.00007C163.834 2.00007 163.608 1.91105 163.419 1.73302C163.233 1.55499 163.141 1.34098 163.141 1.09098C163.141 0.840976 163.233 0.62696 163.419 0.44893C163.608 0.2709 163.834 0.181885 164.095 0.181885C164.357 0.181885 164.58 0.2709 164.766 0.44893C164.955 0.62696 165.05 0.840976 165.05 1.09098C165.05 1.34098 164.955 1.55499 164.766 1.73302C164.58 1.91105 164.357 2.00007 164.095 2.00007ZM171.097 3.45461V4.59098H166.392V3.45461H171.097ZM167.801 12.1819V2.25007C167.801 1.75007 167.919 1.3334 168.153 1.00007C168.388 0.666732 168.693 0.416732 169.068 0.250066C169.443 0.0833991 169.839 6.58035e-05 170.256 6.58035e-05C170.585 6.58035e-05 170.854 0.0265811 171.063 0.0796118C171.271 0.132642 171.426 0.181884 171.528 0.227339L171.142 1.38643C171.074 1.3637 170.979 1.33529 170.858 1.3012C170.741 1.26711 170.585 1.25007 170.392 1.25007C169.949 1.25007 169.629 1.36181 169.432 1.58529C169.239 1.80878 169.142 2.13643 169.142 2.56825V12.1819H167.801ZM176.276 12.3637C175.435 12.3637 174.709 12.1781 174.099 11.8069C173.493 11.4319 173.026 10.9092 172.696 10.2387C172.37 9.56446 172.207 8.78037 172.207 7.88643C172.207 6.99249 172.37 6.20461 172.696 5.52279C173.026 4.83719 173.484 4.3031 174.071 3.92052C174.662 3.53416 175.351 3.34098 176.139 3.34098C176.594 3.34098 177.043 3.41673 177.486 3.56825C177.929 3.71976 178.332 3.96598 178.696 4.30688C179.06 4.64401 179.349 5.09098 179.565 5.64779C179.781 6.20461 179.889 6.89022 179.889 7.70461V8.27279H173.162V7.1137H178.526C178.526 6.62128 178.427 6.18188 178.23 5.79552C178.037 5.40916 177.76 5.10423 177.401 4.88075C177.045 4.65726 176.624 4.54552 176.139 4.54552C175.605 4.54552 175.143 4.6781 174.753 4.94325C174.366 5.20461 174.069 5.54552 173.861 5.96598C173.652 6.38643 173.548 6.83719 173.548 7.31825V8.09098C173.548 8.75007 173.662 9.30878 173.889 9.76711C174.12 10.2217 174.44 10.5682 174.849 10.8069C175.259 11.0417 175.734 11.1592 176.276 11.1592C176.628 11.1592 176.946 11.1099 177.23 11.0114C177.518 10.9092 177.766 10.7576 177.974 10.5569C178.183 10.3523 178.344 10.0986 178.457 9.79552L179.753 10.1592C179.616 10.5986 179.387 10.9849 179.065 11.3182C178.743 11.6478 178.346 11.9054 177.872 12.091C177.399 12.2728 176.866 12.3637 176.276 12.3637ZM181.929 12.1819V3.45461H183.224V4.77279H183.315C183.474 4.34098 183.762 3.9906 184.179 3.72166C184.596 3.45272 185.065 3.31825 185.588 3.31825C185.687 3.31825 185.81 3.32014 185.957 3.32393C186.105 3.32772 186.217 3.3334 186.293 3.34098V4.70461C186.247 4.69325 186.143 4.6762 185.98 4.65348C185.821 4.62696 185.652 4.6137 185.474 4.6137C185.05 4.6137 184.671 4.70272 184.338 4.88075C184.009 5.05499 183.747 5.29741 183.554 5.60802C183.365 5.91484 183.27 6.26522 183.27 6.65916V12.1819H181.929ZM191.276 12.3637C190.435 12.3637 189.709 12.1781 189.099 11.8069C188.493 11.4319 188.026 10.9092 187.696 10.2387C187.37 9.56446 187.207 8.78037 187.207 7.88643C187.207 6.99249 187.37 6.20461 187.696 5.52279C188.026 4.83719 188.484 4.3031 189.071 3.92052C189.662 3.53416 190.351 3.34098 191.139 3.34098C191.594 3.34098 192.043 3.41673 192.486 3.56825C192.929 3.71976 193.332 3.96598 193.696 4.30688C194.06 4.64401 194.349 5.09098 194.565 5.64779C194.781 6.20461 194.889 6.89022 194.889 7.70461V8.27279H188.162V7.1137H193.526C193.526 6.62128 193.427 6.18188 193.23 5.79552C193.037 5.40916 192.76 5.10423 192.401 4.88075C192.045 4.65726 191.624 4.54552 191.139 4.54552C190.605 4.54552 190.143 4.6781 189.753 4.94325C189.366 5.20461 189.069 5.54552 188.861 5.96598C188.652 6.38643 188.548 6.83719 188.548 7.31825V8.09098C188.548 8.75007 188.662 9.30878 188.889 9.76711C189.12 10.2217 189.44 10.5682 189.849 10.8069C190.259 11.0417 190.734 11.1592 191.276 11.1592C191.628 11.1592 191.946 11.1099 192.23 11.0114C192.518 10.9092 192.766 10.7576 192.974 10.5569C193.183 10.3523 193.344 10.0986 193.457 9.79552L194.753 10.1592C194.616 10.5986 194.387 10.9849 194.065 11.3182C193.743 11.6478 193.346 11.9054 192.872 12.091C192.399 12.2728 191.866 12.3637 191.276 12.3637ZM198.27 6.93188V12.1819H196.929V3.45461H198.224V4.81825H198.338C198.543 4.37507 198.853 4.01901 199.27 3.75007C199.687 3.47734 200.224 3.34098 200.884 3.34098C201.474 3.34098 201.991 3.46219 202.435 3.70461C202.878 3.94325 203.223 4.30688 203.469 4.79552C203.715 5.28037 203.838 5.89401 203.838 6.63643V12.1819H202.497V6.72734C202.497 6.04173 202.319 5.50764 201.963 5.12507C201.607 4.7387 201.118 4.54552 200.497 4.54552C200.069 4.54552 199.687 4.63832 199.349 4.82393C199.016 5.00954 198.753 5.28037 198.56 5.63643C198.366 5.99249 198.27 6.42431 198.27 6.93188ZM210.084 3.45461V4.59098H205.561V3.45461H210.084ZM206.879 1.3637H208.22V9.68188C208.22 10.0607 208.275 10.3448 208.385 10.5342C208.499 10.7198 208.643 10.8448 208.817 10.9092C208.995 10.9698 209.182 11.0001 209.379 11.0001C209.527 11.0001 209.648 10.9925 209.743 10.9773C209.838 10.9584 209.913 10.9432 209.97 10.9319L210.243 12.1364C210.152 12.1705 210.025 12.2046 209.862 12.2387C209.699 12.2766 209.493 12.2955 209.243 12.2955C208.864 12.2955 208.493 12.2141 208.129 12.0512C207.769 11.8883 207.47 11.6402 207.232 11.3069C206.997 10.9736 206.879 10.5531 206.879 10.0455V1.3637ZM215.666 12.3637C214.825 12.3637 214.1 12.1781 213.49 11.8069C212.884 11.4319 212.416 10.9092 212.087 10.2387C211.761 9.56446 211.598 8.78037 211.598 7.88643C211.598 6.99249 211.761 6.20461 212.087 5.52279C212.416 4.83719 212.875 4.3031 213.462 3.92052C214.053 3.53416 214.742 3.34098 215.53 3.34098C215.984 3.34098 216.433 3.41673 216.876 3.56825C217.32 3.71976 217.723 3.96598 218.087 4.30688C218.45 4.64401 218.74 5.09098 218.956 5.64779C219.172 6.20461 219.28 6.89022 219.28 7.70461V8.27279H212.553V7.1137H217.916C217.916 6.62128 217.818 6.18188 217.621 5.79552C217.428 5.40916 217.151 5.10423 216.791 4.88075C216.435 4.65726 216.015 4.54552 215.53 4.54552C214.996 4.54552 214.534 4.6781 214.143 4.94325C213.757 5.20461 213.46 5.54552 213.251 5.96598C213.043 6.38643 212.939 6.83719 212.939 7.31825V8.09098C212.939 8.75007 213.053 9.30878 213.28 9.76711C213.511 10.2217 213.831 10.5682 214.24 10.8069C214.649 11.0417 215.125 11.1592 215.666 11.1592C216.018 11.1592 216.337 11.1099 216.621 11.0114C216.909 10.9092 217.157 10.7576 217.365 10.5569C217.573 10.3523 217.734 10.0986 217.848 9.79552L219.143 10.1592C219.007 10.5986 218.778 10.9849 218.456 11.3182C218.134 11.6478 217.736 11.9054 217.263 12.091C216.789 12.2728 216.257 12.3637 215.666 12.3637ZM227.501 5.40916L226.297 5.75007C226.221 5.54931 226.109 5.35423 225.962 5.16484C225.818 4.97166 225.621 4.81257 225.371 4.68757C225.121 4.56257 224.801 4.50007 224.411 4.50007C223.876 4.50007 223.431 4.62317 223.075 4.86938C222.723 5.11181 222.547 5.42052 222.547 5.79552C222.547 6.12885 222.668 6.39211 222.911 6.58529C223.153 6.77848 223.532 6.93946 224.047 7.06825L225.342 7.38643C226.123 7.57582 226.704 7.8656 227.087 8.25575C227.469 8.64211 227.661 9.14022 227.661 9.75007C227.661 10.2501 227.517 10.697 227.229 11.091C226.945 11.4849 226.547 11.7955 226.036 12.0228C225.524 12.2501 224.929 12.3637 224.251 12.3637C223.361 12.3637 222.625 12.1705 222.041 11.7842C221.458 11.3978 221.089 10.8334 220.933 10.091L222.206 9.77279C222.327 10.2425 222.556 10.5948 222.893 10.8296C223.234 11.0645 223.679 11.1819 224.229 11.1819C224.854 11.1819 225.35 11.0493 225.717 10.7842C226.089 10.5152 226.274 10.1932 226.274 9.81825C226.274 9.51522 226.168 9.26143 225.956 9.05688C225.744 8.84855 225.418 8.69325 224.979 8.59098L223.524 8.25007C222.725 8.06067 222.138 7.76711 221.763 7.36938C221.392 6.96787 221.206 6.46598 221.206 5.8637C221.206 5.37128 221.344 4.93567 221.621 4.55688C221.901 4.1781 222.282 3.88075 222.763 3.66484C223.248 3.44893 223.797 3.34098 224.411 3.34098C225.274 3.34098 225.952 3.53037 226.445 3.90916C226.941 4.28795 227.293 4.78795 227.501 5.40916ZM235.52 0.545521V12.1819H234.179V0.545521H235.52ZM243.476 8.6137V3.45461H244.817V12.1819H243.476V10.7046H243.385C243.18 11.1478 242.862 11.5247 242.43 11.8353C241.999 12.1421 241.453 12.2955 240.794 12.2955C240.249 12.2955 239.764 12.1762 239.34 11.9376C238.915 11.6951 238.582 11.3315 238.34 10.8467C238.097 10.358 237.976 9.74249 237.976 9.00007V3.45461H239.317V8.90916C239.317 9.54552 239.495 10.0531 239.851 10.4319C240.211 10.8107 240.669 11.0001 241.226 11.0001C241.559 11.0001 241.898 10.9148 242.243 10.7444C242.591 10.5739 242.883 10.3126 243.118 9.96029C243.357 9.60802 243.476 9.15916 243.476 8.6137ZM250.795 15.6364C250.148 15.6364 249.591 15.5531 249.125 15.3864C248.659 15.2236 248.271 15.0076 247.96 14.7387C247.653 14.4736 247.409 14.1895 247.227 13.8864L248.295 13.1364C248.417 13.2955 248.57 13.4773 248.756 13.6819C248.941 13.8902 249.195 14.0701 249.517 14.2217C249.843 14.377 250.269 14.4546 250.795 14.4546C251.5 14.4546 252.081 14.2842 252.54 13.9432C252.998 13.6023 253.227 13.0682 253.227 12.341V10.5682H253.114C253.015 10.7273 252.875 10.9243 252.693 11.1592C252.515 11.3902 252.258 11.5967 251.92 11.7785C251.587 11.9565 251.136 12.0455 250.568 12.0455C249.864 12.0455 249.231 11.8789 248.67 11.5455C248.114 11.2122 247.672 10.7273 247.347 10.091C247.025 9.45461 246.864 8.68188 246.864 7.77279C246.864 6.87885 247.021 6.10045 247.335 5.43757C247.65 4.7709 248.087 4.25575 248.648 3.89211C249.208 3.52469 249.856 3.34098 250.591 3.34098C251.159 3.34098 251.61 3.43567 251.943 3.62507C252.28 3.81067 252.538 4.02279 252.716 4.26143C252.898 4.49628 253.038 4.68946 253.136 4.84098H253.273V3.45461H254.568V12.4319C254.568 13.1819 254.398 13.7917 254.057 14.2614C253.72 14.7349 253.265 15.0815 252.693 15.3012C252.125 15.5247 251.492 15.6364 250.795 15.6364ZM250.75 10.841C251.288 10.841 251.742 10.7179 252.114 10.4717C252.485 10.2254 252.767 9.87128 252.96 9.40916C253.153 8.94704 253.25 8.39401 253.25 7.75007C253.25 7.12128 253.155 6.56635 252.966 6.08529C252.777 5.60423 252.496 5.22734 252.125 4.95461C251.754 4.68188 251.295 4.54552 250.75 4.54552C250.182 4.54552 249.708 4.68946 249.33 4.97734C248.955 5.26522 248.672 5.65158 248.483 6.13643C248.297 6.62128 248.205 7.15916 248.205 7.75007C248.205 8.35613 248.299 8.89211 248.489 9.35802C248.682 9.82014 248.966 10.1838 249.341 10.4489C249.72 10.7103 250.189 10.841 250.75 10.841ZM259.591 12.3864C259.038 12.3864 258.536 12.2823 258.085 12.0739C257.634 11.8618 257.277 11.5569 257.011 11.1592C256.746 10.7576 256.614 10.2728 256.614 9.70461C256.614 9.20461 256.712 8.79931 256.909 8.4887C257.106 8.17431 257.369 7.9281 257.699 7.75007C258.028 7.57204 258.392 7.43946 258.79 7.35234C259.191 7.26143 259.595 7.18946 260 7.13643C260.53 7.06825 260.96 7.01711 261.29 6.98302C261.623 6.94514 261.866 6.88264 262.017 6.79552C262.172 6.7084 262.25 6.55688 262.25 6.34098V6.29552C262.25 5.73491 262.097 5.29931 261.79 4.9887C261.487 4.6781 261.027 4.52279 260.409 4.52279C259.769 4.52279 259.267 4.66295 258.903 4.94325C258.54 5.22355 258.284 5.52279 258.136 5.84098L256.864 5.38643C257.091 4.85613 257.394 4.44325 257.773 4.14779C258.155 3.84855 258.572 3.64022 259.023 3.52279C259.477 3.40158 259.924 3.34098 260.364 3.34098C260.644 3.34098 260.966 3.37507 261.33 3.44325C261.697 3.50764 262.051 3.64211 262.392 3.84666C262.737 4.0512 263.023 4.35992 263.25 4.77279C263.477 5.18567 263.591 5.7387 263.591 6.43188V12.1819H262.25V11.0001H262.182C262.091 11.1895 261.939 11.3921 261.727 11.608C261.515 11.8239 261.233 12.0076 260.881 12.1592C260.528 12.3107 260.099 12.3864 259.591 12.3864ZM259.795 11.1819C260.326 11.1819 260.773 11.0777 261.136 10.8694C261.504 10.6611 261.78 10.3921 261.966 10.0626C262.155 9.73302 262.25 9.38643 262.25 9.02279V7.79552C262.193 7.8637 262.068 7.9262 261.875 7.98302C261.686 8.03605 261.466 8.0834 261.216 8.12507C260.97 8.16295 260.729 8.19704 260.494 8.22734C260.263 8.25385 260.076 8.27658 259.932 8.29552C259.583 8.34098 259.258 8.41484 258.955 8.51711C258.655 8.6156 258.413 8.76522 258.227 8.96598C258.045 9.16295 257.955 9.43188 257.955 9.77279C257.955 10.2387 258.127 10.591 258.472 10.8296C258.82 11.0645 259.261 11.1819 259.795 11.1819ZM266.038 12.1819V3.45461H267.334V4.77279H267.425C267.584 4.34098 267.872 3.9906 268.288 3.72166C268.705 3.45272 269.175 3.31825 269.697 3.31825C269.796 3.31825 269.919 3.32014 270.067 3.32393C270.215 3.32772 270.326 3.3334 270.402 3.34098V4.70461C270.357 4.69325 270.252 4.6762 270.09 4.65348C269.93 4.62696 269.762 4.6137 269.584 4.6137C269.16 4.6137 268.781 4.70272 268.447 4.88075C268.118 5.05499 267.857 5.29741 267.663 5.60802C267.474 5.91484 267.379 6.26522 267.379 6.65916V12.1819H266.038ZM275.385 12.3637C274.544 12.3637 273.819 12.1781 273.209 11.8069C272.603 11.4319 272.135 10.9092 271.805 10.2387C271.48 9.56446 271.317 8.78037 271.317 7.88643C271.317 6.99249 271.48 6.20461 271.805 5.52279C272.135 4.83719 272.593 4.3031 273.18 3.92052C273.771 3.53416 274.461 3.34098 275.249 3.34098C275.703 3.34098 276.152 3.41673 276.595 3.56825C277.038 3.71976 277.442 3.96598 277.805 4.30688C278.169 4.64401 278.459 5.09098 278.675 5.64779C278.891 6.20461 278.999 6.89022 278.999 7.70461V8.27279H272.271V7.1137H277.635C277.635 6.62128 277.536 6.18188 277.34 5.79552C277.146 5.40916 276.87 5.10423 276.51 4.88075C276.154 4.65726 275.733 4.54552 275.249 4.54552C274.715 4.54552 274.252 4.6781 273.862 4.94325C273.476 5.20461 273.179 5.54552 272.97 5.96598C272.762 6.38643 272.658 6.83719 272.658 7.31825V8.09098C272.658 8.75007 272.771 9.30878 272.999 9.76711C273.23 10.2217 273.55 10.5682 273.959 10.8069C274.368 11.0417 274.843 11.1592 275.385 11.1592C275.737 11.1592 276.055 11.1099 276.34 11.0114C276.627 10.9092 276.875 10.7576 277.084 10.5569C277.292 10.3523 277.453 10.0986 277.567 9.79552L278.862 10.1592C278.726 10.5986 278.497 10.9849 278.175 11.3182C277.853 11.6478 277.455 11.9054 276.982 12.091C276.508 12.2728 275.976 12.3637 275.385 12.3637ZM287.22 5.40916L286.016 5.75007C285.94 5.54931 285.828 5.35423 285.68 5.16484C285.536 4.97166 285.34 4.81257 285.09 4.68757C284.84 4.56257 284.519 4.50007 284.129 4.50007C283.595 4.50007 283.15 4.62317 282.794 4.86938C282.442 5.11181 282.266 5.42052 282.266 5.79552C282.266 6.12885 282.387 6.39211 282.629 6.58529C282.872 6.77848 283.25 6.93946 283.766 7.06825L285.061 7.38643C285.841 7.57582 286.423 7.8656 286.805 8.25575C287.188 8.64211 287.379 9.14022 287.379 9.75007C287.379 10.2501 287.235 10.697 286.947 11.091C286.663 11.4849 286.266 11.7955 285.754 12.0228C285.243 12.2501 284.648 12.3637 283.97 12.3637C283.08 12.3637 282.343 12.1705 281.76 11.7842C281.177 11.3978 280.807 10.8334 280.652 10.091L281.925 9.77279C282.046 10.2425 282.275 10.5948 282.612 10.8296C282.953 11.0645 283.398 11.1819 283.947 11.1819C284.572 11.1819 285.069 11.0493 285.436 10.7842C285.807 10.5152 285.993 10.1932 285.993 9.81825C285.993 9.51522 285.887 9.26143 285.675 9.05688C285.463 8.84855 285.137 8.69325 284.697 8.59098L283.243 8.25007C282.444 8.06067 281.857 7.76711 281.482 7.36938C281.11 6.96787 280.925 6.46598 280.925 5.8637C280.925 5.37128 281.063 4.93567 281.34 4.55688C281.62 4.1781 282 3.88075 282.482 3.66484C282.966 3.44893 283.516 3.34098 284.129 3.34098C284.993 3.34098 285.671 3.53037 286.163 3.90916C286.66 4.28795 287.012 4.78795 287.22 5.40916Z" fill="black"/>
</svg>
