<svg width="107" height="15" viewBox="0 0 107 15" fill="none" xmlns="http://www.w3.org/2000/svg">
<path d="M13.6364 5.65348H9.63069C9.60228 5.32204 9.52652 5.02137 9.40341 4.75149C9.28504 4.4816 9.11932 4.24959 8.90626 4.05546C8.69792 3.8566 8.44461 3.70509 8.14631 3.60092C7.84802 3.49202 7.50948 3.43757 7.13069 3.43757C6.46781 3.43757 5.90673 3.59855 5.44745 3.92052C4.9929 4.24249 4.64726 4.70414 4.41052 5.30546C4.17851 5.90679 4.06251 6.62885 4.06251 7.47166C4.06251 8.36181 4.18088 9.10755 4.41762 9.70887C4.6591 10.3055 5.00711 10.7553 5.46165 11.0583C5.9162 11.3566 6.46307 11.5057 7.10228 11.5057C7.46686 11.5057 7.79357 11.4608 8.08239 11.3708C8.37122 11.2761 8.62216 11.1412 8.83523 10.966C9.0483 10.7908 9.22112 10.5801 9.3537 10.3339C9.49101 10.0829 9.58334 9.8012 9.63069 9.4887L13.6364 9.51711C13.589 10.1326 13.4162 10.76 13.1179 11.3992C12.8196 12.0337 12.3958 12.6208 11.8466 13.1606C11.3021 13.6956 10.6274 14.1265 9.82245 14.4532C9.01752 14.7799 8.08239 14.9432 7.01705 14.9432C5.68182 14.9432 4.48391 14.6568 3.4233 14.0839C2.36743 13.511 1.53173 12.6682 0.916199 11.5555C0.305403 10.4428 5.60284e-06 9.08151 5.60284e-06 7.47166C5.60284e-06 5.85234 0.312506 4.4887 0.937506 3.38075C1.56251 2.26806 2.40531 1.42762 3.46591 0.859441C4.52652 0.286524 5.71023 6.60419e-05 7.01705 6.60419e-05C7.93561 6.60419e-05 8.78078 0.125539 9.55256 0.376486C10.3243 0.627434 11.0014 0.994384 11.5838 1.47734C12.1662 1.95556 12.6349 2.54505 12.9901 3.2458C13.3452 3.94656 13.5606 4.74912 13.6364 5.65348ZM20.7404 14.9432C19.5567 14.9432 18.5434 14.7089 17.7006 14.2401C16.8578 13.7666 16.2115 13.1085 15.7617 12.2657C15.3119 11.4182 15.087 10.4357 15.087 9.31825C15.087 8.20082 15.3119 7.22071 15.7617 6.37791C16.2115 5.53037 16.8578 4.87223 17.7006 4.40347C18.5434 3.92999 19.5567 3.69325 20.7404 3.69325C21.9241 3.69325 22.9374 3.92999 23.7802 4.40347C24.623 4.87223 25.2693 5.53037 25.7191 6.37791C26.1689 7.22071 26.3938 8.20082 26.3938 9.31825C26.3938 10.4357 26.1689 11.4182 25.7191 12.2657C25.2693 13.1085 24.623 13.7666 23.7802 14.2401C22.9374 14.7089 21.9241 14.9432 20.7404 14.9432ZM20.7688 12.0455C21.1003 12.0455 21.3867 11.9343 21.6282 11.7117C21.8697 11.4892 22.0567 11.1719 22.1893 10.76C22.3219 10.3481 22.3881 9.85802 22.3881 9.28984C22.3881 8.71692 22.3219 8.22687 22.1893 7.81967C22.0567 7.40774 21.8697 7.0905 21.6282 6.86796C21.3867 6.64543 21.1003 6.53416 20.7688 6.53416C20.4184 6.53416 20.1178 6.64543 19.8668 6.86796C19.6159 7.0905 19.4241 7.40774 19.2916 7.81967C19.159 8.22687 19.0927 8.71692 19.0927 9.28984C19.0927 9.85802 19.159 10.3481 19.2916 10.76C19.4241 11.1719 19.6159 11.4892 19.8668 11.7117C20.1178 11.9343 20.4184 12.0455 20.7688 12.0455ZM35.0586 9.97166V3.83529H38.9791V14.7444H35.2575V12.6705H35.1438C34.9071 13.3665 34.4928 13.9111 33.9009 14.304C33.3091 14.6923 32.6059 14.8864 31.7916 14.8864C31.0292 14.8864 30.3616 14.7112 29.7887 14.3609C29.2205 14.0105 28.7778 13.5275 28.4606 12.912C28.1481 12.2965 27.9895 11.591 27.9847 10.7955V3.83529H31.9052V9.97166C31.9099 10.5114 32.0472 10.9352 32.3171 11.243C32.5917 11.5507 32.9753 11.7046 33.4677 11.7046C33.7944 11.7046 34.0761 11.636 34.3129 11.4986C34.5543 11.3566 34.739 11.1577 34.8668 10.9021C34.9994 10.6416 35.0633 10.3315 35.0586 9.97166ZM51.9673 3.83529L48.3026 14.7444H43.7571L40.0923 3.83529H44.2117L45.973 11.0512H46.0867L47.848 3.83529H51.9673ZM57.9776 14.9432C56.8129 14.9432 55.8091 14.7207 54.9663 14.2756C54.1282 13.8258 53.4819 13.1819 53.0273 12.3438C52.5775 11.501 52.3526 10.4925 52.3526 9.31825C52.3526 8.19135 52.5799 7.20651 53.0345 6.3637C53.489 5.5209 54.1306 4.86512 54.9592 4.39637C55.7878 3.92762 56.7655 3.69325 57.8924 3.69325C58.7163 3.69325 59.462 3.82109 60.1296 4.07677C60.7972 4.33245 61.3678 4.70414 61.8413 5.19183C62.3148 5.67478 62.6793 6.2619 62.935 6.95319C63.1907 7.64448 63.3185 8.42336 63.3185 9.28984V10.1989H53.5742V8.03984H59.7106C59.7059 7.72734 59.6254 7.45272 59.4691 7.21598C59.3176 6.9745 59.1116 6.78747 58.8512 6.6549C58.5955 6.51759 58.3043 6.44893 57.9776 6.44893C57.6604 6.44893 57.3692 6.51759 57.1041 6.6549C56.8389 6.78747 56.6258 6.97213 56.4648 7.20887C56.3086 7.44562 56.2257 7.7226 56.2163 8.03984V10.3694C56.2163 10.7198 56.2897 11.0323 56.4364 11.3069C56.5832 11.5815 56.7939 11.7969 57.0685 11.9532C57.3432 12.1094 57.6746 12.1876 58.0629 12.1876C58.3327 12.1876 58.579 12.1497 58.8015 12.0739C59.0288 11.9982 59.2229 11.8893 59.3839 11.7472C59.5449 11.6004 59.6632 11.4253 59.739 11.2217H63.3185C63.1954 11.9792 62.9042 12.6374 62.445 13.1961C61.9857 13.7501 61.3773 14.1809 60.6197 14.4887C59.8668 14.7917 58.9862 14.9432 57.9776 14.9432ZM68.8459 14.7444V0.19893H79.0732V3.38075H72.7947V5.88075H78.4482V9.06257H72.7947V14.7444H68.8459ZM84.5028 0.19893V14.7444H80.5824V0.19893H84.5028ZM91.756 14.9432C90.5723 14.9432 89.5591 14.7089 88.7163 14.2401C87.8735 13.7666 87.2272 13.1085 86.7773 12.2657C86.3275 11.4182 86.1026 10.4357 86.1026 9.31825C86.1026 8.20082 86.3275 7.22071 86.7773 6.37791C87.2272 5.53037 87.8735 4.87223 88.7163 4.40347C89.5591 3.92999 90.5723 3.69325 91.756 3.69325C92.9398 3.69325 93.953 3.92999 94.7958 4.40347C95.6386 4.87223 96.2849 5.53037 96.7347 6.37791C97.1845 7.22071 97.4095 8.20082 97.4095 9.31825C97.4095 10.4357 97.1845 11.4182 96.7347 12.2657C96.2849 13.1085 95.6386 13.7666 94.7958 14.2401C93.953 14.7089 92.9398 14.9432 91.756 14.9432ZM91.7845 12.0455C92.1159 12.0455 92.4023 11.9343 92.6438 11.7117C92.8853 11.4892 93.0723 11.1719 93.2049 10.76C93.3375 10.3481 93.4038 9.85802 93.4038 9.28984C93.4038 8.71692 93.3375 8.22687 93.2049 7.81967C93.0723 7.40774 92.8853 7.0905 92.6438 6.86796C92.4023 6.64543 92.1159 6.53416 91.7845 6.53416C91.4341 6.53416 91.1334 6.64543 90.8825 6.86796C90.6315 7.0905 90.4398 7.40774 90.3072 7.81967C90.1746 8.22687 90.1083 8.71692 90.1083 9.28984C90.1083 9.85802 90.1746 10.3481 90.3072 10.76C90.4398 11.1719 90.6315 11.4892 90.8825 11.7117C91.1334 11.9343 91.4341 12.0455 91.7845 12.0455ZM99.0004 14.7444V3.83529H102.807V5.90916H102.921C103.12 5.14211 103.435 4.58103 103.865 4.22592C104.301 3.87081 104.81 3.69325 105.392 3.69325C105.563 3.69325 105.731 3.70745 105.897 3.73586C106.067 3.75954 106.23 3.79505 106.387 3.8424V7.18757C106.193 7.12128 105.953 7.07156 105.669 7.03842C105.385 7.00527 105.141 6.9887 104.938 6.9887C104.554 6.9887 104.209 7.0763 103.901 7.25149C103.598 7.42194 103.359 7.66342 103.184 7.97592C103.008 8.28368 102.921 8.6459 102.921 9.06257V14.7444H99.0004Z" fill="black"/>
</svg>
