<svg width="328" height="16" viewBox="0 0 328 16" fill="none" xmlns="http://www.w3.org/2000/svg">
<path d="M3.59088 12H-2.76566e-05V0.363636H3.74997C4.87876 0.363636 5.84467 0.596591 6.6477 1.0625C7.45073 1.52462 8.06626 2.18939 8.49429 3.05682C8.92232 3.92045 9.13634 4.95455 9.13634 6.15909C9.13634 7.37121 8.92043 8.41477 8.48861 9.28977C8.05679 10.161 7.428 10.8314 6.60225 11.3011C5.77649 11.767 4.7727 12 3.59088 12ZM1.40906 10.75H3.49997C4.46209 10.75 5.25944 10.5644 5.89202 10.1932C6.52459 9.82197 6.99618 9.29356 7.30679 8.60795C7.6174 7.92235 7.7727 7.10606 7.7727 6.15909C7.7727 5.2197 7.61929 4.41098 7.31247 3.73295C7.00565 3.05114 6.54732 2.52841 5.93747 2.16477C5.32762 1.79735 4.56815 1.61364 3.65906 1.61364H1.40906V10.75ZM14.9772 12.1818C14.1363 12.1818 13.411 11.9962 12.8011 11.625C12.195 11.25 11.7272 10.7273 11.3977 10.0568C11.0719 9.38258 10.9091 8.59848 10.9091 7.70455C10.9091 6.81061 11.0719 6.02273 11.3977 5.34091C11.7272 4.6553 12.1856 4.12121 12.7727 3.73864C13.3636 3.35227 14.053 3.15909 14.8409 3.15909C15.2954 3.15909 15.7443 3.23485 16.1875 3.38636C16.6307 3.53788 17.0341 3.78409 17.3977 4.125C17.7613 4.46212 18.0511 4.90909 18.267 5.46591C18.4829 6.02273 18.5909 6.70833 18.5909 7.52273V8.09091H11.8636V6.93182H17.2272C17.2272 6.43939 17.1288 6 16.9318 5.61364C16.7386 5.22727 16.4621 4.92235 16.1022 4.69886C15.7462 4.47538 15.3257 4.36364 14.8409 4.36364C14.3068 4.36364 13.8447 4.49621 13.4545 4.76136C13.0682 5.02273 12.7708 5.36364 12.5625 5.78409C12.3541 6.20455 12.25 6.6553 12.25 7.13636V7.90909C12.25 8.56818 12.3636 9.12689 12.5909 9.58523C12.8219 10.0398 13.142 10.3864 13.5511 10.625C13.9602 10.8598 14.4356 10.9773 14.9772 10.9773C15.3295 10.9773 15.6477 10.928 15.9318 10.8295C16.2197 10.7273 16.4678 10.5758 16.6761 10.375C16.8844 10.1705 17.0454 9.91667 17.1591 9.61364L18.4545 9.97727C18.3182 10.4167 18.089 10.803 17.767 11.1364C17.445 11.4659 17.0473 11.7235 16.5738 11.9091C16.1004 12.0909 15.5682 12.1818 14.9772 12.1818ZM26.8125 5.22727L25.6079 5.56818C25.5322 5.36742 25.4204 5.17235 25.2727 4.98295C25.1288 4.78977 24.9318 4.63068 24.6818 4.50568C24.4318 4.38068 24.1117 4.31818 23.7216 4.31818C23.1875 4.31818 22.7424 4.44129 22.3863 4.6875C22.0341 4.92992 21.8579 5.23864 21.8579 5.61364C21.8579 5.94697 21.9791 6.21023 22.2216 6.40341C22.464 6.59659 22.8428 6.75758 23.3579 6.88636L24.6534 7.20455C25.4337 7.39394 26.0151 7.68371 26.3977 8.07386C26.7803 8.46023 26.9716 8.95833 26.9716 9.56818C26.9716 10.0682 26.8276 10.5152 26.5397 10.9091C26.2557 11.303 25.8579 11.6136 25.3466 11.8409C24.8352 12.0682 24.2405 12.1818 23.5625 12.1818C22.6723 12.1818 21.9356 11.9886 21.3522 11.6023C20.7689 11.2159 20.3996 10.6515 20.2443 9.90909L21.517 9.59091C21.6382 10.0606 21.8674 10.4129 22.2045 10.6477C22.5454 10.8826 22.9905 11 23.5397 11C24.1647 11 24.661 10.8674 25.0284 10.6023C25.3996 10.3333 25.5852 10.0114 25.5852 9.63636C25.5852 9.33333 25.4791 9.07955 25.267 8.875C25.0549 8.66667 24.7291 8.51136 24.2897 8.40909L22.8352 8.06818C22.036 7.87879 21.4488 7.58523 21.0738 7.1875C20.7026 6.78598 20.517 6.28409 20.517 5.68182C20.517 5.18939 20.6553 4.75379 20.9318 4.375C21.2121 3.99621 21.5928 3.69886 22.0738 3.48295C22.5587 3.26705 23.1079 3.15909 23.7216 3.15909C24.5852 3.15909 25.2632 3.34848 25.7557 3.72727C26.2519 4.10606 26.6041 4.60606 26.8125 5.22727ZM32.5355 12.1818C31.7173 12.1818 31.0128 11.9886 30.4218 11.6023C29.8309 11.2159 29.3764 10.6837 29.0582 10.0057C28.74 9.32765 28.5809 8.55303 28.5809 7.68182C28.5809 6.79545 28.7438 6.01326 29.0696 5.33523C29.3991 4.65341 29.8575 4.12121 30.4446 3.73864C31.0355 3.35227 31.7249 3.15909 32.5128 3.15909C33.1264 3.15909 33.6794 3.27273 34.1718 3.5C34.6643 3.72727 35.0677 4.04545 35.3821 4.45455C35.6965 4.86364 35.8915 5.34091 35.9673 5.88636H34.6264C34.5241 5.48864 34.2968 5.13636 33.9446 4.82955C33.5961 4.51894 33.1264 4.36364 32.5355 4.36364C32.0128 4.36364 31.5544 4.5 31.1605 4.77273C30.7703 5.04167 30.4654 5.42235 30.2457 5.91477C30.0298 6.40341 29.9218 6.97727 29.9218 7.63636C29.9218 8.31061 30.0279 8.89773 30.24 9.39773C30.4559 9.89773 30.759 10.286 31.1491 10.5625C31.5431 10.839 32.0052 10.9773 32.5355 10.9773C32.884 10.9773 33.2003 10.9167 33.4843 10.7955C33.7684 10.6742 34.009 10.5 34.2059 10.2727C34.4029 10.0455 34.5431 9.77273 34.6264 9.45455H35.9673C35.8915 9.9697 35.704 10.4337 35.4048 10.8466C35.1093 11.2557 34.7173 11.5814 34.2287 11.8239C33.7438 12.0625 33.1794 12.1818 32.5355 12.1818ZM43.4275 8.43182V3.27273H44.7684V12H43.4275V10.5227H43.3366C43.1321 10.9659 42.8139 11.3428 42.3821 11.6534C41.9503 11.9602 41.4048 12.1136 40.7457 12.1136C40.2003 12.1136 39.7154 11.9943 39.2912 11.7557C38.8669 11.5133 38.5336 11.1496 38.2912 10.6648C38.0487 10.1761 37.9275 9.56061 37.9275 8.81818V3.27273H39.2684V8.72727C39.2684 9.36364 39.4465 9.87121 39.8025 10.25C40.1624 10.6288 40.6207 10.8182 41.1775 10.8182C41.5109 10.8182 41.8499 10.733 42.1946 10.5625C42.5431 10.392 42.8347 10.1307 43.0696 9.77841C43.3082 9.42614 43.4275 8.97727 43.4275 8.43182ZM47.4062 12V0.363636H48.7471V4.65909H48.8608C48.9593 4.50758 49.0956 4.31439 49.2699 4.07955C49.4479 3.84091 49.7017 3.62879 50.0312 3.44318C50.3646 3.25379 50.8153 3.15909 51.3835 3.15909C52.1183 3.15909 52.7661 3.3428 53.3267 3.71023C53.8873 4.07765 54.3248 4.59848 54.6392 5.27273C54.9536 5.94697 55.1108 6.74242 55.1108 7.65909C55.1108 8.58333 54.9536 9.38447 54.6392 10.0625C54.3248 10.7367 53.8892 11.2595 53.3324 11.6307C52.7755 11.9981 52.1335 12.1818 51.4062 12.1818C50.8456 12.1818 50.3968 12.089 50.0596 11.9034C49.7225 11.714 49.463 11.5 49.2812 11.2614C49.0994 11.0189 48.9593 10.8182 48.8608 10.6591H48.7017V12H47.4062ZM48.7244 7.63636C48.7244 8.29545 48.821 8.87689 49.0142 9.38068C49.2074 9.88068 49.4896 10.2727 49.8608 10.5568C50.232 10.8371 50.6865 10.9773 51.2244 10.9773C51.785 10.9773 52.2528 10.8295 52.6278 10.5341C53.0066 10.2348 53.2907 9.83333 53.4801 9.32955C53.6733 8.82197 53.7699 8.25758 53.7699 7.63636C53.7699 7.02273 53.6752 6.4697 53.4858 5.97727C53.3002 5.48106 53.018 5.08902 52.6392 4.80114C52.2642 4.50947 51.7926 4.36364 51.2244 4.36364C50.6789 4.36364 50.2206 4.50189 49.8494 4.77841C49.4782 5.05114 49.1979 5.43371 49.0085 5.92614C48.8191 6.41477 48.7244 6.98485 48.7244 7.63636ZM57.1619 12V3.27273H58.4574V4.59091H58.5483C58.7074 4.15909 58.9952 3.80871 59.4119 3.53977C59.8286 3.27083 60.2983 3.13636 60.821 3.13636C60.9195 3.13636 61.0426 3.13826 61.1903 3.14205C61.338 3.14583 61.4498 3.15152 61.5255 3.15909V4.52273C61.4801 4.51136 61.3759 4.49432 61.213 4.47159C61.0539 4.44508 60.8854 4.43182 60.7074 4.43182C60.2831 4.43182 59.9043 4.52083 59.571 4.69886C59.2414 4.87311 58.9801 5.11553 58.7869 5.42614C58.5975 5.73295 58.5028 6.08333 58.5028 6.47727V12H57.1619ZM65.6832 12.2045C65.1302 12.2045 64.6283 12.1004 64.1775 11.892C63.7268 11.6799 63.3688 11.375 63.1037 10.9773C62.8385 10.5758 62.7059 10.0909 62.7059 9.52273C62.7059 9.02273 62.8044 8.61742 63.0014 8.30682C63.1984 7.99242 63.4616 7.74621 63.7912 7.56818C64.1207 7.39015 64.4843 7.25758 64.8821 7.17045C65.2836 7.07955 65.687 7.00758 66.0923 6.95455C66.6226 6.88636 67.0525 6.83523 67.3821 6.80114C67.7154 6.76326 67.9578 6.70076 68.1093 6.61364C68.2647 6.52652 68.3423 6.375 68.3423 6.15909V6.11364C68.3423 5.55303 68.1889 5.11742 67.8821 4.80682C67.579 4.49621 67.1188 4.34091 66.5014 4.34091C65.8612 4.34091 65.3593 4.48106 64.9957 4.76136C64.6321 5.04167 64.3764 5.34091 64.2287 5.65909L62.9559 5.20455C63.1832 4.67424 63.4862 4.26136 63.865 3.96591C64.2476 3.66667 64.6643 3.45833 65.115 3.34091C65.5696 3.2197 66.0165 3.15909 66.4559 3.15909C66.7362 3.15909 67.0582 3.19318 67.4218 3.26136C67.7893 3.32576 68.1434 3.46023 68.4843 3.66477C68.829 3.86932 69.115 4.17803 69.3423 4.59091C69.5696 5.00379 69.6832 5.55682 69.6832 6.25V12H68.3423V10.8182H68.2741C68.1832 11.0076 68.0317 11.2102 67.8196 11.4261C67.6075 11.642 67.3253 11.8258 66.973 11.9773C66.6207 12.1288 66.1908 12.2045 65.6832 12.2045ZM65.8878 11C66.4181 11 66.865 10.8958 67.2287 10.6875C67.5961 10.4792 67.8726 10.2102 68.0582 9.88068C68.2476 9.55114 68.3423 9.20455 68.3423 8.84091V7.61364C68.2855 7.68182 68.1605 7.74432 67.9673 7.80114C67.7779 7.85417 67.5582 7.90151 67.3082 7.94318C67.062 7.98106 66.8215 8.01515 66.5866 8.04545C66.3556 8.07197 66.1681 8.0947 66.0241 8.11364C65.6756 8.15909 65.3499 8.23295 65.0468 8.33523C64.7476 8.43371 64.5052 8.58333 64.3196 8.78409C64.1378 8.98106 64.0468 9.25 64.0468 9.59091C64.0468 10.0568 64.2192 10.4091 64.5639 10.6477C64.9124 10.8826 65.3537 11 65.8878 11ZM80.1761 12.1818C79.3882 12.1818 78.6969 11.9943 78.1022 11.6193C77.5113 11.2443 77.0492 10.7197 76.7159 10.0455C76.3863 9.37121 76.2216 8.58333 76.2216 7.68182C76.2216 6.77273 76.3863 5.97917 76.7159 5.30114C77.0492 4.62311 77.5113 4.09659 78.1022 3.72159C78.6969 3.34659 79.3882 3.15909 80.1761 3.15909C80.964 3.15909 81.6534 3.34659 82.2443 3.72159C82.839 4.09659 83.3011 4.62311 83.6307 5.30114C83.964 5.97917 84.1307 6.77273 84.1307 7.68182C84.1307 8.58333 83.964 9.37121 83.6307 10.0455C83.3011 10.7197 82.839 11.2443 82.2443 11.6193C81.6534 11.9943 80.964 12.1818 80.1761 12.1818ZM80.1761 10.9773C80.7746 10.9773 81.267 10.8239 81.6534 10.517C82.0397 10.2102 82.3257 9.80682 82.5113 9.30682C82.6969 8.80682 82.7897 8.26515 82.7897 7.68182C82.7897 7.09848 82.6969 6.55492 82.5113 6.05114C82.3257 5.54735 82.0397 5.14015 81.6534 4.82955C81.267 4.51894 80.7746 4.36364 80.1761 4.36364C79.5776 4.36364 79.0852 4.51894 78.6988 4.82955C78.3125 5.14015 78.0265 5.54735 77.8409 6.05114C77.6553 6.55492 77.5625 7.09848 77.5625 7.68182C77.5625 8.26515 77.6553 8.80682 77.8409 9.30682C78.0265 9.80682 78.3125 10.2102 78.6988 10.517C79.0852 10.8239 79.5776 10.9773 80.1761 10.9773ZM86.1775 15.2727V3.27273H87.473V4.65909H87.6321C87.7306 4.50758 87.8669 4.31439 88.0412 4.07955C88.2192 3.84091 88.473 3.62879 88.8025 3.44318C89.1359 3.25379 89.5866 3.15909 90.1548 3.15909C90.8897 3.15909 91.5374 3.3428 92.098 3.71023C92.6586 4.07765 93.0961 4.59848 93.4105 5.27273C93.7249 5.94697 93.8821 6.74242 93.8821 7.65909C93.8821 8.58333 93.7249 9.38447 93.4105 10.0625C93.0961 10.7367 92.6605 11.2595 92.1037 11.6307C91.5468 11.9981 90.9048 12.1818 90.1775 12.1818C89.6169 12.1818 89.1681 12.089 88.8309 11.9034C88.4938 11.714 88.2343 11.5 88.0525 11.2614C87.8707 11.0189 87.7306 10.8182 87.6321 10.6591H87.5184V15.2727H86.1775ZM87.4957 7.63636C87.4957 8.29545 87.5923 8.87689 87.7855 9.38068C87.9787 9.88068 88.2609 10.2727 88.6321 10.5568C89.0033 10.8371 89.4578 10.9773 89.9957 10.9773C90.5563 10.9773 91.0241 10.8295 91.3991 10.5341C91.7779 10.2348 92.062 9.83333 92.2514 9.32955C92.4446 8.82197 92.5412 8.25758 92.5412 7.63636C92.5412 7.02273 92.4465 6.4697 92.2571 5.97727C92.0715 5.48106 91.7893 5.08902 91.4105 4.80114C91.0355 4.50947 90.5639 4.36364 89.9957 4.36364C89.4503 4.36364 88.9919 4.50189 88.6207 4.77841C88.2495 5.05114 87.9692 5.43371 87.7798 5.92614C87.5904 6.41477 87.4957 6.98485 87.4957 7.63636ZM99.473 12.1818C98.6548 12.1818 97.9503 11.9886 97.3593 11.6023C96.7684 11.2159 96.3139 10.6837 95.9957 10.0057C95.6775 9.32765 95.5184 8.55303 95.5184 7.68182C95.5184 6.79545 95.6813 6.01326 96.0071 5.33523C96.3366 4.65341 96.795 4.12121 97.3821 3.73864C97.973 3.35227 98.6624 3.15909 99.4503 3.15909C100.064 3.15909 100.617 3.27273 101.109 3.5C101.602 3.72727 102.005 4.04545 102.32 4.45455C102.634 4.86364 102.829 5.34091 102.905 5.88636H101.564C101.462 5.48864 101.234 5.13636 100.882 4.82955C100.534 4.51894 100.064 4.36364 99.473 4.36364C98.9503 4.36364 98.4919 4.5 98.098 4.77273C97.7078 5.04167 97.4029 5.42235 97.1832 5.91477C96.9673 6.40341 96.8593 6.97727 96.8593 7.63636C96.8593 8.31061 96.9654 8.89773 97.1775 9.39773C97.3934 9.89773 97.6965 10.286 98.0866 10.5625C98.4806 10.839 98.9427 10.9773 99.473 10.9773C99.8215 10.9773 100.138 10.9167 100.422 10.7955C100.706 10.6742 100.946 10.5 101.143 10.2727C101.34 10.0455 101.481 9.77273 101.564 9.45455H102.905C102.829 9.9697 102.642 10.4337 102.342 10.8466C102.047 11.2557 101.655 11.5814 101.166 11.8239C100.681 12.0625 100.117 12.1818 99.473 12.1818ZM98.8366 11.9545H99.9503L99.8593 12.4091C100.155 12.4545 100.426 12.5777 100.672 12.7784C100.918 12.983 101.041 13.3068 101.041 13.75C101.041 14.2386 100.839 14.6364 100.433 14.9432C100.032 15.2538 99.4389 15.4091 98.6548 15.4091L98.6093 14.5227C98.9616 14.5227 99.2533 14.4659 99.4843 14.3523C99.7192 14.2424 99.8366 14.0568 99.8366 13.7955C99.8366 13.5341 99.74 13.3561 99.5468 13.2614C99.3537 13.1667 99.0412 13.1023 98.6093 13.0682L98.8366 11.9545ZM108.41 12.1818C107.623 12.1818 106.931 11.9943 106.337 11.6193C105.746 11.2443 105.284 10.7197 104.95 10.0455C104.621 9.37121 104.456 8.58333 104.456 7.68182C104.456 6.77273 104.621 5.97917 104.95 5.30114C105.284 4.62311 105.746 4.09659 106.337 3.72159C106.931 3.34659 107.623 3.15909 108.41 3.15909C109.198 3.15909 109.888 3.34659 110.479 3.72159C111.073 4.09659 111.535 4.62311 111.865 5.30114C112.198 5.97917 112.365 6.77273 112.365 7.68182C112.365 8.58333 112.198 9.37121 111.865 10.0455C111.535 10.7197 111.073 11.2443 110.479 11.6193C109.888 11.9943 109.198 12.1818 108.41 12.1818ZM108.41 10.9773C109.009 10.9773 109.501 10.8239 109.888 10.517C110.274 10.2102 110.56 9.80682 110.746 9.30682C110.931 8.80682 111.024 8.26515 111.024 7.68182C111.024 7.09848 110.931 6.55492 110.746 6.05114C110.56 5.54735 110.274 5.14015 109.888 4.82955C109.501 4.51894 109.009 4.36364 108.41 4.36364C107.812 4.36364 107.32 4.51894 106.933 4.82955C106.547 5.14015 106.261 5.54735 106.075 6.05114C105.89 6.55492 105.797 7.09848 105.797 7.68182C105.797 8.26515 105.89 8.80682 106.075 9.30682C106.261 9.80682 106.547 10.2102 106.933 10.517C107.32 10.8239 107.812 10.9773 108.41 10.9773ZM106.66 2.22727L105.615 2.18182C105.615 1.60227 105.78 1.12879 106.109 0.761363C106.443 0.390151 106.854 0.204545 107.342 0.204545C107.558 0.204545 107.749 0.242424 107.916 0.318181C108.083 0.390151 108.242 0.473484 108.393 0.568181C108.545 0.662878 108.7 0.748106 108.859 0.823863C109.022 0.895833 109.206 0.931818 109.41 0.931818C109.626 0.931818 109.808 0.848485 109.956 0.681818C110.107 0.511363 110.183 0.306818 110.183 0.068181L111.206 0.159091C111.206 0.75 111.039 1.2197 110.706 1.56818C110.376 1.91667 109.967 2.09091 109.479 2.09091C109.217 2.09091 109.001 2.05492 108.831 1.98295C108.66 1.9072 108.509 1.82197 108.376 1.72727C108.244 1.63258 108.104 1.54924 107.956 1.47727C107.808 1.40151 107.626 1.36364 107.41 1.36364C107.195 1.36364 107.015 1.44886 106.871 1.61932C106.731 1.78598 106.66 1.98864 106.66 2.22727ZM118.071 12.1818C117.23 12.1818 116.505 11.9962 115.895 11.625C115.289 11.25 114.821 10.7273 114.491 10.0568C114.166 9.38258 114.003 8.59848 114.003 7.70455C114.003 6.81061 114.166 6.02273 114.491 5.34091C114.821 4.6553 115.279 4.12121 115.866 3.73864C116.457 3.35227 117.147 3.15909 117.935 3.15909C118.389 3.15909 118.838 3.23485 119.281 3.38636C119.724 3.53788 120.128 3.78409 120.491 4.125C120.855 4.46212 121.145 4.90909 121.361 5.46591C121.577 6.02273 121.685 6.70833 121.685 7.52273V8.09091H114.957V6.93182H120.321C120.321 6.43939 120.223 6 120.026 5.61364C119.832 5.22727 119.556 4.92235 119.196 4.69886C118.84 4.47538 118.419 4.36364 117.935 4.36364C117.401 4.36364 116.938 4.49621 116.548 4.76136C116.162 5.02273 115.865 5.36364 115.656 5.78409C115.448 6.20455 115.344 6.6553 115.344 7.13636V7.90909C115.344 8.56818 115.457 9.12689 115.685 9.58523C115.916 10.0398 116.236 10.3864 116.645 10.625C117.054 10.8598 117.529 10.9773 118.071 10.9773C118.423 10.9773 118.741 10.928 119.026 10.8295C119.313 10.7273 119.562 10.5758 119.77 10.375C119.978 10.1705 120.139 9.91667 120.253 9.61364L121.548 9.97727C121.412 10.4167 121.183 10.803 120.861 11.1364C120.539 11.4659 120.141 11.7235 119.668 11.9091C119.194 12.0909 118.662 12.1818 118.071 12.1818ZM129.906 5.22727L128.702 5.56818C128.626 5.36742 128.514 5.17235 128.366 4.98295C128.223 4.78977 128.026 4.63068 127.776 4.50568C127.526 4.38068 127.205 4.31818 126.815 4.31818C126.281 4.31818 125.836 4.44129 125.48 4.6875C125.128 4.92992 124.952 5.23864 124.952 5.61364C124.952 5.94697 125.073 6.21023 125.315 6.40341C125.558 6.59659 125.937 6.75758 126.452 6.88636L127.747 7.20455C128.527 7.39394 129.109 7.68371 129.491 8.07386C129.874 8.46023 130.065 8.95833 130.065 9.56818C130.065 10.0682 129.921 10.5152 129.633 10.9091C129.349 11.303 128.952 11.6136 128.44 11.8409C127.929 12.0682 127.334 12.1818 126.656 12.1818C125.766 12.1818 125.029 11.9886 124.446 11.6023C123.863 11.2159 123.493 10.6515 123.338 9.90909L124.611 9.59091C124.732 10.0606 124.961 10.4129 125.298 10.6477C125.639 10.8826 126.084 11 126.633 11C127.258 11 127.755 10.8674 128.122 10.6023C128.493 10.3333 128.679 10.0114 128.679 9.63636C128.679 9.33333 128.573 9.07955 128.361 8.875C128.149 8.66667 127.823 8.51136 127.383 8.40909L125.929 8.06818C125.13 7.87879 124.543 7.58523 124.168 7.1875C123.796 6.78598 123.611 6.28409 123.611 5.68182C123.611 5.18939 123.749 4.75379 124.026 4.375C124.306 3.99621 124.687 3.69886 125.168 3.48295C125.652 3.26705 126.202 3.15909 126.815 3.15909C127.679 3.15909 128.357 3.34848 128.849 3.72727C129.346 4.10606 129.698 4.60606 129.906 5.22727ZM140.243 12.1818C139.402 12.1818 138.677 11.9962 138.067 11.625C137.461 11.25 136.993 10.7273 136.663 10.0568C136.338 9.38258 136.175 8.59848 136.175 7.70455C136.175 6.81061 136.338 6.02273 136.663 5.34091C136.993 4.6553 137.451 4.12121 138.038 3.73864C138.629 3.35227 139.319 3.15909 140.107 3.15909C140.561 3.15909 141.01 3.23485 141.453 3.38636C141.896 3.53788 142.3 3.78409 142.663 4.125C143.027 4.46212 143.317 4.90909 143.533 5.46591C143.749 6.02273 143.857 6.70833 143.857 7.52273V8.09091H137.129V6.93182H142.493C142.493 6.43939 142.394 6 142.197 5.61364C142.004 5.22727 141.728 4.92235 141.368 4.69886C141.012 4.47538 140.591 4.36364 140.107 4.36364C139.572 4.36364 139.11 4.49621 138.72 4.76136C138.334 5.02273 138.036 5.36364 137.828 5.78409C137.62 6.20455 137.516 6.6553 137.516 7.13636V7.90909C137.516 8.56818 137.629 9.12689 137.857 9.58523C138.088 10.0398 138.408 10.3864 138.817 10.625C139.226 10.8598 139.701 10.9773 140.243 10.9773C140.595 10.9773 140.913 10.928 141.197 10.8295C141.485 10.7273 141.733 10.5758 141.942 10.375C142.15 10.1705 142.311 9.91667 142.425 9.61364L143.72 9.97727C143.584 10.4167 143.355 10.803 143.033 11.1364C142.711 11.4659 142.313 11.7235 141.839 11.9091C141.366 12.0909 140.834 12.1818 140.243 12.1818ZM152.078 5.22727L150.874 5.56818C150.798 5.36742 150.686 5.17235 150.538 4.98295C150.394 4.78977 150.197 4.63068 149.947 4.50568C149.697 4.38068 149.377 4.31818 148.987 4.31818C148.453 4.31818 148.008 4.44129 147.652 4.6875C147.3 4.92992 147.124 5.23864 147.124 5.61364C147.124 5.94697 147.245 6.21023 147.487 6.40341C147.73 6.59659 148.108 6.75758 148.624 6.88636L149.919 7.20455C150.699 7.39394 151.281 7.68371 151.663 8.07386C152.046 8.46023 152.237 8.95833 152.237 9.56818C152.237 10.0682 152.093 10.5152 151.805 10.9091C151.521 11.303 151.124 11.6136 150.612 11.8409C150.101 12.0682 149.506 12.1818 148.828 12.1818C147.938 12.1818 147.201 11.9886 146.618 11.6023C146.035 11.2159 145.665 10.6515 145.51 9.90909L146.783 9.59091C146.904 10.0606 147.133 10.4129 147.47 10.6477C147.811 10.8826 148.256 11 148.805 11C149.43 11 149.927 10.8674 150.294 10.6023C150.665 10.3333 150.851 10.0114 150.851 9.63636C150.851 9.33333 150.745 9.07955 150.533 8.875C150.321 8.66667 149.995 8.51136 149.555 8.40909L148.101 8.06818C147.302 7.87879 146.714 7.58523 146.339 7.1875C145.968 6.78598 145.783 6.28409 145.783 5.68182C145.783 5.18939 145.921 4.75379 146.197 4.375C146.478 3.99621 146.858 3.69886 147.339 3.48295C147.824 3.26705 148.374 3.15909 148.987 3.15909C149.851 3.15909 150.529 3.34848 151.021 3.72727C151.517 4.10606 151.87 4.60606 152.078 5.22727ZM157.801 12.1818C156.983 12.1818 156.278 11.9886 155.687 11.6023C155.097 11.2159 154.642 10.6837 154.324 10.0057C154.006 9.32765 153.847 8.55303 153.847 7.68182C153.847 6.79545 154.009 6.01326 154.335 5.33523C154.665 4.65341 155.123 4.12121 155.71 3.73864C156.301 3.35227 156.991 3.15909 157.778 3.15909C158.392 3.15909 158.945 3.27273 159.437 3.5C159.93 3.72727 160.333 4.04545 160.648 4.45455C160.962 4.86364 161.157 5.34091 161.233 5.88636H159.892C159.79 5.48864 159.562 5.13636 159.21 4.82955C158.862 4.51894 158.392 4.36364 157.801 4.36364C157.278 4.36364 156.82 4.5 156.426 4.77273C156.036 5.04167 155.731 5.42235 155.511 5.91477C155.295 6.40341 155.187 6.97727 155.187 7.63636C155.187 8.31061 155.294 8.89773 155.506 9.39773C155.722 9.89773 156.025 10.286 156.415 10.5625C156.809 10.839 157.271 10.9773 157.801 10.9773C158.15 10.9773 158.466 10.9167 158.75 10.7955C159.034 10.6742 159.275 10.5 159.472 10.2727C159.669 10.0455 159.809 9.77273 159.892 9.45455H161.233C161.157 9.9697 160.97 10.4337 160.67 10.8466C160.375 11.2557 159.983 11.5814 159.494 11.8239C159.009 12.0625 158.445 12.1818 157.801 12.1818ZM166.739 12.1818C165.951 12.1818 165.259 11.9943 164.665 11.6193C164.074 11.2443 163.612 10.7197 163.278 10.0455C162.949 9.37121 162.784 8.58333 162.784 7.68182C162.784 6.77273 162.949 5.97917 163.278 5.30114C163.612 4.62311 164.074 4.09659 164.665 3.72159C165.259 3.34659 165.951 3.15909 166.739 3.15909C167.526 3.15909 168.216 3.34659 168.807 3.72159C169.401 4.09659 169.864 4.62311 170.193 5.30114C170.526 5.97917 170.693 6.77273 170.693 7.68182C170.693 8.58333 170.526 9.37121 170.193 10.0455C169.864 10.7197 169.401 11.2443 168.807 11.6193C168.216 11.9943 167.526 12.1818 166.739 12.1818ZM166.739 10.9773C167.337 10.9773 167.83 10.8239 168.216 10.517C168.602 10.2102 168.888 9.80682 169.074 9.30682C169.259 8.80682 169.352 8.26515 169.352 7.68182C169.352 7.09848 169.259 6.55492 169.074 6.05114C168.888 5.54735 168.602 5.14015 168.216 4.82955C167.83 4.51894 167.337 4.36364 166.739 4.36364C166.14 4.36364 165.648 4.51894 165.261 4.82955C164.875 5.14015 164.589 5.54735 164.403 6.05114C164.218 6.55492 164.125 7.09848 164.125 7.68182C164.125 8.26515 164.218 8.80682 164.403 9.30682C164.589 9.80682 164.875 10.2102 165.261 10.517C165.648 10.8239 166.14 10.9773 166.739 10.9773ZM174.081 6.75V12H172.74V3.27273H174.035V4.63636H174.149C174.354 4.19318 174.664 3.83712 175.081 3.56818C175.498 3.29545 176.035 3.15909 176.695 3.15909C177.285 3.15909 177.803 3.2803 178.246 3.52273C178.689 3.76136 179.034 4.125 179.28 4.61364C179.526 5.09848 179.649 5.71212 179.649 6.45455V12H178.308V6.54545C178.308 5.85985 178.13 5.32576 177.774 4.94318C177.418 4.55682 176.929 4.36364 176.308 4.36364C175.88 4.36364 175.498 4.45644 175.16 4.64205C174.827 4.82765 174.564 5.09848 174.371 5.45455C174.178 5.81061 174.081 6.24242 174.081 6.75ZM185.395 12.1818C184.668 12.1818 184.026 11.9981 183.469 11.6307C182.912 11.2595 182.476 10.7367 182.162 10.0625C181.848 9.38447 181.69 8.58333 181.69 7.65909C181.69 6.74242 181.848 5.94697 182.162 5.27273C182.476 4.59848 182.914 4.07765 183.474 3.71023C184.035 3.3428 184.683 3.15909 185.418 3.15909C185.986 3.15909 186.435 3.25379 186.764 3.44318C187.098 3.62879 187.351 3.84091 187.526 4.07955C187.704 4.31439 187.842 4.50758 187.94 4.65909H188.054V0.363636H189.395V12H188.099V10.6591H187.94C187.842 10.8182 187.702 11.0189 187.52 11.2614C187.338 11.5 187.079 11.714 186.741 11.9034C186.404 12.089 185.955 12.1818 185.395 12.1818ZM185.577 10.9773C186.115 10.9773 186.569 10.8371 186.94 10.5568C187.312 10.2727 187.594 9.88068 187.787 9.38068C187.98 8.87689 188.077 8.29545 188.077 7.63636C188.077 6.98485 187.982 6.41477 187.793 5.92614C187.603 5.43371 187.323 5.05114 186.952 4.77841C186.58 4.50189 186.122 4.36364 185.577 4.36364C185.008 4.36364 184.535 4.50947 184.156 4.80114C183.781 5.08902 183.499 5.48106 183.31 5.97727C183.124 6.4697 183.031 7.02273 183.031 7.63636C183.031 8.25758 183.126 8.82197 183.315 9.32955C183.508 9.83333 183.793 10.2348 184.168 10.5341C184.546 10.8295 185.016 10.9773 185.577 10.9773ZM192.037 12V3.27273H193.378V12H192.037ZM192.719 1.81818C192.457 1.81818 192.232 1.72917 192.043 1.55114C191.857 1.37311 191.764 1.15909 191.764 0.909091C191.764 0.659091 191.857 0.445076 192.043 0.267045C192.232 0.089015 192.457 0 192.719 0C192.98 0 193.204 0.089015 193.389 0.267045C193.579 0.445076 193.673 0.659091 193.673 0.909091C193.673 1.15909 193.579 1.37311 193.389 1.55114C193.204 1.72917 192.98 1.81818 192.719 1.81818ZM199.129 12.1818C198.402 12.1818 197.76 11.9981 197.203 11.6307C196.646 11.2595 196.211 10.7367 195.896 10.0625C195.582 9.38447 195.425 8.58333 195.425 7.65909C195.425 6.74242 195.582 5.94697 195.896 5.27273C196.211 4.59848 196.648 4.07765 197.209 3.71023C197.769 3.3428 198.417 3.15909 199.152 3.15909C199.72 3.15909 200.169 3.25379 200.499 3.44318C200.832 3.62879 201.086 3.84091 201.26 4.07955C201.438 4.31439 201.576 4.50758 201.675 4.65909H201.788V0.363636H203.129V12H201.834V10.6591H201.675C201.576 10.8182 201.436 11.0189 201.254 11.2614C201.072 11.5 200.813 11.714 200.476 11.9034C200.139 12.089 199.69 12.1818 199.129 12.1818ZM199.311 10.9773C199.849 10.9773 200.303 10.8371 200.675 10.5568C201.046 10.2727 201.328 9.88068 201.521 9.38068C201.714 8.87689 201.811 8.29545 201.811 7.63636C201.811 6.98485 201.716 6.41477 201.527 5.92614C201.338 5.43371 201.057 5.05114 200.686 4.77841C200.315 4.50189 199.857 4.36364 199.311 4.36364C198.743 4.36364 198.269 4.50947 197.891 4.80114C197.516 5.08902 197.233 5.48106 197.044 5.97727C196.858 6.4697 196.766 7.02273 196.766 7.63636C196.766 8.25758 196.86 8.82197 197.05 9.32955C197.243 9.83333 197.527 10.2348 197.902 10.5341C198.281 10.8295 198.75 10.9773 199.311 10.9773ZM208.339 12.2045C207.786 12.2045 207.285 12.1004 206.834 11.892C206.383 11.6799 206.025 11.375 205.76 10.9773C205.495 10.5758 205.362 10.0909 205.362 9.52273C205.362 9.02273 205.461 8.61742 205.658 8.30682C205.855 7.99242 206.118 7.74621 206.447 7.56818C206.777 7.39015 207.141 7.25758 207.538 7.17045C207.94 7.07955 208.343 7.00758 208.749 6.95455C209.279 6.88636 209.709 6.83523 210.038 6.80114C210.372 6.76326 210.614 6.70076 210.766 6.61364C210.921 6.52652 210.999 6.375 210.999 6.15909V6.11364C210.999 5.55303 210.845 5.11742 210.538 4.80682C210.235 4.49621 209.775 4.34091 209.158 4.34091C208.517 4.34091 208.016 4.48106 207.652 4.76136C207.288 5.04167 207.033 5.34091 206.885 5.65909L205.612 5.20455C205.839 4.67424 206.142 4.26136 206.521 3.96591C206.904 3.66667 207.321 3.45833 207.771 3.34091C208.226 3.2197 208.673 3.15909 209.112 3.15909C209.392 3.15909 209.714 3.19318 210.078 3.26136C210.446 3.32576 210.8 3.46023 211.141 3.66477C211.485 3.86932 211.771 4.17803 211.999 4.59091C212.226 5.00379 212.339 5.55682 212.339 6.25V12H210.999V10.8182H210.93C210.839 11.0076 210.688 11.2102 210.476 11.4261C210.264 11.642 209.982 11.8258 209.629 11.9773C209.277 12.1288 208.847 12.2045 208.339 12.2045ZM208.544 11C209.074 11 209.521 10.8958 209.885 10.6875C210.252 10.4792 210.529 10.2102 210.714 9.88068C210.904 9.55114 210.999 9.20455 210.999 8.84091V7.61364C210.942 7.68182 210.817 7.74432 210.624 7.80114C210.434 7.85417 210.214 7.90151 209.964 7.94318C209.718 7.98106 209.478 8.01515 209.243 8.04545C209.012 8.07197 208.824 8.0947 208.68 8.11364C208.332 8.15909 208.006 8.23295 207.703 8.33523C207.404 8.43371 207.161 8.58333 206.976 8.78409C206.794 8.98106 206.703 9.25 206.703 9.59091C206.703 10.0568 206.875 10.4091 207.22 10.6477C207.569 10.8826 208.01 11 208.544 11ZM220.969 5.22727L219.764 5.56818C219.688 5.36742 219.577 5.17235 219.429 4.98295C219.285 4.78977 219.088 4.63068 218.838 4.50568C218.588 4.38068 218.268 4.31818 217.878 4.31818C217.344 4.31818 216.899 4.44129 216.543 4.6875C216.19 4.92992 216.014 5.23864 216.014 5.61364C216.014 5.94697 216.135 6.21023 216.378 6.40341C216.62 6.59659 216.999 6.75758 217.514 6.88636L218.81 7.20455C219.59 7.39394 220.171 7.68371 220.554 8.07386C220.937 8.46023 221.128 8.95833 221.128 9.56818C221.128 10.0682 220.984 10.5152 220.696 10.9091C220.412 11.303 220.014 11.6136 219.503 11.8409C218.991 12.0682 218.397 12.1818 217.719 12.1818C216.829 12.1818 216.092 11.9886 215.508 11.6023C214.925 11.2159 214.556 10.6515 214.401 9.90909L215.673 9.59091C215.794 10.0606 216.024 10.4129 216.361 10.6477C216.702 10.8826 217.147 11 217.696 11C218.321 11 218.817 10.8674 219.185 10.6023C219.556 10.3333 219.741 10.0114 219.741 9.63636C219.741 9.33333 219.635 9.07955 219.423 8.875C219.211 8.66667 218.885 8.51136 218.446 8.40909L216.991 8.06818C216.192 7.87879 215.605 7.58523 215.23 7.1875C214.859 6.78598 214.673 6.28409 214.673 5.68182C214.673 5.18939 214.812 4.75379 215.088 4.375C215.368 3.99621 215.749 3.69886 216.23 3.48295C216.715 3.26705 217.264 3.15909 217.878 3.15909C218.741 3.15909 219.419 3.34848 219.912 3.72727C220.408 4.10606 220.76 4.60606 220.969 5.22727ZM227.646 15.2727V3.27273H228.942V4.65909H229.101C229.199 4.50758 229.336 4.31439 229.51 4.07955C229.688 3.84091 229.942 3.62879 230.271 3.44318C230.605 3.25379 231.055 3.15909 231.624 3.15909C232.358 3.15909 233.006 3.3428 233.567 3.71023C234.127 4.07765 234.565 4.59848 234.879 5.27273C235.194 5.94697 235.351 6.74242 235.351 7.65909C235.351 8.58333 235.194 9.38447 234.879 10.0625C234.565 10.7367 234.129 11.2595 233.572 11.6307C233.016 11.9981 232.374 12.1818 231.646 12.1818C231.086 12.1818 230.637 12.089 230.3 11.9034C229.963 11.714 229.703 11.5 229.521 11.2614C229.339 11.0189 229.199 10.8182 229.101 10.6591H228.987V15.2727H227.646ZM228.964 7.63636C228.964 8.29545 229.061 8.87689 229.254 9.38068C229.447 9.88068 229.73 10.2727 230.101 10.5568C230.472 10.8371 230.927 10.9773 231.464 10.9773C232.025 10.9773 232.493 10.8295 232.868 10.5341C233.247 10.2348 233.531 9.83333 233.72 9.32955C233.913 8.82197 234.01 8.25758 234.01 7.63636C234.01 7.02273 233.915 6.4697 233.726 5.97727C233.54 5.48106 233.258 5.08902 232.879 4.80114C232.504 4.50947 232.033 4.36364 231.464 4.36364C230.919 4.36364 230.461 4.50189 230.089 4.77841C229.718 5.05114 229.438 5.43371 229.249 5.92614C229.059 6.41477 228.964 6.98485 228.964 7.63636ZM241.055 12.1818C240.214 12.1818 239.489 11.9962 238.879 11.625C238.273 11.25 237.805 10.7273 237.476 10.0568C237.15 9.38258 236.987 8.59848 236.987 7.70455C236.987 6.81061 237.15 6.02273 237.476 5.34091C237.805 4.6553 238.264 4.12121 238.851 3.73864C239.442 3.35227 240.131 3.15909 240.919 3.15909C241.374 3.15909 241.822 3.23485 242.266 3.38636C242.709 3.53788 243.112 3.78409 243.476 4.125C243.839 4.46212 244.129 4.90909 244.345 5.46591C244.561 6.02273 244.669 6.70833 244.669 7.52273V8.09091H237.942V6.93182H243.305C243.305 6.43939 243.207 6 243.01 5.61364C242.817 5.22727 242.54 4.92235 242.18 4.69886C241.824 4.47538 241.404 4.36364 240.919 4.36364C240.385 4.36364 239.923 4.49621 239.533 4.76136C239.146 5.02273 238.849 5.36364 238.641 5.78409C238.432 6.20455 238.328 6.6553 238.328 7.13636V7.90909C238.328 8.56818 238.442 9.12689 238.669 9.58523C238.9 10.0398 239.22 10.3864 239.629 10.625C240.038 10.8598 240.514 10.9773 241.055 10.9773C241.408 10.9773 241.726 10.928 242.01 10.8295C242.298 10.7273 242.546 10.5758 242.754 10.375C242.963 10.1705 243.124 9.91667 243.237 9.61364L244.533 9.97727C244.396 10.4167 244.167 10.803 243.845 11.1364C243.523 11.4659 243.125 11.7235 242.652 11.9091C242.178 12.0909 241.646 12.1818 241.055 12.1818ZM246.709 12V3.27273H248.004V4.59091H248.095C248.254 4.15909 248.542 3.80871 248.959 3.53977C249.375 3.27083 249.845 3.13636 250.368 3.13636C250.466 3.13636 250.589 3.13826 250.737 3.14205C250.885 3.14583 250.997 3.15152 251.072 3.15909V4.52273C251.027 4.51136 250.923 4.49432 250.76 4.47159C250.601 4.44508 250.432 4.43182 250.254 4.43182C249.83 4.43182 249.451 4.52083 249.118 4.69886C248.788 4.87311 248.527 5.11553 248.334 5.42614C248.144 5.73295 248.05 6.08333 248.05 6.47727V12H246.709ZM257.004 3.27273V4.40909H252.482V3.27273H257.004ZM253.8 1.18182H255.141V9.5C255.141 9.87879 255.196 10.1629 255.305 10.3523C255.419 10.5379 255.563 10.6629 255.737 10.7273C255.915 10.7879 256.103 10.8182 256.3 10.8182C256.447 10.8182 256.569 10.8106 256.663 10.7955C256.758 10.7765 256.834 10.7614 256.891 10.75L257.163 11.9545C257.072 11.9886 256.946 12.0227 256.783 12.0568C256.62 12.0947 256.413 12.1136 256.163 12.1136C255.785 12.1136 255.413 12.0322 255.05 11.8693C254.69 11.7064 254.391 11.4583 254.152 11.125C253.917 10.7917 253.8 10.3712 253.8 9.86364V1.18182ZM262.473 12.1818C261.685 12.1818 260.994 11.9943 260.399 11.6193C259.808 11.2443 259.346 10.7197 259.013 10.0455C258.683 9.37121 258.518 8.58333 258.518 7.68182C258.518 6.77273 258.683 5.97917 259.013 5.30114C259.346 4.62311 259.808 4.09659 260.399 3.72159C260.994 3.34659 261.685 3.15909 262.473 3.15909C263.261 3.15909 263.95 3.34659 264.541 3.72159C265.136 4.09659 265.598 4.62311 265.928 5.30114C266.261 5.97917 266.428 6.77273 266.428 7.68182C266.428 8.58333 266.261 9.37121 265.928 10.0455C265.598 10.7197 265.136 11.2443 264.541 11.6193C263.95 11.9943 263.261 12.1818 262.473 12.1818ZM262.473 10.9773C263.071 10.9773 263.564 10.8239 263.95 10.517C264.337 10.2102 264.623 9.80682 264.808 9.30682C264.994 8.80682 265.087 8.26515 265.087 7.68182C265.087 7.09848 264.994 6.55492 264.808 6.05114C264.623 5.54735 264.337 5.14015 263.95 4.82955C263.564 4.51894 263.071 4.36364 262.473 4.36364C261.874 4.36364 261.382 4.51894 260.996 4.82955C260.609 5.14015 260.323 5.54735 260.138 6.05114C259.952 6.55492 259.859 7.09848 259.859 7.68182C259.859 8.26515 259.952 8.80682 260.138 9.30682C260.323 9.80682 260.609 10.2102 260.996 10.517C261.382 10.8239 261.874 10.9773 262.473 10.9773ZM276.27 12.1818C275.543 12.1818 274.901 11.9981 274.344 11.6307C273.787 11.2595 273.351 10.7367 273.037 10.0625C272.723 9.38447 272.565 8.58333 272.565 7.65909C272.565 6.74242 272.723 5.94697 273.037 5.27273C273.351 4.59848 273.789 4.07765 274.349 3.71023C274.91 3.3428 275.558 3.15909 276.293 3.15909C276.861 3.15909 277.31 3.25379 277.639 3.44318C277.973 3.62879 278.226 3.84091 278.401 4.07955C278.579 4.31439 278.717 4.50758 278.815 4.65909H278.929V0.363636H280.27V12H278.974V10.6591H278.815C278.717 10.8182 278.577 11.0189 278.395 11.2614C278.213 11.5 277.954 11.714 277.616 11.9034C277.279 12.089 276.83 12.1818 276.27 12.1818ZM276.452 10.9773C276.99 10.9773 277.444 10.8371 277.815 10.5568C278.187 10.2727 278.469 9.88068 278.662 9.38068C278.855 8.87689 278.952 8.29545 278.952 7.63636C278.952 6.98485 278.857 6.41477 278.668 5.92614C278.478 5.43371 278.198 5.05114 277.827 4.77841C277.455 4.50189 276.997 4.36364 276.452 4.36364C275.883 4.36364 275.41 4.50947 275.031 4.80114C274.656 5.08902 274.374 5.48106 274.185 5.97727C273.999 6.4697 273.906 7.02273 273.906 7.63636C273.906 8.25758 274.001 8.82197 274.19 9.32955C274.383 9.83333 274.668 10.2348 275.043 10.5341C275.421 10.8295 275.891 10.9773 276.452 10.9773ZM285.48 12.2045C284.927 12.2045 284.425 12.1004 283.974 11.892C283.524 11.6799 283.166 11.375 282.901 10.9773C282.635 10.5758 282.503 10.0909 282.503 9.52273C282.503 9.02273 282.601 8.61742 282.798 8.30682C282.995 7.99242 283.258 7.74621 283.588 7.56818C283.918 7.39015 284.281 7.25758 284.679 7.17045C285.08 7.07955 285.484 7.00758 285.889 6.95455C286.419 6.88636 286.849 6.83523 287.179 6.80114C287.512 6.76326 287.755 6.70076 287.906 6.61364C288.062 6.52652 288.139 6.375 288.139 6.15909V6.11364C288.139 5.55303 287.986 5.11742 287.679 4.80682C287.376 4.49621 286.916 4.34091 286.298 4.34091C285.658 4.34091 285.156 4.48106 284.793 4.76136C284.429 5.04167 284.173 5.34091 284.026 5.65909L282.753 5.20455C282.98 4.67424 283.283 4.26136 283.662 3.96591C284.044 3.66667 284.461 3.45833 284.912 3.34091C285.366 3.2197 285.813 3.15909 286.253 3.15909C286.533 3.15909 286.855 3.19318 287.219 3.26136C287.586 3.32576 287.94 3.46023 288.281 3.66477C288.626 3.86932 288.912 4.17803 289.139 4.59091C289.366 5.00379 289.48 5.55682 289.48 6.25V12H288.139V10.8182H288.071C287.98 11.0076 287.829 11.2102 287.616 11.4261C287.404 11.642 287.122 11.8258 286.77 11.9773C286.418 12.1288 285.988 12.2045 285.48 12.2045ZM285.685 11C286.215 11 286.662 10.8958 287.026 10.6875C287.393 10.4792 287.669 10.2102 287.855 9.88068C288.044 9.55114 288.139 9.20455 288.139 8.84091V7.61364C288.082 7.68182 287.957 7.74432 287.764 7.80114C287.575 7.85417 287.355 7.90151 287.105 7.94318C286.859 7.98106 286.618 8.01515 286.383 8.04545C286.152 8.07197 285.965 8.0947 285.821 8.11364C285.473 8.15909 285.147 8.23295 284.844 8.33523C284.544 8.43371 284.302 8.58333 284.116 8.78409C283.935 8.98106 283.844 9.25 283.844 9.59091C283.844 10.0568 284.016 10.4091 284.361 10.6477C284.709 10.8826 285.151 11 285.685 11ZM296.609 12V0.363636H300.541C301.454 0.363636 302.2 0.528409 302.78 0.857954C303.363 1.18371 303.795 1.625 304.075 2.18182C304.356 2.73864 304.496 3.35985 304.496 4.04545C304.496 4.73106 304.356 5.35417 304.075 5.91477C303.799 6.47538 303.371 6.92235 302.791 7.25568C302.212 7.58523 301.469 7.75 300.564 7.75H297.746V6.5H300.518C301.143 6.5 301.645 6.39205 302.024 6.17614C302.403 5.96023 302.678 5.66856 302.848 5.30114C303.022 4.92992 303.109 4.51136 303.109 4.04545C303.109 3.57955 303.022 3.16288 302.848 2.79545C302.678 2.42803 302.401 2.14015 302.018 1.93182C301.636 1.7197 301.128 1.61364 300.496 1.61364H298.018V12H296.609ZM314.402 0.363636H315.811V8.06818C315.811 8.86364 315.624 9.57386 315.249 10.1989C314.877 10.8201 314.353 11.3106 313.675 11.6705C312.997 12.0265 312.201 12.2045 311.288 12.2045C310.375 12.2045 309.58 12.0265 308.902 11.6705C308.224 11.3106 307.697 10.8201 307.322 10.1989C306.951 9.57386 306.766 8.86364 306.766 8.06818V0.363636H308.175V7.95455C308.175 8.52273 308.3 9.02841 308.55 9.47159C308.8 9.91098 309.156 10.2576 309.618 10.5114C310.084 10.7614 310.641 10.8864 311.288 10.8864C311.936 10.8864 312.493 10.7614 312.959 10.5114C313.425 10.2576 313.781 9.91098 314.027 9.47159C314.277 9.02841 314.402 8.52273 314.402 7.95455V0.363636ZM327.989 4H326.58C326.496 3.5947 326.35 3.23864 326.142 2.93182C325.937 2.625 325.687 2.36742 325.392 2.15909C325.1 1.94697 324.776 1.78788 324.42 1.68182C324.064 1.57576 323.693 1.52273 323.307 1.52273C322.602 1.52273 321.964 1.70076 321.392 2.05682C320.824 2.41288 320.371 2.9375 320.034 3.63068C319.701 4.32386 319.534 5.17424 319.534 6.18182C319.534 7.18939 319.701 8.03977 320.034 8.73295C320.371 9.42614 320.824 9.95076 321.392 10.3068C321.964 10.6629 322.602 10.8409 323.307 10.8409C323.693 10.8409 324.064 10.7879 324.42 10.6818C324.776 10.5758 325.1 10.4186 325.392 10.2102C325.687 9.99811 325.937 9.73864 326.142 9.43182C326.35 9.12121 326.496 8.76515 326.58 8.36364H327.989C327.883 8.95833 327.689 9.49053 327.409 9.96023C327.129 10.4299 326.78 10.8295 326.364 11.1591C325.947 11.4848 325.479 11.733 324.96 11.9034C324.445 12.0739 323.894 12.1591 323.307 12.1591C322.314 12.1591 321.432 11.9167 320.659 11.4318C319.886 10.947 319.278 10.2576 318.835 9.36364C318.392 8.4697 318.17 7.40909 318.17 6.18182C318.17 4.95455 318.392 3.89394 318.835 3C319.278 2.10606 319.886 1.41667 320.659 0.931818C321.432 0.446969 322.314 0.204545 323.307 0.204545C323.894 0.204545 324.445 0.289772 324.96 0.460227C325.479 0.630682 325.947 0.880682 326.364 1.21023C326.78 1.53598 327.129 1.93371 327.409 2.40341C327.689 2.86932 327.883 3.40151 327.989 4Z" fill="black"/>
</svg>
