<svg width="112" height="20" viewBox="0 0 112 20" fill="none" xmlns="http://www.w3.org/2000/svg">
<path d="M6.71591 18.75H0V1.29545H6.64773C8.44318 1.29545 9.99432 1.64489 11.3011 2.34375C12.6136 3.03693 13.625 4.03693 14.3352 5.34375C15.0511 6.64489 15.4091 8.20455 15.4091 10.0227C15.4091 11.8409 15.054 13.4034 14.3438 14.7102C13.6335 16.0114 12.6278 17.0114 11.3267 17.7102C10.0256 18.4034 8.48864 18.75 6.71591 18.75ZM4.73864 14.7273H6.54545C7.40909 14.7273 8.14489 14.5881 8.75284 14.3097C9.36648 14.0312 9.83239 13.5511 10.1506 12.8693C10.4744 12.1875 10.6364 11.2386 10.6364 10.0227C10.6364 8.80682 10.4716 7.85795 10.142 7.17614C9.81818 6.49432 9.34091 6.0142 8.71023 5.73579C8.08523 5.45739 7.31818 5.31818 6.40909 5.31818H4.73864V14.7273ZM17.6697 18.75V5.65909H22.3743V18.75H17.6697ZM20.022 4.29545C19.3857 4.29545 18.8402 4.08523 18.3857 3.66477C17.9311 3.24432 17.7038 2.73864 17.7038 2.14773C17.7038 1.55682 17.9311 1.05114 18.3857 0.630681C18.8402 0.210227 19.3857 0 20.022 0C20.6641 0 21.2095 0.210227 21.6584 0.630681C22.1129 1.05114 22.3402 1.55682 22.3402 2.14773C22.3402 2.73864 22.1129 3.24432 21.6584 3.66477C21.2095 4.08523 20.6641 4.29545 20.022 4.29545ZM36.7372 9.92045H32.4077C32.3849 9.65341 32.2912 9.4233 32.1264 9.23011C31.9616 9.03693 31.7486 8.8892 31.4872 8.78693C31.2315 8.67898 30.9474 8.625 30.6349 8.625C30.2315 8.625 29.8849 8.69886 29.5952 8.84659C29.3054 8.99432 29.1634 9.20455 29.169 9.47727C29.1634 9.67045 29.2457 9.84943 29.4162 10.0142C29.5923 10.179 29.9304 10.3068 30.4304 10.3977L33.0895 10.875C34.4304 11.1193 35.4276 11.5312 36.081 12.1108C36.7401 12.6847 37.0724 13.4545 37.0781 14.4205C37.0724 15.3523 36.794 16.1619 36.2429 16.8494C35.6974 17.5312 34.9503 18.0597 34.0014 18.4347C33.0582 18.804 31.9815 18.9886 30.7713 18.9886C28.7713 18.9886 27.206 18.5795 26.0753 17.7614C24.9503 16.9432 24.3224 15.8636 24.1918 14.5227H28.8622C28.9247 14.9375 29.1293 15.2585 29.4759 15.4858C29.8281 15.7074 30.2713 15.8182 30.8054 15.8182C31.2372 15.8182 31.5923 15.7443 31.8707 15.5966C32.1548 15.4489 32.2997 15.2386 32.3054 14.9659C32.2997 14.7159 32.1747 14.517 31.9304 14.3693C31.6918 14.2216 31.3168 14.1023 30.8054 14.0114L28.4872 13.6023C27.152 13.3693 26.152 12.9261 25.4872 12.2727C24.8224 11.6193 24.4929 10.7784 24.4986 9.75C24.4929 8.84091 24.7315 8.07102 25.2145 7.44034C25.7031 6.80398 26.3991 6.32102 27.3026 5.99148C28.2116 5.65625 29.2884 5.48864 30.5327 5.48864C32.4247 5.48864 33.9162 5.88068 35.0071 6.66477C36.1037 7.44886 36.6804 8.53409 36.7372 9.92045ZM46.6875 5.65909V9.06818H38.0625V5.65909H46.6875ZM39.733 2.52273H44.4375V14.5398C44.4375 14.7216 44.4688 14.875 44.5312 15C44.5938 15.1193 44.6903 15.2102 44.821 15.2727C44.9517 15.3295 45.1193 15.358 45.3239 15.358C45.4659 15.358 45.6307 15.3409 45.8182 15.3068C46.0114 15.2727 46.1534 15.2443 46.2443 15.2216L46.9261 18.5284C46.7159 18.5909 46.4148 18.6676 46.0227 18.7585C45.6364 18.8494 45.1761 18.9091 44.642 18.9375C43.5625 18.9943 42.6563 18.8835 41.9233 18.6051C41.1903 18.321 40.6392 17.875 40.2699 17.267C39.9006 16.6591 39.7216 15.8977 39.733 14.983V2.52273ZM52.255 18.9545C51.4197 18.9545 50.6811 18.8182 50.0391 18.5455C49.4027 18.267 48.9027 17.8466 48.5391 17.2841C48.1754 16.7216 47.9936 16.0057 47.9936 15.1364C47.9936 14.4205 48.1158 13.8097 48.3601 13.304C48.6044 12.7926 48.9453 12.375 49.3828 12.0511C49.8203 11.7273 50.3288 11.4801 50.9084 11.3097C51.4936 11.1392 52.1243 11.0284 52.8004 10.9773C53.5334 10.9205 54.1214 10.8523 54.5646 10.7727C55.0135 10.6875 55.3374 10.571 55.5362 10.4233C55.7351 10.2699 55.8345 10.0682 55.8345 9.81818V9.78409C55.8345 9.44318 55.7038 9.18182 55.4425 9C55.1811 8.81818 54.8459 8.72727 54.4368 8.72727C53.9879 8.72727 53.6214 8.8267 53.3374 9.02557C53.0589 9.21875 52.8913 9.51705 52.8345 9.92045H48.505C48.5618 9.125 48.8146 8.39205 49.2635 7.72159C49.718 7.04545 50.38 6.50568 51.2493 6.10227C52.1186 5.69318 53.2038 5.48864 54.505 5.48864C55.4425 5.48864 56.2834 5.59943 57.0277 5.82102C57.772 6.03693 58.4055 6.34091 58.9283 6.73295C59.451 7.11932 59.8487 7.57386 60.1214 8.09659C60.3999 8.61364 60.5391 9.17614 60.5391 9.78409V18.75H56.1413V16.9091H56.0391C55.7777 17.3977 55.4595 17.7926 55.0845 18.0938C54.7152 18.3949 54.2919 18.6136 53.8146 18.75C53.343 18.8864 52.8232 18.9545 52.255 18.9545ZM53.7891 15.9886C54.147 15.9886 54.4822 15.9148 54.7947 15.767C55.1129 15.6193 55.3714 15.4062 55.5703 15.1278C55.7692 14.8494 55.8686 14.5114 55.8686 14.1136V13.0227C55.7436 13.0739 55.6101 13.1222 55.468 13.1676C55.3317 13.2131 55.1839 13.2557 55.0249 13.2955C54.8714 13.3352 54.7067 13.3722 54.5305 13.4062C54.3601 13.4403 54.1811 13.4716 53.9936 13.5C53.63 13.5568 53.3317 13.6506 53.0987 13.7812C52.8714 13.9062 52.701 14.0625 52.5874 14.25C52.4794 14.4318 52.4254 14.6364 52.4254 14.8636C52.4254 15.2273 52.5533 15.5057 52.8089 15.6989C53.0646 15.892 53.3913 15.9886 53.7891 15.9886ZM56.3118 4.09091L54.6413 2.21591L52.9709 4.09091H49.0845V3.98864L53.005 0.102272H56.2777L60.1982 3.98864V4.09091H56.3118ZM67.4915 11.3864V18.75H62.7869V5.65909H67.2528V8.14773H67.3892C67.6733 7.31818 68.1733 6.66761 68.8892 6.19602C69.6108 5.72443 70.4517 5.48864 71.4119 5.48864C72.3381 5.48864 73.142 5.7017 73.8239 6.12784C74.5114 6.5483 75.0426 7.12784 75.4176 7.86648C75.7983 8.60511 75.9858 9.44886 75.9801 10.3977V18.75H71.2756V11.3864C71.2813 10.7386 71.1165 10.2301 70.7812 9.8608C70.4517 9.49148 69.9915 9.30682 69.4006 9.30682C69.0142 9.30682 68.6761 9.39205 68.3864 9.5625C68.1023 9.72727 67.8835 9.96591 67.7301 10.2784C67.5767 10.5852 67.4972 10.9545 67.4915 11.3864ZM84.6094 18.9886C83.1889 18.9886 81.973 18.7074 80.9616 18.1449C79.9503 17.5767 79.1747 16.7869 78.6349 15.7756C78.0952 14.7585 77.8253 13.5795 77.8253 12.2386C77.8253 10.8977 78.0952 9.72159 78.6349 8.71023C79.1747 7.69318 79.9503 6.90341 80.9616 6.34091C81.973 5.77273 83.1889 5.48864 84.6094 5.48864C85.8935 5.48864 87.0043 5.72159 87.9418 6.1875C88.8849 6.64773 89.6151 7.30114 90.1321 8.14773C90.6491 8.98864 90.9105 9.97727 90.9162 11.1136H86.5526C86.4901 10.4261 86.2912 9.90341 85.956 9.54545C85.6264 9.18182 85.2003 9 84.6776 9C84.2685 9 83.9105 9.11932 83.6037 9.35795C83.2969 9.59091 83.0582 9.94602 82.8878 10.4233C82.7173 10.8949 82.6321 11.4886 82.6321 12.2045C82.6321 12.9205 82.7173 13.517 82.8878 13.9943C83.0582 14.4659 83.2969 14.821 83.6037 15.0597C83.9105 15.2926 84.2685 15.4091 84.6776 15.4091C85.0241 15.4091 85.331 15.3295 85.598 15.1705C85.8651 15.0057 86.081 14.767 86.2457 14.4545C86.4162 14.1364 86.5185 13.75 86.5526 13.2955H90.9162C90.8991 14.4489 90.6349 15.4545 90.1236 16.3125C89.6122 17.1648 88.8878 17.8239 87.9503 18.2898C87.0185 18.7557 85.9048 18.9886 84.6094 18.9886ZM92.8572 18.75V5.65909H97.5618V18.75H92.8572ZM95.2095 4.29545C94.5732 4.29545 94.0277 4.08523 93.5732 3.66477C93.1186 3.24432 92.8913 2.73864 92.8913 2.14773C92.8913 1.55682 93.1186 1.05114 93.5732 0.630681C94.0277 0.210227 94.5732 0 95.2095 0C95.8516 0 96.397 0.210227 96.8459 0.630681C97.3004 1.05114 97.5277 1.55682 97.5277 2.14773C97.5277 2.73864 97.3004 3.24432 96.8459 3.66477C96.397 4.08523 95.8516 4.29545 95.2095 4.29545ZM103.607 18.9545C102.771 18.9545 102.033 18.8182 101.391 18.5455C100.754 18.267 100.254 17.8466 99.8906 17.2841C99.527 16.7216 99.3452 16.0057 99.3452 15.1364C99.3452 14.4205 99.4673 13.8097 99.7116 13.304C99.956 12.7926 100.297 12.375 100.734 12.0511C101.172 11.7273 101.68 11.4801 102.26 11.3097C102.845 11.1392 103.476 11.0284 104.152 10.9773C104.885 10.9205 105.473 10.8523 105.916 10.7727C106.365 10.6875 106.689 10.571 106.888 10.4233C107.087 10.2699 107.186 10.0682 107.186 9.81818V9.78409C107.186 9.44318 107.055 9.18182 106.794 9C106.533 8.81818 106.197 8.72727 105.788 8.72727C105.339 8.72727 104.973 8.8267 104.689 9.02557C104.411 9.21875 104.243 9.51705 104.186 9.92045H99.8565C99.9134 9.125 100.166 8.39205 100.615 7.72159C101.07 7.04545 101.732 6.50568 102.601 6.10227C103.47 5.69318 104.555 5.48864 105.857 5.48864C106.794 5.48864 107.635 5.59943 108.379 5.82102C109.124 6.03693 109.757 6.34091 110.28 6.73295C110.803 7.11932 111.2 7.57386 111.473 8.09659C111.751 8.61364 111.891 9.17614 111.891 9.78409V18.75H107.493V16.9091H107.391C107.129 17.3977 106.811 17.7926 106.436 18.0938C106.067 18.3949 105.643 18.6136 105.166 18.75C104.695 18.8864 104.175 18.9545 103.607 18.9545ZM105.141 15.9886C105.499 15.9886 105.834 15.9148 106.146 15.767C106.464 15.6193 106.723 15.4062 106.922 15.1278C107.121 14.8494 107.22 14.5114 107.22 14.1136V13.0227C107.095 13.0739 106.962 13.1222 106.82 13.1676C106.683 13.2131 106.536 13.2557 106.376 13.2955C106.223 13.3352 106.058 13.3722 105.882 13.4062C105.712 13.4403 105.533 13.4716 105.345 13.5C104.982 13.5568 104.683 13.6506 104.45 13.7812C104.223 13.9062 104.053 14.0625 103.939 14.25C103.831 14.4318 103.777 14.6364 103.777 14.8636C103.777 15.2273 103.905 15.5057 104.161 15.6989C104.416 15.892 104.743 15.9886 105.141 15.9886Z" fill="black"/>
</svg>
