<svg width="81" height="13" viewBox="0 0 81 13" fill="none" xmlns="http://www.w3.org/2000/svg">
<path d="M-2.76566e-05 12.2273V0.590931H7.0227V1.84093H1.40906V5.77275H6.65906V7.02275H1.40906V10.9773H7.11361V12.2273H-2.76566e-05ZM12.9261 12.4091C12.1079 12.4091 11.4034 12.2159 10.8125 11.8296C10.2216 11.4432 9.76702 10.911 9.44884 10.233C9.13065 9.55495 8.97156 8.78033 8.97156 7.90911C8.97156 7.02275 9.13444 6.24055 9.4602 5.56252C9.78975 4.8807 10.2481 4.34851 10.8352 3.96593C11.4261 3.57957 12.1155 3.38639 12.9034 3.38639C13.517 3.38639 14.07 3.50002 14.5625 3.72729C15.0549 3.95457 15.4583 4.27275 15.7727 4.68184C16.0871 5.09093 16.2822 5.5682 16.3579 6.11366H15.017C14.9147 5.71593 14.6875 5.36366 14.3352 5.05684C13.9867 4.74623 13.517 4.59093 12.9261 4.59093C12.4034 4.59093 11.945 4.72729 11.5511 5.00002C11.161 5.26896 10.856 5.64964 10.6363 6.14207C10.4204 6.6307 10.3125 7.20457 10.3125 7.86366C10.3125 8.5379 10.4185 9.12502 10.6307 9.62502C10.8466 10.125 11.1496 10.5133 11.5397 10.7898C11.9337 11.0663 12.3958 11.2046 12.9261 11.2046C13.2746 11.2046 13.5909 11.144 13.875 11.0227C14.1591 10.9015 14.3996 10.7273 14.5966 10.5C14.7935 10.2727 14.9337 10 15.017 9.68184H16.3579C16.2822 10.197 16.0947 10.661 15.7954 11.0739C15.5 11.483 15.1079 11.8087 14.6193 12.0512C14.1344 12.2898 13.57 12.4091 12.9261 12.4091ZM21.8636 12.4091C21.0757 12.4091 20.3844 12.2216 19.7897 11.8466C19.1988 11.4716 18.7367 10.947 18.4034 10.2727C18.0738 9.59851 17.9091 8.81063 17.9091 7.90911C17.9091 7.00002 18.0738 6.20646 18.4034 5.52843C18.7367 4.8504 19.1988 4.32389 19.7897 3.94889C20.3844 3.57389 21.0757 3.38639 21.8636 3.38639C22.6515 3.38639 23.3409 3.57389 23.9318 3.94889C24.5265 4.32389 24.9886 4.8504 25.3182 5.52843C25.6515 6.20646 25.8182 7.00002 25.8182 7.90911C25.8182 8.81063 25.6515 9.59851 25.3182 10.2727C24.9886 10.947 24.5265 11.4716 23.9318 11.8466C23.3409 12.2216 22.6515 12.4091 21.8636 12.4091ZM21.8636 11.2046C22.4621 11.2046 22.9545 11.0512 23.3409 10.7443C23.7272 10.4375 24.0132 10.0341 24.1988 9.53411C24.3844 9.03411 24.4772 8.49245 24.4772 7.90911C24.4772 7.32578 24.3844 6.78222 24.1988 6.27843C24.0132 5.77464 23.7272 5.36745 23.3409 5.05684C22.9545 4.74623 22.4621 4.59093 21.8636 4.59093C21.2651 4.59093 20.7727 4.74623 20.3863 5.05684C20 5.36745 19.714 5.77464 19.5284 6.27843C19.3428 6.78222 19.25 7.32578 19.25 7.90911C19.25 8.49245 19.3428 9.03411 19.5284 9.53411C19.714 10.0341 20 10.4375 20.3863 10.7443C20.7727 11.0512 21.2651 11.2046 21.8636 11.2046ZM29.2059 6.97729V12.2273H27.865V3.50002H29.1605V4.86366H29.2741C29.4787 4.42048 29.7893 4.06442 30.2059 3.79548C30.6226 3.52275 31.1605 3.38639 31.8196 3.38639C32.4105 3.38639 32.9275 3.5076 33.3707 3.75002C33.8139 3.98866 34.1586 4.35229 34.4048 4.84093C34.651 5.32578 34.7741 5.93942 34.7741 6.68184V12.2273H33.4332V6.77275C33.4332 6.08714 33.2552 5.55305 32.8991 5.17048C32.5431 4.78411 32.0544 4.59093 31.4332 4.59093C31.0052 4.59093 30.6226 4.68373 30.2855 4.86934C29.9522 5.05495 29.6889 5.32578 29.4957 5.68184C29.3025 6.0379 29.2059 6.46972 29.2059 6.97729ZM40.7699 12.4091C39.982 12.4091 39.2907 12.2216 38.696 11.8466C38.1051 11.4716 37.643 10.947 37.3096 10.2727C36.9801 9.59851 36.8153 8.81063 36.8153 7.90911C36.8153 7.00002 36.9801 6.20646 37.3096 5.52843C37.643 4.8504 38.1051 4.32389 38.696 3.94889C39.2907 3.57389 39.982 3.38639 40.7699 3.38639C41.5577 3.38639 42.2471 3.57389 42.838 3.94889C43.4327 4.32389 43.8949 4.8504 44.2244 5.52843C44.5577 6.20646 44.7244 7.00002 44.7244 7.90911C44.7244 8.81063 44.5577 9.59851 44.2244 10.2727C43.8949 10.947 43.4327 11.4716 42.838 11.8466C42.2471 12.2216 41.5577 12.4091 40.7699 12.4091ZM40.7699 11.2046C41.3683 11.2046 41.8608 11.0512 42.2471 10.7443C42.6335 10.4375 42.9195 10.0341 43.1051 9.53411C43.2907 9.03411 43.3835 8.49245 43.3835 7.90911C43.3835 7.32578 43.2907 6.78222 43.1051 6.27843C42.9195 5.77464 42.6335 5.36745 42.2471 5.05684C41.8608 4.74623 41.3683 4.59093 40.7699 4.59093C40.1714 4.59093 39.6789 4.74623 39.2926 5.05684C38.9062 5.36745 38.6202 5.77464 38.4346 6.27843C38.249 6.78222 38.1562 7.32578 38.1562 7.90911C38.1562 8.49245 38.249 9.03411 38.4346 9.53411C38.6202 10.0341 38.9062 10.4375 39.2926 10.7443C39.6789 11.0512 40.1714 11.2046 40.7699 11.2046ZM41.9517 2.45457L40.7699 0.863658L39.588 2.45457H38.3153V2.36366L40.1562 2.19345e-05H41.3835L43.2244 2.36366V2.45457H41.9517ZM46.7713 12.2273V3.50002H48.0667V4.86366H48.1804C48.3622 4.39775 48.6557 4.03601 49.0611 3.77843C49.4664 3.51707 49.9531 3.38639 50.5213 3.38639C51.097 3.38639 51.5762 3.51707 51.9588 3.77843C52.3451 4.03601 52.6463 4.39775 52.8622 4.86366H52.9531C53.1766 4.4129 53.5118 4.05495 53.9588 3.78979C54.4057 3.52086 54.9417 3.38639 55.5667 3.38639C56.347 3.38639 56.9853 3.6307 57.4815 4.11934C57.9777 4.60419 58.2258 5.35987 58.2258 6.38639V12.2273H56.8849V6.38639C56.8849 5.74245 56.7088 5.28222 56.3565 5.0057C56.0042 4.72919 55.5895 4.59093 55.1122 4.59093C54.4986 4.59093 54.0232 4.77654 53.6861 5.14775C53.3489 5.51517 53.1804 5.98108 53.1804 6.54548V12.2273H51.8167V6.25002C51.8167 5.75381 51.6557 5.35419 51.3338 5.05116C51.0118 4.74434 50.597 4.59093 50.0895 4.59093C49.741 4.59093 49.4152 4.68373 49.1122 4.86934C48.8129 5.05495 48.5705 5.31252 48.3849 5.64207C48.2031 5.96783 48.1122 6.34472 48.1122 6.77275V12.2273H46.7713ZM60.6775 12.2273V3.50002H62.0184V12.2273H60.6775ZM61.3593 2.04548C61.098 2.04548 60.8726 1.95646 60.6832 1.77843C60.4976 1.6004 60.4048 1.38639 60.4048 1.13639C60.4048 0.886386 60.4976 0.672371 60.6832 0.49434C60.8726 0.31631 61.098 0.227295 61.3593 0.227295C61.6207 0.227295 61.8442 0.31631 62.0298 0.49434C62.2192 0.672371 62.3139 0.886386 62.3139 1.13639C62.3139 1.38639 62.2192 1.6004 62.0298 1.77843C61.8442 1.95646 61.6207 2.04548 61.3593 2.04548ZM68.0199 12.4091C67.2017 12.4091 66.4971 12.2159 65.9062 11.8296C65.3153 11.4432 64.8608 10.911 64.5426 10.233C64.2244 9.55495 64.0653 8.78033 64.0653 7.90911C64.0653 7.02275 64.2282 6.24055 64.5539 5.56252C64.8835 4.8807 65.3418 4.34851 65.9289 3.96593C66.5199 3.57957 67.2093 3.38639 67.9971 3.38639C68.6108 3.38639 69.1638 3.50002 69.6562 3.72729C70.1486 3.95457 70.5521 4.27275 70.8664 4.68184C71.1808 5.09093 71.3759 5.5682 71.4517 6.11366H70.1108C70.0085 5.71593 69.7812 5.36366 69.4289 5.05684C69.0805 4.74623 68.6108 4.59093 68.0199 4.59093C67.4971 4.59093 67.0388 4.72729 66.6449 5.00002C66.2547 5.26896 65.9498 5.64964 65.7301 6.14207C65.5142 6.6307 65.4062 7.20457 65.4062 7.86366C65.4062 8.5379 65.5123 9.12502 65.7244 9.62502C65.9403 10.125 66.2433 10.5133 66.6335 10.7898C67.0274 11.0663 67.4896 11.2046 68.0199 11.2046C68.3683 11.2046 68.6846 11.144 68.9687 11.0227C69.2528 10.9015 69.4933 10.7273 69.6903 10.5C69.8873 10.2727 70.0274 10 70.1108 9.68184H71.4517C71.3759 10.197 71.1884 10.661 70.8892 11.0739C70.5937 11.483 70.2017 11.8087 69.713 12.0512C69.2282 12.2898 68.6638 12.4091 68.0199 12.4091ZM76.9574 12.4091C76.1695 12.4091 75.4782 12.2216 74.8835 11.8466C74.2926 11.4716 73.8305 10.947 73.4971 10.2727C73.1676 9.59851 73.0028 8.81063 73.0028 7.90911C73.0028 7.00002 73.1676 6.20646 73.4971 5.52843C73.8305 4.8504 74.2926 4.32389 74.8835 3.94889C75.4782 3.57389 76.1695 3.38639 76.9574 3.38639C77.7452 3.38639 78.4346 3.57389 79.0255 3.94889C79.6202 4.32389 80.0824 4.8504 80.4119 5.52843C80.7452 6.20646 80.9119 7.00002 80.9119 7.90911C80.9119 8.81063 80.7452 9.59851 80.4119 10.2727C80.0824 10.947 79.6202 11.4716 79.0255 11.8466C78.4346 12.2216 77.7452 12.4091 76.9574 12.4091ZM76.9574 11.2046C77.5558 11.2046 78.0483 11.0512 78.4346 10.7443C78.821 10.4375 79.107 10.0341 79.2926 9.53411C79.4782 9.03411 79.571 8.49245 79.571 7.90911C79.571 7.32578 79.4782 6.78222 79.2926 6.27843C79.107 5.77464 78.821 5.36745 78.4346 5.05684C78.0483 4.74623 77.5558 4.59093 76.9574 4.59093C76.3589 4.59093 75.8664 4.74623 75.4801 5.05684C75.0937 5.36745 74.8077 5.77464 74.6221 6.27843C74.4365 6.78222 74.3437 7.32578 74.3437 7.90911C74.3437 8.49245 74.4365 9.03411 74.6221 9.53411C74.8077 10.0341 75.0937 10.4375 75.4801 10.7443C75.8664 11.0512 76.3589 11.2046 76.9574 11.2046Z" fill="black"/>
</svg>
