<svg width="261" height="16" viewBox="0 0 261 16" fill="none" xmlns="http://www.w3.org/2000/svg">
<path d="M-2.76566e-05 12.1819V0.545521H7.0227V1.79552H1.40906V5.72734H6.65906V6.97734H1.40906V10.9319H7.11361V12.1819H-2.76566e-05ZM12.9261 12.3637C12.1079 12.3637 11.4034 12.1705 10.8125 11.7842C10.2216 11.3978 9.76702 10.8656 9.44884 10.1876C9.13065 9.50954 8.97156 8.73491 8.97156 7.8637C8.97156 6.97734 9.13444 6.19514 9.4602 5.51711C9.78975 4.83529 10.2481 4.3031 10.8352 3.92052C11.4261 3.53416 12.1155 3.34098 12.9034 3.34098C13.517 3.34098 14.07 3.45461 14.5625 3.68188C15.0549 3.90916 15.4583 4.22734 15.7727 4.63643C16.0871 5.04552 16.2822 5.52279 16.3579 6.06825H15.017C14.9147 5.67052 14.6875 5.31825 14.3352 5.01143C13.9867 4.70082 13.517 4.54552 12.9261 4.54552C12.4034 4.54552 11.945 4.68188 11.5511 4.95461C11.161 5.22355 10.856 5.60423 10.6363 6.09666C10.4204 6.58529 10.3125 7.15916 10.3125 7.81825C10.3125 8.49249 10.4185 9.07961 10.6307 9.57961C10.8466 10.0796 11.1496 10.4679 11.5397 10.7444C11.9337 11.0209 12.3958 11.1592 12.9261 11.1592C13.2746 11.1592 13.5909 11.0986 13.875 10.9773C14.1591 10.8561 14.3996 10.6819 14.5966 10.4546C14.7935 10.2273 14.9337 9.95461 15.017 9.63643H16.3579C16.2822 10.1516 16.0947 10.6156 15.7954 11.0285C15.5 11.4376 15.1079 11.7633 14.6193 12.0057C14.1344 12.2444 13.57 12.3637 12.9261 12.3637ZM21.8636 12.3637C21.0757 12.3637 20.3844 12.1762 19.7897 11.8012C19.1988 11.4262 18.7367 10.9016 18.4034 10.2273C18.0738 9.5531 17.9091 8.76522 17.9091 7.8637C17.9091 6.95461 18.0738 6.16105 18.4034 5.48302C18.7367 4.80499 19.1988 4.27848 19.7897 3.90348C20.3844 3.52848 21.0757 3.34098 21.8636 3.34098C22.6515 3.34098 23.3409 3.52848 23.9318 3.90348C24.5265 4.27848 24.9886 4.80499 25.3182 5.48302C25.6515 6.16105 25.8182 6.95461 25.8182 7.8637C25.8182 8.76522 25.6515 9.5531 25.3182 10.2273C24.9886 10.9016 24.5265 11.4262 23.9318 11.8012C23.3409 12.1762 22.6515 12.3637 21.8636 12.3637ZM21.8636 11.1592C22.4621 11.1592 22.9545 11.0057 23.3409 10.6989C23.7272 10.3921 24.0132 9.9887 24.1988 9.4887C24.3844 8.9887 24.4772 8.44704 24.4772 7.8637C24.4772 7.28037 24.3844 6.73681 24.1988 6.23302C24.0132 5.72923 23.7272 5.32204 23.3409 5.01143C22.9545 4.70082 22.4621 4.54552 21.8636 4.54552C21.2651 4.54552 20.7727 4.70082 20.3863 5.01143C20 5.32204 19.714 5.72923 19.5284 6.23302C19.3428 6.73681 19.25 7.28037 19.25 7.8637C19.25 8.44704 19.3428 8.9887 19.5284 9.4887C19.714 9.9887 20 10.3921 20.3863 10.6989C20.7727 11.0057 21.2651 11.1592 21.8636 11.1592ZM29.2059 6.93188V12.1819H27.865V3.45461H29.1605V4.81825H29.2741C29.4787 4.37507 29.7893 4.01901 30.2059 3.75007C30.6226 3.47734 31.1605 3.34098 31.8196 3.34098C32.4105 3.34098 32.9275 3.46219 33.3707 3.70461C33.8139 3.94325 34.1586 4.30688 34.4048 4.79552C34.651 5.28037 34.7741 5.89401 34.7741 6.63643V12.1819H33.4332V6.72734C33.4332 6.04173 33.2552 5.50764 32.8991 5.12507C32.5431 4.7387 32.0544 4.54552 31.4332 4.54552C31.0052 4.54552 30.6226 4.63832 30.2855 4.82393C29.9522 5.00954 29.6889 5.28037 29.4957 5.63643C29.3025 5.99249 29.2059 6.42431 29.2059 6.93188ZM40.7699 12.3637C39.982 12.3637 39.2907 12.1762 38.696 11.8012C38.1051 11.4262 37.643 10.9016 37.3096 10.2273C36.9801 9.5531 36.8153 8.76522 36.8153 7.8637C36.8153 6.95461 36.9801 6.16105 37.3096 5.48302C37.643 4.80499 38.1051 4.27848 38.696 3.90348C39.2907 3.52848 39.982 3.34098 40.7699 3.34098C41.5577 3.34098 42.2471 3.52848 42.838 3.90348C43.4327 4.27848 43.8949 4.80499 44.2244 5.48302C44.5577 6.16105 44.7244 6.95461 44.7244 7.8637C44.7244 8.76522 44.5577 9.5531 44.2244 10.2273C43.8949 10.9016 43.4327 11.4262 42.838 11.8012C42.2471 12.1762 41.5577 12.3637 40.7699 12.3637ZM40.7699 11.1592C41.3683 11.1592 41.8608 11.0057 42.2471 10.6989C42.6335 10.3921 42.9195 9.9887 43.1051 9.4887C43.2907 8.9887 43.3835 8.44704 43.3835 7.8637C43.3835 7.28037 43.2907 6.73681 43.1051 6.23302C42.9195 5.72923 42.6335 5.32204 42.2471 5.01143C41.8608 4.70082 41.3683 4.54552 40.7699 4.54552C40.1714 4.54552 39.6789 4.70082 39.2926 5.01143C38.9062 5.32204 38.6202 5.72923 38.4346 6.23302C38.249 6.73681 38.1562 7.28037 38.1562 7.8637C38.1562 8.44704 38.249 8.9887 38.4346 9.4887C38.6202 9.9887 38.9062 10.3921 39.2926 10.6989C39.6789 11.0057 40.1714 11.1592 40.7699 11.1592ZM46.7713 12.1819V3.45461H48.0667V4.81825H48.1804C48.3622 4.35234 48.6557 3.9906 49.0611 3.73302C49.4664 3.47166 49.9531 3.34098 50.5213 3.34098C51.097 3.34098 51.5762 3.47166 51.9588 3.73302C52.3451 3.9906 52.6463 4.35234 52.8622 4.81825H52.9531C53.1766 4.36749 53.5118 4.00954 53.9588 3.74438C54.4057 3.47545 54.9417 3.34098 55.5667 3.34098C56.347 3.34098 56.9853 3.58529 57.4815 4.07393C57.9777 4.55878 58.2258 5.31446 58.2258 6.34098V12.1819H56.8849V6.34098C56.8849 5.69704 56.7088 5.23681 56.3565 4.96029C56.0042 4.68378 55.5895 4.54552 55.1122 4.54552C54.4986 4.54552 54.0232 4.73113 53.6861 5.10234C53.3489 5.46976 53.1804 5.93567 53.1804 6.50007V12.1819H51.8167V6.20461C51.8167 5.7084 51.6557 5.30878 51.3338 5.00575C51.0118 4.69893 50.597 4.54552 50.0895 4.54552C49.741 4.54552 49.4152 4.63832 49.1122 4.82393C48.8129 5.00954 48.5705 5.26711 48.3849 5.59666C48.2031 5.92241 48.1122 6.29931 48.1122 6.72734V12.1819H46.7713ZM60.6775 12.1819V3.45461H62.0184V12.1819H60.6775ZM61.3593 2.00007C61.098 2.00007 60.8726 1.91105 60.6832 1.73302C60.4976 1.55499 60.4048 1.34098 60.4048 1.09098C60.4048 0.840976 60.4976 0.62696 60.6832 0.44893C60.8726 0.2709 61.098 0.181885 61.3593 0.181885C61.6207 0.181885 61.8442 0.2709 62.0298 0.44893C62.2192 0.62696 62.3139 0.840976 62.3139 1.09098C62.3139 1.34098 62.2192 1.55499 62.0298 1.73302C61.8442 1.91105 61.6207 2.00007 61.3593 2.00007ZM64.2244 12.1819V11.1592L69.1789 4.79552V4.70461H64.3835V3.45461H70.9062V4.52279L66.088 10.841V10.9319H71.0653V12.1819H64.2244ZM76.5397 12.3637C75.6988 12.3637 74.9735 12.1781 74.3636 11.8069C73.7575 11.4319 73.2897 10.9092 72.9602 10.2387C72.6344 9.56446 72.4716 8.78037 72.4716 7.88643C72.4716 6.99249 72.6344 6.20461 72.9602 5.52279C73.2897 4.83719 73.7481 4.3031 74.3352 3.92052C74.9261 3.53416 75.6155 3.34098 76.4034 3.34098C76.8579 3.34098 77.3068 3.41673 77.75 3.56825C78.1932 3.71976 78.5966 3.96598 78.9602 4.30688C79.3238 4.64401 79.6136 5.09098 79.8295 5.64779C80.0454 6.20461 80.1534 6.89022 80.1534 7.70461V8.27279H73.4261V7.1137H78.7897C78.7897 6.62128 78.6913 6.18188 78.4943 5.79552C78.3011 5.40916 78.0246 5.10423 77.6647 4.88075C77.3087 4.65726 76.8882 4.54552 76.4034 4.54552C75.8693 4.54552 75.4072 4.6781 75.017 4.94325C74.6307 5.20461 74.3333 5.54552 74.125 5.96598C73.9166 6.38643 73.8125 6.83719 73.8125 7.31825V8.09098C73.8125 8.75007 73.9261 9.30878 74.1534 9.76711C74.3844 10.2217 74.7045 10.5682 75.1136 10.8069C75.5227 11.0417 75.9981 11.1592 76.5397 11.1592C76.892 11.1592 77.2102 11.1099 77.4943 11.0114C77.7822 10.9092 78.0303 10.7576 78.2386 10.5569C78.4469 10.3523 78.6079 10.0986 78.7216 9.79552L80.017 10.1592C79.8807 10.5986 79.6515 10.9849 79.3295 11.3182C79.0075 11.6478 78.6098 11.9054 78.1363 12.091C77.6629 12.2728 77.1307 12.3637 76.5397 12.3637ZM90.4886 3.45461V4.59098H85.9659V3.45461H90.4886ZM87.2841 1.3637H88.625V9.68188C88.625 10.0607 88.6799 10.3448 88.7897 10.5342C88.9034 10.7198 89.0473 10.8448 89.2216 10.9092C89.3996 10.9698 89.5871 11.0001 89.7841 11.0001C89.9318 11.0001 90.053 10.9925 90.1477 10.9773C90.2424 10.9584 90.3182 10.9432 90.375 10.9319L90.6477 12.1364C90.5568 12.1705 90.4299 12.2046 90.267 12.2387C90.1041 12.2766 89.8977 12.2955 89.6477 12.2955C89.2689 12.2955 88.8977 12.2141 88.5341 12.0512C88.1742 11.8883 87.875 11.6402 87.6363 11.3069C87.4015 10.9736 87.2841 10.5531 87.2841 10.0455V1.3637ZM96.071 12.3637C95.2301 12.3637 94.5047 12.1781 93.8949 11.8069C93.2888 11.4319 92.821 10.9092 92.4914 10.2387C92.1657 9.56446 92.0028 8.78037 92.0028 7.88643C92.0028 6.99249 92.1657 6.20461 92.4914 5.52279C92.821 4.83719 93.2793 4.3031 93.8664 3.92052C94.4574 3.53416 95.1468 3.34098 95.9346 3.34098C96.3892 3.34098 96.838 3.41673 97.2812 3.56825C97.7244 3.71976 98.1278 3.96598 98.4914 4.30688C98.8551 4.64401 99.1449 5.09098 99.3608 5.64779C99.5767 6.20461 99.6846 6.89022 99.6846 7.70461V8.27279H92.9574V7.1137H98.321C98.321 6.62128 98.2225 6.18188 98.0255 5.79552C97.8324 5.40916 97.5558 5.10423 97.196 4.88075C96.8399 4.65726 96.4195 4.54552 95.9346 4.54552C95.4005 4.54552 94.9384 4.6781 94.5483 4.94325C94.1619 5.20461 93.8646 5.54552 93.6562 5.96598C93.4479 6.38643 93.3437 6.83719 93.3437 7.31825V8.09098C93.3437 8.75007 93.4574 9.30878 93.6846 9.76711C93.9157 10.2217 94.2358 10.5682 94.6449 10.8069C95.0539 11.0417 95.5293 11.1592 96.071 11.1592C96.4233 11.1592 96.7414 11.1099 97.0255 11.0114C97.3134 10.9092 97.5615 10.7576 97.7699 10.5569C97.9782 10.3523 98.1392 10.0986 98.2528 9.79552L99.5483 10.1592C99.4119 10.5986 99.1827 10.9849 98.8608 11.3182C98.5388 11.6478 98.1411 11.9054 97.6676 12.091C97.1941 12.2728 96.6619 12.3637 96.071 12.3637ZM101.724 12.1819V3.45461H103.02V4.81825H103.133C103.315 4.35234 103.609 3.9906 104.014 3.73302C104.419 3.47166 104.906 3.34098 105.474 3.34098C106.05 3.34098 106.529 3.47166 106.912 3.73302C107.298 3.9906 107.599 4.35234 107.815 4.81825H107.906C108.13 4.36749 108.465 4.00954 108.912 3.74438C109.359 3.47545 109.895 3.34098 110.52 3.34098C111.3 3.34098 111.938 3.58529 112.435 4.07393C112.931 4.55878 113.179 5.31446 113.179 6.34098V12.1819H111.838V6.34098C111.838 5.69704 111.662 5.23681 111.31 4.96029C110.957 4.68378 110.543 4.54552 110.065 4.54552C109.452 4.54552 108.976 4.73113 108.639 5.10234C108.302 5.46976 108.133 5.93567 108.133 6.50007V12.1819H106.77V6.20461C106.77 5.7084 106.609 5.30878 106.287 5.00575C105.965 4.69893 105.55 4.54552 105.043 4.54552C104.694 4.54552 104.368 4.63832 104.065 4.82393C103.766 5.00954 103.524 5.26711 103.338 5.59666C103.156 5.92241 103.065 6.29931 103.065 6.72734V12.1819H101.724ZM115.631 15.4546V3.45461H116.926V4.84098H117.085C117.184 4.68946 117.32 4.49628 117.494 4.26143C117.672 4.02279 117.926 3.81067 118.256 3.62507C118.589 3.43567 119.04 3.34098 119.608 3.34098C120.343 3.34098 120.991 3.52469 121.551 3.89211C122.112 4.25954 122.549 4.78037 122.864 5.45461C123.178 6.12885 123.335 6.92431 123.335 7.84098C123.335 8.76522 123.178 9.56635 122.864 10.2444C122.549 10.9186 122.114 11.4414 121.557 11.8126C121 12.18 120.358 12.3637 119.631 12.3637C119.07 12.3637 118.621 12.2709 118.284 12.0853C117.947 11.8959 117.687 11.6819 117.506 11.4432C117.324 11.2008 117.184 11.0001 117.085 10.841H116.972V15.4546H115.631ZM116.949 7.81825C116.949 8.47734 117.045 9.05878 117.239 9.56257C117.432 10.0626 117.714 10.4546 118.085 10.7387C118.456 11.019 118.911 11.1592 119.449 11.1592C120.009 11.1592 120.477 11.0114 120.852 10.716C121.231 10.4167 121.515 10.0152 121.705 9.51143C121.898 9.00385 121.994 8.43946 121.994 7.81825C121.994 7.20461 121.9 6.65158 121.71 6.15916C121.525 5.66295 121.242 5.2709 120.864 4.98302C120.489 4.69135 120.017 4.54552 119.449 4.54552C118.903 4.54552 118.445 4.68378 118.074 4.96029C117.703 5.23302 117.422 5.6156 117.233 6.10802C117.044 6.59666 116.949 7.16673 116.949 7.81825ZM128.926 12.3637C128.138 12.3637 127.447 12.1762 126.852 11.8012C126.261 11.4262 125.799 10.9016 125.466 10.2273C125.136 9.5531 124.972 8.76522 124.972 7.8637C124.972 6.95461 125.136 6.16105 125.466 5.48302C125.799 4.80499 126.261 4.27848 126.852 3.90348C127.447 3.52848 128.138 3.34098 128.926 3.34098C129.714 3.34098 130.403 3.52848 130.994 3.90348C131.589 4.27848 132.051 4.80499 132.381 5.48302C132.714 6.16105 132.881 6.95461 132.881 7.8637C132.881 8.76522 132.714 9.5531 132.381 10.2273C132.051 10.9016 131.589 11.4262 130.994 11.8012C130.403 12.1762 129.714 12.3637 128.926 12.3637ZM128.926 11.1592C129.525 11.1592 130.017 11.0057 130.403 10.6989C130.79 10.3921 131.076 9.9887 131.261 9.4887C131.447 8.9887 131.54 8.44704 131.54 7.8637C131.54 7.28037 131.447 6.73681 131.261 6.23302C131.076 5.72923 130.79 5.32204 130.403 5.01143C130.017 4.70082 129.525 4.54552 128.926 4.54552C128.328 4.54552 127.835 4.70082 127.449 5.01143C127.062 5.32204 126.776 5.72923 126.591 6.23302C126.405 6.73681 126.312 7.28037 126.312 7.8637C126.312 8.44704 126.405 8.9887 126.591 9.4887C126.776 9.9887 127.062 10.3921 127.449 10.6989C127.835 11.0057 128.328 11.1592 128.926 11.1592ZM140.768 6.93188V12.1819H139.428V3.45461H140.723V4.81825H140.837C141.041 4.37507 141.352 4.01901 141.768 3.75007C142.185 3.47734 142.723 3.34098 143.382 3.34098C143.973 3.34098 144.49 3.46219 144.933 3.70461C145.376 3.94325 145.721 4.30688 145.967 4.79552C146.214 5.28037 146.337 5.89401 146.337 6.63643V12.1819H144.996V6.72734C144.996 6.04173 144.818 5.50764 144.462 5.12507C144.106 4.7387 143.617 4.54552 142.996 4.54552C142.568 4.54552 142.185 4.63832 141.848 4.82393C141.515 5.00954 141.251 5.28037 141.058 5.63643C140.865 5.99249 140.768 6.42431 140.768 6.93188ZM151.355 12.3864C150.802 12.3864 150.3 12.2823 149.849 12.0739C149.399 11.8618 149.041 11.5569 148.776 11.1592C148.51 10.7576 148.378 10.2728 148.378 9.70461C148.378 9.20461 148.476 8.79931 148.673 8.4887C148.87 8.17431 149.133 7.9281 149.463 7.75007C149.793 7.57204 150.156 7.43946 150.554 7.35234C150.955 7.26143 151.359 7.18946 151.764 7.13643C152.294 7.06825 152.724 7.01711 153.054 6.98302C153.387 6.94514 153.63 6.88264 153.781 6.79552C153.937 6.7084 154.014 6.55688 154.014 6.34098V6.29552C154.014 5.73491 153.861 5.29931 153.554 4.9887C153.251 4.6781 152.791 4.52279 152.173 4.52279C151.533 4.52279 151.031 4.66295 150.668 4.94325C150.304 5.22355 150.048 5.52279 149.901 5.84098L148.628 5.38643C148.855 4.85613 149.158 4.44325 149.537 4.14779C149.919 3.84855 150.336 3.64022 150.787 3.52279C151.241 3.40158 151.688 3.34098 152.128 3.34098C152.408 3.34098 152.73 3.37507 153.094 3.44325C153.461 3.50764 153.815 3.64211 154.156 3.84666C154.501 4.0512 154.787 4.35992 155.014 4.77279C155.241 5.18567 155.355 5.7387 155.355 6.43188V12.1819H154.014V11.0001H153.946C153.855 11.1895 153.704 11.3921 153.491 11.608C153.279 11.8239 152.997 12.0076 152.645 12.1592C152.293 12.3107 151.863 12.3864 151.355 12.3864ZM151.56 11.1819C152.09 11.1819 152.537 11.0777 152.901 10.8694C153.268 10.6611 153.544 10.3921 153.73 10.0626C153.919 9.73302 154.014 9.38643 154.014 9.02279V7.79552C153.957 7.8637 153.832 7.9262 153.639 7.98302C153.45 8.03605 153.23 8.0834 152.98 8.12507C152.734 8.16295 152.493 8.19704 152.258 8.22734C152.027 8.25385 151.84 8.27658 151.696 8.29552C151.348 8.34098 151.022 8.41484 150.719 8.51711C150.419 8.6156 150.177 8.76522 149.991 8.96598C149.81 9.16295 149.719 9.43188 149.719 9.77279C149.719 10.2387 149.891 10.591 150.236 10.8296C150.584 11.0645 151.026 11.1819 151.56 11.1819ZM163.643 6.93188V12.1819H162.303V0.545521H163.643V4.81825H163.757C163.962 4.36749 164.268 4.00954 164.678 3.74438C165.09 3.47545 165.64 3.34098 166.325 3.34098C166.92 3.34098 167.441 3.46029 167.888 3.69893C168.335 3.93378 168.681 4.29552 168.928 4.78416C169.178 5.26901 169.303 5.88643 169.303 6.63643V12.1819H167.962V6.72734C167.962 6.03416 167.782 5.49817 167.422 5.11938C167.066 4.73681 166.571 4.54552 165.939 4.54552C165.499 4.54552 165.106 4.63832 164.757 4.82393C164.412 5.00954 164.14 5.28037 163.939 5.63643C163.742 5.99249 163.643 6.42431 163.643 6.93188ZM175.301 12.3637C174.513 12.3637 173.822 12.1762 173.227 11.8012C172.636 11.4262 172.174 10.9016 171.841 10.2273C171.511 9.5531 171.347 8.76522 171.347 7.8637C171.347 6.95461 171.511 6.16105 171.841 5.48302C172.174 4.80499 172.636 4.27848 173.227 3.90348C173.822 3.52848 174.513 3.34098 175.301 3.34098C176.089 3.34098 176.778 3.52848 177.369 3.90348C177.964 4.27848 178.426 4.80499 178.756 5.48302C179.089 6.16105 179.256 6.95461 179.256 7.8637C179.256 8.76522 179.089 9.5531 178.756 10.2273C178.426 10.9016 177.964 11.4262 177.369 11.8012C176.778 12.1762 176.089 12.3637 175.301 12.3637ZM175.301 11.1592C175.9 11.1592 176.392 11.0057 176.778 10.6989C177.165 10.3921 177.451 9.9887 177.636 9.4887C177.822 8.9887 177.915 8.44704 177.915 7.8637C177.915 7.28037 177.822 6.73681 177.636 6.23302C177.451 5.72923 177.165 5.32204 176.778 5.01143C176.392 4.70082 175.9 4.54552 175.301 4.54552C174.703 4.54552 174.21 4.70082 173.824 5.01143C173.437 5.32204 173.151 5.72923 172.966 6.23302C172.78 6.73681 172.687 7.28037 172.687 7.8637C172.687 8.44704 172.78 8.9887 172.966 9.4887C173.151 9.9887 173.437 10.3921 173.824 10.6989C174.21 11.0057 174.703 11.1592 175.301 11.1592ZM181.303 12.1819V3.45461H182.598V4.77279H182.689C182.848 4.34098 183.136 3.9906 183.553 3.72166C183.969 3.45272 184.439 3.31825 184.962 3.31825C185.06 3.31825 185.183 3.32014 185.331 3.32393C185.479 3.32772 185.59 3.3334 185.666 3.34098V4.70461C185.621 4.69325 185.517 4.6762 185.354 4.65348C185.195 4.62696 185.026 4.6137 184.848 4.6137C184.424 4.6137 184.045 4.70272 183.712 4.88075C183.382 5.05499 183.121 5.29741 182.928 5.60802C182.738 5.91484 182.643 6.26522 182.643 6.65916V12.1819H181.303ZM189.824 12.3864C189.271 12.3864 188.769 12.2823 188.318 12.0739C187.867 11.8618 187.509 11.5569 187.244 11.1592C186.979 10.7576 186.847 10.2728 186.847 9.70461C186.847 9.20461 186.945 8.79931 187.142 8.4887C187.339 8.17431 187.602 7.9281 187.932 7.75007C188.261 7.57204 188.625 7.43946 189.023 7.35234C189.424 7.26143 189.828 7.18946 190.233 7.13643C190.763 7.06825 191.193 7.01711 191.523 6.98302C191.856 6.94514 192.098 6.88264 192.25 6.79552C192.405 6.7084 192.483 6.55688 192.483 6.34098V6.29552C192.483 5.73491 192.33 5.29931 192.023 4.9887C191.72 4.6781 191.259 4.52279 190.642 4.52279C190.002 4.52279 189.5 4.66295 189.136 4.94325C188.773 5.22355 188.517 5.52279 188.369 5.84098L187.097 5.38643C187.324 4.85613 187.627 4.44325 188.006 4.14779C188.388 3.84855 188.805 3.64022 189.256 3.52279C189.71 3.40158 190.157 3.34098 190.597 3.34098C190.877 3.34098 191.199 3.37507 191.562 3.44325C191.93 3.50764 192.284 3.64211 192.625 3.84666C192.97 4.0512 193.256 4.35992 193.483 4.77279C193.71 5.18567 193.824 5.7387 193.824 6.43188V12.1819H192.483V11.0001H192.415C192.324 11.1895 192.172 11.3921 191.96 11.608C191.748 11.8239 191.466 12.0076 191.114 12.1592C190.761 12.3107 190.331 12.3864 189.824 12.3864ZM190.028 11.1819C190.559 11.1819 191.006 11.0777 191.369 10.8694C191.737 10.6611 192.013 10.3921 192.199 10.0626C192.388 9.73302 192.483 9.38643 192.483 9.02279V7.79552C192.426 7.8637 192.301 7.9262 192.108 7.98302C191.919 8.03605 191.699 8.0834 191.449 8.12507C191.203 8.16295 190.962 8.19704 190.727 8.22734C190.496 8.25385 190.309 8.27658 190.165 8.29552C189.816 8.34098 189.491 8.41484 189.187 8.51711C188.888 8.6156 188.646 8.76522 188.46 8.96598C188.278 9.16295 188.187 9.43188 188.187 9.77279C188.187 10.2387 188.36 10.591 188.705 10.8296C189.053 11.0645 189.494 11.1819 190.028 11.1819ZM204.067 12.3637C203.339 12.3637 202.697 12.18 202.141 11.8126C201.584 11.4414 201.148 10.9186 200.834 10.2444C200.519 9.56635 200.362 8.76522 200.362 7.84098C200.362 6.92431 200.519 6.12885 200.834 5.45461C201.148 4.78037 201.586 4.25954 202.146 3.89211C202.707 3.52469 203.355 3.34098 204.089 3.34098C204.658 3.34098 205.107 3.43567 205.436 3.62507C205.769 3.81067 206.023 4.02279 206.197 4.26143C206.375 4.49628 206.514 4.68946 206.612 4.84098H206.726V0.545521H208.067V12.1819H206.771V10.841H206.612C206.514 11.0001 206.374 11.2008 206.192 11.4432C206.01 11.6819 205.75 11.8959 205.413 12.0853C205.076 12.2709 204.627 12.3637 204.067 12.3637ZM204.249 11.1592C204.786 11.1592 205.241 11.019 205.612 10.7387C205.983 10.4546 206.266 10.0626 206.459 9.56257C206.652 9.05878 206.749 8.47734 206.749 7.81825C206.749 7.16673 206.654 6.59666 206.464 6.10802C206.275 5.6156 205.995 5.23302 205.624 4.96029C205.252 4.68378 204.794 4.54552 204.249 4.54552C203.68 4.54552 203.207 4.69135 202.828 4.98302C202.453 5.2709 202.171 5.66295 201.982 6.15916C201.796 6.65158 201.703 7.20461 201.703 7.81825C201.703 8.43946 201.798 9.00385 201.987 9.51143C202.18 10.0152 202.464 10.4167 202.839 10.716C203.218 11.0114 203.688 11.1592 204.249 11.1592ZM213.277 12.3864C212.724 12.3864 212.222 12.2823 211.771 12.0739C211.321 11.8618 210.963 11.5569 210.697 11.1592C210.432 10.7576 210.3 10.2728 210.3 9.70461C210.3 9.20461 210.398 8.79931 210.595 8.4887C210.792 8.17431 211.055 7.9281 211.385 7.75007C211.714 7.57204 212.078 7.43946 212.476 7.35234C212.877 7.26143 213.281 7.18946 213.686 7.13643C214.216 7.06825 214.646 7.01711 214.976 6.98302C215.309 6.94514 215.552 6.88264 215.703 6.79552C215.858 6.7084 215.936 6.55688 215.936 6.34098V6.29552C215.936 5.73491 215.783 5.29931 215.476 4.9887C215.173 4.6781 214.713 4.52279 214.095 4.52279C213.455 4.52279 212.953 4.66295 212.589 4.94325C212.226 5.22355 211.97 5.52279 211.822 5.84098L210.55 5.38643C210.777 4.85613 211.08 4.44325 211.459 4.14779C211.841 3.84855 212.258 3.64022 212.709 3.52279C213.163 3.40158 213.61 3.34098 214.05 3.34098C214.33 3.34098 214.652 3.37507 215.016 3.44325C215.383 3.50764 215.737 3.64211 216.078 3.84666C216.423 4.0512 216.709 4.35992 216.936 4.77279C217.163 5.18567 217.277 5.7387 217.277 6.43188V12.1819H215.936V11.0001H215.868C215.777 11.1895 215.625 11.3921 215.413 11.608C215.201 11.8239 214.919 12.0076 214.567 12.1592C214.214 12.3107 213.785 12.3864 213.277 12.3864ZM213.482 11.1819C214.012 11.1819 214.459 11.0777 214.822 10.8694C215.19 10.6611 215.466 10.3921 215.652 10.0626C215.841 9.73302 215.936 9.38643 215.936 9.02279V7.79552C215.879 7.8637 215.754 7.9262 215.561 7.98302C215.372 8.03605 215.152 8.0834 214.902 8.12507C214.656 8.16295 214.415 8.19704 214.18 8.22734C213.949 8.25385 213.762 8.27658 213.618 8.29552C213.269 8.34098 212.944 8.41484 212.641 8.51711C212.341 8.6156 212.099 8.76522 211.913 8.96598C211.732 9.16295 211.641 9.43188 211.641 9.77279C211.641 10.2387 211.813 10.591 212.158 10.8296C212.506 11.0645 212.947 11.1819 213.482 11.1819ZM228.111 3.45461V4.59098H223.406V3.45461H228.111ZM224.815 12.1819V2.25007C224.815 1.75007 224.933 1.3334 225.168 1.00007C225.402 0.666732 225.707 0.416732 226.082 0.250066C226.457 0.0833991 226.853 6.58035e-05 227.27 6.58035e-05C227.599 6.58035e-05 227.868 0.0265811 228.077 0.0796118C228.285 0.132642 228.44 0.181884 228.543 0.227339L228.156 1.38643C228.088 1.3637 227.993 1.33529 227.872 1.3012C227.755 1.26711 227.599 1.25007 227.406 1.25007C226.963 1.25007 226.643 1.36181 226.446 1.58529C226.253 1.80878 226.156 2.13643 226.156 2.56825V12.1819H224.815ZM233.176 12.3637C232.388 12.3637 231.697 12.1762 231.102 11.8012C230.511 11.4262 230.049 10.9016 229.716 10.2273C229.386 9.5531 229.222 8.76522 229.222 7.8637C229.222 6.95461 229.386 6.16105 229.716 5.48302C230.049 4.80499 230.511 4.27848 231.102 3.90348C231.697 3.52848 232.388 3.34098 233.176 3.34098C233.964 3.34098 234.653 3.52848 235.244 3.90348C235.839 4.27848 236.301 4.80499 236.631 5.48302C236.964 6.16105 237.131 6.95461 237.131 7.8637C237.131 8.76522 236.964 9.5531 236.631 10.2273C236.301 10.9016 235.839 11.4262 235.244 11.8012C234.653 12.1762 233.964 12.3637 233.176 12.3637ZM233.176 11.1592C233.775 11.1592 234.267 11.0057 234.653 10.6989C235.04 10.3921 235.326 9.9887 235.511 9.4887C235.697 8.9887 235.79 8.44704 235.79 7.8637C235.79 7.28037 235.697 6.73681 235.511 6.23302C235.326 5.72923 235.04 5.32204 234.653 5.01143C234.267 4.70082 233.775 4.54552 233.176 4.54552C232.578 4.54552 232.085 4.70082 231.699 5.01143C231.312 5.32204 231.026 5.72923 230.841 6.23302C230.655 6.73681 230.562 7.28037 230.562 7.8637C230.562 8.44704 230.655 8.9887 230.841 9.4887C231.026 9.9887 231.312 10.3921 231.699 10.6989C232.085 11.0057 232.578 11.1592 233.176 11.1592ZM239.178 12.1819V3.45461H240.473V4.81825H240.587C240.768 4.35234 241.062 3.9906 241.467 3.73302C241.873 3.47166 242.359 3.34098 242.928 3.34098C243.503 3.34098 243.982 3.47166 244.365 3.73302C244.751 3.9906 245.053 4.35234 245.268 4.81825H245.359C245.583 4.36749 245.918 4.00954 246.365 3.74438C246.812 3.47545 247.348 3.34098 247.973 3.34098C248.753 3.34098 249.392 3.58529 249.888 4.07393C250.384 4.55878 250.632 5.31446 250.632 6.34098V12.1819H249.291V6.34098C249.291 5.69704 249.115 5.23681 248.763 4.96029C248.41 4.68378 247.996 4.54552 247.518 4.54552C246.905 4.54552 246.429 4.73113 246.092 5.10234C245.755 5.46976 245.587 5.93567 245.587 6.50007V12.1819H244.223V6.20461C244.223 5.7084 244.062 5.30878 243.74 5.00575C243.418 4.69893 243.003 4.54552 242.496 4.54552C242.147 4.54552 241.821 4.63832 241.518 4.82393C241.219 5.00954 240.977 5.26711 240.791 5.59666C240.609 5.92241 240.518 6.29931 240.518 6.72734V12.1819H239.178ZM256.743 12.3637C255.902 12.3637 255.177 12.1781 254.567 11.8069C253.961 11.4319 253.493 10.9092 253.163 10.2387C252.838 9.56446 252.675 8.78037 252.675 7.88643C252.675 6.99249 252.838 6.20461 253.163 5.52279C253.493 4.83719 253.951 4.3031 254.538 3.92052C255.129 3.53416 255.819 3.34098 256.607 3.34098C257.061 3.34098 257.51 3.41673 257.953 3.56825C258.396 3.71976 258.8 3.96598 259.163 4.30688C259.527 4.64401 259.817 5.09098 260.033 5.64779C260.249 6.20461 260.357 6.89022 260.357 7.70461V8.27279H253.629V7.1137H258.993C258.993 6.62128 258.894 6.18188 258.697 5.79552C258.504 5.40916 258.228 5.10423 257.868 4.88075C257.512 4.65726 257.091 4.54552 256.607 4.54552C256.072 4.54552 255.61 4.6781 255.22 4.94325C254.834 5.20461 254.536 5.54552 254.328 5.96598C254.12 6.38643 254.016 6.83719 254.016 7.31825V8.09098C254.016 8.75007 254.129 9.30878 254.357 9.76711C254.588 10.2217 254.908 10.5682 255.317 10.8069C255.726 11.0417 256.201 11.1592 256.743 11.1592C257.095 11.1592 257.413 11.1099 257.697 11.0114C257.985 10.9092 258.233 10.7576 258.442 10.5569C258.65 10.3523 258.811 10.0986 258.925 9.79552L260.22 10.1592C260.084 10.5986 259.855 10.9849 259.533 11.3182C259.211 11.6478 258.813 11.9054 258.339 12.091C257.866 12.2728 257.334 12.3637 256.743 12.3637Z" fill="black"/>
</svg>
