<svg width="264" height="16" viewBox="0 0 264 16" fill="none" xmlns="http://www.w3.org/2000/svg">
<path d="M-2.76566e-05 12.5454V0.909046H7.0227V2.15905H1.40906V6.09086H6.65906V7.34086H1.40906V11.2954H7.11361V12.5454H-2.76566e-05ZM10.7216 7.29541V12.5454H9.38065V3.81814H10.6761V5.18177H10.7897C10.9943 4.73859 11.3049 4.38253 11.7216 4.11359C12.1382 3.84086 12.6761 3.7045 13.3352 3.7045C13.9261 3.7045 14.4432 3.82571 14.8863 4.06814C15.3295 4.30677 15.6742 4.67041 15.9204 5.15905C16.1666 5.64389 16.2897 6.25753 16.2897 6.99996V12.5454H14.9488V7.09086C14.9488 6.40526 14.7708 5.87117 14.4147 5.48859C14.0587 5.10223 13.57 4.90905 12.9488 4.90905C12.5208 4.90905 12.1382 5.00185 11.8011 5.18746C11.4678 5.37306 11.2045 5.64389 11.0113 5.99996C10.8182 6.35602 10.7216 6.78783 10.7216 7.29541ZM22.2855 12.7272C21.4673 12.7272 20.7628 12.534 20.1718 12.1477C19.5809 11.7613 19.1264 11.2291 18.8082 10.5511C18.49 9.87306 18.3309 9.09844 18.3309 8.22723C18.3309 7.34086 18.4938 6.55867 18.8196 5.88064C19.1491 5.19882 19.6075 4.66662 20.1946 4.28405C20.7855 3.89768 21.4749 3.7045 22.2628 3.7045C22.8764 3.7045 23.4294 3.81814 23.9218 4.04541C24.4143 4.27268 24.8177 4.59086 25.1321 4.99996C25.4465 5.40905 25.6415 5.88632 25.7173 6.43177H24.3764C24.2741 6.03405 24.0468 5.68177 23.6946 5.37496C23.3461 5.06435 22.8764 4.90905 22.2855 4.90905C21.7628 4.90905 21.3044 5.04541 20.9105 5.31814C20.5203 5.58708 20.2154 5.96776 19.9957 6.46018C19.7798 6.94882 19.6718 7.52268 19.6718 8.18177C19.6718 8.85602 19.7779 9.44314 19.99 9.94314C20.2059 10.4431 20.509 10.8314 20.8991 11.1079C21.2931 11.3844 21.7552 11.5227 22.2855 11.5227C22.634 11.5227 22.9503 11.4621 23.2343 11.3409C23.5184 11.2197 23.759 11.0454 23.9559 10.8181C24.1529 10.5909 24.2931 10.3181 24.3764 9.99996H25.7173C25.6415 10.5151 25.454 10.9791 25.1548 11.392C24.8593 11.8011 24.4673 12.1268 23.9787 12.3693C23.4938 12.6079 22.9294 12.7272 22.2855 12.7272ZM31.223 12.7272C30.4351 12.7272 29.7438 12.5397 29.1491 12.1647C28.5582 11.7897 28.0961 11.2651 27.7628 10.5909C27.4332 9.91662 27.2684 9.12874 27.2684 8.22723C27.2684 7.31814 27.4332 6.52458 27.7628 5.84655C28.0961 5.16852 28.5582 4.642 29.1491 4.267C29.7438 3.892 30.4351 3.7045 31.223 3.7045C32.0109 3.7045 32.7003 3.892 33.2912 4.267C33.8859 4.642 34.348 5.16852 34.6775 5.84655C35.0109 6.52458 35.1775 7.31814 35.1775 8.22723C35.1775 9.12874 35.0109 9.91662 34.6775 10.5909C34.348 11.2651 33.8859 11.7897 33.2912 12.1647C32.7003 12.5397 32.0109 12.7272 31.223 12.7272ZM31.223 11.5227C31.8215 11.5227 32.3139 11.3693 32.7003 11.0625C33.0866 10.7556 33.3726 10.3522 33.5582 9.85223C33.7438 9.35223 33.8366 8.81056 33.8366 8.22723C33.8366 7.64389 33.7438 7.10033 33.5582 6.59655C33.3726 6.09276 33.0866 5.68556 32.7003 5.37496C32.3139 5.06435 31.8215 4.90905 31.223 4.90905C30.6245 4.90905 30.1321 5.06435 29.7457 5.37496C29.3593 5.68556 29.0734 6.09276 28.8878 6.59655C28.7022 7.10033 28.6093 7.64389 28.6093 8.22723C28.6093 8.81056 28.7022 9.35223 28.8878 9.85223C29.0734 10.3522 29.3593 10.7556 29.7457 11.0625C30.1321 11.3693 30.6245 11.5227 31.223 11.5227ZM38.5653 7.29541V12.5454H37.2244V3.81814H38.5199V5.18177H38.6335C38.838 4.73859 39.1486 4.38253 39.5653 4.11359C39.982 3.84086 40.5199 3.7045 41.1789 3.7045C41.7699 3.7045 42.2869 3.82571 42.7301 4.06814C43.1733 4.30677 43.518 4.67041 43.7642 5.15905C44.0104 5.64389 44.1335 6.25753 44.1335 6.99996V12.5454H42.7926V7.09086C42.7926 6.40526 42.6146 5.87117 42.2585 5.48859C41.9024 5.10223 41.4138 4.90905 40.7926 4.90905C40.3646 4.90905 39.982 5.00185 39.6449 5.18746C39.3115 5.37306 39.0483 5.64389 38.8551 5.99996C38.6619 6.35602 38.5653 6.78783 38.5653 7.29541ZM50.3792 3.81814V4.9545H45.8565V3.81814H50.3792ZM47.1747 1.72723H48.5156V10.0454C48.5156 10.4242 48.5705 10.7083 48.6804 10.8977C48.794 11.0833 48.9379 11.2083 49.1122 11.2727C49.2902 11.3333 49.4777 11.3636 49.6747 11.3636C49.8224 11.3636 49.9436 11.356 50.0383 11.3409C50.133 11.3219 50.2088 11.3068 50.2656 11.2954L50.5383 12.5C50.4474 12.534 50.3205 12.5681 50.1576 12.6022C49.9948 12.6401 49.7883 12.659 49.5383 12.659C49.1595 12.659 48.7883 12.5776 48.4247 12.4147C48.0648 12.2518 47.7656 12.0037 47.527 11.6704C47.2921 11.3371 47.1747 10.9166 47.1747 10.409V1.72723ZM52.3963 12.5454V3.81814H53.6917V5.13632H53.7826C53.9417 4.7045 54.2296 4.35412 54.6463 4.08518C55.0629 3.81624 55.5326 3.68177 56.0554 3.68177C56.1539 3.68177 56.277 3.68367 56.4247 3.68746C56.5724 3.69124 56.6842 3.69693 56.7599 3.7045V5.06814C56.7145 5.05677 56.6103 5.03973 56.4474 5.017C56.2883 4.99049 56.1198 4.97723 55.9417 4.97723C55.5175 4.97723 55.1387 5.06624 54.8054 5.24427C54.4758 5.41852 54.2145 5.66094 54.0213 5.97155C53.8319 6.27836 53.7372 6.62874 53.7372 7.02268V12.5454H52.3963ZM61.7429 12.7272C60.902 12.7272 60.1766 12.5416 59.5667 12.1704C58.9607 11.7954 58.4929 11.2727 58.1633 10.6022C57.8376 9.92799 57.6747 9.14389 57.6747 8.24996C57.6747 7.35602 57.8376 6.56814 58.1633 5.88632C58.4929 5.20071 58.9512 4.66662 59.5383 4.28405C60.1292 3.89768 60.8186 3.7045 61.6065 3.7045C62.0611 3.7045 62.5099 3.78026 62.9531 3.93177C63.3963 4.08329 63.7997 4.3295 64.1633 4.67041C64.527 5.00753 64.8167 5.4545 65.0326 6.01132C65.2486 6.56814 65.3565 7.25374 65.3565 8.06814V8.63632H58.6292V7.47723H63.9929C63.9929 6.9848 63.8944 6.54541 63.6974 6.15905C63.5042 5.77268 63.2277 5.46776 62.8679 5.24427C62.5118 5.02079 62.0914 4.90905 61.6065 4.90905C61.0724 4.90905 60.6103 5.04162 60.2201 5.30677C59.8338 5.56814 59.5364 5.90905 59.3281 6.3295C59.1198 6.74996 59.0156 7.20071 59.0156 7.68177V8.4545C59.0156 9.11359 59.1292 9.6723 59.3565 10.1306C59.5876 10.5852 59.9076 10.9318 60.3167 11.1704C60.7258 11.4053 61.2012 11.5227 61.7429 11.5227C62.0951 11.5227 62.4133 11.4734 62.6974 11.375C62.9853 11.2727 63.2334 11.1212 63.4417 10.9204C63.6501 10.7159 63.8111 10.4621 63.9247 10.159L65.2201 10.5227C65.0838 10.9621 64.8546 11.3484 64.5326 11.6818C64.2107 12.0113 63.8129 12.2689 63.3395 12.4545C62.866 12.6363 62.3338 12.7272 61.7429 12.7272ZM73.2372 0.909046V12.5454H71.8963V0.909046H73.2372ZM81.1932 8.97723V3.81814H82.5341V12.5454H81.1932V11.0681H81.1022C80.8977 11.5113 80.5795 11.8882 80.1477 12.1988C79.7159 12.5056 79.1704 12.659 78.5113 12.659C77.9659 12.659 77.481 12.5397 77.0568 12.3011C76.6325 12.0587 76.2992 11.695 76.0568 11.2102C75.8144 10.7215 75.6932 10.106 75.6932 9.36359V3.81814H77.0341V9.27268C77.0341 9.90905 77.2121 10.4166 77.5682 10.7954C77.928 11.1742 78.3863 11.3636 78.9432 11.3636C79.2765 11.3636 79.6155 11.2784 79.9602 11.1079C80.3087 10.9375 80.6004 10.6761 80.8352 10.3238C81.0738 9.97155 81.1932 9.52268 81.1932 8.97723ZM88.5128 16C87.865 16 87.3082 15.9166 86.8423 15.75C86.3764 15.5871 85.9881 15.3712 85.6775 15.1022C85.3707 14.8371 85.1264 14.553 84.9446 14.25L86.0128 13.5C86.134 13.659 86.2874 13.8409 86.473 14.0454C86.6586 14.2537 86.9124 14.4337 87.2343 14.5852C87.5601 14.7405 87.9862 14.8181 88.5128 14.8181C89.2173 14.8181 89.7987 14.6477 90.2571 14.3068C90.7154 13.9659 90.9446 13.4318 90.9446 12.7045V10.9318H90.8309C90.7325 11.0909 90.5923 11.2878 90.4105 11.5227C90.2325 11.7537 89.9749 11.9602 89.6378 12.142C89.3044 12.32 88.8537 12.409 88.2855 12.409C87.5809 12.409 86.9484 12.2424 86.3878 11.909C85.8309 11.5757 85.3897 11.0909 85.0639 10.4545C84.7419 9.81814 84.5809 9.04541 84.5809 8.13632C84.5809 7.24238 84.7381 6.46397 85.0525 5.80109C85.3669 5.13443 85.8044 4.61927 86.365 4.25564C86.9256 3.88821 87.5734 3.7045 88.3082 3.7045C88.8764 3.7045 89.3272 3.7992 89.6605 3.98859C89.9976 4.1742 90.2552 4.38632 90.4332 4.62496C90.615 4.8598 90.7552 5.05299 90.8537 5.2045H90.99V3.81814H92.2855V12.7954C92.2855 13.5454 92.115 14.1553 91.7741 14.625C91.437 15.0984 90.9825 15.445 90.4105 15.6647C89.8423 15.8882 89.2097 16 88.5128 16ZM88.4673 11.2045C89.0052 11.2045 89.4597 11.0814 89.8309 10.8352C90.2022 10.589 90.4843 10.2348 90.6775 9.77268C90.8707 9.31056 90.9673 8.75753 90.9673 8.11359C90.9673 7.4848 90.8726 6.92988 90.6832 6.44882C90.4938 5.96776 90.2135 5.59086 89.8423 5.31814C89.4711 5.04541 89.0128 4.90905 88.4673 4.90905C87.8991 4.90905 87.4256 5.05299 87.0468 5.34086C86.6718 5.62874 86.3897 6.01511 86.2003 6.49996C86.0147 6.9848 85.9218 7.52268 85.9218 8.11359C85.9218 8.71965 86.0165 9.25564 86.2059 9.72155C86.3991 10.1837 86.6832 10.5473 87.0582 10.8125C87.437 11.0738 87.9067 11.2045 88.4673 11.2045ZM97.3082 12.75C96.7552 12.75 96.2533 12.6458 95.8025 12.4375C95.3518 12.2253 94.9938 11.9204 94.7287 11.5227C94.4635 11.1212 94.3309 10.6363 94.3309 10.0681C94.3309 9.56814 94.4294 9.16283 94.6264 8.85223C94.8234 8.53783 95.0866 8.29162 95.4162 8.11359C95.7457 7.93556 96.1093 7.80299 96.5071 7.71586C96.9086 7.62496 97.312 7.55299 97.7173 7.49996C98.2476 7.43177 98.6775 7.38064 99.0071 7.34655C99.3404 7.30867 99.5828 7.24617 99.7343 7.15905C99.8897 7.07193 99.9673 6.92041 99.9673 6.7045V6.65905C99.9673 6.09844 99.8139 5.66283 99.5071 5.35223C99.204 5.04162 98.7438 4.88632 98.1264 4.88632C97.4862 4.88632 96.9843 5.02647 96.6207 5.30677C96.2571 5.58708 96.0014 5.88632 95.8537 6.2045L94.5809 5.74996C94.8082 5.21965 95.1112 4.80677 95.49 4.51132C95.8726 4.21208 96.2893 4.00374 96.74 3.88632C97.1946 3.76511 97.6415 3.7045 98.0809 3.7045C98.3612 3.7045 98.6832 3.73859 99.0468 3.80677C99.4143 3.87117 99.7684 4.00564 100.109 4.21018C100.454 4.41473 100.74 4.72344 100.967 5.13632C101.195 5.5492 101.308 6.10223 101.308 6.79541V12.5454H99.9673V11.3636H99.8991C99.8082 11.553 99.6567 11.7556 99.4446 11.9715C99.2325 12.1875 98.9503 12.3712 98.598 12.5227C98.2457 12.6742 97.8158 12.75 97.3082 12.75ZM97.5128 11.5454C98.0431 11.5454 98.49 11.4412 98.8537 11.2329C99.2211 11.0246 99.4976 10.7556 99.6832 10.4261C99.8726 10.0965 99.9673 9.74996 99.9673 9.38632V8.15905C99.9105 8.22723 99.7855 8.28973 99.5923 8.34655C99.4029 8.39958 99.1832 8.44693 98.9332 8.48859C98.687 8.52647 98.4465 8.56056 98.2116 8.59086C97.9806 8.61738 97.7931 8.64011 97.6491 8.65905C97.3006 8.7045 96.9749 8.77836 96.6718 8.88064C96.3726 8.97912 96.1302 9.12874 95.9446 9.3295C95.7628 9.52647 95.6718 9.79541 95.6718 10.1363C95.6718 10.6022 95.8442 10.9545 96.1889 11.1931C96.5374 11.428 96.9787 11.5454 97.5128 11.5454ZM103.756 12.5454V3.81814H105.051V5.13632H105.142C105.301 4.7045 105.589 4.35412 106.006 4.08518C106.422 3.81624 106.892 3.68177 107.415 3.68177C107.513 3.68177 107.636 3.68367 107.784 3.68746C107.932 3.69124 108.044 3.69693 108.119 3.7045V5.06814C108.074 5.05677 107.97 5.03973 107.807 5.017C107.648 4.99049 107.479 4.97723 107.301 4.97723C106.877 4.97723 106.498 5.06624 106.165 5.24427C105.835 5.41852 105.574 5.66094 105.381 5.97155C105.191 6.27836 105.097 6.62874 105.097 7.02268V12.5454H103.756ZM113.102 12.7272C112.261 12.7272 111.536 12.5416 110.926 12.1704C110.32 11.7954 109.852 11.2727 109.523 10.6022C109.197 9.92799 109.034 9.14389 109.034 8.24996C109.034 7.35602 109.197 6.56814 109.523 5.88632C109.852 5.20071 110.311 4.66662 110.898 4.28405C111.489 3.89768 112.178 3.7045 112.966 3.7045C113.42 3.7045 113.869 3.78026 114.312 3.93177C114.756 4.08329 115.159 4.3295 115.523 4.67041C115.886 5.00753 116.176 5.4545 116.392 6.01132C116.608 6.56814 116.716 7.25374 116.716 8.06814V8.63632H109.989V7.47723H115.352C115.352 6.9848 115.254 6.54541 115.057 6.15905C114.864 5.77268 114.587 5.46776 114.227 5.24427C113.871 5.02079 113.451 4.90905 112.966 4.90905C112.432 4.90905 111.97 5.04162 111.58 5.30677C111.193 5.56814 110.896 5.90905 110.687 6.3295C110.479 6.74996 110.375 7.20071 110.375 7.68177V8.4545C110.375 9.11359 110.489 9.6723 110.716 10.1306C110.947 10.5852 111.267 10.9318 111.676 11.1704C112.085 11.4053 112.561 11.5227 113.102 11.5227C113.455 11.5227 113.773 11.4734 114.057 11.375C114.345 11.2727 114.593 11.1212 114.801 10.9204C115.009 10.7159 115.17 10.4621 115.284 10.159L116.58 10.5227C116.443 10.9621 116.214 11.3484 115.892 11.6818C115.57 12.0113 115.172 12.2689 114.699 12.4545C114.225 12.6363 113.693 12.7272 113.102 12.7272ZM124.937 5.77268L123.733 6.11359C123.657 5.91283 123.545 5.71776 123.398 5.52836C123.254 5.33518 123.057 5.17609 122.807 5.05109C122.557 4.92609 122.237 4.86359 121.847 4.86359C121.312 4.86359 120.867 4.9867 120.511 5.23291C120.159 5.47533 119.983 5.78405 119.983 6.15905C119.983 6.49238 120.104 6.75564 120.347 6.94882C120.589 7.142 120.968 7.30299 121.483 7.43177L122.778 7.74996C123.559 7.93935 124.14 8.22912 124.523 8.61927C124.905 9.00564 125.097 9.50374 125.097 10.1136C125.097 10.6136 124.953 11.0606 124.665 11.4545C124.381 11.8484 123.983 12.159 123.472 12.3863C122.96 12.6136 122.366 12.7272 121.687 12.7272C120.797 12.7272 120.061 12.534 119.477 12.1477C118.894 11.7613 118.525 11.1969 118.369 10.4545L119.642 10.1363C119.763 10.606 119.992 10.9583 120.33 11.1931C120.67 11.428 121.116 11.5454 121.665 11.5454C122.29 11.5454 122.786 11.4128 123.153 11.1477C123.525 10.8787 123.71 10.5568 123.71 10.1818C123.71 9.87874 123.604 9.62496 123.392 9.42041C123.18 9.21208 122.854 9.05677 122.415 8.9545L120.96 8.61359C120.161 8.4242 119.574 8.13064 119.199 7.73291C118.828 7.33139 118.642 6.8295 118.642 6.22723C118.642 5.7348 118.78 5.2992 119.057 4.92041C119.337 4.54162 119.718 4.24427 120.199 4.02836C120.684 3.81246 121.233 3.7045 121.847 3.7045C122.71 3.7045 123.388 3.89389 123.881 4.27268C124.377 4.65147 124.729 5.15147 124.937 5.77268ZM131.615 15.8181V3.81814H132.91V5.2045H133.07C133.168 5.05299 133.304 4.8598 133.479 4.62496C133.657 4.38632 133.91 4.1742 134.24 3.98859C134.573 3.7992 135.024 3.7045 135.592 3.7045C136.327 3.7045 136.975 3.88821 137.535 4.25564C138.096 4.62306 138.534 5.14389 138.848 5.81814C139.162 6.49238 139.32 7.28783 139.32 8.2045C139.32 9.12874 139.162 9.92988 138.848 10.6079C138.534 11.2822 138.098 11.8049 137.541 12.1761C136.984 12.5435 136.342 12.7272 135.615 12.7272C135.054 12.7272 134.606 12.6344 134.268 12.4488C133.931 12.2594 133.672 12.0454 133.49 11.8068C133.308 11.5643 133.168 11.3636 133.07 11.2045H132.956V15.8181H131.615ZM132.933 8.18177C132.933 8.84086 133.03 9.4223 133.223 9.92609C133.416 10.4261 133.698 10.8181 134.07 11.1022C134.441 11.3825 134.895 11.5227 135.433 11.5227C135.994 11.5227 136.462 11.375 136.837 11.0795C137.215 10.7803 137.499 10.3787 137.689 9.87496C137.882 9.36738 137.979 8.80299 137.979 8.18177C137.979 7.56814 137.884 7.01511 137.695 6.52268C137.509 6.02647 137.227 5.63443 136.848 5.34655C136.473 5.05488 136.001 4.90905 135.433 4.90905C134.888 4.90905 134.429 5.0473 134.058 5.32382C133.687 5.59655 133.407 5.97912 133.217 6.47155C133.028 6.96018 132.933 7.53026 132.933 8.18177ZM141.365 12.5454V3.81814H142.66V5.13632H142.751C142.91 4.7045 143.198 4.35412 143.615 4.08518C144.032 3.81624 144.501 3.68177 145.024 3.68177C145.123 3.68177 145.246 3.68367 145.393 3.68746C145.541 3.69124 145.653 3.69693 145.729 3.7045V5.06814C145.683 5.05677 145.579 5.03973 145.416 5.017C145.257 4.99049 145.089 4.97723 144.91 4.97723C144.486 4.97723 144.107 5.06624 143.774 5.24427C143.445 5.41852 143.183 5.66094 142.99 5.97155C142.801 6.27836 142.706 6.62874 142.706 7.02268V12.5454H141.365ZM150.598 12.7272C149.81 12.7272 149.119 12.5397 148.524 12.1647C147.933 11.7897 147.471 11.2651 147.138 10.5909C146.808 9.91662 146.643 9.12874 146.643 8.22723C146.643 7.31814 146.808 6.52458 147.138 5.84655C147.471 5.16852 147.933 4.642 148.524 4.267C149.119 3.892 149.81 3.7045 150.598 3.7045C151.386 3.7045 152.075 3.892 152.666 4.267C153.261 4.642 153.723 5.16852 154.053 5.84655C154.386 6.52458 154.553 7.31814 154.553 8.22723C154.553 9.12874 154.386 9.91662 154.053 10.5909C153.723 11.2651 153.261 11.7897 152.666 12.1647C152.075 12.5397 151.386 12.7272 150.598 12.7272ZM150.598 11.5227C151.196 11.5227 151.689 11.3693 152.075 11.0625C152.462 10.7556 152.748 10.3522 152.933 9.85223C153.119 9.35223 153.212 8.81056 153.212 8.22723C153.212 7.64389 153.119 7.10033 152.933 6.59655C152.748 6.09276 152.462 5.68556 152.075 5.37496C151.689 5.06435 151.196 4.90905 150.598 4.90905C149.999 4.90905 149.507 5.06435 149.121 5.37496C148.734 5.68556 148.448 6.09276 148.263 6.59655C148.077 7.10033 147.984 7.64389 147.984 8.22723C147.984 8.81056 148.077 9.35223 148.263 9.85223C148.448 10.3522 148.734 10.7556 149.121 11.0625C149.507 11.3693 149.999 11.5227 150.598 11.5227ZM149.984 2.63632L151.371 -4.48227e-05H152.939L151.166 2.63632H149.984ZM157.24 3.81814L159.331 7.38632L161.422 3.81814H162.967L160.149 8.18177L162.967 12.5454H161.422L159.331 9.15905L157.24 12.5454H155.695L158.467 8.18177L155.695 3.81814H157.24ZM164.881 12.5454V3.81814H166.222V12.5454H164.881ZM165.562 2.36359C165.301 2.36359 165.076 2.27458 164.886 2.09655C164.701 1.91852 164.608 1.7045 164.608 1.4545C164.608 1.2045 164.701 0.990486 164.886 0.812455C165.076 0.634425 165.301 0.54541 165.562 0.54541C165.824 0.54541 166.047 0.634425 166.233 0.812455C166.422 0.990486 166.517 1.2045 166.517 1.4545C166.517 1.7045 166.422 1.91852 166.233 2.09655C166.047 2.27458 165.824 2.36359 165.562 2.36359ZM168.678 12.5454V3.81814H169.973V5.18177H170.087C170.268 4.71586 170.562 4.35412 170.967 4.09655C171.373 3.83518 171.859 3.7045 172.428 3.7045C173.003 3.7045 173.482 3.83518 173.865 4.09655C174.251 4.35412 174.553 4.71586 174.768 5.18177H174.859C175.083 4.73102 175.418 4.37306 175.865 4.10791C176.312 3.83897 176.848 3.7045 177.473 3.7045C178.253 3.7045 178.892 3.94882 179.388 4.43746C179.884 4.9223 180.132 5.67799 180.132 6.7045V12.5454H178.791V6.7045C178.791 6.06056 178.615 5.60033 178.263 5.32382C177.91 5.0473 177.496 4.90905 177.018 4.90905C176.405 4.90905 175.929 5.09465 175.592 5.46586C175.255 5.83329 175.087 6.2992 175.087 6.86359V12.5454H173.723V6.56814C173.723 6.07193 173.562 5.6723 173.24 5.36927C172.918 5.06246 172.503 4.90905 171.996 4.90905C171.647 4.90905 171.321 5.00185 171.018 5.18746C170.719 5.37306 170.477 5.63064 170.291 5.96018C170.109 6.28594 170.018 6.66283 170.018 7.09086V12.5454H168.678ZM186.129 12.7272C185.341 12.7272 184.65 12.5397 184.055 12.1647C183.464 11.7897 183.002 11.2651 182.669 10.5909C182.339 9.91662 182.175 9.12874 182.175 8.22723C182.175 7.31814 182.339 6.52458 182.669 5.84655C183.002 5.16852 183.464 4.642 184.055 4.267C184.65 3.892 185.341 3.7045 186.129 3.7045C186.917 3.7045 187.607 3.892 188.197 4.267C188.792 4.642 189.254 5.16852 189.584 5.84655C189.917 6.52458 190.084 7.31814 190.084 8.22723C190.084 9.12874 189.917 9.91662 189.584 10.5909C189.254 11.2651 188.792 11.7897 188.197 12.1647C187.607 12.5397 186.917 12.7272 186.129 12.7272ZM186.129 11.5227C186.728 11.5227 187.22 11.3693 187.607 11.0625C187.993 10.7556 188.279 10.3522 188.464 9.85223C188.65 9.35223 188.743 8.81056 188.743 8.22723C188.743 7.64389 188.65 7.10033 188.464 6.59655C188.279 6.09276 187.993 5.68556 187.607 5.37496C187.22 5.06435 186.728 4.90905 186.129 4.90905C185.531 4.90905 185.038 5.06435 184.652 5.37496C184.266 5.68556 183.98 6.09276 183.794 6.59655C183.608 7.10033 183.516 7.64389 183.516 8.22723C183.516 8.81056 183.608 9.35223 183.794 9.85223C183.98 10.3522 184.266 10.7556 184.652 11.0625C185.038 11.3693 185.531 11.5227 186.129 11.5227ZM198.312 5.77268L197.108 6.11359C197.032 5.91283 196.92 5.71776 196.773 5.52836C196.629 5.33518 196.432 5.17609 196.182 5.05109C195.932 4.92609 195.612 4.86359 195.222 4.86359C194.687 4.86359 194.242 4.9867 193.886 5.23291C193.534 5.47533 193.358 5.78405 193.358 6.15905C193.358 6.49238 193.479 6.75564 193.722 6.94882C193.964 7.142 194.343 7.30299 194.858 7.43177L196.153 7.74996C196.934 7.93935 197.515 8.22912 197.898 8.61927C198.28 9.00564 198.472 9.50374 198.472 10.1136C198.472 10.6136 198.328 11.0606 198.04 11.4545C197.756 11.8484 197.358 12.159 196.847 12.3863C196.335 12.6136 195.741 12.7272 195.062 12.7272C194.172 12.7272 193.436 12.534 192.852 12.1477C192.269 11.7613 191.9 11.1969 191.744 10.4545L193.017 10.1363C193.138 10.606 193.367 10.9583 193.705 11.1931C194.045 11.428 194.491 11.5454 195.04 11.5454C195.665 11.5454 196.161 11.4128 196.528 11.1477C196.9 10.8787 197.085 10.5568 197.085 10.1818C197.085 9.87874 196.979 9.62496 196.767 9.42041C196.555 9.21208 196.229 9.05677 195.79 8.9545L194.335 8.61359C193.536 8.4242 192.949 8.13064 192.574 7.73291C192.203 7.33139 192.017 6.8295 192.017 6.22723C192.017 5.7348 192.155 5.2992 192.432 4.92041C192.712 4.54162 193.093 4.24427 193.574 4.02836C194.059 3.81246 194.608 3.7045 195.222 3.7045C196.085 3.7045 196.763 3.89389 197.256 4.27268C197.752 4.65147 198.104 5.15147 198.312 5.77268ZM208.285 12.7272C207.558 12.7272 206.916 12.5435 206.359 12.1761C205.803 11.8049 205.367 11.2822 205.053 10.6079C204.738 9.92988 204.581 9.12874 204.581 8.2045C204.581 7.28783 204.738 6.49238 205.053 5.81814C205.367 5.14389 205.804 4.62306 206.365 4.25564C206.926 3.88821 207.573 3.7045 208.308 3.7045C208.876 3.7045 209.325 3.7992 209.655 3.98859C209.988 4.1742 210.242 4.38632 210.416 4.62496C210.594 4.8598 210.732 5.05299 210.831 5.2045H210.945V0.909046H212.285V12.5454H210.99V11.2045H210.831C210.732 11.3636 210.592 11.5643 210.41 11.8068C210.229 12.0454 209.969 12.2594 209.632 12.4488C209.295 12.6344 208.846 12.7272 208.285 12.7272ZM208.467 11.5227C209.005 11.5227 209.46 11.3825 209.831 11.1022C210.202 10.8181 210.484 10.4261 210.678 9.92609C210.871 9.4223 210.967 8.84086 210.967 8.18177C210.967 7.53026 210.873 6.96018 210.683 6.47155C210.494 5.97912 210.214 5.59655 209.842 5.32382C209.471 5.0473 209.013 4.90905 208.467 4.90905C207.899 4.90905 207.426 5.05488 207.047 5.34655C206.672 5.63443 206.39 6.02647 206.2 6.52268C206.015 7.01511 205.922 7.56814 205.922 8.18177C205.922 8.80299 206.017 9.36738 206.206 9.87496C206.399 10.3787 206.683 10.7803 207.058 11.0795C207.437 11.375 207.907 11.5227 208.467 11.5227ZM218.587 12.7272C217.746 12.7272 217.02 12.5416 216.41 12.1704C215.804 11.7954 215.337 11.2727 215.007 10.6022C214.681 9.92799 214.518 9.14389 214.518 8.24996C214.518 7.35602 214.681 6.56814 215.007 5.88632C215.337 5.20071 215.795 4.66662 216.382 4.28405C216.973 3.89768 217.662 3.7045 218.45 3.7045C218.905 3.7045 219.354 3.78026 219.797 3.93177C220.24 4.08329 220.643 4.3295 221.007 4.67041C221.371 5.00753 221.66 5.4545 221.876 6.01132C222.092 6.56814 222.2 7.25374 222.2 8.06814V8.63632H215.473V7.47723H220.837C220.837 6.9848 220.738 6.54541 220.541 6.15905C220.348 5.77268 220.071 5.46776 219.712 5.24427C219.356 5.02079 218.935 4.90905 218.45 4.90905C217.916 4.90905 217.454 5.04162 217.064 5.30677C216.678 5.56814 216.38 5.90905 216.172 6.3295C215.964 6.74996 215.859 7.20071 215.859 7.68177V8.4545C215.859 9.11359 215.973 9.6723 216.2 10.1306C216.431 10.5852 216.751 10.9318 217.16 11.1704C217.57 11.4053 218.045 11.5227 218.587 11.5227C218.939 11.5227 219.257 11.4734 219.541 11.375C219.829 11.2727 220.077 11.1212 220.285 10.9204C220.494 10.7159 220.655 10.4621 220.768 10.159L222.064 10.5227C221.928 10.9621 221.698 11.3484 221.376 11.6818C221.054 12.0113 220.657 12.2689 220.183 12.4545C219.71 12.6363 219.178 12.7272 218.587 12.7272ZM235.876 3.81814L232.649 12.5454H231.285L228.058 3.81814H229.513L231.922 10.7727H232.013L234.422 3.81814H235.876ZM240.879 12.7272C240.091 12.7272 239.4 12.5397 238.805 12.1647C238.214 11.7897 237.752 11.2651 237.419 10.5909C237.089 9.91662 236.925 9.12874 236.925 8.22723C236.925 7.31814 237.089 6.52458 237.419 5.84655C237.752 5.16852 238.214 4.642 238.805 4.267C239.4 3.892 240.091 3.7045 240.879 3.7045C241.667 3.7045 242.357 3.892 242.947 4.267C243.542 4.642 244.004 5.16852 244.334 5.84655C244.667 6.52458 244.834 7.31814 244.834 8.22723C244.834 9.12874 244.667 9.91662 244.334 10.5909C244.004 11.2651 243.542 11.7897 242.947 12.1647C242.357 12.5397 241.667 12.7272 240.879 12.7272ZM240.879 11.5227C241.478 11.5227 241.97 11.3693 242.357 11.0625C242.743 10.7556 243.029 10.3522 243.214 9.85223C243.4 9.35223 243.493 8.81056 243.493 8.22723C243.493 7.64389 243.4 7.10033 243.214 6.59655C243.029 6.09276 242.743 5.68556 242.357 5.37496C241.97 5.06435 241.478 4.90905 240.879 4.90905C240.281 4.90905 239.788 5.06435 239.402 5.37496C239.016 5.68556 238.73 6.09276 238.544 6.59655C238.358 7.10033 238.266 7.64389 238.266 8.22723C238.266 8.81056 238.358 9.35223 238.544 9.85223C238.73 10.3522 239.016 10.7556 239.402 11.0625C239.788 11.3693 240.281 11.5227 240.879 11.5227ZM250.426 12.7272C249.608 12.7272 248.903 12.534 248.312 12.1477C247.722 11.7613 247.267 11.2291 246.949 10.5511C246.631 9.87306 246.472 9.09844 246.472 8.22723C246.472 7.34086 246.634 6.55867 246.96 5.88064C247.29 5.19882 247.748 4.66662 248.335 4.28405C248.926 3.89768 249.616 3.7045 250.403 3.7045C251.017 3.7045 251.57 3.81814 252.062 4.04541C252.555 4.27268 252.958 4.59086 253.273 4.99996C253.587 5.40905 253.782 5.88632 253.858 6.43177H252.517C252.415 6.03405 252.187 5.68177 251.835 5.37496C251.487 5.06435 251.017 4.90905 250.426 4.90905C249.903 4.90905 249.445 5.04541 249.051 5.31814C248.661 5.58708 248.356 5.96776 248.136 6.46018C247.92 6.94882 247.812 7.52268 247.812 8.18177C247.812 8.85602 247.919 9.44314 248.131 9.94314C248.347 10.4431 248.65 10.8314 249.04 11.1079C249.434 11.3844 249.896 11.5227 250.426 11.5227C250.775 11.5227 251.091 11.4621 251.375 11.3409C251.659 11.2197 251.9 11.0454 252.097 10.8181C252.294 10.5909 252.434 10.3181 252.517 9.99996H253.858C253.782 10.5151 253.595 10.9791 253.295 11.392C253 11.8011 252.608 12.1268 252.119 12.3693C251.634 12.6079 251.07 12.7272 250.426 12.7272ZM259.477 12.7272C258.636 12.7272 257.911 12.5416 257.301 12.1704C256.695 11.7954 256.227 11.2727 255.898 10.6022C255.572 9.92799 255.409 9.14389 255.409 8.24996C255.409 7.35602 255.572 6.56814 255.898 5.88632C256.227 5.20071 256.686 4.66662 257.273 4.28405C257.864 3.89768 258.553 3.7045 259.341 3.7045C259.795 3.7045 260.244 3.78026 260.687 3.93177C261.131 4.08329 261.534 4.3295 261.898 4.67041C262.261 5.00753 262.551 5.4545 262.767 6.01132C262.983 6.56814 263.091 7.25374 263.091 8.06814V8.63632H256.364V7.47723H261.727C261.727 6.9848 261.629 6.54541 261.432 6.15905C261.239 5.77268 260.962 5.46776 260.602 5.24427C260.246 5.02079 259.826 4.90905 259.341 4.90905C258.807 4.90905 258.345 5.04162 257.955 5.30677C257.568 5.56814 257.271 5.90905 257.062 6.3295C256.854 6.74996 256.75 7.20071 256.75 7.68177V8.4545C256.75 9.11359 256.864 9.6723 257.091 10.1306C257.322 10.5852 257.642 10.9318 258.051 11.1704C258.46 11.4053 258.936 11.5227 259.477 11.5227C259.83 11.5227 260.148 11.4734 260.432 11.375C260.72 11.2727 260.968 11.1212 261.176 10.9204C261.384 10.7159 261.545 10.4621 261.659 10.159L262.955 10.5227C262.818 10.9621 262.589 11.3484 262.267 11.6818C261.945 12.0113 261.547 12.2689 261.074 12.4545C260.6 12.6363 260.068 12.7272 259.477 12.7272ZM260.455 2.77268L259.273 1.18177L258.091 2.77268H256.818V2.68177L258.659 0.318137H259.886L261.727 2.68177V2.77268H260.455Z" fill="black"/>
</svg>
