<svg width="324" height="104" viewBox="0 0 324 104" fill="none" xmlns="http://www.w3.org/2000/svg">
<path d="M24.03 36.18C23.85 36.12 23.625 36.045 23.355 35.955C23.085 35.865 22.68 35.7 22.14 35.46H1.30498C1.00498 35.07 0.749976 34.635 0.539976 34.155C0.359976 33.645 0.269976 33.135 0.269976 32.625C1.25998 32.625 1.99498 32.445 2.47498 32.085C2.98498 31.725 3.23998 31.125 3.23998 30.285V9.17996C3.23998 8.33996 2.99998 7.75496 2.51998 7.42496C2.03998 7.06496 1.30498 6.88496 0.314976 6.88496C0.314976 6.37496 0.404976 5.87996 0.584976 5.39996C0.794976 4.88996 1.04998 4.43996 1.34998 4.04996H18.81C19.35 3.80996 19.95 3.62996 20.61 3.50996C21.27 3.35996 21.885 3.28496 22.455 3.28496C22.725 3.76496 23.025 4.46996 23.355 5.39996C23.715 6.29996 24.03 7.19996 24.3 8.09996C24.57 8.99996 24.705 9.70496 24.705 10.215C24.465 10.455 24.075 10.695 23.535 10.935C23.025 11.175 22.5 11.385 21.96 11.565C21.42 11.745 20.97 11.88 20.61 11.97C20.28 10.98 19.695 10.05 18.855 9.17996C18.045 8.30996 17.04 7.87496 15.84 7.87496H10.755V17.37H13.995C14.835 17.37 15.525 17.13 16.065 16.65C16.635 16.14 16.92 15.285 16.92 14.085C18.27 14.085 19.485 14.4 20.565 15.03V23.4C19.545 24.03 18.345 24.345 16.965 24.345C16.965 23.145 16.68 22.275 16.11 21.735C15.57 21.195 14.88 20.925 14.04 20.925H10.755V31.5H16.2C17.52 31.5 18.63 30.96 19.53 29.88C20.46 28.77 21.03 27.465 21.24 25.965H26.055C26.055 26.415 25.98 27.12 25.83 28.08C25.71 29.01 25.545 30.03 25.335 31.14C25.155 32.22 24.945 33.225 24.705 34.155C24.465 35.085 24.24 35.76 24.03 36.18ZM37.0926 35.91C36.0126 35.91 34.9176 35.79 33.8076 35.55C32.7276 35.31 31.7226 34.965 30.7926 34.515C29.8926 34.065 29.1576 33.51 28.5876 32.85C28.0176 32.16 27.7326 31.38 27.7326 30.51C27.7326 29.46 28.0326 28.62 28.6326 27.99C29.2326 27.33 29.9976 27 30.9276 27C31.7676 27 32.4726 27.27 33.0426 27.81C33.6426 28.35 33.9426 29.055 33.9426 29.925C33.9426 30.315 33.8826 30.66 33.7626 30.96C33.6426 31.23 33.4626 31.53 33.2226 31.86C33.4926 32.13 33.9726 32.325 34.6626 32.445C35.3526 32.565 36.0276 32.625 36.6876 32.625C37.7376 32.625 38.5476 32.43 39.1176 32.04C39.6876 31.65 39.9726 31.17 39.9726 30.6C39.9726 29.7 39.4926 28.935 38.5326 28.305C37.5726 27.645 36.4776 26.985 35.2476 26.325C34.1376 25.725 33.0276 25.095 31.9176 24.435C30.8376 23.745 29.9226 22.89 29.1726 21.87C28.4526 20.85 28.0926 19.56 28.0926 18C28.0926 16.02 28.9176 14.385 30.5676 13.095C32.2176 11.805 34.5576 11.16 37.5876 11.16C39.6876 11.16 41.3676 11.43 42.6276 11.97C43.8876 12.48 44.8026 13.14 45.3726 13.95C45.9426 14.73 46.2276 15.555 46.2276 16.425C46.2276 17.355 45.9276 18.105 45.3276 18.675C44.7576 19.215 44.0526 19.485 43.2126 19.485C42.4626 19.485 41.8026 19.26 41.2326 18.81C40.6626 18.33 40.3776 17.715 40.3776 16.965C40.3776 16.605 40.4376 16.215 40.5576 15.795C40.6776 15.375 40.8426 15.03 41.0526 14.76C40.7226 14.49 40.3326 14.31 39.8826 14.22C39.4626 14.1 38.9526 14.04 38.3526 14.04C37.3626 14.04 36.5976 14.28 36.0576 14.76C35.5476 15.21 35.2926 15.765 35.2926 16.425C35.2926 17.445 35.7726 18.285 36.7326 18.945C37.7226 19.605 38.8176 20.25 40.0176 20.88C41.1276 21.45 42.2076 22.065 43.2576 22.725C44.3376 23.385 45.2376 24.21 45.9576 25.2C46.6776 26.19 47.0376 27.465 47.0376 29.025C47.0376 30.705 46.5576 32.055 45.5976 33.075C44.6376 34.065 43.3926 34.785 41.8626 35.235C40.3626 35.685 38.7726 35.91 37.0926 35.91ZM60.4751 36.135C58.2851 36.135 56.3501 35.64 54.6701 34.65C53.0201 33.66 51.7151 32.25 50.7551 30.42C49.8251 28.56 49.3601 26.34 49.3601 23.76C49.3601 21.09 49.8701 18.81 50.8901 16.92C51.9101 15 53.3051 13.545 55.0751 12.555C56.8451 11.535 58.8401 11.025 61.0601 11.025C63.3701 11.025 65.1251 11.58 66.3251 12.69C67.5251 13.77 68.1251 15.105 68.1251 16.695C68.1251 18.135 67.7651 19.245 67.0451 20.025C66.3251 20.805 65.3951 21.195 64.2551 21.195C63.3251 21.195 62.5451 20.85 61.9151 20.16C61.2851 19.47 60.9701 18.63 60.9701 17.64C60.9701 16.92 61.0901 16.335 61.3301 15.885C61.6001 15.435 61.9301 15.06 62.3201 14.76C62.0201 14.58 61.7651 14.475 61.5551 14.445C61.3751 14.385 61.1951 14.355 61.0151 14.355C60.4451 14.355 59.8601 14.58 59.2601 15.03C58.6601 15.48 58.1501 16.275 57.7301 17.415C57.3401 18.555 57.1451 20.145 57.1451 22.185C57.1451 25.485 57.6251 27.81 58.5851 29.16C59.5451 30.48 60.8951 31.14 62.6351 31.14C63.4451 31.14 64.2551 31.02 65.0651 30.78C65.9051 30.54 66.6101 30.195 67.1801 29.745C67.4201 30.045 67.6151 30.42 67.7651 30.87C67.9451 31.29 68.0351 31.665 68.0351 31.995C68.0351 32.625 67.6901 33.27 67.0001 33.93C66.3401 34.56 65.4401 35.085 64.3001 35.505C63.1601 35.925 61.8851 36.135 60.4751 36.135ZM80.8165 36.045C78.6865 36.045 76.7965 35.595 75.1465 34.695C73.4965 33.765 72.2065 32.415 71.2765 30.645C70.3765 28.845 69.9265 26.625 69.9265 23.985C69.9265 21.165 70.4065 18.795 71.3665 16.875C72.3265 14.955 73.6615 13.5 75.3715 12.51C77.0815 11.52 79.0465 11.025 81.2665 11.025C83.4265 11.025 85.3165 11.49 86.9365 12.42C88.5865 13.35 89.8615 14.73 90.7615 16.56C91.6915 18.36 92.1565 20.595 92.1565 23.265C92.1565 26.055 91.6765 28.41 90.7165 30.33C89.7565 32.22 88.4215 33.645 86.7115 34.605C85.0015 35.565 83.0365 36.045 80.8165 36.045ZM81.1765 32.805C81.8065 32.805 82.3465 32.58 82.7965 32.13C83.2765 31.68 83.6365 30.855 83.8765 29.655C84.1465 28.425 84.2815 26.655 84.2815 24.345C84.2815 21.525 84.1465 19.395 83.8765 17.955C83.6065 16.485 83.2165 15.495 82.7065 14.985C82.1965 14.475 81.5965 14.22 80.9065 14.22C80.2765 14.22 79.7215 14.445 79.2415 14.895C78.7615 15.345 78.3865 16.185 78.1165 17.415C77.8765 18.645 77.7565 20.43 77.7565 22.77C77.7565 25.56 77.8915 27.675 78.1615 29.115C78.4615 30.555 78.8665 31.53 79.3765 32.04C79.8865 32.55 80.4865 32.805 81.1765 32.805ZM95.1314 35.46C94.8014 35.1 94.5464 34.725 94.3664 34.335C94.1864 33.945 94.0964 33.51 94.0964 33.03C94.9664 33.03 95.5964 32.85 95.9864 32.49C96.3764 32.1 96.5714 31.455 96.5714 30.555V6.65996C96.5714 5.96996 96.3764 5.42996 95.9864 5.03996C95.5964 4.61996 94.7714 4.40996 93.5114 4.40996V2.60996C94.2614 2.18996 95.1314 1.82996 96.1214 1.52996C97.1414 1.19996 98.1464 0.944959 99.1364 0.76496C100.126 0.554959 100.951 0.449958 101.611 0.449958C102.301 0.449958 102.796 0.599959 103.096 0.899961C103.426 1.19996 103.591 1.72496 103.591 2.47496V30.555C103.591 31.485 103.771 32.13 104.131 32.49C104.521 32.85 105.166 33.03 106.066 33.03C106.066 33.51 105.961 33.945 105.751 34.335C105.571 34.725 105.316 35.1 104.986 35.46H95.1314ZM128.446 35.73C126.977 35.73 125.852 35.505 125.072 35.055C124.291 34.605 123.901 33.885 123.901 32.895V18.405C123.901 17.445 123.631 16.71 123.091 16.2C122.551 15.66 121.846 15.39 120.976 15.39C120.406 15.39 119.791 15.585 119.131 15.975C118.501 16.335 118.021 16.83 117.691 17.46V30.6C117.691 31.47 117.871 32.1 118.231 32.49C118.621 32.85 119.266 33.03 120.166 33.03C120.166 33.96 119.821 34.77 119.131 35.46H109.186C108.496 34.77 108.151 33.96 108.151 33.03C109.051 33.03 109.681 32.85 110.041 32.49C110.431 32.1 110.626 31.47 110.626 30.6V6.20996C110.626 5.51996 110.431 4.97996 110.041 4.58996C109.651 4.19996 108.841 4.00496 107.611 4.00496V2.15996C108.361 1.76996 109.231 1.40996 110.221 1.07996C111.241 0.749959 112.246 0.49496 113.236 0.31496C114.256 0.104959 115.096 -4.11868e-05 115.756 -4.11868e-05C116.446 -4.11868e-05 116.941 0.164959 117.241 0.49496C117.541 0.79496 117.691 1.31996 117.691 2.06996V10.935L117.601 14.535C118.381 13.545 119.386 12.705 120.617 12.015C121.846 11.325 123.241 10.98 124.801 10.98C129.062 10.98 131.192 13.2 131.192 17.64V30.24C131.192 31.77 131.912 32.67 133.351 32.94L133.396 34.245C132.317 35.235 130.667 35.73 128.446 35.73ZM142.694 35.775C140.444 35.775 138.614 35.16 137.204 33.93C135.824 32.67 135.134 31.065 135.134 29.115C135.134 27.165 135.764 25.59 137.024 24.39C138.314 23.19 140.294 22.59 142.964 22.59C143.834 22.59 144.749 22.68 145.709 22.86C146.669 23.01 147.449 23.25 148.049 23.58V17.595C148.049 16.335 147.719 15.465 147.059 14.985C146.429 14.475 145.649 14.22 144.719 14.22C143.729 14.22 142.919 14.46 142.289 14.94C142.889 15.15 143.324 15.48 143.594 15.93C143.864 16.35 143.999 16.815 143.999 17.325C143.999 18.315 143.639 19.11 142.919 19.71C142.229 20.28 141.374 20.565 140.354 20.565C139.214 20.565 138.299 20.235 137.609 19.575C136.919 18.885 136.574 18.03 136.574 17.01C136.574 15.99 136.919 15.03 137.609 14.13C138.299 13.2 139.364 12.435 140.804 11.835C142.274 11.235 144.164 10.935 146.474 10.935C152.504 10.935 155.519 13.32 155.519 18.09V30.015C155.519 31.455 156.209 32.325 157.589 32.625V34.065C157.199 34.635 156.539 35.07 155.609 35.37C154.679 35.64 153.779 35.775 152.909 35.775C150.869 35.775 149.429 35.07 148.589 33.66C147.989 34.2 147.194 34.695 146.204 35.145C145.214 35.565 144.044 35.775 142.694 35.775ZM145.619 32.13C146.039 32.13 146.474 32.07 146.924 31.95C147.374 31.8 147.749 31.62 148.049 31.41V27.045C147.749 26.835 147.359 26.655 146.879 26.505C146.429 26.355 145.979 26.28 145.529 26.28C144.749 26.28 144.074 26.535 143.504 27.045C142.934 27.525 142.649 28.29 142.649 29.34C142.649 30.15 142.919 30.825 143.459 31.365C143.999 31.875 144.719 32.13 145.619 32.13ZM33.48 94.73C32.37 94.73 31.41 94.58 30.6 94.28C29.82 93.95 29.43 93.32 29.43 92.39V77.405C29.43 76.445 29.16 75.71 28.62 75.2C28.11 74.66 27.42 74.39 26.55 74.39C26.07 74.39 25.575 74.48 25.065 74.66C24.585 74.84 24.15 75.11 23.76 75.47C23.79 75.59 23.805 75.71 23.805 75.83C23.805 75.92 23.805 76.025 23.805 76.145V89.6C23.805 90.47 23.985 91.1 24.345 91.49C24.705 91.85 25.275 92.03 26.055 92.03C26.055 92.51 25.95 92.96 25.74 93.38C25.56 93.77 25.305 94.13 24.975 94.46H15.39C15.09 94.13 14.835 93.77 14.625 93.38C14.445 92.96 14.355 92.51 14.355 92.03C15.135 92.03 15.675 91.85 15.975 91.49C16.305 91.1 16.47 90.47 16.47 89.6V77.405C16.47 76.445 16.185 75.71 15.615 75.2C15.075 74.66 14.415 74.39 13.635 74.39C13.065 74.39 12.48 74.525 11.88 74.795C11.28 75.065 10.77 75.455 10.35 75.965V89.6C10.35 90.47 10.5 91.1 10.8 91.49C11.13 91.85 11.67 92.03 12.42 92.03C12.42 92.96 12.06 93.77 11.34 94.46H1.57498C1.24498 94.13 0.974976 93.77 0.764976 93.38C0.584976 92.96 0.494976 92.51 0.494976 92.03C1.39498 92.03 2.03998 91.85 2.42998 91.49C2.81998 91.1 3.01498 90.47 3.01498 89.6V76.415C3.01498 75.635 2.78998 75.065 2.33998 74.705C1.91998 74.345 1.13998 74.165 -2.43504e-05 74.165V72.185C0.689976 71.765 1.55998 71.39 2.60998 71.06C3.68998 70.73 4.72498 70.475 5.71498 70.295C6.73498 70.085 7.51498 69.98 8.05498 69.98C8.65498 69.98 9.14998 70.175 9.53998 70.565C9.95998 70.925 10.23 71.69 10.35 72.86C11.13 71.99 12.105 71.3 13.275 70.79C14.475 70.25 15.825 69.98 17.325 69.98C20.325 69.98 22.275 70.985 23.175 72.995C23.955 72.035 24.96 71.3 26.19 70.79C27.45 70.25 28.845 69.98 30.375 69.98C32.535 69.98 34.14 70.505 35.19 71.555C36.27 72.605 36.81 74.135 36.81 76.145V89.6C36.81 90.29 37.005 90.815 37.395 91.175C37.785 91.535 38.325 91.79 39.015 91.94V93.245C38.475 93.725 37.77 94.1 36.9 94.37C36.03 94.61 34.89 94.73 33.48 94.73ZM48.3433 94.775C46.0933 94.775 44.2633 94.16 42.8533 92.93C41.4733 91.67 40.7833 90.065 40.7833 88.115C40.7833 86.165 41.4133 84.59 42.6733 83.39C43.9633 82.19 45.9433 81.59 48.6133 81.59C49.4833 81.59 50.3983 81.68 51.3583 81.86C52.3183 82.01 53.0983 82.25 53.6983 82.58V76.595C53.6983 75.335 53.3683 74.465 52.7083 73.985C52.0783 73.475 51.2983 73.22 50.3683 73.22C49.3783 73.22 48.5683 73.46 47.9383 73.94C48.5383 74.15 48.9733 74.48 49.2433 74.93C49.5133 75.35 49.6483 75.815 49.6483 76.325C49.6483 77.315 49.2883 78.11 48.5683 78.71C47.8783 79.28 47.0233 79.565 46.0033 79.565C44.8633 79.565 43.9483 79.235 43.2583 78.575C42.5683 77.885 42.2233 77.03 42.2233 76.01C42.2233 74.99 42.5683 74.03 43.2583 73.13C43.9483 72.2 45.0133 71.435 46.4533 70.835C47.9233 70.235 49.8133 69.935 52.1233 69.935C58.1533 69.935 61.1683 72.32 61.1683 77.09V89.015C61.1683 90.455 61.8583 91.325 63.2383 91.625V93.065C62.8483 93.635 62.1883 94.07 61.2583 94.37C60.3283 94.64 59.4283 94.775 58.5583 94.775C56.5183 94.775 55.0783 94.07 54.2383 92.66C53.6383 93.2 52.8433 93.695 51.8533 94.145C50.8633 94.565 49.6933 94.775 48.3433 94.775ZM51.2683 91.13C51.6883 91.13 52.1233 91.07 52.5733 90.95C53.0233 90.8 53.3983 90.62 53.6983 90.41V86.045C53.3983 85.835 53.0083 85.655 52.5283 85.505C52.0783 85.355 51.6283 85.28 51.1783 85.28C50.3983 85.28 49.7233 85.535 49.1533 86.045C48.5833 86.525 48.2983 87.29 48.2983 88.34C48.2983 89.15 48.5683 89.825 49.1083 90.365C49.6483 90.875 50.3683 91.13 51.2683 91.13ZM71.1183 66.875C69.8283 66.875 68.7933 66.5 68.0133 65.75C67.2633 64.97 66.8883 63.935 66.8883 62.645C66.8883 61.385 67.2783 60.365 68.0583 59.585C68.8683 58.805 69.9183 58.415 71.2083 58.415C72.5283 58.415 73.5633 58.805 74.3133 59.585C75.0933 60.365 75.4833 61.385 75.4833 62.645C75.4833 63.935 75.0783 64.97 74.2683 65.75C73.4883 66.5 72.4383 66.875 71.1183 66.875ZM66.0783 94.46C65.7483 94.13 65.4933 93.77 65.3133 93.38C65.1333 92.99 65.0433 92.54 65.0433 92.03C65.9133 92.03 66.5583 91.85 66.9783 91.49C67.3983 91.1 67.6083 90.455 67.6083 89.555V76.505C67.6083 75.725 67.4133 75.14 67.0233 74.75C66.6633 74.36 65.8683 74.165 64.6383 74.165V72.185C65.0883 71.915 65.7783 71.615 66.7083 71.285C67.6383 70.925 68.6433 70.625 69.7233 70.385C70.8333 70.145 71.8233 70.025 72.6933 70.025C73.3833 70.025 73.8783 70.19 74.1783 70.52C74.4783 70.82 74.6283 71.345 74.6283 72.095V89.6C74.6283 90.5 74.8533 91.13 75.3033 91.49C75.7533 91.85 76.4133 92.03 77.2833 92.03C77.2833 92.54 77.1933 92.99 77.0133 93.38C76.8333 93.77 76.5783 94.13 76.2483 94.46H66.0783ZM88.3768 94.91C87.2968 94.91 86.2018 94.79 85.0918 94.55C84.0118 94.31 83.0068 93.965 82.0768 93.515C81.1768 93.065 80.4418 92.51 79.8718 91.85C79.3018 91.16 79.0168 90.38 79.0168 89.51C79.0168 88.46 79.3168 87.62 79.9168 86.99C80.5168 86.33 81.2818 86 82.2118 86C83.0518 86 83.7568 86.27 84.3268 86.81C84.9268 87.35 85.2268 88.055 85.2268 88.925C85.2268 89.315 85.1668 89.66 85.0468 89.96C84.9268 90.23 84.7468 90.53 84.5068 90.86C84.7768 91.13 85.2568 91.325 85.9468 91.445C86.6368 91.565 87.3118 91.625 87.9718 91.625C89.0218 91.625 89.8318 91.43 90.4018 91.04C90.9718 90.65 91.2568 90.17 91.2568 89.6C91.2568 88.7 90.7768 87.935 89.8168 87.305C88.8568 86.645 87.7618 85.985 86.5318 85.325C85.4218 84.725 84.3118 84.095 83.2018 83.435C82.1218 82.745 81.2068 81.89 80.4568 80.87C79.7368 79.85 79.3768 78.56 79.3768 77C79.3768 75.02 80.2018 73.385 81.8518 72.095C83.5018 70.805 85.8418 70.16 88.8718 70.16C90.9718 70.16 92.6518 70.43 93.9118 70.97C95.1718 71.48 96.0868 72.14 96.6568 72.95C97.2268 73.73 97.5118 74.555 97.5118 75.425C97.5118 76.355 97.2118 77.105 96.6118 77.675C96.0418 78.215 95.3368 78.485 94.4968 78.485C93.7468 78.485 93.0868 78.26 92.5168 77.81C91.9468 77.33 91.6618 76.715 91.6618 75.965C91.6618 75.605 91.7218 75.215 91.8418 74.795C91.9618 74.375 92.1268 74.03 92.3368 73.76C92.0068 73.49 91.6168 73.31 91.1668 73.22C90.7468 73.1 90.2368 73.04 89.6368 73.04C88.6468 73.04 87.8818 73.28 87.3418 73.76C86.8318 74.21 86.5768 74.765 86.5768 75.425C86.5768 76.445 87.0568 77.285 88.0168 77.945C89.0068 78.605 90.1018 79.25 91.3018 79.88C92.4118 80.45 93.4918 81.065 94.5418 81.725C95.6218 82.385 96.5218 83.21 97.2418 84.2C97.9618 85.19 98.3218 86.465 98.3218 88.025C98.3218 89.705 97.8418 91.055 96.8818 92.075C95.9218 93.065 94.6768 93.785 93.1468 94.235C91.6468 94.685 90.0568 94.91 88.3768 94.91Z" fill="black"/>
<path d="M201.263 35.73C200.153 35.73 199.193 35.58 198.383 35.28C197.603 34.95 197.213 34.32 197.213 33.39V18.405C197.213 17.445 196.943 16.71 196.403 16.2C195.893 15.66 195.203 15.39 194.333 15.39C193.853 15.39 193.358 15.48 192.848 15.66C192.368 15.84 191.933 16.11 191.543 16.47C191.573 16.59 191.588 16.71 191.588 16.83C191.588 16.92 191.588 17.025 191.588 17.145V30.6C191.588 31.47 191.768 32.1 192.128 32.49C192.488 32.85 193.058 33.03 193.838 33.03C193.838 33.51 193.733 33.96 193.523 34.38C193.343 34.77 193.088 35.13 192.758 35.46H183.173C182.873 35.13 182.618 34.77 182.408 34.38C182.228 33.96 182.138 33.51 182.138 33.03C182.918 33.03 183.458 32.85 183.758 32.49C184.088 32.1 184.253 31.47 184.253 30.6V18.405C184.253 17.445 183.968 16.71 183.398 16.2C182.858 15.66 182.198 15.39 181.418 15.39C180.848 15.39 180.263 15.525 179.663 15.795C179.063 16.065 178.553 16.455 178.133 16.965V30.6C178.133 31.47 178.283 32.1 178.583 32.49C178.913 32.85 179.453 33.03 180.203 33.03C180.203 33.96 179.843 34.77 179.123 35.46H169.358C169.028 35.13 168.758 34.77 168.548 34.38C168.368 33.96 168.278 33.51 168.278 33.03C169.178 33.03 169.823 32.85 170.213 32.49C170.603 32.1 170.798 31.47 170.798 30.6V17.415C170.798 16.635 170.573 16.065 170.123 15.705C169.703 15.345 168.923 15.165 167.783 15.165V13.185C168.473 12.765 169.343 12.39 170.393 12.06C171.473 11.73 172.508 11.475 173.498 11.295C174.518 11.085 175.298 10.98 175.838 10.98C176.438 10.98 176.933 11.175 177.323 11.565C177.743 11.925 178.013 12.69 178.133 13.86C178.913 12.99 179.888 12.3 181.058 11.79C182.258 11.25 183.608 10.98 185.108 10.98C188.108 10.98 190.058 11.985 190.958 13.995C191.738 13.035 192.743 12.3 193.973 11.79C195.233 11.25 196.628 10.98 198.158 10.98C200.318 10.98 201.923 11.505 202.973 12.555C204.053 13.605 204.593 15.135 204.593 17.145V30.6C204.593 31.29 204.788 31.815 205.178 32.175C205.568 32.535 206.108 32.79 206.798 32.94V34.245C206.258 34.725 205.553 35.1 204.683 35.37C203.813 35.61 202.673 35.73 201.263 35.73ZM219.863 35.865C216.503 35.865 213.818 34.8 211.808 32.67C209.828 30.54 208.838 27.57 208.838 23.76C208.838 21.15 209.333 18.9 210.323 17.01C211.313 15.09 212.648 13.62 214.328 12.6C216.038 11.58 217.973 11.07 220.133 11.07C222.833 11.07 224.993 11.865 226.613 13.455C228.263 15.015 229.088 17.22 229.088 20.07C229.088 21.21 228.893 22.215 228.503 23.085C228.143 23.925 227.378 24.345 226.208 24.345H216.488C216.578 26.715 217.118 28.395 218.108 29.385C219.128 30.375 220.448 30.87 222.068 30.87C223.088 30.87 224.033 30.72 224.903 30.42C225.773 30.09 226.583 29.64 227.333 29.07C227.603 29.31 227.813 29.685 227.963 30.195C228.143 30.675 228.233 31.08 228.233 31.41C228.233 31.89 227.888 32.49 227.198 33.21C226.538 33.9 225.578 34.515 224.318 35.055C223.088 35.595 221.603 35.865 219.863 35.865ZM216.488 20.925H221.033C221.543 20.925 221.858 20.73 221.978 20.34C222.128 19.95 222.203 19.47 222.203 18.9C222.203 16.98 221.963 15.72 221.483 15.12C221.033 14.49 220.493 14.175 219.863 14.175C219.353 14.175 218.843 14.37 218.333 14.76C217.823 15.15 217.403 15.84 217.073 16.83C216.743 17.79 216.548 19.155 216.488 20.925ZM231.845 35.46C231.515 35.1 231.26 34.725 231.08 34.335C230.9 33.945 230.81 33.51 230.81 33.03C231.68 33.03 232.31 32.85 232.7 32.49C233.09 32.1 233.285 31.455 233.285 30.555V6.65996C233.285 5.96996 233.09 5.42996 232.7 5.03996C232.31 4.61996 231.485 4.40996 230.225 4.40996V2.60996C230.975 2.18996 231.845 1.82996 232.835 1.52996C233.855 1.19996 234.86 0.944959 235.85 0.76496C236.84 0.554959 237.665 0.449958 238.325 0.449958C239.015 0.449958 239.51 0.599959 239.81 0.899961C240.14 1.19996 240.305 1.72496 240.305 2.47496V30.555C240.305 31.485 240.485 32.13 240.845 32.49C241.235 32.85 241.88 33.03 242.78 33.03C242.78 33.51 242.675 33.945 242.465 34.335C242.285 34.725 242.03 35.1 241.7 35.46H231.845ZM265.16 35.73C263.69 35.73 262.565 35.505 261.785 35.055C261.005 34.605 260.615 33.885 260.615 32.895V18.405C260.615 17.445 260.345 16.71 259.805 16.2C259.265 15.66 258.56 15.39 257.69 15.39C257.12 15.39 256.505 15.585 255.845 15.975C255.215 16.335 254.735 16.83 254.405 17.46V30.6C254.405 31.47 254.585 32.1 254.945 32.49C255.335 32.85 255.98 33.03 256.88 33.03C256.88 33.96 256.535 34.77 255.845 35.46H245.9C245.21 34.77 244.865 33.96 244.865 33.03C245.765 33.03 246.395 32.85 246.755 32.49C247.145 32.1 247.34 31.47 247.34 30.6V6.20996C247.34 5.51996 247.145 4.97996 246.755 4.58996C246.365 4.19996 245.555 4.00496 244.325 4.00496V2.15996C245.075 1.76996 245.945 1.40996 246.935 1.07996C247.955 0.749959 248.96 0.49496 249.95 0.31496C250.97 0.104959 251.81 -4.11868e-05 252.47 -4.11868e-05C253.16 -4.11868e-05 253.655 0.164959 253.955 0.49496C254.255 0.79496 254.405 1.31996 254.405 2.06996V10.935L254.315 14.535C255.095 13.545 256.1 12.705 257.33 12.015C258.56 11.325 259.955 10.98 261.515 10.98C265.775 10.98 267.905 13.2 267.905 17.64V30.24C267.905 31.77 268.625 32.67 270.065 32.94L270.11 34.245C269.03 35.235 267.38 35.73 265.16 35.73ZM283.141 36.045C281.011 36.045 279.121 35.595 277.471 34.695C275.821 33.765 274.531 32.415 273.601 30.645C272.701 28.845 272.251 26.625 272.251 23.985C272.251 21.165 272.731 18.795 273.691 16.875C274.651 14.955 275.986 13.5 277.696 12.51C279.406 11.52 281.371 11.025 283.591 11.025C285.751 11.025 287.641 11.49 289.261 12.42C290.911 13.35 292.186 14.73 293.086 16.56C294.016 18.36 294.481 20.595 294.481 23.265C294.481 26.055 294.001 28.41 293.041 30.33C292.081 32.22 290.746 33.645 289.036 34.605C287.326 35.565 285.361 36.045 283.141 36.045ZM283.501 32.805C284.131 32.805 284.671 32.58 285.121 32.13C285.601 31.68 285.961 30.855 286.201 29.655C286.471 28.425 286.606 26.655 286.606 24.345C286.606 21.525 286.471 19.395 286.201 17.955C285.931 16.485 285.541 15.495 285.031 14.985C284.521 14.475 283.921 14.22 283.231 14.22C282.601 14.22 282.046 14.445 281.566 14.895C281.086 15.345 280.711 16.185 280.441 17.415C280.201 18.645 280.081 20.43 280.081 22.77C280.081 25.56 280.216 27.675 280.486 29.115C280.786 30.555 281.191 31.53 281.701 32.04C282.211 32.55 282.811 32.805 283.501 32.805ZM298.025 35.46C297.695 35.13 297.44 34.77 297.26 34.38C297.08 33.99 296.99 33.54 296.99 33.03C297.86 33.03 298.475 32.85 298.835 32.49C299.225 32.1 299.42 31.455 299.42 30.555V17.55C299.42 16.77 299.21 16.215 298.79 15.885C298.37 15.525 297.59 15.345 296.45 15.345V13.32C297.17 12.9 298.025 12.54 299.015 12.24C300.005 11.91 300.98 11.655 301.94 11.475C302.9 11.265 303.65 11.16 304.19 11.16C304.88 11.16 305.375 11.4 305.675 11.88C306.005 12.36 306.17 13.395 306.17 14.985C306.5 14.355 306.98 13.74 307.61 13.14C308.27 12.51 309.005 12 309.815 11.61C310.625 11.22 311.465 11.025 312.335 11.025C313.745 11.025 314.75 11.385 315.35 12.105C315.95 12.825 316.25 13.755 316.25 14.895C316.25 16.185 315.92 17.235 315.26 18.045C314.6 18.855 313.685 19.26 312.515 19.26C311.495 19.26 310.685 18.975 310.085 18.405C309.485 17.805 309.185 17.13 309.185 16.38C309.185 15.9 309.23 15.525 309.32 15.255C308.84 15.375 308.375 15.54 307.925 15.75C307.475 15.93 307.025 16.23 306.575 16.65V30.15C306.575 30.84 306.68 31.395 306.89 31.815C307.1 32.235 307.505 32.55 308.105 32.76C308.735 32.94 309.665 33.03 310.895 33.03C310.895 33.54 310.835 33.99 310.715 34.38C310.595 34.77 310.37 35.13 310.04 35.46H298.025ZM315.27 45.27C314.91 45.15 314.58 44.88 314.28 44.46C313.98 44.07 313.83 43.635 313.83 43.155C315.21 42.375 316.32 41.385 317.16 40.185C318 38.985 318.42 37.77 318.42 36.54C318.42 36.45 318.405 36.36 318.375 36.27C318.375 36.18 318.36 36.075 318.33 35.955C318.21 35.985 318.09 36 317.97 36C317.88 36.03 317.775 36.045 317.655 36.045C316.275 36.045 315.225 35.625 314.505 34.785C313.815 33.915 313.47 32.94 313.47 31.86C313.47 30.51 313.89 29.43 314.73 28.62C315.57 27.81 316.635 27.405 317.925 27.405C319.425 27.405 320.67 27.96 321.66 29.07C322.68 30.15 323.19 31.8 323.19 34.02C323.19 35.97 322.8 37.725 322.02 39.285C321.27 40.845 320.28 42.135 319.05 43.155C317.85 44.205 316.59 44.91 315.27 45.27Z" fill="#E22020"/>
<path d="M110.159 94.46C109.829 94.13 109.574 93.77 109.394 93.38C109.214 92.99 109.124 92.54 109.124 92.03C109.994 92.03 110.609 91.85 110.969 91.49C111.359 91.1 111.554 90.455 111.554 89.555V76.55C111.554 75.77 111.344 75.215 110.924 74.885C110.504 74.525 109.724 74.345 108.584 74.345V72.32C109.304 71.9 110.159 71.54 111.149 71.24C112.139 70.91 113.114 70.655 114.074 70.475C115.034 70.265 115.784 70.16 116.324 70.16C117.014 70.16 117.509 70.4 117.809 70.88C118.139 71.36 118.304 72.395 118.304 73.985C118.634 73.355 119.114 72.74 119.744 72.14C120.404 71.51 121.139 71 121.949 70.61C122.759 70.22 123.599 70.025 124.469 70.025C125.879 70.025 126.884 70.385 127.484 71.105C128.084 71.825 128.384 72.755 128.384 73.895C128.384 75.185 128.054 76.235 127.394 77.045C126.734 77.855 125.819 78.26 124.649 78.26C123.629 78.26 122.819 77.975 122.219 77.405C121.619 76.805 121.319 76.13 121.319 75.38C121.319 74.9 121.364 74.525 121.454 74.255C120.974 74.375 120.509 74.54 120.059 74.75C119.609 74.93 119.159 75.23 118.709 75.65V89.15C118.709 89.84 118.814 90.395 119.024 90.815C119.234 91.235 119.639 91.55 120.239 91.76C120.869 91.94 121.799 92.03 123.029 92.03C123.029 92.54 122.969 92.99 122.849 93.38C122.729 93.77 122.504 94.13 122.174 94.46H110.159ZM136.19 94.775C133.94 94.775 132.11 94.16 130.7 92.93C129.32 91.67 128.63 90.065 128.63 88.115C128.63 86.165 129.26 84.59 130.52 83.39C131.81 82.19 133.79 81.59 136.46 81.59C137.33 81.59 138.245 81.68 139.205 81.86C140.165 82.01 140.945 82.25 141.545 82.58V76.595C141.545 75.335 141.215 74.465 140.555 73.985C139.925 73.475 139.145 73.22 138.215 73.22C137.225 73.22 136.415 73.46 135.785 73.94C136.385 74.15 136.82 74.48 137.09 74.93C137.36 75.35 137.495 75.815 137.495 76.325C137.495 77.315 137.135 78.11 136.415 78.71C135.725 79.28 134.87 79.565 133.85 79.565C132.71 79.565 131.795 79.235 131.105 78.575C130.415 77.885 130.07 77.03 130.07 76.01C130.07 74.99 130.415 74.03 131.105 73.13C131.795 72.2 132.86 71.435 134.3 70.835C135.77 70.235 137.66 69.935 139.97 69.935C146 69.935 149.015 72.32 149.015 77.09V89.015C149.015 90.455 149.705 91.325 151.085 91.625V93.065C150.695 93.635 150.035 94.07 149.105 94.37C148.175 94.64 147.275 94.775 146.405 94.775C144.365 94.775 142.925 94.07 142.085 92.66C141.485 93.2 140.69 93.695 139.7 94.145C138.71 94.565 137.54 94.775 136.19 94.775ZM139.115 91.13C139.535 91.13 139.97 91.07 140.42 90.95C140.87 90.8 141.245 90.62 141.545 90.41V86.045C141.245 85.835 140.855 85.655 140.375 85.505C139.925 85.355 139.475 85.28 139.025 85.28C138.245 85.28 137.57 85.535 137 86.045C136.43 86.525 136.145 87.29 136.145 88.34C136.145 89.15 136.415 89.825 136.955 90.365C137.495 90.875 138.215 91.13 139.115 91.13ZM137.405 66.965C136.835 66.965 136.31 66.8 135.83 66.47C135.38 66.14 135.11 65.615 135.02 64.895C135.98 64.265 137 63.485 138.08 62.555C139.16 61.625 140.195 60.59 141.185 59.45C142.175 58.28 143 57.08 143.66 55.85C144.47 55.85 145.16 56.045 145.73 56.435C146.33 56.825 146.78 57.305 147.08 57.875C147.41 58.415 147.575 58.94 147.575 59.45C147.575 60.26 147.2 61.1 146.45 61.97C145.7 62.84 144.77 63.665 143.66 64.445C142.55 65.195 141.425 65.81 140.285 66.29C139.145 66.74 138.185 66.965 137.405 66.965ZM154.06 103.01C153.73 102.68 153.46 102.32 153.25 101.93C153.07 101.54 152.98 101.105 152.98 100.625C153.88 100.625 154.45 100.43 154.69 100.04C154.96 99.65 155.095 99.02 155.095 98.15V76.595C155.095 75.815 154.87 75.245 154.42 74.885C154 74.525 153.22 74.345 152.08 74.345V72.32C152.74 71.93 153.52 71.57 154.42 71.24C155.35 70.91 156.25 70.655 157.12 70.475C157.99 70.265 158.68 70.16 159.19 70.16C159.79 70.16 160.285 70.28 160.675 70.52C161.095 70.76 161.395 71.24 161.575 71.96C162.265 71.3 163.075 70.835 164.005 70.565C164.965 70.295 165.97 70.16 167.02 70.16C168.61 70.16 170.095 70.58 171.475 71.42C172.855 72.23 173.965 73.46 174.805 75.11C175.675 76.76 176.11 78.86 176.11 81.41C176.11 84.26 175.555 86.705 174.445 88.745C173.365 90.755 171.895 92.3 170.035 93.38C168.205 94.43 166.165 94.955 163.915 94.955C163.675 94.955 163.405 94.94 163.105 94.91C162.805 94.91 162.49 94.895 162.16 94.865V98.15C162.16 99.02 162.475 99.65 163.105 100.04C163.735 100.43 164.38 100.625 165.04 100.625C165.04 101.525 164.695 102.32 164.005 103.01H154.06ZM163.87 91.67C165.1 91.67 166.15 90.95 167.02 89.51C167.89 88.07 168.325 85.73 168.325 82.49C168.325 80.42 168.1 78.785 167.65 77.585C167.23 76.355 166.645 75.485 165.895 74.975C165.145 74.435 164.32 74.165 163.42 74.165C162.94 74.165 162.52 74.255 162.16 74.435V91.22C162.67 91.52 163.24 91.67 163.87 91.67ZM184.541 66.875C183.251 66.875 182.216 66.5 181.436 65.75C180.686 64.97 180.311 63.935 180.311 62.645C180.311 61.385 180.701 60.365 181.481 59.585C182.291 58.805 183.341 58.415 184.631 58.415C185.951 58.415 186.986 58.805 187.736 59.585C188.516 60.365 188.906 61.385 188.906 62.645C188.906 63.935 188.501 64.97 187.691 65.75C186.911 66.5 185.861 66.875 184.541 66.875ZM179.501 94.46C179.171 94.13 178.916 93.77 178.736 93.38C178.556 92.99 178.466 92.54 178.466 92.03C179.336 92.03 179.981 91.85 180.401 91.49C180.821 91.1 181.031 90.455 181.031 89.555V76.505C181.031 75.725 180.836 75.14 180.446 74.75C180.086 74.36 179.291 74.165 178.061 74.165V72.185C178.511 71.915 179.201 71.615 180.131 71.285C181.061 70.925 182.066 70.625 183.146 70.385C184.256 70.145 185.246 70.025 186.116 70.025C186.806 70.025 187.301 70.19 187.601 70.52C187.901 70.82 188.051 71.345 188.051 72.095V89.6C188.051 90.5 188.276 91.13 188.726 91.49C189.176 91.85 189.836 92.03 190.706 92.03C190.706 92.54 190.616 92.99 190.436 93.38C190.256 93.77 190.001 94.13 189.671 94.46H179.501ZM201.848 95.045C200.228 95.045 198.698 94.64 197.258 93.83C195.848 92.99 194.708 91.73 193.838 90.05C192.968 88.37 192.533 86.255 192.533 83.705C192.533 80.675 193.088 78.155 194.198 76.145C195.338 74.135 196.808 72.635 198.608 71.645C200.438 70.655 202.388 70.16 204.458 70.16C204.848 70.16 205.283 70.175 205.763 70.205C206.243 70.235 206.723 70.28 207.203 70.34L207.068 67.64V65.39C207.068 64.7 206.873 64.16 206.483 63.77C206.093 63.38 205.283 63.185 204.053 63.185V61.34C204.803 60.92 205.688 60.545 206.708 60.215C207.728 59.885 208.733 59.63 209.723 59.45C210.713 59.24 211.508 59.135 212.108 59.135C212.798 59.135 213.293 59.3 213.593 59.63C213.923 59.93 214.088 60.455 214.088 61.205V89.465C214.088 90.935 214.808 91.805 216.248 92.075L216.293 93.335C215.873 93.905 215.228 94.325 214.358 94.595C213.488 94.895 212.603 95.045 211.703 95.045C210.923 95.045 210.098 94.865 209.228 94.505C208.358 94.175 207.743 93.65 207.383 92.93C206.753 93.77 205.973 94.325 205.043 94.595C204.143 94.895 203.078 95.045 201.848 95.045ZM204.953 91.22C205.883 91.22 206.588 90.95 207.068 90.41V74.66C206.438 73.79 205.598 73.355 204.548 73.355C203.738 73.355 203.003 73.64 202.343 74.21C201.683 74.75 201.158 75.665 200.768 76.955C200.378 78.215 200.183 79.94 200.183 82.13C200.183 85.22 200.633 87.515 201.533 89.015C202.463 90.485 203.603 91.22 204.953 91.22ZM229.308 95.045C227.178 95.045 225.288 94.595 223.638 93.695C221.988 92.765 220.698 91.415 219.768 89.645C218.868 87.845 218.418 85.625 218.418 82.985C218.418 80.165 218.898 77.795 219.858 75.875C220.818 73.955 222.153 72.5 223.863 71.51C225.573 70.52 227.538 70.025 229.758 70.025C231.918 70.025 233.808 70.49 235.428 71.42C237.078 72.35 238.353 73.73 239.253 75.56C240.183 77.36 240.648 79.595 240.648 82.265C240.648 85.055 240.168 87.41 239.208 89.33C238.248 91.22 236.913 92.645 235.203 93.605C233.493 94.565 231.528 95.045 229.308 95.045ZM229.668 91.805C230.298 91.805 230.838 91.58 231.288 91.13C231.768 90.68 232.128 89.855 232.368 88.655C232.638 87.425 232.773 85.655 232.773 83.345C232.773 80.525 232.638 78.395 232.368 76.955C232.098 75.485 231.708 74.495 231.198 73.985C230.688 73.475 230.088 73.22 229.398 73.22C228.768 73.22 228.213 73.445 227.733 73.895C227.253 74.345 226.878 75.185 226.608 76.415C226.368 77.645 226.248 79.43 226.248 81.77C226.248 84.56 226.383 86.675 226.653 88.115C226.953 89.555 227.358 90.53 227.868 91.04C228.378 91.55 228.978 91.805 229.668 91.805ZM246.298 95.045C244.918 95.045 243.808 94.64 242.968 93.83C242.128 92.99 241.708 91.91 241.708 90.59C241.708 89.24 242.128 88.16 242.968 87.35C243.808 86.54 244.918 86.135 246.298 86.135C247.648 86.135 248.743 86.54 249.583 87.35C250.423 88.16 250.843 89.24 250.843 90.59C250.843 91.91 250.423 92.99 249.583 93.83C248.743 94.64 247.648 95.045 246.298 95.045Z" fill="#0867E9"/>
</svg>
