<svg width="250" height="39" viewBox="0 0 250 39" fill="none" xmlns="http://www.w3.org/2000/svg">
<path d="M5.15194 13.0908H0.511319V-8.91685e-05H5.1903C6.50706 -8.91685e-05 7.64058 0.261985 8.59086 0.786133C9.54115 1.30602 10.272 2.05389 10.7833 3.02974C11.299 4.00559 11.5568 5.17321 11.5568 6.53258C11.5568 7.89622 11.299 9.06809 10.7833 10.0482C10.272 11.0283 9.53689 11.7805 8.57808 12.3046C7.62354 12.8287 6.48149 13.0908 5.15194 13.0908ZM3.27908 10.7194H5.03689C5.85507 10.7194 6.54328 10.5745 7.10152 10.2847C7.66402 9.99068 8.08589 9.53684 8.36714 8.92321C8.65265 8.30531 8.79541 7.50843 8.79541 6.53258C8.79541 5.56525 8.65265 4.77477 8.36714 4.16113C8.08589 3.5475 7.66615 3.09579 7.10791 2.80602C6.54967 2.51625 5.86146 2.37136 5.04328 2.37136H3.27908V10.7194ZM17.992 13.2826C16.9991 13.2826 16.1404 13.0716 15.416 12.6498C14.6958 12.2236 14.1397 11.6313 13.7476 10.8728C13.3556 10.11 13.1596 9.22576 13.1596 8.22008C13.1596 7.20588 13.3556 6.31951 13.7476 5.56099C14.1397 4.79821 14.6958 4.20588 15.416 3.784C16.1404 3.35787 16.9991 3.1448 17.992 3.1448C18.9849 3.1448 19.8414 3.35787 20.5616 3.784C21.286 4.20588 21.8442 4.79821 22.2363 5.56099C22.6283 6.31951 22.8244 7.20588 22.8244 8.22008C22.8244 9.22576 22.6283 10.11 22.2363 10.8728C21.8442 11.6313 21.286 12.2236 20.5616 12.6498C19.8414 13.0716 18.9849 13.2826 17.992 13.2826ZM18.0047 11.1732C18.4565 11.1732 18.8336 11.0454 19.1361 10.7897C19.4387 10.5297 19.6667 10.176 19.8201 9.7286C19.9778 9.28116 20.0566 8.77193 20.0566 8.20091C20.0566 7.62988 19.9778 7.12065 19.8201 6.67321C19.6667 6.22576 19.4387 5.87207 19.1361 5.61213C18.8336 5.35218 18.4565 5.22221 18.0047 5.22221C17.5488 5.22221 17.1653 5.35218 16.8542 5.61213C16.5474 5.87207 16.3151 6.22576 16.1574 6.67321C16.004 7.12065 15.9273 7.62988 15.9273 8.20091C15.9273 8.77193 16.004 9.28116 16.1574 9.7286C16.3151 10.176 16.5474 10.5297 16.8542 10.7897C17.1653 11.0454 17.5488 11.1732 18.0047 11.1732ZM32.764 6.07235L30.2711 6.22576C30.2285 6.01269 30.1369 5.82093 29.9962 5.65048C29.8556 5.47576 29.6702 5.33727 29.4401 5.235C29.2143 5.12846 28.9437 5.0752 28.6283 5.0752C28.2065 5.0752 27.8506 5.16468 27.5609 5.34366C27.2711 5.51838 27.1262 5.75275 27.1262 6.04679C27.1262 6.28116 27.2199 6.47931 27.4074 6.64125C27.5949 6.80318 27.9167 6.93315 28.3726 7.03116L30.1496 7.38912C31.1042 7.58514 31.8158 7.90048 32.2846 8.33514C32.7533 8.7698 32.9877 9.34082 32.9877 10.0482C32.9877 10.6917 32.7981 11.2563 32.4188 11.7421C32.0438 12.2279 31.5282 12.6072 30.8719 12.8799C30.2199 13.1483 29.4678 13.2826 28.6155 13.2826C27.3158 13.2826 26.2803 13.012 25.509 12.4708C24.742 11.9253 24.2924 11.1839 24.1603 10.2464L26.8386 10.1057C26.9195 10.502 27.1155 10.8046 27.4266 11.0134C27.7377 11.218 28.1361 11.3202 28.6219 11.3202C29.0992 11.3202 29.4827 11.2286 29.7725 11.0454C30.0665 10.8579 30.2157 10.6171 30.2199 10.3231C30.2157 10.0759 30.1113 9.87349 29.9067 9.71582C29.7022 9.55389 29.3869 9.43031 28.9607 9.34508L27.2604 9.0063C26.3016 8.81454 25.5878 8.48216 25.1191 8.00914C24.6546 7.53613 24.4224 6.93315 24.4224 6.2002C24.4224 5.56951 24.5928 5.02619 24.9337 4.57022C25.2789 4.11426 25.7626 3.7627 26.3847 3.51554C27.0111 3.26838 27.7441 3.1448 28.5836 3.1448C29.8236 3.1448 30.7995 3.40687 31.5111 3.93102C32.2271 4.45517 32.6447 5.16895 32.764 6.07235ZM43.3428 13.2826C42.3329 13.2826 41.4636 13.078 40.7349 12.6689C40.0104 12.2556 39.4522 11.6718 39.0601 10.9175C38.6681 10.159 38.4721 9.26198 38.4721 8.22647C38.4721 7.21653 38.6681 6.33017 39.0601 5.56738C39.4522 4.8046 40.004 4.21014 40.7157 3.784C41.4316 3.35787 42.2711 3.1448 43.2342 3.1448C43.8819 3.1448 44.4849 3.2492 45.0431 3.45801C45.6056 3.66255 46.0957 3.9715 46.5133 4.38485C46.9351 4.79821 47.2633 5.31809 47.4976 5.94451C47.732 6.56667 47.8492 7.29537 47.8492 8.13059V8.87846H39.5587V7.19096H45.286C45.286 6.79892 45.2008 6.45162 45.0303 6.14906C44.8599 5.8465 44.6234 5.61 44.3208 5.43954C44.0225 5.26483 43.6752 5.17747 43.2789 5.17747C42.8655 5.17747 42.4991 5.27335 42.1795 5.46511C41.8641 5.65261 41.617 5.90616 41.438 6.22576C41.259 6.5411 41.1674 6.89267 41.1631 7.28045V8.88485C41.1631 9.37065 41.2526 9.79039 41.4316 10.1441C41.6148 10.4978 41.8726 10.7705 42.205 10.9623C42.5374 11.154 42.9316 11.2499 43.3876 11.2499C43.6901 11.2499 43.9671 11.2073 44.2185 11.1221C44.4699 11.0368 44.6851 10.909 44.8641 10.7385C45.0431 10.5681 45.1795 10.3593 45.2732 10.1121L47.7917 10.2783C47.6638 10.8834 47.4018 11.4118 47.0055 11.8635C46.6134 12.311 46.1063 12.6604 45.4842 12.9118C44.8663 13.159 44.1525 13.2826 43.3428 13.2826ZM57.7952 6.07235L55.3023 6.22576C55.2597 6.01269 55.1681 5.82093 55.0275 5.65048C54.8869 5.47576 54.7015 5.33727 54.4714 5.235C54.2455 5.12846 53.9749 5.0752 53.6596 5.0752C53.2377 5.0752 52.8819 5.16468 52.5921 5.34366C52.3023 5.51838 52.1574 5.75275 52.1574 6.04679C52.1574 6.28116 52.2512 6.47931 52.4387 6.64125C52.6262 6.80318 52.9479 6.93315 53.4039 7.03116L55.1809 7.38912C56.1354 7.58514 56.8471 7.90048 57.3158 8.33514C57.7846 8.7698 58.019 9.34082 58.019 10.0482C58.019 10.6917 57.8293 11.2563 57.4501 11.7421C57.0751 12.2279 56.5594 12.6072 55.9032 12.8799C55.2512 13.1483 54.4991 13.2826 53.6468 13.2826C52.3471 13.2826 51.3116 13.012 50.5403 12.4708C49.7732 11.9253 49.3236 11.1839 49.1915 10.2464L51.8698 10.1057C51.9508 10.502 52.1468 10.8046 52.4579 11.0134C52.769 11.218 53.1674 11.3202 53.6532 11.3202C54.1305 11.3202 54.514 11.2286 54.8038 11.0454C55.0978 10.8579 55.2469 10.6171 55.2512 10.3231C55.2469 10.0759 55.1425 9.87349 54.938 9.71582C54.7334 9.55389 54.4181 9.43031 53.992 9.34508L52.2917 9.0063C51.3329 8.81454 50.6191 8.48216 50.1503 8.00914C49.6859 7.53613 49.4536 6.93315 49.4536 6.2002C49.4536 5.56951 49.6241 5.02619 49.965 4.57022C50.3101 4.11426 50.7938 3.7627 51.416 3.51554C52.0424 3.26838 52.7753 3.1448 53.6148 3.1448C54.8549 3.1448 55.8307 3.40687 56.5424 3.93102C57.2583 4.45517 57.6759 5.16895 57.7952 6.07235ZM64.9559 3.27264V5.31809H59.0433V3.27264H64.9559ZM60.3856 0.920366H63.1086V10.0738C63.1086 10.3252 63.147 10.5212 63.2237 10.6618C63.3004 10.7982 63.4069 10.8941 63.5433 10.9495C63.6839 11.0049 63.8458 11.0326 64.0291 11.0326C64.1569 11.0326 64.2848 11.0219 64.4126 11.0006C64.5404 10.9751 64.6385 10.9559 64.7066 10.9431L65.1349 12.9694C64.9985 13.012 64.8068 13.061 64.5596 13.1164C64.3125 13.176 64.012 13.2123 63.6583 13.2251C63.0021 13.2506 62.4268 13.1633 61.9325 12.963C61.4424 12.7627 61.061 12.4516 60.7883 12.0297C60.5156 11.6079 60.3813 11.0752 60.3856 10.4317V0.920366ZM73.0259 8.91042V3.27264H75.7489V13.0908H73.1345V11.3074H73.0323C72.8107 11.8827 72.4421 12.3451 71.9264 12.6945C71.4151 13.0439 70.7908 13.2187 70.0536 13.2187C69.3973 13.2187 68.8199 13.0695 68.3213 12.7712C67.8228 12.4729 67.4328 12.0489 67.1516 11.4992C66.8746 10.9495 66.734 10.2911 66.7297 9.52406V3.27264H69.4527V9.03826C69.457 9.61781 69.6125 10.0759 69.9193 10.4126C70.2262 10.7492 70.6374 10.9175 71.153 10.9175C71.4811 10.9175 71.788 10.843 72.0735 10.6938C72.359 10.5404 72.5891 10.3145 72.7638 10.0162C72.9428 9.71795 73.0301 9.34934 73.0259 8.91042ZM81.5449 13.2506C80.7991 13.2506 80.1237 13.0589 79.5186 12.6753C78.9177 12.2876 78.4405 11.7187 78.0868 10.9687C77.7373 10.2144 77.5626 9.28968 77.5626 8.19451C77.5626 7.06951 77.7437 6.13414 78.106 5.38841C78.4682 4.63841 78.9497 4.07804 79.5506 3.7073C80.1557 3.3323 80.8183 3.1448 81.5385 3.1448C82.0882 3.1448 82.5463 3.23855 82.9128 3.42605C83.2835 3.60929 83.5818 3.8394 83.8077 4.11639C84.0378 4.38912 84.2125 4.65758 84.3318 4.92179H84.4149V-8.91685e-05H87.1315V13.0908H84.4469V11.5184H84.3318C84.204 11.7911 84.0229 12.0617 83.7885 12.3302C83.5584 12.5944 83.2579 12.8138 82.8872 12.9885C82.5207 13.1633 82.0733 13.2506 81.5449 13.2506ZM82.4078 11.0837C82.8467 11.0837 83.2175 10.9644 83.52 10.7258C83.8268 10.4829 84.0612 10.1441 84.2231 9.70943C84.3893 9.27477 84.4724 8.76554 84.4724 8.18173C84.4724 7.59792 84.3915 7.09082 84.2295 6.66042C84.0676 6.23002 83.8332 5.89764 83.5264 5.66326C83.2196 5.42889 82.8467 5.3117 82.4078 5.3117C81.9604 5.3117 81.5832 5.43315 81.2764 5.67605C80.9696 5.91895 80.7373 6.25559 80.5797 6.68599C80.422 7.11639 80.3432 7.61497 80.3432 8.18173C80.3432 8.75275 80.422 9.25772 80.5797 9.69664C80.7416 10.1313 80.9739 10.4722 81.2764 10.7194C81.5832 10.9623 81.9604 11.0837 82.4078 11.0837ZM92.1701 13.2762C91.5436 13.2762 90.9854 13.1675 90.4953 12.9502C90.0053 12.7286 89.6175 12.4026 89.332 11.9722C89.0507 11.5376 88.9101 10.9964 88.9101 10.3486C88.9101 9.80318 89.0103 9.34508 89.2105 8.97434C89.4108 8.6036 89.6835 8.30531 90.0287 8.07946C90.3739 7.8536 90.7659 7.68315 91.2049 7.56809C91.648 7.45304 92.1125 7.37207 92.5983 7.3252C93.1693 7.26554 93.6296 7.21014 93.979 7.159C94.3284 7.1036 94.582 7.02264 94.7397 6.9161C94.8973 6.80957 94.9762 6.6519 94.9762 6.44309V6.40474C94.9762 5.99991 94.8483 5.6867 94.5926 5.46511C94.3412 5.24352 93.9833 5.13272 93.5188 5.13272C93.0287 5.13272 92.6388 5.24139 92.349 5.45872C92.0593 5.67179 91.8675 5.94025 91.7737 6.26412L89.2553 6.05957C89.3831 5.46298 89.6345 4.94735 90.0095 4.5127C90.3845 4.07377 90.8682 3.73713 91.4605 3.50275C92.0571 3.26412 92.7475 3.1448 93.5316 3.1448C94.077 3.1448 94.599 3.20872 95.0976 3.33656C95.6005 3.4644 96.0458 3.66255 96.4335 3.93102C96.8256 4.19948 97.1345 4.54466 97.3604 4.96653C97.5862 5.38414 97.6992 5.88485 97.6992 6.46866V13.0908H95.1168V11.7293H95.0401C94.8824 12.0361 94.6715 12.3067 94.4073 12.5411C94.1431 12.7712 93.8256 12.9523 93.4549 13.0844C93.0841 13.2123 92.6559 13.2762 92.1701 13.2762ZM92.9499 11.3969C93.3505 11.3969 93.7041 11.3181 94.011 11.1604C94.3178 10.9985 94.5585 10.7812 94.7333 10.5084C94.908 10.2357 94.9953 9.92676 94.9953 9.58159V8.53968C94.9101 8.59508 94.7929 8.64622 94.6438 8.69309C94.4989 8.73571 94.3348 8.77619 94.1516 8.81454C93.9684 8.84863 93.7851 8.88059 93.6019 8.91042C93.4186 8.93599 93.2524 8.95943 93.1033 8.98073C92.7837 9.02761 92.5046 9.10218 92.2659 9.20446C92.0273 9.30673 91.8419 9.44522 91.7098 9.61994C91.5777 9.79039 91.5117 10.0035 91.5117 10.2591C91.5117 10.6299 91.6459 10.9133 91.9144 11.1093C92.1871 11.301 92.5323 11.3969 92.9499 11.3969ZM102.535 7.41468V13.0908H99.8117V3.27264H102.407V5.00488H102.522C102.739 4.43386 103.104 3.98216 103.615 3.64977C104.126 3.31312 104.746 3.1448 105.475 3.1448C106.157 3.1448 106.751 3.29395 107.258 3.59224C107.766 3.89054 108.16 4.31667 108.441 4.87065C108.722 5.42037 108.863 6.07662 108.863 6.8394V13.0908H106.14V7.3252C106.144 6.72434 105.991 6.25559 105.68 5.91895C105.369 5.57804 104.94 5.40758 104.395 5.40758C104.028 5.40758 103.705 5.48642 103.423 5.64409C103.146 5.80176 102.929 6.03187 102.771 6.33443C102.618 6.63272 102.539 6.99281 102.535 7.41468ZM116.231 3.27264V5.31809H110.319V3.27264H116.231ZM111.661 0.920366H114.384V10.0738C114.384 10.3252 114.422 10.5212 114.499 10.6618C114.576 10.7982 114.682 10.8941 114.819 10.9495C114.959 11.0049 115.121 11.0326 115.304 11.0326C115.432 11.0326 115.56 11.0219 115.688 11.0006C115.816 10.9751 115.914 10.9559 115.982 10.9431L116.41 12.9694C116.274 13.012 116.082 13.061 115.835 13.1164C115.588 13.176 115.287 13.2123 114.934 13.2251C114.277 13.2506 113.702 13.1633 113.208 12.963C112.718 12.7627 112.336 12.4516 112.064 12.0297C111.791 11.6079 111.657 11.0752 111.661 10.4317V0.920366ZM122.374 13.2826C121.364 13.2826 120.495 13.078 119.766 12.6689C119.042 12.2556 118.483 11.6718 118.091 10.9175C117.699 10.159 117.503 9.26198 117.503 8.22647C117.503 7.21653 117.699 6.33017 118.091 5.56738C118.483 4.8046 119.035 4.21014 119.747 3.784C120.463 3.35787 121.302 3.1448 122.265 3.1448C122.913 3.1448 123.516 3.2492 124.074 3.45801C124.637 3.66255 125.127 3.9715 125.545 4.38485C125.966 4.79821 126.295 5.31809 126.529 5.94451C126.763 6.56667 126.88 7.29537 126.88 8.13059V8.87846H118.59V7.19096H124.317C124.317 6.79892 124.232 6.45162 124.062 6.14906C123.891 5.8465 123.655 5.61 123.352 5.43954C123.054 5.26483 122.706 5.17747 122.31 5.17747C121.897 5.17747 121.53 5.27335 121.211 5.46511C120.895 5.65261 120.648 5.90616 120.469 6.22576C120.29 6.5411 120.199 6.89267 120.194 7.28045V8.88485C120.194 9.37065 120.284 9.79039 120.463 10.1441C120.646 10.4978 120.904 10.7705 121.236 10.9623C121.569 11.154 121.963 11.2499 122.419 11.2499C122.721 11.2499 122.998 11.2073 123.25 11.1221C123.501 11.0368 123.716 10.909 123.895 10.7385C124.074 10.5681 124.211 10.3593 124.304 10.1121L126.823 10.2783C126.695 10.8834 126.433 11.4118 126.037 11.8635C125.645 12.311 125.138 12.6604 124.515 12.9118C123.898 13.159 123.184 13.2826 122.374 13.2826ZM136.826 6.07235L134.334 6.22576C134.291 6.01269 134.199 5.82093 134.059 5.65048C133.918 5.47576 133.733 5.33727 133.503 5.235C133.277 5.12846 133.006 5.0752 132.691 5.0752C132.269 5.0752 131.913 5.16468 131.623 5.34366C131.334 5.51838 131.189 5.75275 131.189 6.04679C131.189 6.28116 131.282 6.47931 131.47 6.64125C131.657 6.80318 131.979 6.93315 132.435 7.03116L134.212 7.38912C135.167 7.58514 135.878 7.90048 136.347 8.33514C136.816 8.7698 137.05 9.34082 137.05 10.0482C137.05 10.6917 136.861 11.2563 136.481 11.7421C136.106 12.2279 135.591 12.6072 134.934 12.8799C134.282 13.1483 133.53 13.2826 132.678 13.2826C131.378 13.2826 130.343 13.012 129.572 12.4708C128.804 11.9253 128.355 11.1839 128.223 10.2464L130.901 10.1057C130.982 10.502 131.178 10.8046 131.489 11.0134C131.8 11.218 132.199 11.3202 132.684 11.3202C133.162 11.3202 133.545 11.2286 133.835 11.0454C134.129 10.8579 134.278 10.6171 134.282 10.3231C134.278 10.0759 134.174 9.87349 133.969 9.71582C133.765 9.55389 133.449 9.43031 133.023 9.34508L131.323 9.0063C130.364 8.81454 129.65 8.48216 129.182 8.00914C128.717 7.53613 128.485 6.93315 128.485 6.2002C128.485 5.56951 128.655 5.02619 128.996 4.57022C129.341 4.11426 129.825 3.7627 130.447 3.51554C131.074 3.26838 131.807 3.1448 132.646 3.1448C133.886 3.1448 134.862 3.40687 135.574 3.93102C136.29 4.45517 136.707 5.16895 136.826 6.07235ZM147.405 13.2826C146.395 13.2826 145.526 13.078 144.797 12.6689C144.073 12.2556 143.515 11.6718 143.123 10.9175C142.731 10.159 142.535 9.26198 142.535 8.22647C142.535 7.21653 142.731 6.33017 143.123 5.56738C143.515 4.8046 144.067 4.21014 144.778 3.784C145.494 3.35787 146.334 3.1448 147.297 3.1448C147.944 3.1448 148.547 3.2492 149.106 3.45801C149.668 3.66255 150.158 3.9715 150.576 4.38485C150.998 4.79821 151.326 5.31809 151.56 5.94451C151.795 6.56667 151.912 7.29537 151.912 8.13059V8.87846H143.621V7.19096H149.349C149.349 6.79892 149.263 6.45162 149.093 6.14906C148.922 5.8465 148.686 5.61 148.383 5.43954C148.085 5.26483 147.738 5.17747 147.341 5.17747C146.928 5.17747 146.562 5.27335 146.242 5.46511C145.927 5.65261 145.679 5.90616 145.5 6.22576C145.322 6.5411 145.23 6.89267 145.226 7.28045V8.88485C145.226 9.37065 145.315 9.79039 145.494 10.1441C145.677 10.4978 145.935 10.7705 146.268 10.9623C146.6 11.154 146.994 11.2499 147.45 11.2499C147.753 11.2499 148.03 11.2073 148.281 11.1221C148.532 11.0368 148.748 10.909 148.927 10.7385C149.106 10.5681 149.242 10.3593 149.336 10.1121L151.854 10.2783C151.726 10.8834 151.464 11.4118 151.068 11.8635C150.676 12.311 150.169 12.6604 149.547 12.9118C148.929 13.159 148.215 13.2826 147.405 13.2826ZM156.412 7.41468V13.0908H153.689V3.27264H156.284V5.00488H156.399C156.616 4.43386 156.981 3.98216 157.492 3.64977C158.003 3.31312 158.623 3.1448 159.352 3.1448C160.034 3.1448 160.628 3.29395 161.135 3.59224C161.643 3.89054 162.037 4.31667 162.318 4.87065C162.599 5.42037 162.74 6.07662 162.74 6.8394V13.0908H160.017V7.3252C160.021 6.72434 159.868 6.25559 159.557 5.91895C159.246 5.57804 158.817 5.40758 158.272 5.40758C157.905 5.40758 157.581 5.48642 157.3 5.64409C157.023 5.80176 156.806 6.03187 156.648 6.33443C156.495 6.63272 156.416 6.99281 156.412 7.41468ZM169.322 13.2826C168.316 13.2826 167.451 13.0695 166.727 12.6434C166.007 12.213 165.453 11.6164 165.065 10.8536C164.681 10.0908 164.49 9.21298 164.49 8.22008C164.49 7.2144 164.684 6.3323 165.071 5.57377C165.463 4.81099 166.019 4.21653 166.74 3.79039C167.46 3.36 168.316 3.1448 169.309 3.1448C170.166 3.1448 170.916 3.30034 171.559 3.61142C172.203 3.9225 172.712 4.35929 173.087 4.92179C173.462 5.48429 173.669 6.1448 173.707 6.90332H171.137C171.065 6.41326 170.873 6.01909 170.562 5.72079C170.255 5.41824 169.853 5.26696 169.354 5.26696C168.932 5.26696 168.564 5.38201 168.248 5.61213C167.937 5.83798 167.694 6.16824 167.519 6.60289C167.345 7.03755 167.257 7.56383 167.257 8.18173C167.257 8.80815 167.343 9.34082 167.513 9.77974C167.688 10.2187 167.933 10.5532 168.248 10.7833C168.564 11.0134 168.932 11.1285 169.354 11.1285C169.665 11.1285 169.944 11.0645 170.191 10.9367C170.443 10.8089 170.649 10.6235 170.811 10.3806C170.978 10.1334 171.086 9.83727 171.137 9.4921H173.707C173.664 10.2421 173.46 10.9026 173.093 11.4736C172.731 12.0404 172.23 12.4836 171.591 12.8032C170.952 13.1228 170.196 13.2826 169.322 13.2826ZM179.886 13.2826C178.894 13.2826 178.035 13.0716 177.311 12.6498C176.59 12.2236 176.034 11.6313 175.642 10.8728C175.25 10.11 175.054 9.22576 175.054 8.22008C175.054 7.20588 175.25 6.31951 175.642 5.56099C176.034 4.79821 176.59 4.20588 177.311 3.784C178.035 3.35787 178.894 3.1448 179.886 3.1448C180.879 3.1448 181.736 3.35787 182.456 3.784C183.181 4.20588 183.739 4.79821 184.131 5.56099C184.523 6.31951 184.719 7.20588 184.719 8.22008C184.719 9.22576 184.523 10.11 184.131 10.8728C183.739 11.6313 183.181 12.2236 182.456 12.6498C181.736 13.0716 180.879 13.2826 179.886 13.2826ZM179.899 11.1732C180.351 11.1732 180.728 11.0454 181.031 10.7897C181.333 10.5297 181.561 10.176 181.715 9.7286C181.872 9.28116 181.951 8.77193 181.951 8.20091C181.951 7.62988 181.872 7.12065 181.715 6.67321C181.561 6.22576 181.333 5.87207 181.031 5.61213C180.728 5.35218 180.351 5.22221 179.899 5.22221C179.443 5.22221 179.06 5.35218 178.749 5.61213C178.442 5.87207 178.21 6.22576 178.052 6.67321C177.899 7.12065 177.822 7.62988 177.822 8.20091C177.822 8.77193 177.899 9.28116 178.052 9.7286C178.21 10.176 178.442 10.5297 178.749 10.7897C179.06 11.0454 179.443 11.1732 179.899 11.1732ZM189.212 7.41468V13.0908H186.489V3.27264H189.085V5.00488H189.2C189.417 4.43386 189.781 3.98216 190.293 3.64977C190.804 3.31312 191.424 3.1448 192.153 3.1448C192.835 3.1448 193.429 3.29395 193.936 3.59224C194.443 3.89054 194.837 4.31667 195.119 4.87065C195.4 5.42037 195.541 6.07662 195.541 6.8394V13.0908H192.818V7.3252C192.822 6.72434 192.668 6.25559 192.357 5.91895C192.046 5.57804 191.618 5.40758 191.073 5.40758C190.706 5.40758 190.382 5.48642 190.101 5.64409C189.824 5.80176 189.607 6.03187 189.449 6.33443C189.296 6.63272 189.217 6.99281 189.212 7.41468ZM202.909 3.27264V5.31809H196.996V3.27264H202.909ZM198.339 0.920366H201.062V10.0738C201.062 10.3252 201.1 10.5212 201.177 10.6618C201.254 10.7982 201.36 10.8941 201.496 10.9495C201.637 11.0049 201.799 11.0326 201.982 11.0326C202.11 11.0326 202.238 11.0219 202.366 11.0006C202.494 10.9751 202.592 10.9559 202.66 10.9431L203.088 12.9694C202.952 13.012 202.76 13.061 202.513 13.1164C202.266 13.176 201.965 13.2123 201.611 13.2251C200.955 13.2506 200.38 13.1633 199.886 12.963C199.396 12.7627 199.014 12.4516 198.741 12.0297C198.469 11.6079 198.334 11.0752 198.339 10.4317V0.920366ZM204.683 13.0908V3.27264H207.323V4.98571H207.425C207.604 4.37633 207.904 3.9161 208.326 3.60503C208.748 3.28968 209.234 3.13201 209.784 3.13201C209.92 3.13201 210.067 3.14054 210.225 3.15758C210.382 3.17463 210.521 3.19806 210.64 3.22789V5.64409C210.512 5.60573 210.336 5.57164 210.11 5.54181C209.884 5.51199 209.677 5.49707 209.49 5.49707C209.089 5.49707 208.731 5.58443 208.416 5.75914C208.105 5.9296 207.858 6.16823 207.674 6.47505C207.495 6.78187 207.406 7.13556 207.406 7.53613V13.0908H204.683ZM214.567 13.2762C213.94 13.2762 213.382 13.1675 212.892 12.9502C212.402 12.7286 212.014 12.4026 211.728 11.9722C211.447 11.5376 211.307 10.9964 211.307 10.3486C211.307 9.80318 211.407 9.34508 211.607 8.97434C211.807 8.6036 212.08 8.30531 212.425 8.07946C212.77 7.8536 213.162 7.68315 213.601 7.56809C214.045 7.45304 214.509 7.37207 214.995 7.3252C215.566 7.26554 216.026 7.21014 216.375 7.159C216.725 7.1036 216.978 7.02264 217.136 6.9161C217.294 6.80957 217.373 6.6519 217.373 6.44309V6.40474C217.373 5.99991 217.245 5.6867 216.989 5.46511C216.738 5.24352 216.38 5.13272 215.915 5.13272C215.425 5.13272 215.035 5.24139 214.746 5.45872C214.456 5.67179 214.264 5.94025 214.17 6.26412L211.652 6.05957C211.78 5.46298 212.031 4.94735 212.406 4.5127C212.781 4.07377 213.265 3.73713 213.857 3.50275C214.454 3.26412 215.144 3.1448 215.928 3.1448C216.473 3.1448 216.996 3.20872 217.494 3.33656C217.997 3.4644 218.442 3.66255 218.83 3.93102C219.222 4.19948 219.531 4.54466 219.757 4.96653C219.983 5.38414 220.096 5.88485 220.096 6.46866V13.0908H217.513V11.7293H217.437C217.279 12.0361 217.068 12.3067 216.804 12.5411C216.54 12.7712 216.222 12.9523 215.851 13.0844C215.481 13.2123 215.052 13.2762 214.567 13.2762ZM215.346 11.3969C215.747 11.3969 216.101 11.3181 216.407 11.1604C216.714 10.9985 216.955 10.7812 217.13 10.5084C217.304 10.2357 217.392 9.92676 217.392 9.58159V8.53968C217.307 8.59508 217.189 8.64622 217.04 8.69309C216.895 8.73571 216.731 8.77619 216.548 8.81454C216.365 8.84863 216.182 8.88059 215.998 8.91042C215.815 8.93599 215.649 8.95943 215.5 8.98073C215.18 9.02761 214.901 9.10218 214.662 9.20446C214.424 9.30673 214.238 9.44522 214.106 9.61994C213.974 9.79039 213.908 10.0035 213.908 10.2591C213.908 10.6299 214.042 10.9133 214.311 11.1093C214.584 11.301 214.929 11.3969 215.346 11.3969ZM222.208 13.0908V3.27264H224.803V5.00488H224.918C225.123 4.4296 225.464 3.97576 225.941 3.64338C226.418 3.31099 226.989 3.1448 227.654 3.1448C228.328 3.1448 228.901 3.31312 229.374 3.64977C229.847 3.98216 230.162 4.43386 230.32 5.00488H230.422C230.622 4.44238 230.985 3.99281 231.509 3.65616C232.037 3.31525 232.661 3.1448 233.382 3.1448C234.298 3.1448 235.041 3.4367 235.612 4.02051C236.188 4.60005 236.475 5.4225 236.475 6.48784V13.0908H233.759V7.02477C233.759 6.47931 233.614 6.07022 233.324 5.7975C233.034 5.52477 232.672 5.38841 232.237 5.38841C231.743 5.38841 231.357 5.54608 231.08 5.86142C230.803 6.1725 230.665 6.58372 230.665 7.09508V13.0908H228.025V6.96724C228.025 6.48571 227.886 6.10218 227.61 5.81667C227.337 5.53116 226.977 5.38841 226.529 5.38841C226.227 5.38841 225.954 5.46511 225.711 5.61852C225.472 5.76767 225.283 5.9786 225.142 6.25133C225.002 6.5198 224.931 6.83514 224.931 7.19735V13.0908H222.208ZM3.2599 35.2762C2.63348 35.2762 2.07524 35.1675 1.58518 34.9502C1.09513 34.7286 0.707342 34.4026 0.421831 33.9722C0.140581 33.5376 -4.43831e-05 32.9964 -4.43831e-05 32.3486C-4.43831e-05 31.8032 0.100098 31.3451 0.300382 30.9743C0.500666 30.6036 0.773393 30.3053 1.11856 30.0795C1.46373 29.8536 1.85578 29.6831 2.2947 29.5681C2.73788 29.453 3.20237 29.3721 3.68817 29.3252C4.25919 29.2655 4.71942 29.2101 5.06885 29.159C5.41828 29.1036 5.67183 29.0226 5.8295 28.9161C5.98717 28.8096 6.06601 28.6519 6.06601 28.4431V28.4047C6.06601 27.9999 5.93817 27.6867 5.68248 27.4651C5.43106 27.2435 5.07311 27.1327 4.60862 27.1327C4.11856 27.1327 3.72865 27.2414 3.43888 27.4587C3.1491 27.6718 2.95734 27.9403 2.86359 28.2641L0.345126 28.0596C0.472967 27.463 0.724388 26.9474 1.09939 26.5127C1.47439 26.0738 1.95805 25.7371 2.55038 25.5028C3.14697 25.2641 3.83731 25.1448 4.6214 25.1448C5.16686 25.1448 5.68888 25.2087 6.18746 25.3366C6.6903 25.4644 7.13561 25.6626 7.52339 25.931C7.91544 26.1995 8.22439 26.5447 8.45024 26.9665C8.67609 27.3841 8.78902 27.8849 8.78902 28.4687V35.0908H6.20663V33.7293H6.12993C5.97226 34.0361 5.76132 34.3067 5.49711 34.5411C5.23291 34.7712 4.91544 34.9523 4.5447 35.0844C4.17396 35.2123 3.74569 35.2762 3.2599 35.2762ZM4.03973 33.3969C4.4403 33.3969 4.79399 33.3181 5.10081 33.1604C5.40763 32.9985 5.64839 32.7812 5.82311 32.5084C5.99783 32.2357 6.08518 31.9268 6.08518 31.5816V30.5397C5.99996 30.5951 5.88277 30.6462 5.73362 30.6931C5.58873 30.7357 5.42467 30.7762 5.24143 30.8145C5.05819 30.8486 4.87496 30.8806 4.69172 30.9104C4.50848 30.936 4.34229 30.9594 4.19314 30.9807C3.87354 31.0276 3.59442 31.1022 3.35578 31.2045C3.11714 31.3067 2.93177 31.4452 2.79967 31.6199C2.66757 31.7904 2.60152 32.0035 2.60152 32.2591C2.60152 32.6299 2.73575 32.9133 3.00422 33.1093C3.27694 33.301 3.62211 33.3969 4.03973 33.3969ZM13.6246 21.9999V35.0908H10.9016V21.9999H13.6246ZM20.2292 38.9772C19.3471 38.9772 18.5907 38.8557 17.96 38.6128C17.3336 38.3742 16.835 38.0482 16.4643 37.6349C16.0935 37.2215 15.8528 36.757 15.742 36.2414L18.2604 35.9026C18.3371 36.0986 18.4586 36.2819 18.6248 36.4523C18.791 36.6228 19.0104 36.7591 19.2832 36.8614C19.5601 36.968 19.8968 37.0212 20.2931 37.0212C20.8854 37.0212 21.3734 36.8763 21.7569 36.5866C22.1447 36.301 22.3386 35.8216 22.3386 35.1483V33.3522H22.2235C22.1042 33.6249 21.9252 33.8827 21.6866 34.1256C21.4479 34.3685 21.1411 34.5667 20.7661 34.7201C20.3911 34.8735 19.9437 34.9502 19.4238 34.9502C18.6866 34.9502 18.0154 34.7797 17.4103 34.4388C16.8094 34.0937 16.33 33.5674 15.9721 32.86C15.6184 32.1483 15.4415 31.2492 15.4415 30.1626C15.4415 29.0503 15.6226 28.1214 15.9849 27.3756C16.3471 26.6299 16.8286 26.0716 17.4295 25.7009C18.0346 25.3302 18.6972 25.1448 19.4174 25.1448C19.9671 25.1448 20.4273 25.2385 20.7981 25.426C21.1688 25.6093 21.4671 25.8394 21.693 26.1164C21.9231 26.3891 22.0999 26.6576 22.2235 26.9218H22.3258V25.2726H25.0296V35.1867C25.0296 36.0219 24.8251 36.7208 24.416 37.2833C24.0069 37.8458 23.4401 38.2677 22.7157 38.5489C21.9955 38.8344 21.1667 38.9772 20.2292 38.9772ZM20.2867 32.9047C20.7256 32.9047 21.0964 32.7961 21.3989 32.5787C21.7057 32.3572 21.9401 32.0418 22.1021 31.6327C22.2682 31.2194 22.3513 30.7251 22.3513 30.1498C22.3513 29.5745 22.2704 29.0759 22.1084 28.654C21.9465 28.2279 21.7121 27.8976 21.4053 27.6633C21.0985 27.4289 20.7256 27.3117 20.2867 27.3117C19.8393 27.3117 19.4621 27.4331 19.1553 27.676C18.8485 27.9147 18.6163 28.2471 18.4586 28.6732C18.3009 29.0993 18.2221 29.5915 18.2221 30.1498C18.2221 30.7165 18.3009 31.2066 18.4586 31.6199C18.6205 32.029 18.8528 32.3465 19.1553 32.5724C19.4621 32.7939 19.8393 32.9047 20.2867 32.9047ZM31.6326 35.2826C30.6397 35.2826 29.781 35.0716 29.0566 34.6498C28.3364 34.2236 27.7803 33.6313 27.3883 32.8728C26.9962 32.11 26.8002 31.2258 26.8002 30.2201C26.8002 29.2059 26.9962 28.3195 27.3883 27.561C27.7803 26.7982 28.3364 26.2059 29.0566 25.784C29.781 25.3579 30.6397 25.1448 31.6326 25.1448C32.6255 25.1448 33.482 25.3579 34.2022 25.784C34.9266 26.2059 35.4849 26.7982 35.8769 27.561C36.269 28.3195 36.465 29.2059 36.465 30.2201C36.465 31.2258 36.269 32.11 35.8769 32.8728C35.4849 33.6313 34.9266 34.2236 34.2022 34.6498C33.482 35.0716 32.6255 35.2826 31.6326 35.2826ZM31.6454 33.1732C32.0971 33.1732 32.4742 33.0454 32.7768 32.7897C33.0793 32.5297 33.3073 32.176 33.4607 31.7286C33.6184 31.2812 33.6972 30.7719 33.6972 30.2009C33.6972 29.6299 33.6184 29.1206 33.4607 28.6732C33.3073 28.2258 33.0793 27.8721 32.7768 27.6121C32.4742 27.3522 32.0971 27.2222 31.6454 27.2222C31.1894 27.2222 30.8059 27.3522 30.4948 27.6121C30.188 27.8721 29.9557 28.2258 29.7981 28.6732C29.6447 29.1206 29.568 29.6299 29.568 30.2009C29.568 30.7719 29.6447 31.2812 29.7981 31.7286C29.9557 32.176 30.188 32.5297 30.4948 32.7897C30.8059 33.0454 31.1894 33.1732 31.6454 33.1732ZM46.876 35.2826C45.8661 35.2826 44.9968 35.078 44.2681 34.6689C43.5436 34.2556 42.9854 33.6718 42.5934 32.9175C42.2013 32.159 42.0053 31.262 42.0053 30.2265C42.0053 29.2165 42.2013 28.3302 42.5934 27.5674C42.9854 26.8046 43.5372 26.2101 44.2489 25.784C44.9648 25.3579 45.8043 25.1448 46.7674 25.1448C47.4151 25.1448 48.0181 25.2492 48.5763 25.458C49.1388 25.6626 49.6289 25.9715 50.0465 26.3849C50.4684 26.7982 50.7965 27.3181 51.0309 27.9445C51.2652 28.5667 51.3824 29.2954 51.3824 30.1306V30.8785H43.0919V29.191H48.8192C48.8192 28.7989 48.734 28.4516 48.5635 28.1491C48.3931 27.8465 48.1566 27.61 47.854 27.4395C47.5557 27.2648 47.2084 27.1775 46.8121 27.1775C46.3987 27.1775 46.0323 27.2733 45.7127 27.4651C45.3973 27.6526 45.1502 27.9062 44.9712 28.2258C44.7922 28.5411 44.7006 28.8927 44.6963 29.2805V30.8849C44.6963 31.3706 44.7858 31.7904 44.9648 32.1441C45.148 32.4978 45.4059 32.7705 45.7382 32.9623C46.0706 33.154 46.4648 33.2499 46.9208 33.2499C47.2233 33.2499 47.5003 33.2073 47.7517 33.1221C48.0032 33.0368 48.2184 32.909 48.3973 32.7385C48.5763 32.5681 48.7127 32.3593 48.8064 32.1121L51.3249 32.2783C51.197 32.8834 50.935 33.4118 50.5387 33.8635C50.1466 34.311 49.6395 34.6604 49.0174 34.9118C48.3995 35.159 47.6857 35.2826 46.876 35.2826ZM53.1594 35.0908V25.2726H55.7546V27.0049H55.8696C56.0742 26.4296 56.4151 25.9758 56.8924 25.6434C57.3696 25.311 57.9407 25.1448 58.6054 25.1448C59.2787 25.1448 59.8519 25.3131 60.3249 25.6498C60.7979 25.9822 61.1132 26.4339 61.2709 27.0049H61.3732C61.5735 26.4424 61.9357 25.9928 62.4598 25.6562C62.9882 25.3153 63.6125 25.1448 64.3327 25.1448C65.2489 25.1448 65.9925 25.4367 66.5635 26.0205C67.1388 26.6001 67.4264 27.4225 67.4264 28.4878V35.0908H64.7098V29.0248C64.7098 28.4793 64.5649 28.0702 64.2752 27.7975C63.9854 27.5248 63.6232 27.3884 63.1885 27.3884C62.6942 27.3884 62.3085 27.5461 62.0316 27.8614C61.7546 28.1725 61.6161 28.5837 61.6161 29.0951V35.0908H58.9762V28.9672C58.9762 28.4857 58.8377 28.1022 58.5607 27.8167C58.288 27.5312 57.9279 27.3884 57.4804 27.3884C57.1779 27.3884 56.9051 27.4651 56.6622 27.6185C56.4236 27.7677 56.234 27.9786 56.0934 28.2513C55.9527 28.5198 55.8824 28.8351 55.8824 29.1974V35.0908H53.1594ZM73.7434 35.0908V25.2726H76.3386V27.0049H76.4536C76.6582 26.4296 76.9991 25.9758 77.4763 25.6434C77.9536 25.311 78.5246 25.1448 79.1894 25.1448C79.8627 25.1448 80.4359 25.3131 80.9089 25.6498C81.3819 25.9822 81.6972 26.4339 81.8549 27.0049H81.9572C82.1574 26.4424 82.5197 25.9928 83.0438 25.6562C83.5722 25.3153 84.1965 25.1448 84.9167 25.1448C85.8329 25.1448 86.5765 25.4367 87.1475 26.0205C87.7228 26.6001 88.0104 27.4225 88.0104 28.4878V35.0908H85.2938V29.0248C85.2938 28.4793 85.1489 28.0702 84.8592 27.7975C84.5694 27.5248 84.2072 27.3884 83.7725 27.3884C83.2782 27.3884 82.8925 27.5461 82.6155 27.8614C82.3386 28.1725 82.2001 28.5837 82.2001 29.0951V35.0908H79.5601V28.9672C79.5601 28.4857 79.4217 28.1022 79.1447 27.8167C78.8719 27.5312 78.5119 27.3884 78.0644 27.3884C77.7619 27.3884 77.4891 27.4651 77.2462 27.6185C77.0076 27.7677 76.818 27.9786 76.6773 28.2513C76.5367 28.5198 76.4664 28.8351 76.4664 29.1974V35.0908H73.7434ZM94.6358 35.2826C93.6258 35.2826 92.7565 35.078 92.0278 34.6689C91.3034 34.2556 90.7452 33.6718 90.3531 32.9175C89.9611 32.159 89.765 31.262 89.765 30.2265C89.765 29.2165 89.9611 28.3302 90.3531 27.5674C90.7452 26.8046 91.297 26.2101 92.0087 25.784C92.7246 25.3579 93.5641 25.1448 94.5271 25.1448C95.1748 25.1448 95.7778 25.2492 96.3361 25.458C96.8986 25.6626 97.3886 25.9715 97.8062 26.3849C98.2281 26.7982 98.5562 27.3181 98.7906 27.9445C99.025 28.5667 99.1422 29.2954 99.1422 30.1306V30.8785H90.8517V29.191H96.579C96.579 28.7989 96.4937 28.4516 96.3233 28.1491C96.1528 27.8465 95.9163 27.61 95.6138 27.4395C95.3155 27.2648 94.9682 27.1775 94.5719 27.1775C94.1585 27.1775 93.792 27.2733 93.4724 27.4651C93.1571 27.6526 92.9099 27.9062 92.731 28.2258C92.552 28.5411 92.4604 28.8927 92.4561 29.2805V30.8849C92.4561 31.3706 92.5456 31.7904 92.7246 32.1441C92.9078 32.4978 93.1656 32.7705 93.498 32.9623C93.8304 33.154 94.2246 33.2499 94.6805 33.2499C94.9831 33.2499 95.2601 33.2073 95.5115 33.1221C95.7629 33.0368 95.9781 32.909 96.1571 32.7385C96.3361 32.5681 96.4724 32.3593 96.5662 32.1121L99.0847 32.2783C98.9568 32.8834 98.6947 33.4118 98.2984 33.8635C97.9064 34.311 97.3993 34.6604 96.7771 34.9118C96.1592 35.159 95.4454 35.2826 94.6358 35.2826ZM103.642 29.4147V35.0908H100.919V25.2726H103.514V27.0049H103.629C103.847 26.4339 104.211 25.9822 104.722 25.6498C105.234 25.3131 105.854 25.1448 106.583 25.1448C107.264 25.1448 107.859 25.2939 108.366 25.5922C108.873 25.8905 109.267 26.3167 109.548 26.8706C109.83 27.4204 109.97 28.0766 109.97 28.8394V35.0908H107.247V29.3252C107.252 28.7243 107.098 28.2556 106.787 27.9189C106.476 27.578 106.048 27.4076 105.502 27.4076C105.136 27.4076 104.812 27.4864 104.531 27.6441C104.254 27.8018 104.036 28.0319 103.879 28.3344C103.725 28.6327 103.646 28.9928 103.642 29.4147ZM116.553 35.2826C115.56 35.2826 114.701 35.0716 113.977 34.6498C113.256 34.2236 112.7 33.6313 112.308 32.8728C111.916 32.11 111.72 31.2258 111.72 30.2201C111.72 29.2059 111.916 28.3195 112.308 27.561C112.7 26.7982 113.256 26.2059 113.977 25.784C114.701 25.3579 115.56 25.1448 116.553 25.1448C117.545 25.1448 118.402 25.3579 119.122 25.784C119.847 26.2059 120.405 26.7982 120.797 27.561C121.189 28.3195 121.385 29.2059 121.385 30.2201C121.385 31.2258 121.189 32.11 120.797 32.8728C120.405 33.6313 119.847 34.2236 119.122 34.6498C118.402 35.0716 117.545 35.2826 116.553 35.2826ZM116.565 33.1732C117.017 33.1732 117.394 33.0454 117.697 32.7897C117.999 32.5297 118.227 32.176 118.381 31.7286C118.538 31.2812 118.617 30.7719 118.617 30.2009C118.617 29.6299 118.538 29.1206 118.381 28.6732C118.227 28.2258 117.999 27.8721 117.697 27.6121C117.394 27.3522 117.017 27.2222 116.565 27.2222C116.109 27.2222 115.726 27.3522 115.415 27.6121C115.108 27.8721 114.876 28.2258 114.718 28.6732C114.565 29.1206 114.488 29.6299 114.488 30.2009C114.488 30.7719 114.565 31.2812 114.718 31.7286C114.876 32.176 115.108 32.5297 115.415 32.7897C115.726 33.0454 116.109 33.1732 116.565 33.1732ZM131.325 28.0724L128.832 28.2258C128.789 28.0127 128.697 27.8209 128.557 27.6505C128.416 27.4758 128.231 27.3373 128.001 27.235C127.775 27.1285 127.504 27.0752 127.189 27.0752C126.767 27.0752 126.411 27.1647 126.121 27.3437C125.832 27.5184 125.687 27.7528 125.687 28.0468C125.687 28.2812 125.78 28.4793 125.968 28.6412C126.155 28.8032 126.477 28.9331 126.933 29.0312L128.71 29.3891C129.665 29.5851 130.376 29.9005 130.845 30.3351C131.314 30.7698 131.548 31.3408 131.548 32.0482C131.548 32.6917 131.359 33.2563 130.979 33.7421C130.604 34.2279 130.089 34.6072 129.432 34.8799C128.78 35.1483 128.028 35.2826 127.176 35.2826C125.876 35.2826 124.841 35.012 124.07 34.4708C123.303 33.9253 122.853 33.1839 122.721 32.2464L125.399 32.1057C125.48 32.502 125.676 32.8046 125.987 33.0134C126.298 33.218 126.697 33.3202 127.182 33.3202C127.66 33.3202 128.043 33.2286 128.333 33.0454C128.627 32.8579 128.776 32.6171 128.78 32.3231C128.776 32.0759 128.672 31.8735 128.467 31.7158C128.263 31.5539 127.947 31.4303 127.521 31.3451L125.821 31.0063C124.862 30.8145 124.148 30.4822 123.68 30.0091C123.215 29.5361 122.983 28.9331 122.983 28.2002C122.983 27.5695 123.153 27.0262 123.494 26.5702C123.839 26.1143 124.323 25.7627 124.945 25.5155C125.572 25.2684 126.305 25.1448 127.144 25.1448C128.384 25.1448 129.36 25.4069 130.072 25.931C130.788 26.4552 131.205 27.1689 131.325 28.0724ZM141.047 35.2506C140.301 35.2506 139.626 35.0589 139.021 34.6753C138.42 34.2876 137.942 33.7187 137.589 32.9687C137.239 32.2144 137.065 31.2897 137.065 30.1945C137.065 29.0695 137.246 28.1341 137.608 27.3884C137.97 26.6384 138.452 26.078 139.053 25.7073C139.658 25.3323 140.32 25.1448 141.04 25.1448C141.59 25.1448 142.048 25.2385 142.415 25.426C142.785 25.6093 143.084 25.8394 143.31 26.1164C143.54 26.3891 143.714 26.6576 143.834 26.9218H143.917V21.9999H146.633V35.0908H143.949V33.5184H143.834C143.706 33.7911 143.525 34.0617 143.29 34.3302C143.06 34.5944 142.76 34.8138 142.389 34.9885C142.023 35.1633 141.575 35.2506 141.047 35.2506ZM141.91 33.0837C142.349 33.0837 142.719 32.9644 143.022 32.7258C143.329 32.4829 143.563 32.1441 143.725 31.7094C143.891 31.2748 143.974 30.7655 143.974 30.1817C143.974 29.5979 143.893 29.0908 143.731 28.6604C143.57 28.23 143.335 27.8976 143.028 27.6633C142.722 27.4289 142.349 27.3117 141.91 27.3117C141.462 27.3117 141.085 27.4331 140.778 27.676C140.472 27.9189 140.239 28.2556 140.082 28.686C139.924 29.1164 139.845 29.615 139.845 30.1817C139.845 30.7528 139.924 31.2577 140.082 31.6966C140.244 32.1313 140.476 32.4722 140.778 32.7194C141.085 32.9623 141.462 33.0837 141.91 33.0837ZM153.347 35.2826C152.337 35.2826 151.467 35.078 150.739 34.6689C150.014 34.2556 149.456 33.6718 149.064 32.9175C148.672 32.159 148.476 31.262 148.476 30.2265C148.476 29.2165 148.672 28.3302 149.064 27.5674C149.456 26.8046 150.008 26.2101 150.72 25.784C151.436 25.3579 152.275 25.1448 153.238 25.1448C153.886 25.1448 154.489 25.2492 155.047 25.458C155.61 25.6626 156.1 25.9715 156.517 26.3849C156.939 26.7982 157.267 27.3181 157.502 27.9445C157.736 28.5667 157.853 29.2954 157.853 30.1306V30.8785H149.563V29.191H155.29C155.29 28.7989 155.205 28.4516 155.034 28.1491C154.864 27.8465 154.627 27.61 154.325 27.4395C154.026 27.2648 153.679 27.1775 153.283 27.1775C152.869 27.1775 152.503 27.2733 152.183 27.4651C151.868 27.6526 151.621 27.9062 151.442 28.2258C151.263 28.5411 151.171 28.8927 151.167 29.2805V30.8849C151.167 31.3706 151.257 31.7904 151.436 32.1441C151.619 32.4978 151.877 32.7705 152.209 32.9623C152.541 33.154 152.936 33.2499 153.391 33.2499C153.694 33.2499 153.971 33.2073 154.222 33.1221C154.474 33.0368 154.689 32.909 154.868 32.7385C155.047 32.5681 155.183 32.3593 155.277 32.1121L157.796 32.2783C157.668 32.8834 157.406 33.4118 157.009 33.8635C156.617 34.311 156.11 34.6604 155.488 34.9118C154.87 35.159 154.156 35.2826 153.347 35.2826ZM163.771 35.0908V33.0965L168.43 28.7819C168.827 28.3983 169.159 28.0532 169.428 27.7464C169.7 27.4395 169.907 27.1391 170.048 26.8451C170.188 26.5468 170.258 26.2251 170.258 25.8799C170.258 25.4964 170.171 25.1661 169.996 24.8891C169.822 24.6079 169.583 24.3927 169.28 24.2435C168.978 24.0901 168.635 24.0134 168.251 24.0134C167.851 24.0134 167.501 24.0944 167.203 24.2563C166.905 24.4182 166.675 24.6505 166.513 24.953C166.351 25.2556 166.27 25.6157 166.27 26.0333H163.643C163.643 25.1768 163.837 24.4331 164.224 23.8025C164.612 23.1718 165.155 22.6839 165.854 22.3387C166.553 21.9935 167.359 21.8209 168.271 21.8209C169.208 21.8209 170.024 21.9871 170.719 22.3195C171.418 22.6476 171.961 23.1036 172.349 23.6874C172.736 24.2712 172.93 24.9403 172.93 25.6945C172.93 26.1888 172.832 26.6768 172.636 27.1583C172.445 27.6398 172.102 28.1746 171.607 28.7627C171.113 29.3465 170.416 30.0475 169.517 30.8657L167.606 32.7385V32.828H173.103V35.0908H163.771ZM179.3 35.0908V25.2726H181.895V27.0049H182.01C182.215 26.4296 182.556 25.9758 183.033 25.6434C183.51 25.311 184.081 25.1448 184.746 25.1448C185.419 25.1448 185.992 25.3131 186.466 25.6498C186.939 25.9822 187.254 26.4339 187.412 27.0049H187.514C187.714 26.4424 188.076 25.9928 188.6 25.6562C189.129 25.3153 189.753 25.1448 190.473 25.1448C191.39 25.1448 192.133 25.4367 192.704 26.0205C193.279 26.6001 193.567 27.4225 193.567 28.4878V35.0908H190.85V29.0248C190.85 28.4793 190.706 28.0702 190.416 27.7975C190.126 27.5248 189.764 27.3884 189.329 27.3884C188.835 27.3884 188.449 27.5461 188.172 27.8614C187.895 28.1725 187.757 28.5837 187.757 29.0951V35.0908H185.117V28.9672C185.117 28.4857 184.978 28.1022 184.701 27.8167C184.429 27.5312 184.068 27.3884 183.621 27.3884C183.318 27.3884 183.046 27.4651 182.803 27.6185C182.564 27.7677 182.375 27.9786 182.234 28.2513C182.093 28.5198 182.023 28.8351 182.023 29.1974V35.0908H179.3ZM195.718 35.0908V25.2726H198.441V35.0908H195.718ZM197.086 24.007C196.681 24.007 196.334 23.8728 196.044 23.6043C195.758 23.3316 195.616 23.0056 195.616 22.6263C195.616 22.2513 195.758 21.9296 196.044 21.6611C196.334 21.3884 196.681 21.252 197.086 21.252C197.491 21.252 197.836 21.3884 198.121 21.6611C198.411 21.9296 198.556 22.2513 198.556 22.6263C198.556 23.0056 198.411 23.3316 198.121 23.6043C197.836 23.8728 197.491 24.007 197.086 24.007ZM203.345 29.4147V35.0908H200.622V25.2726H203.217V27.0049H203.333C203.55 26.4339 203.914 25.9822 204.426 25.6498C204.937 25.3131 205.557 25.1448 206.286 25.1448C206.967 25.1448 207.562 25.2939 208.069 25.5922C208.576 25.8905 208.97 26.3167 209.252 26.8706C209.533 27.4204 209.673 28.0766 209.673 28.8394V35.0908H206.95V29.3252C206.955 28.7243 206.801 28.2556 206.49 27.9189C206.179 27.578 205.751 27.4076 205.205 27.4076C204.839 27.4076 204.515 27.4864 204.234 27.6441C203.957 27.8018 203.739 28.0319 203.582 28.3344C203.428 28.6327 203.35 28.9928 203.345 29.4147ZM218.116 30.9104V25.2726H220.839V35.0908H218.224V33.3074H218.122C217.901 33.8827 217.532 34.3451 217.016 34.6945C216.505 35.0439 215.881 35.2187 215.143 35.2187C214.487 35.2187 213.91 35.0695 213.411 34.7712C212.913 34.4729 212.523 34.0489 212.241 33.4992C211.964 32.9495 211.824 32.2911 211.82 31.5241V25.2726H214.543V31.0383C214.547 31.6178 214.702 32.0759 215.009 32.4126C215.316 32.7492 215.727 32.9175 216.243 32.9175C216.571 32.9175 216.878 32.843 217.163 32.6938C217.449 32.5404 217.679 32.3145 217.854 32.0162C218.033 31.718 218.12 31.3493 218.116 30.9104ZM228.239 25.2726V27.3181H222.326V25.2726H228.239ZM223.669 22.9204H226.392V32.0738C226.392 32.3252 226.43 32.5212 226.507 32.6618C226.584 32.7982 226.69 32.8941 226.826 32.9495C226.967 33.0049 227.129 33.0326 227.312 33.0326C227.44 33.0326 227.568 33.0219 227.696 33.0006C227.824 32.9751 227.922 32.9559 227.99 32.9431L228.418 34.9694C228.282 35.012 228.09 35.061 227.843 35.1164C227.596 35.176 227.295 35.2123 226.942 35.2251C226.285 35.2506 225.71 35.1633 225.216 34.963C224.726 34.7627 224.344 34.4516 224.072 34.0297C223.799 33.6079 223.665 33.0752 223.669 32.4317V22.9204ZM234.344 35.2826C233.351 35.2826 232.492 35.0716 231.768 34.6498C231.047 34.2236 230.491 33.6313 230.099 32.8728C229.707 32.11 229.511 31.2258 229.511 30.2201C229.511 29.2059 229.707 28.3195 230.099 27.561C230.491 26.7982 231.047 26.2059 231.768 25.784C232.492 25.3579 233.351 25.1448 234.344 25.1448C235.336 25.1448 236.193 25.3579 236.913 25.784C237.638 26.2059 238.196 26.7982 238.588 27.561C238.98 28.3195 239.176 29.2059 239.176 30.2201C239.176 31.2258 238.98 32.11 238.588 32.8728C238.196 33.6313 237.638 34.2236 236.913 34.6498C236.193 35.0716 235.336 35.2826 234.344 35.2826ZM234.356 33.1732C234.808 33.1732 235.185 33.0454 235.488 32.7897C235.79 32.5297 236.018 32.176 236.172 31.7286C236.329 31.2812 236.408 30.7719 236.408 30.2009C236.408 29.6299 236.329 29.1206 236.172 28.6732C236.018 28.2258 235.79 27.8721 235.488 27.6121C235.185 27.3522 234.808 27.2222 234.356 27.2222C233.9 27.2222 233.517 27.3522 233.206 27.6121C232.899 27.8721 232.667 28.2258 232.509 28.6732C232.356 29.1206 232.279 29.6299 232.279 30.2009C232.279 30.7719 232.356 31.2812 232.509 31.7286C232.667 32.176 232.899 32.5297 233.206 32.7897C233.517 33.0454 233.9 33.1732 234.356 33.1732ZM249.116 28.0724L246.623 28.2258C246.58 28.0127 246.488 27.8209 246.348 27.6505C246.207 27.4758 246.022 27.3373 245.792 27.235C245.566 27.1285 245.295 27.0752 244.98 27.0752C244.558 27.0752 244.202 27.1647 243.912 27.3437C243.623 27.5184 243.478 27.7528 243.478 28.0468C243.478 28.2812 243.572 28.4793 243.759 28.6412C243.947 28.8032 244.268 28.9331 244.724 29.0312L246.501 29.3891C247.456 29.5851 248.167 29.9005 248.636 30.3351C249.105 30.7698 249.339 31.3408 249.339 32.0482C249.339 32.6917 249.15 33.2563 248.77 33.7421C248.395 34.2279 247.88 34.6072 247.224 34.8799C246.572 35.1483 245.819 35.2826 244.967 35.2826C243.667 35.2826 242.632 35.012 241.861 34.4708C241.094 33.9253 240.644 33.1839 240.512 32.2464L243.19 32.1057C243.271 32.502 243.467 32.8046 243.778 33.0134C244.089 33.218 244.488 33.3202 244.973 33.3202C245.451 33.3202 245.834 33.2286 246.124 33.0454C246.418 32.8579 246.567 32.6171 246.572 32.3231C246.567 32.0759 246.463 31.8735 246.258 31.7158C246.054 31.5539 245.738 31.4303 245.312 31.3451L243.612 31.0063C242.653 30.8145 241.939 30.4822 241.471 30.0091C241.006 29.5361 240.774 28.9331 240.774 28.2002C240.774 27.5695 240.944 27.0262 241.285 26.5702C241.63 26.1143 242.114 25.7627 242.736 25.5155C243.363 25.2684 244.096 25.1448 244.935 25.1448C246.175 25.1448 247.151 25.4069 247.863 25.931C248.579 26.4552 248.996 27.1689 249.116 28.0724Z" fill="white"/>
</svg>
