<svg width="84" height="19" viewBox="0 0 84 19" fill="none" xmlns="http://www.w3.org/2000/svg">
<path d="M0 14.5454V-4.48227e-05H10.2273V3.18177H3.94886V5.68177H9.60227V8.86359H3.94886V14.5454H0ZM14.5419 14.7159C13.8459 14.7159 13.2304 14.6022 12.6953 14.375C12.165 14.1429 11.7483 13.7926 11.4453 13.3238C11.1423 12.8551 10.9908 12.2585 10.9908 11.534C10.9908 10.9375 11.0926 10.4285 11.2962 10.0071C11.4998 9.58092 11.7839 9.23291 12.1484 8.96302C12.513 8.69314 12.9368 8.48717 13.4197 8.34513C13.9074 8.20308 14.433 8.11075 14.9964 8.06814C15.6072 8.02079 16.0973 7.96397 16.4666 7.89768C16.8407 7.82666 17.1106 7.7296 17.2763 7.60649C17.442 7.47865 17.5249 7.31056 17.5249 7.10223V7.07382C17.5249 6.78973 17.416 6.57193 17.1982 6.42041C16.9804 6.26889 16.701 6.19314 16.3601 6.19314C15.986 6.19314 15.6806 6.276 15.4439 6.44172C15.2119 6.6027 15.0722 6.85128 15.0249 7.18746H11.4169C11.4643 6.52458 11.675 5.91378 12.049 5.35507C12.4278 4.79162 12.9794 4.34181 13.7038 4.00564C14.4283 3.66473 15.3326 3.49427 16.4169 3.49427C17.1982 3.49427 17.8989 3.5866 18.5192 3.77126C19.1394 3.95119 19.6674 4.2045 20.103 4.53121C20.5386 4.85318 20.87 5.23196 21.0973 5.66757C21.3293 6.09844 21.4453 6.56719 21.4453 7.07382V14.5454H17.7805V13.0113H17.6953C17.4775 13.4185 17.2124 13.7476 16.8999 13.9985C16.5921 14.2495 16.2393 14.4318 15.8416 14.5454C15.4486 14.659 15.0154 14.7159 14.5419 14.7159ZM15.8203 12.2443C16.1186 12.2443 16.398 12.1827 16.6584 12.0596C16.9235 11.9365 17.139 11.759 17.3047 11.5269C17.4704 11.2949 17.5533 11.0132 17.5533 10.6818V9.77268C17.4491 9.8153 17.3378 9.85554 17.2195 9.89342C17.1058 9.9313 16.9827 9.96681 16.8501 9.99996C16.7223 10.0331 16.585 10.0639 16.4382 10.0923C16.2962 10.1207 16.147 10.1467 15.9908 10.1704C15.6877 10.2178 15.4392 10.2959 15.245 10.4048C15.0556 10.509 14.9136 10.6392 14.8189 10.7954C14.7289 10.9469 14.6839 11.1174 14.6839 11.3068C14.6839 11.6098 14.7905 11.8418 15.0036 12.0028C15.2166 12.1638 15.4889 12.2443 15.8203 12.2443ZM33.2901 7.18746H29.6822C29.6632 6.96492 29.5851 6.77316 29.4478 6.61217C29.3105 6.45119 29.1329 6.32808 28.9151 6.24285C28.7021 6.15289 28.4653 6.10791 28.2049 6.10791C27.8687 6.10791 27.5799 6.16946 27.3384 6.29257C27.0969 6.41568 26.9786 6.59086 26.9833 6.81814C26.9786 6.97912 27.0472 7.12827 27.1893 7.26558C27.3361 7.40289 27.6178 7.50943 28.0344 7.58518L30.2504 7.98291C31.3678 8.18651 32.1987 8.52978 32.7433 9.01274C33.2925 9.49096 33.5695 10.1325 33.5742 10.9375C33.5695 11.714 33.3375 12.3887 32.8782 12.9616C32.4237 13.5298 31.801 13.9701 31.0103 14.2826C30.2243 14.5904 29.3271 14.7443 28.3185 14.7443C26.6519 14.7443 25.3474 14.4034 24.4052 13.7215C23.4677 13.0397 22.9445 12.1401 22.8356 11.0227H26.7276C26.7797 11.3683 26.9502 11.6358 27.239 11.8252C27.5326 12.0099 27.9019 12.1022 28.3469 12.1022C28.7068 12.1022 29.0027 12.0407 29.2347 11.9176C29.4715 11.7945 29.5922 11.6193 29.5969 11.392C29.5922 11.1837 29.488 11.0179 29.2844 10.8948C29.0856 10.7717 28.7731 10.6723 28.3469 10.5965L26.4151 10.2556C25.3024 10.0615 24.4691 9.69219 23.9151 9.14768C23.3612 8.60318 23.0865 7.90242 23.0913 7.04541C23.0865 6.28783 23.2854 5.64626 23.6879 5.12069C24.0951 4.59039 24.6751 4.18793 25.4279 3.91331C26.1855 3.63395 27.0827 3.49427 28.1197 3.49427C29.6964 3.49427 30.9393 3.82098 31.8484 4.47439C32.7622 5.1278 33.2428 6.03215 33.2901 7.18746ZM41.582 3.63632V6.47723H34.3945V3.63632H41.582ZM35.7866 1.02268H39.707V11.0369C39.707 11.1884 39.7331 11.3162 39.7852 11.4204C39.8372 11.5198 39.9177 11.5956 40.0266 11.6477C40.1355 11.695 40.2752 11.7187 40.4457 11.7187C40.564 11.7187 40.7013 11.7045 40.8576 11.6761C41.0186 11.6477 41.137 11.624 41.2127 11.6051L41.7809 14.3608C41.6057 14.4128 41.3548 14.4768 41.0281 14.5525C40.7061 14.6283 40.3226 14.678 39.8775 14.7017C38.9779 14.749 38.2227 14.6567 37.6119 14.4247C37.0011 14.1879 36.5418 13.8162 36.234 13.3096C35.9263 12.803 35.7771 12.1685 35.7866 11.4062V1.02268ZM45.1136 14.5454L42.3864 3.63632H46.3068L47.5568 10.284H47.642L49.0341 3.63632H52.8409L54.2898 10.2272H54.375L55.5682 3.63632H59.4886L56.7614 14.5454H52.5284L50.9943 8.69314H50.8807L49.3466 14.5454H45.1136ZM63.7216 14.7159C63.0256 14.7159 62.41 14.6022 61.875 14.375C61.3447 14.1429 60.928 13.7926 60.625 13.3238C60.322 12.8551 60.1705 12.2585 60.1705 11.534C60.1705 10.9375 60.2723 10.4285 60.4759 10.0071C60.6795 9.58092 60.9635 9.23291 61.3281 8.96302C61.6927 8.69314 62.1165 8.48717 62.5994 8.34513C63.0871 8.20308 63.6127 8.11075 64.1761 8.06814C64.7869 8.02079 65.277 7.96397 65.6463 7.89768C66.0204 7.82666 66.2902 7.7296 66.456 7.60649C66.6217 7.47865 66.7045 7.31056 66.7045 7.10223V7.07382C66.7045 6.78973 66.5956 6.57193 66.3778 6.42041C66.16 6.26889 65.8807 6.19314 65.5398 6.19314C65.1657 6.19314 64.8603 6.276 64.6236 6.44172C64.3916 6.6027 64.2519 6.85128 64.2045 7.18746H60.5966C60.6439 6.52458 60.8546 5.91378 61.2287 5.35507C61.6075 4.79162 62.1591 4.34181 62.8835 4.00564C63.608 3.66473 64.5123 3.49427 65.5966 3.49427C66.3778 3.49427 67.0786 3.5866 67.6989 3.77126C68.3191 3.95119 68.8471 4.2045 69.2827 4.53121C69.7183 4.85318 70.0497 5.23196 70.277 5.66757C70.509 6.09844 70.625 6.56719 70.625 7.07382V14.5454H66.9602V13.0113H66.875C66.6572 13.4185 66.392 13.7476 66.0795 13.9985C65.7718 14.2495 65.419 14.4318 65.0213 14.5454C64.6283 14.659 64.1951 14.7159 63.7216 14.7159ZM65 12.2443C65.2983 12.2443 65.5777 12.1827 65.8381 12.0596C66.1032 11.9365 66.3187 11.759 66.4844 11.5269C66.6501 11.2949 66.733 11.0132 66.733 10.6818V9.77268C66.6288 9.8153 66.5175 9.85554 66.3991 9.89342C66.2855 9.9313 66.1624 9.96681 66.0298 9.99996C65.902 10.0331 65.7647 10.0639 65.6179 10.0923C65.4759 10.1207 65.3267 10.1467 65.1705 10.1704C64.8674 10.2178 64.6188 10.2959 64.4247 10.4048C64.2353 10.509 64.0933 10.6392 63.9986 10.7954C63.9086 10.9469 63.8636 11.1174 63.8636 11.3068C63.8636 11.6098 63.9702 11.8418 64.1832 12.0028C64.3963 12.1638 64.6686 12.2443 65 12.2443ZM74.494 18.6363C74.0442 18.6363 73.6156 18.6008 73.2085 18.5298C72.8013 18.4635 72.4438 18.3712 72.136 18.2528L72.9883 15.4687C73.3103 15.5823 73.6038 15.6557 73.869 15.6889C74.1388 15.722 74.3685 15.7031 74.5579 15.6321C74.752 15.561 74.8917 15.4261 74.9769 15.2272L75.0621 15.0284L71.2269 3.63632H75.3178L77.0792 11.1931H77.1928L78.9826 3.63632H83.1019L79.1246 15.4545C78.9258 16.0558 78.637 16.5956 78.2582 17.0738C77.8841 17.5568 77.3917 17.9379 76.7809 18.2173C76.1701 18.4966 75.4078 18.6363 74.494 18.6363Z" fill="black"/>
</svg>
