<svg width="169" height="18" viewBox="0 0 169 18" fill="none" xmlns="http://www.w3.org/2000/svg">
<path d="M-2.78652e-06 13.8389V0.747958H2.76775V11.5569H8.37997V13.8389H-2.78652e-06ZM14.5978 14.0306C13.6049 14.0306 12.7463 13.8197 12.0218 13.3978C11.3017 12.9717 10.7456 12.3794 10.3535 11.6208C9.96147 10.858 9.76544 9.97381 9.76544 8.96813C9.76544 7.95392 9.96147 7.06756 10.3535 6.30904C10.7456 5.54625 11.3017 4.95392 12.0218 4.53205C12.7463 4.10591 13.6049 3.89284 14.5978 3.89284C15.5907 3.89284 16.4473 4.10591 17.1674 4.53205C17.8919 4.95392 18.4501 5.54625 18.8421 6.30904C19.2342 7.06756 19.4302 7.95392 19.4302 8.96813C19.4302 9.97381 19.2342 10.858 18.8421 11.6208C18.4501 12.3794 17.8919 12.9717 17.1674 13.3978C16.4473 13.8197 15.5907 14.0306 14.5978 14.0306ZM14.6106 11.9213C15.0623 11.9213 15.4395 11.7934 15.742 11.5377C16.0446 11.2778 16.2725 10.9241 16.426 10.4767C16.5836 10.0292 16.6625 9.51997 16.6625 8.94895C16.6625 8.37793 16.5836 7.8687 16.426 7.42125C16.2725 6.97381 16.0446 6.62012 15.742 6.36017C15.4395 6.10023 15.0623 5.97026 14.6106 5.97026C14.1546 5.97026 13.7711 6.10023 13.46 6.36017C13.1532 6.62012 12.921 6.97381 12.7633 7.42125C12.6099 7.8687 12.5332 8.37793 12.5332 8.94895C12.5332 9.51997 12.6099 10.0292 12.7633 10.4767C12.921 10.9241 13.1532 11.2778 13.46 11.5377C13.7711 11.7934 14.1546 11.9213 14.6106 11.9213ZM25.6369 14.0306C24.6312 14.0306 23.7662 13.8176 23.0417 13.3914C22.3216 12.961 21.7676 12.3644 21.3798 11.6017C20.9963 10.8389 20.8045 9.96103 20.8045 8.96813C20.8045 7.96245 20.9984 7.08034 21.3862 6.32182C21.7782 5.55904 22.3343 4.96458 23.0545 4.53844C23.7747 4.10804 24.6312 3.89284 25.6241 3.89284C26.4806 3.89284 27.2306 4.04838 27.8741 4.35946C28.5176 4.67054 29.0268 5.10733 29.4018 5.66983C29.7768 6.23233 29.9835 6.89284 30.0218 7.65137H27.4522C27.3798 7.16131 27.188 6.76713 26.877 6.46884C26.5701 6.16628 26.1674 6.015 25.6689 6.015C25.247 6.015 24.8784 6.13006 24.563 6.36017C24.252 6.58603 24.0091 6.91628 23.8343 7.35094C23.6596 7.7856 23.5723 8.31188 23.5723 8.92978C23.5723 9.5562 23.6575 10.0889 23.8279 10.5278C24.0027 10.9667 24.2477 11.3012 24.563 11.5313C24.8784 11.7615 25.247 11.8765 25.6689 11.8765C25.9799 11.8765 26.2591 11.8126 26.5062 11.6847C26.7576 11.5569 26.9643 11.3715 27.1262 11.1286C27.2924 10.8815 27.4011 10.5853 27.4522 10.2401H30.0218C29.9792 10.9901 29.7747 11.6507 29.4082 12.2217C29.046 12.7884 28.5453 13.2316 27.9061 13.5512C27.2669 13.8708 26.5105 14.0306 25.6369 14.0306ZM34.565 14.0242C33.9386 14.0242 33.3803 13.9156 32.8903 13.6982C32.4002 13.4767 32.0124 13.1507 31.7269 12.7203C31.4457 12.2856 31.305 11.7444 31.305 11.0967C31.305 10.5512 31.4052 10.0931 31.6055 9.72239C31.8058 9.35165 32.0785 9.05336 32.4236 8.8275C32.7688 8.60165 33.1609 8.4312 33.5998 8.31614C34.043 8.20108 34.5075 8.12012 34.9933 8.07324C35.5643 8.01358 36.0245 7.95819 36.3739 7.90705C36.7234 7.85165 36.9769 7.77069 37.1346 7.66415C37.2923 7.55762 37.3711 7.39995 37.3711 7.19114V7.15279C37.3711 6.74796 37.2433 6.43475 36.9876 6.21316C36.7361 5.99157 36.3782 5.88077 35.9137 5.88077C35.4236 5.88077 35.0337 5.98944 34.744 6.20676C34.4542 6.41983 34.2624 6.6883 34.1687 7.01216L31.6502 6.80762C31.7781 6.21103 32.0295 5.6954 32.4045 5.26074C32.7795 4.82182 33.2631 4.48517 33.8555 4.2508C34.4521 4.01216 35.1424 3.89284 35.9265 3.89284C36.4719 3.89284 36.994 3.95676 37.4925 4.08461C37.9954 4.21245 38.4407 4.4106 38.8285 4.67907C39.2205 4.94753 39.5295 5.2927 39.7553 5.71458C39.9812 6.13219 40.0941 6.6329 40.0941 7.21671V13.8389H37.5117V12.4774H37.435C37.2773 12.7842 37.0664 13.0548 36.8022 13.2892C36.538 13.5193 36.2205 13.7004 35.8498 13.8325C35.479 13.9603 35.0508 14.0242 34.565 14.0242ZM35.3448 12.145C35.7454 12.145 36.0991 12.0661 36.4059 11.9085C36.7127 11.7465 36.9535 11.5292 37.1282 11.2565C37.3029 10.9838 37.3903 10.6748 37.3903 10.3296V9.28773C37.305 9.34313 37.1879 9.39426 37.0387 9.44114C36.8938 9.48375 36.7298 9.52424 36.5465 9.56259C36.3633 9.59668 36.18 9.62864 35.9968 9.65847C35.8136 9.68404 35.6474 9.70748 35.4982 9.72878C35.1786 9.77566 34.8995 9.85023 34.6609 9.9525C34.4222 10.0548 34.2369 10.1933 34.1048 10.368C33.9727 10.5384 33.9066 10.7515 33.9066 11.0072C33.9066 11.3779 34.0408 11.6613 34.3093 11.8573C34.582 12.0491 34.9272 12.145 35.3448 12.145ZM42.2067 13.8389V4.02069H44.9297V13.8389H42.2067ZM43.5746 2.75506C43.1697 2.75506 42.8224 2.62083 42.5327 2.35236C42.2472 2.07963 42.1044 1.75364 42.1044 1.37438C42.1044 0.999378 42.2472 0.677645 42.5327 0.40918C42.8224 0.136452 43.1697 8.80957e-05 43.5746 8.80957e-05C43.9794 8.80957e-05 44.3246 0.136452 44.6101 0.40918C44.8999 0.677645 45.0447 0.999378 45.0447 1.37438C45.0447 1.75364 44.8999 2.07963 44.6101 2.35236C44.3246 2.62083 43.9794 2.75506 43.5746 2.75506ZM55.28 6.8204L52.7871 6.97381C52.7445 6.76074 52.6529 6.56898 52.5122 6.39853C52.3716 6.22381 52.1863 6.08532 51.9561 5.98304C51.7303 5.87651 51.4597 5.82324 51.1444 5.82324C50.7225 5.82324 50.3667 5.91273 50.0769 6.09171C49.7871 6.26642 49.6422 6.5008 49.6422 6.79483C49.6422 7.02921 49.736 7.22736 49.9235 7.38929C50.111 7.55123 50.4327 7.6812 50.8887 7.77921L52.6657 8.13716C53.6202 8.33319 54.3319 8.64853 54.8006 9.08319C55.2694 9.51784 55.5037 10.0889 55.5037 10.7963C55.5037 11.4397 55.3141 12.0044 54.9348 12.4901C54.5598 12.9759 54.0442 13.3552 53.388 13.6279C52.736 13.8964 51.9838 14.0306 51.1316 14.0306C49.8319 14.0306 48.7963 13.76 48.025 13.2188C47.258 12.6734 46.8084 11.9319 46.6763 10.9944L49.3546 10.8538C49.4355 11.2501 49.6316 11.5526 49.9426 11.7615C50.2537 11.966 50.6522 12.0683 51.138 12.0683C51.6152 12.0683 51.9988 11.9767 52.2885 11.7934C52.5826 11.6059 52.7317 11.3651 52.736 11.0711C52.7317 10.824 52.6273 10.6215 52.4228 10.4639C52.2182 10.3019 51.9029 10.1784 51.4767 10.0931L49.7765 9.75435C48.8176 9.56259 48.1039 9.2302 47.6351 8.75719C47.1706 8.28418 46.9384 7.6812 46.9384 6.94824C46.9384 6.31756 47.1088 5.77424 47.4497 5.31827C47.7949 4.8623 48.2786 4.51074 48.9007 4.26358C49.5272 4.01642 50.2601 3.89284 51.0996 3.89284C52.3397 3.89284 53.3155 4.15492 54.0272 4.67907C54.7431 5.20321 55.1607 5.91699 55.28 6.8204ZM65.8205 14.0306C64.8148 14.0306 63.9497 13.8176 63.2253 13.3914C62.5051 12.961 61.9512 12.3644 61.5634 11.6017C61.1799 10.8389 60.9881 9.96103 60.9881 8.96813C60.9881 7.96245 61.182 7.08034 61.5698 6.32182C61.9618 5.55904 62.5179 4.96458 63.2381 4.53844C63.9583 4.10804 64.8148 3.89284 65.8077 3.89284C66.6642 3.89284 67.4142 4.04838 68.0577 4.35946C68.7012 4.67054 69.2104 5.10733 69.5854 5.66983C69.9604 6.23233 70.1671 6.89284 70.2054 7.65137H67.6358C67.5634 7.16131 67.3716 6.76713 67.0605 6.46884C66.7537 6.16628 66.351 6.015 65.8524 6.015C65.4306 6.015 65.062 6.13006 64.7466 6.36017C64.4355 6.58603 64.1926 6.91628 64.0179 7.35094C63.8432 7.7856 63.7559 8.31188 63.7559 8.92978C63.7559 9.5562 63.8411 10.0889 64.0115 10.5278C64.1863 10.9667 64.4313 11.3012 64.7466 11.5313C65.062 11.7615 65.4306 11.8765 65.8524 11.8765C66.1635 11.8765 66.4426 11.8126 66.6898 11.6847C66.9412 11.5569 67.1479 11.3715 67.3098 11.1286C67.476 10.8815 67.5847 10.5853 67.6358 10.2401H70.2054C70.1628 10.9901 69.9583 11.6507 69.5918 12.2217C69.2296 12.7884 68.7289 13.2316 68.0897 13.5512C67.4505 13.8708 66.6941 14.0306 65.8205 14.0306ZM74.7486 14.0242C74.1222 14.0242 73.5639 13.9156 73.0739 13.6982C72.5838 13.4767 72.196 13.1507 71.9105 12.7203C71.6293 12.2856 71.4886 11.7444 71.4886 11.0967C71.4886 10.5512 71.5888 10.0931 71.7891 9.72239C71.9893 9.35165 72.2621 9.05336 72.6072 8.8275C72.9524 8.60165 73.3445 8.4312 73.7834 8.31614C74.2266 8.20108 74.691 8.12012 75.1768 8.07324C75.7479 8.01358 76.2081 7.95819 76.5575 7.90705C76.907 7.85165 77.1605 7.77069 77.3182 7.66415C77.4758 7.55762 77.5547 7.39995 77.5547 7.19114V7.15279C77.5547 6.74796 77.4268 6.43475 77.1712 6.21316C76.9197 5.99157 76.5618 5.88077 76.0973 5.88077C75.6072 5.88077 75.2173 5.98944 74.9276 6.20676C74.6378 6.41983 74.446 6.6883 74.3523 7.01216L71.8338 6.80762C71.9616 6.21103 72.2131 5.6954 72.5881 5.26074C72.9631 4.82182 73.4467 4.48517 74.0391 4.2508C74.6357 4.01216 75.326 3.89284 76.1101 3.89284C76.6555 3.89284 77.1776 3.95676 77.6761 4.08461C78.179 4.21245 78.6243 4.4106 79.0121 4.67907C79.4041 4.94753 79.7131 5.2927 79.9389 5.71458C80.1648 6.13219 80.2777 6.6329 80.2777 7.21671V13.8389H77.6953V12.4774H77.6186C77.4609 12.7842 77.25 13.0548 76.9858 13.2892C76.7216 13.5193 76.4041 13.7004 76.0334 13.8325C75.6626 13.9603 75.2344 14.0242 74.7486 14.0242ZM75.5284 12.145C75.929 12.145 76.2827 12.0661 76.5895 11.9085C76.8963 11.7465 77.1371 11.5292 77.3118 11.2565C77.4865 10.9838 77.5739 10.6748 77.5739 10.3296V9.28773C77.4886 9.34313 77.3714 9.39426 77.2223 9.44114C77.0774 9.48375 76.9133 9.52424 76.7301 9.56259C76.5469 9.59668 76.3636 9.62864 76.1804 9.65847C75.9972 9.68404 75.831 9.70748 75.6818 9.72878C75.3622 9.77566 75.0831 9.85023 74.8445 9.9525C74.6058 10.0548 74.4205 10.1933 74.2883 10.368C74.1562 10.5384 74.0902 10.7515 74.0902 11.0072C74.0902 11.3779 74.2244 11.6613 74.4929 11.8573C74.7656 12.0491 75.1108 12.145 75.5284 12.145ZM87.6126 4.02069V6.06614H81.6999V4.02069H87.6126ZM83.0423 1.66841H85.7653V10.8218C85.7653 11.0732 85.8036 11.2693 85.8803 11.4099C85.957 11.5463 86.0636 11.6421 86.1999 11.6975C86.3406 11.7529 86.5025 11.7806 86.6857 11.7806C86.8136 11.7806 86.9414 11.77 87.0692 11.7487C87.1971 11.7231 87.2951 11.7039 87.3633 11.6911L87.7915 13.7174C87.6552 13.76 87.4634 13.809 87.2163 13.8644C86.9691 13.9241 86.6687 13.9603 86.315 13.9731C85.6587 13.9987 85.0834 13.9113 84.5891 13.711C84.0991 13.5107 83.7177 13.1997 83.445 12.7778C83.1722 12.3559 83.038 11.8232 83.0423 11.1798V1.66841ZM92.1861 14.0242C91.5597 14.0242 91.0014 13.9156 90.5114 13.6982C90.0213 13.4767 89.6335 13.1507 89.348 12.7203C89.0668 12.2856 88.9261 11.7444 88.9261 11.0967C88.9261 10.5512 89.0263 10.0931 89.2266 9.72239C89.4268 9.35165 89.6996 9.05336 90.0447 8.8275C90.3899 8.60165 90.782 8.4312 91.2209 8.31614C91.6641 8.20108 92.1285 8.12012 92.6143 8.07324C93.1854 8.01358 93.6456 7.95819 93.995 7.90705C94.3445 7.85165 94.598 7.77069 94.7557 7.66415C94.9133 7.55762 94.9922 7.39995 94.9922 7.19114V7.15279C94.9922 6.74796 94.8643 6.43475 94.6087 6.21316C94.3572 5.99157 93.9993 5.88077 93.5348 5.88077C93.0447 5.88077 92.6548 5.98944 92.3651 6.20676C92.0753 6.41983 91.8835 6.6883 91.7898 7.01216L89.2713 6.80762C89.3991 6.21103 89.6506 5.6954 90.0256 5.26074C90.4006 4.82182 90.8842 4.48517 91.4766 4.2508C92.0732 4.01216 92.7635 3.89284 93.5476 3.89284C94.093 3.89284 94.6151 3.95676 95.1136 4.08461C95.6165 4.21245 96.0618 4.4106 96.4496 4.67907C96.8416 4.94753 97.1506 5.2927 97.3764 5.71458C97.6023 6.13219 97.7152 6.6329 97.7152 7.21671V13.8389H95.1328V12.4774H95.0561C94.8984 12.7842 94.6875 13.0548 94.4233 13.2892C94.1591 13.5193 93.8416 13.7004 93.4709 13.8325C93.1001 13.9603 92.6719 14.0242 92.1861 14.0242ZM92.9659 12.145C93.3665 12.145 93.7202 12.0661 94.027 11.9085C94.3338 11.7465 94.5746 11.5292 94.7493 11.2565C94.924 10.9838 95.0114 10.6748 95.0114 10.3296V9.28773C94.9261 9.34313 94.8089 9.39426 94.6598 9.44114C94.5149 9.48375 94.3508 9.52424 94.1676 9.56259C93.9844 9.59668 93.8011 9.62864 93.6179 9.65847C93.4347 9.68404 93.2685 9.70748 93.1193 9.72878C92.7997 9.77566 92.5206 9.85023 92.282 9.9525C92.0433 10.0548 91.858 10.1933 91.7258 10.368C91.5937 10.5384 91.5277 10.7515 91.5277 11.0072C91.5277 11.3779 91.6619 11.6613 91.9304 11.8573C92.2031 12.0491 92.5483 12.145 92.9659 12.145ZM102.551 0.747958V13.8389H99.8278V0.747958H102.551ZM109.168 14.0306C108.175 14.0306 107.317 13.8197 106.592 13.3978C105.872 12.9717 105.316 12.3794 104.924 11.6208C104.532 10.858 104.336 9.97381 104.336 8.96813C104.336 7.95392 104.532 7.06756 104.924 6.30904C105.316 5.54625 105.872 4.95392 106.592 4.53205C107.317 4.10591 108.175 3.89284 109.168 3.89284C110.161 3.89284 111.018 4.10591 111.738 4.53205C112.462 4.95392 113.02 5.54625 113.412 6.30904C113.805 7.06756 114.001 7.95392 114.001 8.96813C114.001 9.97381 113.805 10.858 113.412 11.6208C113.02 12.3794 112.462 12.9717 111.738 13.3978C111.018 13.8197 110.161 14.0306 109.168 14.0306ZM109.181 11.9213C109.633 11.9213 110.01 11.7934 110.312 11.5377C110.615 11.2778 110.843 10.9241 110.996 10.4767C111.154 10.0292 111.233 9.51997 111.233 8.94895C111.233 8.37793 111.154 7.8687 110.996 7.42125C110.843 6.97381 110.615 6.62012 110.312 6.36017C110.01 6.10023 109.633 5.97026 109.181 5.97026C108.725 5.97026 108.341 6.10023 108.03 6.36017C107.724 6.62012 107.491 6.97381 107.334 7.42125C107.18 7.8687 107.104 8.37793 107.104 8.94895C107.104 9.51997 107.18 10.0292 107.334 10.4767C107.491 10.9241 107.724 11.2778 108.03 11.5377C108.341 11.7934 108.725 11.9213 109.181 11.9213ZM120.194 17.7252C119.312 17.7252 118.556 17.6038 117.925 17.3609C117.299 17.1222 116.8 16.7963 116.43 16.3829C116.059 15.9695 115.818 15.5051 115.707 14.9894L118.226 14.6507C118.302 14.8467 118.424 15.0299 118.59 15.2004C118.756 15.3708 118.976 15.5072 119.248 15.6095C119.525 15.716 119.862 15.7693 120.258 15.7693C120.851 15.7693 121.339 15.6244 121.722 15.3346C122.11 15.0491 122.304 14.5697 122.304 13.8964V12.1002H122.189C122.069 12.373 121.89 12.6308 121.652 12.8737C121.413 13.1166 121.106 13.3147 120.731 13.4681C120.356 13.6215 119.909 13.6982 119.389 13.6982C118.652 13.6982 117.981 13.5278 117.376 13.1869C116.775 12.8417 116.295 12.3154 115.937 11.608C115.584 10.8964 115.407 9.99725 115.407 8.9106C115.407 7.79838 115.588 6.86941 115.95 6.12367C116.312 5.37793 116.794 4.81969 117.395 4.44895C118 4.07821 118.662 3.89284 119.383 3.89284C119.932 3.89284 120.393 3.98659 120.763 4.17409C121.134 4.35733 121.432 4.58745 121.658 4.86444C121.888 5.13716 122.065 5.40563 122.189 5.66983H122.291V4.02069H124.995V13.9347C124.995 14.77 124.79 15.4688 124.381 16.0313C123.972 16.5938 123.405 17.0157 122.681 17.297C121.961 17.5825 121.132 17.7252 120.194 17.7252ZM120.252 11.6528C120.691 11.6528 121.062 11.5441 121.364 11.3268C121.671 11.1052 121.905 10.7899 122.067 10.3808C122.233 9.96742 122.317 9.4731 122.317 8.89782C122.317 8.32253 122.236 7.82395 122.074 7.40208C121.912 6.97594 121.677 6.64569 121.371 6.41131C121.064 6.17694 120.691 6.05975 120.252 6.05975C119.805 6.05975 119.427 6.1812 119.121 6.42409C118.814 6.66273 118.581 6.99512 118.424 7.42125C118.266 7.84739 118.187 8.33958 118.187 8.89782C118.187 9.46458 118.266 9.95463 118.424 10.368C118.586 10.7771 118.818 11.0945 119.121 11.3204C119.427 11.542 119.805 11.6528 120.252 11.6528ZM129.961 14.0242C129.335 14.0242 128.777 13.9156 128.287 13.6982C127.797 13.4767 127.409 13.1507 127.123 12.7203C126.842 12.2856 126.702 11.7444 126.702 11.0967C126.702 10.5512 126.802 10.0931 127.002 9.72239C127.202 9.35165 127.475 9.05336 127.82 8.8275C128.165 8.60165 128.557 8.4312 128.996 8.31614C129.439 8.20108 129.904 8.12012 130.39 8.07324C130.961 8.01358 131.421 7.95819 131.77 7.90705C132.12 7.85165 132.373 7.77069 132.531 7.66415C132.689 7.55762 132.768 7.39995 132.768 7.19114V7.15279C132.768 6.74796 132.64 6.43475 132.384 6.21316C132.133 5.99157 131.775 5.88077 131.31 5.88077C130.82 5.88077 130.43 5.98944 130.14 6.20676C129.851 6.41983 129.659 6.6883 129.565 7.01216L127.047 6.80762C127.175 6.21103 127.426 5.6954 127.801 5.26074C128.176 4.82182 128.66 4.48517 129.252 4.2508C129.849 4.01216 130.539 3.89284 131.323 3.89284C131.868 3.89284 132.39 3.95676 132.889 4.08461C133.392 4.21245 133.837 4.4106 134.225 4.67907C134.617 4.94753 134.926 5.2927 135.152 5.71458C135.378 6.13219 135.491 6.6329 135.491 7.21671V13.8389H132.908V12.4774H132.831C132.674 12.7842 132.463 13.0548 132.199 13.2892C131.934 13.5193 131.617 13.7004 131.246 13.8325C130.876 13.9603 130.447 14.0242 129.961 14.0242ZM130.741 12.145C131.142 12.145 131.496 12.0661 131.802 11.9085C132.109 11.7465 132.35 11.5292 132.525 11.2565C132.699 10.9838 132.787 10.6748 132.787 10.3296V9.28773C132.702 9.34313 132.584 9.39426 132.435 9.44114C132.29 9.48375 132.126 9.52424 131.943 9.56259C131.76 9.59668 131.577 9.62864 131.393 9.65847C131.21 9.68404 131.044 9.70748 130.895 9.72878C130.575 9.77566 130.296 9.85023 130.057 9.9525C129.819 10.0548 129.633 10.1933 129.501 10.368C129.369 10.5384 129.303 10.7515 129.303 11.0072C129.303 11.3779 129.437 11.6613 129.706 11.8573C129.979 12.0491 130.324 12.145 130.741 12.145ZM141.221 13.9987C140.475 13.9987 139.8 13.8069 139.195 13.4234C138.594 13.0356 138.117 12.4667 137.763 11.7167C137.414 10.9624 137.239 10.0377 137.239 8.94256C137.239 7.81756 137.42 6.88219 137.782 6.13645C138.144 5.38645 138.626 4.82608 139.227 4.45534C139.832 4.08034 140.494 3.89284 141.215 3.89284C141.764 3.89284 142.222 3.98659 142.589 4.17409C142.96 4.35733 143.258 4.58745 143.484 4.86444C143.714 5.13716 143.889 5.40563 144.008 5.66983H144.091V0.747958H146.808V13.8389H144.123V12.2664H144.008C143.88 12.5392 143.699 12.8097 143.465 13.0782C143.235 13.3424 142.934 13.5619 142.563 13.7366C142.197 13.9113 141.749 13.9987 141.221 13.9987ZM142.084 11.8318C142.523 11.8318 142.894 11.7124 143.196 11.4738C143.503 11.2309 143.737 10.8921 143.899 10.4575C144.066 10.0228 144.149 9.51358 144.149 8.92978C144.149 8.34597 144.068 7.83887 143.906 7.40847C143.744 6.97807 143.509 6.64569 143.203 6.41131C142.896 6.17694 142.523 6.05975 142.084 6.05975C141.637 6.05975 141.259 6.1812 140.953 6.42409C140.646 6.66699 140.414 7.00364 140.256 7.43404C140.098 7.86444 140.019 8.36301 140.019 8.92978C140.019 9.5008 140.098 10.0058 140.256 10.4447C140.418 10.8794 140.65 11.2203 140.953 11.4674C141.259 11.7103 141.637 11.8318 142.084 11.8318ZM153.483 14.0306C152.49 14.0306 151.631 13.8197 150.907 13.3978C150.186 12.9717 149.63 12.3794 149.238 11.6208C148.846 10.858 148.65 9.97381 148.65 8.96813C148.65 7.95392 148.846 7.06756 149.238 6.30904C149.63 5.54625 150.186 4.95392 150.907 4.53205C151.631 4.10591 152.49 3.89284 153.483 3.89284C154.475 3.89284 155.332 4.10591 156.052 4.53205C156.777 4.95392 157.335 5.54625 157.727 6.30904C158.119 7.06756 158.315 7.95392 158.315 8.96813C158.315 9.97381 158.119 10.858 157.727 11.6208C157.335 12.3794 156.777 12.9717 156.052 13.3978C155.332 13.8197 154.475 14.0306 153.483 14.0306ZM153.495 11.9213C153.947 11.9213 154.324 11.7934 154.627 11.5377C154.929 11.2778 155.157 10.9241 155.311 10.4767C155.468 10.0292 155.547 9.51997 155.547 8.94895C155.547 8.37793 155.468 7.8687 155.311 7.42125C155.157 6.97381 154.929 6.62012 154.627 6.36017C154.324 6.10023 153.947 5.97026 153.495 5.97026C153.039 5.97026 152.656 6.10023 152.345 6.36017C152.038 6.62012 151.806 6.97381 151.648 7.42125C151.495 7.8687 151.418 8.37793 151.418 8.94895C151.418 9.51997 151.495 10.0292 151.648 10.4767C151.806 10.9241 152.038 11.2778 152.345 11.5377C152.656 11.7934 153.039 11.9213 153.495 11.9213ZM168.255 6.8204L165.762 6.97381C165.719 6.76074 165.627 6.56898 165.487 6.39853C165.346 6.22381 165.161 6.08532 164.931 5.98304C164.705 5.87651 164.434 5.82324 164.119 5.82324C163.697 5.82324 163.341 5.91273 163.051 6.09171C162.762 6.26642 162.617 6.5008 162.617 6.79483C162.617 7.02921 162.711 7.22736 162.898 7.38929C163.086 7.55123 163.407 7.6812 163.863 7.77921L165.64 8.13716C166.595 8.33319 167.306 8.64853 167.775 9.08319C168.244 9.51784 168.478 10.0889 168.478 10.7963C168.478 11.4397 168.289 12.0044 167.909 12.4901C167.534 12.9759 167.019 13.3552 166.363 13.6279C165.711 13.8964 164.958 14.0306 164.106 14.0306C162.806 14.0306 161.771 13.76 161 13.2188C160.233 12.6734 159.783 11.9319 159.651 10.9944L162.329 10.8538C162.41 11.2501 162.606 11.5526 162.917 11.7615C163.228 11.966 163.627 12.0683 164.113 12.0683C164.59 12.0683 164.973 11.9767 165.263 11.7934C165.557 11.6059 165.706 11.3651 165.711 11.0711C165.706 10.824 165.602 10.6215 165.397 10.4639C165.193 10.3019 164.877 10.1784 164.451 10.0931L162.751 9.75435C161.792 9.56259 161.078 9.2302 160.61 8.75719C160.145 8.28418 159.913 7.6812 159.913 6.94824C159.913 6.31756 160.083 5.77424 160.424 5.31827C160.77 4.8623 161.253 4.51074 161.875 4.26358C162.502 4.01642 163.235 3.89284 164.074 3.89284C165.314 3.89284 166.29 4.15492 167.002 4.67907C167.718 5.20321 168.135 5.91699 168.255 6.8204Z" fill="white"/>
</svg>
