<svg width="40" height="15" viewBox="0 0 40 15" fill="none" xmlns="http://www.w3.org/2000/svg">
<path d="M-2.76566e-05 0H1.68179L5.63634 9.65909H5.7727L9.72725 0H11.4091V11.6364H10.0909V2.79545H9.97725L6.34088 11.6364H5.06815L1.43179 2.79545H1.31815V11.6364H-2.76566e-05V0ZM16.6207 11.8409C16.0677 11.8409 15.5658 11.7367 15.115 11.5284C14.6643 11.3163 14.3063 11.0114 14.0412 10.6136C13.776 10.2121 13.6434 9.72727 13.6434 9.15909C13.6434 8.65909 13.7419 8.25379 13.9389 7.94318C14.1359 7.62879 14.3991 7.38258 14.7287 7.20455C15.0582 7.02652 15.4218 6.89394 15.8196 6.80682C16.2211 6.71591 16.6245 6.64394 17.0298 6.59091C17.5601 6.52273 17.99 6.47159 18.3196 6.4375C18.6529 6.39962 18.8953 6.33712 19.0468 6.25C19.2022 6.16288 19.2798 6.01136 19.2798 5.79545V5.75C19.2798 5.18939 19.1264 4.75379 18.8196 4.44318C18.5165 4.13258 18.0563 3.97727 17.4389 3.97727C16.7987 3.97727 16.2968 4.11742 15.9332 4.39773C15.5696 4.67803 15.3139 4.97727 15.1662 5.29545L13.8934 4.84091C14.1207 4.31061 14.4237 3.89773 14.8025 3.60227C15.1851 3.30303 15.6018 3.0947 16.0525 2.97727C16.5071 2.85606 16.954 2.79545 17.3934 2.79545C17.6737 2.79545 17.9957 2.82955 18.3593 2.89773C18.7268 2.96212 19.0809 3.09659 19.4218 3.30114C19.7665 3.50568 20.0525 3.81439 20.2798 4.22727C20.5071 4.64015 20.6207 5.19318 20.6207 5.88636V11.6364H19.2798V10.4545H19.2116C19.1207 10.6439 18.9692 10.8466 18.7571 11.0625C18.545 11.2784 18.2628 11.4621 17.9105 11.6136C17.5582 11.7652 17.1283 11.8409 16.6207 11.8409ZM16.8253 10.6364C17.3556 10.6364 17.8025 10.5322 18.1662 10.3239C18.5336 10.1155 18.8101 9.84659 18.9957 9.51705C19.1851 9.1875 19.2798 8.84091 19.2798 8.47727V7.25C19.223 7.31818 19.098 7.38068 18.9048 7.4375C18.7154 7.49053 18.4957 7.53788 18.2457 7.57955C17.9995 7.61742 17.759 7.65152 17.5241 7.68182C17.2931 7.70833 17.1056 7.73106 16.9616 7.75C16.6131 7.79545 16.2874 7.86932 15.9843 7.97159C15.6851 8.07008 15.4427 8.2197 15.2571 8.42045C15.0753 8.61742 14.9843 8.88636 14.9843 9.22727C14.9843 9.69318 15.1567 10.0455 15.5014 10.2841C15.8499 10.5189 16.2912 10.6364 16.8253 10.6364ZM23.0682 14.9091V2.90909H24.3636V4.29545H24.5227C24.6212 4.14394 24.7575 3.95076 24.9318 3.71591C25.1098 3.47727 25.3636 3.26515 25.6932 3.07955C26.0265 2.89015 26.4772 2.79545 27.0454 2.79545C27.7803 2.79545 28.428 2.97917 28.9886 3.34659C29.5492 3.71402 29.9867 4.23485 30.3011 4.90909C30.6155 5.58333 30.7727 6.37879 30.7727 7.29545C30.7727 8.2197 30.6155 9.02083 30.3011 9.69886C29.9867 10.3731 29.5511 10.8958 28.9943 11.267C28.4375 11.6345 27.7954 11.8182 27.0682 11.8182C26.5075 11.8182 26.0587 11.7254 25.7216 11.5398C25.3844 11.3504 25.125 11.1364 24.9432 10.8977C24.7613 10.6553 24.6212 10.4545 24.5227 10.2955H24.4091V14.9091H23.0682ZM24.3863 7.27273C24.3863 7.93182 24.4829 8.51326 24.6761 9.01705C24.8693 9.51705 25.1515 9.90909 25.5227 10.1932C25.8939 10.4735 26.3485 10.6136 26.8863 10.6136C27.4469 10.6136 27.9147 10.4659 28.2897 10.1705C28.6685 9.87121 28.9526 9.4697 29.142 8.96591C29.3352 8.45833 29.4318 7.89394 29.4318 7.27273C29.4318 6.65909 29.3371 6.10606 29.1477 5.61364C28.9621 5.11742 28.6799 4.72538 28.3011 4.4375C27.9261 4.14583 27.4545 4 26.8863 4C26.3409 4 25.8825 4.13826 25.5113 4.41477C25.1401 4.6875 24.8598 5.07008 24.6704 5.5625C24.481 6.05114 24.3863 6.62121 24.3863 7.27273ZM35.3863 11.8409C34.8333 11.8409 34.3314 11.7367 33.8807 11.5284C33.4299 11.3163 33.0719 11.0114 32.8068 10.6136C32.5416 10.2121 32.4091 9.72727 32.4091 9.15909C32.4091 8.65909 32.5075 8.25379 32.7045 7.94318C32.9015 7.62879 33.1647 7.38258 33.4943 7.20455C33.8238 7.02652 34.1875 6.89394 34.5852 6.80682C34.9867 6.71591 35.3901 6.64394 35.7954 6.59091C36.3257 6.52273 36.7557 6.47159 37.0852 6.4375C37.4185 6.39962 37.661 6.33712 37.8125 6.25C37.9678 6.16288 38.0454 6.01136 38.0454 5.79545V5.75C38.0454 5.18939 37.892 4.75379 37.5852 4.44318C37.2822 4.13258 36.8219 3.97727 36.2045 3.97727C35.5644 3.97727 35.0625 4.11742 34.6988 4.39773C34.3352 4.67803 34.0795 4.97727 33.9318 5.29545L32.6591 4.84091C32.8863 4.31061 33.1894 3.89773 33.5682 3.60227C33.9507 3.30303 34.3674 3.0947 34.8182 2.97727C35.2727 2.85606 35.7197 2.79545 36.1591 2.79545C36.4394 2.79545 36.7613 2.82955 37.125 2.89773C37.4924 2.96212 37.8466 3.09659 38.1875 3.30114C38.5322 3.50568 38.8182 3.81439 39.0454 4.22727C39.2727 4.64015 39.3863 5.19318 39.3863 5.88636V11.6364H38.0454V10.4545H37.9772C37.8863 10.6439 37.7348 10.8466 37.5227 11.0625C37.3106 11.2784 37.0284 11.4621 36.6761 11.6136C36.3238 11.7652 35.8939 11.8409 35.3863 11.8409ZM35.5909 10.6364C36.1212 10.6364 36.5682 10.5322 36.9318 10.3239C37.2992 10.1155 37.5757 9.84659 37.7613 9.51705C37.9507 9.1875 38.0454 8.84091 38.0454 8.47727V7.25C37.9886 7.31818 37.8636 7.38068 37.6704 7.4375C37.481 7.49053 37.2613 7.53788 37.0113 7.57955C36.7651 7.61742 36.5246 7.65152 36.2897 7.68182C36.0587 7.70833 35.8712 7.73106 35.7272 7.75C35.3788 7.79545 35.053 7.86932 34.75 7.97159C34.4507 8.07008 34.2083 8.2197 34.0227 8.42045C33.8409 8.61742 33.75 8.88636 33.75 9.22727C33.75 9.69318 33.9223 10.0455 34.267 10.2841C34.6155 10.5189 35.0568 10.6364 35.5909 10.6364Z" fill="black"/>
</svg>
