<svg width="45" height="13" viewBox="0 0 45 13" fill="none" xmlns="http://www.w3.org/2000/svg">
<path d="M-2.76566e-05 0.909046H1.68179L5.63634 10.5681H5.7727L9.72725 0.909046H11.4091V12.5454H10.0909V3.7045H9.97725L6.34088 12.5454H5.06815L1.43179 3.7045H1.31815V12.5454H-2.76566e-05V0.909046ZM17.7116 12.7272C16.8707 12.7272 16.1453 12.5416 15.5355 12.1704C14.9294 11.7954 14.4616 11.2727 14.1321 10.6022C13.8063 9.92799 13.6434 9.14389 13.6434 8.24996C13.6434 7.35602 13.8063 6.56814 14.1321 5.88632C14.4616 5.20071 14.92 4.66662 15.5071 4.28405C16.098 3.89768 16.7874 3.7045 17.5753 3.7045C18.0298 3.7045 18.4787 3.78026 18.9218 3.93177C19.365 4.08329 19.7684 4.3295 20.1321 4.67041C20.4957 5.00753 20.7855 5.4545 21.0014 6.01132C21.2173 6.56814 21.3253 7.25374 21.3253 8.06814V8.63632H14.598V7.47723H19.9616C19.9616 6.9848 19.8631 6.54541 19.6662 6.15905C19.473 5.77268 19.1965 5.46776 18.8366 5.24427C18.4806 5.02079 18.0601 4.90905 17.5753 4.90905C17.0412 4.90905 16.579 5.04162 16.1889 5.30677C15.8025 5.56814 15.5052 5.90905 15.2968 6.3295C15.0885 6.74996 14.9843 7.20071 14.9843 7.68177V8.4545C14.9843 9.11359 15.098 9.6723 15.3253 10.1306C15.5563 10.5852 15.8764 10.9318 16.2855 11.1704C16.6946 11.4053 17.17 11.5227 17.7116 11.5227C18.0639 11.5227 18.3821 11.4734 18.6662 11.375C18.954 11.2727 19.2022 11.1212 19.4105 10.9204C19.6188 10.7159 19.7798 10.4621 19.8934 10.159L21.1889 10.5227C21.0525 10.9621 20.8234 11.3484 20.5014 11.6818C20.1794 12.0113 19.7817 12.2689 19.3082 12.4545C18.8347 12.6363 18.3025 12.7272 17.7116 12.7272ZM16.8934 2.63632L18.2798 -4.48227e-05H19.848L18.0753 2.63632H16.8934ZM26.6605 12.7272C25.9332 12.7272 25.2912 12.5435 24.7343 12.1761C24.1775 11.8049 23.7419 11.2822 23.4275 10.6079C23.1131 9.92988 22.9559 9.12874 22.9559 8.2045C22.9559 7.28783 23.1131 6.49238 23.4275 5.81814C23.7419 5.14389 24.1794 4.62306 24.74 4.25564C25.3006 3.88821 25.9484 3.7045 26.6832 3.7045C27.2514 3.7045 27.7003 3.7992 28.0298 3.98859C28.3631 4.1742 28.6169 4.38632 28.7912 4.62496C28.9692 4.8598 29.1075 5.05299 29.2059 5.2045H29.3196V0.909046H30.6605V12.5454H29.365V11.2045H29.2059C29.1075 11.3636 28.9673 11.5643 28.7855 11.8068C28.6037 12.0454 28.3442 12.2594 28.0071 12.4488C27.67 12.6344 27.2211 12.7272 26.6605 12.7272ZM26.8423 11.5227C27.3802 11.5227 27.8347 11.3825 28.2059 11.1022C28.5772 10.8181 28.8593 10.4261 29.0525 9.92609C29.2457 9.4223 29.3423 8.84086 29.3423 8.18177C29.3423 7.53026 29.2476 6.96018 29.0582 6.47155C28.8688 5.97912 28.5885 5.59655 28.2173 5.32382C27.8461 5.0473 27.3878 4.90905 26.8423 4.90905C26.2741 4.90905 25.8006 5.05488 25.4218 5.34655C25.0468 5.63443 24.7647 6.02647 24.5753 6.52268C24.3897 7.01511 24.2968 7.56814 24.2968 8.18177C24.2968 8.80299 24.3915 9.36738 24.5809 9.87496C24.7741 10.3787 25.0582 10.7803 25.4332 11.0795C25.812 11.375 26.2817 11.5227 26.8423 11.5227ZM33.3025 12.5454V3.81814H34.6434V12.5454H33.3025ZM33.9843 2.36359C33.723 2.36359 33.4976 2.27458 33.3082 2.09655C33.1226 1.91852 33.0298 1.7045 33.0298 1.4545C33.0298 1.2045 33.1226 0.990486 33.3082 0.812455C33.4976 0.634425 33.723 0.54541 33.9843 0.54541C34.2457 0.54541 34.4692 0.634425 34.6548 0.812455C34.8442 0.990486 34.9389 1.2045 34.9389 1.4545C34.9389 1.7045 34.8442 1.91852 34.6548 2.09655C34.4692 2.27458 34.2457 2.36359 33.9843 2.36359ZM40.6449 12.7272C39.857 12.7272 39.1657 12.5397 38.571 12.1647C37.9801 11.7897 37.518 11.2651 37.1846 10.5909C36.8551 9.91662 36.6903 9.12874 36.6903 8.22723C36.6903 7.31814 36.8551 6.52458 37.1846 5.84655C37.518 5.16852 37.9801 4.642 38.571 4.267C39.1657 3.892 39.857 3.7045 40.6449 3.7045C41.4327 3.7045 42.1221 3.892 42.713 4.267C43.3077 4.642 43.7699 5.16852 44.0994 5.84655C44.4327 6.52458 44.5994 7.31814 44.5994 8.22723C44.5994 9.12874 44.4327 9.91662 44.0994 10.5909C43.7699 11.2651 43.3077 11.7897 42.713 12.1647C42.1221 12.5397 41.4327 12.7272 40.6449 12.7272ZM40.6449 11.5227C41.2433 11.5227 41.7358 11.3693 42.1221 11.0625C42.5085 10.7556 42.7945 10.3522 42.9801 9.85223C43.1657 9.35223 43.2585 8.81056 43.2585 8.22723C43.2585 7.64389 43.1657 7.10033 42.9801 6.59655C42.7945 6.09276 42.5085 5.68556 42.1221 5.37496C41.7358 5.06435 41.2433 4.90905 40.6449 4.90905C40.0464 4.90905 39.5539 5.06435 39.1676 5.37496C38.7812 5.68556 38.4952 6.09276 38.3096 6.59655C38.124 7.10033 38.0312 7.64389 38.0312 8.22723C38.0312 8.81056 38.124 9.35223 38.3096 9.85223C38.4952 10.3522 38.7812 10.7556 39.1676 11.0625C39.5539 11.3693 40.0464 11.5227 40.6449 11.5227Z" fill="black"/>
</svg>
