<svg width="655" height="97" viewBox="0 0 655 97" fill="none" xmlns="http://www.w3.org/2000/svg">
<path d="M26.235 37.26C24.675 37.26 23.55 37.05 22.86 36.63C22.2 36.21 21.585 35.58 21.015 34.74L8.415 15.615V31.86C8.415 32.7 8.7 33.3 9.27 33.66C9.87 33.99 10.68 34.155 11.7 34.155C11.7 35.205 11.355 36.15 10.665 36.99H1.305C0.644996 36.18 0.314996 35.235 0.314996 34.155C1.335 34.155 2.1 33.99 2.61 33.66C3.15 33.3 3.42 32.7 3.42 31.86V10.71C3.42 9.86999 3.12 9.28499 2.52 8.95499C1.95 8.59499 1.155 8.41499 0.134996 8.41499C0.134996 7.27499 0.464996 6.32999 1.125 5.57999H7.38C8.25 5.57999 9.12 5.92499 9.99 6.61499C10.89 7.27499 11.715 8.20499 12.465 9.40499L22.68 25.56V10.71C22.68 9.86999 22.395 9.28499 21.825 8.95499C21.285 8.59499 20.505 8.41499 19.485 8.41499C19.485 7.90499 19.575 7.39499 19.755 6.88499C19.935 6.37499 20.19 5.93999 20.52 5.57999H30.105C30.795 6.35999 31.14 7.30499 31.14 8.41499C30.15 8.41499 29.385 8.59499 28.845 8.95499C28.305 9.28499 28.035 9.86999 28.035 10.71V37.26H26.235ZM40.4135 37.305C38.3135 37.305 36.6785 36.66 35.5085 35.37C34.3385 34.08 33.7535 32.34 33.7535 30.15V17.775C33.7535 17.265 33.5585 16.905 33.1685 16.695C32.7785 16.485 32.2385 16.38 31.5485 16.38V14.4C31.9385 14.07 32.7485 13.725 33.9785 13.365C35.2385 12.975 36.6485 12.78 38.2085 12.78C39.3785 12.78 40.1435 12.915 40.5035 13.185C40.8935 13.455 41.0885 14.115 41.0885 15.165V30.285C41.0885 31.185 41.2385 31.875 41.5385 32.355C41.8385 32.835 42.3635 33.075 43.1135 33.075C43.7435 33.075 44.3435 32.88 44.9135 32.49C45.5135 32.1 46.0085 31.65 46.3985 31.14V17.775C46.3985 17.265 46.1735 16.905 45.7235 16.695C45.2735 16.485 44.6585 16.38 43.8785 16.38V14.4C44.2985 14.07 45.1235 13.725 46.3535 13.365C47.5835 12.975 49.0385 12.78 50.7185 12.78C51.8885 12.78 52.6835 12.915 53.1035 13.185C53.5235 13.455 53.7335 14.115 53.7335 15.165V31.725C53.7335 32.445 53.9135 33.045 54.2735 33.525C54.6635 34.005 55.2035 34.275 55.8935 34.335V35.595C55.4135 36.165 54.6485 36.6 53.5985 36.9C52.5785 37.17 51.5885 37.305 50.6285 37.305C49.6385 37.305 48.7685 37.05 48.0185 36.54C47.2985 36 46.8185 35.235 46.5785 34.245C45.1085 36.285 43.0535 37.305 40.4135 37.305ZM58.9205 36.99C58.5905 36.66 58.3205 36.3 58.1105 35.91C57.9305 35.52 57.8405 35.085 57.8405 34.605C58.7405 34.605 59.3855 34.41 59.7755 34.02C60.1655 33.63 60.3605 33 60.3605 32.13V18.99C60.3605 18.21 60.1355 17.64 59.6855 17.28C59.2655 16.92 58.4855 16.74 57.3455 16.74V14.715C58.0355 14.325 58.9055 13.965 59.9555 13.635C61.0355 13.305 62.0705 13.05 63.0605 12.87C64.0805 12.66 64.8605 12.555 65.4005 12.555C66.0305 12.555 66.5405 12.75 66.9305 13.14C67.3505 13.53 67.5905 14.37 67.6505 15.66C68.4005 14.73 69.3455 13.98 70.4855 13.41C71.6555 12.84 73.0055 12.555 74.5355 12.555C76.6355 12.555 78.2105 13.095 79.2605 14.175C80.3405 15.225 80.8805 17.025 80.8805 19.575V31.86C80.8805 33.33 81.6005 34.2 83.0405 34.47L83.0855 35.775C82.7855 36.075 82.3055 36.345 81.6455 36.585C80.9855 36.795 80.2655 36.96 79.4855 37.08C78.7355 37.2 78.0305 37.26 77.3705 37.26C76.0805 37.26 75.1205 37.02 74.4905 36.54C73.8905 36.06 73.5905 35.295 73.5905 34.245V20.205C73.5905 18.975 73.3205 18.12 72.7805 17.64C72.2405 17.16 71.5805 16.92 70.8005 16.92C69.5705 16.92 68.5355 17.415 67.6955 18.405V32.13C67.6955 33 67.8755 33.63 68.2355 34.02C68.6255 34.41 69.2705 34.605 70.1705 34.605C70.1705 35.505 69.8255 36.3 69.1355 36.99H58.9205ZM96.1995 37.665C94.0095 37.665 92.0744 37.17 90.3944 36.18C88.7444 35.19 87.4394 33.78 86.4794 31.95C85.5494 30.09 85.0844 27.87 85.0844 25.29C85.0844 22.62 85.5944 20.34 86.6144 18.45C87.6344 16.53 89.0294 15.075 90.7994 14.085C92.5694 13.065 94.5644 12.555 96.7844 12.555C99.0945 12.555 100.849 13.11 102.049 14.22C103.249 15.3 103.849 16.635 103.849 18.225C103.849 19.665 103.489 20.775 102.769 21.555C102.049 22.335 101.119 22.725 99.9795 22.725C99.0495 22.725 98.2695 22.38 97.6395 21.69C97.0094 21 96.6944 20.16 96.6944 19.17C96.6944 18.45 96.8144 17.865 97.0545 17.415C97.3245 16.965 97.6545 16.59 98.0444 16.29C97.7444 16.11 97.4894 16.005 97.2794 15.975C97.0994 15.915 96.9194 15.885 96.7395 15.885C96.1695 15.885 95.5845 16.11 94.9845 16.56C94.3845 17.01 93.8745 17.805 93.4544 18.945C93.0644 20.085 92.8694 21.675 92.8694 23.715C92.8694 27.015 93.3494 29.34 94.3095 30.69C95.2694 32.01 96.6194 32.67 98.3594 32.67C99.1694 32.67 99.9795 32.55 100.789 32.31C101.629 32.07 102.334 31.725 102.904 31.275C103.144 31.575 103.339 31.95 103.489 32.4C103.669 32.82 103.759 33.195 103.759 33.525C103.759 34.155 103.414 34.8 102.724 35.46C102.064 36.09 101.164 36.615 100.024 37.035C98.8845 37.455 97.6095 37.665 96.1995 37.665ZM113.247 37.305C110.997 37.305 109.167 36.69 107.757 35.46C106.377 34.2 105.687 32.595 105.687 30.645C105.687 28.695 106.317 27.12 107.577 25.92C108.867 24.72 110.847 24.12 113.517 24.12C114.387 24.12 115.302 24.21 116.262 24.39C117.222 24.54 118.002 24.78 118.602 25.11V19.125C118.602 17.865 118.272 16.995 117.612 16.515C116.982 16.005 116.202 15.75 115.272 15.75C114.282 15.75 113.472 15.99 112.842 16.47C113.442 16.68 113.877 17.01 114.147 17.46C114.417 17.88 114.552 18.345 114.552 18.855C114.552 19.845 114.192 20.64 113.472 21.24C112.782 21.81 111.927 22.095 110.907 22.095C109.767 22.095 108.852 21.765 108.162 21.105C107.472 20.415 107.127 19.56 107.127 18.54C107.127 17.52 107.472 16.56 108.162 15.66C108.852 14.73 109.917 13.965 111.357 13.365C112.827 12.765 114.717 12.465 117.027 12.465C123.057 12.465 126.072 14.85 126.072 19.62V31.545C126.072 32.985 126.762 33.855 128.142 34.155V35.595C127.752 36.165 127.092 36.6 126.162 36.9C125.232 37.17 124.332 37.305 123.462 37.305C121.422 37.305 119.982 36.6 119.142 35.19C118.542 35.73 117.747 36.225 116.757 36.675C115.767 37.095 114.597 37.305 113.247 37.305ZM116.172 33.66C116.592 33.66 117.027 33.6 117.477 33.48C117.927 33.33 118.302 33.15 118.602 32.94V28.575C118.302 28.365 117.912 28.185 117.432 28.035C116.982 27.885 116.532 27.81 116.082 27.81C115.302 27.81 114.627 28.065 114.057 28.575C113.487 29.055 113.202 29.82 113.202 30.87C113.202 31.68 113.472 32.355 114.012 32.895C114.552 33.405 115.272 33.66 116.172 33.66ZM171.817 37.26C170.707 37.26 169.747 37.11 168.937 36.81C168.157 36.48 167.767 35.85 167.767 34.92V19.935C167.767 18.975 167.497 18.24 166.957 17.73C166.447 17.19 165.757 16.92 164.887 16.92C164.407 16.92 163.912 17.01 163.402 17.19C162.922 17.37 162.487 17.64 162.097 18C162.127 18.12 162.142 18.24 162.142 18.36C162.142 18.45 162.142 18.555 162.142 18.675V32.13C162.142 33 162.322 33.63 162.682 34.02C163.042 34.38 163.612 34.56 164.392 34.56C164.392 35.04 164.287 35.49 164.077 35.91C163.897 36.3 163.642 36.66 163.312 36.99H153.727C153.427 36.66 153.172 36.3 152.962 35.91C152.782 35.49 152.692 35.04 152.692 34.56C153.472 34.56 154.012 34.38 154.312 34.02C154.642 33.63 154.807 33 154.807 32.13V19.935C154.807 18.975 154.522 18.24 153.952 17.73C153.412 17.19 152.752 16.92 151.972 16.92C151.402 16.92 150.817 17.055 150.217 17.325C149.617 17.595 149.107 17.985 148.687 18.495V32.13C148.687 33 148.837 33.63 149.137 34.02C149.467 34.38 150.007 34.56 150.757 34.56C150.757 35.49 150.397 36.3 149.677 36.99H139.912C139.582 36.66 139.312 36.3 139.102 35.91C138.922 35.49 138.832 35.04 138.832 34.56C139.732 34.56 140.377 34.38 140.767 34.02C141.157 33.63 141.352 33 141.352 32.13V18.945C141.352 18.165 141.127 17.595 140.677 17.235C140.257 16.875 139.477 16.695 138.337 16.695V14.715C139.027 14.295 139.897 13.92 140.947 13.59C142.027 13.26 143.062 13.005 144.052 12.825C145.072 12.615 145.852 12.51 146.392 12.51C146.992 12.51 147.487 12.705 147.877 13.095C148.297 13.455 148.567 14.22 148.687 15.39C149.467 14.52 150.442 13.83 151.612 13.32C152.812 12.78 154.162 12.51 155.662 12.51C158.662 12.51 160.612 13.515 161.512 15.525C162.292 14.565 163.297 13.83 164.527 13.32C165.787 12.78 167.182 12.51 168.712 12.51C170.872 12.51 172.477 13.035 173.527 14.085C174.607 15.135 175.147 16.665 175.147 18.675V32.13C175.147 32.82 175.342 33.345 175.732 33.705C176.122 34.065 176.662 34.32 177.352 34.47V35.775C176.812 36.255 176.107 36.63 175.237 36.9C174.367 37.14 173.227 37.26 171.817 37.26ZM186.68 37.305C184.43 37.305 182.6 36.69 181.19 35.46C179.81 34.2 179.12 32.595 179.12 30.645C179.12 28.695 179.75 27.12 181.01 25.92C182.3 24.72 184.28 24.12 186.95 24.12C187.82 24.12 188.735 24.21 189.695 24.39C190.655 24.54 191.435 24.78 192.035 25.11V19.125C192.035 17.865 191.705 16.995 191.045 16.515C190.415 16.005 189.635 15.75 188.705 15.75C187.715 15.75 186.905 15.99 186.275 16.47C186.875 16.68 187.31 17.01 187.58 17.46C187.85 17.88 187.985 18.345 187.985 18.855C187.985 19.845 187.625 20.64 186.905 21.24C186.215 21.81 185.36 22.095 184.34 22.095C183.2 22.095 182.285 21.765 181.595 21.105C180.905 20.415 180.56 19.56 180.56 18.54C180.56 17.52 180.905 16.56 181.595 15.66C182.285 14.73 183.35 13.965 184.79 13.365C186.26 12.765 188.15 12.465 190.46 12.465C196.49 12.465 199.505 14.85 199.505 19.62V31.545C199.505 32.985 200.195 33.855 201.575 34.155V35.595C201.185 36.165 200.525 36.6 199.595 36.9C198.665 37.17 197.765 37.305 196.895 37.305C194.855 37.305 193.415 36.6 192.575 35.19C191.975 35.73 191.18 36.225 190.19 36.675C189.2 37.095 188.03 37.305 186.68 37.305ZM189.605 33.66C190.025 33.66 190.46 33.6 190.91 33.48C191.36 33.33 191.735 33.15 192.035 32.94V28.575C191.735 28.365 191.345 28.185 190.865 28.035C190.415 27.885 189.965 27.81 189.515 27.81C188.735 27.81 188.06 28.065 187.49 28.575C186.92 29.055 186.635 29.82 186.635 30.87C186.635 31.68 186.905 32.355 187.445 32.895C187.985 33.405 188.705 33.66 189.605 33.66ZM209.455 9.40499C208.165 9.40499 207.13 9.02999 206.35 8.27999C205.6 7.49999 205.225 6.46499 205.225 5.17499C205.225 3.91499 205.615 2.89499 206.395 2.11499C207.205 1.33499 208.255 0.944988 209.545 0.944988C210.865 0.944988 211.9 1.33499 212.65 2.11499C213.43 2.89499 213.82 3.91499 213.82 5.17499C213.82 6.46499 213.415 7.49999 212.605 8.27999C211.825 9.02999 210.775 9.40499 209.455 9.40499ZM204.415 36.99C204.085 36.66 203.83 36.3 203.65 35.91C203.47 35.52 203.38 35.07 203.38 34.56C204.25 34.56 204.895 34.38 205.315 34.02C205.735 33.63 205.945 32.985 205.945 32.085V19.035C205.945 18.255 205.75 17.67 205.36 17.28C205 16.89 204.205 16.695 202.975 16.695V14.715C203.425 14.445 204.115 14.145 205.045 13.815C205.975 13.455 206.98 13.155 208.06 12.915C209.17 12.675 210.16 12.555 211.03 12.555C211.72 12.555 212.215 12.72 212.515 13.05C212.815 13.35 212.965 13.875 212.965 14.625V32.13C212.965 33.03 213.19 33.66 213.64 34.02C214.09 34.38 214.75 34.56 215.62 34.56C215.62 35.07 215.53 35.52 215.35 35.91C215.17 36.3 214.915 36.66 214.585 36.99H204.415ZM226.714 37.44C225.634 37.44 224.539 37.32 223.429 37.08C222.349 36.84 221.344 36.495 220.414 36.045C219.514 35.595 218.779 35.04 218.209 34.38C217.639 33.69 217.354 32.91 217.354 32.04C217.354 30.99 217.654 30.15 218.254 29.52C218.854 28.86 219.619 28.53 220.549 28.53C221.389 28.53 222.094 28.8 222.664 29.34C223.264 29.88 223.564 30.585 223.564 31.455C223.564 31.845 223.504 32.19 223.384 32.49C223.264 32.76 223.084 33.06 222.844 33.39C223.114 33.66 223.594 33.855 224.284 33.975C224.974 34.095 225.649 34.155 226.309 34.155C227.359 34.155 228.169 33.96 228.739 33.57C229.309 33.18 229.594 32.7 229.594 32.13C229.594 31.23 229.114 30.465 228.154 29.835C227.194 29.175 226.099 28.515 224.869 27.855C223.759 27.255 222.649 26.625 221.539 25.965C220.459 25.275 219.544 24.42 218.794 23.4C218.074 22.38 217.714 21.09 217.714 19.53C217.714 17.55 218.539 15.915 220.189 14.625C221.839 13.335 224.179 12.69 227.209 12.69C229.309 12.69 230.989 12.96 232.249 13.5C233.509 14.01 234.424 14.67 234.994 15.48C235.564 16.26 235.849 17.085 235.849 17.955C235.849 18.885 235.549 19.635 234.949 20.205C234.379 20.745 233.674 21.015 232.834 21.015C232.084 21.015 231.424 20.79 230.854 20.34C230.284 19.86 229.999 19.245 229.999 18.495C229.999 18.135 230.059 17.745 230.179 17.325C230.299 16.905 230.464 16.56 230.674 16.29C230.344 16.02 229.954 15.84 229.504 15.75C229.084 15.63 228.574 15.57 227.974 15.57C226.984 15.57 226.219 15.81 225.679 16.29C225.169 16.74 224.914 17.295 224.914 17.955C224.914 18.975 225.394 19.815 226.354 20.475C227.344 21.135 228.439 21.78 229.639 22.41C230.749 22.98 231.829 23.595 232.879 24.255C233.959 24.915 234.859 25.74 235.579 26.73C236.299 27.72 236.659 28.995 236.659 30.555C236.659 32.235 236.179 33.585 235.219 34.605C234.259 35.595 233.014 36.315 231.484 36.765C229.984 37.215 228.394 37.44 226.714 37.44ZM248.72 36.99C248.03 36.3 247.685 35.49 247.685 34.56C248.585 34.56 249.215 34.365 249.575 33.975C249.965 33.585 250.16 32.955 250.16 32.085V17.19H247.415V14.4C248.075 14.25 248.6 14.07 248.99 13.86C249.38 13.65 249.74 13.425 250.07 13.185C249.95 12.495 249.86 11.865 249.8 11.295C249.74 10.725 249.71 10.065 249.71 9.31499C249.71 6.19499 250.535 3.86999 252.185 2.33999C253.835 0.779989 256.07 -1.09673e-05 258.89 -1.09673e-05C260.33 -1.09673e-05 261.515 0.299989 262.445 0.899988C263.375 1.46999 264.065 2.17499 264.515 3.01499C264.965 3.85499 265.19 4.64999 265.19 5.39999C265.19 6.50999 264.89 7.43999 264.29 8.18999C263.72 8.93999 262.94 9.31499 261.95 9.31499C261.05 9.31499 260.255 8.99999 259.565 8.36999C258.875 7.70999 258.53 6.95999 258.53 6.11999C258.53 5.75999 258.605 5.35499 258.755 4.90499C258.905 4.42499 259.28 3.95999 259.88 3.50999C259.79 3.35999 259.625 3.23999 259.385 3.14999C259.175 3.02999 258.98 2.96999 258.8 2.96999C258.32 2.96999 257.87 3.20999 257.45 3.68999C257.03 4.13999 256.685 4.73999 256.415 5.48999C256.175 6.23999 256.055 7.03499 256.055 7.87499C256.055 8.77499 256.13 9.62999 256.28 10.44C256.46 11.25 256.67 11.91 256.91 12.42C257.15 12.9 257.36 13.14 257.54 13.14H261.86C261.86 13.8 261.815 14.52 261.725 15.3C261.635 16.05 261.425 16.68 261.095 17.19H257.27V31.68C257.27 32.34 257.375 32.895 257.585 33.345C257.795 33.765 258.215 34.08 258.845 34.29C259.475 34.47 260.405 34.56 261.635 34.56C261.635 35.49 261.29 36.3 260.6 36.99H248.72ZM269.915 9.40499C268.625 9.40499 267.59 9.02999 266.81 8.27999C266.06 7.49999 265.685 6.46499 265.685 5.17499C265.685 3.91499 266.075 2.89499 266.855 2.11499C267.665 1.33499 268.715 0.944988 270.005 0.944988C271.325 0.944988 272.36 1.33499 273.11 2.11499C273.89 2.89499 274.28 3.91499 274.28 5.17499C274.28 6.46499 273.875 7.49999 273.065 8.27999C272.285 9.02999 271.235 9.40499 269.915 9.40499ZM264.875 36.99C264.545 36.66 264.29 36.3 264.11 35.91C263.93 35.52 263.84 35.07 263.84 34.56C264.71 34.56 265.355 34.38 265.775 34.02C266.195 33.63 266.405 32.985 266.405 32.085V19.035C266.405 18.255 266.21 17.67 265.82 17.28C265.46 16.89 264.665 16.695 263.435 16.695V14.715C263.885 14.445 264.575 14.145 265.505 13.815C266.435 13.455 267.44 13.155 268.52 12.915C269.63 12.675 270.62 12.555 271.49 12.555C272.18 12.555 272.675 12.72 272.975 13.05C273.275 13.35 273.425 13.875 273.425 14.625V32.13C273.425 33.03 273.65 33.66 274.1 34.02C274.55 34.38 275.21 34.56 276.08 34.56C276.08 35.07 275.99 35.52 275.81 35.91C275.63 36.3 275.375 36.66 275.045 36.99H264.875ZM295.961 46.8C294.851 46.8 293.921 46.635 293.171 46.305C292.421 46.005 292.046 45.39 292.046 44.46V35.91C291.476 36.48 290.786 36.9 289.976 37.17C289.166 37.44 288.281 37.575 287.321 37.575C285.671 37.575 284.126 37.17 282.686 36.36C281.246 35.52 280.076 34.26 279.176 32.58C278.306 30.9 277.871 28.785 277.871 26.235C277.871 23.355 278.411 20.91 279.491 18.9C280.571 16.89 282.026 15.36 283.856 14.31C285.686 13.23 287.711 12.69 289.931 12.69C290.831 12.69 291.731 12.78 292.631 12.96C293.531 13.11 294.401 13.32 295.241 13.59C295.571 13.53 295.886 13.485 296.186 13.455C296.486 13.395 296.816 13.365 297.176 13.365H300.011C300.371 13.695 300.641 14.1 300.821 14.58C301.001 15.06 301.091 15.555 301.091 16.065C300.191 16.065 299.651 16.26 299.471 16.65C299.291 17.04 299.201 17.685 299.201 18.585V41.625C299.201 42.345 299.396 42.885 299.786 43.245C300.176 43.635 300.716 43.905 301.406 44.055V45.27C300.866 45.75 300.176 46.125 299.336 46.395C298.496 46.665 297.371 46.8 295.961 46.8ZM290.426 33.66C290.756 33.66 291.056 33.63 291.326 33.57C291.596 33.48 291.836 33.375 292.046 33.255V16.515C291.476 16.125 290.786 15.93 289.976 15.93C289.166 15.93 288.431 16.2 287.771 16.74C287.111 17.28 286.586 18.195 286.196 19.485C285.806 20.745 285.611 22.485 285.611 24.705C285.611 27.795 286.076 30.06 287.006 31.5C287.936 32.94 289.076 33.66 290.426 33.66ZM311.82 37.305C309.72 37.305 308.085 36.66 306.915 35.37C305.745 34.08 305.16 32.34 305.16 30.15V17.775C305.16 17.265 304.965 16.905 304.575 16.695C304.185 16.485 303.645 16.38 302.955 16.38V14.4C303.345 14.07 304.155 13.725 305.385 13.365C306.645 12.975 308.055 12.78 309.615 12.78C310.785 12.78 311.55 12.915 311.91 13.185C312.3 13.455 312.495 14.115 312.495 15.165V30.285C312.495 31.185 312.645 31.875 312.945 32.355C313.245 32.835 313.77 33.075 314.52 33.075C315.15 33.075 315.75 32.88 316.32 32.49C316.92 32.1 317.415 31.65 317.805 31.14V17.775C317.805 17.265 317.58 16.905 317.13 16.695C316.68 16.485 316.065 16.38 315.285 16.38V14.4C315.705 14.07 316.53 13.725 317.76 13.365C318.99 12.975 320.445 12.78 322.125 12.78C323.295 12.78 324.09 12.915 324.51 13.185C324.93 13.455 325.14 14.115 325.14 15.165V31.725C325.14 32.445 325.32 33.045 325.68 33.525C326.07 34.005 326.61 34.275 327.3 34.335V35.595C326.82 36.165 326.055 36.6 325.005 36.9C323.985 37.17 322.995 37.305 322.035 37.305C321.045 37.305 320.175 37.05 319.425 36.54C318.705 36 318.225 35.235 317.985 34.245C316.515 36.285 314.46 37.305 311.82 37.305ZM340.357 37.395C336.997 37.395 334.312 36.33 332.302 34.2C330.322 32.07 329.332 29.1 329.332 25.29C329.332 22.68 329.827 20.43 330.817 18.54C331.807 16.62 333.142 15.15 334.822 14.13C336.532 13.11 338.467 12.6 340.627 12.6C343.327 12.6 345.487 13.395 347.107 14.985C348.757 16.545 349.582 18.75 349.582 21.6C349.582 22.74 349.387 23.745 348.997 24.615C348.637 25.455 347.872 25.875 346.702 25.875H336.982C337.072 28.245 337.612 29.925 338.602 30.915C339.622 31.905 340.942 32.4 342.562 32.4C343.582 32.4 344.527 32.25 345.397 31.95C346.267 31.62 347.077 31.17 347.827 30.6C348.097 30.84 348.307 31.215 348.457 31.725C348.637 32.205 348.727 32.61 348.727 32.94C348.727 33.42 348.382 34.02 347.692 34.74C347.032 35.43 346.072 36.045 344.812 36.585C343.582 37.125 342.097 37.395 340.357 37.395ZM336.982 22.455H341.527C342.037 22.455 342.352 22.26 342.472 21.87C342.622 21.48 342.697 21 342.697 20.43C342.697 18.51 342.457 17.25 341.977 16.65C341.527 16.02 340.987 15.705 340.357 15.705C339.847 15.705 339.337 15.9 338.827 16.29C338.317 16.68 337.897 17.37 337.567 18.36C337.237 19.32 337.042 20.685 336.982 22.455ZM361.567 36.99C361.237 36.66 360.982 36.3 360.802 35.91C360.622 35.52 360.532 35.07 360.532 34.56C361.402 34.56 362.017 34.38 362.377 34.02C362.767 33.63 362.962 32.985 362.962 32.085V19.08C362.962 18.3 362.752 17.745 362.332 17.415C361.912 17.055 361.132 16.875 359.992 16.875V14.85C360.712 14.43 361.567 14.07 362.557 13.77C363.547 13.44 364.522 13.185 365.482 13.005C366.442 12.795 367.192 12.69 367.732 12.69C368.422 12.69 368.917 12.93 369.217 13.41C369.547 13.89 369.712 14.925 369.712 16.515C370.042 15.885 370.522 15.27 371.152 14.67C371.812 14.04 372.547 13.53 373.357 13.14C374.167 12.75 375.007 12.555 375.877 12.555C377.287 12.555 378.292 12.915 378.892 13.635C379.492 14.355 379.792 15.285 379.792 16.425C379.792 17.715 379.462 18.765 378.802 19.575C378.142 20.385 377.227 20.79 376.057 20.79C375.037 20.79 374.227 20.505 373.627 19.935C373.027 19.335 372.727 18.66 372.727 17.91C372.727 17.43 372.772 17.055 372.862 16.785C372.382 16.905 371.917 17.07 371.467 17.28C371.017 17.46 370.567 17.76 370.117 18.18V31.68C370.117 32.37 370.222 32.925 370.432 33.345C370.642 33.765 371.047 34.08 371.647 34.29C372.277 34.47 373.207 34.56 374.437 34.56C374.437 35.07 374.377 35.52 374.257 35.91C374.137 36.3 373.912 36.66 373.582 36.99H361.567ZM391.067 37.575C388.937 37.575 387.047 37.125 385.397 36.225C383.747 35.295 382.457 33.945 381.527 32.175C380.627 30.375 380.177 28.155 380.177 25.515C380.177 22.695 380.657 20.325 381.617 18.405C382.577 16.485 383.912 15.03 385.622 14.04C387.332 13.05 389.297 12.555 391.517 12.555C393.677 12.555 395.567 13.02 397.187 13.95C398.837 14.88 400.112 16.26 401.012 18.09C401.942 19.89 402.407 22.125 402.407 24.795C402.407 27.585 401.927 29.94 400.967 31.86C400.007 33.75 398.672 35.175 396.962 36.135C395.252 37.095 393.287 37.575 391.067 37.575ZM391.427 34.335C392.057 34.335 392.597 34.11 393.047 33.66C393.527 33.21 393.887 32.385 394.127 31.185C394.397 29.955 394.532 28.185 394.532 25.875C394.532 23.055 394.397 20.925 394.127 19.485C393.857 18.015 393.467 17.025 392.957 16.515C392.447 16.005 391.847 15.75 391.157 15.75C390.527 15.75 389.972 15.975 389.492 16.425C389.012 16.875 388.637 17.715 388.367 18.945C388.127 20.175 388.007 21.96 388.007 24.3C388.007 27.09 388.142 29.205 388.412 30.645C388.712 32.085 389.117 33.06 389.627 33.57C390.137 34.08 390.737 34.335 391.427 34.335ZM414.276 37.575C412.656 37.575 411.126 37.17 409.686 36.36C408.276 35.52 407.136 34.26 406.266 32.58C405.396 30.9 404.961 28.785 404.961 26.235C404.961 23.205 405.516 20.685 406.626 18.675C407.766 16.665 409.236 15.165 411.036 14.175C412.866 13.185 414.816 12.69 416.886 12.69C417.276 12.69 417.711 12.705 418.191 12.735C418.671 12.765 419.151 12.81 419.631 12.87L419.496 10.17V7.91999C419.496 7.22999 419.301 6.68999 418.911 6.29999C418.521 5.90999 417.711 5.71499 416.481 5.71499V3.86999C417.231 3.44999 418.116 3.07499 419.136 2.74499C420.156 2.41499 421.161 2.15999 422.151 1.97999C423.141 1.76999 423.936 1.66499 424.536 1.66499C425.226 1.66499 425.721 1.82999 426.021 2.15999C426.351 2.45999 426.516 2.98499 426.516 3.73499V31.995C426.516 33.465 427.236 34.335 428.676 34.605L428.721 35.865C428.301 36.435 427.656 36.855 426.786 37.125C425.916 37.425 425.031 37.575 424.131 37.575C423.351 37.575 422.526 37.395 421.656 37.035C420.786 36.705 420.171 36.18 419.811 35.46C419.181 36.3 418.401 36.855 417.471 37.125C416.571 37.425 415.506 37.575 414.276 37.575ZM417.381 33.75C418.311 33.75 419.016 33.48 419.496 32.94V17.19C418.866 16.32 418.026 15.885 416.976 15.885C416.166 15.885 415.431 16.17 414.771 16.74C414.111 17.28 413.586 18.195 413.196 19.485C412.806 20.745 412.611 22.47 412.611 24.66C412.611 27.75 413.061 30.045 413.961 31.545C414.891 33.015 416.031 33.75 417.381 33.75ZM437.74 37.305C435.49 37.305 433.66 36.69 432.25 35.46C430.87 34.2 430.18 32.595 430.18 30.645C430.18 28.695 430.81 27.12 432.07 25.92C433.36 24.72 435.34 24.12 438.01 24.12C438.88 24.12 439.795 24.21 440.755 24.39C441.715 24.54 442.495 24.78 443.095 25.11V19.125C443.095 17.865 442.765 16.995 442.105 16.515C441.475 16.005 440.695 15.75 439.765 15.75C438.775 15.75 437.965 15.99 437.335 16.47C437.935 16.68 438.37 17.01 438.64 17.46C438.91 17.88 439.045 18.345 439.045 18.855C439.045 19.845 438.685 20.64 437.965 21.24C437.275 21.81 436.42 22.095 435.4 22.095C434.26 22.095 433.345 21.765 432.655 21.105C431.965 20.415 431.62 19.56 431.62 18.54C431.62 17.52 431.965 16.56 432.655 15.66C433.345 14.73 434.41 13.965 435.85 13.365C437.32 12.765 439.21 12.465 441.52 12.465C447.55 12.465 450.565 14.85 450.565 19.62V31.545C450.565 32.985 451.255 33.855 452.635 34.155V35.595C452.245 36.165 451.585 36.6 450.655 36.9C449.725 37.17 448.825 37.305 447.955 37.305C445.915 37.305 444.475 36.6 443.635 35.19C443.035 35.73 442.24 36.225 441.25 36.675C440.26 37.095 439.09 37.305 437.74 37.305ZM440.665 33.66C441.085 33.66 441.52 33.6 441.97 33.48C442.42 33.33 442.795 33.15 443.095 32.94V28.575C442.795 28.365 442.405 28.185 441.925 28.035C441.475 27.885 441.025 27.81 440.575 27.81C439.795 27.81 439.12 28.065 438.55 28.575C437.98 29.055 437.695 29.82 437.695 30.87C437.695 31.68 437.965 32.355 438.505 32.895C439.045 33.405 439.765 33.66 440.665 33.66ZM455.835 36.99C455.505 36.66 455.235 36.3 455.025 35.91C454.845 35.52 454.755 35.085 454.755 34.605C455.655 34.605 456.3 34.41 456.69 34.02C457.08 33.63 457.275 33 457.275 32.13V18.99C457.275 18.21 457.05 17.64 456.6 17.28C456.18 16.92 455.4 16.74 454.26 16.74V14.715C454.95 14.325 455.82 13.965 456.87 13.635C457.95 13.305 458.985 13.05 459.975 12.87C460.995 12.66 461.775 12.555 462.315 12.555C462.945 12.555 463.455 12.75 463.845 13.14C464.265 13.53 464.505 14.37 464.565 15.66C465.315 14.73 466.26 13.98 467.4 13.41C468.57 12.84 469.92 12.555 471.45 12.555C473.55 12.555 475.125 13.095 476.175 14.175C477.255 15.225 477.795 17.025 477.795 19.575V31.86C477.795 33.33 478.515 34.2 479.955 34.47L480 35.775C479.7 36.075 479.22 36.345 478.56 36.585C477.9 36.795 477.18 36.96 476.4 37.08C475.65 37.2 474.945 37.26 474.285 37.26C472.995 37.26 472.035 37.02 471.405 36.54C470.805 36.06 470.505 35.295 470.505 34.245V20.205C470.505 18.975 470.235 18.12 469.695 17.64C469.155 17.16 468.495 16.92 467.715 16.92C466.485 16.92 465.45 17.415 464.61 18.405V32.13C464.61 33 464.79 33.63 465.15 34.02C465.54 34.41 466.185 34.605 467.085 34.605C467.085 35.505 466.74 36.3 466.05 36.99H455.835ZM491.356 37.575C489.736 37.575 488.206 37.17 486.766 36.36C485.356 35.52 484.216 34.26 483.346 32.58C482.476 30.9 482.041 28.785 482.041 26.235C482.041 23.205 482.596 20.685 483.706 18.675C484.846 16.665 486.316 15.165 488.116 14.175C489.946 13.185 491.896 12.69 493.966 12.69C494.356 12.69 494.791 12.705 495.271 12.735C495.751 12.765 496.231 12.81 496.711 12.87L496.576 10.17V7.91999C496.576 7.22999 496.381 6.68999 495.991 6.29999C495.601 5.90999 494.791 5.71499 493.561 5.71499V3.86999C494.311 3.44999 495.196 3.07499 496.216 2.74499C497.236 2.41499 498.241 2.15999 499.231 1.97999C500.221 1.76999 501.016 1.66499 501.616 1.66499C502.306 1.66499 502.801 1.82999 503.101 2.15999C503.431 2.45999 503.596 2.98499 503.596 3.73499V31.995C503.596 33.465 504.316 34.335 505.756 34.605L505.801 35.865C505.381 36.435 504.736 36.855 503.866 37.125C502.996 37.425 502.111 37.575 501.211 37.575C500.431 37.575 499.606 37.395 498.736 37.035C497.866 36.705 497.251 36.18 496.891 35.46C496.261 36.3 495.481 36.855 494.551 37.125C493.651 37.425 492.586 37.575 491.356 37.575ZM494.461 33.75C495.391 33.75 496.096 33.48 496.576 32.94V17.19C495.946 16.32 495.106 15.885 494.056 15.885C493.246 15.885 492.511 16.17 491.851 16.74C491.191 17.28 490.666 18.195 490.276 19.485C489.886 20.745 489.691 22.47 489.691 24.66C489.691 27.75 490.141 30.045 491.041 31.545C491.971 33.015 493.111 33.75 494.461 33.75ZM518.816 37.575C516.686 37.575 514.796 37.125 513.146 36.225C511.496 35.295 510.206 33.945 509.276 32.175C508.376 30.375 507.926 28.155 507.926 25.515C507.926 22.695 508.406 20.325 509.366 18.405C510.326 16.485 511.661 15.03 513.371 14.04C515.081 13.05 517.046 12.555 519.266 12.555C521.426 12.555 523.316 13.02 524.936 13.95C526.586 14.88 527.861 16.26 528.761 18.09C529.691 19.89 530.156 22.125 530.156 24.795C530.156 27.585 529.676 29.94 528.716 31.86C527.756 33.75 526.421 35.175 524.711 36.135C523.001 37.095 521.036 37.575 518.816 37.575ZM519.176 34.335C519.806 34.335 520.346 34.11 520.796 33.66C521.276 33.21 521.636 32.385 521.876 31.185C522.146 29.955 522.281 28.185 522.281 25.875C522.281 23.055 522.146 20.925 521.876 19.485C521.606 18.015 521.216 17.025 520.706 16.515C520.196 16.005 519.596 15.75 518.906 15.75C518.276 15.75 517.721 15.975 517.241 16.425C516.761 16.875 516.386 17.715 516.116 18.945C515.876 20.175 515.756 21.96 515.756 24.3C515.756 27.09 515.891 29.205 516.161 30.645C516.461 32.085 516.866 33.06 517.376 33.57C517.886 34.08 518.486 34.335 519.176 34.335ZM548.57 37.305C546.32 37.305 544.49 36.69 543.08 35.46C541.7 34.2 541.01 32.595 541.01 30.645C541.01 28.695 541.64 27.12 542.9 25.92C544.19 24.72 546.17 24.12 548.84 24.12C549.71 24.12 550.625 24.21 551.585 24.39C552.545 24.54 553.325 24.78 553.925 25.11V19.125C553.925 17.865 553.595 16.995 552.935 16.515C552.305 16.005 551.525 15.75 550.595 15.75C549.605 15.75 548.795 15.99 548.165 16.47C548.765 16.68 549.2 17.01 549.47 17.46C549.74 17.88 549.875 18.345 549.875 18.855C549.875 19.845 549.515 20.64 548.795 21.24C548.105 21.81 547.25 22.095 546.23 22.095C545.09 22.095 544.175 21.765 543.485 21.105C542.795 20.415 542.45 19.56 542.45 18.54C542.45 17.52 542.795 16.56 543.485 15.66C544.175 14.73 545.24 13.965 546.68 13.365C548.15 12.765 550.04 12.465 552.35 12.465C558.38 12.465 561.395 14.85 561.395 19.62V31.545C561.395 32.985 562.085 33.855 563.465 34.155V35.595C563.075 36.165 562.415 36.6 561.485 36.9C560.555 37.17 559.655 37.305 558.785 37.305C556.745 37.305 555.305 36.6 554.465 35.19C553.865 35.73 553.07 36.225 552.08 36.675C551.09 37.095 549.92 37.305 548.57 37.305ZM551.495 33.66C551.915 33.66 552.35 33.6 552.8 33.48C553.25 33.33 553.625 33.15 553.925 32.94V28.575C553.625 28.365 553.235 28.185 552.755 28.035C552.305 27.885 551.855 27.81 551.405 27.81C550.625 27.81 549.95 28.065 549.38 28.575C548.81 29.055 548.525 29.82 548.525 30.87C548.525 31.68 548.795 32.355 549.335 32.895C549.875 33.405 550.595 33.66 551.495 33.66ZM574.964 36.99C574.274 36.21 573.929 35.25 573.929 34.11C574.949 34.11 575.669 33.945 576.089 33.615C576.539 33.285 576.764 32.7 576.764 31.86V10.71C576.764 9.86999 576.539 9.28499 576.089 8.95499C575.669 8.59499 574.949 8.41499 573.929 8.41499C573.929 7.90499 574.019 7.40999 574.199 6.92999C574.379 6.41999 574.619 5.96999 574.919 5.57999C577.859 5.57999 580.214 5.53499 581.984 5.44499C583.754 5.32499 585.269 5.26499 586.529 5.26499C589.709 5.26499 592.229 5.65499 594.089 6.43499C595.979 7.21499 597.329 8.36999 598.139 9.89999C598.979 11.4 599.399 13.245 599.399 15.435C599.399 17.385 598.904 19.155 597.914 20.745C596.954 22.335 595.484 23.595 593.504 24.525C591.554 25.425 589.064 25.875 586.034 25.875H584.144V29.835C584.144 31.005 584.264 31.905 584.504 32.535C584.774 33.135 585.269 33.555 585.989 33.795C586.709 34.005 587.729 34.11 589.049 34.11C589.049 35.28 588.719 36.24 588.059 36.99H574.964ZM585.314 22.275C586.724 22.275 587.834 22.065 588.644 21.645C589.484 21.195 590.114 20.625 590.534 19.935C590.954 19.245 591.224 18.495 591.344 17.685C591.494 16.845 591.569 16.05 591.569 15.3C591.569 14.16 591.389 13.095 591.029 12.105C590.699 11.115 590.114 10.32 589.274 9.71999C588.464 9.11999 587.309 8.81999 585.809 8.81999C585.149 8.81999 584.594 8.87999 584.144 8.99999V22.185C584.354 22.215 584.549 22.245 584.729 22.275C584.909 22.275 585.104 22.275 585.314 22.275ZM615.129 37.575C611.289 37.575 608.244 36.525 605.994 34.425C603.744 32.325 602.619 29.235 602.619 25.155V10.665C602.619 9.85499 602.409 9.28499 601.989 8.95499C601.569 8.59499 600.849 8.41499 599.829 8.41499C599.829 7.27499 600.174 6.32999 600.864 5.57999H612.114C612.804 6.32999 613.149 7.27499 613.149 8.41499C612.129 8.41499 611.409 8.59499 610.989 8.95499C610.569 9.28499 610.359 9.85499 610.359 10.665V26.1C610.359 28.11 610.794 29.805 611.664 31.185C612.534 32.565 613.959 33.255 615.939 33.255C617.289 33.255 618.354 32.97 619.134 32.4C619.914 31.8 620.469 31.02 620.799 30.06C621.159 29.07 621.339 27.99 621.339 26.82V10.665C621.339 9.85499 621.084 9.28499 620.574 8.95499C620.094 8.59499 619.284 8.41499 618.144 8.41499C618.144 7.87499 618.219 7.36499 618.369 6.88499C618.549 6.37499 618.804 5.93999 619.134 5.57999H629.034C629.694 6.32999 630.024 7.27499 630.024 8.41499C628.884 8.41499 628.059 8.59499 627.549 8.95499C627.069 9.28499 626.829 9.85499 626.829 10.665V24.705C626.829 28.845 625.854 32.025 623.904 34.245C621.984 36.465 619.059 37.575 615.129 37.575ZM645.5 37.62C642.95 37.62 640.58 37.02 638.39 35.82C636.2 34.62 634.445 32.805 633.125 30.375C631.805 27.915 631.145 24.84 631.145 21.15C631.145 17.61 631.73 14.655 632.9 12.285C634.1 9.91499 635.75 8.12999 637.85 6.92999C639.98 5.69999 642.44 5.08499 645.23 5.08499C645.89 5.08499 646.64 5.17499 647.48 5.35499C648.32 5.53499 649.055 5.77499 649.685 6.07499C649.985 5.92499 650.39 5.78999 650.9 5.66999C651.41 5.51999 651.92 5.38499 652.43 5.26499C652.97 5.14499 653.39 5.08499 653.69 5.08499C654.08 6.04499 654.365 7.18499 654.545 8.50499C654.725 9.79499 654.845 11.085 654.905 12.375C654.965 13.635 654.995 14.715 654.995 15.615H649.91C649.67 13.665 649.13 12.075 648.29 10.845C647.48 9.61499 646.415 8.99999 645.095 8.99999C643.355 8.99999 641.915 9.82499 640.775 11.475C639.665 13.125 639.11 15.825 639.11 19.575C639.11 22.665 639.53 25.14 640.37 27C641.21 28.83 642.32 30.15 643.7 30.96C645.08 31.74 646.565 32.13 648.155 32.13C649.535 32.13 650.705 31.875 651.665 31.365C652.625 30.825 653.3 30.27 653.69 29.7C654.08 29.97 654.38 30.39 654.59 30.96C654.83 31.5 654.95 31.98 654.95 32.4C654.95 33.09 654.575 33.855 653.825 34.695C653.105 35.505 652.04 36.195 650.63 36.765C649.25 37.335 647.54 37.62 645.5 37.62ZM9.36 96.44C8.28 96.44 7.185 96.32 6.075 96.08C4.995 95.84 3.99 95.495 3.06 95.045C2.16 94.595 1.425 94.04 0.854996 93.38C0.284996 92.69 -3.57628e-06 91.91 -3.57628e-06 91.04C-3.57628e-06 89.99 0.299996 89.15 0.899996 88.52C1.5 87.86 2.265 87.53 3.195 87.53C4.035 87.53 4.74 87.8 5.31 88.34C5.91 88.88 6.21 89.585 6.21 90.455C6.21 90.845 6.15 91.19 6.03 91.49C5.91 91.76 5.73 92.06 5.49 92.39C5.76 92.66 6.24 92.855 6.93 92.975C7.62 93.095 8.295 93.155 8.955 93.155C10.005 93.155 10.815 92.96 11.385 92.57C11.955 92.18 12.24 91.7 12.24 91.13C12.24 90.23 11.76 89.465 10.8 88.835C9.84 88.175 8.745 87.515 7.515 86.855C6.405 86.255 5.295 85.625 4.185 84.965C3.105 84.275 2.19 83.42 1.44 82.4C0.719996 81.38 0.359996 80.09 0.359996 78.53C0.359996 76.55 1.185 74.915 2.835 73.625C4.485 72.335 6.825 71.69 9.855 71.69C11.955 71.69 13.635 71.96 14.895 72.5C16.155 73.01 17.07 73.67 17.64 74.48C18.21 75.26 18.495 76.085 18.495 76.955C18.495 77.885 18.195 78.635 17.595 79.205C17.025 79.745 16.32 80.015 15.48 80.015C14.73 80.015 14.07 79.79 13.5 79.34C12.93 78.86 12.645 78.245 12.645 77.495C12.645 77.135 12.705 76.745 12.825 76.325C12.945 75.905 13.11 75.56 13.32 75.29C12.99 75.02 12.6 74.84 12.15 74.75C11.73 74.63 11.22 74.57 10.62 74.57C9.63 74.57 8.865 74.81 8.325 75.29C7.815 75.74 7.56 76.295 7.56 76.955C7.56 77.975 8.04 78.815 9 79.475C9.99 80.135 11.085 80.78 12.285 81.41C13.395 81.98 14.475 82.595 15.525 83.255C16.605 83.915 17.505 84.74 18.225 85.73C18.945 86.72 19.305 87.995 19.305 89.555C19.305 91.235 18.825 92.585 17.865 93.605C16.905 94.595 15.66 95.315 14.13 95.765C12.63 96.215 11.04 96.44 9.36 96.44ZM32.6524 96.395C29.2924 96.395 26.6074 95.33 24.5974 93.2C22.6174 91.07 21.6274 88.1 21.6274 84.29C21.6274 81.68 22.1224 79.43 23.1124 77.54C24.1024 75.62 25.4374 74.15 27.1174 73.13C28.8274 72.11 30.7624 71.6 32.9224 71.6C35.6224 71.6 37.7824 72.395 39.4024 73.985C41.0524 75.545 41.8774 77.75 41.8774 80.6C41.8774 81.74 41.6824 82.745 41.2924 83.615C40.9324 84.455 40.1674 84.875 38.9974 84.875H29.2774C29.3674 87.245 29.9074 88.925 30.8974 89.915C31.9174 90.905 33.2374 91.4 34.8574 91.4C35.8774 91.4 36.8224 91.25 37.6924 90.95C38.5624 90.62 39.3724 90.17 40.1224 89.6C40.3924 89.84 40.6024 90.215 40.7524 90.725C40.9324 91.205 41.0224 91.61 41.0224 91.94C41.0224 92.42 40.6774 93.02 39.9874 93.74C39.3274 94.43 38.3674 95.045 37.1074 95.585C35.8774 96.125 34.3924 96.395 32.6524 96.395ZM29.2774 81.455H33.8224C34.3324 81.455 34.6474 81.26 34.7674 80.87C34.9174 80.48 34.9924 80 34.9924 79.43C34.9924 77.51 34.7524 76.25 34.2724 75.65C33.8224 75.02 33.2824 74.705 32.6524 74.705C32.1424 74.705 31.6324 74.9 31.1224 75.29C30.6124 75.68 30.1924 76.37 29.8624 77.36C29.5324 78.32 29.3374 79.685 29.2774 81.455ZM77.1585 96.26C76.0485 96.26 75.0885 96.11 74.2785 95.81C73.4985 95.48 73.1085 94.85 73.1085 93.92V78.935C73.1085 77.975 72.8385 77.24 72.2985 76.73C71.7885 76.19 71.0985 75.92 70.2285 75.92C69.7485 75.92 69.2535 76.01 68.7435 76.19C68.2635 76.37 67.8285 76.64 67.4385 77C67.4685 77.12 67.4835 77.24 67.4835 77.36C67.4835 77.45 67.4835 77.555 67.4835 77.675V91.13C67.4835 92 67.6635 92.63 68.0235 93.02C68.3835 93.38 68.9535 93.56 69.7335 93.56C69.7335 94.04 69.6285 94.49 69.4185 94.91C69.2385 95.3 68.9835 95.66 68.6535 95.99H59.0685C58.7685 95.66 58.5135 95.3 58.3035 94.91C58.1235 94.49 58.0335 94.04 58.0335 93.56C58.8135 93.56 59.3535 93.38 59.6535 93.02C59.9835 92.63 60.1485 92 60.1485 91.13V78.935C60.1485 77.975 59.8635 77.24 59.2935 76.73C58.7535 76.19 58.0935 75.92 57.3135 75.92C56.7435 75.92 56.1585 76.055 55.5585 76.325C54.9585 76.595 54.4485 76.985 54.0285 77.495V91.13C54.0285 92 54.1785 92.63 54.4785 93.02C54.8085 93.38 55.3485 93.56 56.0985 93.56C56.0985 94.49 55.7385 95.3 55.0185 95.99H45.2535C44.9235 95.66 44.6535 95.3 44.4435 94.91C44.2635 94.49 44.1735 94.04 44.1735 93.56C45.0735 93.56 45.7185 93.38 46.1085 93.02C46.4985 92.63 46.6935 92 46.6935 91.13V77.945C46.6935 77.165 46.4685 76.595 46.0185 76.235C45.5985 75.875 44.8185 75.695 43.6785 75.695V73.715C44.3685 73.295 45.2385 72.92 46.2885 72.59C47.3685 72.26 48.4035 72.005 49.3935 71.825C50.4135 71.615 51.1935 71.51 51.7335 71.51C52.3335 71.51 52.8285 71.705 53.2185 72.095C53.6385 72.455 53.9085 73.22 54.0285 74.39C54.8085 73.52 55.7835 72.83 56.9535 72.32C58.1535 71.78 59.5035 71.51 61.0035 71.51C64.0035 71.51 65.9535 72.515 66.8535 74.525C67.6335 73.565 68.6385 72.83 69.8685 72.32C71.1285 71.78 72.5235 71.51 74.0535 71.51C76.2135 71.51 77.8185 72.035 78.8685 73.085C79.9485 74.135 80.4885 75.665 80.4885 77.675V91.13C80.4885 91.82 80.6835 92.345 81.0735 92.705C81.4635 93.065 82.0035 93.32 82.6935 93.47V94.775C82.1535 95.255 81.4485 95.63 80.5785 95.9C79.7085 96.14 78.5685 96.26 77.1585 96.26ZM102.524 96.44C101.444 96.44 100.349 96.32 99.2391 96.08C98.1591 95.84 97.1541 95.495 96.2241 95.045C95.3241 94.595 94.5891 94.04 94.0191 93.38C93.4491 92.69 93.1641 91.91 93.1641 91.04C93.1641 89.99 93.4641 89.15 94.0641 88.52C94.6641 87.86 95.4291 87.53 96.3591 87.53C97.1991 87.53 97.9041 87.8 98.4741 88.34C99.0741 88.88 99.3741 89.585 99.3741 90.455C99.3741 90.845 99.3141 91.19 99.1941 91.49C99.0741 91.76 98.8941 92.06 98.6541 92.39C98.9241 92.66 99.4041 92.855 100.094 92.975C100.784 93.095 101.459 93.155 102.119 93.155C103.169 93.155 103.979 92.96 104.549 92.57C105.119 92.18 105.404 91.7 105.404 91.13C105.404 90.23 104.924 89.465 103.964 88.835C103.004 88.175 101.909 87.515 100.679 86.855C99.5691 86.255 98.4591 85.625 97.3491 84.965C96.2691 84.275 95.3541 83.42 94.6041 82.4C93.8841 81.38 93.5241 80.09 93.5241 78.53C93.5241 76.55 94.3491 74.915 95.9991 73.625C97.6491 72.335 99.9891 71.69 103.019 71.69C105.119 71.69 106.799 71.96 108.059 72.5C109.319 73.01 110.234 73.67 110.804 74.48C111.374 75.26 111.659 76.085 111.659 76.955C111.659 77.885 111.359 78.635 110.759 79.205C110.189 79.745 109.484 80.015 108.644 80.015C107.894 80.015 107.234 79.79 106.664 79.34C106.094 78.86 105.809 78.245 105.809 77.495C105.809 77.135 105.869 76.745 105.989 76.325C106.109 75.905 106.274 75.56 106.484 75.29C106.154 75.02 105.764 74.84 105.314 74.75C104.894 74.63 104.384 74.57 103.784 74.57C102.794 74.57 102.029 74.81 101.489 75.29C100.979 75.74 100.724 76.295 100.724 76.955C100.724 77.975 101.204 78.815 102.164 79.475C103.154 80.135 104.249 80.78 105.449 81.41C106.559 81.98 107.639 82.595 108.689 83.255C109.769 83.915 110.669 84.74 111.389 85.73C112.109 86.72 112.469 87.995 112.469 89.555C112.469 91.235 111.989 92.585 111.029 93.605C110.069 94.595 108.824 95.315 107.294 95.765C105.794 96.215 104.204 96.44 102.524 96.44ZM122.036 96.305C119.786 96.305 117.956 95.69 116.546 94.46C115.166 93.2 114.476 91.595 114.476 89.645C114.476 87.695 115.106 86.12 116.366 84.92C117.656 83.72 119.636 83.12 122.306 83.12C123.176 83.12 124.091 83.21 125.051 83.39C126.011 83.54 126.791 83.78 127.391 84.11V78.125C127.391 76.865 127.061 75.995 126.401 75.515C125.771 75.005 124.991 74.75 124.061 74.75C123.071 74.75 122.261 74.99 121.631 75.47C122.231 75.68 122.666 76.01 122.936 76.46C123.206 76.88 123.341 77.345 123.341 77.855C123.341 78.845 122.981 79.64 122.261 80.24C121.571 80.81 120.716 81.095 119.696 81.095C118.556 81.095 117.641 80.765 116.951 80.105C116.261 79.415 115.916 78.56 115.916 77.54C115.916 76.52 116.261 75.56 116.951 74.66C117.641 73.73 118.706 72.965 120.146 72.365C121.616 71.765 123.506 71.465 125.816 71.465C131.846 71.465 134.861 73.85 134.861 78.62V90.545C134.861 91.985 135.551 92.855 136.931 93.155V94.595C136.541 95.165 135.881 95.6 134.951 95.9C134.021 96.17 133.121 96.305 132.251 96.305C130.211 96.305 128.771 95.6 127.931 94.19C127.331 94.73 126.536 95.225 125.546 95.675C124.556 96.095 123.386 96.305 122.036 96.305ZM124.961 92.66C125.381 92.66 125.816 92.6 126.266 92.48C126.716 92.33 127.091 92.15 127.391 91.94V87.575C127.091 87.365 126.701 87.185 126.221 87.035C125.771 86.885 125.321 86.81 124.871 86.81C124.091 86.81 123.416 87.065 122.846 87.575C122.276 88.055 121.991 88.82 121.991 89.87C121.991 90.68 122.261 91.355 122.801 91.895C123.341 92.405 124.061 92.66 124.961 92.66ZM149.409 96.485C148.539 96.485 147.534 96.425 146.394 96.305C145.254 96.185 144.144 96.02 143.064 95.81C141.984 95.57 141.084 95.27 140.364 94.91V66.92C140.364 66.23 140.154 65.69 139.734 65.3C139.314 64.91 138.609 64.715 137.619 64.715V63.275C138.309 62.795 139.134 62.375 140.094 62.015C141.054 61.625 142.014 61.31 142.974 61.07C143.964 60.83 144.774 60.71 145.404 60.71C146.124 60.71 146.634 60.875 146.934 61.205C147.234 61.505 147.384 62.03 147.384 62.78V69.17L147.249 73.445C147.849 72.815 148.569 72.365 149.409 72.095C150.249 71.825 151.179 71.69 152.199 71.69C153.849 71.69 155.394 72.11 156.834 72.95C158.274 73.79 159.444 75.065 160.344 76.775C161.244 78.455 161.694 80.615 161.694 83.255C161.694 86.135 161.139 88.565 160.029 90.545C158.919 92.495 157.434 93.98 155.574 95C153.714 95.99 151.659 96.485 149.409 96.485ZM149.544 93.2C150.354 93.2 151.089 92.945 151.749 92.435C152.439 91.895 152.979 91.01 153.369 89.78C153.759 88.55 153.954 86.885 153.954 84.785C153.954 81.485 153.489 79.115 152.559 77.675C151.629 76.235 150.474 75.515 149.094 75.515C148.434 75.515 147.864 75.68 147.384 76.01V92.345C147.954 92.915 148.674 93.2 149.544 93.2ZM175.299 96.395C171.939 96.395 169.254 95.33 167.244 93.2C165.264 91.07 164.274 88.1 164.274 84.29C164.274 81.68 164.769 79.43 165.759 77.54C166.749 75.62 168.084 74.15 169.764 73.13C171.474 72.11 173.409 71.6 175.569 71.6C178.269 71.6 180.429 72.395 182.049 73.985C183.699 75.545 184.524 77.75 184.524 80.6C184.524 81.74 184.329 82.745 183.939 83.615C183.579 84.455 182.814 84.875 181.644 84.875H171.924C172.014 87.245 172.554 88.925 173.544 89.915C174.564 90.905 175.884 91.4 177.504 91.4C178.524 91.4 179.469 91.25 180.339 90.95C181.209 90.62 182.019 90.17 182.769 89.6C183.039 89.84 183.249 90.215 183.399 90.725C183.579 91.205 183.669 91.61 183.669 91.94C183.669 92.42 183.324 93.02 182.634 93.74C181.974 94.43 181.014 95.045 179.754 95.585C178.524 96.125 177.039 96.395 175.299 96.395ZM171.924 81.455H176.469C176.979 81.455 177.294 81.26 177.414 80.87C177.564 80.48 177.639 80 177.639 79.43C177.639 77.51 177.399 76.25 176.919 75.65C176.469 75.02 175.929 74.705 175.299 74.705C174.789 74.705 174.279 74.9 173.769 75.29C173.259 75.68 172.839 76.37 172.509 77.36C172.179 78.32 171.984 79.685 171.924 81.455ZM187.939 95.99C187.609 95.66 187.354 95.3 187.174 94.91C186.994 94.52 186.904 94.07 186.904 93.56C187.774 93.56 188.389 93.38 188.749 93.02C189.139 92.63 189.334 91.985 189.334 91.085V78.08C189.334 77.3 189.124 76.745 188.704 76.415C188.284 76.055 187.504 75.875 186.364 75.875V73.85C187.084 73.43 187.939 73.07 188.929 72.77C189.919 72.44 190.894 72.185 191.854 72.005C192.814 71.795 193.564 71.69 194.104 71.69C194.794 71.69 195.289 71.93 195.589 72.41C195.919 72.89 196.084 73.925 196.084 75.515C196.414 74.885 196.894 74.27 197.524 73.67C198.184 73.04 198.919 72.53 199.729 72.14C200.539 71.75 201.379 71.555 202.249 71.555C203.659 71.555 204.664 71.915 205.264 72.635C205.864 73.355 206.164 74.285 206.164 75.425C206.164 76.715 205.834 77.765 205.174 78.575C204.514 79.385 203.599 79.79 202.429 79.79C201.409 79.79 200.599 79.505 199.999 78.935C199.399 78.335 199.099 77.66 199.099 76.91C199.099 76.43 199.144 76.055 199.234 75.785C198.754 75.905 198.289 76.07 197.839 76.28C197.389 76.46 196.939 76.76 196.489 77.18V90.68C196.489 91.37 196.594 91.925 196.804 92.345C197.014 92.765 197.419 93.08 198.019 93.29C198.649 93.47 199.579 93.56 200.809 93.56C200.809 94.07 200.749 94.52 200.629 94.91C200.509 95.3 200.284 95.66 199.954 95.99H187.939ZM226.712 96.575C224.582 96.575 222.692 96.125 221.042 95.225C219.392 94.295 218.102 92.945 217.172 91.175C216.272 89.375 215.822 87.155 215.822 84.515C215.822 81.695 216.302 79.325 217.262 77.405C218.222 75.485 219.557 74.03 221.267 73.04C222.977 72.05 224.942 71.555 227.162 71.555C229.322 71.555 231.212 72.02 232.832 72.95C234.482 73.88 235.757 75.26 236.657 77.09C237.587 78.89 238.052 81.125 238.052 83.795C238.052 86.585 237.572 88.94 236.612 90.86C235.652 92.75 234.317 94.175 232.607 95.135C230.897 96.095 228.932 96.575 226.712 96.575ZM227.072 93.335C227.702 93.335 228.242 93.11 228.692 92.66C229.172 92.21 229.532 91.385 229.772 90.185C230.042 88.955 230.177 87.185 230.177 84.875C230.177 82.055 230.042 79.925 229.772 78.485C229.502 77.015 229.112 76.025 228.602 75.515C228.092 75.005 227.492 74.75 226.802 74.75C226.172 74.75 225.617 74.975 225.137 75.425C224.657 75.875 224.282 76.715 224.012 77.945C223.772 79.175 223.652 80.96 223.652 83.3C223.652 86.09 223.787 88.205 224.057 89.645C224.357 91.085 224.762 92.06 225.272 92.57C225.782 93.08 226.382 93.335 227.072 93.335ZM241.645 95.99C241.315 95.66 241.045 95.3 240.835 94.91C240.655 94.52 240.565 94.085 240.565 93.605C241.465 93.605 242.11 93.41 242.5 93.02C242.89 92.63 243.085 92 243.085 91.13V77.99C243.085 77.21 242.86 76.64 242.41 76.28C241.99 75.92 241.21 75.74 240.07 75.74V73.715C240.76 73.325 241.63 72.965 242.68 72.635C243.76 72.305 244.795 72.05 245.785 71.87C246.805 71.66 247.585 71.555 248.125 71.555C248.755 71.555 249.265 71.75 249.655 72.14C250.075 72.53 250.315 73.37 250.375 74.66C251.125 73.73 252.07 72.98 253.21 72.41C254.38 71.84 255.73 71.555 257.26 71.555C259.36 71.555 260.935 72.095 261.985 73.175C263.065 74.225 263.605 76.025 263.605 78.575V90.86C263.605 92.33 264.325 93.2 265.765 93.47L265.81 94.775C265.51 95.075 265.03 95.345 264.37 95.585C263.71 95.795 262.99 95.96 262.21 96.08C261.46 96.2 260.755 96.26 260.095 96.26C258.805 96.26 257.845 96.02 257.215 95.54C256.615 95.06 256.315 94.295 256.315 93.245V79.205C256.315 77.975 256.045 77.12 255.505 76.64C254.965 76.16 254.305 75.92 253.525 75.92C252.295 75.92 251.26 76.415 250.42 77.405V91.13C250.42 92 250.6 92.63 250.96 93.02C251.35 93.41 251.995 93.605 252.895 93.605C252.895 94.505 252.55 95.3 251.86 95.99H241.645ZM277.167 96.575C275.547 96.575 274.017 96.17 272.577 95.36C271.167 94.52 270.027 93.26 269.157 91.58C268.287 89.9 267.852 87.785 267.852 85.235C267.852 82.205 268.407 79.685 269.517 77.675C270.657 75.665 272.127 74.165 273.927 73.175C275.757 72.185 277.707 71.69 279.777 71.69C280.167 71.69 280.602 71.705 281.082 71.735C281.562 71.765 282.042 71.81 282.522 71.87L282.387 69.17V66.92C282.387 66.23 282.192 65.69 281.802 65.3C281.412 64.91 280.602 64.715 279.372 64.715V62.87C280.122 62.45 281.007 62.075 282.027 61.745C283.047 61.415 284.052 61.16 285.042 60.98C286.032 60.77 286.827 60.665 287.427 60.665C288.117 60.665 288.612 60.83 288.912 61.16C289.242 61.46 289.407 61.985 289.407 62.735V90.995C289.407 92.465 290.127 93.335 291.567 93.605L291.612 94.865C291.192 95.435 290.547 95.855 289.677 96.125C288.807 96.425 287.922 96.575 287.022 96.575C286.242 96.575 285.417 96.395 284.547 96.035C283.677 95.705 283.062 95.18 282.702 94.46C282.072 95.3 281.292 95.855 280.362 96.125C279.462 96.425 278.397 96.575 277.167 96.575ZM280.272 92.75C281.202 92.75 281.907 92.48 282.387 91.94V76.19C281.757 75.32 280.917 74.885 279.867 74.885C279.057 74.885 278.322 75.17 277.662 75.74C277.002 76.28 276.477 77.195 276.087 78.485C275.697 79.745 275.502 81.47 275.502 83.66C275.502 86.75 275.952 89.045 276.852 90.545C277.782 92.015 278.922 92.75 280.272 92.75ZM304.586 96.395C301.226 96.395 298.541 95.33 296.531 93.2C294.551 91.07 293.561 88.1 293.561 84.29C293.561 81.68 294.056 79.43 295.046 77.54C296.036 75.62 297.371 74.15 299.051 73.13C300.761 72.11 302.696 71.6 304.856 71.6C307.556 71.6 309.716 72.395 311.336 73.985C312.986 75.545 313.811 77.75 313.811 80.6C313.811 81.74 313.616 82.745 313.226 83.615C312.866 84.455 312.101 84.875 310.931 84.875H301.211C301.301 87.245 301.841 88.925 302.831 89.915C303.851 90.905 305.171 91.4 306.791 91.4C307.811 91.4 308.756 91.25 309.626 90.95C310.496 90.62 311.306 90.17 312.056 89.6C312.326 89.84 312.536 90.215 312.686 90.725C312.866 91.205 312.956 91.61 312.956 91.94C312.956 92.42 312.611 93.02 311.921 93.74C311.261 94.43 310.301 95.045 309.041 95.585C307.811 96.125 306.326 96.395 304.586 96.395ZM301.211 81.455H305.756C306.266 81.455 306.581 81.26 306.701 80.87C306.851 80.48 306.926 80 306.926 79.43C306.926 77.51 306.686 76.25 306.206 75.65C305.756 75.02 305.216 74.705 304.586 74.705C304.076 74.705 303.566 74.9 303.056 75.29C302.546 75.68 302.126 76.37 301.796 77.36C301.466 78.32 301.271 79.685 301.211 81.455ZM335.965 96.665C333.775 96.665 331.84 96.17 330.16 95.18C328.51 94.19 327.205 92.78 326.245 90.95C325.315 89.09 324.85 86.87 324.85 84.29C324.85 81.62 325.36 79.34 326.38 77.45C327.4 75.53 328.795 74.075 330.565 73.085C332.335 72.065 334.33 71.555 336.55 71.555C338.86 71.555 340.615 72.11 341.815 73.22C343.015 74.3 343.615 75.635 343.615 77.225C343.615 78.665 343.255 79.775 342.535 80.555C341.815 81.335 340.885 81.725 339.745 81.725C338.815 81.725 338.035 81.38 337.405 80.69C336.775 80 336.46 79.16 336.46 78.17C336.46 77.45 336.58 76.865 336.82 76.415C337.09 75.965 337.42 75.59 337.81 75.29C337.51 75.11 337.255 75.005 337.045 74.975C336.865 74.915 336.685 74.885 336.505 74.885C335.935 74.885 335.35 75.11 334.75 75.56C334.15 76.01 333.64 76.805 333.22 77.945C332.83 79.085 332.635 80.675 332.635 82.715C332.635 86.015 333.115 88.34 334.075 89.69C335.035 91.01 336.385 91.67 338.125 91.67C338.935 91.67 339.745 91.55 340.555 91.31C341.395 91.07 342.1 90.725 342.67 90.275C342.91 90.575 343.105 90.95 343.255 91.4C343.435 91.82 343.525 92.195 343.525 92.525C343.525 93.155 343.18 93.8 342.49 94.46C341.83 95.09 340.93 95.615 339.79 96.035C338.65 96.455 337.375 96.665 335.965 96.665ZM356.306 96.575C354.176 96.575 352.286 96.125 350.636 95.225C348.986 94.295 347.696 92.945 346.766 91.175C345.866 89.375 345.416 87.155 345.416 84.515C345.416 81.695 345.896 79.325 346.856 77.405C347.816 75.485 349.151 74.03 350.861 73.04C352.571 72.05 354.536 71.555 356.756 71.555C358.916 71.555 360.806 72.02 362.426 72.95C364.076 73.88 365.351 75.26 366.251 77.09C367.181 78.89 367.646 81.125 367.646 83.795C367.646 86.585 367.166 88.94 366.206 90.86C365.246 92.75 363.911 94.175 362.201 95.135C360.491 96.095 358.526 96.575 356.306 96.575ZM356.666 93.335C357.296 93.335 357.836 93.11 358.286 92.66C358.766 92.21 359.126 91.385 359.366 90.185C359.636 88.955 359.771 87.185 359.771 84.875C359.771 82.055 359.636 79.925 359.366 78.485C359.096 77.015 358.706 76.025 358.196 75.515C357.686 75.005 357.086 74.75 356.396 74.75C355.766 74.75 355.211 74.975 354.731 75.425C354.251 75.875 353.876 76.715 353.606 77.945C353.366 79.175 353.246 80.96 353.246 83.3C353.246 86.09 353.381 88.205 353.651 89.645C353.951 91.085 354.356 92.06 354.866 92.57C355.376 93.08 355.976 93.335 356.666 93.335ZM403.145 96.26C402.035 96.26 401.075 96.11 400.265 95.81C399.485 95.48 399.095 94.85 399.095 93.92V78.935C399.095 77.975 398.825 77.24 398.285 76.73C397.775 76.19 397.085 75.92 396.215 75.92C395.735 75.92 395.24 76.01 394.73 76.19C394.25 76.37 393.815 76.64 393.425 77C393.455 77.12 393.47 77.24 393.47 77.36C393.47 77.45 393.47 77.555 393.47 77.675V91.13C393.47 92 393.65 92.63 394.01 93.02C394.37 93.38 394.94 93.56 395.72 93.56C395.72 94.04 395.615 94.49 395.405 94.91C395.225 95.3 394.97 95.66 394.64 95.99H385.055C384.755 95.66 384.5 95.3 384.29 94.91C384.11 94.49 384.02 94.04 384.02 93.56C384.8 93.56 385.34 93.38 385.64 93.02C385.97 92.63 386.135 92 386.135 91.13V78.935C386.135 77.975 385.85 77.24 385.28 76.73C384.74 76.19 384.08 75.92 383.3 75.92C382.73 75.92 382.145 76.055 381.545 76.325C380.945 76.595 380.435 76.985 380.015 77.495V91.13C380.015 92 380.165 92.63 380.465 93.02C380.795 93.38 381.335 93.56 382.085 93.56C382.085 94.49 381.725 95.3 381.005 95.99H371.24C370.91 95.66 370.64 95.3 370.43 94.91C370.25 94.49 370.16 94.04 370.16 93.56C371.06 93.56 371.705 93.38 372.095 93.02C372.485 92.63 372.68 92 372.68 91.13V77.945C372.68 77.165 372.455 76.595 372.005 76.235C371.585 75.875 370.805 75.695 369.665 75.695V73.715C370.355 73.295 371.225 72.92 372.275 72.59C373.355 72.26 374.39 72.005 375.38 71.825C376.4 71.615 377.18 71.51 377.72 71.51C378.32 71.51 378.815 71.705 379.205 72.095C379.625 72.455 379.895 73.22 380.015 74.39C380.795 73.52 381.77 72.83 382.94 72.32C384.14 71.78 385.49 71.51 386.99 71.51C389.99 71.51 391.94 72.515 392.84 74.525C393.62 73.565 394.625 72.83 395.855 72.32C397.115 71.78 398.51 71.51 400.04 71.51C402.2 71.51 403.805 72.035 404.855 73.085C405.935 74.135 406.475 75.665 406.475 77.675V91.13C406.475 91.82 406.67 92.345 407.06 92.705C407.45 93.065 407.99 93.32 408.68 93.47V94.775C408.14 95.255 407.435 95.63 406.565 95.9C405.695 96.14 404.555 96.26 403.145 96.26ZM421.744 96.395C418.384 96.395 415.699 95.33 413.689 93.2C411.709 91.07 410.719 88.1 410.719 84.29C410.719 81.68 411.214 79.43 412.204 77.54C413.194 75.62 414.529 74.15 416.209 73.13C417.919 72.11 419.854 71.6 422.014 71.6C424.714 71.6 426.874 72.395 428.494 73.985C430.144 75.545 430.969 77.75 430.969 80.6C430.969 81.74 430.774 82.745 430.384 83.615C430.024 84.455 429.259 84.875 428.089 84.875H418.369C418.459 87.245 418.999 88.925 419.989 89.915C421.009 90.905 422.329 91.4 423.949 91.4C424.969 91.4 425.914 91.25 426.784 90.95C427.654 90.62 428.464 90.17 429.214 89.6C429.484 89.84 429.694 90.215 429.844 90.725C430.024 91.205 430.114 91.61 430.114 91.94C430.114 92.42 429.769 93.02 429.079 93.74C428.419 94.43 427.459 95.045 426.199 95.585C424.969 96.125 423.484 96.395 421.744 96.395ZM418.369 81.455H422.914C423.424 81.455 423.739 81.26 423.859 80.87C424.009 80.48 424.084 80 424.084 79.43C424.084 77.51 423.844 76.25 423.364 75.65C422.914 75.02 422.374 74.705 421.744 74.705C421.234 74.705 420.724 74.9 420.214 75.29C419.704 75.68 419.284 76.37 418.954 77.36C418.624 78.32 418.429 79.685 418.369 81.455ZM434.384 95.99C434.054 95.66 433.799 95.3 433.619 94.91C433.439 94.52 433.349 94.07 433.349 93.56C434.219 93.56 434.834 93.38 435.194 93.02C435.584 92.63 435.779 91.985 435.779 91.085V78.08C435.779 77.3 435.569 76.745 435.149 76.415C434.729 76.055 433.949 75.875 432.809 75.875V73.85C433.529 73.43 434.384 73.07 435.374 72.77C436.364 72.44 437.339 72.185 438.299 72.005C439.259 71.795 440.009 71.69 440.549 71.69C441.239 71.69 441.734 71.93 442.034 72.41C442.364 72.89 442.529 73.925 442.529 75.515C442.859 74.885 443.339 74.27 443.969 73.67C444.629 73.04 445.364 72.53 446.174 72.14C446.984 71.75 447.824 71.555 448.694 71.555C450.104 71.555 451.109 71.915 451.709 72.635C452.309 73.355 452.609 74.285 452.609 75.425C452.609 76.715 452.279 77.765 451.619 78.575C450.959 79.385 450.044 79.79 448.874 79.79C447.854 79.79 447.044 79.505 446.444 78.935C445.844 78.335 445.544 77.66 445.544 76.91C445.544 76.43 445.589 76.055 445.679 75.785C445.199 75.905 444.734 76.07 444.284 76.28C443.834 76.46 443.384 76.76 442.934 77.18V90.68C442.934 91.37 443.039 91.925 443.249 92.345C443.459 92.765 443.864 93.08 444.464 93.29C445.094 93.47 446.024 93.56 447.254 93.56C447.254 94.07 447.194 94.52 447.074 94.91C446.954 95.3 446.729 95.66 446.399 95.99H434.384ZM454.419 96.575C453.039 96.575 451.929 96.17 451.089 95.36C450.249 94.52 449.829 93.44 449.829 92.12C449.829 90.77 450.249 89.69 451.089 88.88C451.929 88.07 453.039 87.665 454.419 87.665C455.769 87.665 456.864 88.07 457.704 88.88C458.544 89.69 458.964 90.77 458.964 92.12C458.964 93.44 458.544 94.52 457.704 95.36C456.864 96.17 455.769 96.575 454.419 96.575Z" fill="white"/>
</svg>
