<svg width="118" height="16" viewBox="0 0 118 16" fill="none" xmlns="http://www.w3.org/2000/svg">
<path d="M-2.76566e-05 12.5455V0.90909H3.93179C4.84467 0.90909 5.59088 1.07386 6.17043 1.40341C6.75376 1.72917 7.18558 2.17045 7.46588 2.72727C7.74618 3.28409 7.88634 3.9053 7.88634 4.59091C7.88634 5.27651 7.74618 5.89962 7.46588 6.46023C7.18937 7.02083 6.76134 7.4678 6.18179 7.80114C5.60225 8.13068 4.85982 8.29545 3.95452 8.29545H1.13634V7.04545H3.90906C4.53406 7.04545 5.03596 6.9375 5.41475 6.72159C5.79353 6.50568 6.06815 6.21401 6.23861 5.84659C6.41285 5.47538 6.49997 5.05682 6.49997 4.59091C6.49997 4.125 6.41285 3.70833 6.23861 3.34091C6.06815 2.97348 5.79164 2.68561 5.40906 2.47727C5.02649 2.26515 4.51891 2.15909 3.88634 2.15909H1.40906V12.5455H-2.76566e-05ZM12.5426 12.75C11.9896 12.75 11.4877 12.6458 11.0369 12.4375C10.5861 12.2254 10.2282 11.9205 9.96304 11.5227C9.69789 11.1212 9.56531 10.6364 9.56531 10.0682C9.56531 9.56818 9.6638 9.16288 9.86077 8.85227C10.0577 8.53788 10.321 8.29167 10.6505 8.11364C10.9801 7.93561 11.3437 7.80303 11.7414 7.71591C12.143 7.625 12.5464 7.55303 12.9517 7.5C13.482 7.43182 13.9119 7.38068 14.2414 7.34659C14.5748 7.30871 14.8172 7.24621 14.9687 7.15909C15.124 7.07197 15.2017 6.92045 15.2017 6.70454V6.65909C15.2017 6.09848 15.0483 5.66288 14.7414 5.35227C14.4384 5.04167 13.9782 4.88636 13.3608 4.88636C12.7206 4.88636 12.2187 5.02651 11.8551 5.30682C11.4914 5.58712 11.2358 5.88636 11.088 6.20454L9.81531 5.75C10.0426 5.2197 10.3456 4.80682 10.7244 4.51136C11.107 4.21212 11.5236 4.00379 11.9744 3.88636C12.4289 3.76515 12.8759 3.70455 13.3153 3.70455C13.5956 3.70455 13.9176 3.73864 14.2812 3.80682C14.6486 3.87121 15.0028 4.00568 15.3437 4.21023C15.6884 4.41477 15.9744 4.72348 16.2017 5.13636C16.4289 5.54924 16.5426 6.10227 16.5426 6.79545V12.5455H15.2017V11.3636H15.1335C15.0426 11.553 14.8911 11.7557 14.6789 11.9716C14.4668 12.1875 14.1846 12.3712 13.8324 12.5227C13.4801 12.6742 13.0502 12.75 12.5426 12.75ZM12.7471 11.5455C13.2774 11.5455 13.7244 11.4413 14.088 11.233C14.4555 11.0246 14.732 10.7557 14.9176 10.4261C15.107 10.0966 15.2017 9.75 15.2017 9.38636V8.15909C15.1449 8.22727 15.0199 8.28977 14.8267 8.34659C14.6373 8.39962 14.4176 8.44697 14.1676 8.48864C13.9214 8.52651 13.6808 8.56061 13.446 8.59091C13.2149 8.61742 13.0274 8.64015 12.8835 8.65909C12.535 8.70454 12.2093 8.77841 11.9062 8.88068C11.607 8.97917 11.3646 9.12879 11.1789 9.32954C10.9971 9.52651 10.9062 9.79545 10.9062 10.1364C10.9062 10.6023 11.0786 10.9545 11.4233 11.1932C11.7718 11.428 12.213 11.5455 12.7471 11.5455ZM12.7926 2.63636L14.1789 -9.53674e-07H15.7471L13.9744 2.63636H12.7926ZM22.5128 16C21.865 16 21.3082 15.9167 20.8423 15.75C20.3764 15.5871 19.9881 15.3712 19.6775 15.1023C19.3707 14.8371 19.1264 14.553 18.9446 14.25L20.0128 13.5C20.134 13.6591 20.2874 13.8409 20.473 14.0455C20.6586 14.2538 20.9124 14.4337 21.2343 14.5852C21.5601 14.7405 21.9862 14.8182 22.5128 14.8182C23.2173 14.8182 23.7987 14.6477 24.2571 14.3068C24.7154 13.9659 24.9446 13.4318 24.9446 12.7045V10.9318H24.8309C24.7325 11.0909 24.5923 11.2879 24.4105 11.5227C24.2325 11.7538 23.9749 11.9602 23.6378 12.142C23.3044 12.3201 22.8537 12.4091 22.2855 12.4091C21.5809 12.4091 20.9484 12.2424 20.3878 11.9091C19.8309 11.5758 19.3897 11.0909 19.0639 10.4545C18.7419 9.81818 18.5809 9.04545 18.5809 8.13636C18.5809 7.24242 18.7381 6.46401 19.0525 5.80114C19.3669 5.13447 19.8044 4.61932 20.365 4.25568C20.9256 3.88826 21.5734 3.70455 22.3082 3.70455C22.8764 3.70455 23.3272 3.79924 23.6605 3.98864C23.9976 4.17424 24.2552 4.38636 24.4332 4.625C24.615 4.85985 24.7552 5.05303 24.8537 5.20454H24.99V3.81818H26.2855V12.7955C26.2855 13.5455 26.115 14.1553 25.7741 14.625C25.437 15.0985 24.9825 15.4451 24.4105 15.6648C23.8423 15.8883 23.2097 16 22.5128 16ZM22.4673 11.2045C23.0052 11.2045 23.4597 11.0814 23.8309 10.8352C24.2022 10.589 24.4843 10.2348 24.6775 9.77273C24.8707 9.31061 24.9673 8.75758 24.9673 8.11364C24.9673 7.48485 24.8726 6.92992 24.6832 6.44886C24.4938 5.9678 24.2135 5.59091 23.8423 5.31818C23.4711 5.04545 23.0128 4.90909 22.4673 4.90909C21.8991 4.90909 21.4256 5.05303 21.0468 5.34091C20.6718 5.62879 20.3897 6.01515 20.2003 6.5C20.0147 6.98485 19.9218 7.52273 19.9218 8.11364C19.9218 8.7197 20.0165 9.25568 20.2059 9.72159C20.3991 10.1837 20.6832 10.5473 21.0582 10.8125C21.437 11.0739 21.9067 11.2045 22.4673 11.2045ZM28.74 12.5455V3.81818H30.0809V12.5455H28.74ZM29.4218 2.36364C29.1605 2.36364 28.9351 2.27462 28.7457 2.09659C28.5601 1.91856 28.4673 1.70455 28.4673 1.45455C28.4673 1.20455 28.5601 0.99053 28.7457 0.812499C28.9351 0.634469 29.1605 0.545454 29.4218 0.545454C29.6832 0.545454 29.9067 0.634469 30.0923 0.812499C30.2817 0.99053 30.3764 1.20455 30.3764 1.45455C30.3764 1.70455 30.2817 1.91856 30.0923 2.09659C29.9067 2.27462 29.6832 2.36364 29.4218 2.36364ZM33.8778 7.29545V12.5455H32.5369V3.81818H33.8324V5.18182H33.946C34.1505 4.73864 34.4611 4.38258 34.8778 4.11364C35.2945 3.84091 35.8324 3.70455 36.4914 3.70455C37.0824 3.70455 37.5994 3.82576 38.0426 4.06818C38.4858 4.30682 38.8305 4.67045 39.0767 5.15909C39.3229 5.64394 39.446 6.25758 39.446 7V12.5455H38.1051V7.09091C38.1051 6.4053 37.9271 5.87121 37.571 5.48864C37.2149 5.10227 36.7263 4.90909 36.1051 4.90909C35.6771 4.90909 35.2945 5.00189 34.9574 5.1875C34.624 5.37311 34.3608 5.64394 34.1676 6C33.9744 6.35606 33.8778 6.78788 33.8778 7.29545ZM44.4645 12.75C43.9114 12.75 43.4095 12.6458 42.9588 12.4375C42.508 12.2254 42.1501 11.9205 41.8849 11.5227C41.6198 11.1212 41.4872 10.6364 41.4872 10.0682C41.4872 9.56818 41.5857 9.16288 41.7826 8.85227C41.9796 8.53788 42.2429 8.29167 42.5724 8.11364C42.902 7.93561 43.2656 7.80303 43.6633 7.71591C44.0648 7.625 44.4682 7.55303 44.8736 7.5C45.4039 7.43182 45.8338 7.38068 46.1633 7.34659C46.4967 7.30871 46.7391 7.24621 46.8906 7.15909C47.0459 7.07197 47.1236 6.92045 47.1236 6.70454V6.65909C47.1236 6.09848 46.9701 5.66288 46.6633 5.35227C46.3603 5.04167 45.9001 4.88636 45.2826 4.88636C44.6425 4.88636 44.1406 5.02651 43.777 5.30682C43.4133 5.58712 43.1576 5.88636 43.0099 6.20454L41.7372 5.75C41.9645 5.2197 42.2675 4.80682 42.6463 4.51136C43.0289 4.21212 43.4455 4.00379 43.8963 3.88636C44.3508 3.76515 44.7978 3.70455 45.2372 3.70455C45.5175 3.70455 45.8395 3.73864 46.2031 3.80682C46.5705 3.87121 46.9247 4.00568 47.2656 4.21023C47.6103 4.41477 47.8963 4.72348 48.1236 5.13636C48.3508 5.54924 48.4645 6.10227 48.4645 6.79545V12.5455H47.1236V11.3636H47.0554C46.9645 11.553 46.8129 11.7557 46.6008 11.9716C46.3887 12.1875 46.1065 12.3712 45.7542 12.5227C45.402 12.6742 44.972 12.75 44.4645 12.75ZM44.669 11.5455C45.1993 11.5455 45.6463 11.4413 46.0099 11.233C46.3773 11.0246 46.6539 10.7557 46.8395 10.4261C47.0289 10.0966 47.1236 9.75 47.1236 9.38636V8.15909C47.0667 8.22727 46.9417 8.28977 46.7486 8.34659C46.5592 8.39962 46.3395 8.44697 46.0895 8.48864C45.8432 8.52651 45.6027 8.56061 45.3679 8.59091C45.1368 8.61742 44.9493 8.64015 44.8054 8.65909C44.4569 8.70454 44.1311 8.77841 43.8281 8.88068C43.5289 8.97917 43.2864 9.12879 43.1008 9.32954C42.919 9.52651 42.8281 9.79545 42.8281 10.1364C42.8281 10.6023 43.0004 10.9545 43.3451 11.1932C43.6936 11.428 44.1349 11.5455 44.669 11.5455ZM55.4119 15.8182V3.81818H56.7074V5.20454H56.8664C56.9649 5.05303 57.1013 4.85985 57.2755 4.625C57.4536 4.38636 57.7074 4.17424 58.0369 3.98864C58.3702 3.79924 58.821 3.70455 59.3892 3.70455C60.124 3.70455 60.7718 3.88826 61.3324 4.25568C61.893 4.62311 62.3305 5.14394 62.6449 5.81818C62.9593 6.49242 63.1164 7.28788 63.1164 8.20455C63.1164 9.12879 62.9593 9.92992 62.6449 10.608C62.3305 11.2822 61.8949 11.8049 61.338 12.1761C60.7812 12.5436 60.1392 12.7273 59.4119 12.7273C58.8513 12.7273 58.4024 12.6345 58.0653 12.4489C57.7282 12.2595 57.4687 12.0455 57.2869 11.8068C57.1051 11.5644 56.9649 11.3636 56.8664 11.2045H56.7528V15.8182H55.4119ZM56.7301 8.18182C56.7301 8.84091 56.8267 9.42235 57.0199 9.92614C57.213 10.4261 57.4952 10.8182 57.8664 11.1023C58.2377 11.3826 58.6922 11.5227 59.2301 11.5227C59.7907 11.5227 60.2585 11.375 60.6335 11.0795C61.0123 10.7803 61.2964 10.3788 61.4858 9.875C61.6789 9.36742 61.7755 8.80303 61.7755 8.18182C61.7755 7.56818 61.6808 7.01515 61.4914 6.52273C61.3058 6.02651 61.0236 5.63447 60.6449 5.34659C60.2699 5.05492 59.7983 4.90909 59.2301 4.90909C58.6846 4.90909 58.2263 5.04735 57.8551 5.32386C57.4839 5.59659 57.2036 5.97917 57.0142 6.47159C56.8248 6.96023 56.7301 7.5303 56.7301 8.18182ZM65.1619 12.5455V3.81818H66.4574V5.13636H66.5483C66.7074 4.70455 66.9952 4.35417 67.4119 4.08523C67.8286 3.81629 68.2983 3.68182 68.821 3.68182C68.9195 3.68182 69.0426 3.68371 69.1903 3.6875C69.338 3.69129 69.4498 3.69697 69.5255 3.70455V5.06818C69.4801 5.05682 69.3759 5.03977 69.213 5.01704C69.0539 4.99053 68.8854 4.97727 68.7074 4.97727C68.2831 4.97727 67.9043 5.06629 67.571 5.24432C67.2414 5.41856 66.9801 5.66098 66.7869 5.97159C66.5975 6.27841 66.5028 6.62879 66.5028 7.02273V12.5455H65.1619ZM71.115 12.5455V3.81818H72.4559V12.5455H71.115ZM71.7968 2.36364C71.5355 2.36364 71.3101 2.27462 71.1207 2.09659C70.9351 1.91856 70.8423 1.70455 70.8423 1.45455C70.8423 1.20455 70.9351 0.99053 71.1207 0.812499C71.3101 0.634469 71.5355 0.545454 71.7968 0.545454C72.0582 0.545454 72.2817 0.634469 72.4673 0.812499C72.6567 0.99053 72.7514 1.20455 72.7514 1.45455C72.7514 1.70455 72.6567 1.91856 72.4673 2.09659C72.2817 2.27462 72.0582 2.36364 71.7968 2.36364ZM76.2528 7.29545V12.5455H74.9119V3.81818H76.2074V5.18182H76.321C76.5255 4.73864 76.8361 4.38258 77.2528 4.11364C77.6695 3.84091 78.2074 3.70455 78.8664 3.70455C79.4574 3.70455 79.9744 3.82576 80.4176 4.06818C80.8608 4.30682 81.2055 4.67045 81.4517 5.15909C81.6979 5.64394 81.821 6.25758 81.821 7V12.5455H80.4801V7.09091C80.4801 6.4053 80.3021 5.87121 79.946 5.48864C79.5899 5.10227 79.1013 4.90909 78.4801 4.90909C78.0521 4.90909 77.6695 5.00189 77.3324 5.1875C76.999 5.37311 76.7358 5.64394 76.5426 6C76.3494 6.35606 76.2528 6.78788 76.2528 7.29545ZM87.8167 12.7273C86.9986 12.7273 86.294 12.5341 85.7031 12.1477C85.1122 11.7614 84.6576 11.2292 84.3395 10.5511C84.0213 9.87311 83.8622 9.09848 83.8622 8.22727C83.8622 7.34091 84.0251 6.55871 84.3508 5.88068C84.6804 5.19886 85.1387 4.66667 85.7258 4.28409C86.3167 3.89773 87.0061 3.70455 87.794 3.70455C88.4076 3.70455 88.9607 3.81818 89.4531 4.04545C89.9455 4.27273 90.3489 4.59091 90.6633 5C90.9777 5.40909 91.1728 5.88636 91.2486 6.43182H89.9076C89.8054 6.03409 89.5781 5.68182 89.2258 5.375C88.8773 5.06439 88.4076 4.90909 87.8167 4.90909C87.294 4.90909 86.8357 5.04545 86.4417 5.31818C86.0516 5.58712 85.7467 5.9678 85.527 6.46023C85.3111 6.94886 85.2031 7.52273 85.2031 8.18182C85.2031 8.85606 85.3092 9.44318 85.5213 9.94318C85.7372 10.4432 86.0402 10.8314 86.4304 11.108C86.8243 11.3845 87.2864 11.5227 87.8167 11.5227C88.1652 11.5227 88.4815 11.4621 88.7656 11.3409C89.0497 11.2197 89.2902 11.0455 89.4872 10.8182C89.6842 10.5909 89.8243 10.3182 89.9076 10H91.2486C91.1728 10.5152 90.9853 10.9792 90.6861 11.392C90.3906 11.8011 89.9986 12.1269 89.5099 12.3693C89.0251 12.608 88.4607 12.7273 87.8167 12.7273ZM93.2088 12.5455V3.81818H94.5497V12.5455H93.2088ZM93.8906 2.36364C93.6292 2.36364 93.4039 2.27462 93.2145 2.09659C93.0289 1.91856 92.9361 1.70455 92.9361 1.45455C92.9361 1.20455 93.0289 0.99053 93.2145 0.812499C93.4039 0.634469 93.6292 0.545454 93.8906 0.545454C94.152 0.545454 94.3754 0.634469 94.5611 0.812499C94.7504 0.99053 94.8451 1.20455 94.8451 1.45455C94.8451 1.70455 94.7504 1.91856 94.5611 2.09659C94.3754 2.27462 94.152 2.36364 93.8906 2.36364ZM97.0057 15.8182V3.81818H98.3011V5.20454H98.4602C98.5587 5.05303 98.695 4.85985 98.8693 4.625C99.0473 4.38636 99.3011 4.17424 99.6307 3.98864C99.964 3.79924 100.415 3.70455 100.983 3.70455C101.718 3.70455 102.366 3.88826 102.926 4.25568C103.487 4.62311 103.924 5.14394 104.239 5.81818C104.553 6.49242 104.71 7.28788 104.71 8.20455C104.71 9.12879 104.553 9.92992 104.239 10.608C103.924 11.2822 103.489 11.8049 102.932 12.1761C102.375 12.5436 101.733 12.7273 101.006 12.7273C100.445 12.7273 99.9962 12.6345 99.6591 12.4489C99.3219 12.2595 99.0625 12.0455 98.8807 11.8068C98.6988 11.5644 98.5587 11.3636 98.4602 11.2045H98.3466V15.8182H97.0057ZM98.3238 8.18182C98.3238 8.84091 98.4204 9.42235 98.6136 9.92614C98.8068 10.4261 99.089 10.8182 99.4602 11.1023C99.8314 11.3826 100.286 11.5227 100.824 11.5227C101.384 11.5227 101.852 11.375 102.227 11.0795C102.606 10.7803 102.89 10.3788 103.08 9.875C103.273 9.36742 103.369 8.80303 103.369 8.18182C103.369 7.56818 103.275 7.01515 103.085 6.52273C102.9 6.02651 102.617 5.63447 102.239 5.34659C101.864 5.05492 101.392 4.90909 100.824 4.90909C100.278 4.90909 99.82 5.04735 99.4488 5.32386C99.0776 5.59659 98.7973 5.97917 98.6079 6.47159C98.4185 6.96023 98.3238 7.5303 98.3238 8.18182ZM109.324 12.75C108.771 12.75 108.269 12.6458 107.818 12.4375C107.367 12.2254 107.009 11.9205 106.744 11.5227C106.479 11.1212 106.347 10.6364 106.347 10.0682C106.347 9.56818 106.445 9.16288 106.642 8.85227C106.839 8.53788 107.102 8.29167 107.432 8.11364C107.761 7.93561 108.125 7.80303 108.523 7.71591C108.924 7.625 109.328 7.55303 109.733 7.5C110.263 7.43182 110.693 7.38068 111.023 7.34659C111.356 7.30871 111.598 7.24621 111.75 7.15909C111.905 7.07197 111.983 6.92045 111.983 6.70454V6.65909C111.983 6.09848 111.83 5.66288 111.523 5.35227C111.22 5.04167 110.759 4.88636 110.142 4.88636C109.502 4.88636 109 5.02651 108.636 5.30682C108.273 5.58712 108.017 5.88636 107.869 6.20454L106.597 5.75C106.824 5.2197 107.127 4.80682 107.506 4.51136C107.888 4.21212 108.305 4.00379 108.756 3.88636C109.21 3.76515 109.657 3.70455 110.097 3.70455C110.377 3.70455 110.699 3.73864 111.062 3.80682C111.43 3.87121 111.784 4.00568 112.125 4.21023C112.47 4.41477 112.756 4.72348 112.983 5.13636C113.21 5.54924 113.324 6.10227 113.324 6.79545V12.5455H111.983V11.3636H111.915C111.824 11.553 111.672 11.7557 111.46 11.9716C111.248 12.1875 110.966 12.3712 110.614 12.5227C110.261 12.6742 109.831 12.75 109.324 12.75ZM109.528 11.5455C110.059 11.5455 110.506 11.4413 110.869 11.233C111.237 11.0246 111.513 10.7557 111.699 10.4261C111.888 10.0966 111.983 9.75 111.983 9.38636V8.15909C111.926 8.22727 111.801 8.28977 111.608 8.34659C111.419 8.39962 111.199 8.44697 110.949 8.48864C110.703 8.52651 110.462 8.56061 110.227 8.59091C109.996 8.61742 109.809 8.64015 109.665 8.65909C109.316 8.70454 108.991 8.77841 108.687 8.88068C108.388 8.97917 108.146 9.12879 107.96 9.32954C107.778 9.52651 107.687 9.79545 107.687 10.1364C107.687 10.6023 107.86 10.9545 108.205 11.1932C108.553 11.428 108.994 11.5455 109.528 11.5455ZM117.112 0.90909V12.5455H115.771V0.90909H117.112Z" fill="black"/>
</svg>
