<svg width="152" height="19" viewBox="0 0 152 19" fill="none" xmlns="http://www.w3.org/2000/svg">
<path d="M0 18.75V1.29545H7.53409C8.82955 1.29545 9.96307 1.55114 10.9347 2.0625C11.9063 2.57386 12.6619 3.29261 13.2017 4.21875C13.7415 5.14489 14.0114 6.22727 14.0114 7.46591C14.0114 8.71591 13.733 9.7983 13.1761 10.7131C12.625 11.6278 11.8494 12.3324 10.8494 12.8267C9.85511 13.321 8.69318 13.5682 7.36364 13.5682H2.86364V9.88636H6.40909C6.96591 9.88636 7.44034 9.78977 7.83239 9.59659C8.23011 9.39773 8.53409 9.11648 8.74432 8.75284C8.96023 8.3892 9.06818 7.96023 9.06818 7.46591C9.06818 6.96591 8.96023 6.53977 8.74432 6.1875C8.53409 5.82955 8.23011 5.55682 7.83239 5.36932C7.44034 5.17614 6.96591 5.07954 6.40909 5.07954H4.73864V18.75H0ZM15.8182 18.75V5.65909H20.3864V8.14773H20.5227C20.7614 7.22727 21.1392 6.55398 21.6562 6.12784C22.179 5.7017 22.7898 5.48864 23.4886 5.48864C23.6932 5.48864 23.8949 5.50568 24.0938 5.53977C24.2983 5.56818 24.4943 5.6108 24.6818 5.66761V9.68182C24.4489 9.60227 24.1619 9.54261 23.821 9.50284C23.4801 9.46307 23.1875 9.44318 22.9432 9.44318C22.483 9.44318 22.0682 9.5483 21.6989 9.75852C21.3352 9.96307 21.0483 10.2528 20.8381 10.6278C20.6278 10.9972 20.5227 11.4318 20.5227 11.9318V18.75H15.8182ZM31.7472 18.9886C30.3494 18.9886 29.1449 18.7216 28.1335 18.1875C27.1278 17.6477 26.3523 16.875 25.8068 15.8693C25.267 14.858 24.9972 13.6477 24.9972 12.2386C24.9972 10.8864 25.2699 9.70455 25.8153 8.69318C26.3608 7.68182 27.1307 6.89489 28.125 6.33239C29.1193 5.76989 30.2926 5.48864 31.6449 5.48864C32.6335 5.48864 33.5284 5.64205 34.3295 5.94886C35.1307 6.25568 35.8153 6.7017 36.3835 7.28693C36.9517 7.86648 37.3892 8.57102 37.696 9.40057C38.0028 10.2301 38.1562 11.1648 38.1562 12.2045V13.2955H26.4631V10.7045H33.8267C33.821 10.3295 33.7244 10 33.5369 9.71591C33.3551 9.42614 33.108 9.2017 32.7955 9.04261C32.4886 8.87784 32.1392 8.79545 31.7472 8.79545C31.3665 8.79545 31.017 8.87784 30.6989 9.04261C30.3807 9.2017 30.125 9.4233 29.9318 9.70739C29.7443 9.99148 29.6449 10.3239 29.6335 10.7045V13.5C29.6335 13.9205 29.7216 14.2955 29.8977 14.625C30.0739 14.9545 30.3267 15.2131 30.6562 15.4006C30.9858 15.5881 31.3835 15.6818 31.8494 15.6818C32.1733 15.6818 32.4688 15.6364 32.7358 15.5455C33.0085 15.4545 33.2415 15.3239 33.4347 15.1534C33.6278 14.9773 33.7699 14.767 33.8608 14.5227H38.1562C38.0085 15.4318 37.6591 16.2216 37.108 16.892C36.5568 17.5568 35.8267 18.0739 34.9176 18.4432C34.0142 18.8068 32.9574 18.9886 31.7472 18.9886ZM47.9169 5.65909V9.06818H39.1555V5.65909H47.9169ZM40.826 18.75V5.28409C40.826 4.20455 41.0192 3.30966 41.4055 2.59943C41.7919 1.8892 42.3374 1.35795 43.0419 1.00568C43.7464 0.653408 44.576 0.477272 45.5305 0.477272C46.1271 0.477272 46.7067 0.522727 47.2692 0.613636C47.8374 0.704545 48.2578 0.784091 48.5305 0.852272L47.8487 4.22727C47.6783 4.17614 47.4794 4.13636 47.2521 4.10795C47.0249 4.07386 46.826 4.05682 46.6555 4.05682C46.2124 4.05682 45.9141 4.15057 45.7607 4.33807C45.6072 4.52557 45.5305 4.77273 45.5305 5.07954V18.75H40.826ZM55.6065 18.9886C54.2088 18.9886 53.0043 18.7216 51.9929 18.1875C50.9872 17.6477 50.2116 16.875 49.6662 15.8693C49.1264 14.858 48.8565 13.6477 48.8565 12.2386C48.8565 10.8864 49.1293 9.70455 49.6747 8.69318C50.2202 7.68182 50.9901 6.89489 51.9844 6.33239C52.9787 5.76989 54.152 5.48864 55.5043 5.48864C56.4929 5.48864 57.3878 5.64205 58.1889 5.94886C58.9901 6.25568 59.6747 6.7017 60.2429 7.28693C60.8111 7.86648 61.2486 8.57102 61.5554 9.40057C61.8622 10.2301 62.0156 11.1648 62.0156 12.2045V13.2955H50.3224V10.7045H57.6861C57.6804 10.3295 57.5838 10 57.3963 9.71591C57.2145 9.42614 56.9673 9.2017 56.6548 9.04261C56.348 8.87784 55.9986 8.79545 55.6065 8.79545C55.2259 8.79545 54.8764 8.87784 54.5582 9.04261C54.2401 9.2017 53.9844 9.4233 53.7912 9.70739C53.6037 9.99148 53.5043 10.3239 53.4929 10.7045V13.5C53.4929 13.9205 53.581 14.2955 53.7571 14.625C53.9332 14.9545 54.1861 15.2131 54.5156 15.4006C54.8452 15.5881 55.2429 15.6818 55.7088 15.6818C56.0327 15.6818 56.3281 15.6364 56.5952 15.5455C56.8679 15.4545 57.1009 15.3239 57.294 15.1534C57.4872 14.9773 57.6293 14.767 57.7202 14.5227H62.0156C61.8679 15.4318 61.5185 16.2216 60.9673 16.892C60.4162 17.5568 59.6861 18.0739 58.777 18.4432C57.8736 18.8068 56.8168 18.9886 55.6065 18.9886ZM63.9354 18.75V5.65909H68.5036V8.14773H68.6399C68.8786 7.22727 69.2564 6.55398 69.7734 6.12784C70.2962 5.7017 70.907 5.48864 71.6058 5.48864C71.8104 5.48864 72.0121 5.50568 72.2109 5.53977C72.4155 5.56818 72.6115 5.6108 72.799 5.66761V9.68182C72.5661 9.60227 72.2791 9.54261 71.9382 9.50284C71.5973 9.46307 71.3047 9.44318 71.0604 9.44318C70.6001 9.44318 70.1854 9.5483 69.8161 9.75852C69.4524 9.96307 69.1655 10.2528 68.9553 10.6278C68.745 10.9972 68.6399 11.4318 68.6399 11.9318V18.75H63.9354ZM79.8643 18.9886C78.4666 18.9886 77.2621 18.7216 76.2507 18.1875C75.245 17.6477 74.4695 16.875 73.924 15.8693C73.3842 14.858 73.1143 13.6477 73.1143 12.2386C73.1143 10.8864 73.3871 9.70455 73.9325 8.69318C74.478 7.68182 75.2479 6.89489 76.2422 6.33239C77.2365 5.76989 78.4098 5.48864 79.7621 5.48864C80.7507 5.48864 81.6456 5.64205 82.4467 5.94886C83.2479 6.25568 83.9325 6.7017 84.5007 7.28693C85.0689 7.86648 85.5064 8.57102 85.8132 9.40057C86.12 10.2301 86.2734 11.1648 86.2734 12.2045V13.2955H74.5803V10.7045H81.9439C81.9382 10.3295 81.8416 10 81.6541 9.71591C81.4723 9.42614 81.2251 9.2017 80.9126 9.04261C80.6058 8.87784 80.2564 8.79545 79.8643 8.79545C79.4837 8.79545 79.1342 8.87784 78.8161 9.04261C78.4979 9.2017 78.2422 9.4233 78.049 9.70739C77.8615 9.99148 77.7621 10.3239 77.7507 10.7045V13.5C77.7507 13.9205 77.8388 14.2955 78.0149 14.625C78.1911 14.9545 78.4439 15.2131 78.7734 15.4006C79.103 15.5881 79.5007 15.6818 79.9666 15.6818C80.2905 15.6818 80.5859 15.6364 80.853 15.5455C81.1257 15.4545 81.3587 15.3239 81.5518 15.1534C81.745 14.9773 81.8871 14.767 81.978 14.5227H86.2734C86.1257 15.4318 85.7763 16.2216 85.2251 16.892C84.674 17.5568 83.9439 18.0739 83.0348 18.4432C82.1314 18.8068 81.0746 18.9886 79.8643 18.9886ZM81.3643 4.09091L79.6939 2.21591L78.0234 4.09091H74.1371V3.98864L78.0575 0.102272H81.3303L85.2507 3.98864V4.09091H81.3643ZM92.8977 11.3864V18.75H88.1932V5.65909H92.6591V8.14773H92.7955C93.0795 7.31818 93.5795 6.66761 94.2955 6.19602C95.017 5.72443 95.858 5.48864 96.8182 5.48864C97.7443 5.48864 98.5483 5.7017 99.2301 6.12784C99.9176 6.5483 100.449 7.12784 100.824 7.86648C101.205 8.60511 101.392 9.44886 101.386 10.3977V18.75H96.6818V11.3864C96.6875 10.7386 96.5227 10.2301 96.1875 9.8608C95.858 9.49148 95.3977 9.30682 94.8068 9.30682C94.4205 9.30682 94.0824 9.39205 93.7926 9.5625C93.5085 9.72727 93.2898 9.96591 93.1364 10.2784C92.983 10.5852 92.9034 10.9545 92.8977 11.3864ZM110.016 18.9886C108.595 18.9886 107.379 18.7074 106.368 18.1449C105.357 17.5767 104.581 16.7869 104.041 15.7756C103.501 14.7585 103.232 13.5795 103.232 12.2386C103.232 10.8977 103.501 9.72159 104.041 8.71023C104.581 7.69318 105.357 6.90341 106.368 6.34091C107.379 5.77273 108.595 5.48864 110.016 5.48864C111.3 5.48864 112.411 5.72159 113.348 6.1875C114.291 6.64773 115.021 7.30114 115.538 8.14773C116.055 8.98864 116.317 9.97727 116.322 11.1136H111.959C111.896 10.4261 111.697 9.90341 111.362 9.54545C111.033 9.18182 110.607 9 110.084 9C109.675 9 109.317 9.11932 109.01 9.35795C108.703 9.59091 108.464 9.94602 108.294 10.4233C108.124 10.8949 108.038 11.4886 108.038 12.2045C108.038 12.9205 108.124 13.517 108.294 13.9943C108.464 14.4659 108.703 14.821 109.01 15.0597C109.317 15.2926 109.675 15.4091 110.084 15.4091C110.43 15.4091 110.737 15.3295 111.004 15.1705C111.271 15.0057 111.487 14.767 111.652 14.4545C111.822 14.1364 111.925 13.75 111.959 13.2955H116.322C116.305 14.4489 116.041 15.4545 115.53 16.3125C115.018 17.1648 114.294 17.8239 113.357 18.2898C112.425 18.7557 111.311 18.9886 110.016 18.9886ZM118.263 18.75V5.65909H122.968V18.75H118.263ZM120.616 4.29545C119.979 4.29545 119.434 4.08523 118.979 3.66477C118.525 3.24432 118.298 2.73864 118.298 2.14773C118.298 1.55682 118.525 1.05114 118.979 0.630681C119.434 0.210227 119.979 0 120.616 0C121.258 0 121.803 0.210227 122.252 0.630681C122.707 1.05114 122.934 1.55682 122.934 2.14773C122.934 2.73864 122.707 3.24432 122.252 3.66477C121.803 4.08523 121.258 4.29545 120.616 4.29545ZM129.013 18.9545C128.178 18.9545 127.439 18.8182 126.797 18.5455C126.161 18.267 125.661 17.8466 125.297 17.2841C124.933 16.7216 124.751 16.0057 124.751 15.1364C124.751 14.4205 124.874 13.8097 125.118 13.304C125.362 12.7926 125.703 12.375 126.141 12.0511C126.578 11.7273 127.087 11.4801 127.666 11.3097C128.251 11.1392 128.882 11.0284 129.558 10.9773C130.291 10.9205 130.879 10.8523 131.322 10.7727C131.771 10.6875 132.095 10.571 132.294 10.4233C132.493 10.2699 132.592 10.0682 132.592 9.81818V9.78409C132.592 9.44318 132.462 9.18182 132.2 9C131.939 8.81818 131.604 8.72727 131.195 8.72727C130.746 8.72727 130.379 8.8267 130.095 9.02557C129.817 9.21875 129.649 9.51705 129.592 9.92045H125.263C125.32 9.125 125.572 8.39205 126.021 7.72159C126.476 7.04545 127.138 6.50568 128.007 6.10227C128.876 5.69318 129.962 5.48864 131.263 5.48864C132.2 5.48864 133.041 5.59943 133.786 5.82102C134.53 6.03693 135.163 6.34091 135.686 6.73295C136.209 7.11932 136.607 7.57386 136.879 8.09659C137.158 8.61364 137.297 9.17614 137.297 9.78409V18.75H132.899V16.9091H132.797C132.536 17.3977 132.217 17.7926 131.842 18.0938C131.473 18.3949 131.05 18.6136 130.572 18.75C130.101 18.8864 129.581 18.9545 129.013 18.9545ZM130.547 15.9886C130.905 15.9886 131.24 15.9148 131.553 15.767C131.871 15.6193 132.129 15.4062 132.328 15.1278C132.527 14.8494 132.626 14.5114 132.626 14.1136V13.0227C132.501 13.0739 132.368 13.1222 132.226 13.1676C132.089 13.2131 131.942 13.2557 131.783 13.2955C131.629 13.3352 131.464 13.3722 131.288 13.4062C131.118 13.4403 130.939 13.4716 130.751 13.5C130.388 13.5568 130.089 13.6506 129.857 13.7812C129.629 13.9062 129.459 14.0625 129.345 14.25C129.237 14.4318 129.183 14.6364 129.183 14.8636C129.183 15.2273 129.311 15.5057 129.567 15.6989C129.822 15.892 130.149 15.9886 130.547 15.9886ZM151.511 9.92045H147.181C147.158 9.65341 147.065 9.4233 146.9 9.23011C146.735 9.03693 146.522 8.8892 146.261 8.78693C146.005 8.67898 145.721 8.625 145.408 8.625C145.005 8.625 144.658 8.69886 144.369 8.84659C144.079 8.99432 143.937 9.20455 143.942 9.47727C143.937 9.67045 144.019 9.84943 144.19 10.0142C144.366 10.179 144.704 10.3068 145.204 10.3977L147.863 10.875C149.204 11.1193 150.201 11.5312 150.854 12.1108C151.513 12.6847 151.846 13.4545 151.852 14.4205C151.846 15.3523 151.567 16.1619 151.016 16.8494C150.471 17.5312 149.724 18.0597 148.775 18.4347C147.832 18.804 146.755 18.9886 145.545 18.9886C143.545 18.9886 141.979 18.5795 140.849 17.7614C139.724 16.9432 139.096 15.8636 138.965 14.5227H143.636C143.698 14.9375 143.903 15.2585 144.249 15.4858C144.602 15.7074 145.045 15.8182 145.579 15.8182C146.011 15.8182 146.366 15.7443 146.644 15.5966C146.928 15.4489 147.073 15.2386 147.079 14.9659C147.073 14.7159 146.948 14.517 146.704 14.3693C146.465 14.2216 146.09 14.1023 145.579 14.0114L143.261 13.6023C141.925 13.3693 140.925 12.9261 140.261 12.2727C139.596 11.6193 139.266 10.7784 139.272 9.75C139.266 8.84091 139.505 8.07102 139.988 7.44034C140.477 6.80398 141.173 6.32102 142.076 5.99148C142.985 5.65625 144.062 5.48864 145.306 5.48864C147.198 5.48864 148.69 5.88068 149.781 6.66477C150.877 7.44886 151.454 8.53409 151.511 9.92045Z" fill="black"/>
</svg>
