<svg width="82" height="24" viewBox="0 0 82 24" fill="none" xmlns="http://www.w3.org/2000/svg">
<path d="M0 17.4546V4.3869e-05H7.53409C8.82955 4.3869e-05 9.96307 0.255726 10.9347 0.76709C11.9063 1.27845 12.6619 1.9972 13.2017 2.92334C13.7415 3.84948 14.0114 4.93186 14.0114 6.1705C14.0114 7.4205 13.733 8.50289 13.1761 9.41766C12.625 10.3324 11.8494 11.037 10.8494 11.5313C9.85511 12.0256 8.69318 12.2728 7.36364 12.2728H2.86364V8.59095H6.40909C6.96591 8.59095 7.44034 8.49436 7.83239 8.30118C8.23011 8.10232 8.53409 7.82107 8.74432 7.45743C8.96023 7.09379 9.06818 6.66482 9.06818 6.1705C9.06818 5.6705 8.96023 5.24436 8.74432 4.89209C8.53409 4.53413 8.23011 4.26141 7.83239 4.07391C7.44034 3.88073 6.96591 3.78413 6.40909 3.78413H4.73864V17.4546H0ZM15.8182 17.4546V4.36368H20.3864V6.85232H20.5227C20.7614 5.93186 21.1392 5.25857 21.6562 4.83243C22.179 4.40629 22.7898 4.19323 23.4886 4.19323C23.6932 4.19323 23.8949 4.21027 24.0938 4.24436C24.2983 4.27277 24.4943 4.31539 24.6818 4.3722V8.38641C24.4489 8.30686 24.1619 8.2472 23.821 8.20743C23.4801 8.16766 23.1875 8.14777 22.9432 8.14777C22.483 8.14777 22.0682 8.25289 21.6989 8.46311C21.3352 8.66766 21.0483 8.95743 20.8381 9.33243C20.6278 9.70175 20.5227 10.1364 20.5227 10.6364V17.4546H15.8182ZM31.7472 17.6932C30.3494 17.6932 29.1449 17.4262 28.1335 16.8921C27.1278 16.3523 26.3523 15.5796 25.8068 14.5739C25.267 13.5625 24.9972 12.3523 24.9972 10.9432C24.9972 9.59095 25.2699 8.40914 25.8153 7.39777C26.3608 6.38641 27.1307 5.59948 28.125 5.03698C29.1193 4.47448 30.2926 4.19323 31.6449 4.19323C32.6335 4.19323 33.5284 4.34664 34.3295 4.65345C35.1307 4.96027 35.8153 5.40629 36.3835 5.99152C36.9517 6.57107 37.3892 7.27561 37.696 8.10516C38.0028 8.9347 38.1562 9.86936 38.1562 10.9091V12H26.4631V9.40914H33.8267C33.821 9.03414 33.7244 8.70459 33.5369 8.4205C33.3551 8.13073 33.108 7.90629 32.7955 7.7472C32.4886 7.58243 32.1392 7.50004 31.7472 7.50004C31.3665 7.50004 31.017 7.58243 30.6989 7.7472C30.3807 7.90629 30.125 8.12789 29.9318 8.41198C29.7443 8.69607 29.6449 9.02845 29.6335 9.40914V12.2046C29.6335 12.625 29.7216 13 29.8977 13.3296C30.0739 13.6591 30.3267 13.9177 30.6562 14.1052C30.9858 14.2927 31.3835 14.3864 31.8494 14.3864C32.1733 14.3864 32.4688 14.341 32.7358 14.25C33.0085 14.1591 33.2415 14.0285 33.4347 13.858C33.6278 13.6819 33.7699 13.4716 33.8608 13.2273H38.1562C38.0085 14.1364 37.6591 14.9262 37.108 15.5966C36.5568 16.2614 35.8267 16.7785 34.9176 17.1478C34.0142 17.5114 32.9574 17.6932 31.7472 17.6932ZM46.3828 17.6932C44.9624 17.6932 43.7464 17.412 42.7351 16.8495C41.7237 16.2813 40.9482 15.4915 40.4084 14.4802C39.8686 13.4631 39.5987 12.2841 39.5987 10.9432C39.5987 9.60232 39.8686 8.42618 40.4084 7.41482C40.9482 6.39777 41.7237 5.608 42.7351 5.0455C43.7464 4.47732 44.9624 4.19323 46.3828 4.19323C47.6669 4.19323 48.7777 4.42618 49.7152 4.89209C50.6584 5.35232 51.3885 6.00573 51.9055 6.85232C52.4226 7.69323 52.6839 8.68186 52.6896 9.81823H48.326C48.2635 9.13073 48.0646 8.608 47.7294 8.25004C47.3999 7.88641 46.9737 7.70459 46.451 7.70459C46.0419 7.70459 45.6839 7.82391 45.3771 8.06254C45.0703 8.2955 44.8317 8.65061 44.6612 9.12789C44.4908 9.59948 44.4055 10.1932 44.4055 10.9091C44.4055 11.625 44.4908 12.2216 44.6612 12.6989C44.8317 13.1705 45.0703 13.5256 45.3771 13.7642C45.6839 13.9972 46.0419 14.1137 46.451 14.1137C46.7976 14.1137 47.1044 14.0341 47.3714 13.875C47.6385 13.7103 47.8544 13.4716 48.0192 13.1591C48.1896 12.841 48.2919 12.4546 48.326 12H52.6896C52.6726 13.1535 52.4084 14.1591 51.897 15.0171C51.3857 15.8694 50.6612 16.5285 49.7237 16.9944C48.7919 17.4603 47.6783 17.6932 46.3828 17.6932ZM45.5987 17.3864H47.2692L47.1328 18.1705C47.8089 18.2728 48.3345 18.5114 48.7095 18.8864C49.0845 19.2614 49.2749 19.7273 49.2805 20.2841C49.2919 21.2046 48.8402 21.929 47.9254 22.4574C47.0163 22.9858 45.7635 23.25 44.1669 23.25V21.4432C45.0078 21.4432 45.6499 21.3523 46.093 21.1705C46.5362 20.9944 46.7692 20.733 46.7919 20.3864C46.8146 20.0682 46.6896 19.804 46.4169 19.5938C46.1499 19.3892 45.7408 19.2444 45.1896 19.1591L45.5987 17.3864ZM60.9375 17.6932C59.517 17.6932 58.3011 17.412 57.2898 16.8495C56.2784 16.2813 55.5028 15.4915 54.9631 14.4802C54.4233 13.4631 54.1534 12.2841 54.1534 10.9432C54.1534 9.60232 54.4233 8.42618 54.9631 7.41482C55.5028 6.39777 56.2784 5.608 57.2898 5.0455C58.3011 4.47732 59.517 4.19323 60.9375 4.19323C62.358 4.19323 63.5739 4.47732 64.5852 5.0455C65.5966 5.608 66.3722 6.39777 66.9119 7.41482C67.4517 8.42618 67.7216 9.60232 67.7216 10.9432C67.7216 12.2841 67.4517 13.4631 66.9119 14.4802C66.3722 15.4915 65.5966 16.2813 64.5852 16.8495C63.5739 17.412 62.358 17.6932 60.9375 17.6932ZM60.9716 14.216C61.3693 14.216 61.7131 14.0824 62.0028 13.8154C62.2926 13.5483 62.517 13.1677 62.6761 12.6733C62.8352 12.179 62.9148 11.591 62.9148 10.9091C62.9148 10.2216 62.8352 9.63357 62.6761 9.14493C62.517 8.65061 62.2926 8.26993 62.0028 8.00289C61.7131 7.73584 61.3693 7.60232 60.9716 7.60232C60.5511 7.60232 60.1903 7.73584 59.8892 8.00289C59.5881 8.26993 59.358 8.65061 59.1989 9.14493C59.0398 9.63357 58.9602 10.2216 58.9602 10.9091C58.9602 11.591 59.0398 12.179 59.1989 12.6733C59.358 13.1677 59.5881 13.5483 59.8892 13.8154C60.1903 14.0824 60.5511 14.216 60.9716 14.216ZM81.5966 8.62504H77.267C77.2443 8.358 77.1506 8.12788 76.9858 7.9347C76.821 7.74152 76.608 7.59379 76.3466 7.49152C76.0909 7.38357 75.8068 7.32959 75.4943 7.32959C75.0909 7.32959 74.7443 7.40345 74.4545 7.55118C74.1648 7.69891 74.0227 7.90914 74.0284 8.18186C74.0227 8.37504 74.1051 8.55402 74.2756 8.71879C74.4517 8.88357 74.7898 9.01141 75.2898 9.10232L77.9489 9.57959C79.2898 9.82391 80.2869 10.2358 80.9403 10.8154C81.5994 11.3892 81.9318 12.1591 81.9375 13.125C81.9318 14.0569 81.6534 14.8665 81.1023 15.554C80.5568 16.2358 79.8097 16.7642 78.8608 17.1392C77.9176 17.5086 76.8409 17.6932 75.6307 17.6932C73.6307 17.6932 72.0653 17.2841 70.9347 16.466C69.8097 15.6478 69.1818 14.5682 69.0511 13.2273H73.7216C73.7841 13.6421 73.9886 13.9631 74.3352 14.1904C74.6875 14.412 75.1307 14.5228 75.6648 14.5228C76.0966 14.5228 76.4517 14.4489 76.7301 14.3012C77.0142 14.1535 77.1591 13.9432 77.1648 13.6705C77.1591 13.4205 77.0341 13.2216 76.7898 13.0739C76.5511 12.9262 76.1761 12.8069 75.6648 12.716L73.3466 12.3069C72.0114 12.0739 71.0114 11.6307 70.3466 10.9773C69.6818 10.3239 69.3523 9.483 69.358 8.45459C69.3523 7.5455 69.5909 6.77561 70.0739 6.14493C70.5625 5.50857 71.2585 5.02561 72.1619 4.69607C73.071 4.36084 74.1477 4.19323 75.392 4.19323C77.2841 4.19323 78.7756 4.58527 79.8665 5.36936C80.9631 6.15345 81.5398 7.23868 81.5966 8.62504Z" fill="black"/>
</svg>
