<svg width="508" height="33" viewBox="0 0 508 33" fill="none" xmlns="http://www.w3.org/2000/svg">
<path d="M21.84 32.32C20.1333 32.32 18.8267 32.04 17.92 31.48C17.0133 30.8934 16.3467 30.12 15.92 29.16C15.4933 28.2 15.12 27.1467 14.8 26C14.6133 25.2267 14.3733 24.4267 14.08 23.6C13.8133 22.7734 13.4933 22.04 13.12 21.4C12.7467 20.76 12.2933 20.3467 11.76 20.16H9.12001V27.48C9.12001 28.2267 9.38667 28.76 9.92001 29.08C10.4533 29.3734 11.1067 29.52 11.88 29.52C11.88 30.48 11.5867 31.32 11 32.04H0.960007C0.346673 31.2934 0.0400067 30.4534 0.0400067 29.52C0.946674 29.52 1.60001 29.3734 2.00001 29.08C2.42667 28.76 2.64001 28.2267 2.64001 27.48V8.68004C2.64001 7.93337 2.42667 7.41337 2.00001 7.12004C1.57334 6.80004 0.906673 6.64004 6.73532e-06 6.64004C6.73532e-06 6.1867 0.0666734 5.73337 0.200007 5.28004C0.33334 4.8267 0.53334 4.44004 0.800007 4.12004C1.94667 4.12004 3.01334 4.1067 4.00001 4.08004C4.98667 4.0267 5.89334 3.9867 6.72001 3.96004C7.44001 3.9067 8.22667 3.8667 9.08001 3.84004C9.96001 3.81337 10.8133 3.80004 11.64 3.80004C14.4133 3.80004 16.6133 4.12004 18.24 4.76004C19.8933 5.40004 21.08 6.29337 21.8 7.44004C22.52 8.5867 22.88 9.9467 22.88 11.52C22.88 15.4134 20.7333 17.8 16.44 18.68C17.6133 19.0267 18.7467 19.8534 19.84 21.16C20.96 22.4667 21.8 24.04 22.36 25.88C22.6533 26.8667 23.0267 27.6134 23.48 28.12C23.96 28.6267 24.5733 28.9334 25.32 29.04V31.04C24.9733 31.5467 24.48 31.88 23.84 32.04C23.2 32.2267 22.5333 32.32 21.84 32.32ZM10.88 17.4C12.5067 17.4 13.76 16.8934 14.64 15.88C15.5467 14.8667 16 13.5467 16 11.92C16 10.2667 15.6133 9.01337 14.84 8.16004C14.0667 7.28004 12.8133 6.84004 11.08 6.84004C10.8133 6.84004 10.4667 6.85337 10.04 6.88004C9.64001 6.90671 9.33334 6.9467 9.12001 7.00004V17.32C9.30667 17.3467 9.60001 17.3734 10 17.4C10.4 17.4 10.6933 17.4 10.88 17.4ZM35.7794 32.4C32.7927 32.4 30.406 31.4534 28.6194 29.56C26.8594 27.6667 25.9794 25.0267 25.9794 21.64C25.9794 19.32 26.4194 17.32 27.2994 15.64C28.1794 13.9334 29.366 12.6267 30.8594 11.72C32.3794 10.8134 34.0994 10.36 36.0194 10.36C38.4194 10.36 40.3394 11.0667 41.7794 12.48C43.246 13.8667 43.9794 15.8267 43.9794 18.36C43.9794 19.3734 43.806 20.2667 43.4594 21.04C43.1394 21.7867 42.4594 22.16 41.4194 22.16H32.7794C32.8594 24.2667 33.3394 25.76 34.2194 26.64C35.126 27.52 36.2994 27.96 37.7394 27.96C38.646 27.96 39.486 27.8267 40.2594 27.56C41.0327 27.2667 41.7527 26.8667 42.4194 26.36C42.6594 26.5734 42.846 26.9067 42.9794 27.36C43.1394 27.7867 43.2194 28.1467 43.2194 28.44C43.2194 28.8667 42.9127 29.4 42.2994 30.04C41.7127 30.6534 40.8594 31.2 39.7394 31.68C38.646 32.16 37.326 32.4 35.7794 32.4ZM32.7794 19.12H36.8194C37.2727 19.12 37.5527 18.9467 37.6594 18.6C37.7927 18.2534 37.8594 17.8267 37.8594 17.32C37.8594 15.6134 37.646 14.4934 37.2194 13.96C36.8194 13.4 36.3394 13.12 35.7794 13.12C35.326 13.12 34.8727 13.2934 34.4194 13.64C33.966 13.9867 33.5927 14.6 33.2994 15.48C33.006 16.3334 32.8327 17.5467 32.7794 19.12ZM54.2547 32.44C53.2947 32.44 52.3214 32.3334 51.3347 32.12C50.3747 31.9067 49.4814 31.6 48.6547 31.2C47.8547 30.8 47.2014 30.3067 46.6947 29.72C46.188 29.1067 45.9347 28.4134 45.9347 27.64C45.9347 26.7067 46.2014 25.96 46.7347 25.4C47.268 24.8134 47.948 24.52 48.7747 24.52C49.5214 24.52 50.148 24.76 50.6547 25.24C51.188 25.72 51.4547 26.3467 51.4547 27.12C51.4547 27.4667 51.4014 27.7734 51.2947 28.04C51.188 28.28 51.028 28.5467 50.8147 28.84C51.0547 29.08 51.4814 29.2534 52.0947 29.36C52.708 29.4667 53.308 29.52 53.8947 29.52C54.828 29.52 55.548 29.3467 56.0547 29C56.5614 28.6534 56.8147 28.2267 56.8147 27.72C56.8147 26.92 56.388 26.24 55.5347 25.68C54.6814 25.0934 53.708 24.5067 52.6147 23.92C51.628 23.3867 50.6414 22.8267 49.6547 22.24C48.6947 21.6267 47.8814 20.8667 47.2147 19.96C46.5747 19.0534 46.2547 17.9067 46.2547 16.52C46.2547 14.76 46.988 13.3067 48.4547 12.16C49.9214 11.0134 52.0014 10.44 54.6947 10.44C56.5614 10.44 58.0547 10.68 59.1747 11.16C60.2947 11.6134 61.108 12.2 61.6147 12.92C62.1214 13.6134 62.3747 14.3467 62.3747 15.12C62.3747 15.9467 62.108 16.6134 61.5747 17.12C61.068 17.6 60.4414 17.84 59.6947 17.84C59.028 17.84 58.4414 17.64 57.9347 17.24C57.428 16.8134 57.1747 16.2667 57.1747 15.6C57.1747 15.28 57.228 14.9334 57.3347 14.56C57.4414 14.1867 57.588 13.88 57.7747 13.64C57.4814 13.4 57.1347 13.24 56.7347 13.16C56.3614 13.0534 55.908 13 55.3747 13C54.4947 13 53.8147 13.2134 53.3347 13.64C52.8814 14.04 52.6547 14.5334 52.6547 15.12C52.6547 16.0267 53.0814 16.7734 53.9347 17.36C54.8147 17.9467 55.788 18.52 56.8547 19.08C57.8414 19.5867 58.8014 20.1334 59.7347 20.72C60.6947 21.3067 61.4947 22.04 62.1347 22.92C62.7747 23.8 63.0947 24.9334 63.0947 26.32C63.0947 27.8134 62.668 29.0134 61.8147 29.92C60.9614 30.8 59.8547 31.44 58.4947 31.84C57.1614 32.24 55.748 32.44 54.2547 32.44ZM73.1191 32.32C71.9991 32.32 70.9724 32.12 70.0391 31.72C69.1057 31.2934 68.3457 30.5734 67.7591 29.56C67.1991 28.5467 66.9191 27.16 66.9191 25.4V14.4H64.3991V11.96C65.1191 11.8534 65.7991 11.4 66.4391 10.6C67.0791 9.80004 67.6257 8.81337 68.0791 7.64004C68.5591 6.4667 68.8657 5.29337 68.9991 4.12004C69.4791 4.04004 69.9191 4.00004 70.3191 4.00004C71.3857 4.00004 72.1191 4.3067 72.5191 4.92004C72.9457 5.53337 73.1591 6.1067 73.1591 6.64004V10.84H77.7991C77.7991 11.48 77.7591 12.12 77.6791 12.76C77.6257 13.3734 77.4524 13.92 77.1591 14.4H73.2391V25.68C73.2391 26.5334 73.4124 27.1067 73.7591 27.4C74.1057 27.6667 74.5457 27.8 75.0791 27.8C75.6124 27.8 76.1457 27.6667 76.6791 27.4C77.2391 27.1067 77.6791 26.7734 77.9991 26.4C78.2924 26.64 78.4924 27 78.5991 27.48C78.7057 27.9334 78.7591 28.28 78.7591 28.52C78.7591 29.1067 78.5591 29.6934 78.1591 30.28C77.7591 30.8667 77.1324 31.36 76.2791 31.76C75.4524 32.1334 74.3991 32.32 73.1191 32.32ZM86.6772 32.32C84.6772 32.32 83.0505 31.7734 81.7972 30.68C80.5705 29.56 79.9572 28.1334 79.9572 26.4C79.9572 24.6667 80.5172 23.2667 81.6372 22.2C82.7839 21.1334 84.5439 20.6 86.9172 20.6C87.6905 20.6 88.5039 20.68 89.3572 20.84C90.2105 20.9734 90.9039 21.1867 91.4372 21.48V16.16C91.4372 15.04 91.1439 14.2667 90.5572 13.84C89.9972 13.3867 89.3039 13.16 88.4772 13.16C87.5972 13.16 86.8772 13.3734 86.3172 13.8C86.8505 13.9867 87.2372 14.28 87.4772 14.68C87.7172 15.0534 87.8372 15.4667 87.8372 15.92C87.8372 16.8 87.5172 17.5067 86.8772 18.04C86.2639 18.5467 85.5039 18.8 84.5972 18.8C83.5839 18.8 82.7705 18.5067 82.1572 17.92C81.5439 17.3067 81.2372 16.5467 81.2372 15.64C81.2372 14.7334 81.5439 13.88 82.1572 13.08C82.7705 12.2534 83.7172 11.5734 84.9972 11.04C86.3039 10.5067 87.9839 10.24 90.0372 10.24C95.3972 10.24 98.0772 12.36 98.0772 16.6V27.2C98.0772 28.48 98.6905 29.2534 99.9172 29.52V30.8C99.5705 31.3067 98.9839 31.6934 98.1572 31.96C97.3305 32.2 96.5305 32.32 95.7572 32.32C93.9439 32.32 92.6639 31.6934 91.9172 30.44C91.3839 30.92 90.6772 31.36 89.7972 31.76C88.9172 32.1334 87.8772 32.32 86.6772 32.32ZM89.2772 29.08C89.6505 29.08 90.0372 29.0267 90.4372 28.92C90.8372 28.7867 91.1705 28.6267 91.4372 28.44V24.56C91.1705 24.3734 90.8239 24.2134 90.3972 24.08C89.9972 23.9467 89.5972 23.88 89.1972 23.88C88.5039 23.88 87.9039 24.1067 87.3972 24.56C86.8905 24.9867 86.6372 25.6667 86.6372 26.6C86.6372 27.32 86.8772 27.92 87.3572 28.4C87.8372 28.8534 88.4772 29.08 89.2772 29.08ZM108.889 32.32C107.022 32.32 105.569 31.7467 104.529 30.6C103.489 29.4534 102.969 27.9067 102.969 25.96V14.96C102.969 14.5067 102.796 14.1867 102.449 14C102.102 13.8134 101.622 13.72 101.009 13.72V11.96C101.356 11.6667 102.076 11.36 103.169 11.04C104.289 10.6934 105.542 10.52 106.929 10.52C107.969 10.52 108.649 10.64 108.969 10.88C109.316 11.12 109.489 11.7067 109.489 12.64V26.08C109.489 26.88 109.622 27.4934 109.889 27.92C110.156 28.3467 110.622 28.56 111.289 28.56C111.849 28.56 112.382 28.3867 112.889 28.04C113.422 27.6934 113.862 27.2934 114.209 26.84V14.96C114.209 14.5067 114.009 14.1867 113.609 14C113.209 13.8134 112.662 13.72 111.969 13.72V11.96C112.342 11.6667 113.076 11.36 114.169 11.04C115.262 10.6934 116.556 10.52 118.049 10.52C119.089 10.52 119.796 10.64 120.169 10.88C120.542 11.12 120.729 11.7067 120.729 12.64V27.36C120.729 28 120.889 28.5334 121.209 28.96C121.556 29.3867 122.036 29.6267 122.649 29.68V30.8C122.222 31.3067 121.542 31.6934 120.609 31.96C119.702 32.2 118.822 32.32 117.969 32.32C117.089 32.32 116.316 32.0934 115.649 31.64C115.009 31.16 114.582 30.48 114.369 29.6C113.062 31.4134 111.236 32.32 108.889 32.32ZM125.335 32.04C125.042 31.7467 124.815 31.4267 124.655 31.08C124.495 30.7334 124.415 30.3334 124.415 29.88C125.188 29.88 125.735 29.72 126.055 29.4C126.402 29.0534 126.575 28.48 126.575 27.68V16.12C126.575 15.4267 126.388 14.9334 126.015 14.64C125.642 14.32 124.948 14.16 123.935 14.16V12.36C124.575 11.9867 125.335 11.6667 126.215 11.4C127.095 11.1067 127.962 10.88 128.815 10.72C129.668 10.5334 130.335 10.44 130.815 10.44C131.428 10.44 131.868 10.6534 132.135 11.08C132.428 11.5067 132.575 12.4267 132.575 13.84C132.868 13.28 133.295 12.7334 133.855 12.2C134.442 11.64 135.095 11.1867 135.815 10.84C136.535 10.4934 137.282 10.32 138.055 10.32C139.308 10.32 140.202 10.64 140.735 11.28C141.268 11.92 141.535 12.7467 141.535 13.76C141.535 14.9067 141.242 15.84 140.655 16.56C140.068 17.28 139.255 17.64 138.215 17.64C137.308 17.64 136.588 17.3867 136.055 16.88C135.522 16.3467 135.255 15.7467 135.255 15.08C135.255 14.6534 135.295 14.32 135.375 14.08C134.948 14.1867 134.535 14.3334 134.135 14.52C133.735 14.68 133.335 14.9467 132.935 15.32V27.32C132.935 27.9334 133.028 28.4267 133.215 28.8C133.402 29.1734 133.762 29.4534 134.295 29.64C134.855 29.8 135.682 29.88 136.775 29.88C136.775 30.3334 136.722 30.7334 136.615 31.08C136.508 31.4267 136.308 31.7467 136.015 32.04H125.335ZM148.474 32.32C146.474 32.32 144.847 31.7734 143.594 30.68C142.367 29.56 141.754 28.1334 141.754 26.4C141.754 24.6667 142.314 23.2667 143.434 22.2C144.581 21.1334 146.341 20.6 148.714 20.6C149.487 20.6 150.301 20.68 151.154 20.84C152.007 20.9734 152.701 21.1867 153.234 21.48V16.16C153.234 15.04 152.941 14.2667 152.354 13.84C151.794 13.3867 151.101 13.16 150.274 13.16C149.394 13.16 148.674 13.3734 148.114 13.8C148.647 13.9867 149.034 14.28 149.274 14.68C149.514 15.0534 149.634 15.4667 149.634 15.92C149.634 16.8 149.314 17.5067 148.674 18.04C148.061 18.5467 147.301 18.8 146.394 18.8C145.381 18.8 144.567 18.5067 143.954 17.92C143.341 17.3067 143.034 16.5467 143.034 15.64C143.034 14.7334 143.341 13.88 143.954 13.08C144.567 12.2534 145.514 11.5734 146.794 11.04C148.101 10.5067 149.781 10.24 151.834 10.24C157.194 10.24 159.874 12.36 159.874 16.6V27.2C159.874 28.48 160.487 29.2534 161.714 29.52V30.8C161.367 31.3067 160.781 31.6934 159.954 31.96C159.127 32.2 158.327 32.32 157.554 32.32C155.741 32.32 154.461 31.6934 153.714 30.44C153.181 30.92 152.474 31.36 151.594 31.76C150.714 32.1334 149.674 32.32 148.474 32.32ZM151.074 29.08C151.447 29.08 151.834 29.0267 152.234 28.92C152.634 28.7867 152.967 28.6267 153.234 28.44V24.56C152.967 24.3734 152.621 24.2134 152.194 24.08C151.794 23.9467 151.394 23.88 150.994 23.88C150.301 23.88 149.701 24.1067 149.194 24.56C148.687 24.9867 148.434 25.6667 148.434 26.6C148.434 27.32 148.674 27.92 149.154 28.4C149.634 28.8534 150.274 29.08 151.074 29.08ZM164.558 32.04C164.265 31.7467 164.025 31.4267 163.838 31.08C163.678 30.7334 163.598 30.3467 163.598 29.92C164.398 29.92 164.972 29.7467 165.318 29.4C165.665 29.0534 165.838 28.4934 165.838 27.72V16.04C165.838 15.3467 165.638 14.84 165.238 14.52C164.865 14.2 164.172 14.04 163.158 14.04V12.24C163.772 11.8934 164.545 11.5734 165.478 11.28C166.438 10.9867 167.358 10.76 168.238 10.6C169.145 10.4134 169.838 10.32 170.318 10.32C170.878 10.32 171.332 10.4934 171.678 10.84C172.052 11.1867 172.265 11.9334 172.318 13.08C172.985 12.2534 173.825 11.5867 174.838 11.08C175.878 10.5734 177.078 10.32 178.438 10.32C180.305 10.32 181.705 10.8 182.638 11.76C183.598 12.6934 184.078 14.2934 184.078 16.56V27.48C184.078 28.7867 184.718 29.56 185.998 29.8L186.038 30.96C185.772 31.2267 185.345 31.4667 184.758 31.68C184.172 31.8667 183.532 32.0134 182.838 32.12C182.172 32.2267 181.545 32.28 180.958 32.28C179.812 32.28 178.958 32.0667 178.398 31.64C177.865 31.2134 177.598 30.5334 177.598 29.6V17.12C177.598 16.0267 177.358 15.2667 176.878 14.84C176.398 14.4134 175.812 14.2 175.118 14.2C174.025 14.2 173.105 14.64 172.358 15.52V27.72C172.358 28.4934 172.518 29.0534 172.838 29.4C173.185 29.7467 173.758 29.92 174.558 29.92C174.558 30.72 174.252 31.4267 173.638 32.04H164.558ZM195.541 32.32C194.421 32.32 193.394 32.12 192.461 31.72C191.528 31.2934 190.768 30.5734 190.181 29.56C189.621 28.5467 189.341 27.16 189.341 25.4V14.4H186.821V11.96C187.541 11.8534 188.221 11.4 188.861 10.6C189.501 9.80004 190.048 8.81337 190.501 7.64004C190.981 6.4667 191.288 5.29337 191.421 4.12004C191.901 4.04004 192.341 4.00004 192.741 4.00004C193.808 4.00004 194.541 4.3067 194.941 4.92004C195.368 5.53337 195.581 6.1067 195.581 6.64004V10.84H200.221C200.221 11.48 200.181 12.12 200.101 12.76C200.048 13.3734 199.874 13.92 199.581 14.4H195.661V25.68C195.661 26.5334 195.834 27.1067 196.181 27.4C196.528 27.6667 196.968 27.8 197.501 27.8C198.034 27.8 198.568 27.6667 199.101 27.4C199.661 27.1067 200.101 26.7734 200.421 26.4C200.714 26.64 200.914 27 201.021 27.48C201.128 27.9334 201.181 28.28 201.181 28.52C201.181 29.1067 200.981 29.6934 200.581 30.28C200.181 30.8667 199.554 31.36 198.701 31.76C197.874 32.1334 196.821 32.32 195.541 32.32ZM211.873 32.4C208.886 32.4 206.5 31.4534 204.713 29.56C202.953 27.6667 202.073 25.0267 202.073 21.64C202.073 19.32 202.513 17.32 203.393 15.64C204.273 13.9334 205.46 12.6267 206.953 11.72C208.473 10.8134 210.193 10.36 212.113 10.36C214.513 10.36 216.433 11.0667 217.873 12.48C219.34 13.8667 220.073 15.8267 220.073 18.36C220.073 19.3734 219.9 20.2667 219.553 21.04C219.233 21.7867 218.553 22.16 217.513 22.16H208.873C208.953 24.2667 209.433 25.76 210.313 26.64C211.22 27.52 212.393 27.96 213.833 27.96C214.74 27.96 215.58 27.8267 216.353 27.56C217.126 27.2667 217.846 26.8667 218.513 26.36C218.753 26.5734 218.94 26.9067 219.073 27.36C219.233 27.7867 219.313 28.1467 219.313 28.44C219.313 28.8667 219.006 29.4 218.393 30.04C217.806 30.6534 216.953 31.2 215.833 31.68C214.74 32.16 213.42 32.4 211.873 32.4ZM208.873 19.12H212.913C213.366 19.12 213.646 18.9467 213.753 18.6C213.886 18.2534 213.953 17.8267 213.953 17.32C213.953 15.6134 213.74 14.4934 213.313 13.96C212.913 13.4 212.433 13.12 211.873 13.12C211.42 13.12 210.966 13.2934 210.513 13.64C210.06 13.9867 209.686 14.6 209.393 15.48C209.1 16.3334 208.926 17.5467 208.873 19.12ZM230.348 32.44C229.388 32.44 228.415 32.3334 227.428 32.12C226.468 31.9067 225.575 31.6 224.748 31.2C223.948 30.8 223.295 30.3067 222.788 29.72C222.282 29.1067 222.028 28.4134 222.028 27.64C222.028 26.7067 222.295 25.96 222.828 25.4C223.362 24.8134 224.042 24.52 224.868 24.52C225.615 24.52 226.242 24.76 226.748 25.24C227.282 25.72 227.548 26.3467 227.548 27.12C227.548 27.4667 227.495 27.7734 227.388 28.04C227.282 28.28 227.122 28.5467 226.908 28.84C227.148 29.08 227.575 29.2534 228.188 29.36C228.802 29.4667 229.402 29.52 229.988 29.52C230.922 29.52 231.642 29.3467 232.148 29C232.655 28.6534 232.908 28.2267 232.908 27.72C232.908 26.92 232.482 26.24 231.628 25.68C230.775 25.0934 229.802 24.5067 228.708 23.92C227.722 23.3867 226.735 22.8267 225.748 22.24C224.788 21.6267 223.975 20.8667 223.308 19.96C222.668 19.0534 222.348 17.9067 222.348 16.52C222.348 14.76 223.082 13.3067 224.548 12.16C226.015 11.0134 228.095 10.44 230.788 10.44C232.655 10.44 234.148 10.68 235.268 11.16C236.388 11.6134 237.202 12.2 237.708 12.92C238.215 13.6134 238.468 14.3467 238.468 15.12C238.468 15.9467 238.202 16.6134 237.668 17.12C237.162 17.6 236.535 17.84 235.788 17.84C235.122 17.84 234.535 17.64 234.028 17.24C233.522 16.8134 233.268 16.2667 233.268 15.6C233.268 15.28 233.322 14.9334 233.428 14.56C233.535 14.1867 233.682 13.88 233.868 13.64C233.575 13.4 233.228 13.24 232.828 13.16C232.455 13.0534 232.002 13 231.468 13C230.588 13 229.908 13.2134 229.428 13.64C228.975 14.04 228.748 14.5334 228.748 15.12C228.748 16.0267 229.175 16.7734 230.028 17.36C230.908 17.9467 231.882 18.52 232.948 19.08C233.935 19.5867 234.895 20.1334 235.828 20.72C236.788 21.3067 237.588 22.04 238.228 22.92C238.868 23.8 239.188 24.9334 239.188 26.32C239.188 27.8134 238.762 29.0134 237.908 29.92C237.055 30.8 235.948 31.44 234.588 31.84C233.255 32.24 231.842 32.44 230.348 32.44ZM258.43 32.48C257.657 32.48 256.763 32.4267 255.75 32.32C254.737 32.2134 253.75 32.0667 252.79 31.88C251.83 31.6667 251.03 31.4 250.39 31.08V6.20004C250.39 5.5867 250.203 5.1067 249.83 4.76004C249.457 4.41337 248.83 4.24004 247.95 4.24004V2.96004C248.563 2.53337 249.297 2.16004 250.15 1.84004C251.003 1.49337 251.857 1.21337 252.71 1.00004C253.59 0.786704 254.31 0.680037 254.87 0.680037C255.51 0.680037 255.963 0.826704 256.23 1.12004C256.497 1.3867 256.63 1.85337 256.63 2.52004V8.20004L256.51 12C257.043 11.44 257.683 11.04 258.43 10.8C259.177 10.56 260.003 10.44 260.91 10.44C262.377 10.44 263.75 10.8134 265.03 11.56C266.31 12.3067 267.35 13.44 268.15 14.96C268.95 16.4534 269.35 18.3734 269.35 20.72C269.35 23.28 268.857 25.44 267.87 27.2C266.883 28.9334 265.563 30.2534 263.91 31.16C262.257 32.04 260.43 32.48 258.43 32.48ZM258.55 29.56C259.27 29.56 259.923 29.3334 260.51 28.88C261.123 28.4 261.603 27.6134 261.95 26.52C262.297 25.4267 262.47 23.9467 262.47 22.08C262.47 19.1467 262.057 17.04 261.23 15.76C260.403 14.48 259.377 13.84 258.15 13.84C257.563 13.84 257.057 13.9867 256.63 14.28V28.8C257.137 29.3067 257.777 29.56 258.55 29.56ZM281.443 32.4C278.457 32.4 276.07 31.4534 274.283 29.56C272.523 27.6667 271.643 25.0267 271.643 21.64C271.643 19.32 272.083 17.32 272.963 15.64C273.843 13.9334 275.03 12.6267 276.523 11.72C278.043 10.8134 279.763 10.36 281.683 10.36C284.083 10.36 286.003 11.0667 287.443 12.48C288.91 13.8667 289.643 15.8267 289.643 18.36C289.643 19.3734 289.47 20.2667 289.123 21.04C288.803 21.7867 288.123 22.16 287.083 22.16H278.443C278.523 24.2667 279.003 25.76 279.883 26.64C280.79 27.52 281.963 27.96 283.403 27.96C284.31 27.96 285.15 27.8267 285.923 27.56C286.697 27.2667 287.417 26.8667 288.083 26.36C288.323 26.5734 288.51 26.9067 288.643 27.36C288.803 27.7867 288.883 28.1467 288.883 28.44C288.883 28.8667 288.577 29.4 287.963 30.04C287.377 30.6534 286.523 31.2 285.403 31.68C284.31 32.16 282.99 32.4 281.443 32.4ZM278.443 19.12H282.483C282.937 19.12 283.217 18.9467 283.323 18.6C283.457 18.2534 283.523 17.8267 283.523 17.32C283.523 15.6134 283.31 14.4934 282.883 13.96C282.483 13.4 282.003 13.12 281.443 13.12C280.99 13.12 280.537 13.2934 280.083 13.64C279.63 13.9867 279.257 14.6 278.963 15.48C278.67 16.3334 278.497 17.5467 278.443 19.12ZM321.004 32.28C320.018 32.28 319.164 32.1467 318.444 31.88C317.751 31.5867 317.404 31.0267 317.404 30.2V16.88C317.404 16.0267 317.164 15.3734 316.684 14.92C316.231 14.44 315.618 14.2 314.844 14.2C314.418 14.2 313.978 14.28 313.524 14.44C313.098 14.6 312.711 14.84 312.364 15.16C312.391 15.2667 312.404 15.3734 312.404 15.48C312.404 15.56 312.404 15.6534 312.404 15.76V27.72C312.404 28.4934 312.564 29.0534 312.884 29.4C313.204 29.72 313.711 29.88 314.404 29.88C314.404 30.3067 314.311 30.7067 314.124 31.08C313.964 31.4267 313.738 31.7467 313.444 32.04H304.924C304.658 31.7467 304.431 31.4267 304.244 31.08C304.084 30.7067 304.004 30.3067 304.004 29.88C304.698 29.88 305.178 29.72 305.444 29.4C305.738 29.0534 305.884 28.4934 305.884 27.72V16.88C305.884 16.0267 305.631 15.3734 305.124 14.92C304.644 14.44 304.058 14.2 303.364 14.2C302.858 14.2 302.338 14.32 301.804 14.56C301.271 14.8 300.818 15.1467 300.444 15.6V27.72C300.444 28.4934 300.578 29.0534 300.844 29.4C301.138 29.72 301.618 29.88 302.284 29.88C302.284 30.7067 301.964 31.4267 301.324 32.04H292.644C292.351 31.7467 292.111 31.4267 291.924 31.08C291.764 30.7067 291.684 30.3067 291.684 29.88C292.484 29.88 293.058 29.72 293.404 29.4C293.751 29.0534 293.924 28.4934 293.924 27.72V16C293.924 15.3067 293.724 14.8 293.324 14.48C292.951 14.16 292.258 14 291.244 14V12.24C291.858 11.8667 292.631 11.5334 293.564 11.24C294.524 10.9467 295.444 10.72 296.324 10.56C297.231 10.3734 297.924 10.28 298.404 10.28C298.938 10.28 299.378 10.4534 299.724 10.8C300.098 11.12 300.338 11.8 300.444 12.84C301.138 12.0667 302.004 11.4534 303.044 11C304.111 10.52 305.311 10.28 306.644 10.28C309.311 10.28 311.044 11.1734 311.844 12.96C312.538 12.1067 313.431 11.4534 314.524 11C315.644 10.52 316.884 10.28 318.244 10.28C320.164 10.28 321.591 10.7467 322.524 11.68C323.484 12.6134 323.964 13.9734 323.964 15.76V27.72C323.964 28.3334 324.138 28.8 324.484 29.12C324.831 29.44 325.311 29.6667 325.924 29.8V30.96C325.444 31.3867 324.818 31.72 324.044 31.96C323.271 32.1734 322.258 32.28 321.004 32.28ZM341.912 32.32C339.912 32.32 338.285 31.7734 337.032 30.68C335.805 29.56 335.192 28.1334 335.192 26.4C335.192 24.6667 335.752 23.2667 336.872 22.2C338.018 21.1334 339.778 20.6 342.152 20.6C342.925 20.6 343.738 20.68 344.592 20.84C345.445 20.9734 346.138 21.1867 346.672 21.48V16.16C346.672 15.04 346.378 14.2667 345.792 13.84C345.232 13.3867 344.538 13.16 343.712 13.16C342.832 13.16 342.112 13.3734 341.552 13.8C342.085 13.9867 342.472 14.28 342.712 14.68C342.952 15.0534 343.072 15.4667 343.072 15.92C343.072 16.8 342.752 17.5067 342.112 18.04C341.498 18.5467 340.738 18.8 339.832 18.8C338.818 18.8 338.005 18.5067 337.392 17.92C336.778 17.3067 336.472 16.5467 336.472 15.64C336.472 14.7334 336.778 13.88 337.392 13.08C338.005 12.2534 338.952 11.5734 340.232 11.04C341.538 10.5067 343.218 10.24 345.272 10.24C350.632 10.24 353.312 12.36 353.312 16.6V27.2C353.312 28.48 353.925 29.2534 355.152 29.52V30.8C354.805 31.3067 354.218 31.6934 353.392 31.96C352.565 32.2 351.765 32.32 350.992 32.32C349.178 32.32 347.898 31.6934 347.152 30.44C346.618 30.92 345.912 31.36 345.032 31.76C344.152 32.1334 343.112 32.32 341.912 32.32ZM344.512 29.08C344.885 29.08 345.272 29.0267 345.672 28.92C346.072 28.7867 346.405 28.6267 346.672 28.44V24.56C346.405 24.3734 346.058 24.2134 345.632 24.08C345.232 23.9467 344.832 23.88 344.432 23.88C343.738 23.88 343.138 24.1067 342.632 24.56C342.125 24.9867 341.872 25.6667 341.872 26.6C341.872 27.32 342.112 27.92 342.592 28.4C343.072 28.8534 343.712 29.08 344.512 29.08ZM363.159 32.32L356.839 15.28C356.572 14.56 356.292 14.04 355.999 13.72C355.705 13.3734 355.212 13.2 354.519 13.2C354.519 12.7734 354.585 12.3467 354.719 11.92C354.852 11.4667 355.065 11.0934 355.359 10.8H364.479C364.772 11.0934 364.999 11.4667 365.159 11.92C365.319 12.3467 365.399 12.7734 365.399 13.2C364.865 13.2 364.412 13.3467 364.039 13.64C363.692 13.9334 363.519 14.3867 363.519 15C363.519 15.1067 363.532 15.24 363.559 15.4C363.612 15.56 363.652 15.7067 363.679 15.84L365.319 21.28L367.159 28.28L368.999 21.28L370.559 15.84C370.612 15.68 370.652 15.52 370.679 15.36C370.705 15.1734 370.719 15.0134 370.719 14.88C370.719 14.32 370.532 13.9067 370.159 13.64C369.785 13.3467 369.279 13.2 368.639 13.2C368.639 12.7734 368.692 12.3467 368.799 11.92C368.905 11.4667 369.105 11.0934 369.399 10.8H377.159C377.452 11.0934 377.652 11.4667 377.759 11.92C377.892 12.3467 377.959 12.7734 377.959 13.2C377.265 13.2 376.745 13.3734 376.399 13.72C376.079 14.04 375.799 14.56 375.559 15.28L371.399 28.04C370.972 29.5067 370.479 30.5867 369.919 31.28C369.385 31.9734 368.519 32.32 367.319 32.32H363.159ZM384.412 32.32C382.412 32.32 380.785 31.7734 379.532 30.68C378.305 29.56 377.692 28.1334 377.692 26.4C377.692 24.6667 378.252 23.2667 379.372 22.2C380.518 21.1334 382.278 20.6 384.652 20.6C385.425 20.6 386.238 20.68 387.092 20.84C387.945 20.9734 388.638 21.1867 389.172 21.48V16.16C389.172 15.04 388.878 14.2667 388.292 13.84C387.732 13.3867 387.038 13.16 386.212 13.16C385.332 13.16 384.612 13.3734 384.052 13.8C384.585 13.9867 384.972 14.28 385.212 14.68C385.452 15.0534 385.572 15.4667 385.572 15.92C385.572 16.8 385.252 17.5067 384.612 18.04C383.998 18.5467 383.238 18.8 382.332 18.8C381.318 18.8 380.505 18.5067 379.892 17.92C379.278 17.3067 378.972 16.5467 378.972 15.64C378.972 14.7334 379.278 13.88 379.892 13.08C380.505 12.2534 381.452 11.5734 382.732 11.04C384.038 10.5067 385.718 10.24 387.772 10.24C393.132 10.24 395.812 12.36 395.812 16.6V27.2C395.812 28.48 396.425 29.2534 397.652 29.52V30.8C397.305 31.3067 396.718 31.6934 395.892 31.96C395.065 32.2 394.265 32.32 393.492 32.32C391.678 32.32 390.398 31.6934 389.652 30.44C389.118 30.92 388.412 31.36 387.532 31.76C386.652 32.1334 385.612 32.32 384.412 32.32ZM387.012 29.08C387.385 29.08 387.772 29.0267 388.172 28.92C388.572 28.7867 388.905 28.6267 389.172 28.44V24.56C388.905 24.3734 388.558 24.2134 388.132 24.08C387.732 23.9467 387.332 23.88 386.932 23.88C386.238 23.88 385.638 24.1067 385.132 24.56C384.625 24.9867 384.372 25.6667 384.372 26.6C384.372 27.32 384.612 27.92 385.092 28.4C385.572 28.8534 386.212 29.08 387.012 29.08ZM400.22 32.04C399.926 31.72 399.7 31.3867 399.54 31.04C399.38 30.6934 399.3 30.3067 399.3 29.88C400.073 29.88 400.633 29.72 400.98 29.4C401.326 29.0534 401.5 28.48 401.5 27.68V6.44004C401.5 5.8267 401.326 5.3467 400.98 5.00004C400.633 4.6267 399.9 4.44004 398.78 4.44004V2.84004C399.446 2.46671 400.22 2.14671 401.1 1.88004C402.006 1.5867 402.9 1.36004 403.78 1.20004C404.66 1.01337 405.393 0.920037 405.98 0.920037C406.593 0.920037 407.033 1.05337 407.3 1.32004C407.593 1.58671 407.74 2.05337 407.74 2.72004V27.68C407.74 28.5067 407.9 29.08 408.22 29.4C408.566 29.72 409.14 29.88 409.94 29.88C409.94 30.3067 409.846 30.6934 409.66 31.04C409.5 31.3867 409.273 31.72 408.98 32.04H400.22ZM417.273 7.52004C416.126 7.52004 415.206 7.1867 414.513 6.52004C413.846 5.8267 413.513 4.9067 413.513 3.76004C413.513 2.64004 413.86 1.73337 414.553 1.04004C415.273 0.346704 416.206 3.67165e-05 417.353 3.67165e-05C418.526 3.67165e-05 419.446 0.346704 420.113 1.04004C420.806 1.73337 421.153 2.64004 421.153 3.76004C421.153 4.9067 420.793 5.8267 420.073 6.52004C419.38 7.1867 418.446 7.52004 417.273 7.52004ZM412.793 32.04C412.5 31.7467 412.273 31.4267 412.113 31.08C411.953 30.7334 411.873 30.3334 411.873 29.88C412.646 29.88 413.22 29.72 413.593 29.4C413.966 29.0534 414.153 28.48 414.153 27.68V16.08C414.153 15.3867 413.98 14.8667 413.633 14.52C413.313 14.1734 412.606 14 411.513 14V12.24C411.913 12 412.526 11.7334 413.353 11.44C414.18 11.12 415.073 10.8534 416.033 10.64C417.02 10.4267 417.9 10.32 418.673 10.32C419.286 10.32 419.726 10.4667 419.993 10.76C420.26 11.0267 420.393 11.4934 420.393 12.16V27.72C420.393 28.52 420.593 29.08 420.993 29.4C421.393 29.72 421.98 29.88 422.753 29.88C422.753 30.3334 422.673 30.7334 422.513 31.08C422.353 31.4267 422.126 31.7467 421.833 32.04H412.793ZM430.857 32.32C428.857 32.32 427.23 31.7734 425.977 30.68C424.75 29.56 424.137 28.1334 424.137 26.4C424.137 24.6667 424.697 23.2667 425.817 22.2C426.964 21.1334 428.724 20.6 431.097 20.6C431.87 20.6 432.684 20.68 433.537 20.84C434.39 20.9734 435.084 21.1867 435.617 21.48V16.16C435.617 15.04 435.324 14.2667 434.737 13.84C434.177 13.3867 433.484 13.16 432.657 13.16C431.777 13.16 431.057 13.3734 430.497 13.8C431.03 13.9867 431.417 14.28 431.657 14.68C431.897 15.0534 432.017 15.4667 432.017 15.92C432.017 16.8 431.697 17.5067 431.057 18.04C430.444 18.5467 429.684 18.8 428.777 18.8C427.764 18.8 426.95 18.5067 426.337 17.92C425.724 17.3067 425.417 16.5467 425.417 15.64C425.417 14.7334 425.724 13.88 426.337 13.08C426.95 12.2534 427.897 11.5734 429.177 11.04C430.484 10.5067 432.164 10.24 434.217 10.24C439.577 10.24 442.257 12.36 442.257 16.6V27.2C442.257 28.48 442.87 29.2534 444.097 29.52V30.8C443.75 31.3067 443.164 31.6934 442.337 31.96C441.51 32.2 440.71 32.32 439.937 32.32C438.124 32.32 436.844 31.6934 436.097 30.44C435.564 30.92 434.857 31.36 433.977 31.76C433.097 32.1334 432.057 32.32 430.857 32.32ZM433.457 29.08C433.83 29.08 434.217 29.0267 434.617 28.92C435.017 28.7867 435.35 28.6267 435.617 28.44V24.56C435.35 24.3734 435.004 24.2134 434.577 24.08C434.177 23.9467 433.777 23.88 433.377 23.88C432.684 23.88 432.084 24.1067 431.577 24.56C431.07 24.9867 430.817 25.6667 430.817 26.6C430.817 27.32 431.057 27.92 431.537 28.4C432.017 28.8534 432.657 29.08 433.457 29.08ZM454.141 32.56C452.701 32.56 451.341 32.2 450.061 31.48C448.808 30.7334 447.795 29.6134 447.021 28.12C446.248 26.6267 445.861 24.7467 445.861 22.48C445.861 19.7867 446.355 17.5467 447.341 15.76C448.355 13.9734 449.661 12.64 451.261 11.76C452.888 10.88 454.621 10.44 456.461 10.44C456.808 10.44 457.195 10.4534 457.621 10.48C458.048 10.5067 458.475 10.5467 458.901 10.6L458.781 8.20004V6.20004C458.781 5.5867 458.608 5.1067 458.261 4.76004C457.915 4.41337 457.195 4.24004 456.101 4.24004V2.60004C456.768 2.2267 457.555 1.89337 458.461 1.60004C459.368 1.3067 460.261 1.08004 461.141 0.920037C462.021 0.733371 462.728 0.640038 463.261 0.640038C463.875 0.640038 464.315 0.786704 464.581 1.08004C464.875 1.3467 465.021 1.81337 465.021 2.48004V27.6C465.021 28.9067 465.661 29.68 466.941 29.92L466.981 31.04C466.608 31.5467 466.035 31.92 465.261 32.16C464.488 32.4267 463.701 32.56 462.901 32.56C462.208 32.56 461.475 32.4 460.701 32.08C459.928 31.7867 459.381 31.32 459.061 30.68C458.501 31.4267 457.808 31.92 456.981 32.16C456.181 32.4267 455.235 32.56 454.141 32.56ZM456.901 29.16C457.728 29.16 458.355 28.92 458.781 28.44V14.44C458.221 13.6667 457.475 13.28 456.541 13.28C455.821 13.28 455.168 13.5334 454.581 14.04C453.995 14.52 453.528 15.3334 453.181 16.48C452.835 17.6 452.661 19.1334 452.661 21.08C452.661 23.8267 453.061 25.8667 453.861 27.2C454.688 28.5067 455.701 29.16 456.901 29.16ZM478.55 32.56C476.657 32.56 474.977 32.16 473.51 31.36C472.043 30.5334 470.897 29.3334 470.07 27.76C469.27 26.16 468.87 24.1867 468.87 21.84C468.87 19.3334 469.297 17.2267 470.15 15.52C471.003 13.8134 472.19 12.52 473.71 11.64C475.23 10.76 476.977 10.32 478.95 10.32C480.87 10.32 482.55 10.7334 483.99 11.56C485.457 12.3867 486.59 13.6134 487.39 15.24C488.217 16.84 488.63 18.8267 488.63 21.2C488.63 23.68 488.203 25.7734 487.35 27.48C486.497 29.16 485.31 30.4267 483.79 31.28C482.27 32.1334 480.523 32.56 478.55 32.56ZM478.87 29.68C479.43 29.68 479.91 29.48 480.31 29.08C480.737 28.68 481.057 27.9467 481.27 26.88C481.51 25.7867 481.63 24.2134 481.63 22.16C481.63 19.6534 481.51 17.76 481.27 16.48C481.03 15.1734 480.683 14.2934 480.23 13.84C479.777 13.3867 479.243 13.16 478.63 13.16C478.07 13.16 477.577 13.36 477.15 13.76C476.723 14.16 476.39 14.9067 476.15 16C475.937 17.0934 475.83 18.68 475.83 20.76C475.83 23.24 475.95 25.12 476.19 26.4C476.457 27.68 476.817 28.5467 477.27 29C477.723 29.4534 478.257 29.68 478.87 29.68ZM499.138 32.44C498.178 32.44 497.204 32.3334 496.218 32.12C495.258 31.9067 494.364 31.6 493.538 31.2C492.738 30.8 492.084 30.3067 491.578 29.72C491.071 29.1067 490.818 28.4134 490.818 27.64C490.818 26.7067 491.084 25.96 491.618 25.4C492.151 24.8134 492.831 24.52 493.658 24.52C494.404 24.52 495.031 24.76 495.538 25.24C496.071 25.72 496.338 26.3467 496.338 27.12C496.338 27.4667 496.284 27.7734 496.178 28.04C496.071 28.28 495.911 28.5467 495.698 28.84C495.938 29.08 496.364 29.2534 496.978 29.36C497.591 29.4667 498.191 29.52 498.778 29.52C499.711 29.52 500.431 29.3467 500.938 29C501.444 28.6534 501.698 28.2267 501.698 27.72C501.698 26.92 501.271 26.24 500.418 25.68C499.564 25.0934 498.591 24.5067 497.498 23.92C496.511 23.3867 495.524 22.8267 494.538 22.24C493.578 21.6267 492.764 20.8667 492.098 19.96C491.458 19.0534 491.138 17.9067 491.138 16.52C491.138 14.76 491.871 13.3067 493.338 12.16C494.804 11.0134 496.884 10.44 499.578 10.44C501.444 10.44 502.938 10.68 504.058 11.16C505.178 11.6134 505.991 12.2 506.498 12.92C507.004 13.6134 507.258 14.3467 507.258 15.12C507.258 15.9467 506.991 16.6134 506.458 17.12C505.951 17.6 505.324 17.84 504.578 17.84C503.911 17.84 503.324 17.64 502.818 17.24C502.311 16.8134 502.058 16.2667 502.058 15.6C502.058 15.28 502.111 14.9334 502.218 14.56C502.324 14.1867 502.471 13.88 502.658 13.64C502.364 13.4 502.018 13.24 501.618 13.16C501.244 13.0534 500.791 13 500.258 13C499.378 13 498.698 13.2134 498.218 13.64C497.764 14.04 497.538 14.5334 497.538 15.12C497.538 16.0267 497.964 16.7734 498.818 17.36C499.698 17.9467 500.671 18.52 501.738 19.08C502.724 19.5867 503.684 20.1334 504.618 20.72C505.578 21.3067 506.378 22.04 507.018 22.92C507.658 23.8 507.978 24.9334 507.978 26.32C507.978 27.8134 507.551 29.0134 506.698 29.92C505.844 30.8 504.738 31.44 503.378 31.84C502.044 32.24 500.631 32.44 499.138 32.44Z" fill="white"/>
</svg>
