<svg width="43" height="12" viewBox="0 0 43 12" fill="none" xmlns="http://www.w3.org/2000/svg">
<path d="M6.86367 3.06818C6.79549 2.49242 6.51897 2.04545 6.03412 1.72727C5.54928 1.40909 4.95458 1.25 4.25003 1.25C3.73488 1.25 3.28412 1.33333 2.89776 1.5C2.51518 1.66667 2.21594 1.89583 2.00003 2.1875C1.78791 2.47917 1.68185 2.81061 1.68185 3.18182C1.68185 3.49242 1.75572 3.75947 1.90344 3.98295C2.05496 4.20265 2.24814 4.38636 2.48299 4.53409C2.71784 4.67803 2.96405 4.79735 3.22162 4.89204C3.4792 4.98295 3.71594 5.05682 3.93185 5.11364L5.11367 5.43182C5.4167 5.51136 5.75382 5.62121 6.12503 5.76136C6.50003 5.90151 6.85799 6.0928 7.1989 6.33523C7.54359 6.57386 7.82769 6.88068 8.05117 7.25568C8.27466 7.63068 8.3864 8.09091 8.3864 8.63636C8.3864 9.26515 8.22162 9.83333 7.89208 10.3409C7.56632 10.8485 7.08905 11.2519 6.46026 11.5511C5.83526 11.8504 5.07579 12 4.18185 12C3.34852 12 2.62693 11.8655 2.01708 11.5966C1.41102 11.3277 0.933745 10.9527 0.585261 10.4716C0.240564 9.99053 0.0454879 9.43182 3.3319e-05 8.79545H1.45458C1.49246 9.23485 1.64018 9.59848 1.89776 9.88636C2.15912 10.1705 2.48867 10.3826 2.8864 10.5227C3.28791 10.6591 3.71973 10.7273 4.18185 10.7273C4.71973 10.7273 5.20269 10.6402 5.63072 10.4659C6.05875 10.2879 6.39776 10.0417 6.64776 9.72727C6.89776 9.40909 7.02276 9.03788 7.02276 8.61364C7.02276 8.22727 6.91481 7.91288 6.6989 7.67045C6.48299 7.42803 6.1989 7.23106 5.84662 7.07955C5.49435 6.92803 5.11367 6.79545 4.70458 6.68182L3.27276 6.27273C2.36367 6.01136 1.64397 5.63826 1.11367 5.15341C0.583367 4.66856 0.318215 4.03409 0.318215 3.25C0.318215 2.59848 0.494352 2.0303 0.846624 1.54545C1.20268 1.05682 1.67996 0.678029 2.27844 0.40909C2.88072 0.136363 3.55306 -9.53674e-07 4.29549 -9.53674e-07C5.04549 -9.53674e-07 5.71215 0.134469 6.29549 0.403408C6.87882 0.668559 7.34094 1.0322 7.68185 1.49432C8.02655 1.95644 8.20837 2.48106 8.22731 3.06818H6.86367ZM14.0668 11.9773C13.2789 11.9773 12.5876 11.7898 11.9929 11.4148C11.402 11.0398 10.9399 10.5152 10.6066 9.84091C10.277 9.16667 10.1122 8.37879 10.1122 7.47727C10.1122 6.56818 10.277 5.77462 10.6066 5.09659C10.9399 4.41856 11.402 3.89204 11.9929 3.51705C12.5876 3.14205 13.2789 2.95455 14.0668 2.95455C14.8547 2.95455 15.5441 3.14205 16.135 3.51705C16.7297 3.89204 17.1918 4.41856 17.5213 5.09659C17.8547 5.77462 18.0213 6.56818 18.0213 7.47727C18.0213 8.37879 17.8547 9.16667 17.5213 9.84091C17.1918 10.5152 16.7297 11.0398 16.135 11.4148C15.5441 11.7898 14.8547 11.9773 14.0668 11.9773ZM14.0668 10.7727C14.6653 10.7727 15.1577 10.6193 15.5441 10.3125C15.9304 10.0057 16.2164 9.60227 16.402 9.10227C16.5876 8.60227 16.6804 8.06061 16.6804 7.47727C16.6804 6.89394 16.5876 6.35038 16.402 5.84659C16.2164 5.3428 15.9304 4.93561 15.5441 4.625C15.1577 4.31439 14.6653 4.15909 14.0668 4.15909C13.4683 4.15909 12.9759 4.31439 12.5895 4.625C12.2032 4.93561 11.9172 5.3428 11.7316 5.84659C11.546 6.35038 11.4532 6.89394 11.4532 7.47727C11.4532 8.06061 11.546 8.60227 11.7316 9.10227C11.9172 9.60227 12.2032 10.0057 12.5895 10.3125C12.9759 10.6193 13.4683 10.7727 14.0668 10.7727ZM20.25 11.7955V0.15909H21.5909V4.45454H21.7046C21.8031 4.30303 21.9394 4.10985 22.1137 3.875C22.2917 3.63636 22.5455 3.42424 22.875 3.23864C23.2084 3.04924 23.6591 2.95455 24.2273 2.95455C24.9622 2.95455 25.6099 3.13826 26.1705 3.50568C26.7311 3.87311 27.1686 4.39394 27.483 5.06818C27.7974 5.74242 27.9546 6.53788 27.9546 7.45455C27.9546 8.37879 27.7974 9.17992 27.483 9.85795C27.1686 10.5322 26.733 11.0549 26.1762 11.4261C25.6194 11.7936 24.9773 11.9773 24.25 11.9773C23.6894 11.9773 23.2406 11.8845 22.9034 11.6989C22.5663 11.5095 22.3069 11.2955 22.125 11.0568C21.9432 10.8144 21.8031 10.6136 21.7046 10.4545H21.5455V11.7955H20.25ZM21.5682 7.43182C21.5682 8.09091 21.6648 8.67235 21.858 9.17614C22.0512 9.67614 22.3334 10.0682 22.7046 10.3523C23.0758 10.6326 23.5303 10.7727 24.0682 10.7727C24.6288 10.7727 25.0966 10.625 25.4716 10.3295C25.8504 10.0303 26.1345 9.62879 26.3239 9.125C26.5171 8.61742 26.6137 8.05303 26.6137 7.43182C26.6137 6.81818 26.519 6.26515 26.3296 5.77273C26.144 5.27651 25.8618 4.88447 25.483 4.59659C25.108 4.30492 24.6364 4.15909 24.0682 4.15909C23.5228 4.15909 23.0644 4.29735 22.6932 4.57386C22.322 4.84659 22.0417 5.22917 21.8523 5.72159C21.6629 6.21023 21.5682 6.7803 21.5682 7.43182ZM30.0057 11.7955V3.06818H31.3012V4.38636H31.3921C31.5512 3.95455 31.839 3.60417 32.2557 3.33523C32.6724 3.06629 33.1421 2.93182 33.6648 2.93182C33.7633 2.93182 33.8864 2.93371 34.0341 2.9375C34.1819 2.94129 34.2936 2.94697 34.3694 2.95455V4.31818C34.3239 4.30682 34.2197 4.28977 34.0569 4.26704C33.8978 4.24053 33.7292 4.22727 33.5512 4.22727C33.1269 4.22727 32.7481 4.31629 32.4148 4.49432C32.0853 4.66856 31.8239 4.91098 31.6307 5.22159C31.4413 5.52841 31.3466 5.87879 31.3466 6.27273V11.7955H30.0057ZM39.3523 11.9773C38.5114 11.9773 37.786 11.7917 37.1762 11.4205C36.5701 11.0455 36.1023 10.5227 35.7728 9.85227C35.447 9.17803 35.2841 8.39394 35.2841 7.5C35.2841 6.60606 35.447 5.81818 35.7728 5.13636C36.1023 4.45076 36.5606 3.91667 37.1478 3.53409C37.7387 3.14773 38.4281 2.95455 39.2159 2.95455C39.6705 2.95455 40.1194 3.0303 40.5625 3.18182C41.0057 3.33333 41.4091 3.57954 41.7728 3.92045C42.1364 4.25758 42.4262 4.70454 42.6421 5.26136C42.858 5.81818 42.9659 6.50379 42.9659 7.31818V7.88636H36.2387V6.72727H41.6023C41.6023 6.23485 41.5038 5.79545 41.3069 5.40909C41.1137 5.02273 40.8372 4.7178 40.4773 4.49432C40.1212 4.27083 39.7008 4.15909 39.2159 4.15909C38.6819 4.15909 38.2197 4.29167 37.8296 4.55682C37.4432 4.81818 37.1459 5.15909 36.9375 5.57954C36.7292 6 36.625 6.45076 36.625 6.93182V7.70455C36.625 8.36364 36.7387 8.92235 36.9659 9.38068C37.197 9.83523 37.5171 10.1818 37.9262 10.4205C38.3353 10.6553 38.8106 10.7727 39.3523 10.7727C39.7046 10.7727 40.0228 10.7235 40.3069 10.625C40.5947 10.5227 40.8428 10.3712 41.0512 10.1705C41.2595 9.96591 41.4205 9.71212 41.5341 9.40909L42.8296 9.77273C42.6932 10.2121 42.464 10.5985 42.1421 10.9318C41.8201 11.2614 41.4224 11.5189 40.9489 11.7045C40.4754 11.8864 39.9432 11.9773 39.3523 11.9773Z" fill="black"/>
</svg>
