<svg width="504" height="82" viewBox="0 0 504 82" fill="none" xmlns="http://www.w3.org/2000/svg">
<path d="M14.9318 6.34088H12.8182C12.6932 5.73293 12.4744 5.19884 12.1619 4.73861C11.8551 4.27838 11.4801 3.89202 11.0369 3.57952C10.5994 3.26134 10.1136 3.0227 9.57954 2.86361C9.04545 2.70452 8.48863 2.62497 7.90908 2.62497C6.85227 2.62497 5.89488 2.89202 5.03693 3.42611C4.18465 3.9602 3.50568 4.74713 2.99999 5.7869C2.49999 6.82668 2.24999 8.10224 2.24999 9.61361C2.24999 11.125 2.49999 12.4005 2.99999 13.4403C3.50568 14.4801 4.18465 15.267 5.03693 15.8011C5.89488 16.3352 6.85227 16.6022 7.90908 16.6022C8.48863 16.6022 9.04545 16.5227 9.57954 16.3636C10.1136 16.2045 10.5994 15.9687 11.0369 15.6562C11.4801 15.338 11.8551 14.9488 12.1619 14.4886C12.4744 14.0227 12.6932 13.4886 12.8182 12.8863H14.9318C14.7727 13.7784 14.4829 14.5767 14.0625 15.2812C13.642 15.9858 13.1193 16.5852 12.4943 17.0795C11.8693 17.5682 11.1676 17.9403 10.3892 18.196C9.61647 18.4517 8.78977 18.5795 7.90908 18.5795C6.42045 18.5795 5.09658 18.2159 3.93749 17.4886C2.7784 16.7613 1.86647 15.7272 1.2017 14.3863C0.536925 13.0454 0.204539 11.4545 0.204539 9.61361C0.204539 7.7727 0.536925 6.18179 1.2017 4.84088C1.86647 3.49997 2.7784 2.46588 3.93749 1.73861C5.09658 1.01134 6.42045 0.647699 7.90908 0.647699C8.78977 0.647699 9.61647 0.77554 10.3892 1.03122C11.1676 1.2869 11.8693 1.6619 12.4943 2.15622C13.1193 2.64486 13.642 3.24145 14.0625 3.94599C14.4829 4.64486 14.7727 5.44315 14.9318 6.34088ZM23.3927 18.6136C22.2109 18.6136 21.174 18.3324 20.282 17.7699C19.3956 17.2074 18.7024 16.4204 18.2024 15.4091C17.7081 14.3977 17.4609 13.2159 17.4609 11.8636C17.4609 10.5 17.7081 9.30963 18.2024 8.29259C18.7024 7.27554 19.3956 6.48577 20.282 5.92327C21.174 5.36077 22.2109 5.07952 23.3927 5.07952C24.5746 5.07952 25.6087 5.36077 26.495 5.92327C27.3871 6.48577 28.0802 7.27554 28.5746 8.29259C29.0746 9.30963 29.3246 10.5 29.3246 11.8636C29.3246 13.2159 29.0746 14.3977 28.5746 15.4091C28.0802 16.4204 27.3871 17.2074 26.495 17.7699C25.6087 18.3324 24.5746 18.6136 23.3927 18.6136ZM23.3927 16.8068C24.2905 16.8068 25.0291 16.5767 25.6087 16.1164C26.1882 15.6562 26.6172 15.0511 26.8956 14.3011C27.174 13.5511 27.3132 12.7386 27.3132 11.8636C27.3132 10.9886 27.174 10.1733 26.8956 9.41759C26.6172 8.6619 26.1882 8.05111 25.6087 7.5852C25.0291 7.11929 24.2905 6.88634 23.3927 6.88634C22.495 6.88634 21.7564 7.11929 21.1768 7.5852C20.5973 8.05111 20.1683 8.6619 19.8899 9.41759C19.6115 10.1733 19.4723 10.9886 19.4723 11.8636C19.4723 12.7386 19.6115 13.5511 19.8899 14.3011C20.1683 15.0511 20.5973 15.6562 21.1768 16.1164C21.7564 16.5767 22.495 16.8068 23.3927 16.8068ZM32.3949 18.3409V5.24997H34.3381V7.29543H34.5085C34.7812 6.59656 35.2216 6.05395 35.8295 5.66759C36.4375 5.27554 37.1676 5.07952 38.0199 5.07952C38.8835 5.07952 39.6023 5.27554 40.1761 5.66759C40.7557 6.05395 41.2074 6.59656 41.5312 7.29543H41.6676C42.0028 6.61929 42.5057 6.08236 43.1761 5.68463C43.8466 5.28122 44.6506 5.07952 45.5881 5.07952C46.7585 5.07952 47.7159 5.44599 48.4602 6.17895C49.2045 6.90622 49.5767 8.03974 49.5767 9.57952V18.3409H47.5653V9.57952C47.5653 8.61361 47.3011 7.92327 46.7727 7.50849C46.2443 7.09372 45.6222 6.88634 44.9062 6.88634C43.9858 6.88634 43.2727 7.16474 42.767 7.72156C42.2614 8.2727 42.0085 8.97156 42.0085 9.81815V18.3409H39.9631V9.37497C39.9631 8.63065 39.7216 8.03122 39.2386 7.57668C38.7557 7.11645 38.1335 6.88634 37.3722 6.88634C36.8494 6.88634 36.3608 7.02554 35.9062 7.30395C35.4574 7.58236 35.0937 7.96872 34.8153 8.46304C34.5426 8.95168 34.4062 9.51702 34.4062 10.1591V18.3409H32.3949ZM53.2543 23.25V5.24997H55.1974V7.32952H55.4361C55.5838 7.10224 55.7883 6.81247 56.0497 6.4602C56.3168 6.10224 56.6974 5.78406 57.1918 5.50565C57.6918 5.22156 58.3679 5.07952 59.2202 5.07952C60.3224 5.07952 61.294 5.35509 62.1349 5.90622C62.9758 6.45736 63.6321 7.23861 64.1037 8.24997C64.5753 9.26134 64.8111 10.4545 64.8111 11.8295C64.8111 13.2159 64.5753 14.4176 64.1037 15.4346C63.6321 16.446 62.9787 17.2301 62.1435 17.7869C61.3082 18.338 60.3452 18.6136 59.2543 18.6136C58.4133 18.6136 57.7401 18.4744 57.2344 18.196C56.7287 17.9119 56.3395 17.5909 56.0668 17.2329C55.794 16.8693 55.5838 16.5682 55.4361 16.3295H55.2656V23.25H53.2543ZM55.2315 11.7954C55.2315 12.7841 55.3764 13.6562 55.6662 14.4119C55.956 15.1619 56.3793 15.75 56.9361 16.1761C57.4929 16.5966 58.1747 16.8068 58.9815 16.8068C59.8224 16.8068 60.5241 16.5852 61.0866 16.142C61.6548 15.6932 62.081 15.0909 62.3651 14.3352C62.6548 13.5738 62.7997 12.7272 62.7997 11.7954C62.7997 10.875 62.6577 10.0454 62.3736 9.30679C62.0952 8.56247 61.6719 7.9744 61.1037 7.54259C60.5412 7.10509 59.8338 6.88634 58.9815 6.88634C58.1633 6.88634 57.4758 7.09372 56.919 7.50849C56.3622 7.91759 55.9418 8.49145 55.6577 9.23009C55.3736 9.96304 55.2315 10.8182 55.2315 11.7954ZM71.7315 18.6477C70.902 18.6477 70.1491 18.4914 69.473 18.1789C68.7969 17.8608 68.2599 17.4034 67.8622 16.8068C67.4645 16.2045 67.2656 15.4772 67.2656 14.625C67.2656 13.875 67.4133 13.267 67.7088 12.8011C68.0043 12.3295 68.3991 11.9602 68.8935 11.6932C69.3878 11.4261 69.9332 11.2272 70.5298 11.0966C71.1321 10.9602 71.7372 10.8522 72.3452 10.7727C73.1406 10.6704 73.7855 10.5937 74.2798 10.5426C74.7798 10.4858 75.1435 10.392 75.3707 10.2613C75.6037 10.1307 75.7202 9.90338 75.7202 9.57952V9.51134C75.7202 8.67043 75.4901 8.01702 75.0298 7.55111C74.5753 7.0852 73.8849 6.85224 72.9588 6.85224C71.9986 6.85224 71.2457 7.06247 70.7003 7.48293C70.1548 7.90338 69.7713 8.35224 69.5497 8.82952L67.6406 8.1477C67.9815 7.35224 68.4361 6.73293 69.0043 6.28974C69.5781 5.84088 70.2031 5.52838 70.8793 5.35224C71.5611 5.17043 72.2315 5.07952 72.8906 5.07952C73.3111 5.07952 73.794 5.13065 74.3395 5.23293C74.8906 5.32952 75.4219 5.53122 75.9332 5.83804C76.4503 6.14486 76.8793 6.60793 77.2202 7.22724C77.5611 7.84656 77.7315 8.67611 77.7315 9.71588V18.3409H75.7202V16.5682H75.6179C75.4815 16.8522 75.2543 17.1562 74.9361 17.4801C74.6179 17.8039 74.1946 18.0795 73.6662 18.3068C73.1378 18.5341 72.4929 18.6477 71.7315 18.6477ZM72.0383 16.8409C72.8338 16.8409 73.5043 16.6846 74.0497 16.3721C74.6008 16.0596 75.0156 15.6562 75.294 15.1619C75.5781 14.6676 75.7202 14.1477 75.7202 13.6022V11.7613C75.6349 11.8636 75.4474 11.9574 75.1577 12.0426C74.8736 12.1221 74.544 12.1932 74.169 12.2557C73.7997 12.3125 73.4389 12.3636 73.0866 12.4091C72.7401 12.4488 72.4588 12.4829 72.2429 12.5113C71.7202 12.5795 71.2315 12.6903 70.777 12.8437C70.3281 12.9914 69.9645 13.2159 69.6861 13.517C69.4133 13.8125 69.277 14.2159 69.277 14.7272C69.277 15.4261 69.5355 15.9545 70.0526 16.3125C70.5753 16.6647 71.2372 16.8409 72.0383 16.8409ZM81.4027 18.3409V5.24997H83.3459V7.22724H83.4822C83.7209 6.57952 84.1527 6.05395 84.7777 5.65054C85.4027 5.24713 86.1072 5.04543 86.8913 5.04543C87.0391 5.04543 87.2237 5.04827 87.4453 5.05395C87.6669 5.05963 87.8345 5.06815 87.9481 5.07952V7.12497C87.88 7.10793 87.7237 7.08236 87.4794 7.04827C87.2408 7.00849 86.9879 6.98861 86.7209 6.98861C86.0845 6.98861 85.5163 7.12213 85.0163 7.38918C84.522 7.65054 84.13 8.01418 83.8402 8.48009C83.5561 8.94031 83.4141 9.46588 83.4141 10.0568V18.3409H81.4027ZM95.4226 18.6136C94.1612 18.6136 93.0731 18.3352 92.1584 17.7784C91.2493 17.2159 90.5476 16.4318 90.0533 15.4261C89.5646 14.4147 89.3203 13.2386 89.3203 11.8977C89.3203 10.5568 89.5646 9.37497 90.0533 8.35224C90.5476 7.32384 91.2351 6.5227 92.1158 5.94884C93.0021 5.36929 94.0362 5.07952 95.218 5.07952C95.8999 5.07952 96.5731 5.19315 97.2379 5.42043C97.9027 5.6477 98.5078 6.01702 99.0533 6.52838C99.5987 7.03406 100.033 7.70452 100.357 8.53974C100.681 9.37497 100.843 10.4034 100.843 11.625V12.4772H90.7521V10.7386H98.7976C98.7976 9.99997 98.6499 9.34088 98.3544 8.76134C98.0646 8.18179 97.6499 7.7244 97.1101 7.38918C96.576 7.05395 95.9453 6.88634 95.218 6.88634C94.4169 6.88634 93.7237 7.0852 93.1385 7.48293C92.5589 7.87497 92.1129 8.38634 91.8004 9.01702C91.4879 9.6477 91.3317 10.3238 91.3317 11.0454V12.2045C91.3317 13.1932 91.5021 14.0312 91.843 14.7187C92.1896 15.4005 92.6697 15.9204 93.2834 16.2784C93.897 16.6307 94.6101 16.8068 95.4226 16.8068C95.951 16.8068 96.4283 16.7329 96.8544 16.5852C97.2862 16.4318 97.6584 16.2045 97.9709 15.9034C98.2834 15.5966 98.5249 15.2159 98.6953 14.7613L100.638 15.3068C100.434 15.9659 100.09 16.5454 99.6072 17.0454C99.1243 17.5397 98.5277 17.9261 97.8175 18.2045C97.1072 18.4772 96.3089 18.6136 95.4226 18.6136ZM110.653 23.25V5.24997H112.596V7.32952H112.835C112.982 7.10224 113.187 6.81247 113.448 6.4602C113.715 6.10224 114.096 5.78406 114.59 5.50565C115.09 5.22156 115.766 5.07952 116.619 5.07952C117.721 5.07952 118.692 5.35509 119.533 5.90622C120.374 6.45736 121.031 7.23861 121.502 8.24997C121.974 9.26134 122.21 10.4545 122.21 11.8295C122.21 13.2159 121.974 14.4176 121.502 15.4346C121.031 16.446 120.377 17.2301 119.542 17.7869C118.707 18.338 117.744 18.6136 116.653 18.6136C115.812 18.6136 115.138 18.4744 114.633 18.196C114.127 17.9119 113.738 17.5909 113.465 17.2329C113.192 16.8693 112.982 16.5682 112.835 16.3295H112.664V23.25H110.653ZM112.63 11.7954C112.63 12.7841 112.775 13.6562 113.065 14.4119C113.354 15.1619 113.778 15.75 114.335 16.1761C114.891 16.5966 115.573 16.8068 116.38 16.8068C117.221 16.8068 117.923 16.5852 118.485 16.142C119.053 15.6932 119.479 15.0909 119.763 14.3352C120.053 13.5738 120.198 12.7272 120.198 11.7954C120.198 10.875 120.056 10.0454 119.772 9.30679C119.494 8.56247 119.07 7.9744 118.502 7.54259C117.94 7.10509 117.232 6.88634 116.38 6.88634C115.562 6.88634 114.874 7.09372 114.317 7.50849C113.761 7.91759 113.34 8.49145 113.056 9.23009C112.772 9.96304 112.63 10.8182 112.63 11.7954ZM125.278 18.3409V5.24997H127.221V7.22724H127.357C127.596 6.57952 128.028 6.05395 128.653 5.65054C129.278 5.24713 129.982 5.04543 130.766 5.04543C130.914 5.04543 131.099 5.04827 131.32 5.05395C131.542 5.05963 131.71 5.06815 131.823 5.07952V7.12497C131.755 7.10793 131.599 7.08236 131.354 7.04827C131.116 7.00849 130.863 6.98861 130.596 6.98861C129.96 6.98861 129.391 7.12213 128.891 7.38918C128.397 7.65054 128.005 8.01418 127.715 8.48009C127.431 8.94031 127.289 9.46588 127.289 10.0568V18.3409H125.278ZM139.298 18.6136C138.036 18.6136 136.948 18.3352 136.033 17.7784C135.124 17.2159 134.423 16.4318 133.928 15.4261C133.44 14.4147 133.195 13.2386 133.195 11.8977C133.195 10.5568 133.44 9.37497 133.928 8.35224C134.423 7.32384 135.11 6.5227 135.991 5.94884C136.877 5.36929 137.911 5.07952 139.093 5.07952C139.775 5.07952 140.448 5.19315 141.113 5.42043C141.778 5.6477 142.383 6.01702 142.928 6.52838C143.474 7.03406 143.908 7.70452 144.232 8.53974C144.556 9.37497 144.718 10.4034 144.718 11.625V12.4772H134.627V10.7386H142.673C142.673 9.99997 142.525 9.34088 142.229 8.76134C141.94 8.18179 141.525 7.7244 140.985 7.38918C140.451 7.05395 139.82 6.88634 139.093 6.88634C138.292 6.88634 137.599 7.0852 137.013 7.48293C136.434 7.87497 135.988 8.38634 135.675 9.01702C135.363 9.6477 135.207 10.3238 135.207 11.0454V12.2045C135.207 13.1932 135.377 14.0312 135.718 14.7187C136.065 15.4005 136.545 15.9204 137.158 16.2784C137.772 16.6307 138.485 16.8068 139.298 16.8068C139.826 16.8068 140.303 16.7329 140.729 16.5852C141.161 16.4318 141.533 16.2045 141.846 15.9034C142.158 15.5966 142.4 15.2159 142.57 14.7613L144.513 15.3068C144.309 15.9659 143.965 16.5454 143.482 17.0454C142.999 17.5397 142.403 17.9261 141.692 18.2045C140.982 18.4772 140.184 18.6136 139.298 18.6136ZM153.096 18.6136C151.869 18.6136 150.812 18.3238 149.925 17.7443C149.039 17.1647 148.357 16.3664 147.88 15.3494C147.403 14.3324 147.164 13.1704 147.164 11.8636C147.164 10.5341 147.408 9.36077 147.897 8.34372C148.391 7.32099 149.079 6.5227 149.96 5.94884C150.846 5.36929 151.88 5.07952 153.062 5.07952C153.982 5.07952 154.812 5.24997 155.55 5.59088C156.289 5.93179 156.894 6.40906 157.366 7.0227C157.837 7.63634 158.13 8.35224 158.244 9.17043H156.232C156.079 8.57384 155.738 8.04543 155.21 7.5852C154.687 7.11929 153.982 6.88634 153.096 6.88634C152.312 6.88634 151.624 7.09088 151.033 7.49997C150.448 7.90338 149.991 8.4744 149.661 9.21304C149.337 9.94599 149.175 10.8068 149.175 11.7954C149.175 12.8068 149.335 13.6875 149.653 14.4375C149.977 15.1875 150.431 15.7699 151.016 16.1846C151.607 16.5994 152.3 16.8068 153.096 16.8068C153.619 16.8068 154.093 16.7159 154.519 16.5341C154.945 16.3522 155.306 16.0909 155.602 15.75C155.897 15.4091 156.107 15 156.232 14.5227H158.244C158.13 15.2954 157.849 15.9914 157.4 16.6108C156.957 17.2244 156.369 17.713 155.636 18.0767C154.908 18.4346 154.062 18.6136 153.096 18.6136ZM152.141 18.2727H153.812L153.675 18.9545C154.119 19.0227 154.525 19.2074 154.894 19.5085C155.263 19.8153 155.448 20.3011 155.448 20.9659C155.448 21.6988 155.144 22.2954 154.536 22.7557C153.934 23.2216 153.045 23.4545 151.869 23.4545L151.8 22.125C152.329 22.125 152.766 22.0397 153.113 21.8693C153.465 21.7045 153.641 21.4261 153.641 21.0341C153.641 20.642 153.496 20.375 153.207 20.2329C152.917 20.0909 152.448 19.9943 151.8 19.9432L152.141 18.2727ZM166.502 18.6136C165.32 18.6136 164.283 18.3324 163.391 17.7699C162.505 17.2074 161.812 16.4204 161.312 15.4091C160.817 14.3977 160.57 13.2159 160.57 11.8636C160.57 10.5 160.817 9.30963 161.312 8.29259C161.812 7.27554 162.505 6.48577 163.391 5.92327C164.283 5.36077 165.32 5.07952 166.502 5.07952C167.684 5.07952 168.718 5.36077 169.604 5.92327C170.496 6.48577 171.19 7.27554 171.684 8.29259C172.184 9.30963 172.434 10.5 172.434 11.8636C172.434 13.2159 172.184 14.3977 171.684 15.4091C171.19 16.4204 170.496 17.2074 169.604 17.7699C168.718 18.3324 167.684 18.6136 166.502 18.6136ZM166.502 16.8068C167.4 16.8068 168.138 16.5767 168.718 16.1164C169.298 15.6562 169.727 15.0511 170.005 14.3011C170.283 13.5511 170.423 12.7386 170.423 11.8636C170.423 10.9886 170.283 10.1733 170.005 9.41759C169.727 8.6619 169.298 8.05111 168.718 7.5852C168.138 7.11929 167.4 6.88634 166.502 6.88634C165.604 6.88634 164.866 7.11929 164.286 7.5852C163.707 8.05111 163.278 8.6619 162.999 9.41759C162.721 10.1733 162.582 10.9886 162.582 11.8636C162.582 12.7386 162.721 13.5511 162.999 14.3011C163.278 15.0511 163.707 15.6562 164.286 16.1164C164.866 16.5767 165.604 16.8068 166.502 16.8068ZM184.777 8.18179L182.97 8.69315C182.857 8.39202 182.689 8.0994 182.467 7.81531C182.251 7.52554 181.956 7.2869 181.581 7.0994C181.206 6.9119 180.726 6.81815 180.141 6.81815C179.339 6.81815 178.672 7.00281 178.138 7.37213C177.609 7.73577 177.345 8.19884 177.345 8.76134C177.345 9.26134 177.527 9.65622 177.891 9.94599C178.254 10.2358 178.822 10.4772 179.595 10.6704L181.538 11.1477C182.709 11.4318 183.581 11.8664 184.155 12.4517C184.729 13.0312 185.016 13.7784 185.016 14.6932C185.016 15.4432 184.8 16.1136 184.368 16.7045C183.942 17.2954 183.345 17.7613 182.578 18.1022C181.811 18.4432 180.919 18.6136 179.902 18.6136C178.567 18.6136 177.462 18.3238 176.587 17.7443C175.712 17.1647 175.158 16.3182 174.925 15.2045L176.834 14.7272C177.016 15.4318 177.359 15.9602 177.865 16.3125C178.376 16.6647 179.044 16.8409 179.868 16.8409C180.805 16.8409 181.55 16.642 182.101 16.2443C182.658 15.8409 182.936 15.3579 182.936 14.7954C182.936 14.3409 182.777 13.9602 182.459 13.6534C182.141 13.3409 181.652 13.1079 180.993 12.9545L178.811 12.4432C177.612 12.1591 176.732 11.7187 176.169 11.1221C175.612 10.5199 175.334 9.76702 175.334 8.86361C175.334 8.12497 175.541 7.47156 175.956 6.90338C176.376 6.3352 176.947 5.88918 177.669 5.56531C178.396 5.24145 179.22 5.07952 180.141 5.07952C181.436 5.07952 182.453 5.36361 183.192 5.93179C183.936 6.49997 184.464 7.24997 184.777 8.18179ZM191.043 15.9545L190.907 16.875C190.81 17.5227 190.663 18.2159 190.464 18.9545C190.271 19.6932 190.069 20.3892 189.859 21.0426C189.648 21.696 189.475 22.2159 189.339 22.6022H187.805C187.879 22.2386 187.975 21.7585 188.094 21.1619C188.214 20.5653 188.333 19.8977 188.452 19.1591C188.577 18.4261 188.68 17.6761 188.759 16.9091L188.861 15.9545H191.043ZM206.463 18.6136C205.372 18.6136 204.409 18.338 203.574 17.7869C202.739 17.2301 202.085 16.446 201.614 15.4346C201.142 14.4176 200.906 13.2159 200.906 11.8295C200.906 10.4545 201.142 9.26134 201.614 8.24997C202.085 7.23861 202.741 6.45736 203.582 5.90622C204.423 5.35509 205.395 5.07952 206.497 5.07952C207.349 5.07952 208.023 5.22156 208.517 5.50565C209.017 5.78406 209.398 6.10224 209.659 6.4602C209.926 6.81247 210.134 7.10224 210.281 7.32952H210.452V0.886335H212.463V18.3409H210.52V16.3295H210.281C210.134 16.5682 209.923 16.8693 209.651 17.2329C209.378 17.5909 208.989 17.9119 208.483 18.196C207.977 18.4744 207.304 18.6136 206.463 18.6136ZM206.736 16.8068C207.543 16.8068 208.224 16.5966 208.781 16.1761C209.338 15.75 209.761 15.1619 210.051 14.4119C210.341 13.6562 210.486 12.7841 210.486 11.7954C210.486 10.8182 210.344 9.96304 210.06 9.23009C209.776 8.49145 209.355 7.91759 208.798 7.50849C208.241 7.09372 207.554 6.88634 206.736 6.88634C205.884 6.88634 205.173 7.10509 204.605 7.54259C204.043 7.9744 203.619 8.56247 203.335 9.30679C203.057 10.0454 202.918 10.875 202.918 11.7954C202.918 12.7272 203.06 13.5738 203.344 14.3352C203.634 15.0909 204.06 15.6932 204.622 16.142C205.19 16.5852 205.895 16.8068 206.736 16.8068ZM216.426 18.3409V5.24997H218.437V18.3409H216.426ZM217.449 3.06815C217.057 3.06815 216.719 2.93463 216.435 2.66759C216.156 2.40054 216.017 2.07952 216.017 1.70452C216.017 1.32952 216.156 1.00849 216.435 0.741449C216.719 0.474404 217.057 0.340881 217.449 0.340881C217.841 0.340881 218.176 0.474404 218.455 0.741449C218.739 1.00849 218.881 1.32952 218.881 1.70452C218.881 2.07952 218.739 2.40054 218.455 2.66759C218.176 2.93463 217.841 3.06815 217.449 3.06815ZM231.394 8.18179L229.587 8.69315C229.474 8.39202 229.306 8.0994 229.085 7.81531C228.869 7.52554 228.573 7.2869 228.198 7.0994C227.823 6.9119 227.343 6.81815 226.758 6.81815C225.957 6.81815 225.289 7.00281 224.755 7.37213C224.227 7.73577 223.962 8.19884 223.962 8.76134C223.962 9.26134 224.144 9.65622 224.508 9.94599C224.871 10.2358 225.44 10.4772 226.212 10.6704L228.156 11.1477C229.326 11.4318 230.198 11.8664 230.772 12.4517C231.346 13.0312 231.633 13.7784 231.633 14.6932C231.633 15.4432 231.417 16.1136 230.985 16.7045C230.559 17.2954 229.962 17.7613 229.195 18.1022C228.428 18.4432 227.536 18.6136 226.519 18.6136C225.184 18.6136 224.079 18.3238 223.204 17.7443C222.329 17.1647 221.775 16.3182 221.542 15.2045L223.451 14.7272C223.633 15.4318 223.977 15.9602 224.482 16.3125C224.994 16.6647 225.661 16.8409 226.485 16.8409C227.423 16.8409 228.167 16.642 228.718 16.2443C229.275 15.8409 229.553 15.3579 229.553 14.7954C229.553 14.3409 229.394 13.9602 229.076 13.6534C228.758 13.3409 228.269 13.1079 227.61 12.9545L225.428 12.4432C224.229 12.1591 223.349 11.7187 222.786 11.1221C222.229 10.5199 221.951 9.76702 221.951 8.86361C221.951 8.12497 222.158 7.47156 222.573 6.90338C222.994 6.3352 223.565 5.88918 224.286 5.56531C225.013 5.24145 225.837 5.07952 226.758 5.07952C228.053 5.07952 229.07 5.36361 229.809 5.93179C230.553 6.49997 231.082 7.24997 231.394 8.18179ZM240.354 5.24997V6.95452H233.57V5.24997H240.354ZM235.547 2.11361H237.558V14.5909C237.558 15.1591 237.641 15.5852 237.805 15.8693C237.976 16.1477 238.192 16.3352 238.453 16.4318C238.72 16.5227 239.001 16.5682 239.297 16.5682C239.518 16.5682 239.7 16.5568 239.842 16.5341C239.984 16.5057 240.098 16.4829 240.183 16.4659L240.592 18.2727C240.456 18.3238 240.266 18.375 240.021 18.4261C239.777 18.4829 239.467 18.5113 239.092 18.5113C238.524 18.5113 237.967 18.3892 237.422 18.1449C236.882 17.9005 236.433 17.5284 236.075 17.0284C235.723 16.5284 235.547 15.8977 235.547 15.1363V2.11361ZM247.232 18.6477C246.402 18.6477 245.649 18.4914 244.973 18.1789C244.297 17.8608 243.76 17.4034 243.362 16.8068C242.964 16.2045 242.766 15.4772 242.766 14.625C242.766 13.875 242.913 13.267 243.209 12.8011C243.504 12.3295 243.899 11.9602 244.393 11.6932C244.888 11.4261 245.433 11.2272 246.03 11.0966C246.632 10.9602 247.237 10.8522 247.845 10.7727C248.641 10.6704 249.286 10.5937 249.78 10.5426C250.28 10.4858 250.643 10.392 250.871 10.2613C251.104 10.1307 251.22 9.90338 251.22 9.57952V9.51134C251.22 8.67043 250.99 8.01702 250.53 7.55111C250.075 7.0852 249.385 6.85224 248.459 6.85224C247.499 6.85224 246.746 7.06247 246.2 7.48293C245.655 7.90338 245.271 8.35224 245.05 8.82952L243.141 8.1477C243.482 7.35224 243.936 6.73293 244.504 6.28974C245.078 5.84088 245.703 5.52838 246.379 5.35224C247.061 5.17043 247.732 5.07952 248.391 5.07952C248.811 5.07952 249.294 5.13065 249.839 5.23293C250.391 5.32952 250.922 5.53122 251.433 5.83804C251.95 6.14486 252.379 6.60793 252.72 7.22724C253.061 7.84656 253.232 8.67611 253.232 9.71588V18.3409H251.22V16.5682H251.118C250.982 16.8522 250.754 17.1562 250.436 17.4801C250.118 17.8039 249.695 18.0795 249.166 18.3068C248.638 18.5341 247.993 18.6477 247.232 18.6477ZM247.538 16.8409C248.334 16.8409 249.004 16.6846 249.55 16.3721C250.101 16.0596 250.516 15.6562 250.794 15.1619C251.078 14.6676 251.22 14.1477 251.22 13.6022V11.7613C251.135 11.8636 250.947 11.9574 250.658 12.0426C250.374 12.1221 250.044 12.1932 249.669 12.2557C249.3 12.3125 248.939 12.3636 248.587 12.4091C248.24 12.4488 247.959 12.4829 247.743 12.5113C247.22 12.5795 246.732 12.6903 246.277 12.8437C245.828 12.9914 245.464 13.2159 245.186 13.517C244.913 13.8125 244.777 14.2159 244.777 14.7272C244.777 15.4261 245.036 15.9545 245.553 16.3125C246.075 16.6647 246.737 16.8409 247.538 16.8409ZM250.3 3.68179L248.527 1.29543L246.754 3.68179H244.845V3.54543L247.607 -2.81334e-05H249.447L252.209 3.54543V3.68179H250.3ZM258.914 10.4659V18.3409H256.903V5.24997H258.846V7.29543H259.016C259.323 6.63065 259.789 6.09656 260.414 5.69315C261.039 5.28406 261.846 5.07952 262.835 5.07952C263.721 5.07952 264.496 5.26134 265.161 5.62497C265.826 5.98293 266.343 6.52838 266.712 7.26134C267.082 7.98861 267.266 8.90906 267.266 10.0227V18.3409H265.255V10.1591C265.255 9.13065 264.988 8.32952 264.454 7.75565C263.92 7.17611 263.187 6.88634 262.255 6.88634C261.613 6.88634 261.039 7.02554 260.533 7.30395C260.033 7.58236 259.638 7.98861 259.349 8.5227C259.059 9.05679 258.914 9.70452 258.914 10.4659ZM276.26 18.6136C275.033 18.6136 273.976 18.3238 273.089 17.7443C272.203 17.1647 271.521 16.3664 271.044 15.3494C270.567 14.3324 270.328 13.1704 270.328 11.8636C270.328 10.5341 270.572 9.36077 271.061 8.34372C271.555 7.32099 272.243 6.5227 273.124 5.94884C274.01 5.36929 275.044 5.07952 276.226 5.07952C277.146 5.07952 277.976 5.24997 278.714 5.59088C279.453 5.93179 280.058 6.40906 280.53 7.0227C281.001 7.63634 281.294 8.35224 281.408 9.17043H279.396C279.243 8.57384 278.902 8.04543 278.374 7.5852C277.851 7.11929 277.146 6.88634 276.26 6.88634C275.476 6.88634 274.788 7.09088 274.197 7.49997C273.612 7.90338 273.155 8.4744 272.825 9.21304C272.501 9.94599 272.339 10.8068 272.339 11.7954C272.339 12.8068 272.499 13.6875 272.817 14.4375C273.141 15.1875 273.595 15.7699 274.18 16.1846C274.771 16.5994 275.464 16.8068 276.26 16.8068C276.783 16.8068 277.257 16.7159 277.683 16.5341C278.109 16.3522 278.47 16.0909 278.766 15.75C279.061 15.4091 279.271 15 279.396 14.5227H281.408C281.294 15.2954 281.013 15.9914 280.564 16.6108C280.121 17.2244 279.533 17.713 278.8 18.0767C278.072 18.4346 277.226 18.6136 276.26 18.6136ZM284.348 18.3409V5.24997H286.359V18.3409H284.348ZM285.371 3.06815C284.979 3.06815 284.641 2.93463 284.357 2.66759C284.078 2.40054 283.939 2.07952 283.939 1.70452C283.939 1.32952 284.078 1.00849 284.357 0.741449C284.641 0.474404 284.979 0.340881 285.371 0.340881C285.763 0.340881 286.098 0.474404 286.376 0.741449C286.661 1.00849 286.803 1.32952 286.803 1.70452C286.803 2.07952 286.661 2.40054 286.376 2.66759C286.098 2.93463 285.763 3.06815 285.371 3.06815ZM293.896 18.6477C293.066 18.6477 292.313 18.4914 291.637 18.1789C290.961 17.8608 290.424 17.4034 290.026 16.8068C289.629 16.2045 289.43 15.4772 289.43 14.625C289.43 13.875 289.577 13.267 289.873 12.8011C290.168 12.3295 290.563 11.9602 291.058 11.6932C291.552 11.4261 292.097 11.2272 292.694 11.0966C293.296 10.9602 293.901 10.8522 294.509 10.7727C295.305 10.6704 295.95 10.5937 296.444 10.5426C296.944 10.4858 297.308 10.392 297.535 10.2613C297.768 10.1307 297.884 9.90338 297.884 9.57952V9.51134C297.884 8.67043 297.654 8.01702 297.194 7.55111C296.739 7.0852 296.049 6.85224 295.123 6.85224C294.163 6.85224 293.41 7.06247 292.864 7.48293C292.319 7.90338 291.935 8.35224 291.714 8.82952L289.805 8.1477C290.146 7.35224 290.6 6.73293 291.168 6.28974C291.742 5.84088 292.367 5.52838 293.043 5.35224C293.725 5.17043 294.396 5.07952 295.055 5.07952C295.475 5.07952 295.958 5.13065 296.504 5.23293C297.055 5.32952 297.586 5.53122 298.097 5.83804C298.614 6.14486 299.043 6.60793 299.384 7.22724C299.725 7.84656 299.896 8.67611 299.896 9.71588V18.3409H297.884V16.5682H297.782C297.646 16.8522 297.418 17.1562 297.1 17.4801C296.782 17.8039 296.359 18.0795 295.83 18.3068C295.302 18.5341 294.657 18.6477 293.896 18.6477ZM294.202 16.8409C294.998 16.8409 295.668 16.6846 296.214 16.3721C296.765 16.0596 297.18 15.6562 297.458 15.1619C297.742 14.6676 297.884 14.1477 297.884 13.6022V11.7613C297.799 11.8636 297.611 11.9574 297.322 12.0426C297.038 12.1221 296.708 12.1932 296.333 12.2557C295.964 12.3125 295.603 12.3636 295.251 12.4091C294.904 12.4488 294.623 12.4829 294.407 12.5113C293.884 12.5795 293.396 12.6903 292.941 12.8437C292.492 12.9914 292.129 13.2159 291.85 13.517C291.577 13.8125 291.441 14.2159 291.441 14.7272C291.441 15.4261 291.7 15.9545 292.217 16.3125C292.739 16.6647 293.401 16.8409 294.202 16.8409ZM315.805 18.6136C314.544 18.6136 313.456 18.3352 312.541 17.7784C311.632 17.2159 310.93 16.4318 310.436 15.4261C309.947 14.4147 309.703 13.2386 309.703 11.8977C309.703 10.5568 309.947 9.37497 310.436 8.35224C310.93 7.32384 311.618 6.5227 312.499 5.94884C313.385 5.36929 314.419 5.07952 315.601 5.07952C316.283 5.07952 316.956 5.19315 317.621 5.42043C318.286 5.6477 318.891 6.01702 319.436 6.52838C319.982 7.03406 320.416 7.70452 320.74 8.53974C321.064 9.37497 321.226 10.4034 321.226 11.625V12.4772H311.135V10.7386H319.18C319.18 9.99997 319.033 9.34088 318.737 8.76134C318.447 8.18179 318.033 7.7244 317.493 7.38918C316.959 7.05395 316.328 6.88634 315.601 6.88634C314.8 6.88634 314.107 7.0852 313.521 7.48293C312.942 7.87497 312.496 8.38634 312.183 9.01702C311.871 9.6477 311.714 10.3238 311.714 11.0454V12.2045C311.714 13.1932 311.885 14.0312 312.226 14.7187C312.572 15.4005 313.053 15.9204 313.666 16.2784C314.28 16.6307 314.993 16.8068 315.805 16.8068C316.334 16.8068 316.811 16.7329 317.237 16.5852C317.669 16.4318 318.041 16.2045 318.354 15.9034C318.666 15.5966 318.908 15.2159 319.078 14.7613L321.021 15.3068C320.817 15.9659 320.473 16.5454 319.99 17.0454C319.507 17.5397 318.911 17.9261 318.2 18.2045C317.49 18.4772 316.692 18.6136 315.805 18.6136ZM334.888 18.6477C334.058 18.6477 333.305 18.4914 332.629 18.1789C331.953 17.8608 331.416 17.4034 331.018 16.8068C330.621 16.2045 330.422 15.4772 330.422 14.625C330.422 13.875 330.57 13.267 330.865 12.8011C331.161 12.3295 331.555 11.9602 332.05 11.6932C332.544 11.4261 333.089 11.2272 333.686 11.0966C334.288 10.9602 334.893 10.8522 335.501 10.7727C336.297 10.6704 336.942 10.5937 337.436 10.5426C337.936 10.4858 338.3 10.392 338.527 10.2613C338.76 10.1307 338.876 9.90338 338.876 9.57952V9.51134C338.876 8.67043 338.646 8.01702 338.186 7.55111C337.732 7.0852 337.041 6.85224 336.115 6.85224C335.155 6.85224 334.402 7.06247 333.857 7.48293C333.311 7.90338 332.928 8.35224 332.706 8.82952L330.797 8.1477C331.138 7.35224 331.592 6.73293 332.161 6.28974C332.734 5.84088 333.359 5.52838 334.036 5.35224C334.717 5.17043 335.388 5.07952 336.047 5.07952C336.467 5.07952 336.95 5.13065 337.496 5.23293C338.047 5.32952 338.578 5.53122 339.089 5.83804C339.607 6.14486 340.036 6.60793 340.376 7.22724C340.717 7.84656 340.888 8.67611 340.888 9.71588V18.3409H338.876V16.5682H338.774C338.638 16.8522 338.411 17.1562 338.092 17.4801C337.774 17.8039 337.351 18.0795 336.822 18.3068C336.294 18.5341 335.649 18.6477 334.888 18.6477ZM335.195 16.8409C335.99 16.8409 336.661 16.6846 337.206 16.3721C337.757 16.0596 338.172 15.6562 338.45 15.1619C338.734 14.6676 338.876 14.1477 338.876 13.6022V11.7613C338.791 11.8636 338.604 11.9574 338.314 12.0426C338.03 12.1221 337.7 12.1932 337.325 12.2557C336.956 12.3125 336.595 12.3636 336.243 12.4091C335.896 12.4488 335.615 12.4829 335.399 12.5113C334.876 12.5795 334.388 12.6903 333.933 12.8437C333.484 12.9914 333.121 13.2159 332.842 13.517C332.57 13.8125 332.433 14.2159 332.433 14.7272C332.433 15.4261 332.692 15.9545 333.209 16.3125C333.732 16.6647 334.393 16.8409 335.195 16.8409ZM354.795 5.24997L349.954 18.3409H347.908L343.067 5.24997H345.249L348.863 15.6818H348.999L352.613 5.24997H354.795ZM360.903 18.6477C360.074 18.6477 359.321 18.4914 358.645 18.1789C357.969 17.8608 357.432 17.4034 357.034 16.8068C356.636 16.2045 356.437 15.4772 356.437 14.625C356.437 13.875 356.585 13.267 356.881 12.8011C357.176 12.3295 357.571 11.9602 358.065 11.6932C358.56 11.4261 359.105 11.2272 359.702 11.0966C360.304 10.9602 360.909 10.8522 361.517 10.7727C362.312 10.6704 362.957 10.5937 363.452 10.5426C363.952 10.4858 364.315 10.392 364.543 10.2613C364.776 10.1307 364.892 9.90338 364.892 9.57952V9.51134C364.892 8.67043 364.662 8.01702 364.202 7.55111C363.747 7.0852 363.057 6.85224 362.131 6.85224C361.17 6.85224 360.418 7.06247 359.872 7.48293C359.327 7.90338 358.943 8.35224 358.722 8.82952L356.812 8.1477C357.153 7.35224 357.608 6.73293 358.176 6.28974C358.75 5.84088 359.375 5.52838 360.051 5.35224C360.733 5.17043 361.403 5.07952 362.062 5.07952C362.483 5.07952 362.966 5.13065 363.511 5.23293C364.062 5.32952 364.594 5.53122 365.105 5.83804C365.622 6.14486 366.051 6.60793 366.392 7.22724C366.733 7.84656 366.903 8.67611 366.903 9.71588V18.3409H364.892V16.5682H364.79C364.653 16.8522 364.426 17.1562 364.108 17.4801C363.79 17.8039 363.366 18.0795 362.838 18.3068C362.31 18.5341 361.665 18.6477 360.903 18.6477ZM361.21 16.8409C362.006 16.8409 362.676 16.6846 363.222 16.3721C363.773 16.0596 364.187 15.6562 364.466 15.1619C364.75 14.6676 364.892 14.1477 364.892 13.6022V11.7613C364.807 11.8636 364.619 11.9574 364.33 12.0426C364.045 12.1221 363.716 12.1932 363.341 12.2557C362.972 12.3125 362.611 12.3636 362.259 12.4091C361.912 12.4488 361.631 12.4829 361.415 12.5113C360.892 12.5795 360.403 12.6903 359.949 12.8437C359.5 12.9914 359.136 13.2159 358.858 13.517C358.585 13.8125 358.449 14.2159 358.449 14.7272C358.449 15.4261 358.707 15.9545 359.224 16.3125C359.747 16.6647 360.409 16.8409 361.21 16.8409ZM372.586 0.886335V18.3409H370.575V0.886335H372.586ZM376.27 18.3409V5.24997H378.281V18.3409H376.27ZM377.293 3.06815C376.901 3.06815 376.562 2.93463 376.278 2.66759C376 2.40054 375.861 2.07952 375.861 1.70452C375.861 1.32952 376 1.00849 376.278 0.741449C376.562 0.474404 376.901 0.340881 377.293 0.340881C377.685 0.340881 378.02 0.474404 378.298 0.741449C378.582 1.00849 378.724 1.32952 378.724 1.70452C378.724 2.07952 378.582 2.40054 378.298 2.66759C378.02 2.93463 377.685 3.06815 377.293 3.06815ZM385.817 18.6477C384.988 18.6477 384.235 18.4914 383.559 18.1789C382.883 17.8608 382.346 17.4034 381.948 16.8068C381.55 16.2045 381.352 15.4772 381.352 14.625C381.352 13.875 381.499 13.267 381.795 12.8011C382.09 12.3295 382.485 11.9602 382.979 11.6932C383.474 11.4261 384.019 11.2272 384.616 11.0966C385.218 10.9602 385.823 10.8522 386.431 10.7727C387.227 10.6704 387.871 10.5937 388.366 10.5426C388.866 10.4858 389.229 10.392 389.457 10.2613C389.69 10.1307 389.806 9.90338 389.806 9.57952V9.51134C389.806 8.67043 389.576 8.01702 389.116 7.55111C388.661 7.0852 387.971 6.85224 387.045 6.85224C386.085 6.85224 385.332 7.06247 384.786 7.48293C384.241 7.90338 383.857 8.35224 383.636 8.82952L381.727 8.1477C382.067 7.35224 382.522 6.73293 383.09 6.28974C383.664 5.84088 384.289 5.52838 384.965 5.35224C385.647 5.17043 386.317 5.07952 386.977 5.07952C387.397 5.07952 387.88 5.13065 388.425 5.23293C388.977 5.32952 389.508 5.53122 390.019 5.83804C390.536 6.14486 390.965 6.60793 391.306 7.22724C391.647 7.84656 391.817 8.67611 391.817 9.71588V18.3409H389.806V16.5682H389.704C389.567 16.8522 389.34 17.1562 389.022 17.4801C388.704 17.8039 388.281 18.0795 387.752 18.3068C387.224 18.5341 386.579 18.6477 385.817 18.6477ZM386.124 16.8409C386.92 16.8409 387.59 16.6846 388.136 16.3721C388.687 16.0596 389.102 15.6562 389.38 15.1619C389.664 14.6676 389.806 14.1477 389.806 13.6022V11.7613C389.721 11.8636 389.533 11.9574 389.244 12.0426C388.96 12.1221 388.63 12.1932 388.255 12.2557C387.886 12.3125 387.525 12.3636 387.173 12.4091C386.826 12.4488 386.545 12.4829 386.329 12.5113C385.806 12.5795 385.317 12.6903 384.863 12.8437C384.414 12.9914 384.05 13.2159 383.772 13.517C383.499 13.8125 383.363 14.2159 383.363 14.7272C383.363 15.4261 383.621 15.9545 384.138 16.3125C384.661 16.6647 385.323 16.8409 386.124 16.8409ZM400.807 18.6136C399.58 18.6136 398.523 18.3238 397.636 17.7443C396.75 17.1647 396.068 16.3664 395.591 15.3494C395.114 14.3324 394.875 13.1704 394.875 11.8636C394.875 10.5341 395.119 9.36077 395.608 8.34372C396.102 7.32099 396.79 6.5227 397.67 5.94884C398.557 5.36929 399.591 5.07952 400.773 5.07952C401.693 5.07952 402.523 5.24997 403.261 5.59088C404 5.93179 404.605 6.40906 405.077 7.0227C405.548 7.63634 405.841 8.35224 405.955 9.17043H403.943C403.79 8.57384 403.449 8.04543 402.92 7.5852C402.398 7.11929 401.693 6.88634 400.807 6.88634C400.023 6.88634 399.335 7.09088 398.744 7.49997C398.159 7.90338 397.702 8.4744 397.372 9.21304C397.048 9.94599 396.886 10.8068 396.886 11.7954C396.886 12.8068 397.045 13.6875 397.364 14.4375C397.687 15.1875 398.142 15.7699 398.727 16.1846C399.318 16.5994 400.011 16.8068 400.807 16.8068C401.33 16.8068 401.804 16.7159 402.23 16.5341C402.656 16.3522 403.017 16.0909 403.312 15.75C403.608 15.4091 403.818 15 403.943 14.5227H405.955C405.841 15.2954 405.56 15.9914 405.111 16.6108C404.668 17.2244 404.08 17.713 403.347 18.0767C402.619 18.4346 401.773 18.6136 400.807 18.6136ZM399.852 18.2727H401.523L401.386 18.9545C401.83 19.0227 402.236 19.2074 402.605 19.5085C402.974 19.8153 403.159 20.3011 403.159 20.9659C403.159 21.6988 402.855 22.2954 402.247 22.7557C401.645 23.2216 400.756 23.4545 399.58 23.4545L399.511 22.125C400.04 22.125 400.477 22.0397 400.824 21.8693C401.176 21.7045 401.352 21.4261 401.352 21.0341C401.352 20.642 401.207 20.375 400.918 20.2329C400.628 20.0909 400.159 19.9943 399.511 19.9432L399.852 18.2727ZM414.213 18.6136C413.031 18.6136 411.994 18.3324 411.102 17.7699C410.216 17.2074 409.523 16.4204 409.023 15.4091C408.528 14.3977 408.281 13.2159 408.281 11.8636C408.281 10.5 408.528 9.30963 409.023 8.29259C409.523 7.27554 410.216 6.48577 411.102 5.92327C411.994 5.36077 413.031 5.07952 414.213 5.07952C415.395 5.07952 416.429 5.36077 417.315 5.92327C418.207 6.48577 418.901 7.27554 419.395 8.29259C419.895 9.30963 420.145 10.5 420.145 11.8636C420.145 13.2159 419.895 14.3977 419.395 15.4091C418.901 16.4204 418.207 17.2074 417.315 17.7699C416.429 18.3324 415.395 18.6136 414.213 18.6136ZM414.213 16.8068C415.111 16.8068 415.849 16.5767 416.429 16.1164C417.009 15.6562 417.437 15.0511 417.716 14.3011C417.994 13.5511 418.134 12.7386 418.134 11.8636C418.134 10.9886 417.994 10.1733 417.716 9.41759C417.437 8.6619 417.009 8.05111 416.429 7.5852C415.849 7.11929 415.111 6.88634 414.213 6.88634C413.315 6.88634 412.577 7.11929 411.997 7.5852C411.418 8.05111 410.989 8.6619 410.71 9.41759C410.432 10.1733 410.293 10.9886 410.293 11.8636C410.293 12.7386 410.432 13.5511 410.71 14.3011C410.989 15.0511 411.418 15.6562 411.997 16.1164C412.577 16.5767 413.315 16.8068 414.213 16.8068ZM411.588 3.68179L410.02 3.61361C410.02 2.74429 410.267 2.03406 410.761 1.48293C411.261 0.926108 411.878 0.647699 412.611 0.647699C412.935 0.647699 413.222 0.704517 413.472 0.818153C413.722 0.926108 413.96 1.05111 414.187 1.19315C414.415 1.3352 414.648 1.46304 414.886 1.57668C415.131 1.68463 415.406 1.73861 415.713 1.73861C416.037 1.73861 416.31 1.61361 416.531 1.36361C416.759 1.10793 416.872 0.801108 416.872 0.443153L418.406 0.579518C418.406 1.46588 418.156 2.17043 417.656 2.69315C417.162 3.21588 416.548 3.47724 415.815 3.47724C415.423 3.47724 415.099 3.42327 414.844 3.31531C414.588 3.20168 414.361 3.07384 414.162 2.93179C413.963 2.78974 413.753 2.66474 413.531 2.55679C413.31 2.44315 413.037 2.38634 412.713 2.38634C412.389 2.38634 412.119 2.51418 411.903 2.76986C411.693 3.01986 411.588 3.32384 411.588 3.68179ZM428.704 18.6136C427.442 18.6136 426.354 18.3352 425.44 17.7784C424.531 17.2159 423.829 16.4318 423.335 15.4261C422.846 14.4147 422.602 13.2386 422.602 11.8977C422.602 10.5568 422.846 9.37497 423.335 8.35224C423.829 7.32384 424.516 6.5227 425.397 5.94884C426.283 5.36929 427.317 5.07952 428.499 5.07952C429.181 5.07952 429.854 5.19315 430.519 5.42043C431.184 5.6477 431.789 6.01702 432.335 6.52838C432.88 7.03406 433.315 7.70452 433.638 8.53974C433.962 9.37497 434.124 10.4034 434.124 11.625V12.4772H424.033V10.7386H432.079C432.079 9.99997 431.931 9.34088 431.636 8.76134C431.346 8.18179 430.931 7.7244 430.391 7.38918C429.857 7.05395 429.227 6.88634 428.499 6.88634C427.698 6.88634 427.005 7.0852 426.42 7.48293C425.84 7.87497 425.394 8.38634 425.082 9.01702C424.769 9.6477 424.613 10.3238 424.613 11.0454V12.2045C424.613 13.1932 424.783 14.0312 425.124 14.7187C425.471 15.4005 425.951 15.9204 426.565 16.2784C427.178 16.6307 427.891 16.8068 428.704 16.8068C429.232 16.8068 429.71 16.7329 430.136 16.5852C430.567 16.4318 430.94 16.2045 431.252 15.9034C431.565 15.5966 431.806 15.2159 431.977 14.7613L433.92 15.3068C433.715 15.9659 433.371 16.5454 432.888 17.0454C432.406 17.5397 431.809 17.9261 431.099 18.2045C430.388 18.4772 429.59 18.6136 428.704 18.6136ZM446.457 8.18179L444.65 8.69315C444.536 8.39202 444.369 8.0994 444.147 7.81531C443.931 7.52554 443.636 7.2869 443.261 7.0994C442.886 6.9119 442.406 6.81815 441.82 6.81815C441.019 6.81815 440.352 7.00281 439.817 7.37213C439.289 7.73577 439.025 8.19884 439.025 8.76134C439.025 9.26134 439.207 9.65622 439.57 9.94599C439.934 10.2358 440.502 10.4772 441.275 10.6704L443.218 11.1477C444.388 11.4318 445.261 11.8664 445.835 12.4517C446.408 13.0312 446.695 13.7784 446.695 14.6932C446.695 15.4432 446.479 16.1136 446.048 16.7045C445.621 17.2954 445.025 17.7613 444.258 18.1022C443.491 18.4432 442.599 18.6136 441.582 18.6136C440.246 18.6136 439.141 18.3238 438.266 17.7443C437.391 17.1647 436.837 16.3182 436.604 15.2045L438.513 14.7272C438.695 15.4318 439.039 15.9602 439.545 16.3125C440.056 16.6647 440.724 16.8409 441.548 16.8409C442.485 16.8409 443.229 16.642 443.781 16.2443C444.337 15.8409 444.616 15.3579 444.616 14.7954C444.616 14.3409 444.457 13.9602 444.138 13.6534C443.82 13.3409 443.332 13.1079 442.673 12.9545L440.491 12.4432C439.292 12.1591 438.411 11.7187 437.849 11.1221C437.292 10.5199 437.013 9.76702 437.013 8.86361C437.013 8.12497 437.221 7.47156 437.636 6.90338C438.056 6.3352 438.627 5.88918 439.349 5.56531C440.076 5.24145 440.9 5.07952 441.82 5.07952C443.116 5.07952 444.133 5.36361 444.871 5.93179C445.616 6.49997 446.144 7.24997 446.457 8.18179ZM456.473 23.25V5.24997H458.416V7.32952H458.655C458.803 7.10224 459.007 6.81247 459.268 6.4602C459.536 6.10224 459.916 5.78406 460.411 5.50565C460.911 5.22156 461.587 5.07952 462.439 5.07952C463.541 5.07952 464.513 5.35509 465.354 5.90622C466.195 6.45736 466.851 7.23861 467.322 8.24997C467.794 9.26134 468.03 10.4545 468.03 11.8295C468.03 13.2159 467.794 14.4176 467.322 15.4346C466.851 16.446 466.197 17.2301 465.362 17.7869C464.527 18.338 463.564 18.6136 462.473 18.6136C461.632 18.6136 460.959 18.4744 460.453 18.196C459.947 17.9119 459.558 17.5909 459.286 17.2329C459.013 16.8693 458.803 16.5682 458.655 16.3295H458.484V23.25H456.473ZM458.45 11.7954C458.45 12.7841 458.595 13.6562 458.885 14.4119C459.175 15.1619 459.598 15.75 460.155 16.1761C460.712 16.5966 461.393 16.8068 462.2 16.8068C463.041 16.8068 463.743 16.5852 464.305 16.142C464.874 15.6932 465.3 15.0909 465.584 14.3352C465.874 13.5738 466.018 12.7272 466.018 11.7954C466.018 10.875 465.876 10.0454 465.592 9.30679C465.314 8.56247 464.891 7.9744 464.322 7.54259C463.76 7.10509 463.053 6.88634 462.2 6.88634C461.382 6.88634 460.695 7.09372 460.138 7.50849C459.581 7.91759 459.161 8.49145 458.876 9.23009C458.592 9.96304 458.45 10.8182 458.45 11.7954ZM474.95 18.6477C474.121 18.6477 473.368 18.4914 472.692 18.1789C472.016 17.8608 471.479 17.4034 471.081 16.8068C470.683 16.2045 470.484 15.4772 470.484 14.625C470.484 13.875 470.632 13.267 470.928 12.8011C471.223 12.3295 471.618 11.9602 472.112 11.6932C472.607 11.4261 473.152 11.2272 473.749 11.0966C474.351 10.9602 474.956 10.8522 475.564 10.7727C476.359 10.6704 477.004 10.5937 477.499 10.5426C477.999 10.4858 478.362 10.392 478.589 10.2613C478.822 10.1307 478.939 9.90338 478.939 9.57952V9.51134C478.939 8.67043 478.709 8.01702 478.249 7.55111C477.794 7.0852 477.104 6.85224 476.178 6.85224C475.217 6.85224 474.464 7.06247 473.919 7.48293C473.374 7.90338 472.99 8.35224 472.768 8.82952L470.859 8.1477C471.2 7.35224 471.655 6.73293 472.223 6.28974C472.797 5.84088 473.422 5.52838 474.098 5.35224C474.78 5.17043 475.45 5.07952 476.109 5.07952C476.53 5.07952 477.013 5.13065 477.558 5.23293C478.109 5.32952 478.641 5.53122 479.152 5.83804C479.669 6.14486 480.098 6.60793 480.439 7.22724C480.78 7.84656 480.95 8.67611 480.95 9.71588V18.3409H478.939V16.5682H478.837C478.7 16.8522 478.473 17.1562 478.155 17.4801C477.837 17.8039 477.413 18.0795 476.885 18.3068C476.357 18.5341 475.712 18.6477 474.95 18.6477ZM475.257 16.8409C476.053 16.8409 476.723 16.6846 477.268 16.3721C477.82 16.0596 478.234 15.6562 478.513 15.1619C478.797 14.6676 478.939 14.1477 478.939 13.6022V11.7613C478.854 11.8636 478.666 11.9574 478.376 12.0426C478.092 12.1221 477.763 12.1932 477.388 12.2557C477.018 12.3125 476.658 12.3636 476.305 12.4091C475.959 12.4488 475.678 12.4829 475.462 12.5113C474.939 12.5795 474.45 12.6903 473.996 12.8437C473.547 12.9914 473.183 13.2159 472.905 13.517C472.632 13.8125 472.496 14.2159 472.496 14.7272C472.496 15.4261 472.754 15.9545 473.271 16.3125C473.794 16.6647 474.456 16.8409 475.257 16.8409ZM484.621 18.3409V5.24997H486.565V7.22724H486.701C486.94 6.57952 487.371 6.05395 487.996 5.65054C488.621 5.24713 489.326 5.04543 490.11 5.04543C490.258 5.04543 490.442 5.04827 490.664 5.05395C490.886 5.05963 491.053 5.06815 491.167 5.07952V7.12497C491.099 7.10793 490.942 7.08236 490.698 7.04827C490.46 7.00849 490.207 6.98861 489.94 6.98861C489.303 6.98861 488.735 7.12213 488.235 7.38918C487.741 7.65054 487.349 8.01418 487.059 8.48009C486.775 8.94031 486.633 9.46588 486.633 10.0568V18.3409H484.621ZM497.403 18.6477C496.574 18.6477 495.821 18.4914 495.145 18.1789C494.469 17.8608 493.932 17.4034 493.534 16.8068C493.136 16.2045 492.937 15.4772 492.937 14.625C492.937 13.875 493.085 13.267 493.381 12.8011C493.676 12.3295 494.071 11.9602 494.565 11.6932C495.06 11.4261 495.605 11.2272 496.202 11.0966C496.804 10.9602 497.409 10.8522 498.017 10.7727C498.812 10.6704 499.457 10.5937 499.952 10.5426C500.452 10.4858 500.815 10.392 501.043 10.2613C501.276 10.1307 501.392 9.90338 501.392 9.57952V9.51134C501.392 8.67043 501.162 8.01702 500.702 7.55111C500.247 7.0852 499.557 6.85224 498.631 6.85224C497.67 6.85224 496.918 7.06247 496.372 7.48293C495.827 7.90338 495.443 8.35224 495.222 8.82952L493.312 8.1477C493.653 7.35224 494.108 6.73293 494.676 6.28974C495.25 5.84088 495.875 5.52838 496.551 5.35224C497.233 5.17043 497.903 5.07952 498.562 5.07952C498.983 5.07952 499.466 5.13065 500.011 5.23293C500.562 5.32952 501.094 5.53122 501.605 5.83804C502.122 6.14486 502.551 6.60793 502.892 7.22724C503.233 7.84656 503.403 8.67611 503.403 9.71588V18.3409H501.392V16.5682H501.29C501.153 16.8522 500.926 17.1562 500.608 17.4801C500.29 17.8039 499.866 18.0795 499.338 18.3068C498.81 18.5341 498.165 18.6477 497.403 18.6477ZM497.71 16.8409C498.506 16.8409 499.176 16.6846 499.722 16.3721C500.273 16.0596 500.687 15.6562 500.966 15.1619C501.25 14.6676 501.392 14.1477 501.392 13.6022V11.7613C501.307 11.8636 501.119 11.9574 500.83 12.0426C500.545 12.1221 500.216 12.1932 499.841 12.2557C499.472 12.3125 499.111 12.3636 498.759 12.4091C498.412 12.4488 498.131 12.4829 497.915 12.5113C497.392 12.5795 496.903 12.6903 496.449 12.8437C496 12.9914 495.636 13.2159 495.358 13.517C495.085 13.8125 494.949 14.2159 494.949 14.7272C494.949 15.4261 495.207 15.9545 495.724 16.3125C496.247 16.6647 496.909 16.8409 497.71 16.8409ZM6.10227 47.6136C4.8409 47.6136 3.75283 47.3352 2.83806 46.7784C1.92897 46.2159 1.22727 45.4318 0.732948 44.4261C0.244311 43.4147 -6.85453e-06 42.2386 -6.85453e-06 40.8977C-6.85453e-06 39.5568 0.244311 38.375 0.732948 37.3522C1.22727 36.3238 1.91477 35.5227 2.79545 34.9488C3.68181 34.3693 4.7159 34.0795 5.89772 34.0795C6.57954 34.0795 7.25283 34.1932 7.91761 34.4204C8.58238 34.6477 9.18749 35.017 9.73295 35.5284C10.2784 36.0341 10.7131 36.7045 11.0369 37.5397C11.3608 38.375 11.5227 39.4034 11.5227 40.625V41.4772H1.43181V39.7386H9.47727C9.47727 39 9.32954 38.3409 9.03408 37.7613C8.74431 37.1818 8.32954 36.7244 7.78977 36.3892C7.25568 36.0539 6.62499 35.8863 5.89772 35.8863C5.09658 35.8863 4.4034 36.0852 3.81818 36.4829C3.23863 36.875 2.79261 37.3863 2.48011 38.017C2.16761 38.6477 2.01136 39.3238 2.01136 40.0454V41.2045C2.01136 42.1932 2.18181 43.0312 2.52272 43.7187C2.86931 44.4005 3.34943 44.9204 3.96306 45.2784C4.5767 45.6307 5.28977 45.8068 6.10227 45.8068C6.63068 45.8068 7.10795 45.7329 7.53408 45.5852C7.9659 45.4318 8.33806 45.2045 8.65056 44.9034C8.96306 44.5966 9.20454 44.2159 9.37499 43.7613L11.3182 44.3068C11.1136 44.9659 10.7699 45.5454 10.2869 46.0454C9.80397 46.5397 9.20738 46.9261 8.49715 47.2045C7.78693 47.4772 6.98863 47.6136 6.10227 47.6136ZM16.5937 39.4659V47.3409H14.5824V34.25H16.5256V36.2954H16.696C17.0028 35.6307 17.4687 35.0966 18.0937 34.6932C18.7187 34.2841 19.5256 34.0795 20.5142 34.0795C21.4006 34.0795 22.1761 34.2613 22.8409 34.625C23.5057 34.9829 24.0227 35.5284 24.392 36.2613C24.7614 36.9886 24.946 37.9091 24.946 39.0227V47.3409H22.9347V39.1591C22.9347 38.1307 22.6676 37.3295 22.1335 36.7557C21.5994 36.1761 20.8665 35.8863 19.9347 35.8863C19.2926 35.8863 18.7187 36.0255 18.2131 36.3039C17.7131 36.5824 17.3182 36.9886 17.0284 37.5227C16.7386 38.0568 16.5937 38.7045 16.5937 39.4659ZM33.9396 47.6136C32.7124 47.6136 31.6555 47.3238 30.7692 46.7443C29.8828 46.1647 29.201 45.3664 28.7237 44.3494C28.2464 43.3324 28.0078 42.1704 28.0078 40.8636C28.0078 39.5341 28.2521 38.3608 28.7408 37.3437C29.2351 36.321 29.9226 35.5227 30.8033 34.9488C31.6896 34.3693 32.7237 34.0795 33.9055 34.0795C34.826 34.0795 35.6555 34.25 36.3942 34.5909C37.1328 34.9318 37.7379 35.4091 38.2095 36.0227C38.6811 36.6363 38.9737 37.3522 39.0874 38.1704H37.076C36.9226 37.5738 36.5817 37.0454 36.0533 36.5852C35.5305 36.1193 34.826 35.8863 33.9396 35.8863C33.1555 35.8863 32.468 36.0909 31.8771 36.5C31.2919 36.9034 30.8345 37.4744 30.505 38.213C30.1811 38.946 30.0192 39.8068 30.0192 40.7954C30.0192 41.8068 30.1783 42.6875 30.4964 43.4375C30.8203 44.1875 31.2749 44.7699 31.8601 45.1846C32.451 45.5994 33.1442 45.8068 33.9396 45.8068C34.4624 45.8068 34.9368 45.7159 35.3629 45.5341C35.7891 45.3522 36.1499 45.0909 36.4453 44.75C36.7408 44.4091 36.951 44 37.076 43.5227H39.0874C38.9737 44.2954 38.6925 44.9914 38.2436 45.6108C37.8004 46.2244 37.2124 46.713 36.4794 47.0767C35.7521 47.4346 34.9055 47.6136 33.9396 47.6136ZM47.3459 47.6136C46.1641 47.6136 45.1271 47.3324 44.2351 46.7699C43.3487 46.2074 42.6555 45.4204 42.1555 44.4091C41.6612 43.3977 41.4141 42.2159 41.4141 40.8636C41.4141 39.5 41.6612 38.3096 42.1555 37.2926C42.6555 36.2755 43.3487 35.4858 44.2351 34.9233C45.1271 34.3608 46.1641 34.0795 47.3459 34.0795C48.5277 34.0795 49.5618 34.3608 50.4481 34.9233C51.3402 35.4858 52.0334 36.2755 52.5277 37.2926C53.0277 38.3096 53.2777 39.5 53.2777 40.8636C53.2777 42.2159 53.0277 43.3977 52.5277 44.4091C52.0334 45.4204 51.3402 46.2074 50.4481 46.7699C49.5618 47.3324 48.5277 47.6136 47.3459 47.6136ZM47.3459 45.8068C48.2436 45.8068 48.9822 45.5767 49.5618 45.1164C50.1413 44.6562 50.5703 44.0511 50.8487 43.3011C51.1271 42.5511 51.2663 41.7386 51.2663 40.8636C51.2663 39.9886 51.1271 39.1733 50.8487 38.4176C50.5703 37.6619 50.1413 37.0511 49.5618 36.5852C48.9822 36.1193 48.2436 35.8863 47.3459 35.8863C46.4481 35.8863 45.7095 36.1193 45.13 36.5852C44.5504 37.0511 44.1214 37.6619 43.843 38.4176C43.5646 39.1733 43.4254 39.9886 43.4254 40.8636C43.4254 41.7386 43.5646 42.5511 43.843 43.3011C44.1214 44.0511 44.5504 44.6562 45.13 45.1164C45.7095 45.5767 46.4481 45.8068 47.3459 45.8068ZM58.3594 39.4659V47.3409H56.348V34.25H58.2912V36.2954H58.4616C58.7685 35.6307 59.2344 35.0966 59.8594 34.6932C60.4844 34.2841 61.2912 34.0795 62.2798 34.0795C63.1662 34.0795 63.9418 34.2613 64.6065 34.625C65.2713 34.9829 65.7883 35.5284 66.1577 36.2613C66.527 36.9886 66.7116 37.9091 66.7116 39.0227V47.3409H64.7003V39.1591C64.7003 38.1307 64.4332 37.3295 63.8991 36.7557C63.3651 36.1761 62.6321 35.8863 61.7003 35.8863C61.0582 35.8863 60.4844 36.0255 59.9787 36.3039C59.4787 36.5824 59.0838 36.9886 58.794 37.5227C58.5043 38.0568 58.3594 38.7045 58.3594 39.4659ZM76.0802 34.25V35.9545H69.2962V34.25H76.0802ZM71.2734 31.1136H73.2848V43.5909C73.2848 44.1591 73.3672 44.5852 73.532 44.8693C73.7024 45.1477 73.9183 45.3352 74.1797 45.4318C74.4467 45.5227 74.728 45.5682 75.0234 45.5682C75.245 45.5682 75.4268 45.5568 75.5689 45.5341C75.7109 45.5057 75.8246 45.4829 75.9098 45.4659L76.3189 47.2727C76.1825 47.3238 75.9922 47.375 75.7479 47.4261C75.5035 47.4829 75.1939 47.5113 74.8189 47.5113C74.2507 47.5113 73.6939 47.3892 73.1484 47.1449C72.6087 46.9005 72.1598 46.5284 71.8018 46.0284C71.4496 45.5284 71.2734 44.8977 71.2734 44.1363V31.1136ZM79.1058 47.3409V34.25H81.049V36.2272H81.1854C81.424 35.5795 81.8558 35.0539 82.4808 34.6505C83.1058 34.2471 83.8104 34.0454 84.5945 34.0454C84.7422 34.0454 84.9268 34.0483 85.1484 34.0539C85.37 34.0596 85.5376 34.0682 85.6513 34.0795V36.125C85.5831 36.1079 85.4268 36.0824 85.1825 36.0483C84.9439 36.0085 84.691 35.9886 84.424 35.9886C83.7876 35.9886 83.2195 36.1221 82.7195 36.3892C82.2251 36.6505 81.8331 37.0142 81.5433 37.4801C81.2592 37.9403 81.1172 38.4659 81.1172 39.0568V47.3409H79.1058ZM91.8878 47.6477C91.0582 47.6477 90.3054 47.4914 89.6293 47.1789C88.9531 46.8608 88.4162 46.4034 88.0185 45.8068C87.6207 45.2045 87.4219 44.4772 87.4219 43.625C87.4219 42.875 87.5696 42.267 87.865 41.8011C88.1605 41.3295 88.5554 40.9602 89.0497 40.6932C89.544 40.4261 90.0895 40.2272 90.6861 40.0966C91.2883 39.9602 91.8935 39.8522 92.5014 39.7727C93.2969 39.6704 93.9418 39.5937 94.4361 39.5426C94.9361 39.4858 95.2997 39.392 95.527 39.2613C95.7599 39.1307 95.8764 38.9034 95.8764 38.5795V38.5113C95.8764 37.6704 95.6463 37.017 95.1861 36.5511C94.7315 36.0852 94.0412 35.8522 93.1151 35.8522C92.1548 35.8522 91.402 36.0625 90.8565 36.4829C90.3111 36.9034 89.9275 37.3522 89.706 37.8295L87.7969 37.1477C88.1378 36.3522 88.5923 35.7329 89.1605 35.2897C89.7344 34.8409 90.3594 34.5284 91.0355 34.3522C91.7173 34.1704 92.3878 34.0795 93.0469 34.0795C93.4673 34.0795 93.9503 34.1307 94.4957 34.2329C95.0469 34.3295 95.5781 34.5312 96.0895 34.838C96.6065 35.1449 97.0355 35.6079 97.3764 36.2272C97.7173 36.8466 97.8878 37.6761 97.8878 38.7159V47.3409H95.8764V45.5682H95.7741C95.6378 45.8522 95.4105 46.1562 95.0923 46.4801C94.7741 46.8039 94.3508 47.0795 93.8224 47.3068C93.294 47.5341 92.6491 47.6477 91.8878 47.6477ZM92.1946 45.8409C92.99 45.8409 93.6605 45.6846 94.206 45.3721C94.7571 45.0596 95.1719 44.6562 95.4503 44.1619C95.7344 43.6676 95.8764 43.1477 95.8764 42.6022V40.7613C95.7912 40.8636 95.6037 40.9574 95.3139 41.0426C95.0298 41.1221 94.7003 41.1932 94.3253 41.2557C93.956 41.3125 93.5952 41.3636 93.2429 41.4091C92.8963 41.4488 92.6151 41.4829 92.3991 41.5113C91.8764 41.5795 91.3878 41.6903 90.9332 41.8437C90.4844 41.9914 90.1207 42.2159 89.8423 42.517C89.5696 42.8125 89.4332 43.2159 89.4332 43.7272C89.4332 44.4261 89.6918 44.9545 90.2088 45.3125C90.7315 45.6647 91.3935 45.8409 92.1946 45.8409ZM101.559 47.3409V34.25H103.502V36.2272H103.638C103.877 35.5795 104.309 35.0539 104.934 34.6505C105.559 34.2471 106.263 34.0454 107.048 34.0454C107.195 34.0454 107.38 34.0483 107.602 34.0539C107.823 34.0596 107.991 34.0682 108.104 34.0795V36.125C108.036 36.1079 107.88 36.0824 107.636 36.0483C107.397 36.0085 107.144 35.9886 106.877 35.9886C106.241 35.9886 105.673 36.1221 105.173 36.3892C104.678 36.6505 104.286 37.0142 103.996 37.4801C103.712 37.9403 103.57 38.4659 103.57 39.0568V47.3409H101.559ZM121.091 47.6477C120.261 47.6477 119.509 47.4914 118.832 47.1789C118.156 46.8608 117.619 46.4034 117.222 45.8068C116.824 45.2045 116.625 44.4772 116.625 43.625C116.625 42.875 116.773 42.267 117.068 41.8011C117.364 41.3295 117.759 40.9602 118.253 40.6932C118.747 40.4261 119.293 40.2272 119.889 40.0966C120.491 39.9602 121.097 39.8522 121.705 39.7727C122.5 39.6704 123.145 39.5937 123.639 39.5426C124.139 39.4858 124.503 39.392 124.73 39.2613C124.963 39.1307 125.08 38.9034 125.08 38.5795V38.5113C125.08 37.6704 124.849 37.017 124.389 36.5511C123.935 36.0852 123.244 35.8522 122.318 35.8522C121.358 35.8522 120.605 36.0625 120.06 36.4829C119.514 36.9034 119.131 37.3522 118.909 37.8295L117 37.1477C117.341 36.3522 117.795 35.7329 118.364 35.2897C118.937 34.8409 119.562 34.5284 120.239 34.3522C120.92 34.1704 121.591 34.0795 122.25 34.0795C122.67 34.0795 123.153 34.1307 123.699 34.2329C124.25 34.3295 124.781 34.5312 125.293 34.838C125.81 35.1449 126.239 35.6079 126.58 36.2272C126.92 36.8466 127.091 37.6761 127.091 38.7159V47.3409H125.08V45.5682H124.977C124.841 45.8522 124.614 46.1562 124.295 46.4801C123.977 46.8039 123.554 47.0795 123.026 47.3068C122.497 47.5341 121.852 47.6477 121.091 47.6477ZM121.398 45.8409C122.193 45.8409 122.864 45.6846 123.409 45.3721C123.96 45.0596 124.375 44.6562 124.653 44.1619C124.937 43.6676 125.08 43.1477 125.08 42.6022V40.7613C124.994 40.8636 124.807 40.9574 124.517 41.0426C124.233 41.1221 123.903 41.1932 123.528 41.2557C123.159 41.3125 122.798 41.3636 122.446 41.4091C122.099 41.4488 121.818 41.4829 121.602 41.5113C121.08 41.5795 120.591 41.6903 120.136 41.8437C119.687 41.9914 119.324 42.2159 119.045 42.517C118.773 42.8125 118.636 43.2159 118.636 43.7272C118.636 44.4261 118.895 44.9545 119.412 45.3125C119.935 45.6647 120.597 45.8409 121.398 45.8409ZM142.83 47.6136C141.648 47.6136 140.611 47.3324 139.719 46.7699C138.833 46.2074 138.14 45.4204 137.64 44.4091C137.146 43.3977 136.898 42.2159 136.898 40.8636C136.898 39.5 137.146 38.3096 137.64 37.2926C138.14 36.2755 138.833 35.4858 139.719 34.9233C140.611 34.3608 141.648 34.0795 142.83 34.0795C144.012 34.0795 145.046 34.3608 145.933 34.9233C146.825 35.4858 147.518 36.2755 148.012 37.2926C148.512 38.3096 148.762 39.5 148.762 40.8636C148.762 42.2159 148.512 43.3977 148.012 44.4091C147.518 45.4204 146.825 46.2074 145.933 46.7699C145.046 47.3324 144.012 47.6136 142.83 47.6136ZM142.83 45.8068C143.728 45.8068 144.467 45.5767 145.046 45.1164C145.626 44.6562 146.055 44.0511 146.333 43.3011C146.611 42.5511 146.751 41.7386 146.751 40.8636C146.751 39.9886 146.611 39.1733 146.333 38.4176C146.055 37.6619 145.626 37.0511 145.046 36.5852C144.467 36.1193 143.728 35.8863 142.83 35.8863C141.933 35.8863 141.194 36.1193 140.614 36.5852C140.035 37.0511 139.606 37.6619 139.327 38.4176C139.049 39.1733 138.91 39.9886 138.91 40.8636C138.91 41.7386 139.049 42.5511 139.327 43.3011C139.606 44.0511 140.035 44.6562 140.614 45.1164C141.194 45.5767 141.933 45.8068 142.83 45.8068ZM151.832 52.25V34.25H153.776V36.3295H154.014C154.162 36.1022 154.366 35.8125 154.628 35.4602C154.895 35.1022 155.276 34.7841 155.77 34.5057C156.27 34.2216 156.946 34.0795 157.798 34.0795C158.901 34.0795 159.872 34.3551 160.713 34.9062C161.554 35.4574 162.21 36.2386 162.682 37.25C163.153 38.2613 163.389 39.4545 163.389 40.8295C163.389 42.2159 163.153 43.4176 162.682 44.4346C162.21 45.446 161.557 46.2301 160.722 46.7869C159.886 47.338 158.923 47.6136 157.832 47.6136C156.991 47.6136 156.318 47.4744 155.812 47.196C155.307 46.9119 154.918 46.5909 154.645 46.2329C154.372 45.8693 154.162 45.5682 154.014 45.3295H153.844V52.25H151.832ZM153.81 40.7954C153.81 41.7841 153.955 42.6562 154.244 43.4119C154.534 44.1619 154.957 44.75 155.514 45.1761C156.071 45.5966 156.753 45.8068 157.56 45.8068C158.401 45.8068 159.102 45.5852 159.665 45.142C160.233 44.6932 160.659 44.0909 160.943 43.3352C161.233 42.5738 161.378 41.7272 161.378 40.7954C161.378 39.875 161.236 39.0454 160.952 38.3068C160.673 37.5625 160.25 36.9744 159.682 36.5426C159.119 36.1051 158.412 35.8863 157.56 35.8863C156.741 35.8863 156.054 36.0937 155.497 36.5085C154.94 36.9176 154.52 37.4914 154.236 38.2301C153.952 38.963 153.81 39.8182 153.81 40.7954ZM171.776 47.6136C170.548 47.6136 169.491 47.3238 168.605 46.7443C167.719 46.1647 167.037 45.3664 166.56 44.3494C166.082 43.3324 165.844 42.1704 165.844 40.8636C165.844 39.5341 166.088 38.3608 166.577 37.3437C167.071 36.321 167.759 35.5227 168.639 34.9488C169.526 34.3693 170.56 34.0795 171.741 34.0795C172.662 34.0795 173.491 34.25 174.23 34.5909C174.969 34.9318 175.574 35.4091 176.045 36.0227C176.517 36.6363 176.81 37.3522 176.923 38.1704H174.912C174.759 37.5738 174.418 37.0454 173.889 36.5852C173.366 36.1193 172.662 35.8863 171.776 35.8863C170.991 35.8863 170.304 36.0909 169.713 36.5C169.128 36.9034 168.67 37.4744 168.341 38.213C168.017 38.946 167.855 39.8068 167.855 40.7954C167.855 41.8068 168.014 42.6875 168.332 43.4375C168.656 44.1875 169.111 44.7699 169.696 45.1846C170.287 45.5994 170.98 45.8068 171.776 45.8068C172.298 45.8068 172.773 45.7159 173.199 45.5341C173.625 45.3522 173.986 45.0909 174.281 44.75C174.577 44.4091 174.787 44 174.912 43.5227H176.923C176.81 44.2954 176.528 44.9914 176.08 45.6108C175.636 46.2244 175.048 46.713 174.315 47.0767C173.588 47.4346 172.741 47.6136 171.776 47.6136ZM170.821 47.2727H172.491L172.355 47.9545C172.798 48.0227 173.205 48.2074 173.574 48.5085C173.943 48.8153 174.128 49.3011 174.128 49.9659C174.128 50.6988 173.824 51.2954 173.216 51.7557C172.614 52.2216 171.724 52.4545 170.548 52.4545L170.48 51.125C171.009 51.125 171.446 51.0397 171.793 50.8693C172.145 50.7045 172.321 50.4261 172.321 50.0341C172.321 49.642 172.176 49.375 171.886 49.2329C171.597 49.0909 171.128 48.9943 170.48 48.9432L170.821 47.2727ZM183.716 47.6477C182.886 47.6477 182.134 47.4914 181.457 47.1789C180.781 46.8608 180.244 46.4034 179.847 45.8068C179.449 45.2045 179.25 44.4772 179.25 43.625C179.25 42.875 179.398 42.267 179.693 41.8011C179.989 41.3295 180.384 40.9602 180.878 40.6932C181.372 40.4261 181.918 40.2272 182.514 40.0966C183.116 39.9602 183.722 39.8522 184.33 39.7727C185.125 39.6704 185.77 39.5937 186.264 39.5426C186.764 39.4858 187.128 39.392 187.355 39.2613C187.588 39.1307 187.705 38.9034 187.705 38.5795V38.5113C187.705 37.6704 187.474 37.017 187.014 36.5511C186.56 36.0852 185.869 35.8522 184.943 35.8522C183.983 35.8522 183.23 36.0625 182.685 36.4829C182.139 36.9034 181.756 37.3522 181.534 37.8295L179.625 37.1477C179.966 36.3522 180.42 35.7329 180.989 35.2897C181.562 34.8409 182.187 34.5284 182.864 34.3522C183.545 34.1704 184.216 34.0795 184.875 34.0795C185.295 34.0795 185.778 34.1307 186.324 34.2329C186.875 34.3295 187.406 34.5312 187.918 34.838C188.435 35.1449 188.864 35.6079 189.205 36.2272C189.545 36.8466 189.716 37.6761 189.716 38.7159V47.3409H187.705V45.5682H187.602C187.466 45.8522 187.239 46.1562 186.92 46.4801C186.602 46.8039 186.179 47.0795 185.651 47.3068C185.122 47.5341 184.477 47.6477 183.716 47.6477ZM184.023 45.8409C184.818 45.8409 185.489 45.6846 186.034 45.3721C186.585 45.0596 187 44.6562 187.278 44.1619C187.562 43.6676 187.705 43.1477 187.705 42.6022V40.7613C187.619 40.8636 187.432 40.9574 187.142 41.0426C186.858 41.1221 186.528 41.1932 186.153 41.2557C185.784 41.3125 185.423 41.3636 185.071 41.4091C184.724 41.4488 184.443 41.4829 184.227 41.5113C183.705 41.5795 183.216 41.6903 182.761 41.8437C182.312 41.9914 181.949 42.2159 181.67 42.517C181.398 42.8125 181.261 43.2159 181.261 43.7272C181.261 44.4261 181.52 44.9545 182.037 45.3125C182.56 45.6647 183.222 45.8409 184.023 45.8409ZM182.386 32.6818L180.818 32.6136C180.818 31.7443 181.065 31.0341 181.56 30.4829C182.06 29.9261 182.676 29.6477 183.409 29.6477C183.733 29.6477 184.02 29.7045 184.27 29.8182C184.52 29.9261 184.759 30.0511 184.986 30.1932C185.213 30.3352 185.446 30.463 185.685 30.5767C185.929 30.6846 186.205 30.7386 186.511 30.7386C186.835 30.7386 187.108 30.6136 187.33 30.3636C187.557 30.1079 187.67 29.8011 187.67 29.4432L189.205 29.5795C189.205 30.4659 188.955 31.1704 188.455 31.6932C187.96 32.2159 187.347 32.4772 186.614 32.4772C186.222 32.4772 185.898 32.4233 185.642 32.3153C185.386 32.2017 185.159 32.0738 184.96 31.9318C184.761 31.7897 184.551 31.6647 184.33 31.5568C184.108 31.4432 183.835 31.3863 183.511 31.3863C183.187 31.3863 182.918 31.5142 182.702 31.7699C182.491 32.0199 182.386 32.3238 182.386 32.6818ZM198.705 47.6136C197.523 47.6136 196.486 47.3324 195.594 46.7699C194.708 46.2074 194.015 45.4204 193.515 44.4091C193.021 43.3977 192.773 42.2159 192.773 40.8636C192.773 39.5 193.021 38.3096 193.515 37.2926C194.015 36.2755 194.708 35.4858 195.594 34.9233C196.486 34.3608 197.523 34.0795 198.705 34.0795C199.887 34.0795 200.921 34.3608 201.808 34.9233C202.7 35.4858 203.393 36.2755 203.887 37.2926C204.387 38.3096 204.637 39.5 204.637 40.8636C204.637 42.2159 204.387 43.3977 203.887 44.4091C203.393 45.4204 202.7 46.2074 201.808 46.7699C200.921 47.3324 199.887 47.6136 198.705 47.6136ZM198.705 45.8068C199.603 45.8068 200.342 45.5767 200.921 45.1164C201.501 44.6562 201.93 44.0511 202.208 43.3011C202.486 42.5511 202.626 41.7386 202.626 40.8636C202.626 39.9886 202.486 39.1733 202.208 38.4176C201.93 37.6619 201.501 37.0511 200.921 36.5852C200.342 36.1193 199.603 35.8863 198.705 35.8863C197.808 35.8863 197.069 36.1193 196.489 36.5852C195.91 37.0511 195.481 37.6619 195.202 38.4176C194.924 39.1733 194.785 39.9886 194.785 40.8636C194.785 41.7386 194.924 42.5511 195.202 43.3011C195.481 44.0511 195.91 44.6562 196.489 45.1164C197.069 45.5767 197.808 45.8068 198.705 45.8068ZM214.457 52.25V34.25H216.401V36.3295H216.639C216.787 36.1022 216.991 35.8125 217.253 35.4602C217.52 35.1022 217.901 34.7841 218.395 34.5057C218.895 34.2216 219.571 34.0795 220.423 34.0795C221.526 34.0795 222.497 34.3551 223.338 34.9062C224.179 35.4574 224.835 36.2386 225.307 37.25C225.778 38.2613 226.014 39.4545 226.014 40.8295C226.014 42.2159 225.778 43.4176 225.307 44.4346C224.835 45.446 224.182 46.2301 223.347 46.7869C222.511 47.338 221.548 47.6136 220.457 47.6136C219.616 47.6136 218.943 47.4744 218.437 47.196C217.932 46.9119 217.543 46.5909 217.27 46.2329C216.997 45.8693 216.787 45.5682 216.639 45.3295H216.469V52.25H214.457ZM216.435 40.7954C216.435 41.7841 216.58 42.6562 216.869 43.4119C217.159 44.1619 217.582 44.75 218.139 45.1761C218.696 45.5966 219.378 45.8068 220.185 45.8068C221.026 45.8068 221.727 45.5852 222.29 45.142C222.858 44.6932 223.284 44.0909 223.568 43.3352C223.858 42.5738 224.003 41.7272 224.003 40.7954C224.003 39.875 223.861 39.0454 223.577 38.3068C223.298 37.5625 222.875 36.9744 222.307 36.5426C221.744 36.1051 221.037 35.8863 220.185 35.8863C219.366 35.8863 218.679 36.0937 218.122 36.5085C217.565 36.9176 217.145 37.4914 216.861 38.2301C216.577 38.963 216.435 39.8182 216.435 40.7954ZM234.571 47.6136C233.31 47.6136 232.222 47.3352 231.307 46.7784C230.398 46.2159 229.696 45.4318 229.202 44.4261C228.713 43.4147 228.469 42.2386 228.469 40.8977C228.469 39.5568 228.713 38.375 229.202 37.3522C229.696 36.3238 230.384 35.5227 231.264 34.9488C232.151 34.3693 233.185 34.0795 234.366 34.0795C235.048 34.0795 235.722 34.1932 236.386 34.4204C237.051 34.6477 237.656 35.017 238.202 35.5284C238.747 36.0341 239.182 36.7045 239.506 37.5397C239.83 38.375 239.991 39.4034 239.991 40.625V41.4772H229.901V39.7386H237.946C237.946 39 237.798 38.3409 237.503 37.7613C237.213 37.1818 236.798 36.7244 236.259 36.3892C235.724 36.0539 235.094 35.8863 234.366 35.8863C233.565 35.8863 232.872 36.0852 232.287 36.4829C231.707 36.875 231.261 37.3863 230.949 38.017C230.636 38.6477 230.48 39.3238 230.48 40.0454V41.2045C230.48 42.1932 230.651 43.0312 230.991 43.7187C231.338 44.4005 231.818 44.9204 232.432 45.2784C233.045 45.6307 233.759 45.8068 234.571 45.8068C235.099 45.8068 235.577 45.7329 236.003 45.5852C236.435 45.4318 236.807 45.2045 237.119 44.9034C237.432 44.5966 237.673 44.2159 237.844 43.7613L239.787 44.3068C239.582 44.9659 239.239 45.5454 238.756 46.0454C238.273 46.5397 237.676 46.9261 236.966 47.2045C236.256 47.4772 235.457 47.6136 234.571 47.6136ZM243.051 47.3409V34.25H244.994V36.2272H245.131C245.369 35.5795 245.801 35.0539 246.426 34.6505C247.051 34.2471 247.756 34.0454 248.54 34.0454C248.687 34.0454 248.872 34.0483 249.094 34.0539C249.315 34.0596 249.483 34.0682 249.597 34.0795V36.125C249.528 36.1079 249.372 36.0824 249.128 36.0483C248.889 36.0085 248.636 35.9886 248.369 35.9886C247.733 35.9886 247.165 36.1221 246.665 36.3892C246.17 36.6505 245.778 37.0142 245.489 37.4801C245.205 37.9403 245.062 38.4659 245.062 39.0568V47.3409H243.051ZM258.631 34.25V35.9545H251.574V34.25H258.631ZM253.687 47.3409V32.4432C253.687 31.6932 253.864 31.0682 254.216 30.5682C254.568 30.0682 255.026 29.6932 255.588 29.4432C256.151 29.1932 256.744 29.0682 257.369 29.0682C257.864 29.0682 258.267 29.1079 258.58 29.1875C258.892 29.267 259.125 29.3409 259.278 29.4091L258.699 31.1477C258.597 31.1136 258.455 31.071 258.273 31.0199C258.097 30.9687 257.864 30.9432 257.574 30.9432C256.909 30.9432 256.429 31.1108 256.134 31.446C255.844 31.7812 255.699 32.2727 255.699 32.9204V47.3409H253.687ZM266.399 47.6136C265.138 47.6136 264.05 47.3352 263.135 46.7784C262.226 46.2159 261.524 45.4318 261.03 44.4261C260.541 43.4147 260.297 42.2386 260.297 40.8977C260.297 39.5568 260.541 38.375 261.03 37.3522C261.524 36.3238 262.212 35.5227 263.092 34.9488C263.979 34.3693 265.013 34.0795 266.195 34.0795C266.876 34.0795 267.55 34.1932 268.214 34.4204C268.879 34.6477 269.484 35.017 270.03 35.5284C270.575 36.0341 271.01 36.7045 271.334 37.5397C271.658 38.375 271.82 39.4034 271.82 40.625V41.4772H261.729V39.7386H269.774C269.774 39 269.626 38.3409 269.331 37.7613C269.041 37.1818 268.626 36.7244 268.087 36.3892C267.553 36.0539 266.922 35.8863 266.195 35.8863C265.393 35.8863 264.7 36.0852 264.115 36.4829C263.536 36.875 263.089 37.3863 262.777 38.017C262.464 38.6477 262.308 39.3238 262.308 40.0454V41.2045C262.308 42.1932 262.479 43.0312 262.82 43.7187C263.166 44.4005 263.646 44.9204 264.26 45.2784C264.874 45.6307 265.587 45.8068 266.399 45.8068C266.928 45.8068 267.405 45.7329 267.831 45.5852C268.263 45.4318 268.635 45.2045 268.947 44.9034C269.26 44.5966 269.501 44.2159 269.672 43.7613L271.615 44.3068C271.411 44.9659 271.067 45.5454 270.584 46.0454C270.101 46.5397 269.504 46.9261 268.794 47.2045C268.084 47.4772 267.286 47.6136 266.399 47.6136ZM274.879 47.3409V34.25H276.891V47.3409H274.879ZM275.902 32.0682C275.51 32.0682 275.172 31.9346 274.888 31.6676C274.609 31.4005 274.47 31.0795 274.47 30.7045C274.47 30.3295 274.609 30.0085 274.888 29.7414C275.172 29.4744 275.51 29.3409 275.902 29.3409C276.294 29.3409 276.629 29.4744 276.908 29.7414C277.192 30.0085 277.334 30.3295 277.334 30.7045C277.334 31.0795 277.192 31.4005 276.908 31.6676C276.629 31.9346 276.294 32.0682 275.902 32.0682ZM286.268 34.25V35.9545H279.484V34.25H286.268ZM281.461 31.1136H283.472V43.5909C283.472 44.1591 283.555 44.5852 283.719 44.8693C283.89 45.1477 284.106 45.3352 284.367 45.4318C284.634 45.5227 284.915 45.5682 285.211 45.5682C285.433 45.5682 285.614 45.5568 285.756 45.5341C285.898 45.5057 286.012 45.4829 286.097 45.4659L286.506 47.2727C286.37 47.3238 286.18 47.375 285.935 47.4261C285.691 47.4829 285.381 47.5113 285.006 47.5113C284.438 47.5113 283.881 47.3892 283.336 47.1449C282.796 46.9005 282.347 46.5284 281.989 46.0284C281.637 45.5284 281.461 44.8977 281.461 44.1363V31.1136ZM293.146 47.6477C292.316 47.6477 291.563 47.4914 290.887 47.1789C290.211 46.8608 289.674 46.4034 289.276 45.8068C288.879 45.2045 288.68 44.4772 288.68 43.625C288.68 42.875 288.827 42.267 289.123 41.8011C289.418 41.3295 289.813 40.9602 290.308 40.6932C290.802 40.4261 291.347 40.2272 291.944 40.0966C292.546 39.9602 293.151 39.8522 293.759 39.7727C294.555 39.6704 295.2 39.5937 295.694 39.5426C296.194 39.4858 296.558 39.392 296.785 39.2613C297.018 39.1307 297.134 38.9034 297.134 38.5795V38.5113C297.134 37.6704 296.904 37.017 296.444 36.5511C295.989 36.0852 295.299 35.8522 294.373 35.8522C293.413 35.8522 292.66 36.0625 292.114 36.4829C291.569 36.9034 291.185 37.3522 290.964 37.8295L289.055 37.1477C289.396 36.3522 289.85 35.7329 290.418 35.2897C290.992 34.8409 291.617 34.5284 292.293 34.3522C292.975 34.1704 293.646 34.0795 294.305 34.0795C294.725 34.0795 295.208 34.1307 295.754 34.2329C296.305 34.3295 296.836 34.5312 297.347 34.838C297.864 35.1449 298.293 35.6079 298.634 36.2272C298.975 36.8466 299.146 37.6761 299.146 38.7159V47.3409H297.134V45.5682H297.032C296.896 45.8522 296.668 46.1562 296.35 46.4801C296.032 46.8039 295.609 47.0795 295.08 47.3068C294.552 47.5341 293.907 47.6477 293.146 47.6477ZM293.452 45.8409C294.248 45.8409 294.918 45.6846 295.464 45.3721C296.015 45.0596 296.43 44.6562 296.708 44.1619C296.992 43.6676 297.134 43.1477 297.134 42.6022V40.7613C297.049 40.8636 296.861 40.9574 296.572 41.0426C296.288 41.1221 295.958 41.1932 295.583 41.2557C295.214 41.3125 294.853 41.3636 294.501 41.4091C294.154 41.4488 293.873 41.4829 293.657 41.5113C293.134 41.5795 292.646 41.6903 292.191 41.8437C291.742 41.9914 291.379 42.2159 291.1 42.517C290.827 42.8125 290.691 43.2159 290.691 43.7272C290.691 44.4261 290.95 44.9545 291.467 45.3125C291.989 45.6647 292.651 45.8409 293.452 45.8409ZM0.613629 81.25V63.25H2.55681V65.3295H2.79545C2.94317 65.1022 3.14772 64.8125 3.40908 64.4602C3.67613 64.1022 4.05681 63.7841 4.55113 63.5057C5.05113 63.2216 5.72727 63.0795 6.57954 63.0795C7.68181 63.0795 8.6534 63.3551 9.49431 63.9062C10.3352 64.4574 10.9915 65.2386 11.4631 66.25C11.9347 67.2613 12.1704 68.4545 12.1704 69.8295C12.1704 71.2159 11.9347 72.4176 11.4631 73.4346C10.9915 74.446 10.3381 75.2301 9.50283 75.7869C8.66761 76.338 7.70454 76.6136 6.61363 76.6136C5.77272 76.6136 5.09943 76.4744 4.59374 76.196C4.08806 75.9119 3.69886 75.5909 3.42613 75.2329C3.1534 74.8693 2.94317 74.5682 2.79545 74.3295H2.62499V81.25H0.613629ZM2.5909 69.7954C2.5909 70.7841 2.73579 71.6562 3.02556 72.4119C3.31533 73.1619 3.73863 73.75 4.29545 74.1761C4.85227 74.5966 5.53408 74.8068 6.3409 74.8068C7.18181 74.8068 7.88352 74.5852 8.44602 74.142C9.0142 73.6932 9.44033 73.0909 9.72443 72.3352C10.0142 71.5738 10.1591 70.7272 10.1591 69.7954C10.1591 68.875 10.017 68.0454 9.73295 67.3068C9.45454 66.5625 9.03124 65.9744 8.46306 65.5426C7.90056 65.1051 7.19318 64.8863 6.3409 64.8863C5.52272 64.8863 4.83522 65.0937 4.2784 65.5085C3.72158 65.9176 3.30113 66.4914 3.01704 67.2301C2.73295 67.963 2.5909 68.8182 2.5909 69.7954ZM19.0909 76.6477C18.2614 76.6477 17.5085 76.4914 16.8324 76.1789C16.1562 75.8608 15.6193 75.4034 15.2216 74.8068C14.8239 74.2045 14.625 73.4772 14.625 72.625C14.625 71.875 14.7727 71.267 15.0682 70.8011C15.3636 70.3295 15.7585 69.9602 16.2528 69.6932C16.7472 69.4261 17.2926 69.2272 17.8892 69.0966C18.4915 68.9602 19.0966 68.8522 19.7045 68.7727C20.5 68.6704 21.1449 68.5937 21.6392 68.5426C22.1392 68.4858 22.5028 68.392 22.7301 68.2613C22.9631 68.1307 23.0795 67.9034 23.0795 67.5795V67.5113C23.0795 66.6704 22.8494 66.017 22.3892 65.5511C21.9347 65.0852 21.2443 64.8522 20.3182 64.8522C19.3579 64.8522 18.6051 65.0625 18.0597 65.4829C17.5142 65.9034 17.1307 66.3522 16.9091 66.8295L15 66.1477C15.3409 65.3522 15.7954 64.7329 16.3636 64.2897C16.9375 63.8409 17.5625 63.5284 18.2386 63.3522C18.9204 63.1704 19.5909 63.0795 20.25 63.0795C20.6704 63.0795 21.1534 63.1307 21.6989 63.2329C22.25 63.3295 22.7812 63.5312 23.2926 63.838C23.8097 64.1449 24.2386 64.6079 24.5795 65.2272C24.9204 65.8466 25.0909 66.6761 25.0909 67.7159V76.3409H23.0795V74.5682H22.9773C22.8409 74.8522 22.6136 75.1562 22.2954 75.4801C21.9773 75.8039 21.554 76.0795 21.0256 76.3068C20.4972 76.5341 19.8523 76.6477 19.0909 76.6477ZM19.3977 74.8409C20.1932 74.8409 20.8636 74.6846 21.4091 74.3721C21.9602 74.0596 22.375 73.6562 22.6534 73.1619C22.9375 72.6676 23.0795 72.1477 23.0795 71.6022V69.7613C22.9943 69.8636 22.8068 69.9574 22.517 70.0426C22.2329 70.1221 21.9034 70.1932 21.5284 70.2557C21.1591 70.3125 20.7983 70.3636 20.446 70.4091C20.0994 70.4488 19.8182 70.4829 19.6023 70.5113C19.0795 70.5795 18.5909 70.6903 18.1364 70.8437C17.6875 70.9914 17.3239 71.2159 17.0454 71.517C16.7727 71.8125 16.6364 72.2159 16.6364 72.7272C16.6364 73.4261 16.8949 73.9545 17.4119 74.3125C17.9347 74.6647 18.5966 74.8409 19.3977 74.8409ZM28.7621 76.3409V63.25H30.7052V65.2272H30.8416C31.0802 64.5795 31.5121 64.0539 32.1371 63.6505C32.7621 63.2471 33.4666 63.0454 34.2507 63.0454C34.3984 63.0454 34.5831 63.0483 34.8047 63.0539C35.0263 63.0596 35.1939 63.0682 35.3075 63.0795V65.125C35.2393 65.1079 35.0831 65.0824 34.8388 65.0483C34.6001 65.0085 34.3473 64.9886 34.0802 64.9886C33.4439 64.9886 32.8757 65.1221 32.3757 65.3892C31.8814 65.6505 31.4893 66.0142 31.1996 66.4801C30.9155 66.9403 30.7734 67.4659 30.7734 68.0568V76.3409H28.7621ZM41.544 76.6477C40.7145 76.6477 39.9616 76.4914 39.2855 76.1789C38.6094 75.8608 38.0724 75.4034 37.6747 74.8068C37.277 74.2045 37.0781 73.4772 37.0781 72.625C37.0781 71.875 37.2258 71.267 37.5213 70.8011C37.8168 70.3295 38.2116 69.9602 38.706 69.6932C39.2003 69.4261 39.7457 69.2272 40.3423 69.0966C40.9446 68.9602 41.5497 68.8522 42.1577 68.7727C42.9531 68.6704 43.598 68.5937 44.0923 68.5426C44.5923 68.4858 44.956 68.392 45.1832 68.2613C45.4162 68.1307 45.5327 67.9034 45.5327 67.5795V67.5113C45.5327 66.6704 45.3026 66.017 44.8423 65.5511C44.3878 65.0852 43.6974 64.8522 42.7713 64.8522C41.8111 64.8522 41.0582 65.0625 40.5128 65.4829C39.9673 65.9034 39.5838 66.3522 39.3622 66.8295L37.4531 66.1477C37.794 65.3522 38.2486 64.7329 38.8168 64.2897C39.3906 63.8409 40.0156 63.5284 40.6918 63.3522C41.3736 63.1704 42.044 63.0795 42.7031 63.0795C43.1236 63.0795 43.6065 63.1307 44.152 63.2329C44.7031 63.3295 45.2344 63.5312 45.7457 63.838C46.2628 64.1449 46.6918 64.6079 47.0327 65.2272C47.3736 65.8466 47.544 66.6761 47.544 67.7159V76.3409H45.5327V74.5682H45.4304C45.294 74.8522 45.0668 75.1562 44.7486 75.4801C44.4304 75.8039 44.0071 76.0795 43.4787 76.3068C42.9503 76.5341 42.3054 76.6477 41.544 76.6477ZM41.8508 74.8409C42.6463 74.8409 43.3168 74.6846 43.8622 74.3721C44.4133 74.0596 44.8281 73.6562 45.1065 73.1619C45.3906 72.6676 45.5327 72.1477 45.5327 71.6022V69.7613C45.4474 69.8636 45.2599 69.9574 44.9702 70.0426C44.6861 70.1221 44.3565 70.1932 43.9815 70.2557C43.6122 70.3125 43.2514 70.3636 42.8991 70.4091C42.5526 70.4488 42.2713 70.4829 42.0554 70.5113C41.5327 70.5795 41.044 70.6903 40.5895 70.8437C40.1406 70.9914 39.777 71.2159 39.4986 71.517C39.2258 71.8125 39.0895 72.2159 39.0895 72.7272C39.0895 73.4261 39.348 73.9545 39.8651 74.3125C40.3878 74.6647 41.0497 74.8409 41.8508 74.8409ZM67.2379 66.1818L65.4311 66.6932C65.3175 66.392 65.1499 66.0994 64.9283 65.8153C64.7124 65.5255 64.4169 65.2869 64.0419 65.0994C63.6669 64.9119 63.1868 64.8182 62.6016 64.8182C61.8004 64.8182 61.1328 65.0028 60.5987 65.3721C60.0703 65.7358 59.8061 66.1988 59.8061 66.7613C59.8061 67.2613 59.9879 67.6562 60.3516 67.946C60.7152 68.2358 61.2834 68.4772 62.0561 68.6704L63.9993 69.1477C65.1697 69.4318 66.0419 69.8664 66.6158 70.4517C67.1896 71.0312 67.4766 71.7784 67.4766 72.6932C67.4766 73.4432 67.2606 74.1136 66.8288 74.7045C66.4027 75.2954 65.8061 75.7613 65.0391 76.1022C64.272 76.4432 63.38 76.6136 62.3629 76.6136C61.0277 76.6136 59.9226 76.3238 59.0476 75.7443C58.1726 75.1647 57.6186 74.3182 57.3856 73.2045L59.2947 72.7272C59.4766 73.4318 59.8203 73.9602 60.326 74.3125C60.8374 74.6647 61.505 74.8409 62.3288 74.8409C63.2663 74.8409 64.0106 74.642 64.5618 74.2443C65.1186 73.8409 65.397 73.3579 65.397 72.7954C65.397 72.3409 65.2379 71.9602 64.9197 71.6534C64.6016 71.3409 64.1129 71.1079 63.4538 70.9545L61.272 70.4432C60.0731 70.1591 59.1925 69.7187 58.63 69.1221C58.0731 68.5199 57.7947 67.767 57.7947 66.8636C57.7947 66.125 58.0021 65.4716 58.4169 64.9034C58.8374 64.3352 59.4084 63.8892 60.13 63.5653C60.8572 63.2414 61.6811 63.0795 62.6016 63.0795C63.897 63.0795 64.9141 63.3636 65.6527 63.9318C66.397 64.5 66.9254 65.25 67.2379 66.1818ZM75.9929 76.6136C74.7315 76.6136 73.6435 76.3352 72.7287 75.7784C71.8196 75.2159 71.1179 74.4318 70.6236 73.4261C70.1349 72.4147 69.8906 71.2386 69.8906 69.8977C69.8906 68.5568 70.1349 67.375 70.6236 66.3522C71.1179 65.3238 71.8054 64.5227 72.6861 63.9488C73.5724 63.3693 74.6065 63.0795 75.7883 63.0795C76.4702 63.0795 77.1435 63.1932 77.8082 63.4204C78.473 63.6477 79.0781 64.017 79.6236 64.5284C80.169 65.0341 80.6037 65.7045 80.9276 66.5397C81.2514 67.375 81.4133 68.4034 81.4133 69.625V70.4772H71.3224V68.7386H79.3679C79.3679 68 79.2202 67.3409 78.9247 66.7613C78.6349 66.1818 78.2202 65.7244 77.6804 65.3892C77.1463 65.0539 76.5156 64.8863 75.7883 64.8863C74.9872 64.8863 74.294 65.0852 73.7088 65.4829C73.1293 65.875 72.6832 66.3863 72.3707 67.017C72.0582 67.6477 71.902 68.3238 71.902 69.0454V70.2045C71.902 71.1932 72.0724 72.0312 72.4133 72.7187C72.7599 73.4005 73.2401 73.9204 73.8537 74.2784C74.4673 74.6307 75.1804 74.8068 75.9929 74.8068C76.5213 74.8068 76.9986 74.7329 77.4247 74.5852C77.8565 74.4318 78.2287 74.2045 78.5412 73.9034C78.8537 73.5966 79.0952 73.2159 79.2656 72.7613L81.2088 73.3068C81.0043 73.9659 80.6605 74.5454 80.1776 75.0454C79.6946 75.5397 79.098 75.9261 78.3878 76.2045C77.6776 76.4772 76.8793 76.6136 75.9929 76.6136ZM92.723 70.9886V63.25H94.7344V76.3409H92.723V74.125H92.5866C92.2798 74.7897 91.8026 75.3551 91.1548 75.821C90.5071 76.2812 89.6889 76.5113 88.7003 76.5113C87.8821 76.5113 87.1548 76.3324 86.5185 75.9744C85.8821 75.6108 85.3821 75.0653 85.0185 74.338C84.6548 73.6051 84.473 72.6818 84.473 71.5682V63.25H86.4844V71.4318C86.4844 72.3863 86.7514 73.1477 87.2855 73.7159C87.8253 74.2841 88.5128 74.5682 89.348 74.5682C89.848 74.5682 90.3565 74.4403 90.8736 74.1846C91.3963 73.9289 91.8338 73.5369 92.1861 73.0085C92.544 72.4801 92.723 71.8068 92.723 70.9886ZM105.168 76.3409V63.25H107.111V65.2954H107.282C107.555 64.5966 107.995 64.0539 108.603 63.6676C109.211 63.2755 109.941 63.0795 110.793 63.0795C111.657 63.0795 112.376 63.2755 112.95 63.6676C113.529 64.0539 113.981 64.5966 114.305 65.2954H114.441C114.776 64.6193 115.279 64.0824 115.95 63.6846C116.62 63.2812 117.424 63.0795 118.361 63.0795C119.532 63.0795 120.489 63.446 121.234 64.1789C121.978 64.9062 122.35 66.0397 122.35 67.5795V76.3409H120.339V67.5795C120.339 66.6136 120.075 65.9233 119.546 65.5085C119.018 65.0937 118.396 64.8863 117.68 64.8863C116.759 64.8863 116.046 65.1647 115.54 65.7216C115.035 66.2727 114.782 66.9716 114.782 67.8182V76.3409H112.736V67.375C112.736 66.6307 112.495 66.0312 112.012 65.5767C111.529 65.1164 110.907 64.8863 110.146 64.8863C109.623 64.8863 109.134 65.0255 108.68 65.3039C108.231 65.5824 107.867 65.9687 107.589 66.463C107.316 66.9517 107.18 67.517 107.18 68.1591V76.3409H105.168ZM131.346 76.6136C130.164 76.6136 129.127 76.3324 128.235 75.7699C127.349 75.2074 126.656 74.4204 126.156 73.4091C125.661 72.3977 125.414 71.2159 125.414 69.8636C125.414 68.5 125.661 67.3096 126.156 66.2926C126.656 65.2755 127.349 64.4858 128.235 63.9233C129.127 63.3608 130.164 63.0795 131.346 63.0795C132.528 63.0795 133.562 63.3608 134.448 63.9233C135.34 64.4858 136.033 65.2755 136.528 66.2926C137.028 67.3096 137.278 68.5 137.278 69.8636C137.278 71.2159 137.028 72.3977 136.528 73.4091C136.033 74.4204 135.34 75.2074 134.448 75.7699C133.562 76.3324 132.528 76.6136 131.346 76.6136ZM131.346 74.8068C132.244 74.8068 132.982 74.5767 133.562 74.1164C134.141 73.6562 134.57 73.0511 134.849 72.3011C135.127 71.5511 135.266 70.7386 135.266 69.8636C135.266 68.9886 135.127 68.1733 134.849 67.4176C134.57 66.6619 134.141 66.0511 133.562 65.5852C132.982 65.1193 132.244 64.8863 131.346 64.8863C130.448 64.8863 129.71 65.1193 129.13 65.5852C128.55 66.0511 128.121 66.6619 127.843 67.4176C127.565 68.1733 127.425 68.9886 127.425 69.8636C127.425 70.7386 127.565 71.5511 127.843 72.3011C128.121 73.0511 128.55 73.6562 129.13 74.1164C129.71 74.5767 130.448 74.8068 131.346 74.8068ZM140.348 76.3409V63.25H142.291V65.2954H142.462C142.734 64.5966 143.175 64.0539 143.783 63.6676C144.391 63.2755 145.121 63.0795 145.973 63.0795C146.837 63.0795 147.555 63.2755 148.129 63.6676C148.709 64.0539 149.161 64.5966 149.484 65.2954H149.621C149.956 64.6193 150.459 64.0824 151.129 63.6846C151.8 63.2812 152.604 63.0795 153.541 63.0795C154.712 63.0795 155.669 63.446 156.413 64.1789C157.158 64.9062 157.53 66.0397 157.53 67.5795V76.3409H155.518V67.5795C155.518 66.6136 155.254 65.9233 154.726 65.5085C154.197 65.0937 153.575 64.8863 152.859 64.8863C151.939 64.8863 151.226 65.1647 150.72 65.7216C150.214 66.2727 149.962 66.9716 149.962 67.8182V76.3409H147.916V67.375C147.916 66.6307 147.675 66.0312 147.192 65.5767C146.709 65.1164 146.087 64.8863 145.325 64.8863C144.803 64.8863 144.314 65.0255 143.859 65.3039C143.411 65.5824 143.047 65.9687 142.768 66.463C142.496 66.9517 142.359 67.517 142.359 68.1591V76.3409H140.348ZM166.696 76.6136C165.435 76.6136 164.347 76.3352 163.432 75.7784C162.523 75.2159 161.821 74.4318 161.327 73.4261C160.838 72.4147 160.594 71.2386 160.594 69.8977C160.594 68.5568 160.838 67.375 161.327 66.3522C161.821 65.3238 162.509 64.5227 163.389 63.9488C164.276 63.3693 165.31 63.0795 166.491 63.0795C167.173 63.0795 167.847 63.1932 168.511 63.4204C169.176 63.6477 169.781 64.017 170.327 64.5284C170.872 65.0341 171.307 65.7045 171.631 66.5397C171.955 67.375 172.116 68.4034 172.116 69.625V70.4772H162.026V68.7386H170.071C170.071 68 169.923 67.3409 169.628 66.7613C169.338 66.1818 168.923 65.7244 168.384 65.3892C167.849 65.0539 167.219 64.8863 166.491 64.8863C165.69 64.8863 164.997 65.0852 164.412 65.4829C163.832 65.875 163.386 66.3863 163.074 67.017C162.761 67.6477 162.605 68.3238 162.605 69.0454V70.2045C162.605 71.1932 162.776 72.0312 163.116 72.7187C163.463 73.4005 163.943 73.9204 164.557 74.2784C165.17 74.6307 165.884 74.8068 166.696 74.8068C167.224 74.8068 167.702 74.7329 168.128 74.5852C168.56 74.4318 168.932 74.2045 169.244 73.9034C169.557 73.5966 169.798 73.2159 169.969 72.7613L171.912 73.3068C171.707 73.9659 171.364 74.5454 170.881 75.0454C170.398 75.5397 169.801 75.9261 169.091 76.2045C168.381 76.4772 167.582 76.6136 166.696 76.6136ZM177.187 68.4659V76.3409H175.176V63.25H177.119V65.2954H177.29C177.597 64.6307 178.062 64.0966 178.687 63.6932C179.312 63.2841 180.119 63.0795 181.108 63.0795C181.994 63.0795 182.77 63.2613 183.435 63.625C184.099 63.9829 184.616 64.5284 184.986 65.2613C185.355 65.9886 185.54 66.9091 185.54 68.0227V76.3409H183.528V68.1591C183.528 67.1307 183.261 66.3295 182.727 65.7557C182.193 65.1761 181.46 64.8863 180.528 64.8863C179.886 64.8863 179.312 65.0255 178.807 65.3039C178.307 65.5824 177.912 65.9886 177.622 66.5227C177.332 67.0568 177.187 67.7045 177.187 68.4659ZM194.908 63.25V64.9545H188.124V63.25H194.908ZM190.102 60.1136H192.113V72.5909C192.113 73.1591 192.195 73.5852 192.36 73.8693C192.531 74.1477 192.746 74.3352 193.008 74.4318C193.275 74.5227 193.556 74.5682 193.852 74.5682C194.073 74.5682 194.255 74.5568 194.397 74.5341C194.539 74.5057 194.653 74.4829 194.738 74.4659L195.147 76.2727C195.011 76.3238 194.82 76.375 194.576 76.4261C194.332 76.4829 194.022 76.5113 193.647 76.5113C193.079 76.5113 192.522 76.3892 191.977 76.1449C191.437 75.9005 190.988 75.5284 190.63 75.0284C190.278 74.5284 190.102 73.8977 190.102 73.1363V60.1136ZM203.111 76.6136C201.93 76.6136 200.893 76.3324 200.001 75.7699C199.114 75.2074 198.421 74.4204 197.921 73.4091C197.427 72.3977 197.18 71.2159 197.18 69.8636C197.18 68.5 197.427 67.3096 197.921 66.2926C198.421 65.2755 199.114 64.4858 200.001 63.9233C200.893 63.3608 201.93 63.0795 203.111 63.0795C204.293 63.0795 205.327 63.3608 206.214 63.9233C207.106 64.4858 207.799 65.2755 208.293 66.2926C208.793 67.3096 209.043 68.5 209.043 69.8636C209.043 71.2159 208.793 72.3977 208.293 73.4091C207.799 74.4204 207.106 75.2074 206.214 75.7699C205.327 76.3324 204.293 76.6136 203.111 76.6136ZM203.111 74.8068C204.009 74.8068 204.748 74.5767 205.327 74.1164C205.907 73.6562 206.336 73.0511 206.614 72.3011C206.893 71.5511 207.032 70.7386 207.032 69.8636C207.032 68.9886 206.893 68.1733 206.614 67.4176C206.336 66.6619 205.907 66.0511 205.327 65.5852C204.748 65.1193 204.009 64.8863 203.111 64.8863C202.214 64.8863 201.475 65.1193 200.896 65.5852C200.316 66.0511 199.887 66.6619 199.609 67.4176C199.33 68.1733 199.191 68.9886 199.191 69.8636C199.191 70.7386 199.33 71.5511 199.609 72.3011C199.887 73.0511 200.316 73.6562 200.896 74.1164C201.475 74.5767 202.214 74.8068 203.111 74.8068ZM214.773 58.8863L214.602 71.4318H212.625L212.455 58.8863H214.773ZM213.614 76.4772C213.193 76.4772 212.832 76.3267 212.531 76.0255C212.23 75.7244 212.08 75.3636 212.08 74.9432C212.08 74.5227 212.23 74.1619 212.531 73.8608C212.832 73.5596 213.193 73.4091 213.614 73.4091C214.034 73.4091 214.395 73.5596 214.696 73.8608C214.997 74.1619 215.148 74.5227 215.148 74.9432C215.148 75.2216 215.077 75.4772 214.935 75.7102C214.798 75.9432 214.614 76.1307 214.381 76.2727C214.153 76.4091 213.898 76.4772 213.614 76.4772Z" fill="black"/>
</svg>
