<svg width="124" height="35" viewBox="0 0 124 35" fill="none" xmlns="http://www.w3.org/2000/svg">
<path d="M0.590854 12V0.363636H7.56813V1.61364H1.99994V5.54545H7.0454V6.79545H1.99994V12H0.590854ZM9.79966 12V3.27273H11.1406V12H9.79966ZM10.4815 1.81818C10.2201 1.81818 9.99474 1.72917 9.80534 1.55114C9.61974 1.37311 9.52693 1.15909 9.52693 0.909091C9.52693 0.659091 9.61974 0.445076 9.80534 0.267045C9.99474 0.089015 10.2201 0 10.4815 0C10.7428 0 10.9663 0.089015 11.1519 0.267045C11.3413 0.445076 11.436 0.659091 11.436 0.909091C11.436 1.15909 11.3413 1.37311 11.1519 1.55114C10.9663 1.72917 10.7428 1.81818 10.4815 1.81818ZM14.9374 0.363636V12H13.5965V0.363636H14.9374ZM21.1889 3.27273V4.40909H16.6661V3.27273H21.1889ZM17.9843 1.18182H19.3252V9.5C19.3252 9.87879 19.3802 10.1629 19.49 10.3523C19.6036 10.5379 19.7476 10.6629 19.9218 10.7273C20.0999 10.7879 20.2874 10.8182 20.4843 10.8182C20.632 10.8182 20.7533 10.8106 20.848 10.7955C20.9427 10.7765 21.0184 10.7614 21.0752 10.75L21.348 11.9545C21.257 11.9886 21.1302 12.0227 20.9673 12.0568C20.8044 12.0947 20.598 12.1136 20.348 12.1136C19.9692 12.1136 19.598 12.0322 19.2343 11.8693C18.8745 11.7064 18.5752 11.4583 18.3366 11.125C18.1017 10.7917 17.9843 10.3712 17.9843 9.86364V1.18182ZM23.2059 12V3.27273H24.5014V4.59091H24.5923C24.7514 4.15909 25.0392 3.80871 25.4559 3.53977C25.8726 3.27083 26.3423 3.13636 26.865 3.13636C26.9635 3.13636 27.0866 3.13826 27.2343 3.14205C27.382 3.14583 27.4938 3.15152 27.5695 3.15909V4.52273C27.5241 4.51136 27.4199 4.49432 27.257 4.47159C27.098 4.44508 26.9294 4.43182 26.7514 4.43182C26.3271 4.43182 25.9483 4.52083 25.615 4.69886C25.2855 4.87311 25.0241 5.11553 24.8309 5.42614C24.6415 5.73295 24.5468 6.08333 24.5468 6.47727V12H23.2059ZM32.5525 12.1818C31.7116 12.1818 30.9862 11.9962 30.3764 11.625C29.7703 11.25 29.3025 10.7273 28.973 10.0568C28.6472 9.38258 28.4843 8.59848 28.4843 7.70455C28.4843 6.81061 28.6472 6.02273 28.973 5.34091C29.3025 4.6553 29.7608 4.12121 30.348 3.73864C30.9389 3.35227 31.6283 3.15909 32.4161 3.15909C32.8707 3.15909 33.3195 3.23485 33.7627 3.38636C34.2059 3.53788 34.6093 3.78409 34.973 4.125C35.3366 4.46212 35.6264 4.90909 35.8423 5.46591C36.0582 6.02273 36.1661 6.70833 36.1661 7.52273V8.09091H29.4389V6.93182H34.8025C34.8025 6.43939 34.704 6 34.507 5.61364C34.3139 5.22727 34.0374 4.92235 33.6775 4.69886C33.3214 4.47538 32.901 4.36364 32.4161 4.36364C31.882 4.36364 31.4199 4.49621 31.0298 4.76136C30.6434 5.02273 30.3461 5.36364 30.1377 5.78409C29.9294 6.20455 29.8252 6.6553 29.8252 7.13636V7.90909C29.8252 8.56818 29.9389 9.12689 30.1661 9.58523C30.3972 10.0398 30.7173 10.3864 31.1264 10.625C31.5355 10.8598 32.0108 10.9773 32.5525 10.9773C32.9048 10.9773 33.223 10.928 33.507 10.8295C33.7949 10.7273 34.043 10.5758 34.2514 10.375C34.4597 10.1705 34.6207 9.91667 34.7343 9.61364L36.0298 9.97727C35.8934 10.4167 35.6642 10.803 35.3423 11.1364C35.0203 11.4659 34.6226 11.7235 34.1491 11.9091C33.6756 12.0909 33.1434 12.1818 32.5525 12.1818ZM42.7059 15.2727V3.27273H44.0014V4.65909H44.1605C44.2589 4.50758 44.3953 4.31439 44.5695 4.07955C44.7476 3.84091 45.0014 3.62879 45.3309 3.44318C45.6642 3.25379 46.115 3.15909 46.6832 3.15909C47.418 3.15909 48.0658 3.3428 48.6264 3.71023C49.187 4.07765 49.6245 4.59848 49.9389 5.27273C50.2533 5.94697 50.4105 6.74242 50.4105 7.65909C50.4105 8.58333 50.2533 9.38447 49.9389 10.0625C49.6245 10.7367 49.1889 11.2595 48.632 11.6307C48.0752 11.9981 47.4332 12.1818 46.7059 12.1818C46.1453 12.1818 45.6964 12.089 45.3593 11.9034C45.0222 11.714 44.7627 11.5 44.5809 11.2614C44.3991 11.0189 44.2589 10.8182 44.1605 10.6591H44.0468V15.2727H42.7059ZM44.0241 7.63636C44.0241 8.29545 44.1207 8.87689 44.3139 9.38068C44.507 9.88068 44.7892 10.2727 45.1605 10.5568C45.5317 10.8371 45.9862 10.9773 46.5241 10.9773C47.0847 10.9773 47.5525 10.8295 47.9275 10.5341C48.3063 10.2348 48.5904 9.83333 48.7798 9.32955C48.973 8.82197 49.0695 8.25758 49.0695 7.63636C49.0695 7.02273 48.9749 6.4697 48.7855 5.97727C48.5999 5.48106 48.3177 5.08902 47.9389 4.80114C47.5639 4.50947 47.0923 4.36364 46.5241 4.36364C45.9786 4.36364 45.5203 4.50189 45.1491 4.77841C44.7779 5.05114 44.4976 5.43371 44.3082 5.92614C44.1188 6.41477 44.0241 6.98485 44.0241 7.63636ZM56.0014 12.1818C55.2135 12.1818 54.5222 11.9943 53.9275 11.6193C53.3366 11.2443 52.8745 10.7197 52.5411 10.0455C52.2116 9.37121 52.0468 8.58333 52.0468 7.68182C52.0468 6.77273 52.2116 5.97917 52.5411 5.30114C52.8745 4.62311 53.3366 4.09659 53.9275 3.72159C54.5222 3.34659 55.2135 3.15909 56.0014 3.15909C56.7892 3.15909 57.4786 3.34659 58.0695 3.72159C58.6642 4.09659 59.1264 4.62311 59.4559 5.30114C59.7892 5.97917 59.9559 6.77273 59.9559 7.68182C59.9559 8.58333 59.7892 9.37121 59.4559 10.0455C59.1264 10.7197 58.6642 11.2443 58.0695 11.6193C57.4786 11.9943 56.7892 12.1818 56.0014 12.1818ZM56.0014 10.9773C56.5998 10.9773 57.0923 10.8239 57.4786 10.517C57.865 10.2102 58.151 9.80682 58.3366 9.30682C58.5222 8.80682 58.615 8.26515 58.615 7.68182C58.615 7.09848 58.5222 6.55492 58.3366 6.05114C58.151 5.54735 57.865 5.14015 57.4786 4.82955C57.0923 4.51894 56.5998 4.36364 56.0014 4.36364C55.4029 4.36364 54.9105 4.51894 54.5241 4.82955C54.1377 5.14015 53.8517 5.54735 53.6661 6.05114C53.4805 6.55492 53.3877 7.09848 53.3877 7.68182C53.3877 8.26515 53.4805 8.80682 53.6661 9.30682C53.8517 9.80682 54.1377 10.2102 54.5241 10.517C54.9105 10.8239 55.4029 10.9773 56.0014 10.9773ZM62.0028 12V3.27273H63.2982V4.59091H63.3891C63.5482 4.15909 63.8361 3.80871 64.2528 3.53977C64.6695 3.27083 65.1391 3.13636 65.6619 3.13636C65.7604 3.13636 65.8835 3.13826 66.0312 3.14205C66.1789 3.14583 66.2907 3.15152 66.3664 3.15909V4.52273C66.321 4.51136 66.2168 4.49432 66.0539 4.47159C65.8948 4.44508 65.7263 4.43182 65.5482 4.43182C65.124 4.43182 64.7452 4.52083 64.4119 4.69886C64.0823 4.87311 63.821 5.11553 63.6278 5.42614C63.4384 5.73295 63.3437 6.08333 63.3437 6.47727V12H62.0028ZM78.4105 15.2727V10.6591H78.2968C78.1983 10.8182 78.0582 11.0189 77.8764 11.2614C77.6945 11.5 77.4351 11.714 77.098 11.9034C76.7608 12.089 76.312 12.1818 75.7514 12.1818C75.0241 12.1818 74.382 11.9981 73.8252 11.6307C73.2684 11.2595 72.8328 10.7367 72.5184 10.0625C72.204 9.38447 72.0468 8.58333 72.0468 7.65909C72.0468 6.74242 72.204 5.94697 72.5184 5.27273C72.8328 4.59848 73.2703 4.07765 73.8309 3.71023C74.3915 3.3428 75.0392 3.15909 75.7741 3.15909C76.3423 3.15909 76.7911 3.25379 77.1207 3.44318C77.454 3.62879 77.7078 3.84091 77.882 4.07955C78.0601 4.31439 78.1983 4.50758 78.2968 4.65909H78.4559V3.27273H79.7514V15.2727H78.4105ZM75.9332 10.9773C76.4711 10.9773 76.9256 10.8371 77.2968 10.5568C77.668 10.2727 77.9502 9.88068 78.1434 9.38068C78.3366 8.87689 78.4332 8.29545 78.4332 7.63636C78.4332 6.98485 78.3385 6.41477 78.1491 5.92614C77.9597 5.43371 77.6794 5.05114 77.3082 4.77841C76.937 4.50189 76.4786 4.36364 75.9332 4.36364C75.365 4.36364 74.8915 4.50947 74.5127 4.80114C74.1377 5.08902 73.8555 5.48106 73.6661 5.97727C73.4805 6.4697 73.3877 7.02273 73.3877 7.63636C73.3877 8.25758 73.4824 8.82197 73.6718 9.32955C73.865 9.83333 74.1491 10.2348 74.5241 10.5341C74.9029 10.8295 75.3726 10.9773 75.9332 10.9773ZM87.7059 8.43182V3.27273H89.0468V12H87.7059V10.5227H87.615C87.4105 10.9659 87.0923 11.3428 86.6605 11.6534C86.2286 11.9602 85.6832 12.1136 85.0241 12.1136C84.4786 12.1136 83.9938 11.9943 83.5695 11.7557C83.1453 11.5133 82.812 11.1496 82.5695 10.6648C82.3271 10.1761 82.2059 9.56061 82.2059 8.81818V3.27273H83.5468V8.72727C83.5468 9.36364 83.7248 9.87121 84.0809 10.25C84.4408 10.6288 84.8991 10.8182 85.4559 10.8182C85.7892 10.8182 86.1283 10.733 86.473 10.5625C86.8214 10.392 87.1131 10.1307 87.348 9.77841C87.5866 9.42614 87.7059 8.97727 87.7059 8.43182ZM94.071 12.2045C93.5179 12.2045 93.016 12.1004 92.5653 11.892C92.1145 11.6799 91.7566 11.375 91.4914 10.9773C91.2263 10.5758 91.0937 10.0909 91.0937 9.52273C91.0937 9.02273 91.1922 8.61742 91.3891 8.30682C91.5861 7.99242 91.8494 7.74621 92.1789 7.56818C92.5085 7.39015 92.8721 7.25758 93.2698 7.17045C93.6713 7.07955 94.0748 7.00758 94.4801 6.95455C95.0104 6.88636 95.4403 6.83523 95.7698 6.80114C96.1032 6.76326 96.3456 6.70076 96.4971 6.61364C96.6524 6.52652 96.7301 6.375 96.7301 6.15909V6.11364C96.7301 5.55303 96.5766 5.11742 96.2698 4.80682C95.9668 4.49621 95.5066 4.34091 94.8891 4.34091C94.249 4.34091 93.7471 4.48106 93.3835 4.76136C93.0198 5.04167 92.7641 5.34091 92.6164 5.65909L91.3437 5.20455C91.571 4.67424 91.874 4.26136 92.2528 3.96591C92.6354 3.66667 93.052 3.45833 93.5028 3.34091C93.9573 3.2197 94.4043 3.15909 94.8437 3.15909C95.124 3.15909 95.446 3.19318 95.8096 3.26136C96.177 3.32576 96.5312 3.46023 96.8721 3.66477C97.2168 3.86932 97.5028 4.17803 97.7301 4.59091C97.9573 5.00379 98.071 5.55682 98.071 6.25V12H96.7301V10.8182H96.6619C96.571 11.0076 96.4195 11.2102 96.2073 11.4261C95.9952 11.642 95.713 11.8258 95.3607 11.9773C95.0085 12.1288 94.5785 12.2045 94.071 12.2045ZM94.2755 11C94.8058 11 95.2528 10.8958 95.6164 10.6875C95.9838 10.4792 96.2604 10.2102 96.446 9.88068C96.6354 9.55114 96.7301 9.20455 96.7301 8.84091V7.61364C96.6732 7.68182 96.5482 7.74432 96.3551 7.80114C96.1657 7.85417 95.946 7.90151 95.696 7.94318C95.4498 7.98106 95.2092 8.01515 94.9744 8.04545C94.7433 8.07197 94.5558 8.0947 94.4119 8.11364C94.0634 8.15909 93.7376 8.23295 93.4346 8.33523C93.1354 8.43371 92.8929 8.58333 92.7073 8.78409C92.5255 8.98106 92.4346 9.25 92.4346 9.59091C92.4346 10.0568 92.607 10.4091 92.9516 10.6477C93.3001 10.8826 93.7414 11 94.2755 11ZM101.859 6.75V12H100.518V3.27273H101.814V4.63636H101.928C102.132 4.19318 102.443 3.83712 102.859 3.56818C103.276 3.29545 103.814 3.15909 104.473 3.15909C105.064 3.15909 105.581 3.2803 106.024 3.52273C106.467 3.76136 106.812 4.125 107.058 4.61364C107.304 5.09848 107.428 5.71212 107.428 6.45455V12H106.087V6.54545C106.087 5.85985 105.909 5.32576 105.553 4.94318C105.196 4.55682 104.708 4.36364 104.087 4.36364C103.659 4.36364 103.276 4.45644 102.939 4.64205C102.606 4.82765 102.342 5.09848 102.149 5.45455C101.956 5.81061 101.859 6.24242 101.859 6.75ZM113.673 3.27273V4.40909H109.151V3.27273H113.673ZM110.469 1.18182H111.81V9.5C111.81 9.87879 111.865 10.1629 111.974 10.3523C112.088 10.5379 112.232 10.6629 112.406 10.7273C112.584 10.7879 112.772 10.8182 112.969 10.8182C113.116 10.8182 113.238 10.8106 113.332 10.7955C113.427 10.7765 113.503 10.7614 113.56 10.75L113.832 11.9545C113.741 11.9886 113.615 12.0227 113.452 12.0568C113.289 12.0947 113.082 12.1136 112.832 12.1136C112.454 12.1136 112.082 12.0322 111.719 11.8693C111.359 11.7064 111.06 11.4583 110.821 11.125C110.586 10.7917 110.469 10.3712 110.469 9.86364V1.18182ZM119.142 12.1818C118.354 12.1818 117.663 11.9943 117.068 11.6193C116.477 11.2443 116.015 10.7197 115.682 10.0455C115.352 9.37121 115.187 8.58333 115.187 7.68182C115.187 6.77273 115.352 5.97917 115.682 5.30114C116.015 4.62311 116.477 4.09659 117.068 3.72159C117.663 3.34659 118.354 3.15909 119.142 3.15909C119.93 3.15909 120.619 3.34659 121.21 3.72159C121.805 4.09659 122.267 4.62311 122.597 5.30114C122.93 5.97917 123.097 6.77273 123.097 7.68182C123.097 8.58333 122.93 9.37121 122.597 10.0455C122.267 10.7197 121.805 11.2443 121.21 11.6193C120.619 11.9943 119.93 12.1818 119.142 12.1818ZM119.142 10.9773C119.74 10.9773 120.233 10.8239 120.619 10.517C121.006 10.2102 121.292 9.80682 121.477 9.30682C121.663 8.80682 121.756 8.26515 121.756 7.68182C121.756 7.09848 121.663 6.55492 121.477 6.05114C121.292 5.54735 121.006 5.14015 120.619 4.82955C120.233 4.51894 119.74 4.36364 119.142 4.36364C118.544 4.36364 118.051 4.51894 117.665 4.82955C117.278 5.14015 116.992 5.54735 116.807 6.05114C116.621 6.55492 116.528 7.09848 116.528 7.68182C116.528 8.26515 116.621 8.80682 116.807 9.30682C116.992 9.80682 117.278 10.2102 117.665 10.517C118.051 10.8239 118.544 10.9773 119.142 10.9773ZM3.70449 31.1818C2.97722 31.1818 2.33517 30.9981 1.77835 30.6307C1.22154 30.2595 0.785929 29.7367 0.471535 29.0625C0.157142 28.3845 -5.54323e-05 27.5833 -5.54323e-05 26.6591C-5.54323e-05 25.7424 0.157142 24.947 0.471535 24.2727C0.785929 23.5985 1.22343 23.0777 1.78404 22.7102C2.34464 22.3428 2.99237 22.1591 3.72722 22.1591C4.2954 22.1591 4.74426 22.2538 5.07381 22.4432C5.40714 22.6288 5.66093 22.8409 5.83517 23.0795C6.0132 23.3144 6.15146 23.5076 6.24994 23.6591H6.36358V19.3636H7.70449V31H6.40904V29.6591H6.24994C6.15146 29.8182 6.01131 30.0189 5.82949 30.2614C5.64767 30.5 5.3882 30.714 5.05108 30.9034C4.71396 31.089 4.2651 31.1818 3.70449 31.1818ZM3.88631 29.9773C4.42419 29.9773 4.87873 29.8371 5.24994 29.5568C5.62116 29.2727 5.90335 28.8807 6.09654 28.3807C6.28972 27.8769 6.38631 27.2955 6.38631 26.6364C6.38631 25.9848 6.29161 25.4148 6.10222 24.9261C5.91282 24.4337 5.63252 24.0511 5.26131 23.7784C4.8901 23.5019 4.43176 23.3636 3.88631 23.3636C3.31813 23.3636 2.84464 23.5095 2.46585 23.8011C2.09085 24.089 1.80866 24.4811 1.61926 24.9773C1.43366 25.4697 1.34085 26.0227 1.34085 26.6364C1.34085 27.2576 1.43555 27.822 1.62494 28.3295C1.81813 28.8333 2.10222 29.2348 2.47722 29.5341C2.85601 29.8295 3.3257 29.9773 3.88631 29.9773ZM14.0056 31.1818C13.1647 31.1818 12.4393 30.9962 11.8295 30.625C11.2234 30.25 10.7556 29.7273 10.4261 29.0568C10.1003 28.3826 9.93744 27.5985 9.93744 26.7045C9.93744 25.8106 10.1003 25.0227 10.4261 24.3409C10.7556 23.6553 11.214 23.1212 11.8011 22.7386C12.392 22.3523 13.0814 22.1591 13.8693 22.1591C14.3238 22.1591 14.7727 22.2348 15.2159 22.3864C15.659 22.5379 16.0624 22.7841 16.4261 23.125C16.7897 23.4621 17.0795 23.9091 17.2954 24.4659C17.5113 25.0227 17.6193 25.7083 17.6193 26.5227V27.0909H10.892V25.9318H16.2556C16.2556 25.4394 16.1571 25 15.9602 24.6136C15.767 24.2273 15.4905 23.9223 15.1306 23.6989C14.7746 23.4754 14.3541 23.3636 13.8693 23.3636C13.3352 23.3636 12.8731 23.4962 12.4829 23.7614C12.0965 24.0227 11.7992 24.3636 11.5909 24.7841C11.3825 25.2045 11.2784 25.6553 11.2784 26.1364V26.9091C11.2784 27.5682 11.392 28.1269 11.6193 28.5852C11.8503 29.0398 12.1704 29.3864 12.5795 29.625C12.9886 29.8598 13.464 29.9773 14.0056 29.9773C14.3579 29.9773 14.6761 29.928 14.9602 29.8295C15.2481 29.7273 15.4962 29.5758 15.7045 29.375C15.9128 29.1705 16.0738 28.9167 16.1874 28.6136L17.4829 28.9773C17.3465 29.4167 17.1174 29.803 16.7954 30.1364C16.4734 30.4659 16.0757 30.7235 15.6022 30.9091C15.1287 31.0909 14.5965 31.1818 14.0056 31.1818ZM25.8409 24.2273L24.6363 24.5682C24.5606 24.3674 24.4488 24.1723 24.3011 23.983C24.1571 23.7898 23.9602 23.6307 23.7102 23.5057C23.4602 23.3807 23.1401 23.3182 22.7499 23.3182C22.2159 23.3182 21.7708 23.4413 21.4147 23.6875C21.0624 23.9299 20.8863 24.2386 20.8863 24.6136C20.8863 24.947 21.0075 25.2102 21.2499 25.4034C21.4924 25.5966 21.8712 25.7576 22.3863 25.8864L23.6818 26.2045C24.4621 26.3939 25.0435 26.6837 25.4261 27.0739C25.8087 27.4602 25.9999 27.9583 25.9999 28.5682C25.9999 29.0682 25.856 29.5152 25.5681 29.9091C25.284 30.303 24.8863 30.6136 24.3749 30.8409C23.8636 31.0682 23.2689 31.1818 22.5909 31.1818C21.7007 31.1818 20.964 30.9886 20.3806 30.6023C19.7973 30.2159 19.428 29.6515 19.2727 28.9091L20.5454 28.5909C20.6666 29.0606 20.8958 29.4129 21.2329 29.6477C21.5738 29.8826 22.0189 30 22.5681 30C23.1931 30 23.6893 29.8674 24.0568 29.6023C24.428 29.3333 24.6136 29.0114 24.6136 28.6364C24.6136 28.3333 24.5075 28.0795 24.2954 27.875C24.0833 27.6667 23.7575 27.5114 23.3181 27.4091L21.8636 27.0682C21.0643 26.8788 20.4772 26.5852 20.1022 26.1875C19.731 25.786 19.5454 25.2841 19.5454 24.6818C19.5454 24.1894 19.6837 23.7538 19.9602 23.375C20.2405 22.9962 20.6212 22.6989 21.1022 22.483C21.5871 22.267 22.1363 22.1591 22.7499 22.1591C23.6136 22.1591 24.2916 22.3485 24.784 22.7273C25.2802 23.1061 25.6325 23.6061 25.8409 24.2273ZM31.6775 31.1818C30.8366 31.1818 30.1112 30.9962 29.5014 30.625C28.8953 30.25 28.4275 29.7273 28.098 29.0568C27.7722 28.3826 27.6093 27.5985 27.6093 26.7045C27.6093 25.8106 27.7722 25.0227 28.098 24.3409C28.4275 23.6553 28.8858 23.1212 29.473 22.7386C30.0639 22.3523 30.7533 22.1591 31.5411 22.1591C31.9957 22.1591 32.4445 22.2348 32.8877 22.3864C33.3309 22.5379 33.7343 22.7841 34.098 23.125C34.4616 23.4621 34.7514 23.9091 34.9673 24.4659C35.1832 25.0227 35.2911 25.7083 35.2911 26.5227V27.0909H28.5639V25.9318H33.9275C33.9275 25.4394 33.829 25 33.632 24.6136C33.4389 24.2273 33.1624 23.9223 32.8025 23.6989C32.4464 23.4754 32.026 23.3636 31.5411 23.3636C31.007 23.3636 30.5449 23.4962 30.1548 23.7614C29.7684 24.0227 29.4711 24.3636 29.2627 24.7841C29.0544 25.2045 28.9502 25.6553 28.9502 26.1364V26.9091C28.9502 27.5682 29.0639 28.1269 29.2911 28.5852C29.5222 29.0398 29.8423 29.3864 30.2514 29.625C30.6605 29.8598 31.1358 29.9773 31.6775 29.9773C32.0298 29.9773 32.348 29.928 32.632 29.8295C32.9199 29.7273 33.168 29.5758 33.3764 29.375C33.5847 29.1705 33.7457 28.9167 33.8593 28.6136L35.1548 28.9773C35.0184 29.4167 34.7892 29.803 34.4673 30.1364C34.1453 30.4659 33.7476 30.7235 33.2741 30.9091C32.8006 31.0909 32.2684 31.1818 31.6775 31.1818ZM37.3309 22.2727H38.6718V31.6364C38.6718 32.1742 38.579 32.6402 38.3934 33.0341C38.2116 33.428 37.9351 33.733 37.5639 33.9489C37.1964 34.1648 36.7324 34.2727 36.1718 34.2727C36.1264 34.2727 36.0809 34.2727 36.0355 34.2727C35.99 34.2727 35.9445 34.2727 35.8991 34.2727V33.0227C35.9445 33.0227 35.9862 33.0227 36.0241 33.0227C36.062 33.0227 36.1036 33.0227 36.1491 33.0227C36.5582 33.0227 36.8574 32.9015 37.0468 32.6591C37.2362 32.4205 37.3309 32.0795 37.3309 31.6364V22.2727ZM37.99 20.8182C37.7286 20.8182 37.5033 20.7292 37.3139 20.5511C37.1283 20.3731 37.0355 20.1591 37.0355 19.9091C37.0355 19.6591 37.1283 19.4451 37.3139 19.267C37.5033 19.089 37.7286 19 37.99 19C38.2514 19 38.4748 19.089 38.6605 19.267C38.8498 19.4451 38.9445 19.6591 38.9445 19.9091C38.9445 20.1591 38.8498 20.3731 38.6605 20.5511C38.4748 20.7292 38.2514 20.8182 37.99 20.8182ZM43.696 31.2045C43.1429 31.2045 42.641 31.1004 42.1903 30.892C41.7395 30.6799 41.3816 30.375 41.1164 29.9773C40.8513 29.5758 40.7187 29.0909 40.7187 28.5227C40.7187 28.0227 40.8172 27.6174 41.0141 27.3068C41.2111 26.9924 41.4744 26.7462 41.8039 26.5682C42.1335 26.3902 42.4971 26.2576 42.8948 26.1705C43.2963 26.0795 43.6998 26.0076 44.1051 25.9545C44.6354 25.8864 45.0653 25.8352 45.3948 25.8011C45.7282 25.7633 45.9706 25.7008 46.1221 25.6136C46.2774 25.5265 46.3551 25.375 46.3551 25.1591V25.1136C46.3551 24.553 46.2016 24.1174 45.8948 23.8068C45.5918 23.4962 45.1316 23.3409 44.5141 23.3409C43.874 23.3409 43.3721 23.4811 43.0085 23.7614C42.6448 24.0417 42.3891 24.3409 42.2414 24.6591L40.9687 24.2045C41.196 23.6742 41.499 23.2614 41.8778 22.9659C42.2604 22.6667 42.677 22.4583 43.1278 22.3409C43.5823 22.2197 44.0293 22.1591 44.4687 22.1591C44.749 22.1591 45.071 22.1932 45.4346 22.2614C45.802 22.3258 46.1562 22.4602 46.4971 22.6648C46.8418 22.8693 47.1278 23.178 47.3551 23.5909C47.5823 24.0038 47.696 24.5568 47.696 25.25V31H46.3551V29.8182H46.2869C46.196 30.0076 46.0445 30.2102 45.8323 30.4261C45.6202 30.642 45.338 30.8258 44.9857 30.9773C44.6335 31.1288 44.2035 31.2045 43.696 31.2045ZM43.9005 30C44.4308 30 44.8778 29.8958 45.2414 29.6875C45.6088 29.4792 45.8854 29.2102 46.071 28.8807C46.2604 28.5511 46.3551 28.2045 46.3551 27.8409V26.6136C46.2982 26.6818 46.1732 26.7443 45.9801 26.8011C45.7907 26.8542 45.571 26.9015 45.321 26.9432C45.0748 26.9811 44.8342 27.0152 44.5994 27.0455C44.3683 27.072 44.1808 27.0947 44.0369 27.1136C43.6884 27.1591 43.3626 27.233 43.0596 27.3352C42.7604 27.4337 42.5179 27.5833 42.3323 27.7841C42.1505 27.9811 42.0596 28.25 42.0596 28.5909C42.0596 29.0568 42.232 29.4091 42.5766 29.6477C42.9251 29.8826 43.3664 30 43.9005 30ZM58.1661 34.4545C57.5184 34.4545 56.9616 34.3712 56.4957 34.2045C56.0298 34.0417 55.6415 33.8258 55.3309 33.5568C55.0241 33.2917 54.7798 33.0076 54.598 32.7045L55.6661 31.9545C55.7873 32.1136 55.9408 32.2955 56.1264 32.5C56.312 32.7083 56.5658 32.8883 56.8877 33.0398C57.2135 33.1951 57.6396 33.2727 58.1661 33.2727C58.8707 33.2727 59.4521 33.1023 59.9105 32.7614C60.3688 32.4205 60.598 31.8864 60.598 31.1591V29.3864H60.4843C60.3858 29.5455 60.2457 29.7424 60.0639 29.9773C59.8858 30.2083 59.6283 30.4148 59.2911 30.5966C58.9578 30.7746 58.507 30.8636 57.9389 30.8636C57.2343 30.8636 56.6017 30.697 56.0411 30.3636C55.4843 30.0303 55.043 29.5455 54.7173 28.9091C54.3953 28.2727 54.2343 27.5 54.2343 26.5909C54.2343 25.697 54.3915 24.9186 54.7059 24.2557C55.0203 23.589 55.4578 23.0739 56.0184 22.7102C56.579 22.3428 57.2267 22.1591 57.9616 22.1591C58.5298 22.1591 58.9805 22.2538 59.3139 22.4432C59.651 22.6288 59.9086 22.8409 60.0866 23.0795C60.2684 23.3144 60.4086 23.5076 60.507 23.6591H60.6434V22.2727H61.9389V31.25C61.9389 32 61.7684 32.6098 61.4275 33.0795C61.0904 33.553 60.6358 33.8996 60.0639 34.1193C59.4957 34.3428 58.8631 34.4545 58.1661 34.4545ZM58.1207 29.6591C58.6586 29.6591 59.1131 29.536 59.4843 29.2898C59.8555 29.0436 60.1377 28.6894 60.3309 28.2273C60.5241 27.7652 60.6207 27.2121 60.6207 26.5682C60.6207 25.9394 60.526 25.3845 60.3366 24.9034C60.1472 24.4223 59.8669 24.0455 59.4957 23.7727C59.1245 23.5 58.6661 23.3636 58.1207 23.3636C57.5525 23.3636 57.079 23.5076 56.7002 23.7955C56.3252 24.0833 56.043 24.4697 55.8536 24.9545C55.668 25.4394 55.5752 25.9773 55.5752 26.5682C55.5752 27.1742 55.6699 27.7102 55.8593 28.1761C56.0525 28.6383 56.3366 29.0019 56.7116 29.267C57.0904 29.5284 57.5601 29.6591 58.1207 29.6591ZM66.9616 31.2045C66.4086 31.2045 65.9067 31.1004 65.4559 30.892C65.0052 30.6799 64.6472 30.375 64.382 29.9773C64.1169 29.5758 63.9843 29.0909 63.9843 28.5227C63.9843 28.0227 64.0828 27.6174 64.2798 27.3068C64.4767 26.9924 64.74 26.7462 65.0695 26.5682C65.3991 26.3902 65.7627 26.2576 66.1605 26.1705C66.562 26.0795 66.9654 26.0076 67.3707 25.9545C67.901 25.8864 68.3309 25.8352 68.6605 25.8011C68.9938 25.7633 69.2362 25.7008 69.3877 25.6136C69.543 25.5265 69.6207 25.375 69.6207 25.1591V25.1136C69.6207 24.553 69.4673 24.1174 69.1605 23.8068C68.8574 23.4962 68.3972 23.3409 67.7798 23.3409C67.1396 23.3409 66.6377 23.4811 66.2741 23.7614C65.9105 24.0417 65.6548 24.3409 65.507 24.6591L64.2343 24.2045C64.4616 23.6742 64.7646 23.2614 65.1434 22.9659C65.526 22.6667 65.9427 22.4583 66.3934 22.3409C66.848 22.2197 67.2949 22.1591 67.7343 22.1591C68.0146 22.1591 68.3366 22.1932 68.7002 22.2614C69.0677 22.3258 69.4218 22.4602 69.7627 22.6648C70.1074 22.8693 70.3934 23.178 70.6207 23.5909C70.848 24.0038 70.9616 24.5568 70.9616 25.25V31H69.6207V29.8182H69.5525C69.4616 30.0076 69.3101 30.2102 69.098 30.4261C68.8858 30.642 68.6036 30.8258 68.2514 30.9773C67.8991 31.1288 67.4692 31.2045 66.9616 31.2045ZM67.1661 30C67.6964 30 68.1434 29.8958 68.507 29.6875C68.8745 29.4792 69.151 29.2102 69.3366 28.8807C69.526 28.5511 69.6207 28.2045 69.6207 27.8409V26.6136C69.5639 26.6818 69.4389 26.7443 69.2457 26.8011C69.0563 26.8542 68.8366 26.9015 68.5866 26.9432C68.3404 26.9811 68.0999 27.0152 67.865 27.0455C67.6339 27.072 67.4464 27.0947 67.3025 27.1136C66.954 27.1591 66.6283 27.233 66.3252 27.3352C66.026 27.4337 65.7836 27.5833 65.598 27.7841C65.4161 27.9811 65.3252 28.25 65.3252 28.5909C65.3252 29.0568 65.4976 29.4091 65.8423 29.6477C66.1908 29.8826 66.632 30 67.1661 30ZM79.5909 24.2273L78.3863 24.5682C78.3106 24.3674 78.1988 24.1723 78.0511 23.983C77.9071 23.7898 77.7102 23.6307 77.4602 23.5057C77.2102 23.3807 76.8901 23.3182 76.4999 23.3182C75.9659 23.3182 75.5208 23.4413 75.1647 23.6875C74.8124 23.9299 74.6363 24.2386 74.6363 24.6136C74.6363 24.947 74.7575 25.2102 74.9999 25.4034C75.2424 25.5966 75.6212 25.7576 76.1363 25.8864L77.4318 26.2045C78.2121 26.3939 78.7935 26.6837 79.1761 27.0739C79.5587 27.4602 79.7499 27.9583 79.7499 28.5682C79.7499 29.0682 79.606 29.5152 79.3181 29.9091C79.034 30.303 78.6363 30.6136 78.1249 30.8409C77.6136 31.0682 77.0189 31.1818 76.3409 31.1818C75.4507 31.1818 74.714 30.9886 74.1306 30.6023C73.5473 30.2159 73.178 29.6515 73.0227 28.9091L74.2954 28.5909C74.4166 29.0606 74.6458 29.4129 74.9829 29.6477C75.3238 29.8826 75.7689 30 76.3181 30C76.9431 30 77.4393 29.8674 77.8068 29.6023C78.178 29.3333 78.3636 29.0114 78.3636 28.6364C78.3636 28.3333 78.2575 28.0795 78.0454 27.875C77.8333 27.6667 77.5075 27.5114 77.0681 27.4091L75.6136 27.0682C74.8143 26.8788 74.2272 26.5852 73.8522 26.1875C73.481 25.786 73.2954 25.2841 73.2954 24.6818C73.2954 24.1894 73.4337 23.7538 73.7102 23.375C73.9905 22.9962 74.3712 22.6989 74.8522 22.483C75.3371 22.267 75.8863 22.1591 76.4999 22.1591C77.3636 22.1591 78.0416 22.3485 78.534 22.7273C79.0302 23.1061 79.3825 23.6061 79.5909 24.2273ZM85.5639 22.2727V23.4091H81.0411V22.2727H85.5639ZM82.3593 20.1818H83.7002V28.5C83.7002 28.8788 83.7552 29.1629 83.865 29.3523C83.9786 29.5379 84.1226 29.6629 84.2968 29.7273C84.4749 29.7879 84.6624 29.8182 84.8593 29.8182C85.007 29.8182 85.1283 29.8106 85.223 29.7955C85.3177 29.7765 85.3934 29.7614 85.4502 29.75L85.723 30.9545C85.632 30.9886 85.5052 31.0227 85.3423 31.0568C85.1794 31.0947 84.973 31.1136 84.723 31.1136C84.3442 31.1136 83.973 31.0322 83.6093 30.8693C83.2495 30.7064 82.9502 30.4583 82.7116 30.125C82.4767 29.7917 82.3593 29.3712 82.3593 28.8636V20.1818ZM90.1491 31.2045C89.5961 31.2045 89.0942 31.1004 88.6434 30.892C88.1927 30.6799 87.8347 30.375 87.5695 29.9773C87.3044 29.5758 87.1718 29.0909 87.1718 28.5227C87.1718 28.0227 87.2703 27.6174 87.4673 27.3068C87.6642 26.9924 87.9275 26.7462 88.257 26.5682C88.5866 26.3902 88.9502 26.2576 89.348 26.1705C89.7495 26.0795 90.1529 26.0076 90.5582 25.9545C91.0885 25.8864 91.5184 25.8352 91.848 25.8011C92.1813 25.7633 92.4237 25.7008 92.5752 25.6136C92.7305 25.5265 92.8082 25.375 92.8082 25.1591V25.1136C92.8082 24.553 92.6548 24.1174 92.348 23.8068C92.0449 23.4962 91.5847 23.3409 90.9673 23.3409C90.3271 23.3409 89.8252 23.4811 89.4616 23.7614C89.098 24.0417 88.8423 24.3409 88.6945 24.6591L87.4218 24.2045C87.6491 23.6742 87.9521 23.2614 88.3309 22.9659C88.7135 22.6667 89.1302 22.4583 89.5809 22.3409C90.0355 22.2197 90.4824 22.1591 90.9218 22.1591C91.2021 22.1591 91.5241 22.1932 91.8877 22.2614C92.2552 22.3258 92.6093 22.4602 92.9502 22.6648C93.2949 22.8693 93.5809 23.178 93.8082 23.5909C94.0355 24.0038 94.1491 24.5568 94.1491 25.25V31H92.8082V29.8182H92.74C92.6491 30.0076 92.4976 30.2102 92.2855 30.4261C92.0733 30.642 91.7911 30.8258 91.4389 30.9773C91.0866 31.1288 90.6567 31.2045 90.1491 31.2045ZM90.3536 30C90.8839 30 91.3309 29.8958 91.6945 29.6875C92.062 29.4792 92.3385 29.2102 92.5241 28.8807C92.7135 28.5511 92.8082 28.2045 92.8082 27.8409V26.6136C92.7514 26.6818 92.6264 26.7443 92.4332 26.8011C92.2438 26.8542 92.0241 26.9015 91.7741 26.9432C91.5279 26.9811 91.2874 27.0152 91.0525 27.0455C90.8214 27.072 90.6339 27.0947 90.49 27.1136C90.1415 27.1591 89.8158 27.233 89.5127 27.3352C89.2135 27.4337 88.9711 27.5833 88.7855 27.7841C88.6036 27.9811 88.5127 28.25 88.5127 28.5909C88.5127 29.0568 88.6851 29.4091 89.0298 29.6477C89.3783 29.8826 89.8195 30 90.3536 30ZM96.5965 31V22.2727H97.892V23.5909H97.9829C98.142 23.1591 98.4299 22.8087 98.8465 22.5398C99.2632 22.2708 99.7329 22.1364 100.256 22.1364C100.354 22.1364 100.477 22.1383 100.625 22.142C100.773 22.1458 100.884 22.1515 100.96 22.1591V23.5227C100.915 23.5114 100.811 23.4943 100.648 23.4716C100.489 23.4451 100.32 23.4318 100.142 23.4318C99.7177 23.4318 99.339 23.5208 99.0056 23.6989C98.6761 23.8731 98.4147 24.1155 98.2215 24.4261C98.0321 24.733 97.9374 25.0833 97.9374 25.4773V31H96.5965ZM102.527 31.0909C102.247 31.0909 102.006 30.9905 101.805 30.7898C101.605 30.589 101.504 30.3485 101.504 30.0682C101.504 29.7879 101.605 29.5473 101.805 29.3466C102.006 29.1458 102.247 29.0455 102.527 29.0455C102.807 29.0455 103.048 29.1458 103.249 29.3466C103.449 29.5473 103.55 29.7879 103.55 30.0682C103.55 30.2538 103.502 30.4242 103.408 30.5795C103.317 30.7348 103.194 30.8598 103.038 30.9545C102.887 31.0455 102.716 31.0909 102.527 31.0909Z" fill="black"/>
</svg>
