<svg width="546" height="342" viewBox="0 0 546 342" fill="none" xmlns="http://www.w3.org/2000/svg">
<path d="M20.02 55.65C18.9467 55.65 17.7333 55.58 16.38 55.44C15.0267 55.3 13.3 55.16 11.2 55.02C9.1 54.9267 6.34667 54.88 2.94 54.88C1.91334 53.5733 1.4 52.08 1.4 50.4C2.94 50.4 4.03667 50.1433 4.69 49.63C5.39 49.07 5.74 48.1367 5.74 46.83V13.93C5.74 12.67 5.39 11.7833 4.69 11.27C4.03667 10.71 2.94 10.43 1.4 10.43C1.4 8.65667 1.91334 7.18667 2.94 6.02C7.56 6.02 11.4567 5.88 14.63 5.6C17.85 5.32 19.9733 5.18 21 5.18C25.06 5.18 28.56 5.83334 31.5 7.14C34.44 8.4 36.8667 10.15 38.78 12.39C40.6933 14.5833 42.1167 17.15 43.05 20.09C43.9833 22.9833 44.45 26.0867 44.45 29.4C44.45 32.9933 43.9833 36.3767 43.05 39.55C42.1167 42.7233 40.6467 45.5233 38.64 47.95C36.68 50.33 34.16 52.22 31.08 53.62C28 54.9733 24.3133 55.65 20.02 55.65ZM19.46 49.84C22.0267 49.84 24.2433 49.21 26.11 47.95C27.9767 46.69 29.4233 44.6367 30.45 41.79C31.4767 38.9433 31.99 35.1633 31.99 30.45C31.99 23.6367 30.8 18.6667 28.42 15.54C26.04 12.3667 22.8667 10.78 18.9 10.78C18.5733 10.78 18.27 10.78 17.99 10.78C17.71 10.78 17.4533 10.8267 17.22 10.92V49.7C17.5933 49.7467 17.9667 49.7933 18.34 49.84C18.76 49.84 19.1333 49.84 19.46 49.84ZM65.5178 55.51C60.2911 55.51 56.1145 53.8533 52.9878 50.54C49.9078 47.2267 48.3678 42.6067 48.3678 36.68C48.3678 32.62 49.1378 29.12 50.6778 26.18C52.2178 23.1933 54.2945 20.9067 56.9078 19.32C59.5678 17.7333 62.5778 16.94 65.9378 16.94C70.1378 16.94 73.4978 18.1767 76.0178 20.65C78.5845 23.0767 79.8678 26.5067 79.8678 30.94C79.8678 32.7133 79.5645 34.2767 78.9578 35.63C78.3978 36.9367 77.2078 37.59 75.3878 37.59H60.2678C60.4078 41.2767 61.2478 43.89 62.7878 45.43C64.3745 46.97 66.4278 47.74 68.9478 47.74C70.5345 47.74 72.0045 47.5067 73.3578 47.04C74.7111 46.5267 75.9711 45.8267 77.1378 44.94C77.5578 45.3133 77.8845 45.8967 78.1178 46.69C78.3978 47.4367 78.5378 48.0667 78.5378 48.58C78.5378 49.3267 78.0011 50.26 76.9278 51.38C75.9011 52.4533 74.4078 53.41 72.4478 54.25C70.5345 55.09 68.2245 55.51 65.5178 55.51ZM60.2678 32.27H67.3378C68.1311 32.27 68.6211 31.9667 68.8078 31.36C69.0411 30.7533 69.1578 30.0067 69.1578 29.12C69.1578 26.1333 68.7845 24.1733 68.0378 23.24C67.3378 22.26 66.4978 21.77 65.5178 21.77C64.7245 21.77 63.9311 22.0733 63.1378 22.68C62.3445 23.2867 61.6911 24.36 61.1778 25.9C60.6645 27.3933 60.3611 29.5167 60.2678 32.27ZM97.8496 55.58C96.1696 55.58 94.4663 55.3933 92.7396 55.02C91.0596 54.6467 89.4963 54.11 88.0496 53.41C86.6496 52.71 85.5063 51.8467 84.6196 50.82C83.7329 49.7467 83.2896 48.5333 83.2896 47.18C83.2896 45.5467 83.7563 44.24 84.6896 43.26C85.6229 42.2333 86.8129 41.72 88.2596 41.72C89.5663 41.72 90.6629 42.14 91.5496 42.98C92.4829 43.82 92.9496 44.9167 92.9496 46.27C92.9496 46.8767 92.8563 47.4133 92.6696 47.88C92.4829 48.3 92.2029 48.7667 91.8296 49.28C92.2496 49.7 92.9963 50.0033 94.0696 50.19C95.1429 50.3767 96.1929 50.47 97.2196 50.47C98.8529 50.47 100.113 50.1667 101 49.56C101.886 48.9533 102.33 48.2067 102.33 47.32C102.33 45.92 101.583 44.73 100.09 43.75C98.5963 42.7233 96.8929 41.6967 94.9796 40.67C93.2529 39.7367 91.5263 38.7567 89.7996 37.73C88.1196 36.6567 86.6963 35.3267 85.5296 33.74C84.4096 32.1533 83.8496 30.1467 83.8496 27.72C83.8496 24.64 85.1329 22.0967 87.6996 20.09C90.2663 18.0833 93.9063 17.08 98.6196 17.08C101.886 17.08 104.5 17.5 106.46 18.34C108.42 19.1333 109.843 20.16 110.73 21.42C111.616 22.6333 112.06 23.9167 112.06 25.27C112.06 26.7167 111.593 27.8833 110.66 28.77C109.773 29.61 108.676 30.03 107.37 30.03C106.203 30.03 105.176 29.68 104.29 28.98C103.403 28.2333 102.96 27.2767 102.96 26.11C102.96 25.55 103.053 24.9433 103.24 24.29C103.426 23.6367 103.683 23.1 104.01 22.68C103.496 22.26 102.89 21.98 102.19 21.84C101.536 21.6533 100.743 21.56 99.8096 21.56C98.2696 21.56 97.0796 21.9333 96.2396 22.68C95.4463 23.38 95.0496 24.2433 95.0496 25.27C95.0496 26.8567 95.7963 28.1633 97.2896 29.19C98.8296 30.2167 100.533 31.22 102.4 32.2C104.126 33.0867 105.806 34.0433 107.44 35.07C109.12 36.0967 110.52 37.38 111.64 38.92C112.76 40.46 113.32 42.4433 113.32 44.87C113.32 47.4833 112.573 49.5833 111.08 51.17C109.586 52.71 107.65 53.83 105.27 54.53C102.936 55.23 100.463 55.58 97.8496 55.58ZM134.222 55.93C130.816 55.93 127.806 55.16 125.192 53.62C122.626 52.08 120.596 49.8867 119.102 47.04C117.656 44.1467 116.932 40.6933 116.932 36.68C116.932 32.5267 117.726 28.98 119.312 26.04C120.899 23.0533 123.069 20.79 125.822 19.25C128.576 17.6633 131.679 16.87 135.132 16.87C138.726 16.87 141.456 17.7333 143.322 19.46C145.189 21.14 146.122 23.2167 146.122 25.69C146.122 27.93 145.562 29.6567 144.442 30.87C143.322 32.0833 141.876 32.69 140.102 32.69C138.656 32.69 137.442 32.1533 136.462 31.08C135.482 30.0067 134.992 28.7 134.992 27.16C134.992 26.04 135.179 25.13 135.552 24.43C135.972 23.73 136.486 23.1467 137.092 22.68C136.626 22.4 136.229 22.2367 135.902 22.19C135.622 22.0967 135.342 22.05 135.062 22.05C134.176 22.05 133.266 22.4 132.332 23.1C131.399 23.8 130.606 25.0367 129.952 26.81C129.346 28.5833 129.042 31.0567 129.042 34.23C129.042 39.3633 129.789 42.98 131.282 45.08C132.776 47.1333 134.876 48.16 137.582 48.16C138.842 48.16 140.102 47.9733 141.362 47.6C142.669 47.2267 143.766 46.69 144.652 45.99C145.026 46.4567 145.329 47.04 145.562 47.74C145.842 48.3933 145.982 48.9767 145.982 49.49C145.982 50.47 145.446 51.4733 144.372 52.5C143.346 53.48 141.946 54.2967 140.172 54.95C138.399 55.6033 136.416 55.93 134.222 55.93ZM162.561 55.37C159.295 55.37 156.751 54.3667 154.931 52.36C153.111 50.3533 152.201 47.6467 152.201 44.24V24.99C152.201 24.1967 151.898 23.6367 151.291 23.31C150.685 22.9833 149.845 22.82 148.771 22.82V19.74C149.378 19.2267 150.638 18.69 152.551 18.13C154.511 17.5233 156.705 17.22 159.131 17.22C160.951 17.22 162.141 17.43 162.701 17.85C163.308 18.27 163.611 19.2967 163.611 20.93V44.45C163.611 45.85 163.845 46.9233 164.311 47.67C164.778 48.4167 165.595 48.79 166.761 48.79C167.741 48.79 168.675 48.4867 169.561 47.88C170.495 47.2733 171.265 46.5733 171.871 45.78V24.99C171.871 24.1967 171.521 23.6367 170.821 23.31C170.121 22.9833 169.165 22.82 167.951 22.82V19.74C168.605 19.2267 169.888 18.69 171.801 18.13C173.715 17.5233 175.978 17.22 178.591 17.22C180.411 17.22 181.648 17.43 182.301 17.85C182.955 18.27 183.281 19.2967 183.281 20.93V46.69C183.281 47.81 183.561 48.7433 184.121 49.49C184.728 50.2367 185.568 50.6567 186.641 50.75V52.71C185.895 53.5967 184.705 54.2733 183.071 54.74C181.485 55.16 179.945 55.37 178.451 55.37C176.911 55.37 175.558 54.9733 174.391 54.18C173.271 53.34 172.525 52.15 172.151 50.61C169.865 53.7833 166.668 55.37 162.561 55.37ZM205.918 55.65C204.565 55.65 203.001 55.5567 201.228 55.37C199.455 55.1833 197.728 54.9267 196.048 54.6C194.368 54.2267 192.968 53.76 191.848 53.2V9.66C191.848 8.58667 191.521 7.74667 190.868 7.14C190.215 6.53333 189.118 6.23 187.578 6.23V3.99C188.651 3.24334 189.935 2.59 191.428 2.03C192.921 1.42334 194.415 0.933337 195.908 0.560003C197.448 0.186669 198.708 2.14577e-06 199.688 2.14577e-06C200.808 2.14577e-06 201.601 0.256668 202.068 0.770001C202.535 1.23667 202.768 2.05334 202.768 3.22V13.16L202.558 19.81C203.491 18.83 204.611 18.13 205.918 17.71C207.225 17.29 208.671 17.08 210.258 17.08C212.825 17.08 215.228 17.7333 217.468 19.04C219.708 20.3467 221.528 22.33 222.928 24.99C224.328 27.6033 225.028 30.9633 225.028 35.07C225.028 39.55 224.165 43.33 222.438 46.41C220.711 49.4433 218.401 51.7533 215.508 53.34C212.615 54.88 209.418 55.65 205.918 55.65ZM206.128 50.54C207.388 50.54 208.531 50.1433 209.558 49.35C210.631 48.51 211.471 47.1333 212.078 45.22C212.685 43.3067 212.988 40.7167 212.988 37.45C212.988 32.3167 212.265 28.63 210.818 26.39C209.371 24.15 207.575 23.03 205.428 23.03C204.401 23.03 203.515 23.2867 202.768 23.8V49.21C203.655 50.0967 204.775 50.54 206.128 50.54ZM230.512 54.88C229.998 54.3667 229.602 53.8067 229.322 53.2C229.042 52.5933 228.902 51.8933 228.902 51.1C230.255 51.1 231.212 50.82 231.772 50.26C232.378 49.6533 232.682 48.65 232.682 47.25V27.02C232.682 25.8067 232.355 24.9433 231.702 24.43C231.048 23.87 229.835 23.59 228.062 23.59V20.44C229.182 19.7867 230.512 19.2267 232.052 18.76C233.592 18.2467 235.108 17.85 236.602 17.57C238.095 17.2433 239.262 17.08 240.102 17.08C241.175 17.08 241.945 17.4533 242.412 18.2C242.925 18.9467 243.182 20.5567 243.182 23.03C243.695 22.05 244.442 21.0933 245.422 20.16C246.448 19.18 247.592 18.3867 248.852 17.78C250.112 17.1733 251.418 16.87 252.772 16.87C254.965 16.87 256.528 17.43 257.462 18.55C258.395 19.67 258.862 21.1167 258.862 22.89C258.862 24.8967 258.348 26.53 257.322 27.79C256.295 29.05 254.872 29.68 253.052 29.68C251.465 29.68 250.205 29.2367 249.272 28.35C248.338 27.4167 247.872 26.3667 247.872 25.2C247.872 24.4533 247.942 23.87 248.082 23.45C247.335 23.6367 246.612 23.8933 245.912 24.22C245.212 24.5 244.512 24.9667 243.812 25.62V46.62C243.812 47.6933 243.975 48.5567 244.302 49.21C244.628 49.8633 245.258 50.3533 246.192 50.68C247.172 50.96 248.618 51.1 250.532 51.1C250.532 51.8933 250.438 52.5933 250.252 53.2C250.065 53.8067 249.715 54.3667 249.202 54.88H230.512ZM271.005 55.37C267.505 55.37 264.658 54.4133 262.465 52.5C260.318 50.54 259.245 48.0433 259.245 45.01C259.245 41.9767 260.225 39.5267 262.185 37.66C264.192 35.7933 267.272 34.86 271.425 34.86C272.778 34.86 274.202 35 275.695 35.28C277.188 35.5133 278.402 35.8867 279.335 36.4V27.09C279.335 25.13 278.822 23.7767 277.795 23.03C276.815 22.2367 275.602 21.84 274.155 21.84C272.615 21.84 271.355 22.2133 270.375 22.96C271.308 23.2867 271.985 23.8 272.405 24.5C272.825 25.1533 273.035 25.8767 273.035 26.67C273.035 28.21 272.475 29.4467 271.355 30.38C270.282 31.2667 268.952 31.71 267.365 31.71C265.592 31.71 264.168 31.1967 263.095 30.17C262.022 29.0967 261.485 27.7667 261.485 26.18C261.485 24.5933 262.022 23.1 263.095 21.7C264.168 20.2533 265.825 19.0633 268.065 18.13C270.352 17.1967 273.292 16.73 276.885 16.73C286.265 16.73 290.955 20.44 290.955 27.86V46.41C290.955 48.65 292.028 50.0033 294.175 50.47V52.71C293.568 53.5967 292.542 54.2733 291.095 54.74C289.648 55.16 288.248 55.37 286.895 55.37C283.722 55.37 281.482 54.2733 280.175 52.08C279.242 52.92 278.005 53.69 276.465 54.39C274.925 55.0433 273.105 55.37 271.005 55.37ZM275.555 49.7C276.208 49.7 276.885 49.6067 277.585 49.42C278.285 49.1867 278.868 48.9067 279.335 48.58V41.79C278.868 41.4633 278.262 41.1833 277.515 40.95C276.815 40.7167 276.115 40.6 275.415 40.6C274.202 40.6 273.152 40.9967 272.265 41.79C271.378 42.5367 270.935 43.7267 270.935 45.36C270.935 46.62 271.355 47.67 272.195 48.51C273.035 49.3033 274.155 49.7 275.555 49.7ZM327.603 55.79C324.289 55.79 321.349 55.09 318.783 53.69C316.216 52.2433 314.209 50.1433 312.763 47.39C311.363 44.59 310.663 41.1367 310.663 37.03C310.663 32.6433 311.409 28.9567 312.903 25.97C314.396 22.9833 316.473 20.72 319.133 19.18C321.793 17.64 324.849 16.87 328.303 16.87C331.663 16.87 334.603 17.5933 337.123 19.04C339.689 20.4867 341.673 22.6333 343.073 25.48C344.519 28.28 345.243 31.7567 345.243 35.91C345.243 40.25 344.496 43.9133 343.003 46.9C341.509 49.84 339.433 52.0567 336.773 53.55C334.113 55.0433 331.056 55.79 327.603 55.79ZM328.163 50.75C329.143 50.75 329.983 50.4 330.683 49.7C331.429 49 331.989 47.7167 332.363 45.85C332.783 43.9367 332.993 41.1833 332.993 37.59C332.993 33.2033 332.783 29.89 332.363 27.65C331.943 25.3633 331.336 23.8233 330.543 23.03C329.749 22.2367 328.816 21.84 327.743 21.84C326.763 21.84 325.899 22.19 325.153 22.89C324.406 23.59 323.823 24.8967 323.403 26.81C323.029 28.7233 322.843 31.5 322.843 35.14C322.843 39.48 323.053 42.77 323.473 45.01C323.939 47.25 324.569 48.7667 325.363 49.56C326.156 50.3533 327.089 50.75 328.163 50.75ZM363.631 55.58C361.951 55.58 360.248 55.3933 358.521 55.02C356.841 54.6467 355.278 54.11 353.831 53.41C352.431 52.71 351.288 51.8467 350.401 50.82C349.514 49.7467 349.071 48.5333 349.071 47.18C349.071 45.5467 349.538 44.24 350.471 43.26C351.404 42.2333 352.594 41.72 354.041 41.72C355.348 41.72 356.444 42.14 357.331 42.98C358.264 43.82 358.731 44.9167 358.731 46.27C358.731 46.8767 358.638 47.4133 358.451 47.88C358.264 48.3 357.984 48.7667 357.611 49.28C358.031 49.7 358.778 50.0033 359.851 50.19C360.924 50.3767 361.974 50.47 363.001 50.47C364.634 50.47 365.894 50.1667 366.781 49.56C367.668 48.9533 368.111 48.2067 368.111 47.32C368.111 45.92 367.364 44.73 365.871 43.75C364.378 42.7233 362.674 41.6967 360.761 40.67C359.034 39.7367 357.308 38.7567 355.581 37.73C353.901 36.6567 352.478 35.3267 351.311 33.74C350.191 32.1533 349.631 30.1467 349.631 27.72C349.631 24.64 350.914 22.0967 353.481 20.09C356.048 18.0833 359.688 17.08 364.401 17.08C367.668 17.08 370.281 17.5 372.241 18.34C374.201 19.1333 375.624 20.16 376.511 21.42C377.398 22.6333 377.841 23.9167 377.841 25.27C377.841 26.7167 377.374 27.8833 376.441 28.77C375.554 29.61 374.458 30.03 373.151 30.03C371.984 30.03 370.958 29.68 370.071 28.98C369.184 28.2333 368.741 27.2767 368.741 26.11C368.741 25.55 368.834 24.9433 369.021 24.29C369.208 23.6367 369.464 23.1 369.791 22.68C369.278 22.26 368.671 21.98 367.971 21.84C367.318 21.6533 366.524 21.56 365.591 21.56C364.051 21.56 362.861 21.9333 362.021 22.68C361.228 23.38 360.831 24.2433 360.831 25.27C360.831 26.8567 361.578 28.1633 363.071 29.19C364.611 30.2167 366.314 31.22 368.181 32.2C369.908 33.0867 371.588 34.0433 373.221 35.07C374.901 36.0967 376.301 37.38 377.421 38.92C378.541 40.46 379.101 42.4433 379.101 44.87C379.101 47.4833 378.354 49.5833 376.861 51.17C375.368 52.71 373.431 53.83 371.051 54.53C368.718 55.23 366.244 55.58 363.631 55.58ZM53.06 146.3C51.3333 146.3 49.84 146.067 48.58 145.6C47.3667 145.087 46.76 144.107 46.76 142.66V119.35C46.76 117.857 46.34 116.713 45.5 115.92C44.7067 115.08 43.6333 114.66 42.28 114.66C41.5333 114.66 40.7633 114.8 39.97 115.08C39.2233 115.36 38.5467 115.78 37.94 116.34C37.9867 116.527 38.01 116.713 38.01 116.9C38.01 117.04 38.01 117.203 38.01 117.39V138.32C38.01 139.673 38.29 140.653 38.85 141.26C39.41 141.82 40.2967 142.1 41.51 142.1C41.51 142.847 41.3467 143.547 41.02 144.2C40.74 144.807 40.3433 145.367 39.83 145.88H24.92C24.4533 145.367 24.0567 144.807 23.73 144.2C23.45 143.547 23.31 142.847 23.31 142.1C24.5233 142.1 25.3633 141.82 25.83 141.26C26.3433 140.653 26.6 139.673 26.6 138.32V119.35C26.6 117.857 26.1567 116.713 25.27 115.92C24.43 115.08 23.4033 114.66 22.19 114.66C21.3033 114.66 20.3933 114.87 19.46 115.29C18.5267 115.71 17.7333 116.317 17.08 117.11V138.32C17.08 139.673 17.3133 140.653 17.78 141.26C18.2933 141.82 19.1333 142.1 20.3 142.1C20.3 143.547 19.74 144.807 18.62 145.88H3.43C2.91667 145.367 2.49667 144.807 2.17 144.2C1.89 143.547 1.75 142.847 1.75 142.1C3.15 142.1 4.15334 141.82 4.76 141.26C5.36667 140.653 5.67 139.673 5.67 138.32V117.81C5.67 116.597 5.32 115.71 4.62 115.15C3.96667 114.59 2.75334 114.31 0.980002 114.31V111.23C2.05334 110.577 3.40667 109.993 5.04 109.48C6.72 108.967 8.33 108.57 9.87 108.29C11.4567 107.963 12.67 107.8 13.51 107.8C14.4433 107.8 15.2133 108.103 15.82 108.71C16.4733 109.27 16.8933 110.46 17.08 112.28C18.2933 110.927 19.81 109.853 21.63 109.06C23.4967 108.22 25.5967 107.8 27.93 107.8C32.5967 107.8 35.63 109.363 37.03 112.49C38.2433 110.997 39.8067 109.853 41.72 109.06C43.68 108.22 45.85 107.8 48.23 107.8C51.59 107.8 54.0867 108.617 55.72 110.25C57.4 111.883 58.24 114.263 58.24 117.39V138.32C58.24 139.393 58.5433 140.21 59.15 140.77C59.7567 141.33 60.5967 141.727 61.67 141.96V143.99C60.83 144.737 59.7333 145.32 58.38 145.74C57.0267 146.113 55.2533 146.3 53.06 146.3ZM81.9924 146.51C76.7658 146.51 72.5891 144.853 69.4624 141.54C66.3824 138.227 64.8424 133.607 64.8424 127.68C64.8424 123.62 65.6124 120.12 67.1524 117.18C68.6924 114.193 70.7691 111.907 73.3824 110.32C76.0424 108.733 79.0524 107.94 82.4124 107.94C86.6124 107.94 89.9724 109.177 92.4924 111.65C95.0591 114.077 96.3424 117.507 96.3424 121.94C96.3424 123.713 96.0391 125.277 95.4324 126.63C94.8724 127.937 93.6824 128.59 91.8624 128.59H76.7424C76.8824 132.277 77.7224 134.89 79.2624 136.43C80.8491 137.97 82.9024 138.74 85.4224 138.74C87.0091 138.74 88.4791 138.507 89.8324 138.04C91.1858 137.527 92.4458 136.827 93.6124 135.94C94.0324 136.313 94.3591 136.897 94.5924 137.69C94.8724 138.437 95.0124 139.067 95.0124 139.58C95.0124 140.327 94.4758 141.26 93.4024 142.38C92.3758 143.453 90.8824 144.41 88.9224 145.25C87.0091 146.09 84.6991 146.51 81.9924 146.51ZM76.7424 123.27H83.8124C84.6058 123.27 85.0958 122.967 85.2824 122.36C85.5158 121.753 85.6324 121.007 85.6324 120.12C85.6324 117.133 85.2591 115.173 84.5124 114.24C83.8124 113.26 82.9724 112.77 81.9924 112.77C81.1991 112.77 80.4058 113.073 79.6124 113.68C78.8191 114.287 78.1658 115.36 77.6524 116.9C77.1391 118.393 76.8358 120.517 76.7424 123.27ZM100.632 145.88C100.119 145.32 99.7221 144.737 99.4421 144.13C99.1621 143.523 99.0221 142.847 99.0221 142.1C100.375 142.1 101.355 141.82 101.962 141.26C102.569 140.653 102.872 139.65 102.872 138.25V101.08C102.872 100.007 102.569 99.1667 101.962 98.56C101.355 97.9067 100.072 97.58 98.1121 97.58V94.78C99.2788 94.1267 100.632 93.5667 102.172 93.1C103.759 92.5867 105.322 92.19 106.862 91.91C108.402 91.5833 109.685 91.42 110.712 91.42C111.785 91.42 112.555 91.6533 113.022 92.12C113.535 92.5867 113.792 93.4033 113.792 94.57V138.25C113.792 139.697 114.072 140.7 114.632 141.26C115.239 141.82 116.242 142.1 117.642 142.1C117.642 142.847 117.479 143.523 117.152 144.13C116.872 144.737 116.475 145.32 115.962 145.88H100.632ZM152.456 146.3C150.169 146.3 148.419 145.95 147.206 145.25C145.992 144.55 145.386 143.43 145.386 141.89V119.35C145.386 117.857 144.966 116.713 144.126 115.92C143.286 115.08 142.189 114.66 140.836 114.66C139.949 114.66 138.992 114.963 137.966 115.57C136.986 116.13 136.239 116.9 135.726 117.88V138.32C135.726 139.673 136.006 140.653 136.566 141.26C137.172 141.82 138.176 142.1 139.576 142.1C139.576 143.547 139.039 144.807 137.966 145.88H122.496C121.422 144.807 120.886 143.547 120.886 142.1C122.286 142.1 123.266 141.82 123.826 141.26C124.432 140.653 124.736 139.673 124.736 138.32V100.38C124.736 99.3067 124.432 98.4667 123.826 97.86C123.219 97.2533 121.959 96.95 120.046 96.95V94.08C121.212 93.4733 122.566 92.9133 124.106 92.4C125.692 91.8867 127.256 91.49 128.796 91.21C130.382 90.8833 131.689 90.72 132.716 90.72C133.789 90.72 134.559 90.9767 135.026 91.49C135.492 91.9567 135.726 92.7733 135.726 93.94V107.73L135.586 113.33C136.799 111.79 138.362 110.483 140.276 109.41C142.189 108.337 144.359 107.8 146.786 107.8C153.412 107.8 156.726 111.253 156.726 118.16V137.76C156.726 140.14 157.846 141.54 160.086 141.96L160.156 143.99C158.476 145.53 155.909 146.3 152.456 146.3ZM180.425 146.79C177.112 146.79 174.172 146.09 171.605 144.69C169.038 143.243 167.032 141.143 165.585 138.39C164.185 135.59 163.485 132.137 163.485 128.03C163.485 123.643 164.232 119.957 165.725 116.97C167.218 113.983 169.295 111.72 171.955 110.18C174.615 108.64 177.672 107.87 181.125 107.87C184.485 107.87 187.425 108.593 189.945 110.04C192.512 111.487 194.495 113.633 195.895 116.48C197.342 119.28 198.065 122.757 198.065 126.91C198.065 131.25 197.318 134.913 195.825 137.9C194.332 140.84 192.255 143.057 189.595 144.55C186.935 146.043 183.878 146.79 180.425 146.79ZM180.985 141.75C181.965 141.75 182.805 141.4 183.505 140.7C184.252 140 184.812 138.717 185.185 136.85C185.605 134.937 185.815 132.183 185.815 128.59C185.815 124.203 185.605 120.89 185.185 118.65C184.765 116.363 184.158 114.823 183.365 114.03C182.572 113.237 181.638 112.84 180.565 112.84C179.585 112.84 178.722 113.19 177.975 113.89C177.228 114.59 176.645 115.897 176.225 117.81C175.852 119.723 175.665 122.5 175.665 126.14C175.665 130.48 175.875 133.77 176.295 136.01C176.762 138.25 177.392 139.767 178.185 140.56C178.978 141.353 179.912 141.75 180.985 141.75ZM203.578 145.88C203.065 145.367 202.668 144.807 202.388 144.2C202.108 143.593 201.968 142.893 201.968 142.1C203.321 142.1 204.278 141.82 204.838 141.26C205.445 140.653 205.748 139.65 205.748 138.25V118.02C205.748 116.807 205.421 115.943 204.768 115.43C204.115 114.87 202.901 114.59 201.128 114.59V111.44C202.248 110.787 203.578 110.227 205.118 109.76C206.658 109.247 208.175 108.85 209.668 108.57C211.161 108.243 212.328 108.08 213.168 108.08C214.241 108.08 215.011 108.453 215.478 109.2C215.991 109.947 216.248 111.557 216.248 114.03C216.761 113.05 217.508 112.093 218.488 111.16C219.515 110.18 220.658 109.387 221.918 108.78C223.178 108.173 224.485 107.87 225.838 107.87C228.031 107.87 229.595 108.43 230.528 109.55C231.461 110.67 231.928 112.117 231.928 113.89C231.928 115.897 231.415 117.53 230.388 118.79C229.361 120.05 227.938 120.68 226.118 120.68C224.531 120.68 223.271 120.237 222.338 119.35C221.405 118.417 220.938 117.367 220.938 116.2C220.938 115.453 221.008 114.87 221.148 114.45C220.401 114.637 219.678 114.893 218.978 115.22C218.278 115.5 217.578 115.967 216.878 116.62V137.62C216.878 138.693 217.041 139.557 217.368 140.21C217.695 140.863 218.325 141.353 219.258 141.68C220.238 141.96 221.685 142.1 223.598 142.1C223.598 142.893 223.505 143.593 223.318 144.2C223.131 144.807 222.781 145.367 222.268 145.88H203.578ZM249.61 146.51C244.383 146.51 240.206 144.853 237.08 141.54C234 138.227 232.46 133.607 232.46 127.68C232.46 123.62 233.23 120.12 234.77 117.18C236.31 114.193 238.386 111.907 241 110.32C243.66 108.733 246.67 107.94 250.03 107.94C254.23 107.94 257.59 109.177 260.11 111.65C262.676 114.077 263.96 117.507 263.96 121.94C263.96 123.713 263.656 125.277 263.05 126.63C262.49 127.937 261.3 128.59 259.48 128.59H244.36C244.5 132.277 245.34 134.89 246.88 136.43C248.466 137.97 250.52 138.74 253.04 138.74C254.626 138.74 256.096 138.507 257.45 138.04C258.803 137.527 260.063 136.827 261.23 135.94C261.65 136.313 261.976 136.897 262.21 137.69C262.49 138.437 262.63 139.067 262.63 139.58C262.63 140.327 262.093 141.26 261.02 142.38C259.993 143.453 258.5 144.41 256.54 145.25C254.626 146.09 252.316 146.51 249.61 146.51ZM244.36 123.27H251.43C252.223 123.27 252.713 122.967 252.9 122.36C253.133 121.753 253.25 121.007 253.25 120.12C253.25 117.133 252.876 115.173 252.13 114.24C251.43 113.26 250.59 112.77 249.61 112.77C248.816 112.77 248.023 113.073 247.23 113.68C246.436 114.287 245.783 115.36 245.27 116.9C244.756 118.393 244.453 120.517 244.36 123.27ZM281.941 146.58C280.261 146.58 278.558 146.393 276.831 146.02C275.151 145.647 273.588 145.11 272.141 144.41C270.741 143.71 269.598 142.847 268.711 141.82C267.825 140.747 267.381 139.533 267.381 138.18C267.381 136.547 267.848 135.24 268.781 134.26C269.715 133.233 270.905 132.72 272.351 132.72C273.658 132.72 274.755 133.14 275.641 133.98C276.575 134.82 277.041 135.917 277.041 137.27C277.041 137.877 276.948 138.413 276.761 138.88C276.575 139.3 276.295 139.767 275.921 140.28C276.341 140.7 277.088 141.003 278.161 141.19C279.235 141.377 280.285 141.47 281.311 141.47C282.945 141.47 284.205 141.167 285.091 140.56C285.978 139.953 286.421 139.207 286.421 138.32C286.421 136.92 285.675 135.73 284.181 134.75C282.688 133.723 280.985 132.697 279.071 131.67C277.345 130.737 275.618 129.757 273.891 128.73C272.211 127.657 270.788 126.327 269.621 124.74C268.501 123.153 267.941 121.147 267.941 118.72C267.941 115.64 269.225 113.097 271.791 111.09C274.358 109.083 277.998 108.08 282.711 108.08C285.978 108.08 288.591 108.5 290.551 109.34C292.511 110.133 293.935 111.16 294.821 112.42C295.708 113.633 296.151 114.917 296.151 116.27C296.151 117.717 295.685 118.883 294.751 119.77C293.865 120.61 292.768 121.03 291.461 121.03C290.295 121.03 289.268 120.68 288.381 119.98C287.495 119.233 287.051 118.277 287.051 117.11C287.051 116.55 287.145 115.943 287.331 115.29C287.518 114.637 287.775 114.1 288.101 113.68C287.588 113.26 286.981 112.98 286.281 112.84C285.628 112.653 284.835 112.56 283.901 112.56C282.361 112.56 281.171 112.933 280.331 113.68C279.538 114.38 279.141 115.243 279.141 116.27C279.141 117.857 279.888 119.163 281.381 120.19C282.921 121.217 284.625 122.22 286.491 123.2C288.218 124.087 289.898 125.043 291.531 126.07C293.211 127.097 294.611 128.38 295.731 129.92C296.851 131.46 297.411 133.443 297.411 135.87C297.411 138.483 296.665 140.583 295.171 142.17C293.678 143.71 291.741 144.83 289.361 145.53C287.028 146.23 284.555 146.58 281.941 146.58ZM315.964 145.88C315.451 145.32 315.054 144.737 314.774 144.13C314.494 143.523 314.354 142.847 314.354 142.1C315.707 142.1 316.687 141.82 317.294 141.26C317.901 140.653 318.204 139.65 318.204 138.25V101.08C318.204 100.007 317.901 99.1667 317.294 98.56C316.687 97.9067 315.404 97.58 313.444 97.58V94.78C314.611 94.1267 315.964 93.5667 317.504 93.1C319.091 92.5867 320.654 92.19 322.194 91.91C323.734 91.5833 325.017 91.42 326.044 91.42C327.117 91.42 327.887 91.6533 328.354 92.12C328.867 92.5867 329.124 93.4033 329.124 94.57V138.25C329.124 139.697 329.404 140.7 329.964 141.26C330.571 141.82 331.574 142.1 332.974 142.1C332.974 142.847 332.811 143.523 332.484 144.13C332.204 144.737 331.807 145.32 331.294 145.88H315.964ZM348.636 146.37C345.369 146.37 342.826 145.367 341.006 143.36C339.186 141.353 338.276 138.647 338.276 135.24V115.99C338.276 115.197 337.972 114.637 337.366 114.31C336.759 113.983 335.919 113.82 334.846 113.82V110.74C335.452 110.227 336.712 109.69 338.626 109.13C340.586 108.523 342.779 108.22 345.206 108.22C347.026 108.22 348.216 108.43 348.776 108.85C349.382 109.27 349.686 110.297 349.686 111.93V135.45C349.686 136.85 349.919 137.923 350.386 138.67C350.852 139.417 351.669 139.79 352.836 139.79C353.816 139.79 354.749 139.487 355.636 138.88C356.569 138.273 357.339 137.573 357.946 136.78V115.99C357.946 115.197 357.596 114.637 356.896 114.31C356.196 113.983 355.239 113.82 354.026 113.82V110.74C354.679 110.227 355.962 109.69 357.876 109.13C359.789 108.523 362.052 108.22 364.666 108.22C366.486 108.22 367.722 108.43 368.376 108.85C369.029 109.27 369.356 110.297 369.356 111.93V137.69C369.356 138.81 369.636 139.743 370.196 140.49C370.802 141.237 371.642 141.657 372.716 141.75V143.71C371.969 144.597 370.779 145.273 369.146 145.74C367.559 146.16 366.019 146.37 364.526 146.37C362.986 146.37 361.632 145.973 360.466 145.18C359.346 144.34 358.599 143.15 358.226 141.61C355.939 144.783 352.742 146.37 348.636 146.37ZM390.724 134.4C389.184 134.4 387.714 134.237 386.314 133.91V134.12C386.314 135.287 386.757 136.103 387.644 136.57C388.577 137.037 390.187 137.363 392.474 137.55C398.401 137.97 402.857 139.043 405.844 140.77C408.877 142.497 410.394 145.087 410.394 148.54C410.394 150.36 409.881 152.063 408.854 153.65C407.827 155.237 406.404 156.613 404.584 157.78C402.811 158.947 400.781 159.857 398.494 160.51C396.207 161.163 393.827 161.49 391.354 161.49C385.567 161.49 381.344 160.44 378.684 158.34C376.071 156.287 374.764 153.697 374.764 150.57C374.764 148.843 375.324 147.28 376.444 145.88C377.611 144.48 379.267 143.407 381.414 142.66C380.387 141.913 379.734 141.073 379.454 140.14C379.221 139.207 379.104 138.18 379.104 137.06C379.104 136.313 379.407 135.497 380.014 134.61C380.621 133.723 381.554 133.047 382.814 132.58C380.621 131.413 378.894 129.803 377.634 127.75C376.421 125.697 375.814 123.48 375.814 121.1C375.814 118.72 376.397 116.573 377.564 114.66C378.731 112.7 380.457 111.137 382.744 109.97C385.031 108.803 387.877 108.22 391.284 108.22H391.354C391.774 108.22 392.404 108.243 393.244 108.29C394.131 108.337 394.947 108.43 395.694 108.57C398.914 108.57 401.364 108.547 403.044 108.5C404.771 108.407 406.077 108.313 406.964 108.22C407.851 108.127 408.714 108.01 409.554 107.87C410.067 107.87 410.441 108.22 410.674 108.92C410.907 109.573 411.024 110.203 411.024 110.81C411.024 111.697 410.814 112.443 410.394 113.05C409.974 113.657 409.274 113.96 408.294 113.96C407.874 113.96 407.104 113.727 405.984 113.26C404.864 112.793 403.791 112.373 402.764 112C404.351 113.26 405.541 114.707 406.334 116.34C407.174 117.973 407.594 119.513 407.594 120.96C407.594 125.347 406.101 128.683 403.114 130.97C400.127 133.257 395.997 134.4 390.724 134.4ZM391.914 129.78C393.454 129.78 394.527 128.963 395.134 127.33C395.787 125.697 396.114 123.293 396.114 120.12C396.114 117.507 395.741 115.64 394.994 114.52C394.294 113.4 393.267 112.84 391.914 112.84C390.374 112.84 389.301 113.657 388.694 115.29C388.087 116.877 387.784 119.07 387.784 121.87C387.784 124.437 388.111 126.397 388.764 127.75C389.417 129.103 390.467 129.78 391.914 129.78ZM385.334 148.75C385.334 150.71 385.941 152.367 387.154 153.72C388.367 155.073 390.537 155.75 393.664 155.75C395.997 155.75 397.631 155.19 398.564 154.07C399.497 152.95 399.964 151.713 399.964 150.36C399.964 149.287 399.474 148.447 398.494 147.84C397.561 147.233 396.301 146.743 394.714 146.37C393.127 145.997 391.354 145.647 389.394 145.32C388.227 145.133 387.177 144.923 386.244 144.69C385.917 145.297 385.684 145.95 385.544 146.65C385.404 147.397 385.334 148.097 385.334 148.75ZM423.925 146.37C420.425 146.37 417.578 145.413 415.385 143.5C413.238 141.54 412.165 139.043 412.165 136.01C412.165 132.977 413.145 130.527 415.105 128.66C417.112 126.793 420.192 125.86 424.345 125.86C425.698 125.86 427.122 126 428.615 126.28C430.108 126.513 431.322 126.887 432.255 127.4V118.09C432.255 116.13 431.742 114.777 430.715 114.03C429.735 113.237 428.522 112.84 427.075 112.84C425.535 112.84 424.275 113.213 423.295 113.96C424.228 114.287 424.905 114.8 425.325 115.5C425.745 116.153 425.955 116.877 425.955 117.67C425.955 119.21 425.395 120.447 424.275 121.38C423.202 122.267 421.872 122.71 420.285 122.71C418.512 122.71 417.088 122.197 416.015 121.17C414.942 120.097 414.405 118.767 414.405 117.18C414.405 115.593 414.942 114.1 416.015 112.7C417.088 111.253 418.745 110.063 420.985 109.13C423.272 108.197 426.212 107.73 429.805 107.73C439.185 107.73 443.875 111.44 443.875 118.86V137.41C443.875 139.65 444.948 141.003 447.095 141.47V143.71C446.488 144.597 445.462 145.273 444.015 145.74C442.568 146.16 441.168 146.37 439.815 146.37C436.642 146.37 434.402 145.273 433.095 143.08C432.162 143.92 430.925 144.69 429.385 145.39C427.845 146.043 426.025 146.37 423.925 146.37ZM428.475 140.7C429.128 140.7 429.805 140.607 430.505 140.42C431.205 140.187 431.788 139.907 432.255 139.58V132.79C431.788 132.463 431.182 132.183 430.435 131.95C429.735 131.717 429.035 131.6 428.335 131.6C427.122 131.6 426.072 131.997 425.185 132.79C424.298 133.537 423.855 134.727 423.855 136.36C423.855 137.62 424.275 138.67 425.115 139.51C425.955 140.303 427.075 140.7 428.475 140.7ZM451.723 145.88C451.209 145.367 450.813 144.807 450.533 144.2C450.253 143.593 450.113 142.893 450.113 142.1C451.466 142.1 452.423 141.82 452.983 141.26C453.589 140.653 453.893 139.65 453.893 138.25V118.02C453.893 116.807 453.566 115.943 452.913 115.43C452.259 114.87 451.046 114.59 449.273 114.59V111.44C450.393 110.787 451.723 110.227 453.263 109.76C454.803 109.247 456.319 108.85 457.813 108.57C459.306 108.243 460.473 108.08 461.313 108.08C462.386 108.08 463.156 108.453 463.623 109.2C464.136 109.947 464.393 111.557 464.393 114.03C464.906 113.05 465.653 112.093 466.633 111.16C467.659 110.18 468.803 109.387 470.063 108.78C471.323 108.173 472.629 107.87 473.983 107.87C476.176 107.87 477.739 108.43 478.673 109.55C479.606 110.67 480.073 112.117 480.073 113.89C480.073 115.897 479.559 117.53 478.533 118.79C477.506 120.05 476.083 120.68 474.263 120.68C472.676 120.68 471.416 120.237 470.483 119.35C469.549 118.417 469.083 117.367 469.083 116.2C469.083 115.453 469.153 114.87 469.293 114.45C468.546 114.637 467.823 114.893 467.123 115.22C466.423 115.5 465.723 115.967 465.023 116.62V137.62C465.023 138.693 465.186 139.557 465.513 140.21C465.839 140.863 466.469 141.353 467.403 141.68C468.383 141.96 469.829 142.1 471.743 142.1C471.743 142.893 471.649 143.593 471.463 144.2C471.276 144.807 470.926 145.367 470.413 145.88H451.723ZM497.754 146.51C492.527 146.51 488.351 144.853 485.224 141.54C482.144 138.227 480.604 133.607 480.604 127.68C480.604 123.62 481.374 120.12 482.914 117.18C484.454 114.193 486.531 111.907 489.144 110.32C491.804 108.733 494.814 107.94 498.174 107.94C502.374 107.94 505.734 109.177 508.254 111.65C510.821 114.077 512.104 117.507 512.104 121.94C512.104 123.713 511.801 125.277 511.194 126.63C510.634 127.937 509.444 128.59 507.624 128.59H492.504C492.644 132.277 493.484 134.89 495.024 136.43C496.611 137.97 498.664 138.74 501.184 138.74C502.771 138.74 504.241 138.507 505.594 138.04C506.947 137.527 508.207 136.827 509.374 135.94C509.794 136.313 510.121 136.897 510.354 137.69C510.634 138.437 510.774 139.067 510.774 139.58C510.774 140.327 510.237 141.26 509.164 142.38C508.137 143.453 506.644 144.41 504.684 145.25C502.771 146.09 500.461 146.51 497.754 146.51ZM492.504 123.27H499.574C500.367 123.27 500.857 122.967 501.044 122.36C501.277 121.753 501.394 121.007 501.394 120.12C501.394 117.133 501.021 115.173 500.274 114.24C499.574 113.26 498.734 112.77 497.754 112.77C496.961 112.77 496.167 113.073 495.374 113.68C494.581 114.287 493.927 115.36 493.414 116.9C492.901 118.393 492.597 120.517 492.504 123.27ZM530.086 146.58C528.406 146.58 526.703 146.393 524.976 146.02C523.296 145.647 521.733 145.11 520.286 144.41C518.886 143.71 517.743 142.847 516.856 141.82C515.969 140.747 515.526 139.533 515.526 138.18C515.526 136.547 515.993 135.24 516.926 134.26C517.859 133.233 519.049 132.72 520.496 132.72C521.803 132.72 522.899 133.14 523.786 133.98C524.719 134.82 525.186 135.917 525.186 137.27C525.186 137.877 525.093 138.413 524.906 138.88C524.719 139.3 524.439 139.767 524.066 140.28C524.486 140.7 525.233 141.003 526.306 141.19C527.379 141.377 528.429 141.47 529.456 141.47C531.089 141.47 532.349 141.167 533.236 140.56C534.123 139.953 534.566 139.207 534.566 138.32C534.566 136.92 533.819 135.73 532.326 134.75C530.833 133.723 529.129 132.697 527.216 131.67C525.489 130.737 523.763 129.757 522.036 128.73C520.356 127.657 518.933 126.327 517.766 124.74C516.646 123.153 516.086 121.147 516.086 118.72C516.086 115.64 517.369 113.097 519.936 111.09C522.503 109.083 526.143 108.08 530.856 108.08C534.123 108.08 536.736 108.5 538.696 109.34C540.656 110.133 542.079 111.16 542.966 112.42C543.853 113.633 544.296 114.917 544.296 116.27C544.296 117.717 543.829 118.883 542.896 119.77C542.009 120.61 540.913 121.03 539.606 121.03C538.439 121.03 537.413 120.68 536.526 119.98C535.639 119.233 535.196 118.277 535.196 117.11C535.196 116.55 535.289 115.943 535.476 115.29C535.663 114.637 535.919 114.1 536.246 113.68C535.733 113.26 535.126 112.98 534.426 112.84C533.773 112.653 532.979 112.56 532.046 112.56C530.506 112.56 529.316 112.933 528.476 113.68C527.683 114.38 527.286 115.243 527.286 116.27C527.286 117.857 528.033 119.163 529.526 120.19C531.066 121.217 532.769 122.22 534.636 123.2C536.363 124.087 538.043 125.043 539.676 126.07C541.356 127.097 542.756 128.38 543.876 129.92C544.996 131.46 545.556 133.443 545.556 135.87C545.556 138.483 544.809 140.583 543.316 142.17C541.823 143.71 539.886 144.83 537.506 145.53C535.173 146.23 532.699 146.58 530.086 146.58Z" fill="black"/>
<path d="M3.08 250.18C2.56667 249.667 2.14667 249.107 1.82 248.5C1.54 247.893 1.4 247.217 1.4 246.47C2.8 246.47 3.68667 246.167 4.06 245.56C4.48 244.953 4.69 243.973 4.69 242.62V209.09C4.69 207.877 4.34 206.99 3.64 206.43C2.98667 205.87 1.77334 205.59 1.83471e-06 205.59V202.44C1.02667 201.833 2.24 201.273 3.64 200.76C5.08667 200.247 6.48667 199.85 7.84 199.57C9.19334 199.243 10.2667 199.08 11.06 199.08C11.9933 199.08 12.7633 199.267 13.37 199.64C14.0233 200.013 14.49 200.76 14.77 201.88C15.8433 200.853 17.1033 200.13 18.55 199.71C20.0433 199.29 21.6067 199.08 23.24 199.08C25.7133 199.08 28.0233 199.733 30.17 201.04C32.3167 202.3 34.0433 204.213 35.35 206.78C36.7033 209.347 37.38 212.613 37.38 216.58C37.38 221.013 36.5167 224.817 34.79 227.99C33.11 231.117 30.8233 233.52 27.93 235.2C25.0833 236.833 21.91 237.65 18.41 237.65C18.0367 237.65 17.6167 237.627 17.15 237.58C16.6833 237.58 16.1933 237.557 15.68 237.51V242.62C15.68 243.973 16.17 244.953 17.15 245.56C18.13 246.167 19.1333 246.47 20.16 246.47C20.16 247.87 19.6233 249.107 18.55 250.18H3.08ZM18.34 232.54C20.2533 232.54 21.8867 231.42 23.24 229.18C24.5933 226.94 25.27 223.3 25.27 218.26C25.27 215.04 24.92 212.497 24.22 210.63C23.5667 208.717 22.6567 207.363 21.49 206.57C20.3233 205.73 19.04 205.31 17.64 205.31C16.8933 205.31 16.24 205.45 15.68 205.73V231.84C16.4733 232.307 17.36 232.54 18.34 232.54ZM52.6652 237.37C49.1652 237.37 46.3185 236.413 44.1252 234.5C41.9785 232.54 40.9052 230.043 40.9052 227.01C40.9052 223.977 41.8852 221.527 43.8452 219.66C45.8518 217.793 48.9318 216.86 53.0852 216.86C54.4385 216.86 55.8618 217 57.3552 217.28C58.8485 217.513 60.0618 217.887 60.9952 218.4V209.09C60.9952 207.13 60.4818 205.777 59.4552 205.03C58.4752 204.237 57.2618 203.84 55.8152 203.84C54.2752 203.84 53.0152 204.213 52.0352 204.96C52.9685 205.287 53.6452 205.8 54.0652 206.5C54.4852 207.153 54.6952 207.877 54.6952 208.67C54.6952 210.21 54.1352 211.447 53.0152 212.38C51.9418 213.267 50.6118 213.71 49.0252 213.71C47.2518 213.71 45.8285 213.197 44.7552 212.17C43.6818 211.097 43.1452 209.767 43.1452 208.18C43.1452 206.593 43.6818 205.1 44.7552 203.7C45.8285 202.253 47.4852 201.063 49.7252 200.13C52.0118 199.197 54.9518 198.73 58.5452 198.73C67.9252 198.73 72.6152 202.44 72.6152 209.86V228.41C72.6152 230.65 73.6885 232.003 75.8352 232.47V234.71C75.2285 235.597 74.2018 236.273 72.7552 236.74C71.3085 237.16 69.9085 237.37 68.5552 237.37C65.3818 237.37 63.1418 236.273 61.8352 234.08C60.9018 234.92 59.6652 235.69 58.1252 236.39C56.5852 237.043 54.7652 237.37 52.6652 237.37ZM57.2152 231.7C57.8685 231.7 58.5452 231.607 59.2452 231.42C59.9452 231.187 60.5285 230.907 60.9952 230.58V223.79C60.5285 223.463 59.9218 223.183 59.1752 222.95C58.4752 222.717 57.7752 222.6 57.0752 222.6C55.8618 222.6 54.8118 222.997 53.9252 223.79C53.0385 224.537 52.5952 225.727 52.5952 227.36C52.5952 228.62 53.0152 229.67 53.8552 230.51C54.6952 231.303 55.8152 231.7 57.2152 231.7ZM80.4628 236.88C79.9495 236.367 79.5528 235.807 79.2728 235.2C78.9928 234.593 78.8528 233.893 78.8528 233.1C80.2061 233.1 81.1628 232.82 81.7228 232.26C82.3295 231.653 82.6328 230.65 82.6328 229.25V209.02C82.6328 207.807 82.3061 206.943 81.6528 206.43C80.9995 205.87 79.7861 205.59 78.0128 205.59V202.44C79.1328 201.787 80.4628 201.227 82.0028 200.76C83.5428 200.247 85.0595 199.85 86.5528 199.57C88.0461 199.243 89.2128 199.08 90.0528 199.08C91.1261 199.08 91.8961 199.453 92.3628 200.2C92.8761 200.947 93.1328 202.557 93.1328 205.03C93.6461 204.05 94.3928 203.093 95.3728 202.16C96.3995 201.18 97.5428 200.387 98.8028 199.78C100.063 199.173 101.369 198.87 102.723 198.87C104.916 198.87 106.479 199.43 107.413 200.55C108.346 201.67 108.813 203.117 108.813 204.89C108.813 206.897 108.299 208.53 107.273 209.79C106.246 211.05 104.823 211.68 103.003 211.68C101.416 211.68 100.156 211.237 99.2228 210.35C98.2895 209.417 97.8228 208.367 97.8228 207.2C97.8228 206.453 97.8928 205.87 98.0328 205.45C97.2861 205.637 96.5628 205.893 95.8628 206.22C95.1628 206.5 94.4628 206.967 93.7628 207.62V228.62C93.7628 229.693 93.9261 230.557 94.2528 231.21C94.5795 231.863 95.2095 232.353 96.1428 232.68C97.1228 232.96 98.5695 233.1 100.483 233.1C100.483 233.893 100.389 234.593 100.203 235.2C100.016 235.807 99.6661 236.367 99.1528 236.88H80.4628ZM120.956 237.37C117.456 237.37 114.61 236.413 112.416 234.5C110.27 232.54 109.196 230.043 109.196 227.01C109.196 223.977 110.176 221.527 112.136 219.66C114.143 217.793 117.223 216.86 121.376 216.86C122.73 216.86 124.153 217 125.646 217.28C127.14 217.513 128.353 217.887 129.286 218.4V209.09C129.286 207.13 128.773 205.777 127.746 205.03C126.766 204.237 125.553 203.84 124.106 203.84C122.566 203.84 121.306 204.213 120.326 204.96C121.26 205.287 121.936 205.8 122.356 206.5C122.776 207.153 122.986 207.877 122.986 208.67C122.986 210.21 122.426 211.447 121.306 212.38C120.233 213.267 118.903 213.71 117.316 213.71C115.543 213.71 114.12 213.197 113.046 212.17C111.973 211.097 111.436 209.767 111.436 208.18C111.436 206.593 111.973 205.1 113.046 203.7C114.12 202.253 115.776 201.063 118.016 200.13C120.303 199.197 123.243 198.73 126.836 198.73C136.216 198.73 140.906 202.44 140.906 209.86V228.41C140.906 230.65 141.98 232.003 144.126 232.47V234.71C143.52 235.597 142.493 236.273 141.046 236.74C139.6 237.16 138.2 237.37 136.846 237.37C133.673 237.37 131.433 236.273 130.126 234.08C129.193 234.92 127.956 235.69 126.416 236.39C124.876 237.043 123.056 237.37 120.956 237.37ZM125.506 231.7C126.16 231.7 126.836 231.607 127.536 231.42C128.236 231.187 128.82 230.907 129.286 230.58V223.79C128.82 223.463 128.213 223.183 127.466 222.95C126.766 222.717 126.066 222.6 125.366 222.6C124.153 222.6 123.103 222.997 122.216 223.79C121.33 224.537 120.886 225.727 120.886 227.36C120.886 228.62 121.306 229.67 122.146 230.51C122.986 231.303 124.106 231.7 125.506 231.7ZM177.904 237.93C174.497 237.93 171.487 237.16 168.874 235.62C166.307 234.08 164.277 231.887 162.784 229.04C161.337 226.147 160.614 222.693 160.614 218.68C160.614 214.527 161.407 210.98 162.994 208.04C164.581 205.053 166.751 202.79 169.504 201.25C172.257 199.663 175.361 198.87 178.814 198.87C182.407 198.87 185.137 199.733 187.004 201.46C188.871 203.14 189.804 205.217 189.804 207.69C189.804 209.93 189.244 211.657 188.124 212.87C187.004 214.083 185.557 214.69 183.784 214.69C182.337 214.69 181.124 214.153 180.144 213.08C179.164 212.007 178.674 210.7 178.674 209.16C178.674 208.04 178.861 207.13 179.234 206.43C179.654 205.73 180.167 205.147 180.774 204.68C180.307 204.4 179.911 204.237 179.584 204.19C179.304 204.097 179.024 204.05 178.744 204.05C177.857 204.05 176.947 204.4 176.014 205.1C175.081 205.8 174.287 207.037 173.634 208.81C173.027 210.583 172.724 213.057 172.724 216.23C172.724 221.363 173.471 224.98 174.964 227.08C176.457 229.133 178.557 230.16 181.264 230.16C182.524 230.16 183.784 229.973 185.044 229.6C186.351 229.227 187.447 228.69 188.334 227.99C188.707 228.457 189.011 229.04 189.244 229.74C189.524 230.393 189.664 230.977 189.664 231.49C189.664 232.47 189.127 233.473 188.054 234.5C187.027 235.48 185.627 236.297 183.854 236.95C182.081 237.603 180.097 237.93 177.904 237.93ZM209.546 237.79C206.233 237.79 203.293 237.09 200.726 235.69C198.159 234.243 196.153 232.143 194.706 229.39C193.306 226.59 192.606 223.137 192.606 219.03C192.606 214.643 193.353 210.957 194.846 207.97C196.339 204.983 198.416 202.72 201.076 201.18C203.736 199.64 206.793 198.87 210.246 198.87C213.606 198.87 216.546 199.593 219.066 201.04C221.633 202.487 223.616 204.633 225.016 207.48C226.463 210.28 227.186 213.757 227.186 217.91C227.186 222.25 226.439 225.913 224.946 228.9C223.453 231.84 221.376 234.057 218.716 235.55C216.056 237.043 212.999 237.79 209.546 237.79ZM210.106 232.75C211.086 232.75 211.926 232.4 212.626 231.7C213.373 231 213.933 229.717 214.306 227.85C214.726 225.937 214.936 223.183 214.936 219.59C214.936 215.203 214.726 211.89 214.306 209.65C213.886 207.363 213.279 205.823 212.486 205.03C211.693 204.237 210.759 203.84 209.686 203.84C208.706 203.84 207.843 204.19 207.096 204.89C206.349 205.59 205.766 206.897 205.346 208.81C204.973 210.723 204.786 213.5 204.786 217.14C204.786 221.48 204.996 224.77 205.416 227.01C205.883 229.25 206.513 230.767 207.306 231.56C208.099 232.353 209.033 232.75 210.106 232.75ZM282.406 237.3C280.679 237.3 279.186 237.067 277.926 236.6C276.712 236.087 276.106 235.107 276.106 233.66V210.35C276.106 208.857 275.686 207.713 274.846 206.92C274.052 206.08 272.979 205.66 271.626 205.66C270.879 205.66 270.109 205.8 269.316 206.08C268.569 206.36 267.892 206.78 267.286 207.34C267.332 207.527 267.356 207.713 267.356 207.9C267.356 208.04 267.356 208.203 267.356 208.39V229.32C267.356 230.673 267.636 231.653 268.196 232.26C268.756 232.82 269.642 233.1 270.856 233.1C270.856 233.847 270.692 234.547 270.366 235.2C270.086 235.807 269.689 236.367 269.176 236.88H254.266C253.799 236.367 253.402 235.807 253.076 235.2C252.796 234.547 252.656 233.847 252.656 233.1C253.869 233.1 254.709 232.82 255.176 232.26C255.689 231.653 255.946 230.673 255.946 229.32V210.35C255.946 208.857 255.502 207.713 254.616 206.92C253.776 206.08 252.749 205.66 251.536 205.66C250.649 205.66 249.739 205.87 248.806 206.29C247.872 206.71 247.079 207.317 246.426 208.11V229.32C246.426 230.673 246.659 231.653 247.126 232.26C247.639 232.82 248.479 233.1 249.646 233.1C249.646 234.547 249.086 235.807 247.966 236.88H232.776C232.262 236.367 231.842 235.807 231.516 235.2C231.236 234.547 231.096 233.847 231.096 233.1C232.496 233.1 233.499 232.82 234.106 232.26C234.712 231.653 235.016 230.673 235.016 229.32V208.81C235.016 207.597 234.666 206.71 233.966 206.15C233.312 205.59 232.099 205.31 230.326 205.31V202.23C231.399 201.577 232.752 200.993 234.386 200.48C236.066 199.967 237.676 199.57 239.216 199.29C240.802 198.963 242.016 198.8 242.856 198.8C243.789 198.8 244.559 199.103 245.166 199.71C245.819 200.27 246.239 201.46 246.426 203.28C247.639 201.927 249.156 200.853 250.976 200.06C252.842 199.22 254.942 198.8 257.276 198.8C261.942 198.8 264.976 200.363 266.376 203.49C267.589 201.997 269.152 200.853 271.066 200.06C273.026 199.22 275.196 198.8 277.576 198.8C280.936 198.8 283.432 199.617 285.066 201.25C286.746 202.883 287.586 205.263 287.586 208.39V229.32C287.586 230.393 287.889 231.21 288.496 231.77C289.102 232.33 289.942 232.727 291.016 232.96V234.99C290.176 235.737 289.079 236.32 287.726 236.74C286.372 237.113 284.599 237.3 282.406 237.3ZM311.338 237.51C306.111 237.51 301.935 235.853 298.808 232.54C295.728 229.227 294.188 224.607 294.188 218.68C294.188 214.62 294.958 211.12 296.498 208.18C298.038 205.193 300.115 202.907 302.728 201.32C305.388 199.733 308.398 198.94 311.758 198.94C315.958 198.94 319.318 200.177 321.838 202.65C324.405 205.077 325.688 208.507 325.688 212.94C325.688 214.713 325.385 216.277 324.778 217.63C324.218 218.937 323.028 219.59 321.208 219.59H306.088C306.228 223.277 307.068 225.89 308.608 227.43C310.195 228.97 312.248 229.74 314.768 229.74C316.355 229.74 317.825 229.507 319.178 229.04C320.531 228.527 321.791 227.827 322.958 226.94C323.378 227.313 323.705 227.897 323.938 228.69C324.218 229.437 324.358 230.067 324.358 230.58C324.358 231.327 323.821 232.26 322.748 233.38C321.721 234.453 320.228 235.41 318.268 236.25C316.355 237.09 314.045 237.51 311.338 237.51ZM306.088 214.27H313.158C313.951 214.27 314.441 213.967 314.628 213.36C314.861 212.753 314.978 212.007 314.978 211.12C314.978 208.133 314.605 206.173 313.858 205.24C313.158 204.26 312.318 203.77 311.338 203.77C310.545 203.77 309.751 204.073 308.958 204.68C308.165 205.287 307.511 206.36 306.998 207.9C306.485 209.393 306.181 211.517 306.088 214.27ZM331 236.88C330.487 236.367 330.09 235.807 329.81 235.2C329.53 234.593 329.39 233.893 329.39 233.1C330.743 233.1 331.7 232.82 332.26 232.26C332.867 231.653 333.17 230.65 333.17 229.25V209.02C333.17 207.807 332.843 206.943 332.19 206.43C331.537 205.87 330.323 205.59 328.55 205.59V202.44C329.67 201.787 331 201.227 332.54 200.76C334.08 200.247 335.597 199.85 337.09 199.57C338.583 199.243 339.75 199.08 340.59 199.08C341.663 199.08 342.433 199.453 342.9 200.2C343.413 200.947 343.67 202.557 343.67 205.03C344.183 204.05 344.93 203.093 345.91 202.16C346.937 201.18 348.08 200.387 349.34 199.78C350.6 199.173 351.907 198.87 353.26 198.87C355.453 198.87 357.017 199.43 357.95 200.55C358.883 201.67 359.35 203.117 359.35 204.89C359.35 206.897 358.837 208.53 357.81 209.79C356.783 211.05 355.36 211.68 353.54 211.68C351.953 211.68 350.693 211.237 349.76 210.35C348.827 209.417 348.36 208.367 348.36 207.2C348.36 206.453 348.43 205.87 348.57 205.45C347.823 205.637 347.1 205.893 346.4 206.22C345.7 206.5 345 206.967 344.3 207.62V228.62C344.3 229.693 344.463 230.557 344.79 231.21C345.117 231.863 345.747 232.353 346.68 232.68C347.66 232.96 349.107 233.1 351.02 233.1C351.02 233.893 350.927 234.593 350.74 235.2C350.553 235.807 350.203 236.367 349.69 236.88H331Z" fill="#D72B22"/>
<path d="M3.08 341.18C2.56667 340.667 2.14667 340.107 1.82 339.5C1.54 338.893 1.4 338.217 1.4 337.47C2.8 337.47 3.68667 337.167 4.06 336.56C4.48 335.953 4.69 334.973 4.69 333.62V300.09C4.69 298.877 4.34 297.99 3.64 297.43C2.98667 296.87 1.77334 296.59 1.83471e-06 296.59V293.44C1.02667 292.833 2.24 292.273 3.64 291.76C5.08667 291.247 6.48667 290.85 7.84 290.57C9.19334 290.243 10.2667 290.08 11.06 290.08C11.9933 290.08 12.7633 290.267 13.37 290.64C14.0233 291.013 14.49 291.76 14.77 292.88C15.8433 291.853 17.1033 291.13 18.55 290.71C20.0433 290.29 21.6067 290.08 23.24 290.08C25.7133 290.08 28.0233 290.733 30.17 292.04C32.3167 293.3 34.0433 295.213 35.35 297.78C36.7033 300.347 37.38 303.613 37.38 307.58C37.38 312.013 36.5167 315.817 34.79 318.99C33.11 322.117 30.8233 324.52 27.93 326.2C25.0833 327.833 21.91 328.65 18.41 328.65C18.0367 328.65 17.6167 328.627 17.15 328.58C16.6833 328.58 16.1933 328.557 15.68 328.51V333.62C15.68 334.973 16.17 335.953 17.15 336.56C18.13 337.167 19.1333 337.47 20.16 337.47C20.16 338.87 19.6233 340.107 18.55 341.18H3.08ZM18.34 323.54C20.2533 323.54 21.8867 322.42 23.24 320.18C24.5933 317.94 25.27 314.3 25.27 309.26C25.27 306.04 24.92 303.497 24.22 301.63C23.5667 299.717 22.6567 298.363 21.49 297.57C20.3233 296.73 19.04 296.31 17.64 296.31C16.8933 296.31 16.24 296.45 15.68 296.73V322.84C16.4733 323.307 17.36 323.54 18.34 323.54ZM58.5452 328.51C53.3185 328.51 49.1418 326.853 46.0152 323.54C42.9352 320.227 41.3952 315.607 41.3952 309.68C41.3952 305.62 42.1652 302.12 43.7052 299.18C45.2452 296.193 47.3218 293.907 49.9352 292.32C52.5952 290.733 55.6052 289.94 58.9652 289.94C63.1652 289.94 66.5252 291.177 69.0452 293.65C71.6118 296.077 72.8952 299.507 72.8952 303.94C72.8952 305.713 72.5918 307.277 71.9852 308.63C71.4252 309.937 70.2352 310.59 68.4152 310.59H53.2952C53.4352 314.277 54.2752 316.89 55.8152 318.43C57.4018 319.97 59.4552 320.74 61.9752 320.74C63.5618 320.74 65.0318 320.507 66.3852 320.04C67.7385 319.527 68.9985 318.827 70.1652 317.94C70.5852 318.313 70.9118 318.897 71.1452 319.69C71.4252 320.437 71.5652 321.067 71.5652 321.58C71.5652 322.327 71.0285 323.26 69.9552 324.38C68.9285 325.453 67.4352 326.41 65.4752 327.25C63.5618 328.09 61.2518 328.51 58.5452 328.51ZM53.2952 305.27H60.3652C61.1585 305.27 61.6485 304.967 61.8352 304.36C62.0685 303.753 62.1852 303.007 62.1852 302.12C62.1852 299.133 61.8118 297.173 61.0652 296.24C60.3652 295.26 59.5252 294.77 58.5452 294.77C57.7518 294.77 56.9585 295.073 56.1652 295.68C55.3718 296.287 54.7185 297.36 54.2052 298.9C53.6918 300.393 53.3885 302.517 53.2952 305.27ZM78.207 327.88C77.6936 327.367 77.297 326.807 77.017 326.2C76.737 325.593 76.597 324.893 76.597 324.1C77.9503 324.1 78.907 323.82 79.467 323.26C80.0736 322.653 80.377 321.65 80.377 320.25V300.02C80.377 298.807 80.0503 297.943 79.397 297.43C78.7436 296.87 77.5303 296.59 75.757 296.59V293.44C76.877 292.787 78.207 292.227 79.747 291.76C81.287 291.247 82.8036 290.85 84.297 290.57C85.7903 290.243 86.957 290.08 87.797 290.08C88.8703 290.08 89.6403 290.453 90.107 291.2C90.6203 291.947 90.877 293.557 90.877 296.03C91.3903 295.05 92.137 294.093 93.117 293.16C94.1436 292.18 95.287 291.387 96.547 290.78C97.807 290.173 99.1136 289.87 100.467 289.87C102.66 289.87 104.224 290.43 105.157 291.55C106.09 292.67 106.557 294.117 106.557 295.89C106.557 297.897 106.044 299.53 105.017 300.79C103.99 302.05 102.567 302.68 100.747 302.68C99.1603 302.68 97.9003 302.237 96.967 301.35C96.0336 300.417 95.567 299.367 95.567 298.2C95.567 297.453 95.637 296.87 95.777 296.45C95.0303 296.637 94.307 296.893 93.607 297.22C92.907 297.5 92.207 297.967 91.507 298.62V319.62C91.507 320.693 91.6703 321.557 91.997 322.21C92.3236 322.863 92.9536 323.353 93.887 323.68C94.867 323.96 96.3136 324.1 98.227 324.1C98.227 324.893 98.1336 325.593 97.947 326.2C97.7603 326.807 97.4103 327.367 96.897 327.88H78.207ZM123.001 328.37C121.041 328.37 119.244 328.02 117.611 327.32C115.978 326.573 114.648 325.313 113.621 323.54C112.641 321.767 112.151 319.34 112.151 316.26V297.01H107.741V292.74C109.001 292.553 110.191 291.76 111.311 290.36C112.431 288.96 113.388 287.233 114.181 285.18C115.021 283.127 115.558 281.073 115.791 279.02C116.631 278.88 117.401 278.81 118.101 278.81C119.968 278.81 121.251 279.347 121.951 280.42C122.698 281.493 123.071 282.497 123.071 283.43V290.78H131.191C131.191 291.9 131.121 293.02 130.981 294.14C130.888 295.213 130.584 296.17 130.071 297.01H123.211V316.75C123.211 318.243 123.514 319.247 124.121 319.76C124.728 320.227 125.498 320.46 126.431 320.46C127.364 320.46 128.298 320.227 129.231 319.76C130.211 319.247 130.981 318.663 131.541 318.01C132.054 318.43 132.404 319.06 132.591 319.9C132.778 320.693 132.871 321.3 132.871 321.72C132.871 322.747 132.521 323.773 131.821 324.8C131.121 325.827 130.024 326.69 128.531 327.39C127.084 328.043 125.241 328.37 123.001 328.37ZM151.509 328.79C148.196 328.79 145.256 328.09 142.689 326.69C140.122 325.243 138.116 323.143 136.669 320.39C135.269 317.59 134.569 314.137 134.569 310.03C134.569 305.643 135.316 301.957 136.809 298.97C138.302 295.983 140.379 293.72 143.039 292.18C145.699 290.64 148.756 289.87 152.209 289.87C155.569 289.87 158.509 290.593 161.029 292.04C163.596 293.487 165.579 295.633 166.979 298.48C168.426 301.28 169.149 304.757 169.149 308.91C169.149 313.25 168.402 316.913 166.909 319.9C165.416 322.84 163.339 325.057 160.679 326.55C158.019 328.043 154.962 328.79 151.509 328.79ZM152.069 323.75C153.049 323.75 153.889 323.4 154.589 322.7C155.336 322 155.896 320.717 156.269 318.85C156.689 316.937 156.899 314.183 156.899 310.59C156.899 306.203 156.689 302.89 156.269 300.65C155.849 298.363 155.242 296.823 154.449 296.03C153.656 295.237 152.722 294.84 151.649 294.84C150.669 294.84 149.806 295.19 149.059 295.89C148.312 296.59 147.729 297.897 147.309 299.81C146.936 301.723 146.749 304.5 146.749 308.14C146.749 312.48 146.959 315.77 147.379 318.01C147.846 320.25 148.476 321.767 149.269 322.56C150.062 323.353 150.996 323.75 152.069 323.75ZM200.942 328.79C198.422 328.79 196.042 328.16 193.802 326.9C191.609 325.593 189.835 323.633 188.482 321.02C187.129 318.407 186.452 315.117 186.452 311.15C186.452 306.437 187.315 302.517 189.042 299.39C190.815 296.263 193.102 293.93 195.902 292.39C198.749 290.85 201.782 290.08 205.002 290.08C205.609 290.08 206.285 290.103 207.032 290.15C207.779 290.197 208.525 290.267 209.272 290.36L209.062 286.16V282.66C209.062 281.587 208.759 280.747 208.152 280.14C207.545 279.533 206.285 279.23 204.372 279.23V276.36C205.539 275.707 206.915 275.123 208.502 274.61C210.089 274.097 211.652 273.7 213.192 273.42C214.732 273.093 215.969 272.93 216.902 272.93C217.975 272.93 218.745 273.187 219.212 273.7C219.725 274.167 219.982 274.983 219.982 276.15V320.11C219.982 322.397 221.102 323.75 223.342 324.17L223.412 326.13C222.759 327.017 221.755 327.67 220.402 328.09C219.049 328.557 217.672 328.79 216.272 328.79C215.059 328.79 213.775 328.51 212.422 327.95C211.069 327.437 210.112 326.62 209.552 325.5C208.572 326.807 207.359 327.67 205.912 328.09C204.512 328.557 202.855 328.79 200.942 328.79ZM205.772 322.84C207.219 322.84 208.315 322.42 209.062 321.58V297.08C208.082 295.727 206.775 295.05 205.142 295.05C203.882 295.05 202.739 295.493 201.712 296.38C200.685 297.22 199.869 298.643 199.262 300.65C198.655 302.61 198.352 305.293 198.352 308.7C198.352 313.507 199.052 317.077 200.452 319.41C201.899 321.697 203.672 322.84 205.772 322.84ZM237.441 328.37C233.941 328.37 231.094 327.413 228.901 325.5C226.754 323.54 225.681 321.043 225.681 318.01C225.681 314.977 226.661 312.527 228.621 310.66C230.627 308.793 233.707 307.86 237.861 307.86C239.214 307.86 240.637 308 242.131 308.28C243.624 308.513 244.837 308.887 245.771 309.4V300.09C245.771 298.13 245.257 296.777 244.231 296.03C243.251 295.237 242.037 294.84 240.591 294.84C239.051 294.84 237.791 295.213 236.811 295.96C237.744 296.287 238.421 296.8 238.841 297.5C239.261 298.153 239.471 298.877 239.471 299.67C239.471 301.21 238.911 302.447 237.791 303.38C236.717 304.267 235.387 304.71 233.801 304.71C232.027 304.71 230.604 304.197 229.531 303.17C228.457 302.097 227.921 300.767 227.921 299.18C227.921 297.593 228.457 296.1 229.531 294.7C230.604 293.253 232.261 292.063 234.501 291.13C236.787 290.197 239.727 289.73 243.321 289.73C252.701 289.73 257.391 293.44 257.391 300.86V319.41C257.391 321.65 258.464 323.003 260.611 323.47V325.71C260.004 326.597 258.977 327.273 257.531 327.74C256.084 328.16 254.684 328.37 253.331 328.37C250.157 328.37 247.917 327.273 246.611 325.08C245.677 325.92 244.441 326.69 242.901 327.39C241.361 328.043 239.541 328.37 237.441 328.37ZM241.991 322.7C242.644 322.7 243.321 322.607 244.021 322.42C244.721 322.187 245.304 321.907 245.771 321.58V314.79C245.304 314.463 244.697 314.183 243.951 313.95C243.251 313.717 242.551 313.6 241.851 313.6C240.637 313.6 239.587 313.997 238.701 314.79C237.814 315.537 237.371 316.727 237.371 318.36C237.371 319.62 237.791 320.67 238.631 321.51C239.471 322.303 240.591 322.7 241.991 322.7ZM278.498 327.88C277.425 326.667 276.888 325.173 276.888 323.4C278.475 323.4 279.595 323.143 280.248 322.63C280.948 322.117 281.298 321.207 281.298 319.9V287C281.298 285.693 280.948 284.783 280.248 284.27C279.595 283.71 278.475 283.43 276.888 283.43C276.888 282.637 277.028 281.867 277.308 281.12C277.588 280.327 277.962 279.627 278.428 279.02C283.002 279.02 286.665 278.95 289.418 278.81C292.172 278.623 294.528 278.53 296.488 278.53C301.435 278.53 305.355 279.137 308.248 280.35C311.188 281.563 313.288 283.36 314.548 285.74C315.855 288.073 316.508 290.943 316.508 294.35C316.508 297.383 315.738 300.137 314.198 302.61C312.705 305.083 310.418 307.043 307.338 308.49C304.305 309.89 300.432 310.59 295.718 310.59H292.778V316.75C292.778 318.57 292.965 319.97 293.338 320.95C293.758 321.883 294.528 322.537 295.648 322.91C296.768 323.237 298.355 323.4 300.408 323.4C300.408 325.22 299.895 326.713 298.868 327.88H278.498ZM294.598 304.99C296.792 304.99 298.518 304.663 299.778 304.01C301.085 303.31 302.065 302.423 302.718 301.35C303.372 300.277 303.792 299.11 303.978 297.85C304.212 296.543 304.328 295.307 304.328 294.14C304.328 292.367 304.048 290.71 303.488 289.17C302.975 287.63 302.065 286.393 300.758 285.46C299.498 284.527 297.702 284.06 295.368 284.06C294.342 284.06 293.478 284.153 292.778 284.34V304.85C293.105 304.897 293.408 304.943 293.688 304.99C293.968 304.99 294.272 304.99 294.598 304.99ZM340.978 328.79C335.004 328.79 330.268 327.157 326.768 323.89C323.268 320.623 321.518 315.817 321.518 309.47V286.93C321.518 285.67 321.191 284.783 320.538 284.27C319.884 283.71 318.764 283.43 317.178 283.43C317.178 281.657 317.714 280.187 318.788 279.02H336.288C337.361 280.187 337.898 281.657 337.898 283.43C336.311 283.43 335.191 283.71 334.538 284.27C333.884 284.783 333.558 285.67 333.558 286.93V310.94C333.558 314.067 334.234 316.703 335.588 318.85C336.941 320.997 339.158 322.07 342.238 322.07C344.338 322.07 345.994 321.627 347.208 320.74C348.421 319.807 349.284 318.593 349.798 317.1C350.358 315.56 350.638 313.88 350.638 312.06V286.93C350.638 285.67 350.241 284.783 349.448 284.27C348.701 283.71 347.441 283.43 345.668 283.43C345.668 282.59 345.784 281.797 346.018 281.05C346.298 280.257 346.694 279.58 347.208 279.02H362.608C363.634 280.187 364.148 281.657 364.148 283.43C362.374 283.43 361.091 283.71 360.298 284.27C359.551 284.783 359.178 285.67 359.178 286.93V308.77C359.178 315.21 357.661 320.157 354.628 323.61C351.641 327.063 347.091 328.79 340.978 328.79ZM388.221 328.86C384.254 328.86 380.567 327.927 377.161 326.06C373.754 324.193 371.024 321.37 368.971 317.59C366.917 313.763 365.891 308.98 365.891 303.24C365.891 297.733 366.801 293.137 368.621 289.45C370.487 285.763 373.054 282.987 376.321 281.12C379.634 279.207 383.461 278.25 387.801 278.25C388.827 278.25 389.994 278.39 391.301 278.67C392.607 278.95 393.751 279.323 394.731 279.79C395.197 279.557 395.827 279.347 396.621 279.16C397.414 278.927 398.207 278.717 399.001 278.53C399.841 278.343 400.494 278.25 400.961 278.25C401.567 279.743 402.011 281.517 402.291 283.57C402.571 285.577 402.757 287.583 402.851 289.59C402.944 291.55 402.991 293.23 402.991 294.63H395.081C394.707 291.597 393.867 289.123 392.561 287.21C391.301 285.297 389.644 284.34 387.591 284.34C384.884 284.34 382.644 285.623 380.871 288.19C379.144 290.757 378.281 294.957 378.281 300.79C378.281 305.597 378.934 309.447 380.241 312.34C381.547 315.187 383.274 317.24 385.421 318.5C387.567 319.713 389.877 320.32 392.351 320.32C394.497 320.32 396.317 319.923 397.811 319.13C399.304 318.29 400.354 317.427 400.961 316.54C401.567 316.96 402.034 317.613 402.361 318.5C402.734 319.34 402.921 320.087 402.921 320.74C402.921 321.813 402.337 323.003 401.171 324.31C400.051 325.57 398.394 326.643 396.201 327.53C394.054 328.417 391.394 328.86 388.221 328.86ZM412.684 328.79C410.537 328.79 408.811 328.16 407.504 326.9C406.197 325.593 405.544 323.913 405.544 321.86C405.544 319.76 406.197 318.08 407.504 316.82C408.811 315.56 410.537 314.93 412.684 314.93C414.784 314.93 416.487 315.56 417.794 316.82C419.101 318.08 419.754 319.76 419.754 321.86C419.754 323.913 419.101 325.593 417.794 326.9C416.487 328.16 414.784 328.79 412.684 328.79Z" fill="#0760DE"/>
</svg>
