<svg width="137" height="51" viewBox="0 0 137 51" fill="none" xmlns="http://www.w3.org/2000/svg">
<path d="M1.47725 0.363636L4.93179 10.1591H5.06815L8.5227 0.363636H9.99997L5.72725 12H4.2727L-2.77162e-05 0.363636H1.47725ZM14.4772 12.1818C13.6363 12.1818 12.911 11.9962 12.3011 11.625C11.695 11.25 11.2272 10.7273 10.8977 10.0568C10.5719 9.38258 10.4091 8.59848 10.4091 7.70455C10.4091 6.81061 10.5719 6.02273 10.8977 5.34091C11.2272 4.6553 11.6856 4.12121 12.2727 3.73864C12.8636 3.35227 13.553 3.15909 14.3409 3.15909C14.7954 3.15909 15.2443 3.23485 15.6875 3.38636C16.1307 3.53788 16.5341 3.78409 16.8977 4.125C17.2613 4.46212 17.5511 4.90909 17.767 5.46591C17.9829 6.02273 18.0909 6.70833 18.0909 7.52273V8.09091H11.3636V6.93182H16.7272C16.7272 6.43939 16.6288 6 16.4318 5.61364C16.2386 5.22727 15.9621 4.92235 15.6022 4.69886C15.2462 4.47538 14.8257 4.36364 14.3409 4.36364C13.8068 4.36364 13.3447 4.49621 12.9545 4.76136C12.5682 5.02273 12.2708 5.36364 12.0625 5.78409C11.8541 6.20455 11.75 6.6553 11.75 7.13636V7.90909C11.75 8.56818 11.8636 9.12689 12.0909 9.58523C12.3219 10.0398 12.642 10.3864 13.0511 10.625C13.4602 10.8598 13.9356 10.9773 14.4772 10.9773C14.8295 10.9773 15.1477 10.928 15.4318 10.8295C15.7197 10.7273 15.9678 10.5758 16.1761 10.375C16.3844 10.1705 16.5454 9.91667 16.6591 9.61364L17.9545 9.97727C17.8182 10.4167 17.589 10.803 17.267 11.1364C16.945 11.4659 16.5473 11.7235 16.0738 11.9091C15.6004 12.0909 15.0682 12.1818 14.4772 12.1818ZM20.1307 3.27273H21.4716V12.6364C21.4716 13.1742 21.3788 13.6402 21.1932 14.0341C21.0113 14.428 20.7348 14.733 20.3636 14.9489C19.9962 15.1648 19.5322 15.2727 18.9716 15.2727C18.9261 15.2727 18.8807 15.2727 18.8352 15.2727C18.7897 15.2727 18.7443 15.2727 18.6988 15.2727V14.0227C18.7443 14.0227 18.786 14.0227 18.8238 14.0227C18.8617 14.0227 18.9034 14.0227 18.9488 14.0227C19.3579 14.0227 19.6572 13.9015 19.8466 13.6591C20.036 13.4205 20.1307 13.0795 20.1307 12.6364V3.27273ZM20.7897 1.81818C20.5284 1.81818 20.303 1.72917 20.1136 1.55114C19.928 1.37311 19.8352 1.15909 19.8352 0.909091C19.8352 0.659091 19.928 0.445076 20.1136 0.267045C20.303 0.089015 20.5284 0 20.7897 0C21.0511 0 21.2746 0.089015 21.4602 0.267045C21.6496 0.445076 21.7443 0.659091 21.7443 0.909091C21.7443 1.15909 21.6496 1.37311 21.4602 1.55114C21.2746 1.72917 21.0511 1.81818 20.7897 1.81818ZM26.4957 12.2045C25.9427 12.2045 25.4408 12.1004 24.99 11.892C24.5393 11.6799 24.1813 11.375 23.9162 10.9773C23.651 10.5758 23.5184 10.0909 23.5184 9.52273C23.5184 9.02273 23.6169 8.61742 23.8139 8.30682C24.0109 7.99242 24.2741 7.74621 24.6037 7.56818C24.9332 7.39015 25.2968 7.25758 25.6946 7.17045C26.0961 7.07955 26.4995 7.00758 26.9048 6.95455C27.4351 6.88636 27.865 6.83523 28.1946 6.80114C28.5279 6.76326 28.7703 6.70076 28.9218 6.61364C29.0772 6.52652 29.1548 6.375 29.1548 6.15909V6.11364C29.1548 5.55303 29.0014 5.11742 28.6946 4.80682C28.3915 4.49621 27.9313 4.34091 27.3139 4.34091C26.6737 4.34091 26.1718 4.48106 25.8082 4.76136C25.4446 5.04167 25.1889 5.34091 25.0412 5.65909L23.7684 5.20455C23.9957 4.67424 24.2987 4.26136 24.6775 3.96591C25.0601 3.66667 25.4768 3.45833 25.9275 3.34091C26.3821 3.2197 26.829 3.15909 27.2684 3.15909C27.5487 3.15909 27.8707 3.19318 28.2343 3.26136C28.6018 3.32576 28.9559 3.46023 29.2968 3.66477C29.6415 3.86932 29.9275 4.17803 30.1548 4.59091C30.3821 5.00379 30.4957 5.55682 30.4957 6.25V12H29.1548V10.8182H29.0866C28.9957 11.0076 28.8442 11.2102 28.6321 11.4261C28.42 11.642 28.1378 11.8258 27.7855 11.9773C27.4332 12.1288 27.0033 12.2045 26.4957 12.2045ZM26.7003 11C27.2306 11 27.6775 10.8958 28.0412 10.6875C28.4086 10.4792 28.6851 10.2102 28.8707 9.88068C29.0601 9.55114 29.1548 9.20455 29.1548 8.84091V7.61364C29.098 7.68182 28.973 7.74432 28.7798 7.80114C28.5904 7.85417 28.3707 7.90151 28.1207 7.94318C27.8745 7.98106 27.634 8.01515 27.3991 8.04545C27.1681 8.07197 26.9806 8.0947 26.8366 8.11364C26.4881 8.15909 26.1624 8.23295 25.8593 8.33523C25.5601 8.43371 25.3177 8.58333 25.1321 8.78409C24.9503 8.98106 24.8593 9.25 24.8593 9.59091C24.8593 10.0568 25.0317 10.4091 25.3764 10.6477C25.7249 10.8826 26.1662 11 26.7003 11ZM40.9886 12.1818C40.2007 12.1818 39.5094 11.9943 38.9147 11.6193C38.3238 11.2443 37.8617 10.7197 37.5284 10.0455C37.1988 9.37121 37.0341 8.58333 37.0341 7.68182C37.0341 6.77273 37.1988 5.97917 37.5284 5.30114C37.8617 4.62311 38.3238 4.09659 38.9147 3.72159C39.5094 3.34659 40.2007 3.15909 40.9886 3.15909C41.7765 3.15909 42.4659 3.34659 43.0568 3.72159C43.6515 4.09659 44.1136 4.62311 44.4432 5.30114C44.7765 5.97917 44.9432 6.77273 44.9432 7.68182C44.9432 8.58333 44.7765 9.37121 44.4432 10.0455C44.1136 10.7197 43.6515 11.2443 43.0568 11.6193C42.4659 11.9943 41.7765 12.1818 40.9886 12.1818ZM40.9886 10.9773C41.5871 10.9773 42.0795 10.8239 42.4659 10.517C42.8522 10.2102 43.1382 9.80682 43.3238 9.30682C43.5094 8.80682 43.6022 8.26515 43.6022 7.68182C43.6022 7.09848 43.5094 6.55492 43.3238 6.05114C43.1382 5.54735 42.8522 5.14015 42.4659 4.82955C42.0795 4.51894 41.5871 4.36364 40.9886 4.36364C40.3901 4.36364 39.8977 4.51894 39.5113 4.82955C39.125 5.14015 38.839 5.54735 38.6534 6.05114C38.4678 6.55492 38.375 7.09848 38.375 7.68182C38.375 8.26515 38.4678 8.80682 38.6534 9.30682C38.839 9.80682 39.125 10.2102 39.5113 10.517C39.8977 10.8239 40.3901 10.9773 40.9886 10.9773ZM51.49 12V3.27273H52.7855V4.59091H52.8764C53.0355 4.15909 53.3234 3.80871 53.74 3.53977C54.1567 3.27083 54.6264 3.13636 55.1491 3.13636C55.2476 3.13636 55.3707 3.13826 55.5184 3.14205C55.6662 3.14583 55.7779 3.15152 55.8537 3.15909V4.52273C55.8082 4.51136 55.704 4.49432 55.5412 4.47159C55.3821 4.44508 55.2135 4.43182 55.0355 4.43182C54.6112 4.43182 54.2325 4.52083 53.8991 4.69886C53.5696 4.87311 53.3082 5.11553 53.115 5.42614C52.9256 5.73295 52.8309 6.08333 52.8309 6.47727V12H51.49ZM60.8366 12.1818C59.9957 12.1818 59.2703 11.9962 58.6605 11.625C58.0544 11.25 57.5866 10.7273 57.2571 10.0568C56.9313 9.38258 56.7684 8.59848 56.7684 7.70455C56.7684 6.81061 56.9313 6.02273 57.2571 5.34091C57.5866 4.6553 58.045 4.12121 58.6321 3.73864C59.223 3.35227 59.9124 3.15909 60.7003 3.15909C61.1548 3.15909 61.6037 3.23485 62.0468 3.38636C62.49 3.53788 62.8934 3.78409 63.2571 4.125C63.6207 4.46212 63.9105 4.90909 64.1264 5.46591C64.3423 6.02273 64.4503 6.70833 64.4503 7.52273V8.09091H57.723V6.93182H63.0866C63.0866 6.43939 62.9881 6 62.7912 5.61364C62.598 5.22727 62.3215 4.92235 61.9616 4.69886C61.6056 4.47538 61.1851 4.36364 60.7003 4.36364C60.1662 4.36364 59.704 4.49621 59.3139 4.76136C58.9275 5.02273 58.6302 5.36364 58.4218 5.78409C58.2135 6.20455 58.1093 6.6553 58.1093 7.13636V7.90909C58.1093 8.56818 58.223 9.12689 58.4503 9.58523C58.6813 10.0398 59.0014 10.3864 59.4105 10.625C59.8196 10.8598 60.295 10.9773 60.8366 10.9773C61.1889 10.9773 61.5071 10.928 61.7912 10.8295C62.079 10.7273 62.3272 10.5758 62.5355 10.375C62.7438 10.1705 62.9048 9.91667 63.0184 9.61364L64.3139 9.97727C64.1775 10.4167 63.9484 10.803 63.6264 11.1364C63.3044 11.4659 62.9067 11.7235 62.4332 11.9091C61.9597 12.0909 61.4275 12.1818 60.8366 12.1818ZM72.6718 5.22727L71.4673 5.56818C71.3915 5.36742 71.2798 5.17235 71.1321 4.98295C70.9881 4.78977 70.7912 4.63068 70.5412 4.50568C70.2912 4.38068 69.9711 4.31818 69.5809 4.31818C69.0468 4.31818 68.6018 4.44129 68.2457 4.6875C67.8934 4.92992 67.7173 5.23864 67.7173 5.61364C67.7173 5.94697 67.8385 6.21023 68.0809 6.40341C68.3234 6.59659 68.7022 6.75758 69.2173 6.88636L70.5128 7.20455C71.2931 7.39394 71.8745 7.68371 72.2571 8.07386C72.6397 8.46023 72.8309 8.95833 72.8309 9.56818C72.8309 10.0682 72.687 10.5152 72.3991 10.9091C72.115 11.303 71.7173 11.6136 71.2059 11.8409C70.6946 12.0682 70.0999 12.1818 69.4218 12.1818C68.5317 12.1818 67.795 11.9886 67.2116 11.6023C66.6283 11.2159 66.259 10.6515 66.1037 9.90909L67.3764 9.59091C67.4976 10.0606 67.7268 10.4129 68.0639 10.6477C68.4048 10.8826 68.8499 11 69.3991 11C70.0241 11 70.5203 10.8674 70.8878 10.6023C71.259 10.3333 71.4446 10.0114 71.4446 9.63636C71.4446 9.33333 71.3385 9.07955 71.1264 8.875C70.9143 8.66667 70.5885 8.51136 70.1491 8.40909L68.6946 8.06818C67.8953 7.87879 67.3082 7.58523 66.9332 7.1875C66.562 6.78598 66.3764 6.28409 66.3764 5.68182C66.3764 5.18939 66.5147 4.75379 66.7912 4.375C67.0715 3.99621 67.4522 3.69886 67.9332 3.48295C68.4181 3.26705 68.9673 3.15909 69.5809 3.15909C70.4446 3.15909 71.1226 3.34848 71.615 3.72727C72.1112 4.10606 72.4635 4.60606 72.6718 5.22727ZM78.6449 3.27273V4.40909H74.1221V3.27273H78.6449ZM75.4403 1.18182H76.7812V9.5C76.7812 9.87879 76.8361 10.1629 76.946 10.3523C77.0596 10.5379 77.2036 10.6629 77.3778 10.7273C77.5558 10.7879 77.7433 10.8182 77.9403 10.8182C78.088 10.8182 78.2093 10.8106 78.3039 10.7955C78.3986 10.7765 78.4744 10.7614 78.5312 10.75L78.8039 11.9545C78.713 11.9886 78.5861 12.0227 78.4233 12.0568C78.2604 12.0947 78.0539 12.1136 77.8039 12.1136C77.4252 12.1136 77.0539 12.0322 76.6903 11.8693C76.3305 11.7064 76.0312 11.4583 75.7926 11.125C75.5577 10.7917 75.4403 10.3712 75.4403 9.86364V1.18182ZM83.2301 12.2045C82.6771 12.2045 82.1752 12.1004 81.7244 11.892C81.2736 11.6799 80.9157 11.375 80.6505 10.9773C80.3854 10.5758 80.2528 10.0909 80.2528 9.52273C80.2528 9.02273 80.3513 8.61742 80.5483 8.30682C80.7452 7.99242 81.0085 7.74621 81.338 7.56818C81.6676 7.39015 82.0312 7.25758 82.4289 7.17045C82.8305 7.07955 83.2339 7.00758 83.6392 6.95455C84.1695 6.88636 84.5994 6.83523 84.9289 6.80114C85.2623 6.76326 85.5047 6.70076 85.6562 6.61364C85.8115 6.52652 85.8892 6.375 85.8892 6.15909V6.11364C85.8892 5.55303 85.7358 5.11742 85.4289 4.80682C85.1259 4.49621 84.6657 4.34091 84.0483 4.34091C83.4081 4.34091 82.9062 4.48106 82.5426 4.76136C82.1789 5.04167 81.9233 5.34091 81.7755 5.65909L80.5028 5.20455C80.7301 4.67424 81.0331 4.26136 81.4119 3.96591C81.7945 3.66667 82.2111 3.45833 82.6619 3.34091C83.1164 3.2197 83.5634 3.15909 84.0028 3.15909C84.2831 3.15909 84.6051 3.19318 84.9687 3.26136C85.3361 3.32576 85.6903 3.46023 86.0312 3.66477C86.3759 3.86932 86.6619 4.17803 86.8892 4.59091C87.1164 5.00379 87.2301 5.55682 87.2301 6.25V12H85.8892V10.8182H85.821C85.7301 11.0076 85.5786 11.2102 85.3664 11.4261C85.1543 11.642 84.8721 11.8258 84.5199 11.9773C84.1676 12.1288 83.7377 12.2045 83.2301 12.2045ZM83.4346 11C83.9649 11 84.4119 10.8958 84.7755 10.6875C85.143 10.4792 85.4195 10.2102 85.6051 9.88068C85.7945 9.55114 85.8892 9.20455 85.8892 8.84091V7.61364C85.8324 7.68182 85.7074 7.74432 85.5142 7.80114C85.3248 7.85417 85.1051 7.90151 84.8551 7.94318C84.6089 7.98106 84.3683 8.01515 84.1335 8.04545C83.9024 8.07197 83.7149 8.0947 83.571 8.11364C83.2225 8.15909 82.8968 8.23295 82.5937 8.33523C82.2945 8.43371 82.0521 8.58333 81.8664 8.78409C81.6846 8.98106 81.5937 9.25 81.5937 9.59091C81.5937 10.0568 81.7661 10.4091 82.1108 10.6477C82.4593 10.8826 82.9005 11 83.4346 11ZM95.1775 8.43182V3.27273H96.5184V12H95.1775V10.5227H95.0866C94.8821 10.9659 94.5639 11.3428 94.1321 11.6534C93.7003 11.9602 93.1548 12.1136 92.4957 12.1136C91.9503 12.1136 91.4654 11.9943 91.0412 11.7557C90.6169 11.5133 90.2836 11.1496 90.0412 10.6648C89.7987 10.1761 89.6775 9.56061 89.6775 8.81818V3.27273H91.0184V8.72727C91.0184 9.36364 91.1965 9.87121 91.5525 10.25C91.9124 10.6288 92.3707 10.8182 92.9275 10.8182C93.2609 10.8182 93.5999 10.733 93.9446 10.5625C94.2931 10.392 94.5847 10.1307 94.8196 9.77841C95.0582 9.42614 95.1775 8.97727 95.1775 8.43182ZM98.9744 12V3.27273H100.27V4.59091H100.361C100.52 4.15909 100.808 3.80871 101.224 3.53977C101.641 3.27083 102.111 3.13636 102.633 3.13636C102.732 3.13636 102.855 3.13826 103.003 3.14205C103.151 3.14583 103.262 3.15152 103.338 3.15909V4.52273C103.293 4.51136 103.188 4.49432 103.026 4.47159C102.866 4.44508 102.698 4.43182 102.52 4.43182C102.096 4.43182 101.717 4.52083 101.383 4.69886C101.054 4.87311 100.793 5.11553 100.599 5.42614C100.41 5.73295 100.315 6.08333 100.315 6.47727V12H98.9744ZM107.496 12.2045C106.943 12.2045 106.441 12.1004 105.99 11.892C105.539 11.6799 105.181 11.375 104.916 10.9773C104.651 10.5758 104.518 10.0909 104.518 9.52273C104.518 9.02273 104.617 8.61742 104.814 8.30682C105.011 7.99242 105.274 7.74621 105.604 7.56818C105.933 7.39015 106.297 7.25758 106.695 7.17045C107.096 7.07955 107.499 7.00758 107.905 6.95455C108.435 6.88636 108.865 6.83523 109.195 6.80114C109.528 6.76326 109.77 6.70076 109.922 6.61364C110.077 6.52652 110.155 6.375 110.155 6.15909V6.11364C110.155 5.55303 110.001 5.11742 109.695 4.80682C109.392 4.49621 108.931 4.34091 108.314 4.34091C107.674 4.34091 107.172 4.48106 106.808 4.76136C106.445 5.04167 106.189 5.34091 106.041 5.65909L104.768 5.20455C104.996 4.67424 105.299 4.26136 105.678 3.96591C106.06 3.66667 106.477 3.45833 106.928 3.34091C107.382 3.2197 107.829 3.15909 108.268 3.15909C108.549 3.15909 108.871 3.19318 109.234 3.26136C109.602 3.32576 109.956 3.46023 110.297 3.66477C110.642 3.86932 110.928 4.17803 111.155 4.59091C111.382 5.00379 111.496 5.55682 111.496 6.25V12H110.155V10.8182H110.087C109.996 11.0076 109.844 11.2102 109.632 11.4261C109.42 11.642 109.138 11.8258 108.785 11.9773C108.433 12.1288 108.003 12.2045 107.496 12.2045ZM107.7 11C108.231 11 108.678 10.8958 109.041 10.6875C109.409 10.4792 109.685 10.2102 109.871 9.88068C110.06 9.55114 110.155 9.20455 110.155 8.84091V7.61364C110.098 7.68182 109.973 7.74432 109.78 7.80114C109.59 7.85417 109.371 7.90151 109.121 7.94318C108.874 7.98106 108.634 8.01515 108.399 8.04545C108.168 8.07197 107.981 8.0947 107.837 8.11364C107.488 8.15909 107.162 8.23295 106.859 8.33523C106.56 8.43371 106.318 8.58333 106.132 8.78409C105.95 8.98106 105.859 9.25 105.859 9.59091C105.859 10.0568 106.032 10.4091 106.376 10.6477C106.725 10.8826 107.166 11 107.7 11ZM115.284 6.75V12H113.943V3.27273H115.239V4.63636H115.352C115.557 4.19318 115.867 3.83712 116.284 3.56818C116.701 3.29545 117.239 3.15909 117.898 3.15909C118.489 3.15909 119.006 3.2803 119.449 3.52273C119.892 3.76136 120.237 4.125 120.483 4.61364C120.729 5.09848 120.852 5.71212 120.852 6.45455V12H119.511V6.54545C119.511 5.85985 119.333 5.32576 118.977 4.94318C118.621 4.55682 118.133 4.36364 117.511 4.36364C117.083 4.36364 116.701 4.45644 116.364 4.64205C116.03 4.82765 115.767 5.09848 115.574 5.45455C115.381 5.81061 115.284 6.24242 115.284 6.75ZM127.098 3.27273V4.40909H122.575V3.27273H127.098ZM123.893 1.18182H125.234V9.5C125.234 9.87879 125.289 10.1629 125.399 10.3523C125.513 10.5379 125.657 10.6629 125.831 10.7273C126.009 10.7879 126.196 10.8182 126.393 10.8182C126.541 10.8182 126.662 10.8106 126.757 10.7955C126.852 10.7765 126.928 10.7614 126.984 10.75L127.257 11.9545C127.166 11.9886 127.039 12.0227 126.876 12.0568C126.714 12.0947 126.507 12.1136 126.257 12.1136C125.878 12.1136 125.507 12.0322 125.143 11.8693C124.784 11.7064 124.484 11.4583 124.246 11.125C124.011 10.7917 123.893 10.3712 123.893 9.86364V1.18182ZM132.68 12.1818C131.839 12.1818 131.114 11.9962 130.504 11.625C129.898 11.25 129.43 10.7273 129.101 10.0568C128.775 9.38258 128.612 8.59848 128.612 7.70455C128.612 6.81061 128.775 6.02273 129.101 5.34091C129.43 4.6553 129.889 4.12121 130.476 3.73864C131.067 3.35227 131.756 3.15909 132.544 3.15909C132.999 3.15909 133.447 3.23485 133.891 3.38636C134.334 3.53788 134.737 3.78409 135.101 4.125C135.464 4.46212 135.754 4.90909 135.97 5.46591C136.186 6.02273 136.294 6.70833 136.294 7.52273V8.09091H129.567V6.93182H134.93C134.93 6.43939 134.832 6 134.635 5.61364C134.442 5.22727 134.165 4.92235 133.805 4.69886C133.449 4.47538 133.029 4.36364 132.544 4.36364C132.01 4.36364 131.548 4.49621 131.158 4.76136C130.771 5.02273 130.474 5.36364 130.266 5.78409C130.057 6.20455 129.953 6.6553 129.953 7.13636V7.90909C129.953 8.56818 130.067 9.12689 130.294 9.58523C130.525 10.0398 130.845 10.3864 131.254 10.625C131.663 10.8598 132.139 10.9773 132.68 10.9773C133.033 10.9773 133.351 10.928 133.635 10.8295C133.923 10.7273 134.171 10.5758 134.379 10.375C134.588 10.1705 134.749 9.91667 134.862 9.61364L136.158 9.97727C136.021 10.4167 135.792 10.803 135.47 11.1364C135.148 11.4659 134.75 11.7235 134.277 11.9091C133.803 12.0909 133.271 12.1818 132.68 12.1818ZM0.818154 31V22.2727H2.11361V23.6364H2.22725C2.40906 23.1705 2.70262 22.8087 3.10793 22.5511C3.51323 22.2898 3.99997 22.1591 4.56815 22.1591C5.14391 22.1591 5.62308 22.2898 6.00565 22.5511C6.39202 22.8087 6.69315 23.1705 6.90906 23.6364H6.99997C7.22346 23.1856 7.55868 22.8277 8.00565 22.5625C8.45262 22.2936 8.98861 22.1591 9.61361 22.1591C10.3939 22.1591 11.0322 22.4034 11.5284 22.892C12.0246 23.3769 12.2727 24.1326 12.2727 25.1591V31H10.9318V25.1591C10.9318 24.5152 10.7557 24.0549 10.4034 23.7784C10.0511 23.5019 9.63634 23.3636 9.15906 23.3636C8.54543 23.3636 8.07005 23.5492 7.73293 23.9205C7.39581 24.2879 7.22725 24.7538 7.22725 25.3182V31H5.86361V25.0227C5.86361 24.5265 5.70262 24.1269 5.38065 23.8239C5.05868 23.517 4.64391 23.3636 4.13634 23.3636C3.78785 23.3636 3.46209 23.4564 3.15906 23.642C2.85982 23.8277 2.6174 24.0852 2.43179 24.4148C2.24997 24.7405 2.15906 25.1174 2.15906 25.5455V31H0.818154ZM17.2926 31.2045C16.7396 31.2045 16.2377 31.1004 15.7869 30.892C15.3361 30.6799 14.9782 30.375 14.713 29.9773C14.4479 29.5758 14.3153 29.0909 14.3153 28.5227C14.3153 28.0227 14.4138 27.6174 14.6108 27.3068C14.8077 26.9924 15.071 26.7462 15.4005 26.5682C15.7301 26.3902 16.0937 26.2576 16.4914 26.1705C16.893 26.0795 17.2964 26.0076 17.7017 25.9545C18.232 25.8864 18.6619 25.8352 18.9914 25.8011C19.3248 25.7633 19.5672 25.7008 19.7187 25.6136C19.874 25.5265 19.9517 25.375 19.9517 25.1591V25.1136C19.9517 24.553 19.7983 24.1174 19.4914 23.8068C19.1884 23.4962 18.7282 23.3409 18.1108 23.3409C17.4706 23.3409 16.9687 23.4811 16.6051 23.7614C16.2414 24.0417 15.9858 24.3409 15.838 24.6591L14.5653 24.2045C14.7926 23.6742 15.0956 23.2614 15.4744 22.9659C15.857 22.6667 16.2736 22.4583 16.7244 22.3409C17.1789 22.2197 17.6259 22.1591 18.0653 22.1591C18.3456 22.1591 18.6676 22.1932 19.0312 22.2614C19.3986 22.3258 19.7528 22.4602 20.0937 22.6648C20.4384 22.8693 20.7244 23.178 20.9517 23.5909C21.1789 24.0038 21.2926 24.5568 21.2926 25.25V31H19.9517V29.8182H19.8835C19.7926 30.0076 19.6411 30.2102 19.4289 30.4261C19.2168 30.642 18.9346 30.8258 18.5824 30.9773C18.2301 31.1288 17.8002 31.2045 17.2926 31.2045ZM17.4971 30C18.0274 30 18.4744 29.8958 18.838 29.6875C19.2055 29.4792 19.482 29.2102 19.6676 28.8807C19.857 28.5511 19.9517 28.2045 19.9517 27.8409V26.6136C19.8949 26.6818 19.7699 26.7443 19.5767 26.8011C19.3873 26.8542 19.1676 26.9015 18.9176 26.9432C18.6714 26.9811 18.4308 27.0152 18.196 27.0455C17.9649 27.072 17.7774 27.0947 17.6335 27.1136C17.285 27.1591 16.9593 27.233 16.6562 27.3352C16.357 27.4337 16.1146 27.5833 15.9289 27.7841C15.7471 27.9811 15.6562 28.25 15.6562 28.5909C15.6562 29.0568 15.8286 29.4091 16.1733 29.6477C16.5218 29.8826 16.963 30 17.4971 30ZM23.74 31V22.2727H25.0809V31H23.74ZM24.4218 20.8182C24.1605 20.8182 23.9351 20.7292 23.7457 20.5511C23.5601 20.3731 23.4673 20.1591 23.4673 19.9091C23.4673 19.6591 23.5601 19.4451 23.7457 19.267C23.9351 19.089 24.1605 19 24.4218 19C24.6832 19 24.9067 19.089 25.0923 19.267C25.2817 19.4451 25.3764 19.6591 25.3764 19.9091C25.3764 20.1591 25.2817 20.3731 25.0923 20.5511C24.9067 20.7292 24.6832 20.8182 24.4218 20.8182ZM33.7187 24.2273L32.5142 24.5682C32.4384 24.3674 32.3267 24.1723 32.1789 23.983C32.035 23.7898 31.838 23.6307 31.588 23.5057C31.338 23.3807 31.018 23.3182 30.6278 23.3182C30.0937 23.3182 29.6486 23.4413 29.2926 23.6875C28.9403 23.9299 28.7642 24.2386 28.7642 24.6136C28.7642 24.947 28.8854 25.2102 29.1278 25.4034C29.3702 25.5966 29.749 25.7576 30.2642 25.8864L31.5596 26.2045C32.3399 26.3939 32.9214 26.6837 33.3039 27.0739C33.6865 27.4602 33.8778 27.9583 33.8778 28.5682C33.8778 29.0682 33.7339 29.5152 33.446 29.9091C33.1619 30.303 32.7642 30.6136 32.2528 30.8409C31.7414 31.0682 31.1468 31.1818 30.4687 31.1818C29.5786 31.1818 28.8418 30.9886 28.2585 30.6023C27.6752 30.2159 27.3058 29.6515 27.1505 28.9091L28.4233 28.5909C28.5445 29.0606 28.7736 29.4129 29.1108 29.6477C29.4517 29.8826 29.8968 30 30.446 30C31.071 30 31.5672 29.8674 31.9346 29.6023C32.3058 29.3333 32.4914 29.0114 32.4914 28.6364C32.4914 28.3333 32.3854 28.0795 32.1733 27.875C31.9611 27.6667 31.6354 27.5114 31.196 27.4091L29.7414 27.0682C28.9422 26.8788 28.3551 26.5852 27.9801 26.1875C27.6089 25.786 27.4233 25.2841 27.4233 24.6818C27.4233 24.1894 27.5615 23.7538 27.838 23.375C28.1183 22.9962 28.499 22.6989 28.9801 22.483C29.4649 22.267 30.0142 22.1591 30.6278 22.1591C31.4914 22.1591 32.1695 22.3485 32.6619 22.7273C33.1581 23.1061 33.5104 23.6061 33.7187 24.2273ZM40.3963 34.2727V22.2727H41.6917V23.6591H41.8508C41.9493 23.5076 42.0857 23.3144 42.2599 23.0795C42.4379 22.8409 42.6917 22.6288 43.0213 22.4432C43.3546 22.2538 43.8054 22.1591 44.3736 22.1591C45.1084 22.1591 45.7561 22.3428 46.3167 22.7102C46.8773 23.0777 47.3148 23.5985 47.6292 24.2727C47.9436 24.947 48.1008 25.7424 48.1008 26.6591C48.1008 27.5833 47.9436 28.3845 47.6292 29.0625C47.3148 29.7367 46.8792 30.2595 46.3224 30.6307C45.7656 30.9981 45.1236 31.1818 44.3963 31.1818C43.8357 31.1818 43.3868 31.089 43.0497 30.9034C42.7126 30.714 42.4531 30.5 42.2713 30.2614C42.0895 30.0189 41.9493 29.8182 41.8508 29.6591H41.7372V34.2727H40.3963ZM41.7145 26.6364C41.7145 27.2955 41.8111 27.8769 42.0042 28.3807C42.1974 28.8807 42.4796 29.2727 42.8508 29.5568C43.222 29.8371 43.6766 29.9773 44.2145 29.9773C44.7751 29.9773 45.2429 29.8295 45.6179 29.5341C45.9967 29.2348 46.2807 28.8333 46.4701 28.3295C46.6633 27.822 46.7599 27.2576 46.7599 26.6364C46.7599 26.0227 46.6652 25.4697 46.4758 24.9773C46.2902 24.4811 46.008 24.089 45.6292 23.8011C45.2542 23.5095 44.7826 23.3636 44.2145 23.3636C43.669 23.3636 43.2107 23.5019 42.8395 23.7784C42.4682 24.0511 42.1879 24.4337 41.9986 24.9261C41.8092 25.4148 41.7145 25.9848 41.7145 26.6364ZM50.1463 31V22.2727H51.4417V23.5909H51.5326C51.6917 23.1591 51.9796 22.8087 52.3963 22.5398C52.8129 22.2708 53.2826 22.1364 53.8054 22.1364C53.9039 22.1364 54.027 22.1383 54.1747 22.142C54.3224 22.1458 54.4342 22.1515 54.5099 22.1591V23.5227C54.4645 23.5114 54.3603 23.4943 54.1974 23.4716C54.0383 23.4451 53.8698 23.4318 53.6917 23.4318C53.2675 23.4318 52.8887 23.5208 52.5554 23.6989C52.2258 23.8731 51.9645 24.1155 51.7713 24.4261C51.5819 24.733 51.4872 25.0833 51.4872 25.4773V31H50.1463ZM59.3792 31.1818C58.5914 31.1818 57.9001 30.9943 57.3054 30.6193C56.7145 30.2443 56.2523 29.7197 55.919 29.0455C55.5895 28.3712 55.4247 27.5833 55.4247 26.6818C55.4247 25.7727 55.5895 24.9792 55.919 24.3011C56.2523 23.6231 56.7145 23.0966 57.3054 22.7216C57.9001 22.3466 58.5914 22.1591 59.3792 22.1591C60.1671 22.1591 60.8565 22.3466 61.4474 22.7216C62.0421 23.0966 62.5042 23.6231 62.8338 24.3011C63.1671 24.9792 63.3338 25.7727 63.3338 26.6818C63.3338 27.5833 63.1671 28.3712 62.8338 29.0455C62.5042 29.7197 62.0421 30.2443 61.4474 30.6193C60.8565 30.9943 60.1671 31.1818 59.3792 31.1818ZM59.3792 29.9773C59.9777 29.9773 60.4701 29.8239 60.8565 29.517C61.2429 29.2102 61.5289 28.8068 61.7145 28.3068C61.9001 27.8068 61.9929 27.2652 61.9929 26.6818C61.9929 26.0985 61.9001 25.5549 61.7145 25.0511C61.5289 24.5473 61.2429 24.1402 60.8565 23.8295C60.4701 23.5189 59.9777 23.3636 59.3792 23.3636C58.7807 23.3636 58.2883 23.5189 57.902 23.8295C57.5156 24.1402 57.2296 24.5473 57.044 25.0511C56.8584 25.5549 56.7656 26.0985 56.7656 26.6818C56.7656 27.2652 56.8584 27.8068 57.044 28.3068C57.2296 28.8068 57.5156 29.2102 57.902 29.517C58.2883 29.8239 58.7807 29.9773 59.3792 29.9773ZM58.7656 21.0909L60.152 18.4545H61.7201L59.9474 21.0909H58.7656ZM66.0213 22.2727L68.1122 25.8409L70.2031 22.2727H71.7486L68.9304 26.6364L71.7486 31H70.2031L68.1122 27.6136L66.0213 31H64.4758L67.2486 26.6364L64.4758 22.2727H66.0213ZM73.6619 31V22.2727H75.0028V31H73.6619ZM74.3437 20.8182C74.0824 20.8182 73.857 20.7292 73.6676 20.5511C73.482 20.3731 73.3892 20.1591 73.3892 19.9091C73.3892 19.6591 73.482 19.4451 73.6676 19.267C73.857 19.089 74.0824 19 74.3437 19C74.6051 19 74.8286 19.089 75.0142 19.267C75.2036 19.4451 75.2983 19.6591 75.2983 19.9091C75.2983 20.1591 75.2036 20.3731 75.0142 20.5511C74.8286 20.7292 74.6051 20.8182 74.3437 20.8182ZM77.4588 31V22.2727H78.7542V23.6364H78.8679C79.0497 23.1705 79.3432 22.8087 79.7486 22.5511C80.1539 22.2898 80.6406 22.1591 81.2088 22.1591C81.7845 22.1591 82.2637 22.2898 82.6463 22.5511C83.0326 22.8087 83.3338 23.1705 83.5497 23.6364H83.6406C83.8641 23.1856 84.1993 22.8277 84.6463 22.5625C85.0932 22.2936 85.6292 22.1591 86.2542 22.1591C87.0345 22.1591 87.6728 22.4034 88.169 22.892C88.6652 23.3769 88.9133 24.1326 88.9133 25.1591V31H87.5724V25.1591C87.5724 24.5152 87.3963 24.0549 87.044 23.7784C86.6917 23.5019 86.277 23.3636 85.7997 23.3636C85.1861 23.3636 84.7107 23.5492 84.3736 23.9205C84.0364 24.2879 83.8679 24.7538 83.8679 25.3182V31H82.5042V25.0227C82.5042 24.5265 82.3432 24.1269 82.0213 23.8239C81.6993 23.517 81.2845 23.3636 80.777 23.3636C80.4285 23.3636 80.1027 23.4564 79.7997 23.642C79.5004 23.8277 79.258 24.0852 79.0724 24.4148C78.8906 24.7405 78.7997 25.1174 78.7997 25.5455V31H77.4588ZM94.9105 31.1818C94.1226 31.1818 93.4313 30.9943 92.8366 30.6193C92.2457 30.2443 91.7836 29.7197 91.4503 29.0455C91.1207 28.3712 90.9559 27.5833 90.9559 26.6818C90.9559 25.7727 91.1207 24.9792 91.4503 24.3011C91.7836 23.6231 92.2457 23.0966 92.8366 22.7216C93.4313 22.3466 94.1226 22.1591 94.9105 22.1591C95.6984 22.1591 96.3878 22.3466 96.9787 22.7216C97.5734 23.0966 98.0355 23.6231 98.365 24.3011C98.6984 24.9792 98.865 25.7727 98.865 26.6818C98.865 27.5833 98.6984 28.3712 98.365 29.0455C98.0355 29.7197 97.5734 30.2443 96.9787 30.6193C96.3878 30.9943 95.6984 31.1818 94.9105 31.1818ZM94.9105 29.9773C95.509 29.9773 96.0014 29.8239 96.3878 29.517C96.7741 29.2102 97.0601 28.8068 97.2457 28.3068C97.4313 27.8068 97.5241 27.2652 97.5241 26.6818C97.5241 26.0985 97.4313 25.5549 97.2457 25.0511C97.0601 24.5473 96.7741 24.1402 96.3878 23.8295C96.0014 23.5189 95.509 23.3636 94.9105 23.3636C94.312 23.3636 93.8196 23.5189 93.4332 23.8295C93.0468 24.1402 92.7609 24.5473 92.5753 25.0511C92.3897 25.5549 92.2968 26.0985 92.2968 26.6818C92.2968 27.2652 92.3897 27.8068 92.5753 28.3068C92.7609 28.8068 93.0468 29.2102 93.4332 29.517C93.8196 29.8239 94.312 29.9773 94.9105 29.9773ZM108.707 31.1818C107.98 31.1818 107.338 30.9981 106.781 30.6307C106.224 30.2595 105.789 29.7367 105.474 29.0625C105.16 28.3845 105.003 27.5833 105.003 26.6591C105.003 25.7424 105.16 24.947 105.474 24.2727C105.789 23.5985 106.226 23.0777 106.787 22.7102C107.348 22.3428 107.995 22.1591 108.73 22.1591C109.298 22.1591 109.747 22.2538 110.077 22.4432C110.41 22.6288 110.664 22.8409 110.838 23.0795C111.016 23.3144 111.154 23.5076 111.253 23.6591H111.366V19.3636H112.707V31H111.412V29.6591H111.253C111.154 29.8182 111.014 30.0189 110.832 30.2614C110.651 30.5 110.391 30.714 110.054 30.9034C109.717 31.089 109.268 31.1818 108.707 31.1818ZM108.889 29.9773C109.427 29.9773 109.882 29.8371 110.253 29.5568C110.624 29.2727 110.906 28.8807 111.099 28.3807C111.293 27.8769 111.389 27.2955 111.389 26.6364C111.389 25.9848 111.294 25.4148 111.105 24.9261C110.916 24.4337 110.635 24.0511 110.264 23.7784C109.893 23.5019 109.435 23.3636 108.889 23.3636C108.321 23.3636 107.848 23.5095 107.469 23.8011C107.094 24.089 106.812 24.4811 106.622 24.9773C106.437 25.4697 106.344 26.0227 106.344 26.6364C106.344 27.2576 106.438 27.822 106.628 28.3295C106.821 28.8333 107.105 29.2348 107.48 29.5341C107.859 29.8295 108.329 29.9773 108.889 29.9773ZM119.008 31.1818C118.168 31.1818 117.442 30.9962 116.832 30.625C116.226 30.25 115.758 29.7273 115.429 29.0568C115.103 28.3826 114.94 27.5985 114.94 26.7045C114.94 25.8106 115.103 25.0227 115.429 24.3409C115.758 23.6553 116.217 23.1212 116.804 22.7386C117.395 22.3523 118.084 22.1591 118.872 22.1591C119.327 22.1591 119.776 22.2348 120.219 22.3864C120.662 22.5379 121.065 22.7841 121.429 23.125C121.793 23.4621 122.082 23.9091 122.298 24.4659C122.514 25.0227 122.622 25.7083 122.622 26.5227V27.0909H115.895V25.9318H121.258C121.258 25.4394 121.16 25 120.963 24.6136C120.77 24.2273 120.493 23.9223 120.133 23.6989C119.777 23.4754 119.357 23.3636 118.872 23.3636C118.338 23.3636 117.876 23.4962 117.486 23.7614C117.099 24.0227 116.802 24.3636 116.594 24.7841C116.385 25.2045 116.281 25.6553 116.281 26.1364V26.9091C116.281 27.5682 116.395 28.1269 116.622 28.5852C116.853 29.0398 117.173 29.3864 117.582 29.625C117.991 29.8598 118.467 29.9773 119.008 29.9773C119.361 29.9773 119.679 29.928 119.963 29.8295C120.251 29.7273 120.499 29.5758 120.707 29.375C120.916 29.1705 121.077 28.9167 121.19 28.6136L122.486 28.9773C122.349 29.4167 122.12 29.803 121.798 30.1364C121.476 30.4659 121.079 30.7235 120.605 30.9091C120.132 31.0909 119.599 31.1818 119.008 31.1818ZM7.95452 41.2727L4.72725 50H3.36361L0.136336 41.2727H1.59088L3.99997 48.2273H4.09088L6.49997 41.2727H7.95452ZM12.9574 50.1818C12.1695 50.1818 11.4782 49.9943 10.8835 49.6193C10.2926 49.2443 9.83046 48.7197 9.49713 48.0455C9.16759 47.3712 9.00281 46.5833 9.00281 45.6818C9.00281 44.7727 9.16759 43.9792 9.49713 43.3011C9.83046 42.6231 10.2926 42.0966 10.8835 41.7216C11.4782 41.3466 12.1695 41.1591 12.9574 41.1591C13.7452 41.1591 14.4346 41.3466 15.0255 41.7216C15.6202 42.0966 16.0824 42.6231 16.4119 43.3011C16.7452 43.9792 16.9119 44.7727 16.9119 45.6818C16.9119 46.5833 16.7452 47.3712 16.4119 48.0455C16.0824 48.7197 15.6202 49.2443 15.0255 49.6193C14.4346 49.9943 13.7452 50.1818 12.9574 50.1818ZM12.9574 48.9773C13.5558 48.9773 14.0483 48.8239 14.4346 48.517C14.821 48.2102 15.107 47.8068 15.2926 47.3068C15.4782 46.8068 15.571 46.2652 15.571 45.6818C15.571 45.0985 15.4782 44.5549 15.2926 44.0511C15.107 43.5473 14.821 43.1402 14.4346 42.8295C14.0483 42.5189 13.5558 42.3636 12.9574 42.3636C12.3589 42.3636 11.8664 42.5189 11.4801 42.8295C11.0937 43.1402 10.8077 43.5473 10.6221 44.0511C10.4365 44.5549 10.3437 45.0985 10.3437 45.6818C10.3437 46.2652 10.4365 46.8068 10.6221 47.3068C10.8077 47.8068 11.0937 48.2102 11.4801 48.517C11.8664 48.8239 12.3589 48.9773 12.9574 48.9773ZM22.5042 50.1818C21.6861 50.1818 20.9815 49.9886 20.3906 49.6023C19.7997 49.2159 19.3451 48.6837 19.027 48.0057C18.7088 47.3277 18.5497 46.553 18.5497 45.6818C18.5497 44.7955 18.7126 44.0133 19.0383 43.3352C19.3679 42.6534 19.8262 42.1212 20.4133 41.7386C21.0042 41.3523 21.6936 41.1591 22.4815 41.1591C23.0951 41.1591 23.6482 41.2727 24.1406 41.5C24.633 41.7273 25.0364 42.0455 25.3508 42.4545C25.6652 42.8636 25.8603 43.3409 25.9361 43.8864H24.5951C24.4929 43.4886 24.2656 43.1364 23.9133 42.8295C23.5648 42.5189 23.0951 42.3636 22.5042 42.3636C21.9815 42.3636 21.5232 42.5 21.1292 42.7727C20.7391 43.0417 20.4342 43.4223 20.2145 43.9148C19.9986 44.4034 19.8906 44.9773 19.8906 45.6364C19.8906 46.3106 19.9967 46.8977 20.2088 47.3977C20.4247 47.8977 20.7277 48.286 21.1179 48.5625C21.5118 48.839 21.9739 48.9773 22.5042 48.9773C22.8527 48.9773 23.169 48.9167 23.4531 48.7955C23.7372 48.6742 23.9777 48.5 24.1747 48.2727C24.3717 48.0455 24.5118 47.7727 24.5951 47.4545H25.9361C25.8603 47.9697 25.6728 48.4337 25.3736 48.8466C25.0781 49.2557 24.6861 49.5814 24.1974 49.8239C23.7126 50.0625 23.1482 50.1818 22.5042 50.1818ZM31.5554 50.1818C30.7145 50.1818 29.9891 49.9962 29.3792 49.625C28.7732 49.25 28.3054 48.7273 27.9758 48.0568C27.6501 47.3826 27.4872 46.5985 27.4872 45.7045C27.4872 44.8106 27.6501 44.0227 27.9758 43.3409C28.3054 42.6553 28.7637 42.1212 29.3508 41.7386C29.9417 41.3523 30.6311 41.1591 31.419 41.1591C31.8736 41.1591 32.3224 41.2348 32.7656 41.3864C33.2088 41.5379 33.6122 41.7841 33.9758 42.125C34.3395 42.4621 34.6292 42.9091 34.8451 43.4659C35.0611 44.0227 35.169 44.7083 35.169 45.5227V46.0909H28.4417V44.9318H33.8054C33.8054 44.4394 33.7069 44 33.5099 43.6136C33.3167 43.2273 33.0402 42.9223 32.6804 42.6989C32.3243 42.4754 31.9039 42.3636 31.419 42.3636C30.8849 42.3636 30.4228 42.4962 30.0326 42.7614C29.6463 43.0227 29.3489 43.3636 29.1406 43.7841C28.9323 44.2045 28.8281 44.6553 28.8281 45.1364V45.9091C28.8281 46.5682 28.9417 47.1269 29.169 47.5852C29.4001 48.0398 29.7201 48.3864 30.1292 48.625C30.5383 48.8598 31.0137 48.9773 31.5554 48.9773C31.9076 48.9773 32.2258 48.928 32.5099 48.8295C32.7978 48.7273 33.0459 48.5758 33.2542 48.375C33.4626 48.1705 33.6236 47.9167 33.7372 47.6136L35.0326 47.9773C34.8963 48.4167 34.6671 48.803 34.3451 49.1364C34.0232 49.4659 33.6254 49.7235 33.152 49.9091C32.6785 50.0909 32.1463 50.1818 31.5554 50.1818ZM32.5326 40.2273L31.3508 38.6364L30.169 40.2273H28.8963V40.1364L30.7372 37.7727H31.9645L33.8054 40.1364V40.2273H32.5326ZM38.1861 50.0909C37.9057 50.0909 37.6652 49.9905 37.4645 49.7898C37.2637 49.589 37.1633 49.3485 37.1633 49.0682C37.1633 48.7879 37.2637 48.5473 37.4645 48.3466C37.6652 48.1458 37.9057 48.0455 38.1861 48.0455C38.4664 48.0455 38.7069 48.1458 38.9076 48.3466C39.1084 48.5473 39.2088 48.7879 39.2088 49.0682C39.2088 49.2538 39.1614 49.4242 39.0667 49.5795C38.9758 49.7348 38.8527 49.8598 38.6974 49.9545C38.5459 50.0455 38.3754 50.0909 38.1861 50.0909Z" fill="black"/>
</svg>
