<svg width="117" height="30" viewBox="0 0 117 30" fill="none" xmlns="http://www.w3.org/2000/svg">
<path d="M17.2159 0.397615H25.1136V19.034C25.1136 21.2499 24.5833 23.1675 23.5227 24.7868C22.4716 26.3967 21.0038 27.6419 19.1193 28.5226C17.2348 29.3938 15.0473 29.8294 12.5568 29.8294C10.0473 29.8294 7.85038 29.3938 5.96591 28.5226C4.08144 27.6419 2.61364 26.3967 1.5625 24.7868C0.520833 23.1675 0 21.2499 0 19.034V0.397615H7.89773V18.3522C7.89773 19.2518 8.09659 20.0567 8.49432 20.7669C8.89205 21.4677 9.44129 22.0169 10.142 22.4147C10.8523 22.8124 11.6572 23.0113 12.5568 23.0113C13.4659 23.0113 14.2708 22.8124 14.9716 22.4147C15.6723 22.0169 16.2216 21.4677 16.6193 20.7669C17.017 20.0567 17.2159 19.2518 17.2159 18.3522V0.397615ZM44.549 9.48853C44.4732 8.54156 44.1181 7.80292 43.4837 7.27262C42.8587 6.74231 41.907 6.47716 40.6286 6.47716C39.8142 6.47716 39.1465 6.57659 38.6257 6.77546C38.1143 6.96485 37.7356 7.22527 37.4893 7.55671C37.2431 7.88815 37.1153 8.26693 37.1058 8.69307C37.0869 9.04345 37.1484 9.36068 37.2905 9.64478C37.442 9.9194 37.6787 10.1703 38.0007 10.3976C38.3227 10.6154 38.7346 10.8143 39.2365 10.9942C39.7384 11.1741 40.335 11.3351 41.0263 11.4772L43.4126 11.9885C45.0225 12.3294 46.4003 12.7792 47.5462 13.338C48.692 13.8967 49.6295 14.5548 50.3587 15.3124C51.0878 16.0605 51.6229 16.9033 51.9638 17.8408C52.3142 18.7783 52.4941 19.801 52.5036 20.909C52.4941 22.8219 52.0159 24.4412 51.0689 25.7669C50.1219 27.0927 48.7678 28.1012 47.0064 28.7925C45.2545 29.4838 43.1475 29.8294 40.6854 29.8294C38.157 29.8294 35.9505 29.4554 34.0661 28.7073C32.1911 27.9592 30.7327 26.8086 29.6911 25.2556C28.6589 23.6931 28.138 21.695 28.1286 19.2613H35.6286C35.6759 20.1514 35.8984 20.8995 36.2962 21.5056C36.6939 22.1116 37.2526 22.5709 37.9723 22.8834C38.7015 23.1959 39.5679 23.3522 40.5717 23.3522C41.4145 23.3522 42.12 23.248 42.6882 23.0397C43.2564 22.8313 43.6873 22.5425 43.9808 22.1732C44.2744 21.8039 44.4259 21.3825 44.4354 20.909C44.4259 20.4639 44.2791 20.0756 43.995 19.7442C43.7204 19.4033 43.2659 19.1003 42.6314 18.8351C41.9969 18.5605 41.1399 18.3048 40.0604 18.0681L37.1626 17.4431C34.5869 16.8844 32.5556 15.9516 31.0689 14.6448C29.5916 13.3285 28.8577 11.534 28.8672 9.26125C28.8577 7.41466 29.3501 5.80008 30.3445 4.4175C31.3482 3.02546 32.7356 1.94118 34.5064 1.16466C36.2867 0.388145 38.3274 -0.000112057 40.6286 -0.000112057C42.977 -0.000112057 45.0083 0.39288 46.7223 1.17887C48.4363 1.96485 49.7573 3.07281 50.6854 4.50273C51.6229 5.92318 52.0964 7.58512 52.1058 9.48853H44.549ZM55.5078 29.4885V0.397615H76.4737V6.76125H63.4055V11.7613H75.3942V18.1249H63.4055V23.1249H76.4169V29.4885H55.5078ZM116.541 14.9431C116.541 18.1817 115.911 20.9137 114.652 23.1391C113.393 25.355 111.693 27.0359 109.553 28.1817C107.412 29.3181 105.026 29.8863 102.393 29.8863C99.742 29.8863 97.3461 29.3133 95.206 28.1675C93.0753 27.0122 91.3802 25.3266 90.1207 23.1107C88.8707 20.8853 88.2457 18.1628 88.2457 14.9431C88.2457 11.7044 88.8707 8.97716 90.1207 6.76125C91.3802 4.53587 93.0753 2.855 95.206 1.71864C97.3461 0.572805 99.742 -0.000112057 102.393 -0.000112057C105.026 -0.000112057 107.412 0.572805 109.553 1.71864C111.693 2.855 113.393 4.53587 114.652 6.76125C115.911 8.97716 116.541 11.7044 116.541 14.9431ZM108.416 14.9431C108.416 13.2006 108.184 11.7328 107.72 10.5397C107.266 9.33701 106.589 8.42792 105.689 7.81239C104.799 7.18739 103.7 6.87489 102.393 6.87489C101.087 6.87489 99.9834 7.18739 99.0838 7.81239C98.1937 8.42792 97.5166 9.33701 97.0526 10.5397C96.598 11.7328 96.3707 13.2006 96.3707 14.9431C96.3707 16.6855 96.598 18.158 97.0526 19.3607C97.5166 20.5539 98.1937 21.463 99.0838 22.088C99.9834 22.7035 101.087 23.0113 102.393 23.0113C103.7 23.0113 104.799 22.7035 105.689 22.088C106.589 21.463 107.266 20.5539 107.72 19.3607C108.184 18.158 108.416 16.6855 108.416 14.9431Z" fill="black"/>
</svg>
